<svg width="20" height="14" viewBox="0 0 20 14" fill="none" xmlns="http://www.w3.org/2000/svg">
<rect width="20" height="14" rx="2" fill="white"/>
<mask id="mask0_3245_60819" style="mask-type:luminance" maskUnits="userSpaceOnUse" x="0" y="0" width="20" height="14">
<rect width="20" height="14" rx="2" fill="white"/>
</mask>
<g mask="url(#mask0_3245_60819)">
<path fill-rule="evenodd" clip-rule="evenodd" d="M0 2.8H20V0H0V2.8Z" fill="#1461B6"/>
<path fill-rule="evenodd" clip-rule="evenodd" d="M0 14H20V11.2H0V14Z" fill="#1461B6"/>
<path fill-rule="evenodd" clip-rule="evenodd" d="M0 11.2H20V2.80005H0V11.2Z" fill="white"/>
<path fill-rule="evenodd" clip-rule="evenodd" d="M0 10.2666H20V3.73328H0V10.2666Z" fill="#F53846"/>
<path fill-rule="evenodd" clip-rule="evenodd" d="M9.52387 6.99996C9.52387 8.28862 8.45788 9.33329 7.14292 9.33329C5.82795 9.33329 4.76196 8.28862 4.76196 6.99996C4.76196 5.71129 5.82795 4.66663 7.14292 4.66663L6.58134 6.24247L4.8785 6.27892L6.23426 7.28929L5.74343 8.88767L7.14292 7.93626L8.5424 8.88767L8.05157 7.28929L9.40734 6.27892L7.70449 6.24247L7.14292 4.66663C8.45788 4.66663 9.52387 5.71129 9.52387 6.99996Z" fill="white"/>
</g>
</svg>
