<svg width="20" height="14" viewBox="0 0 20 14" fill="none" xmlns="http://www.w3.org/2000/svg">
<rect width="20" height="14" rx="2" fill="white"/>
<mask id="mask0_3245_60871" style="mask-type:luminance" maskUnits="userSpaceOnUse" x="0" y="0" width="20" height="14">
<rect width="20" height="14" rx="2" fill="white"/>
</mask>
<g mask="url(#mask0_3245_60871)">
<rect width="20" height="14" fill="#DC1F37"/>
<rect width="8.57143" height="6.53333" fill="#042C90"/>
<path fill-rule="evenodd" clip-rule="evenodd" d="M12.3809 6.99996C12.3809 5.59996 12.3809 4.66663 12.3809 4.66663H14.2856H16.1904C16.1904 4.66663 16.1904 5.59996 16.1904 6.99996C16.1904 8.39996 14.2856 9.33329 14.2856 9.33329C14.2856 9.33329 12.3809 8.39996 12.3809 6.99996Z" fill="white"/>
<mask id="mask1_3245_60871" style="mask-type:luminance" maskUnits="userSpaceOnUse" x="12" y="4" width="5" height="6">
<path fill-rule="evenodd" clip-rule="evenodd" d="M12.3809 6.99996C12.3809 5.59996 12.3809 4.66663 12.3809 4.66663H14.2856H16.1904C16.1904 4.66663 16.1904 5.59996 16.1904 6.99996C16.1904 8.39996 14.2856 9.33329 14.2856 9.33329C14.2856 9.33329 12.3809 8.39996 12.3809 6.99996Z" fill="white"/>
</mask>
<g mask="url(#mask1_3245_60871)">
<path fill-rule="evenodd" clip-rule="evenodd" d="M14.2856 8.39999C14.8116 8.39999 15.238 7.98212 15.238 7.46666C15.238 6.95119 14.8116 6.53333 14.2856 6.53333C13.7596 6.53333 13.3333 6.95119 13.3333 7.46666C13.3333 7.98212 13.7596 8.39999 14.2856 8.39999Z" fill="#65B5D2"/>
<path fill-rule="evenodd" clip-rule="evenodd" d="M14.2855 6.53331C14.5485 6.53331 14.7617 6.32438 14.7617 6.06664C14.7617 5.80891 14.5485 5.59998 14.2855 5.59998C14.0225 5.59998 13.8093 5.80891 13.8093 6.06664C13.8093 6.32438 14.0225 6.53331 14.2855 6.53331ZM13.3331 7.46664C13.5961 7.46664 13.8093 7.25771 13.8093 6.99998C13.8093 6.74224 13.5961 6.53331 13.3331 6.53331C13.0701 6.53331 12.8569 6.74224 12.8569 6.99998C12.8569 7.25771 13.0701 7.46664 13.3331 7.46664ZM15.7141 6.99998C15.7141 7.25771 15.5009 7.46664 15.2379 7.46664C14.9749 7.46664 14.7617 7.25771 14.7617 6.99998C14.7617 6.74224 14.9749 6.53331 15.2379 6.53331C15.5009 6.53331 15.7141 6.74224 15.7141 6.99998Z" fill="url(#paint0_linear_3245_60871)"/>
<rect x="12.3809" y="8.3999" width="3.80952" height="0.933332" fill="#2F8F22"/>
</g>
<path d="M-0.915074 -0.333333H0H0.47619H0.581265L0.667345 -0.273077L3.9146 2H4.66793L8.39732 -0.284251L8.90476 -0.595057V0V0.293115C8.90476 0.510658 8.79862 0.714517 8.6204 0.839269L5.57143 2.97355V3.578L8.45876 6.00336C8.80818 6.29688 8.60063 6.86667 8.14428 6.86667C8.04397 6.86667 7.94608 6.83581 7.8639 6.77828M-0.915074 -0.333333L7.8639 6.77828M-0.915074 -0.333333L-0.214397 0.255235L3 2.95533V3.55978L-0.191154 5.79359L-0.333333 5.89311V6.06667V6.53333V7.12839L0.174104 6.81758L3.90349 4.53333H4.65683L7.8639 6.77828M-0.915074 -0.333333L7.8639 6.77828" fill="#DB1E36" stroke="white" stroke-width="0.666667"/>
<path fill-rule="evenodd" clip-rule="evenodd" d="M0 2.33333V4.2H3.33333V6.33333C3.33333 6.70152 3.63181 7 4 7H4.57143C4.93962 7 5.23809 6.70152 5.23809 6.33333V4.2H8.38095C8.74914 4.2 9.04762 3.90152 9.04762 3.53333V3C9.04762 2.63181 8.74914 2.33333 8.38095 2.33333H5.23809V0H3.33333V2.33333H0Z" fill="white"/>
<path fill-rule="evenodd" clip-rule="evenodd" d="M0 2.8H3.80952V2.33333V0H4.7619V2.33333V2.8H8.57143V3.73333H4.7619V4.2V6.53333H3.80952V4.2V3.73333H0V2.8Z" fill="url(#paint1_linear_3245_60871)"/>
</g>
<defs>
<linearGradient id="paint0_linear_3245_60871" x1="12.8569" y1="5.59998" x2="12.8569" y2="7.46664" gradientUnits="userSpaceOnUse">
<stop stop-color="#E20B0C"/>
<stop offset="1" stop-color="#D40001"/>
</linearGradient>
<linearGradient id="paint1_linear_3245_60871" x1="0" y1="0" x2="0" y2="6.53333" gradientUnits="userSpaceOnUse">
<stop stop-color="#DB1E36"/>
<stop offset="1" stop-color="#D51931"/>
</linearGradient>
</defs>
</svg>
