<svg width="20" height="14" viewBox="0 0 20 14" fill="none" xmlns="http://www.w3.org/2000/svg">
<rect x="0.25" y="0.25" width="19.5" height="13.5" rx="1.75" fill="white" stroke="#F5F5F5" stroke-width="0.5"/>
<mask id="mask0_3245_60797" style="mask-type:luminance" maskUnits="userSpaceOnUse" x="0" y="0" width="20" height="14">
<rect x="0.25" y="0.25" width="19.5" height="13.5" rx="1.75" fill="white" stroke="white" stroke-width="0.5"/>
</mask>
<g mask="url(#mask0_3245_60797)">
<path fill-rule="evenodd" clip-rule="evenodd" d="M0 4.66667H20V0H0V4.66667Z" fill="#D9101C"/>
<path fill-rule="evenodd" clip-rule="evenodd" d="M0 14H20V9.33331H0V14Z" fill="#0F7811"/>
<path fill-rule="evenodd" clip-rule="evenodd" d="M9.52389 6.06664C9.52389 6.32438 9.31069 6.53331 9.0477 6.53331C8.78471 6.53331 8.57151 6.32438 8.57151 6.06664C8.57151 5.80891 8.78471 5.59998 9.0477 5.59998C9.31069 5.59998 9.52389 5.80891 9.52389 6.06664ZM10.4763 6.99998C10.4763 7.08439 10.4534 7.26368 10.4134 7.46664H10.962C11.2197 7.46664 11.4287 7.67558 11.4287 7.93331C11.4287 8.19104 11.2197 8.39998 10.962 8.39998H10.0001H9.03818C8.78044 8.39998 8.57151 8.19104 8.57151 7.93331C8.57151 7.67558 8.78044 7.46664 9.03818 7.46664H9.58676C9.54676 7.26368 9.52389 7.08439 9.52389 6.99998C9.52389 6.74224 9.73709 6.53331 10.0001 6.53331C10.2631 6.53331 10.4763 6.74224 10.4763 6.99998ZM11.4287 6.06664C11.4287 6.32438 11.2155 6.53331 10.9525 6.53331C10.6895 6.53331 10.4763 6.32438 10.4763 6.06664C10.4763 5.80891 10.6895 5.59998 10.9525 5.59998C11.2155 5.59998 11.4287 5.80891 11.4287 6.06664ZM12.8572 7.46664C13.1202 7.46664 13.3334 7.25771 13.3334 6.99998C13.3334 6.74224 13.1202 6.53331 12.8572 6.53331C12.5942 6.53331 12.381 6.74224 12.381 6.99998C12.381 7.25771 12.5942 7.46664 12.8572 7.46664ZM7.61913 6.99998C7.61913 7.25771 7.40593 7.46664 7.14294 7.46664C6.87995 7.46664 6.66675 7.25771 6.66675 6.99998C6.66675 6.74224 6.87995 6.53331 7.14294 6.53331C7.40593 6.53331 7.61913 6.74224 7.61913 6.99998Z" fill="#FAD14E"/>
</g>
</svg>
