<svg width="20" height="14" viewBox="0 0 20 14" fill="none" xmlns="http://www.w3.org/2000/svg">
<rect width="20" height="14" rx="2" fill="white"/>
<mask id="mask0_3245_60925" style="mask-type:luminance" maskUnits="userSpaceOnUse" x="0" y="0" width="20" height="14">
<rect width="20" height="14" rx="2" fill="white"/>
</mask>
<g mask="url(#mask0_3245_60925)">
<rect width="20" height="14" fill="#19BFBF"/>
<path fill-rule="evenodd" clip-rule="evenodd" d="M3.96352 5.76488C3.87889 5.93074 3.94656 6.13377 4.11377 6.2157L5.41011 6.85091C5.57732 6.93284 5.64499 7.13587 5.56036 7.30173L5.38719 7.64114C5.30448 7.80326 5.10703 7.86907 4.9436 7.78898L4.35514 7.50064C4.30949 7.47827 4.25932 7.46664 4.20847 7.46664H3.19051C3.00642 7.46664 2.85718 7.61588 2.85718 7.79997V8.15819C2.85718 8.30241 2.94992 8.43027 3.087 8.47505L3.78075 8.70167C4.01077 8.77681 4.07914 9.06911 3.90632 9.23848C3.84443 9.29913 3.80956 9.38213 3.80956 9.46878V9.74483C3.80956 9.78134 3.81556 9.81761 3.82731 9.85217L4.24117 11.0689C4.26971 11.1528 4.33049 11.2219 4.41007 11.2609L5.02648 11.5629C5.15333 11.6251 5.30558 11.6005 5.40646 11.5017L6.19051 10.7333L6.33 10.5966C6.49432 10.4356 6.44996 10.1604 6.24336 10.0592L5.85199 9.86743C5.76773 9.82614 5.71432 9.74049 5.71432 9.64666C5.71432 9.48719 5.86379 9.36993 6.01867 9.40787L7.36507 9.73774C7.5142 9.77428 7.61908 9.90795 7.61908 10.0615V10.6307C7.61908 10.6975 7.6392 10.7629 7.67681 10.8182L8.47225 11.9875C8.53431 12.0787 8.63751 12.1333 8.74786 12.1333H8.82368C8.95913 12.1333 9.08111 12.0513 9.13229 11.9259L9.72512 10.4735C9.83291 10.2094 10.201 10.1939 10.3307 10.448L10.4515 10.6848C10.4679 10.7169 10.4894 10.7462 10.5151 10.7714L11.3902 11.629C11.4156 11.6539 11.4449 11.6746 11.4769 11.6903L11.901 11.8981C12.1224 12.0066 12.381 11.8454 12.381 11.5988V11.34C12.381 11.2504 12.3449 11.1646 12.281 11.1019L12.1477 10.9714C12.0144 10.8407 12.0144 10.6259 12.1477 10.4952L12.2838 10.3619C12.3461 10.3008 12.4299 10.2666 12.5171 10.2666H13.2561C13.3069 10.2666 13.3571 10.255 13.4028 10.2326L14.0991 9.89144C14.2133 9.83546 14.2857 9.71933 14.2857 9.5921V9.00669C14.2857 8.91711 14.2497 8.83131 14.1857 8.76861L14.0525 8.63804C13.9191 8.50734 13.9191 8.2926 14.0525 8.1619L14.4379 7.78419C14.5986 7.62673 14.8659 7.67038 14.9681 7.87078L15.1791 8.28427C15.2153 8.35528 15.2883 8.39997 15.368 8.39997C15.5264 8.39997 15.6289 8.23261 15.5569 8.0915L15.3921 7.7684C15.3075 7.60253 15.3751 7.39951 15.5423 7.31758L15.8863 7.14903C16.0535 7.0671 16.1212 6.86407 16.0366 6.69821L15.7769 6.18926C15.7368 6.11073 15.6673 6.05127 15.5835 6.02389L14.8078 5.7705C14.57 5.69283 14.4993 5.39066 14.678 5.21558L15.1409 4.7619C15.2032 4.70084 15.287 4.66664 15.3742 4.66664H16.4626C16.5878 4.66664 16.7025 4.59639 16.7595 4.48479L16.9186 4.17301C17.0259 3.96264 16.8864 3.71046 16.6512 3.6895L12.4611 3.3162C12.2422 3.2967 12.1467 3.02956 12.3037 2.87571C12.3531 2.82727 12.381 2.76097 12.381 2.69176V2.19997C12.381 2.01588 12.2317 1.86664 12.0477 1.86664H10.1361C10.0489 1.86664 9.96514 1.90084 9.90283 1.9619L8.63671 3.20269C8.594 3.24455 8.54081 3.27415 8.48273 3.28838L6.6667 3.7333L4.87937 4.1712C4.8035 4.18979 4.72352 4.18114 4.65337 4.14677L4.53025 4.08644C4.26385 3.95591 3.97247 4.21225 4.068 4.49311L4.24039 4.99995C4.26939 5.0852 4.26266 5.17856 4.22173 5.25878L3.96352 5.76488ZM10.4762 11.6666C10.4762 11.9244 10.263 12.1333 10 12.1333C9.73704 12.1333 9.52384 11.9244 9.52384 11.6666C9.52384 11.4089 9.73704 11.2 10 11.2C10.263 11.2 10.4762 11.4089 10.4762 11.6666ZM7.14289 7.46664C7.40588 7.46664 7.61908 7.2577 7.61908 6.99997C7.61908 6.74224 7.40588 6.53331 7.14289 6.53331C6.8799 6.53331 6.6667 6.74224 6.6667 6.99997C6.6667 7.2577 6.8799 7.46664 7.14289 7.46664ZM16.1905 8.86664V9.33331L15.7823 9.73339C15.5832 9.92843 15.7213 10.2666 16 10.2666C16.1169 10.2666 16.224 10.2011 16.2771 10.0969L16.6667 9.33331L16.1905 8.86664ZM16.1905 8.86664L16.4486 8.74017C16.6192 8.6566 16.5597 8.39997 16.3698 8.39997C16.2708 8.39997 16.1905 8.48022 16.1905 8.57921V8.86664Z" fill="white"/>
</g>
</svg>
