<svg width="20" height="14" viewBox="0 0 20 14" fill="none" xmlns="http://www.w3.org/2000/svg">
<rect width="20" height="14" rx="2" fill="white"/>
<mask id="mask0_3245_60787" style="mask-type:luminance" maskUnits="userSpaceOnUse" x="0" y="0" width="20" height="14">
<rect width="20" height="14" rx="2" fill="white"/>
</mask>
<g mask="url(#mask0_3245_60787)">
<rect width="20" height="14" fill="#E31F37"/>
<path fill-rule="evenodd" clip-rule="evenodd" d="M-0.952393 7.46665H10.4762V-0.93335H-0.952393V7.46665Z" fill="#083B9A"/>
<path fill-rule="evenodd" clip-rule="evenodd" d="M4.76179 1.86668L4.08836 2.05998L4.2856 1.40002L4.08836 0.740051L4.76179 0.933351L5.43523 0.740051L5.23798 1.40002L5.43523 2.05998L4.76179 1.86668ZM4.76179 6.53335L4.08836 6.72665L4.2856 6.06668L4.08836 5.40672L4.76179 5.60002L5.43523 5.40672L5.23798 6.06668L5.43523 6.72665L4.76179 6.53335ZM2.18359 4.39332L2.85703 4.20002L3.53046 4.39332L3.33322 3.73335L3.53046 3.07338L2.85703 3.26668L2.18359 3.07338L2.38084 3.73335L2.18359 4.39332ZM7.14274 3.73335L6.46931 3.92665L6.66655 3.26668L6.46931 2.60672L7.14274 2.80002L7.81618 2.60672L7.61893 3.26668L7.81618 3.92665L7.14274 3.73335ZM6.19036 4.90002C6.19036 5.02888 6.08376 5.13335 5.95227 5.13335C5.82077 5.13335 5.71417 5.02888 5.71417 4.90002C5.71417 4.77115 5.82077 4.66668 5.95227 4.66668C6.08376 4.66668 6.19036 4.77115 6.19036 4.90002Z" fill="white"/>
</g>
</svg>
