<svg width="20" height="14" viewBox="0 0 20 14" fill="none" xmlns="http://www.w3.org/2000/svg">
<rect x="0.25" y="0.25" width="19.5" height="13.5" rx="1.75" fill="white" stroke="#F5F5F5" stroke-width="0.5"/>
<mask id="mask0_3245_60856" style="mask-type:luminance" maskUnits="userSpaceOnUse" x="0" y="0" width="20" height="14">
<rect x="0.25" y="0.25" width="19.5" height="13.5" rx="1.75" fill="white" stroke="white" stroke-width="0.5"/>
</mask>
<g mask="url(#mask0_3245_60856)">
<path fill-rule="evenodd" clip-rule="evenodd" d="M0 14H20V9.33337H0V14Z" fill="#E34F4F"/>
<path fill-rule="evenodd" clip-rule="evenodd" d="M6.66675 9.33331H12.381V5.59998H6.66675V9.33331Z" fill="#E34F4F"/>
<path fill-rule="evenodd" clip-rule="evenodd" d="M7.61914 9.33336H8.57152V8.40002H7.61914V9.33336Z" fill="#181A1A"/>
<path fill-rule="evenodd" clip-rule="evenodd" d="M10.4761 9.33336H11.4285V8.40002H10.4761V9.33336Z" fill="#181A1A"/>
<path fill-rule="evenodd" clip-rule="evenodd" d="M6.66675 5.59996H7.61913V4.66663H6.66675V5.59996Z" fill="#181A1A"/>
<path fill-rule="evenodd" clip-rule="evenodd" d="M9.52393 5.59996H10.4763V4.66663H9.52393V5.59996Z" fill="#181A1A"/>
<path fill-rule="evenodd" clip-rule="evenodd" d="M8.57153 5.59996H9.52391V4.66663H8.57153V5.59996Z" fill="#181A1A"/>
<path fill-rule="evenodd" clip-rule="evenodd" d="M11.4285 5.59996H12.3808V4.66663H11.4285V5.59996Z" fill="#181A1A"/>
<path fill-rule="evenodd" clip-rule="evenodd" d="M6.66675 4.66661H7.61913V3.73328H6.66675V4.66661Z" fill="#E34F4F"/>
<path fill-rule="evenodd" clip-rule="evenodd" d="M9.52393 4.66661H10.4763V3.73328H9.52393V4.66661Z" fill="#E34F4F"/>
<path fill-rule="evenodd" clip-rule="evenodd" d="M8.57153 4.66661H9.52391V3.73328H8.57153V4.66661Z" fill="#E34F4F"/>
<path fill-rule="evenodd" clip-rule="evenodd" d="M11.4285 4.66661H12.3808V3.73328H11.4285V4.66661Z" fill="#E34F4F"/>
</g>
</svg>
