<svg width="20" height="14" viewBox="0 0 20 14" fill="none" xmlns="http://www.w3.org/2000/svg">
<rect width="20" height="14" rx="2" fill="white"/>
<mask id="mask0_3245_60821" style="mask-type:luminance" maskUnits="userSpaceOnUse" x="0" y="0" width="20" height="14">
<rect width="20" height="14" rx="2" fill="white"/>
</mask>
<g mask="url(#mask0_3245_60821)">
<path fill-rule="evenodd" clip-rule="evenodd" d="M0 3.73333H20V0H0V3.73333Z" fill="#262626"/>
<path fill-rule="evenodd" clip-rule="evenodd" d="M0 14.0001H20V10.2667H0V14.0001Z" fill="#018301"/>
<path fill-rule="evenodd" clip-rule="evenodd" d="M0 10.2666H20V3.73328H0V10.2666Z" fill="white"/>
<path fill-rule="evenodd" clip-rule="evenodd" d="M0 9.33329H20V4.66663H0V9.33329Z" fill="#DC0808"/>
<path fill-rule="evenodd" clip-rule="evenodd" d="M10.0001 11.6667C10.9525 11.6667 12.381 9.8351 12.381 7.00004C12.381 4.16498 10.9525 2.33337 10.0001 2.33337C9.04771 2.33337 7.61914 4.16498 7.61914 7.00004C7.61914 9.8351 9.04771 11.6667 10.0001 11.6667Z" fill="#BC0000"/>
<mask id="mask1_3245_60821" style="mask-type:luminance" maskUnits="userSpaceOnUse" x="7" y="2" width="6" height="10">
<path fill-rule="evenodd" clip-rule="evenodd" d="M10.0001 11.6667C10.9525 11.6667 12.381 9.8351 12.381 7.00004C12.381 4.16498 10.9525 2.33337 10.0001 2.33337C9.04771 2.33337 7.61914 4.16498 7.61914 7.00004C7.61914 9.8351 9.04771 11.6667 10.0001 11.6667Z" fill="white"/>
</mask>
<g mask="url(#mask1_3245_60821)">
<path fill-rule="evenodd" clip-rule="evenodd" d="M6.19052 12.1334C7.50549 12.1334 8.57148 9.83509 8.57148 7.00003C8.57148 4.16497 7.50549 1.8667 6.19052 1.8667C4.87556 1.8667 3.80957 4.16497 3.80957 7.00003C3.80957 9.83509 4.87556 12.1334 6.19052 12.1334Z" fill="#262626"/>
<path fill-rule="evenodd" clip-rule="evenodd" d="M13.8097 12.1334C15.1246 12.1334 16.1906 9.83509 16.1906 7.00003C16.1906 4.16497 15.1246 1.8667 13.8097 1.8667C12.4947 1.8667 11.4287 4.16497 11.4287 7.00003C11.4287 9.83509 12.4947 12.1334 13.8097 12.1334Z" fill="#262626"/>
<g filter="url(#filter0_d_3245_60821)">
<path fill-rule="evenodd" clip-rule="evenodd" d="M10.0001 5.60003C10.2631 5.60003 10.4763 4.7643 10.4763 3.73337C10.4763 2.70243 10.2631 1.8667 10.0001 1.8667C9.73712 1.8667 9.52393 2.70243 9.52393 3.73337C9.52393 4.7643 9.73712 5.60003 10.0001 5.60003ZM10.0001 5.60003C10.2631 5.60003 10.4763 6.22683 10.4763 7.00003C10.4763 7.77323 10.2631 8.40003 10.0001 8.40003C9.73712 8.40003 9.52393 7.77323 9.52393 7.00003C9.52393 6.22683 9.73712 5.60003 10.0001 5.60003ZM10.4763 10.2667C10.4763 11.2976 10.2631 12.1334 10.0001 12.1334C9.73712 12.1334 9.52393 11.2976 9.52393 10.2667C9.52393 9.23577 9.73712 8.40003 10.0001 8.40003C10.2631 8.40003 10.4763 9.23577 10.4763 10.2667Z" fill="url(#paint0_linear_3245_60821)"/>
</g>
</g>
</g>
<defs>
<filter id="filter0_d_3245_60821" x="9.52393" y="1.8667" width="0.952393" height="11.2667" filterUnits="userSpaceOnUse" color-interpolation-filters="sRGB">
<feFlood flood-opacity="0" result="BackgroundImageFix"/>
<feColorMatrix in="SourceAlpha" type="matrix" values="0 0 0 0 0 0 0 0 0 0 0 0 0 0 0 0 0 0 127 0" result="hardAlpha"/>
<feOffset dy="1"/>
<feColorMatrix type="matrix" values="0 0 0 0 0 0 0 0 0 0 0 0 0 0 0 0 0 0 0.06 0"/>
<feBlend mode="normal" in2="BackgroundImageFix" result="effect1_dropShadow_3245_60821"/>
<feBlend mode="normal" in="SourceGraphic" in2="effect1_dropShadow_3245_60821" result="shape"/>
</filter>
<linearGradient id="paint0_linear_3245_60821" x1="9.52393" y1="1.8667" x2="9.52393" y2="12.1334" gradientUnits="userSpaceOnUse">
<stop stop-color="white"/>
<stop offset="1" stop-color="#F0F0F0"/>
</linearGradient>
</defs>
</svg>
