<svg width="20" height="14" viewBox="0 0 20 14" fill="none" xmlns="http://www.w3.org/2000/svg">
<rect width="20" height="14" rx="2" fill="white"/>
<mask id="mask0_3245_60838" style="mask-type:luminance" maskUnits="userSpaceOnUse" x="0" y="0" width="20" height="14">
<rect width="20" height="14" rx="2" fill="white"/>
</mask>
<g mask="url(#mask0_3245_60838)">
<rect width="20" height="14" fill="#19BFBF"/>
<path fill-rule="evenodd" clip-rule="evenodd" d="M12.1477 12.3713L11.4853 11.7222C11.4481 11.6857 11.4199 11.6409 11.4031 11.5915L11.0073 10.4278C10.9745 10.3314 10.884 10.2666 10.7822 10.2666C10.6271 10.2666 10.5135 10.4128 10.5519 10.5631L10.905 11.9472C10.9344 12.0624 10.9002 12.1845 10.8153 12.2677L10.7096 12.3713C10.5799 12.4983 10.3725 12.4983 10.2429 12.3713L10.1001 12.2313C10.0361 12.1686 10.0001 12.0828 10.0001 11.9933V11.2801C10.0001 11.2274 9.98758 11.1755 9.96365 11.1286L9.61664 10.4485C9.55971 10.3369 9.44501 10.2666 9.31972 10.2666H8.17257C8.12173 10.2666 8.07156 10.2783 8.0259 10.3006L7.26724 10.6724C7.18765 10.7114 7.12687 10.7805 7.09833 10.8644L6.71131 12.0022C6.68277 12.0861 6.62199 12.1552 6.5424 12.1942L5.86102 12.5281C5.76849 12.5734 5.6602 12.5734 5.56767 12.5281L4.94862 12.2248C4.83438 12.1688 4.76196 12.0527 4.76196 11.9254V10.6C4.76196 10.4159 4.9112 10.2666 5.0953 10.2666H5.8572C6.0413 10.2666 6.19053 10.1174 6.19053 9.9333V9.38844C6.19053 9.35193 6.19653 9.31567 6.20829 9.2811L6.58986 8.1593C6.63582 8.02417 6.76271 7.9333 6.90543 7.9333H7.54183C7.59267 7.9333 7.64284 7.92167 7.6885 7.8993L8.50209 7.50064C8.54775 7.47827 8.59792 7.46664 8.64876 7.46664H9.19526C9.37675 7.46664 9.52387 7.31952 9.52387 7.13803C9.52387 7.04973 9.55941 6.96514 9.62247 6.90334L9.67602 6.85086C9.8367 6.6934 10.104 6.73705 10.2063 6.93744L10.3835 7.28479C10.4404 7.39639 10.5551 7.46664 10.6804 7.46664H11.6661C11.8088 7.46664 11.9357 7.37577 11.9817 7.24064L12.3041 6.29263C12.3501 6.15751 12.477 6.06664 12.6197 6.06664H13.1001C13.2289 6.06664 13.3334 5.96217 13.3334 5.8333C13.3334 5.70444 13.2289 5.59997 13.1001 5.59997H12.7143C12.5302 5.59997 12.381 5.45073 12.381 5.26664V4.74676C12.381 4.6941 12.3935 4.64218 12.4174 4.59527L12.7459 3.95145C12.8121 3.82165 12.7864 3.66388 12.6823 3.56189L12.6143 3.49528C12.4847 3.36827 12.2773 3.36827 12.1477 3.49528L11.5287 4.10195C11.4647 4.16464 11.4286 4.25045 11.4286 4.34002V5.07817C11.4286 5.11468 11.4226 5.15094 11.4109 5.18551L11.0293 6.30731C10.9833 6.44244 10.8565 6.5333 10.7137 6.5333H10.6124C10.5251 6.5333 10.4413 6.4991 10.379 6.43804L10.0693 6.13445C10.025 6.09108 10.0001 6.03172 10.0001 5.96975C10.0001 5.79914 9.82121 5.68761 9.668 5.76268L9.25933 5.96293C9.13248 6.02508 8.98023 6.00054 8.87934 5.90167L8.67151 5.69799C8.60754 5.6353 8.57149 5.5495 8.57149 5.45992V4.80669C8.57149 4.71711 8.60754 4.63131 8.67151 4.56861L9.52387 3.7333L10.8968 2.38788C10.9334 2.35198 10.9778 2.32502 11.0266 2.30909L12.3306 1.88312C12.364 1.8722 12.3989 1.86664 12.4341 1.86664H13.1292C13.2545 1.86664 13.3692 1.93689 13.4262 2.04848L13.7732 2.7286C13.7971 2.77551 13.8096 2.82743 13.8096 2.88009V4.05992C13.8096 4.1495 13.8456 4.2353 13.9096 4.29799L14.136 4.51982C14.2275 4.60955 14.2595 4.74385 14.2182 4.86523L13.8929 5.82173C13.8439 5.96585 13.8987 6.12487 14.0261 6.20813L15.2382 6.99997L15.8455 7.29755C16.0276 7.3868 16.0885 7.61666 15.9744 7.78437L15.2959 8.78178C15.2583 8.83707 15.2382 8.9024 15.2382 8.96927V10.0249C15.2382 10.1691 15.1454 10.2969 15.0083 10.3417L13.9404 10.6906C13.8566 10.7179 13.7871 10.7774 13.747 10.8559L13.3581 11.6182C13.3417 11.6503 13.3203 11.6795 13.2945 11.7047L12.6143 12.3713C12.4847 12.4983 12.2773 12.4983 12.1477 12.3713ZM8.0953 12.1333C8.35829 12.1333 8.57149 11.9244 8.57149 11.6666C8.57149 11.4089 8.35829 11.2 8.0953 11.2C7.8323 11.2 7.61911 11.4089 7.61911 11.6666C7.61911 11.9244 7.8323 12.1333 8.0953 12.1333ZM6.66672 6.06664C6.66672 6.32437 6.45353 6.53331 6.19053 6.53331C5.92754 6.53331 5.71434 6.32437 5.71434 6.06664C5.71434 5.80891 5.92754 5.59997 6.19053 5.59997C6.45353 5.59997 6.66672 5.80891 6.66672 6.06664Z" fill="white"/>
<path fill-rule="evenodd" clip-rule="evenodd" d="M7.10653 6.13806C7.13046 6.09114 7.14294 6.03923 7.14294 5.98657V5.68014C7.14294 5.62748 7.13046 5.57556 7.10653 5.52865L6.91411 5.15151C6.80095 4.92973 6.96205 4.66669 7.21103 4.66669H7.2858C7.46989 4.66669 7.61913 4.81593 7.61913 5.00002V5.98657C7.61913 6.03923 7.63161 6.09114 7.65554 6.13806L7.84796 6.5152C7.96111 6.73698 7.80002 7.00002 7.55104 7.00002H7.21103C6.96205 7.00002 6.80095 6.73698 6.91411 6.5152L7.10653 6.13806Z" fill="white"/>
</g>
</svg>
