<svg width="20" height="14" viewBox="0 0 20 14" fill="none" xmlns="http://www.w3.org/2000/svg">
<rect width="20" height="14" rx="2" fill="white"/>
<mask id="mask0_240_8658" style="mask-type:luminance" maskUnits="userSpaceOnUse" x="0" y="0" width="20" height="14">
<rect width="20" height="14" rx="2" fill="white"/>
</mask>
<g mask="url(#mask0_240_8658)">
<rect x="9.5238" width="10.4762" height="14" fill="#1AB11F"/>
<path fill-rule="evenodd" clip-rule="evenodd" d="M0 14H6.66667V0H0V14Z" fill="#262626"/>
<path fill-rule="evenodd" clip-rule="evenodd" d="M6.66663 14H13.3333V0H6.66663V14Z" fill="#DC0D18"/>
<path opacity="0.75" d="M8.76188 6.53333C8.76188 6.16514 8.4634 5.86666 8.09521 5.86666C7.72703 5.86666 7.42855 6.16514 7.42855 6.53333H8.76188ZM8.71588 8.72855C9.03594 8.91055 9.44294 8.79863 9.62494 8.47856C9.80694 8.1585 9.69501 7.7515 9.37495 7.5695L8.71588 8.72855ZM10.6708 7.54214C10.3588 7.73768 10.2645 8.1491 10.46 8.46107C10.6555 8.77305 11.067 8.86744 11.3789 8.6719L10.6708 7.54214ZM12.5714 6.53333C12.5714 6.16514 12.2729 5.86666 11.9047 5.86666C11.5365 5.86666 11.2381 6.16514 11.2381 6.53333H12.5714ZM7.42855 6.53333C7.42855 7.4773 7.95198 8.29417 8.71588 8.72855L9.37495 7.5695C9.00259 7.35776 8.76188 6.96944 8.76188 6.53333H7.42855ZM11.3789 8.6719C12.0908 8.22572 12.5714 7.43759 12.5714 6.53333H11.2381C11.2381 6.9514 11.0172 7.32505 10.6708 7.54214L11.3789 8.6719Z" fill="white"/>
<path fill-rule="evenodd" clip-rule="evenodd" d="M9.99999 7.46669C10.526 7.46669 10.9524 6.83989 10.9524 6.06669C10.9524 5.29349 10.526 4.66669 9.99999 4.66669C9.474 4.66669 9.04761 5.29349 9.04761 6.06669C9.04761 6.83989 9.474 7.46669 9.99999 7.46669Z" fill="white" fill-opacity="0.5"/>
</g>
</svg>
