<svg width="20" height="14" viewBox="0 0 20 14" fill="none" xmlns="http://www.w3.org/2000/svg">
<rect x="0.25" y="0.25" width="19.5" height="13.5" rx="1.75" fill="white" stroke="#F5F5F5" stroke-width="0.5"/>
<mask id="mask0_3245_60910" style="mask-type:luminance" maskUnits="userSpaceOnUse" x="0" y="0" width="20" height="14">
<rect x="0.25" y="0.25" width="19.5" height="13.5" rx="1.75" fill="white" stroke="white" stroke-width="0.5"/>
</mask>
<g mask="url(#mask0_3245_60910)">
<path fill-rule="evenodd" clip-rule="evenodd" d="M0 4.66667H20V0H0V4.66667Z" fill="#E33F39"/>
<path fill-rule="evenodd" clip-rule="evenodd" d="M0 14H20V9.33337H0V14Z" fill="#124BBA"/>
<path d="M10.0001 8.73331C10.9668 8.73331 11.762 7.96359 11.762 6.99998C11.762 6.03637 10.9668 5.26664 10.0001 5.26664C9.03341 5.26664 8.2382 6.03637 8.2382 6.99998C8.2382 7.96359 9.03341 8.73331 10.0001 8.73331Z" stroke="#398153" stroke-width="0.666667"/>
<path fill-rule="evenodd" clip-rule="evenodd" d="M10.0001 7.46666C10.2631 7.46666 10.4763 7.25773 10.4763 6.99999C10.4763 6.74226 10.2631 6.53333 10.0001 6.53333C9.73712 6.53333 9.52393 6.74226 9.52393 6.99999C9.52393 7.25773 9.73712 7.46666 10.0001 7.46666Z" fill="#E5CF58"/>
</g>
</svg>
