<svg width="20" height="14" viewBox="0 0 20 14" fill="none" xmlns="http://www.w3.org/2000/svg">
<rect x="0.25" y="0.25" width="19.5" height="13.5" rx="1.75" fill="white" stroke="#F5F5F5" stroke-width="0.5"/>
<mask id="mask0_3245_60883" style="mask-type:luminance" maskUnits="userSpaceOnUse" x="0" y="0" width="20" height="14">
<rect x="0.25" y="0.25" width="19.5" height="13.5" rx="1.75" fill="white" stroke="white" stroke-width="0.5"/>
</mask>
<g mask="url(#mask0_3245_60883)">
<path fill-rule="evenodd" clip-rule="evenodd" d="M14.2857 2.33337C14.5445 2.20653 14.8036 2.50527 14.6415 2.7436L14.3336 3.19628C14.3019 3.24277 14.2614 3.28253 14.2144 3.31328L12.9063 4.1679C12.8736 4.18927 12.843 4.21381 12.8151 4.24116C12.5767 4.47477 12.5767 4.85863 12.8151 5.09224L12.8571 5.13337C13.1185 5.38956 13.1185 5.81051 12.8571 6.0667L12.6976 6.22298C12.5078 6.409 12.2213 6.45518 11.9827 6.33824C11.6752 6.18757 11.3037 6.31138 11.1481 6.6164L11.0774 6.75479C10.9973 6.91185 10.8582 7.03077 10.6906 7.08552L9.62463 7.43374C9.5578 7.45558 9.48793 7.4667 9.41762 7.4667H8.97334C8.72665 7.4667 8.5008 7.60502 8.38869 7.82476C8.22583 8.14397 7.83704 8.27354 7.51524 8.11586L6.28693 7.51399C6.223 7.48267 6.1645 7.4413 6.11366 7.39147L5.43525 6.72663C5.30911 6.60302 5.23804 6.43385 5.23804 6.25724V5.93816C5.23804 5.75142 5.38942 5.60003 5.57617 5.60003C5.66466 5.60003 5.74963 5.56534 5.81283 5.5034L6.4722 4.85722C6.59681 4.7351 6.76434 4.6667 6.93881 4.6667H7.14157C7.42703 4.6667 7.68081 4.48496 7.77273 4.21471L7.90756 3.81831C8.01501 3.50239 8.33948 3.31458 8.66694 3.37876L10.332 3.70511C10.4269 3.72372 10.5248 3.72144 10.6188 3.69841L12.3109 3.28385C12.3574 3.27245 12.4026 3.25607 12.4456 3.23499L13.3333 2.80003L14.2857 2.33337Z" fill="#E7832C"/>
<path fill-rule="evenodd" clip-rule="evenodd" d="M10.0001 11.2001C10.2631 11.2001 10.4763 10.9911 10.4763 10.7334C10.4763 10.4757 10.2631 10.2667 10.0001 10.2667C9.73712 10.2667 9.52393 10.4757 9.52393 10.7334C9.52393 10.9911 9.73712 11.2001 10.0001 11.2001Z" fill="#445128"/>
<path opacity="0.75" d="M11.4285 10.2667C11.4285 10.2667 12.857 9.80003 13.3332 8.8667" stroke="#445128" stroke-width="1.33333" stroke-linecap="round"/>
<path opacity="0.75" d="M8.57153 10.2667C8.57153 10.2667 7.14296 9.80003 6.66677 8.8667" stroke="#445128" stroke-width="1.33333" stroke-linecap="round"/>
</g>
</svg>
