<svg width="20" height="14" viewBox="0 0 20 14" fill="none" xmlns="http://www.w3.org/2000/svg">
<rect width="20" height="14" rx="2" fill="white"/>
<mask id="mask0_240_8841" style="mask-type:luminance" maskUnits="userSpaceOnUse" x="0" y="0" width="20" height="14">
<rect width="20" height="14" rx="2" fill="white"/>
</mask>
<g mask="url(#mask0_240_8841)">
<rect width="20" height="14" fill="#0B36B2"/>
<g filter="url(#filter0_d_240_8841)">
<path fill-rule="evenodd" clip-rule="evenodd" d="M16.1905 14V0H6.19049L16.1905 14Z" fill="#FFD045"/>
</g>
<path fill-rule="evenodd" clip-rule="evenodd" d="M12.381 13.0667L11.7075 13.26L11.9048 12.6L11.7075 11.9401L12.381 12.1334L13.0544 11.9401L12.8572 12.6L13.0544 13.26L12.381 13.0667Z" fill="white"/>
<path fill-rule="evenodd" clip-rule="evenodd" d="M10.4762 10.2666L9.80275 10.4599L9.99999 9.79997L9.80275 9.14L10.4762 9.3333L11.1496 9.14L10.9524 9.79997L11.1496 10.4599L10.4762 10.2666Z" fill="white"/>
<path fill-rule="evenodd" clip-rule="evenodd" d="M8.5714 7.46665L7.89796 7.65995L8.09521 6.99998L7.89796 6.34002L8.5714 6.53332L9.24483 6.34002L9.04759 6.99998L9.24483 7.65995L8.5714 7.46665Z" fill="white"/>
<path fill-rule="evenodd" clip-rule="evenodd" d="M6.66668 4.66666L5.99324 4.85996L6.19049 4.2L5.99324 3.54003L6.66668 3.73333L7.34011 3.54003L7.14287 4.2L7.34011 4.85996L6.66668 4.66666Z" fill="white"/>
<path fill-rule="evenodd" clip-rule="evenodd" d="M4.76189 1.86667L4.08846 2.05997L4.2857 1.40001L4.08846 0.740042L4.76189 0.933341L5.43532 0.740042L5.23808 1.40001L5.43532 2.05997L4.76189 1.86667Z" fill="white"/>
</g>
<defs>
<filter id="filter0_d_240_8841" x="6.19049" y="0" width="10" height="14" filterUnits="userSpaceOnUse" color-interpolation-filters="sRGB">
<feFlood flood-opacity="0" result="BackgroundImageFix"/>
<feColorMatrix in="SourceAlpha" type="matrix" values="0 0 0 0 0 0 0 0 0 0 0 0 0 0 0 0 0 0 127 0" result="hardAlpha"/>
<feOffset/>
<feColorMatrix type="matrix" values="0 0 0 0 0 0 0 0 0 0 0 0 0 0 0 0 0 0 0.06 0"/>
<feBlend mode="normal" in2="BackgroundImageFix" result="effect1_dropShadow_240_8841"/>
<feBlend mode="normal" in="SourceGraphic" in2="effect1_dropShadow_240_8841" result="shape"/>
</filter>
</defs>
</svg>
