<svg width="20" height="14" viewBox="0 0 20 14" fill="none" xmlns="http://www.w3.org/2000/svg">
<rect width="20" height="14" rx="2" fill="white"/>
<mask id="mask0_3245_60730" style="mask-type:luminance" maskUnits="userSpaceOnUse" x="0" y="0" width="20" height="14">
<rect width="20" height="14" rx="2" fill="white"/>
</mask>
<g mask="url(#mask0_3245_60730)">
<rect width="20" height="14" fill="#19BFBF"/>
<path fill-rule="evenodd" clip-rule="evenodd" d="M7.14294 11.2418C7.14294 11.214 7.14641 11.1863 7.15328 11.1594L7.61913 9.3333L8.07084 7.56261C8.08681 7.49998 8.08424 7.43406 8.06343 7.37287L7.66371 6.19771C7.63517 6.1138 7.57439 6.04472 7.49481 6.00572L6.85341 5.69144C6.73917 5.63546 6.66675 5.51933 6.66675 5.39211V3.81343C6.66675 3.76076 6.67923 3.70885 6.70316 3.66194L7.14294 2.79997L7.52635 2.04848C7.58329 1.93689 7.69799 1.86664 7.82327 1.86664H10.1429C10.327 1.86664 10.4763 2.01588 10.4763 2.19997V2.46664C10.4763 2.65073 10.6255 2.79997 10.8096 2.79997H11.0953C11.2794 2.79997 11.4287 2.94921 11.4287 3.1333V3.52544C11.4287 3.65266 11.5011 3.76879 11.6153 3.82477L13.1468 4.57517C13.261 4.63115 13.3334 4.74728 13.3334 4.8745V5.51985C13.3334 5.57251 13.3209 5.62443 13.297 5.67134L12.8975 6.45427C12.8711 6.50606 12.8316 6.55003 12.7829 6.58183L11.5029 7.41811C11.4543 7.44991 11.4148 7.49389 11.3883 7.54567L10.5166 9.25427C10.4902 9.30606 10.4507 9.35004 10.402 9.38183L9.12198 10.2181C9.07331 10.2499 9.0338 10.2939 9.00738 10.3457L8.1881 11.9515C8.13116 12.0631 8.01646 12.1333 7.89118 12.1333H7.47627C7.29218 12.1333 7.14294 11.9841 7.14294 11.8V11.2418Z" fill="white"/>
</g>
</svg>
