<svg width="20" height="14" viewBox="0 0 20 14" fill="none" xmlns="http://www.w3.org/2000/svg">
<rect x="0.25" y="0.25" width="19.5" height="13.5" rx="1.75" fill="white" stroke="#F5F5F5" stroke-width="0.5"/>
<mask id="mask0_3245_60803" style="mask-type:luminance" maskUnits="userSpaceOnUse" x="0" y="0" width="20" height="14">
<rect x="0.25" y="0.25" width="19.5" height="13.5" rx="1.75" fill="white" stroke="white" stroke-width="0.5"/>
</mask>
<g mask="url(#mask0_3245_60803)">
<path fill-rule="evenodd" clip-rule="evenodd" d="M0 9.33333H20V4.66666H6.60284V3.73333C6.60284 3.73333 5.93119 3.26666 5.2381 3.26666C4.545 3.26666 3.80952 3.73333 3.80952 3.73333V4.66666H0V9.33333ZM6.19048 5.6C6.19048 6.11546 5.76408 6.53333 5.2381 6.53333C4.71211 6.53333 4.28571 6.11546 4.28571 5.6C4.28571 5.08453 4.71211 4.66666 5.2381 4.66666C5.76408 4.66666 6.19048 5.08453 6.19048 5.6Z" fill="#0C47B7"/>
<g filter="url(#filter0_d_3245_60803)">
<path fill-rule="evenodd" clip-rule="evenodd" d="M0 14H20V9.33331H0V14Z" fill="#E53B35"/>
</g>
</g>
<defs>
<filter id="filter0_d_3245_60803" x="0" y="9.33331" width="20" height="4.66669" filterUnits="userSpaceOnUse" color-interpolation-filters="sRGB">
<feFlood flood-opacity="0" result="BackgroundImageFix"/>
<feColorMatrix in="SourceAlpha" type="matrix" values="0 0 0 0 0 0 0 0 0 0 0 0 0 0 0 0 0 0 127 0" result="hardAlpha"/>
<feOffset/>
<feColorMatrix type="matrix" values="0 0 0 0 0 0 0 0 0 0 0 0 0 0 0 0 0 0 0.06 0"/>
<feBlend mode="normal" in2="BackgroundImageFix" result="effect1_dropShadow_3245_60803"/>
<feBlend mode="normal" in="SourceGraphic" in2="effect1_dropShadow_3245_60803" result="shape"/>
</filter>
</defs>
</svg>
