<svg width="20" height="14" viewBox="0 0 20 14" fill="none" xmlns="http://www.w3.org/2000/svg">
<rect width="20" height="14" rx="2" fill="white"/>
<mask id="mask0_240_10787" style="mask-type:luminance" maskUnits="userSpaceOnUse" x="0" y="0" width="20" height="14">
<rect width="20" height="14" rx="2" fill="white"/>
</mask>
<g mask="url(#mask0_240_10787)">
<rect width="20" height="14" fill="#19BFBF"/>
<path fill-rule="evenodd" clip-rule="evenodd" d="M3.96352 5.76494C3.87889 5.9308 3.94656 6.13383 4.11377 6.21576L5.41011 6.85097C5.57732 6.9329 5.64499 7.13593 5.56036 7.30179L5.38719 7.64121C5.30448 7.80332 5.10703 7.86913 4.9436 7.78905L4.35514 7.5007C4.30949 7.47833 4.25932 7.4667 4.20847 7.4667H3.19051C3.00642 7.4667 2.85718 7.61594 2.85718 7.80003V8.15825C2.85718 8.30247 2.94992 8.43033 3.087 8.47511L3.78075 8.70173C4.01077 8.77687 4.07914 9.06917 3.90632 9.23854C3.84443 9.29919 3.80956 9.38219 3.80956 9.46884V9.74489C3.80956 9.7814 3.81556 9.81767 3.82731 9.85223L4.24117 11.069C4.26971 11.1529 4.33049 11.222 4.41007 11.261L5.02648 11.563C5.15333 11.6251 5.30558 11.6006 5.40646 11.5017L6.19051 10.7334L6.33 10.5967C6.49432 10.4356 6.44996 10.1605 6.24336 10.0593L5.85199 9.86749C5.76773 9.8262 5.71432 9.74055 5.71432 9.64672C5.71432 9.48726 5.86379 9.36999 6.01867 9.40793L7.36507 9.7378C7.5142 9.77434 7.61908 9.90802 7.61908 10.0616V10.6307C7.61908 10.6976 7.6392 10.7629 7.67681 10.8182L8.47225 11.9875C8.53431 12.0788 8.63751 12.1334 8.74786 12.1334H8.82368C8.95913 12.1334 9.08111 12.0514 9.13229 11.926L9.72512 10.4736C9.83291 10.2095 10.201 10.194 10.3307 10.4481L10.4515 10.6849C10.4679 10.717 10.4894 10.7462 10.5151 10.7715L11.3902 11.6291C11.4156 11.654 11.4449 11.6747 11.4769 11.6903L11.901 11.8982C12.1224 12.0067 12.381 11.8455 12.381 11.5988V11.3401C12.381 11.2505 12.3449 11.1647 12.281 11.102L12.1477 10.9714C12.0144 10.8407 12.0144 10.626 12.1477 10.4953L12.2838 10.362C12.3461 10.3009 12.4299 10.2667 12.5171 10.2667H13.2561C13.3069 10.2667 13.3571 10.2551 13.4028 10.2327L14.0991 9.8915C14.2133 9.83552 14.2857 9.71939 14.2857 9.59217V9.00675C14.2857 8.91717 14.2497 8.83137 14.1857 8.76868L14.0525 8.6381C13.9191 8.50741 13.9191 8.29266 14.0525 8.16196L14.4379 7.78426C14.5986 7.62679 14.8659 7.67044 14.9681 7.87084L15.1791 8.28433C15.2153 8.35534 15.2883 8.40003 15.368 8.40003C15.5264 8.40003 15.6289 8.23267 15.5569 8.09156L15.3921 7.76846C15.3075 7.6026 15.3751 7.39957 15.5423 7.31764L15.8863 7.14909C16.0535 7.06716 16.1212 6.86414 16.0366 6.69827L15.7769 6.18932C15.7368 6.11079 15.6673 6.05133 15.5835 6.02395L14.8078 5.77057C14.57 5.69289 14.4993 5.39072 14.678 5.21564L15.1409 4.76196C15.2032 4.7009 15.287 4.6667 15.3742 4.6667H16.4626C16.5878 4.6667 16.7025 4.59645 16.7595 4.48486L16.9186 4.17307C17.0259 3.9627 16.8864 3.71052 16.6512 3.68956L12.4611 3.31626C12.2422 3.29676 12.1467 3.02962 12.3037 2.87577C12.3531 2.82733 12.381 2.76103 12.381 2.69182V2.20003C12.381 2.01594 12.2317 1.8667 12.0477 1.8667H10.1361C10.0489 1.8667 9.96514 1.9009 9.90283 1.96196L8.63671 3.20275C8.594 3.24461 8.54081 3.27421 8.48273 3.28844L6.6667 3.73337L4.87937 4.17126C4.8035 4.18985 4.72352 4.1812 4.65337 4.14684L4.53025 4.0865C4.26385 3.95597 3.97247 4.21231 4.068 4.49317L4.24039 5.00001C4.26939 5.08526 4.26266 5.17862 4.22173 5.25884L3.96352 5.76494ZM10.4762 11.6667C10.4762 11.9244 10.263 12.1334 10 12.1334C9.73704 12.1334 9.52384 11.9244 9.52384 11.6667C9.52384 11.409 9.73704 11.2 10 11.2C10.263 11.2 10.4762 11.409 10.4762 11.6667ZM7.14289 7.4667C7.40588 7.4667 7.61908 7.25777 7.61908 7.00003C7.61908 6.7423 7.40588 6.53337 7.14289 6.53337C6.8799 6.53337 6.6667 6.7423 6.6667 7.00003C6.6667 7.25777 6.8799 7.4667 7.14289 7.4667ZM16.1905 8.8667V9.33337L15.7823 9.73345C15.5832 9.92849 15.7213 10.2667 16 10.2667C16.1169 10.2667 16.224 10.2011 16.2771 10.097L16.6667 9.33337L16.1905 8.8667ZM16.1905 8.8667L16.4486 8.74023C16.6192 8.65666 16.5597 8.40003 16.3698 8.40003C16.2708 8.40003 16.1905 8.48028 16.1905 8.57927V8.8667Z" fill="white"/>
</g>
</svg>
