<svg width="20" height="14" viewBox="0 0 20 14" fill="none" xmlns="http://www.w3.org/2000/svg">
<rect width="20" height="14" rx="2" fill="white"/>
<mask id="mask0_3245_60762" style="mask-type:luminance" maskUnits="userSpaceOnUse" x="0" y="0" width="20" height="14">
<rect width="20" height="14" rx="2" fill="white"/>
</mask>
<g mask="url(#mask0_3245_60762)">
<rect width="20" height="14" fill="#FF2936"/>
<path fill-rule="evenodd" clip-rule="evenodd" d="M0 14H7.61905V0H0V14Z" fill="#128415"/>
<path d="M7.61912 9.5333C9.02652 9.5333 10.1905 8.41172 10.1905 6.99997C10.1905 5.58821 9.02652 4.46663 7.61912 4.46663C6.21172 4.46663 5.04769 5.58821 5.04769 6.99997C5.04769 8.41172 6.21172 9.5333 7.61912 9.5333Z" stroke="#FAF94F" stroke-width="1.33333"/>
<path fill-rule="evenodd" clip-rule="evenodd" d="M6.66675 5.93331C6.66675 5.74921 6.81599 5.59998 7.00008 5.59998H8.23818C8.42227 5.59998 8.57151 5.74921 8.57151 5.93331V7.4476C8.57151 7.97358 8.14511 8.39998 7.61913 8.39998C7.09314 8.39998 6.66675 7.97358 6.66675 7.4476V5.93331Z" fill="white"/>
<path fill-rule="evenodd" clip-rule="evenodd" d="M7.61901 7.46665C7.882 7.46665 8.0952 6.79105 8.0952 6.53332C8.0952 6.27558 7.882 6.06665 7.61901 6.06665C7.35602 6.06665 7.14282 6.27558 7.14282 6.53332C7.14282 6.79105 7.35602 7.46665 7.61901 7.46665Z" fill="#1D50B5"/>
</g>
</svg>
