<svg width="20" height="14" viewBox="0 0 20 14" fill="none" xmlns="http://www.w3.org/2000/svg">
<rect width="20" height="14" fill="white"/>
<mask id="mask0_3245_60728" style="mask-type:luminance" maskUnits="userSpaceOnUse" x="0" y="0" width="20" height="14">
<rect x="0.25" y="0.25" width="19.5" height="13.5" fill="white" stroke="white" stroke-width="0.5"/>
</mask>
<g mask="url(#mask0_3245_60728)">
<rect x="7.61914" width="4.76191" height="14" fill="#D6182D"/>
<rect y="4.66663" width="20" height="4.66667" fill="#1425A2"/>
<path fill-rule="evenodd" clip-rule="evenodd" d="M8.09533 8.16667L7.75861 8.26332L7.85724 7.93334L7.75861 7.60336L8.09533 7.70001L8.43205 7.60336L8.33343 7.93334L8.43205 8.26332L8.09533 8.16667Z" fill="white"/>
<path fill-rule="evenodd" clip-rule="evenodd" d="M11.9047 8.16667L11.5679 8.26332L11.6666 7.93334L11.5679 7.60336L11.9047 7.70001L12.2414 7.60336L12.1428 7.93334L12.2414 8.26332L11.9047 8.16667Z" fill="white"/>
<path fill-rule="evenodd" clip-rule="evenodd" d="M6.19055 7.23333L5.85383 7.32998L5.95245 6.99999L5.85383 6.67001L6.19055 6.76666L6.52726 6.67001L6.42864 6.99999L6.52726 7.32998L6.19055 7.23333Z" fill="white"/>
<path fill-rule="evenodd" clip-rule="evenodd" d="M13.8094 7.23333L13.4727 7.32998L13.5713 6.99999L13.4727 6.67001L13.8094 6.76666L14.1462 6.67001L14.0475 6.99999L14.1462 7.32998L13.8094 7.23333Z" fill="white"/>
<path fill-rule="evenodd" clip-rule="evenodd" d="M10.0001 6.29998L9.6634 6.39663L9.76202 6.06664L9.6634 5.73666L10.0001 5.83331L10.3368 5.73666L10.2382 6.06664L10.3368 6.39663L10.0001 6.29998Z" fill="white"/>
</g>
</svg>
