<svg width="20" height="14" viewBox="0 0 20 14" fill="none" xmlns="http://www.w3.org/2000/svg">
<rect width="20" height="14" rx="2" fill="white"/>
<mask id="mask0_3245_60811" style="mask-type:luminance" maskUnits="userSpaceOnUse" x="0" y="0" width="20" height="14">
<rect width="20" height="14" rx="2" fill="white"/>
</mask>
<g mask="url(#mask0_3245_60811)">
<g filter="url(#filter0_d_3245_60811)">
<path fill-rule="evenodd" clip-rule="evenodd" d="M0 9.33329H20V4.66663H0V9.33329Z" fill="#262626"/>
</g>
<g filter="url(#filter1_d_3245_60811)">
<path fill-rule="evenodd" clip-rule="evenodd" d="M0 14H20V9.33337H0V14Z" fill="#34B857"/>
</g>
<path fill-rule="evenodd" clip-rule="evenodd" d="M0 4.66667H20V0H0V4.66667Z" fill="#F41F34"/>
<path fill-rule="evenodd" clip-rule="evenodd" d="M10.0001 8.39998C10.2939 8.39998 10.5669 8.31308 10.794 8.16408C10.7677 8.16578 10.7411 8.16664 10.7144 8.16664C10.0569 8.16664 9.52391 7.64431 9.52391 6.99998C9.52391 6.35564 10.0569 5.83331 10.7144 5.83331C10.7411 5.83331 10.7677 5.83417 10.794 5.83588C10.5669 5.68688 10.2939 5.59998 10.0001 5.59998C9.21113 5.59998 8.57153 6.22678 8.57153 6.99998C8.57153 7.77317 9.21113 8.39998 10.0001 8.39998ZM11.4287 6.99998C11.4287 7.25771 11.2155 7.46664 10.9525 7.46664C10.6895 7.46664 10.4763 7.25771 10.4763 6.99998C10.4763 6.74224 10.6895 6.53331 10.9525 6.53331C11.2155 6.53331 11.4287 6.74224 11.4287 6.99998Z" fill="white"/>
</g>
<defs>
<filter id="filter0_d_3245_60811" x="0" y="4.66663" width="20" height="4.66663" filterUnits="userSpaceOnUse" color-interpolation-filters="sRGB">
<feFlood flood-opacity="0" result="BackgroundImageFix"/>
<feColorMatrix in="SourceAlpha" type="matrix" values="0 0 0 0 0 0 0 0 0 0 0 0 0 0 0 0 0 0 127 0" result="hardAlpha"/>
<feOffset/>
<feColorMatrix type="matrix" values="0 0 0 0 0 0 0 0 0 0 0 0 0 0 0 0 0 0 0.06 0"/>
<feBlend mode="normal" in2="BackgroundImageFix" result="effect1_dropShadow_3245_60811"/>
<feBlend mode="normal" in="SourceGraphic" in2="effect1_dropShadow_3245_60811" result="shape"/>
</filter>
<filter id="filter1_d_3245_60811" x="0" y="9.33337" width="20" height="4.66663" filterUnits="userSpaceOnUse" color-interpolation-filters="sRGB">
<feFlood flood-opacity="0" result="BackgroundImageFix"/>
<feColorMatrix in="SourceAlpha" type="matrix" values="0 0 0 0 0 0 0 0 0 0 0 0 0 0 0 0 0 0 127 0" result="hardAlpha"/>
<feOffset/>
<feColorMatrix type="matrix" values="0 0 0 0 0 0 0 0 0 0 0 0 0 0 0 0 0 0 0.06 0"/>
<feBlend mode="normal" in2="BackgroundImageFix" result="effect1_dropShadow_3245_60811"/>
<feBlend mode="normal" in="SourceGraphic" in2="effect1_dropShadow_3245_60811" result="shape"/>
</filter>
</defs>
</svg>
