<svg width="20" height="14" viewBox="0 0 20 14" fill="none" xmlns="http://www.w3.org/2000/svg">
<rect x="0.25" y="0.25" width="19.5" height="13.5" rx="1.75" fill="white" stroke="#F5F5F5" stroke-width="0.5"/>
<mask id="mask0_3245_60860" style="mask-type:luminance" maskUnits="userSpaceOnUse" x="0" y="0" width="20" height="14">
<rect x="0.25" y="0.25" width="19.5" height="13.5" rx="1.75" fill="white" stroke="white" stroke-width="0.5"/>
</mask>
<g mask="url(#mask0_3245_60860)">
<path fill-rule="evenodd" clip-rule="evenodd" d="M0 4.66667H20V0H0V4.66667Z" fill="#DF1E35"/>
<path fill-rule="evenodd" clip-rule="evenodd" d="M0 14H20V9.33337H0V14Z" fill="#262626"/>
<path fill-rule="evenodd" clip-rule="evenodd" d="M13.3333 6.13451C13.3333 5.88788 13.5918 5.72666 13.8133 5.83518L14.099 5.97518C14.2132 6.03116 14.2856 6.14729 14.2856 6.27451V8.06664C14.2856 8.25074 14.1364 8.39998 13.9523 8.39998H13.6666C13.4825 8.39998 13.3333 8.25074 13.3333 8.06664V6.13451Z" fill="#0F7A40"/>
<path fill-rule="evenodd" clip-rule="evenodd" d="M7.61914 6.13451C7.61914 5.88788 7.87768 5.72666 8.09915 5.83518L8.38486 5.97518C8.4991 6.03116 8.57152 6.14729 8.57152 6.27451V8.06664C8.57152 8.25074 8.42228 8.39998 8.23819 8.39998H7.95247C7.76838 8.39998 7.61914 8.25074 7.61914 8.06664V6.13451Z" fill="#0F7A40"/>
<path fill-rule="evenodd" clip-rule="evenodd" d="M11.4285 6.27451C11.4285 6.14729 11.5009 6.03116 11.6151 5.97518L11.9008 5.83518C12.1223 5.72666 12.3808 5.88788 12.3808 6.13451V8.06664C12.3808 8.25074 12.2316 8.39998 12.0475 8.39998H11.7618C11.5777 8.39998 11.4285 8.25074 11.4285 8.06664V6.27451Z" fill="#0F7A40"/>
<path fill-rule="evenodd" clip-rule="evenodd" d="M9.52393 7.20784C9.52393 7.08061 9.59634 6.96449 9.71059 6.90851L9.9963 6.76851C10.2178 6.65999 10.4763 6.82121 10.4763 7.06784V7.50844H11.9049V8.39997H10.4763H9.85726C9.67316 8.39997 9.52393 8.25073 9.52393 8.06664V7.20784Z" fill="#0F7A40"/>
<path fill-rule="evenodd" clip-rule="evenodd" d="M5.71436 7.20784C5.71436 7.08061 5.78677 6.96449 5.90102 6.90851L6.18673 6.76851C6.4082 6.65999 6.66674 6.82121 6.66674 7.06784V7.50844H8.09531V8.39997H6.66674H6.04769C5.86359 8.39997 5.71436 8.25073 5.71436 8.06664V7.20784Z" fill="#0F7A40"/>
</g>
</svg>
