<svg width="20" height="14" viewBox="0 0 20 14" fill="none" xmlns="http://www.w3.org/2000/svg">
<rect width="20" height="14" rx="2" fill="white"/>
<mask id="mask0_3245_60729" style="mask-type:luminance" maskUnits="userSpaceOnUse" x="0" y="0" width="20" height="14">
<rect width="20" height="14" rx="2" fill="white"/>
</mask>
<g mask="url(#mask0_3245_60729)">
<rect width="20" height="14" fill="#19BFBF"/>
<path fill-rule="evenodd" clip-rule="evenodd" d="M5.74359 3.90521C5.72528 3.79753 5.76088 3.68771 5.8389 3.61125L7.52191 1.9619C7.58422 1.90084 7.66798 1.86664 7.75522 1.86664H8.84355C8.96883 1.86664 9.08353 1.93689 9.14047 2.04848L9.4311 2.61813C9.48804 2.72972 9.60274 2.79997 9.72802 2.79997H11.2245C11.3498 2.79997 11.4645 2.87022 11.5214 2.98181L12.7644 5.41813C12.8214 5.52972 12.9361 5.59997 13.0614 5.59997H13.6109C13.8871 5.59997 14.0435 5.91657 13.8756 6.13589L12.8756 7.44256C12.8634 7.45858 12.8526 7.47568 12.8434 7.49365L12.4174 8.3286C12.3935 8.37551 12.381 8.42743 12.381 8.48009V9.25318C12.381 9.30585 12.3685 9.35776 12.3446 9.40467L11.9048 10.2666L11.4286 11.2L11.0452 11.9515C10.9883 12.0631 10.8736 12.1333 10.7483 12.1333H10.2042C10.0789 12.1333 9.96423 12.0631 9.90729 11.9515L9.56029 11.2713C9.53636 11.2244 9.52388 11.1725 9.52388 11.1199V8.54002C9.52388 8.45045 9.48783 8.36464 9.42386 8.30195L9.10439 7.98887C9.06711 7.95234 9.03893 7.90756 9.02212 7.85814L8.64837 6.7593C8.60241 6.62417 8.47552 6.5333 8.33279 6.5333H6.47198C6.30945 6.5333 6.17061 6.41609 6.14336 6.25586L5.74359 3.90521Z" fill="white"/>
<path fill-rule="evenodd" clip-rule="evenodd" d="M13.3333 9.66665C13.3333 9.48255 13.4825 9.33331 13.6666 9.33331H13.9523C14.1364 9.33331 14.2856 9.48255 14.2856 9.66665V10.1865C14.2856 10.2392 14.2732 10.2911 14.2492 10.338L13.8916 11.0389C13.8412 11.1377 13.7396 11.2 13.6286 11.2C13.4655 11.2 13.3333 11.0678 13.3333 10.9047V9.66665Z" fill="white"/>
</g>
</svg>
