<svg width="20" height="14" viewBox="0 0 20 14" fill="none" xmlns="http://www.w3.org/2000/svg">
<rect width="20" height="14" rx="2" fill="white"/>
<mask id="mask0_3245_60731" style="mask-type:luminance" maskUnits="userSpaceOnUse" x="0" y="0" width="20" height="14">
<rect width="20" height="14" rx="2" fill="white"/>
</mask>
<g mask="url(#mask0_3245_60731)">
<rect width="20" height="14" fill="#19BFBF"/>
<path fill-rule="evenodd" clip-rule="evenodd" d="M9.52384 10.2666L9.14043 9.51515C9.08349 9.40355 8.96879 9.3333 8.84351 9.3333H8.70757C8.62033 9.3333 8.53656 9.2991 8.47426 9.23804L6.76673 7.56466C6.70275 7.50197 6.6667 7.41616 6.6667 7.32659V6.67335C6.6667 6.58378 6.63065 6.49798 6.56668 6.43528L5.78094 5.66526C5.73737 5.62256 5.70635 5.56871 5.69126 5.50959L5.28343 3.91086C5.25522 3.80029 5.17241 3.71184 5.06394 3.6764L3.80956 3.26664L3.04384 2.89144C2.92959 2.83546 2.85718 2.71933 2.85718 2.59211V2.19997C2.85718 2.01588 3.00642 1.86664 3.19051 1.86664H3.67346C3.7607 1.86664 3.84446 1.90084 3.90677 1.9619L4.18854 2.23804C4.25085 2.2991 4.33461 2.3333 4.42185 2.3333H5.10203C5.18927 2.3333 5.27303 2.2991 5.33534 2.23804L5.61711 1.9619C5.67942 1.90084 5.76318 1.86664 5.85042 1.86664H7.54181C7.59265 1.86664 7.64282 1.87827 7.68848 1.90064L8.50207 2.2993C8.54773 2.32167 8.5979 2.3333 8.64874 2.3333H9.44657C9.49741 2.3333 9.54758 2.32167 9.59324 2.2993L10.4068 1.90064C10.4525 1.87827 10.5027 1.86664 10.5535 1.86664H12.0477C12.2317 1.86664 12.381 2.01588 12.381 2.19997V2.46664C12.381 2.65073 12.2317 2.79997 12.0477 2.79997H11.7619C11.5778 2.79997 11.4286 2.94921 11.4286 3.1333V3.99211C11.4286 4.11933 11.501 4.23546 11.6153 4.29144L11.901 4.43144C12.1224 4.53995 12.381 4.37873 12.381 4.13211V3.59997C12.381 3.41588 12.5302 3.26664 12.7143 3.26664H13.5762C13.7051 3.26664 13.8096 3.3711 13.8096 3.49997C13.8096 3.62884 13.914 3.7333 14.0429 3.7333H14.9048C15.0889 3.7333 15.2381 3.88254 15.2381 4.06664V4.6115C15.2381 4.64801 15.2321 4.68427 15.2204 4.71884L14.7875 5.99148C14.7707 6.04089 14.7425 6.08567 14.7052 6.12221L13.3722 7.42854C13.3465 7.45377 13.325 7.48301 13.3086 7.51512L12.8936 8.3286C12.8697 8.37551 12.8572 8.42743 12.8572 8.48009V9.03798C12.8572 9.20108 12.725 9.3333 12.5619 9.3333C12.4509 9.3333 12.3492 9.27107 12.2988 9.1722L11.9976 8.58181C11.9406 8.47022 11.8259 8.39997 11.7007 8.39997H10.6804C10.5551 8.39997 10.4404 8.47022 10.3834 8.58181L10.0773 9.18181C10.0288 9.27697 10.0288 9.38964 10.0773 9.4848L10.3834 10.0848C10.4404 10.1964 10.5551 10.2666 10.6804 10.2666H11.2925C11.3797 10.2666 11.4635 10.3008 11.5258 10.3619L12.281 11.1019C12.3449 11.1646 12.381 11.2504 12.381 11.34V11.8C12.381 11.9841 12.2317 12.1333 12.0477 12.1333H11.6327C11.5075 12.1333 11.3928 12.0631 11.3358 11.9515L11.0452 11.3818C10.9883 11.2702 10.8736 11.2 10.7483 11.2H10.2042C10.0789 11.2 9.96419 11.1297 9.90726 11.0181L9.52384 10.2666Z" fill="white"/>
</g>
</svg>
