<svg width="20" height="14" viewBox="0 0 20 14" fill="none" xmlns="http://www.w3.org/2000/svg">
<rect width="20" height="14" rx="2" fill="white"/>
<mask id="mask0_240_8991" style="mask-type:luminance" maskUnits="userSpaceOnUse" x="0" y="0" width="20" height="14">
<rect width="20" height="14" rx="2" fill="white"/>
</mask>
<g mask="url(#mask0_240_8991)">
<rect width="20" height="14" fill="#F1361D"/>
<path fill-rule="evenodd" clip-rule="evenodd" d="M7.1947 2.17054L7.88645 2.28611L8.40526 2.74916L8.52319 2.07125L8.99569 1.56281L8.30394 1.44724L7.78513 0.984192L7.6672 1.6621L7.1947 2.17054ZM9.04758 4.54163L9.64701 4.18411L10.3486 4.20001L9.98373 3.61256L9.99996 2.92505L9.40052 3.28258L8.69898 3.26668L9.0638 3.85412L9.04758 4.54163ZM8.23442 8.37962L7.64808 8.75743L7.63981 8.06978L7.25429 7.49517L7.95597 7.48707L8.54231 7.10926L8.55058 7.7969L8.9361 8.37152L8.23442 8.37962ZM8.74362 6.60201L9.44108 6.52625L10.07 6.83122L9.99272 6.14771L10.3039 5.53134L9.60646 5.6071L8.97751 5.30213L9.05481 5.98564L8.74362 6.60201Z" fill="#FFDC42"/>
<path fill-rule="evenodd" clip-rule="evenodd" d="M4.76193 5.75864L3.08254 6.93188L3.70218 5.00408L2.04462 3.80139L4.10697 3.78319L4.76193 1.86664L5.41689 3.78319L7.47923 3.80139L5.82168 5.00408L6.44131 6.93188L4.76193 5.75864Z" fill="#FFDC42"/>
</g>
</svg>
