<svg width="20" height="14" viewBox="0 0 20 14" fill="none" xmlns="http://www.w3.org/2000/svg">
<mask id="mask0_240_8669" style="mask-type:luminance" maskUnits="userSpaceOnUse" x="0" y="0" width="20" height="14">
<rect width="20" height="14" rx="2" fill="white"/>
</mask>
<g mask="url(#mask0_240_8669)">
<rect width="20" height="14" fill="#EE343C"/>
<path fill-rule="evenodd" clip-rule="evenodd" d="M8.95374 3.17471C8.73042 2.95586 8.38494 2.92179 8.12318 3.09281C7.69071 3.37535 7.73052 4.0213 8.19441 4.24861L8.72565 4.50892C8.92267 4.60546 9.04756 4.80573 9.04756 5.02513C9.04756 5.34262 8.79019 5.59999 8.47271 5.59999H8.24974C8.14805 5.59999 8.04771 5.57673 7.95639 5.53198L6.58954 4.86222C6.35034 4.74501 6.06323 4.7913 5.87298 4.97774C5.56311 5.28141 5.64676 5.80026 6.03636 5.99116L6.50409 6.22035C6.78584 6.35841 6.81002 6.75074 6.54735 6.92235C6.24345 7.12089 6.33459 7.58824 6.69081 7.65806L7.10323 7.7389C7.48246 7.81323 7.59208 8.3031 7.2807 8.53197L6.92859 8.79077C6.69474 8.96264 6.81631 9.33332 7.10653 9.33332C7.13062 9.33332 7.15463 9.33042 7.17803 9.32469L8.09447 9.10016C8.42977 9.01801 8.6898 9.39256 8.49563 9.678C8.32548 9.92812 8.50462 10.2667 8.80713 10.2667H9.2341C9.40729 10.2667 9.56125 10.3769 9.61702 10.5409C9.74139 10.9065 10.2585 10.9065 10.3829 10.5409C10.4386 10.3769 10.5926 10.2667 10.7658 10.2667H11.1928C11.4953 10.2667 11.6744 9.92812 11.5043 9.678C11.3101 9.39256 11.5701 9.01801 11.9054 9.10016L12.8219 9.32469C12.8453 9.33042 12.8693 9.33332 12.8934 9.33332C13.1836 9.33332 13.3051 8.96264 13.0713 8.79077L12.7192 8.53197C12.4078 8.3031 12.5174 7.81323 12.8967 7.7389L13.3091 7.65806C13.6653 7.58824 13.7564 7.12089 13.4525 6.92235C13.1899 6.75074 13.214 6.35841 13.4958 6.22035L13.9635 5.99116C14.3531 5.80026 14.4368 5.28141 14.1269 4.97775C13.9367 4.7913 13.6495 4.74501 13.4103 4.86222L12.0435 5.53198C11.9522 5.57673 11.8518 5.59999 11.7501 5.59999H11.5272C11.2097 5.59999 10.9523 5.34262 10.9523 5.02513C10.9523 4.80573 11.077 4.60554 11.2741 4.509C11.4414 4.42699 11.6248 4.33714 11.8055 4.24859C12.2694 4.02129 12.3092 3.37535 11.8767 3.09281C11.6149 2.92179 11.2695 2.95586 11.0461 3.17471L10.4666 3.7427C10.2073 3.99673 9.79254 3.99673 9.53332 3.7427L8.95374 3.17471Z" fill="#262626"/>
</g>
</svg>
