<svg width="20" height="14" viewBox="0 0 20 14" fill="none" xmlns="http://www.w3.org/2000/svg">
<rect width="20" height="14" rx="2" fill="white"/>
<mask id="mask0_240_8703" style="mask-type:luminance" maskUnits="userSpaceOnUse" x="0" y="0" width="20" height="14">
<rect width="20" height="14" rx="2" fill="white"/>
</mask>
<g mask="url(#mask0_240_8703)">
<rect width="20" height="14" fill="#E2243B"/>
<path fill-rule="evenodd" clip-rule="evenodd" d="M0 0H20L10 14L0 0Z" fill="#262626"/>
<mask id="mask1_240_8703" style="mask-type:luminance" maskUnits="userSpaceOnUse" x="0" y="0" width="20" height="14">
<path fill-rule="evenodd" clip-rule="evenodd" d="M0 0H20L10 14L0 0Z" fill="white"/>
</mask>
<g mask="url(#mask1_240_8703)">
<g filter="url(#filter0_d_240_8703)">
<path fill-rule="evenodd" clip-rule="evenodd" d="M9.99995 7.70002L8.35988 9.48032L8.48472 7.08495L6.04046 7.20729L7.85709 5.60002L5.71423 3.73336L8.48472 4.20002L8.09519 1.40002L9.99995 3.73336L11.9047 1.40002L11.5152 4.20002L14.2857 3.73336L12.1428 5.60002L13.9594 7.20729L11.5152 7.08495L11.64 9.48032L9.99995 7.70002Z" fill="#FFCF3C"/>
</g>
<g filter="url(#filter1_d_240_8703)">
<path fill-rule="evenodd" clip-rule="evenodd" d="M0 9.33331H20V5.59998H0V9.33331Z" fill="#1984D8"/>
</g>
<path fill-rule="evenodd" clip-rule="evenodd" d="M0 14H20V9.33331H0V14Z" fill="white"/>
</g>
</g>
<defs>
<filter id="filter0_d_240_8703" x="5.71423" y="1.40002" width="8.57141" height="8.08032" filterUnits="userSpaceOnUse" color-interpolation-filters="sRGB">
<feFlood flood-opacity="0" result="BackgroundImageFix"/>
<feColorMatrix in="SourceAlpha" type="matrix" values="0 0 0 0 0 0 0 0 0 0 0 0 0 0 0 0 0 0 127 0" result="hardAlpha"/>
<feOffset/>
<feColorMatrix type="matrix" values="0 0 0 0 0 0 0 0 0 0 0 0 0 0 0 0 0 0 0.06 0"/>
<feBlend mode="normal" in2="BackgroundImageFix" result="effect1_dropShadow_240_8703"/>
<feBlend mode="normal" in="SourceGraphic" in2="effect1_dropShadow_240_8703" result="shape"/>
</filter>
<filter id="filter1_d_240_8703" x="0" y="5.59998" width="20" height="3.73334" filterUnits="userSpaceOnUse" color-interpolation-filters="sRGB">
<feFlood flood-opacity="0" result="BackgroundImageFix"/>
<feColorMatrix in="SourceAlpha" type="matrix" values="0 0 0 0 0 0 0 0 0 0 0 0 0 0 0 0 0 0 127 0" result="hardAlpha"/>
<feOffset/>
<feColorMatrix type="matrix" values="0 0 0 0 0 0 0 0 0 0 0 0 0 0 0 0 0 0 0.06 0"/>
<feBlend mode="normal" in2="BackgroundImageFix" result="effect1_dropShadow_240_8703"/>
<feBlend mode="normal" in="SourceGraphic" in2="effect1_dropShadow_240_8703" result="shape"/>
</filter>
</defs>
</svg>
