<svg width="20" height="14" viewBox="0 0 20 14" fill="none" xmlns="http://www.w3.org/2000/svg">
<rect width="20" height="14" rx="2" fill="white"/>
<mask id="mask0_3245_60933" style="mask-type:luminance" maskUnits="userSpaceOnUse" x="0" y="0" width="20" height="14">
<rect width="20" height="14" rx="2" fill="white"/>
</mask>
<g mask="url(#mask0_3245_60933)">
<rect width="20" height="14" fill="#E92434"/>
<path fill-rule="evenodd" clip-rule="evenodd" d="M14.2858 6.99999C14.2858 9.31958 12.367 11.2 10.0001 11.2C7.63314 11.2 5.71436 9.31958 5.71436 6.99999C5.71436 4.68039 7.63314 2.79999 10.0001 2.79999C12.367 2.79999 14.2858 4.68039 14.2858 6.99999ZM8.5715 6.99999C8.5715 8.55154 9.76016 9.83101 11.2937 10.0115C10.896 10.1758 10.4588 10.2667 10.0001 10.2667C8.15912 10.2667 6.66674 8.80412 6.66674 6.99999C6.66674 5.19586 8.15912 3.73332 10.0001 3.73332C10.4588 3.73332 10.896 3.82415 11.2937 3.98845C9.76016 4.16897 8.5715 5.44844 8.5715 6.99999ZM10.8068 8.85855L11.6816 7.81906L12.9696 8.2906L12.2312 7.15397L13.0868 6.09921L11.7556 6.43622L10.9964 5.3128L10.9121 6.65772L9.58722 7.01817L10.8664 7.51236L10.8068 8.85855Z" fill="white"/>
</g>
</svg>
