<svg width="20" height="14" viewBox="0 0 20 14" fill="none" xmlns="http://www.w3.org/2000/svg">
<rect x="0.25" y="0.25" width="19.5" height="13.5" rx="1.75" fill="white" stroke="#F5F5F5" stroke-width="0.5"/>
<mask id="mask0_3245_60898" style="mask-type:luminance" maskUnits="userSpaceOnUse" x="0" y="0" width="20" height="14">
<rect x="0.25" y="0.25" width="19.5" height="13.5" rx="1.75" fill="white" stroke="white" stroke-width="0.5"/>
</mask>
<g mask="url(#mask0_3245_60898)">
<rect x="14.2856" width="5.71428" height="14" fill="#FF3131"/>
<path fill-rule="evenodd" clip-rule="evenodd" d="M0 14H5.71429V0H0V14Z" fill="#FF3131"/>
<path fill-rule="evenodd" clip-rule="evenodd" d="M11.685 6.28201C11.4639 6.49878 11.0956 6.29838 11.1576 5.99494L11.4287 4.66661L10.4763 5.13328L10.0001 3.73328L9.52389 5.13328L8.57151 4.66661L8.8426 5.99494C8.90452 6.29838 8.53631 6.49878 8.31512 6.28201C8.19301 6.16235 7.99762 6.16235 7.87552 6.28201L7.61913 6.53328L6.66675 6.06661L7.14294 6.99994L6.90968 7.22854C6.77631 7.35924 6.77631 7.57398 6.90968 7.70468L8.09532 8.86661H9.52389L9.76199 10.2666H10.2382L10.4763 8.86661H11.9048L13.0905 7.70468C13.2238 7.57398 13.2238 7.35924 13.0905 7.22854L12.8572 6.99994L13.3334 6.06661L12.381 6.53328L12.1246 6.28201C12.0025 6.16235 11.8071 6.16235 11.685 6.28201Z" fill="#FF3131"/>
</g>
</svg>
