<svg width="20" height="14" viewBox="0 0 20 14" fill="none" xmlns="http://www.w3.org/2000/svg">
<rect width="20" height="14" rx="2" fill="white"/>
<mask id="mask0_240_10443" style="mask-type:luminance" maskUnits="userSpaceOnUse" x="0" y="0" width="20" height="14">
<rect width="20" height="14" rx="2" fill="white"/>
</mask>
<g mask="url(#mask0_240_10443)">
<rect width="20" height="14" fill="#E92434"/>
<path fill-rule="evenodd" clip-rule="evenodd" d="M14.2857 7.00005C14.2857 9.31964 12.3669 11.2 10 11.2C7.63307 11.2 5.71429 9.31964 5.71429 7.00005C5.71429 4.68045 7.63307 2.80005 10 2.80005C12.3669 2.80005 14.2857 4.68045 14.2857 7.00005ZM8.57144 7.00005C8.57144 8.5516 9.7601 9.83107 11.2937 10.0116C10.8959 10.1759 10.4588 10.2667 10 10.2667C8.15906 10.2667 6.66668 8.80418 6.66668 7.00005C6.66668 5.19592 8.15906 3.73338 10 3.73338C10.4588 3.73338 10.8959 3.82421 11.2937 3.98852C9.7601 4.16903 8.57144 5.4485 8.57144 7.00005ZM10.8067 8.85861L11.6816 7.81912L12.9696 8.29066L12.2311 7.15403L13.0868 6.09927L11.7555 6.43628L10.9963 5.31286L10.912 6.65778L9.58716 7.01823L10.8663 7.51242L10.8067 8.85861Z" fill="white"/>
</g>
</svg>
