<svg width="20" height="14" viewBox="0 0 20 14" fill="none" xmlns="http://www.w3.org/2000/svg">
<rect width="20" height="14" rx="2" fill="white"/>
<mask id="mask0_3245_60903" style="mask-type:luminance" maskUnits="userSpaceOnUse" x="0" y="0" width="20" height="14">
<rect width="20" height="14" rx="2" fill="white"/>
</mask>
<g mask="url(#mask0_3245_60903)">
<rect width="20" height="14" fill="url(#paint0_linear_3245_60903)"/>
<path fill-rule="evenodd" clip-rule="evenodd" d="M9.63311 2.3333C9.56209 2.3333 9.49292 2.35599 9.4357 2.39805L7.67257 3.69395C7.63722 3.71993 7.59709 3.73868 7.55448 3.74912L5.74926 4.1914C5.726 4.1971 5.70342 4.20529 5.68191 4.21583L3.90926 5.08442C3.84451 5.11615 3.79179 5.16803 3.75901 5.23226L2.94681 6.82417C2.8915 6.93258 2.89967 7.06252 2.96813 7.16315L3.75178 8.31511C3.78939 8.3704 3.8095 8.43573 3.8095 8.5026V9.65992C3.8095 9.7495 3.84555 9.8353 3.90953 9.89799L4.59355 10.5683C4.69444 10.6672 4.84668 10.6918 4.97353 10.6296L7.54963 9.36731C7.59529 9.34494 7.64546 9.3333 7.6963 9.3333H9.40497C9.48181 9.3333 9.5563 9.35985 9.61581 9.40846L12.2889 11.5915C12.3484 11.6401 12.4229 11.6666 12.4997 11.6666H14.1093C14.2196 11.6666 14.3228 11.612 14.3849 11.5208L16.1327 8.9515C16.1703 8.8962 16.1905 8.83088 16.1905 8.76401V7.1026C16.1905 7.03573 16.1703 6.97041 16.1327 6.91511L14.2857 4.19997L12.9497 2.01786C12.8922 1.92392 12.79 1.86664 12.6798 1.86664H12.4176C12.23 1.86664 12.1371 2.09432 12.271 2.22562C12.3364 2.28969 12.3526 2.38881 12.311 2.47035L11.9975 3.08479C11.9406 3.19639 11.8259 3.26664 11.7006 3.26664H10.6803C10.555 3.26664 10.4403 3.19639 10.3834 3.08479L10.0928 2.51515C10.0358 2.40355 9.92112 2.3333 9.79583 2.3333H9.63311ZM13.8095 12.1333H12.8571L13.1 12.3713C13.2296 12.4983 13.437 12.4983 13.5666 12.3713L13.8095 12.1333Z" fill="white"/>
</g>
<defs>
<linearGradient id="paint0_linear_3245_60903" x1="0" y1="0" x2="0" y2="14" gradientUnits="userSpaceOnUse">
<stop stop-color="#19BFBF"/>
<stop offset="1" stop-color="#10ACAC"/>
</linearGradient>
</defs>
</svg>
