<svg width="20" height="14" viewBox="0 0 20 14" fill="none" xmlns="http://www.w3.org/2000/svg">
<rect width="20" height="14" rx="2" fill="white"/>
<mask id="mask0_3245_60866" style="mask-type:luminance" maskUnits="userSpaceOnUse" x="0" y="0" width="20" height="14">
<rect width="20" height="14" rx="2" fill="white"/>
</mask>
<g mask="url(#mask0_3245_60866)">
<rect width="20" height="14" fill="#128C4B"/>
<path fill-rule="evenodd" clip-rule="evenodd" d="M4.76196 8.40001H12.381V8.06058C12.381 7.57125 12.894 7.25136 13.3334 7.46668V8.40001H14.6159C14.9596 8.40001 15.2382 8.67859 15.2382 9.02223C15.2382 9.70952 14.681 10.2667 13.9937 10.2667H13.0477C12.6795 10.2667 12.381 9.9682 12.381 9.60001V9.33334H5.98655C5.81207 9.33334 5.64455 9.26494 5.51993 9.14282L4.76196 8.40001Z" fill="white"/>
<path fill-rule="evenodd" clip-rule="evenodd" d="M4.76196 5.73999C4.76196 5.65042 4.79801 5.56461 4.86199 5.50192L4.99522 5.37135C5.12859 5.24065 5.12859 5.0259 4.99522 4.89521L4.86199 4.76463C4.79801 4.70194 4.76196 4.61613 4.76196 4.52656V4.06661C4.76196 3.88251 4.9112 3.73328 5.0953 3.73328H5.53348C5.63337 3.73328 5.71434 3.81425 5.71434 3.91414C5.71434 4.1042 5.96994 4.16564 6.05632 3.99634L6.12943 3.85304C6.16693 3.77954 6.24247 3.73328 6.32498 3.73328H7.38577C7.51464 3.73328 7.61911 3.83774 7.61911 3.96661C7.61911 4.09548 7.51464 4.19994 7.38577 4.19994H6.90006C6.77119 4.19994 6.66672 4.30441 6.66672 4.43328C6.66672 4.56214 6.77119 4.66661 6.90006 4.66661H7.28577C7.46987 4.66661 7.61911 4.81585 7.61911 4.99994V6.19994C7.61911 6.38404 7.46987 6.53328 7.28577 6.53328H7.00006C6.81596 6.53328 6.66672 6.38404 6.66672 6.19994V5.83804C6.66672 5.70654 6.77573 5.59994 6.90722 5.59994C7.03609 5.59994 7.14291 5.49548 7.14291 5.36661C7.14291 5.23774 7.03845 5.13328 6.90958 5.13328H6.52387C6.33977 5.13328 6.19053 5.28251 6.19053 5.46661V6.29518C6.19053 6.42668 6.08394 6.53328 5.95244 6.53328C5.82094 6.53328 5.71434 6.42668 5.71434 6.29518V5.83804C5.71434 5.70654 5.60774 5.59994 5.47625 5.59994C5.34475 5.59994 5.23815 5.70654 5.23815 5.83804V6.29518C5.23815 6.42668 5.13155 6.53328 5.00006 6.53328C4.86856 6.53328 4.76196 6.42668 4.76196 6.29518V5.73999Z" fill="white"/>
<path fill-rule="evenodd" clip-rule="evenodd" d="M12.3809 5.73999C12.3809 5.65042 12.4169 5.56461 12.4809 5.50192L12.6141 5.37135C12.7475 5.24065 12.7475 5.0259 12.6141 4.89521L12.4809 4.76463C12.4169 4.70194 12.3809 4.61613 12.3809 4.52656V4.06661C12.3809 3.88251 12.5301 3.73328 12.7142 3.73328H13.1524C13.2523 3.73328 13.3332 3.81425 13.3332 3.91414C13.3332 4.1042 13.5888 4.16564 13.6752 3.99634L13.7483 3.85304C13.7858 3.77954 13.8614 3.73328 13.9439 3.73328H15.0047C15.1335 3.73328 15.238 3.83774 15.238 3.96661C15.238 4.09548 15.1335 4.19994 15.0047 4.19994H14.519C14.3901 4.19994 14.2856 4.30441 14.2856 4.43328C14.2856 4.56214 14.3901 4.66661 14.519 4.66661H14.9047C15.0888 4.66661 15.238 4.81585 15.238 4.99994V6.19994C15.238 6.38404 15.0888 6.53328 14.9047 6.53328H14.619C14.4349 6.53328 14.2856 6.38404 14.2856 6.19994V5.83804C14.2856 5.70654 14.3946 5.59994 14.5261 5.59994C14.655 5.59994 14.7618 5.49548 14.7618 5.36661C14.7618 5.23774 14.6573 5.13328 14.5285 5.13328H14.1428C13.9587 5.13328 13.8094 5.28251 13.8094 5.46661V6.29518C13.8094 6.42668 13.7028 6.53328 13.5713 6.53328C13.4398 6.53328 13.3332 6.42668 13.3332 6.29518V5.83804C13.3332 5.70654 13.2266 5.59994 13.0951 5.59994C12.9636 5.59994 12.857 5.70654 12.857 5.83804V6.29518C12.857 6.42668 12.7505 6.53328 12.619 6.53328C12.4875 6.53328 12.3809 6.42668 12.3809 6.29518V5.73999Z" fill="white"/>
<path fill-rule="evenodd" clip-rule="evenodd" d="M11.4287 4.43109C11.4287 4.56116 11.3543 4.73953 11.2568 4.83509L11.1244 4.9648C11.0295 5.05785 11.0269 5.20619 11.1244 5.30175L11.2568 5.43147C11.3517 5.52451 11.4287 5.69983 11.4287 5.83546V6.29776C11.4287 6.42783 11.3268 6.53328 11.1884 6.53328H10.7166C10.5839 6.53328 10.4763 6.43339 10.4763 6.29776V5.83546C10.4763 5.70539 10.4324 5.68608 10.3659 5.81641L10.1105 6.31681C10.0496 6.43636 9.88801 6.53328 9.76421 6.53328H8.80743C8.67715 6.53328 8.57153 6.42504 8.57153 6.29994C8.57153 6.17108 8.67345 6.06661 8.81186 6.06661H9.28359C9.41632 6.06661 9.52391 5.95837 9.52391 5.83328C9.52391 5.70441 9.42199 5.59994 9.28359 5.59994H8.81186C8.67913 5.59994 8.57153 5.49958 8.57153 5.37105V3.96217C8.57153 3.83575 8.67345 3.73328 8.81186 3.73328H9.28359C9.41632 3.73328 9.52391 3.83316 9.52391 3.9688V4.43109C9.52391 4.56116 9.41347 4.66661 9.28582 4.66661C9.15432 4.66661 9.04772 4.77485 9.04772 4.89994C9.04772 5.02881 9.14965 5.13328 9.28805 5.13328H9.75978C9.89251 5.13328 10.0001 5.02342 10.0001 4.90209V3.96446C10.0001 3.83678 10.1105 3.73328 10.2382 3.73328C10.3697 3.73328 10.4763 3.83316 10.4763 3.9688V4.43109C10.4763 4.56116 10.5867 4.66661 10.7144 4.66661C10.8459 4.66661 10.9525 4.56673 10.9525 4.43109V3.9688C10.9525 3.83872 11.0629 3.73328 11.1906 3.73328C11.3221 3.73328 11.4287 3.83316 11.4287 3.9688V4.43109Z" fill="white"/>
</g>
</svg>
