<svg width="20" height="14" viewBox="0 0 20 14" fill="none" xmlns="http://www.w3.org/2000/svg">
<rect width="20" height="14" rx="2" fill="white"/>
<mask id="mask0_3245_60750" style="mask-type:luminance" maskUnits="userSpaceOnUse" x="0" y="0" width="20" height="14">
<rect width="20" height="14" rx="2" fill="white"/>
</mask>
<g mask="url(#mask0_3245_60750)">
<rect width="20" height="14" fill="#E81B26"/>
<path fill-rule="evenodd" clip-rule="evenodd" d="M10.0001 9.33329C11.3151 9.33329 12.381 8.28862 12.381 6.99996C12.381 5.71129 11.3151 4.66663 10.0001 4.66663C8.68513 4.66663 7.61914 5.71129 7.61914 6.99996C7.61914 8.28862 8.68513 9.33329 10.0001 9.33329Z" fill="#FFE94F"/>
<path fill-rule="evenodd" clip-rule="evenodd" d="M7.29161 5.0955C7.4354 4.89945 7.60081 4.71965 7.78441 4.55945L1.40131 -2.47144L-0.510498 -0.390631L7.29161 5.0955ZM7.78441 9.44058C7.60081 9.28038 7.4354 9.10058 7.29161 8.90453L-0.510498 14.3907L1.4013 16.4715L7.78441 9.44058ZM6.69987 7.46205C6.67807 7.31111 6.66679 7.15685 6.66679 7.00001C6.66679 6.84317 6.67807 6.68892 6.69987 6.53798L0.000122011 5.60001V8.40001L6.69987 7.46205ZM10.654 10.2039C10.4425 10.2451 10.2239 10.2667 10.0001 10.2667C9.77634 10.2667 9.5577 10.2451 9.34627 10.2039L8.57155 14H11.4287L10.654 10.2039ZM10.654 3.79617L11.4287 1.28746e-05H8.57155L9.34627 3.79617C9.5577 3.75496 9.77634 3.73335 10.0001 3.73335C10.2239 3.73335 10.4425 3.75496 10.654 3.79617ZM13.3004 6.53798C13.3222 6.68892 13.3335 6.84317 13.3335 7.00001C13.3335 7.15685 13.3222 7.31111 13.3004 7.46205L20.0001 8.40001V5.60001L13.3004 6.53798ZM12.2158 9.44058L18.5989 16.4715L20.5107 14.3907L12.7086 8.90453C12.5648 9.10058 12.3994 9.28038 12.2158 9.44058ZM12.2158 4.55944C12.3994 4.71965 12.5648 4.89945 12.7086 5.09549L20.5107 -0.39063L18.5989 -2.47144L12.2158 4.55944Z" fill="#FFE94F"/>
</g>
</svg>
