<svg width="20" height="14" viewBox="0 0 20 14" fill="none" xmlns="http://www.w3.org/2000/svg">
<rect width="20" height="14" rx="2" fill="white"/>
<mask id="mask0_3245_60808" style="mask-type:luminance" maskUnits="userSpaceOnUse" x="0" y="0" width="20" height="14">
<rect width="20" height="14" rx="2" fill="white"/>
</mask>
<g mask="url(#mask0_3245_60808)">
<path fill-rule="evenodd" clip-rule="evenodd" d="M0 9.33335H20V4.66669H0V9.33335Z" fill="#063191"/>
<path fill-rule="evenodd" clip-rule="evenodd" d="M0 14H20V9.33331H0V14Z" fill="#E2213B"/>
<path fill-rule="evenodd" clip-rule="evenodd" d="M10.0001 6.53331C10.2631 6.53331 10.4763 6.32438 10.4763 6.06664C10.4763 5.80891 10.2631 5.59998 10.0001 5.59998C9.73709 5.59998 9.52389 5.80891 9.52389 6.06664C9.52389 6.32438 9.73709 6.53331 10.0001 6.53331ZM8.09532 6.99998C8.35831 6.99998 8.57151 6.79104 8.57151 6.53331C8.57151 6.27558 8.35831 6.06664 8.09532 6.06664C7.83233 6.06664 7.61913 6.27558 7.61913 6.53331C7.61913 6.79104 7.83233 6.99998 8.09532 6.99998ZM12.381 6.53331C12.381 6.79104 12.1678 6.99998 11.9048 6.99998C11.6419 6.99998 11.4287 6.79104 11.4287 6.53331C11.4287 6.27558 11.6419 6.06664 11.9048 6.06664C12.1678 6.06664 12.381 6.27558 12.381 6.53331ZM7.14294 8.39998C7.40593 8.39998 7.61913 8.19104 7.61913 7.93331C7.61913 7.67558 7.40593 7.46664 7.14294 7.46664C6.87995 7.46664 6.66675 7.67558 6.66675 7.93331C6.66675 8.19104 6.87995 8.39998 7.14294 8.39998ZM13.3334 7.93331C13.3334 8.19104 13.1202 8.39998 12.8572 8.39998C12.5942 8.39998 12.381 8.19104 12.381 7.93331C12.381 7.67558 12.5942 7.46664 12.8572 7.46664C13.1202 7.46664 13.3334 7.67558 13.3334 7.93331Z" fill="white"/>
<path fill-rule="evenodd" clip-rule="evenodd" d="M0 4.66667H20V0H0V4.66667Z" fill="#FFD044"/>
</g>
</svg>
