<svg width="20" height="14" viewBox="0 0 20 14" fill="none" xmlns="http://www.w3.org/2000/svg">
<rect x="0.25" y="0.25" width="19.5" height="13.5" rx="1.75" fill="white" stroke="#F5F5F5" stroke-width="0.5"/>
<mask id="mask0_3245_60816" style="mask-type:luminance" maskUnits="userSpaceOnUse" x="0" y="0" width="20" height="14">
<rect x="0.25" y="0.25" width="19.5" height="13.5" rx="1.75" fill="white" stroke="white" stroke-width="0.5"/>
</mask>
<g mask="url(#mask0_3245_60816)">
<path fill-rule="evenodd" clip-rule="evenodd" d="M10.0001 10.2666C11.841 10.2666 13.3334 8.80407 13.3334 6.99994C13.3334 5.19581 11.841 3.73328 10.0001 3.73328C8.15913 3.73328 6.66675 5.19581 6.66675 6.99994C6.66675 8.80407 8.15913 10.2666 10.0001 10.2666Z" fill="#E01B41"/>
<mask id="mask1_3245_60816" style="mask-type:luminance" maskUnits="userSpaceOnUse" x="6" y="3" width="8" height="8">
<path fill-rule="evenodd" clip-rule="evenodd" d="M10.0001 10.2666C11.841 10.2666 13.3334 8.80407 13.3334 6.99994C13.3334 5.19581 11.841 3.73328 10.0001 3.73328C8.15913 3.73328 6.66675 5.19581 6.66675 6.99994C6.66675 8.80407 8.15913 10.2666 10.0001 10.2666Z" fill="white"/>
</mask>
<g mask="url(#mask1_3245_60816)">
<path fill-rule="evenodd" clip-rule="evenodd" d="M6.66669 7.46663C7.61907 8.34163 9.04764 8.86663 10 7.46663C10.9524 6.06663 12.8572 6.06663 13.3334 7.46663C13.8095 8.86663 13.3334 10.2666 13.3334 10.2666H6.66669C6.66669 10.2666 5.71431 6.59163 6.66669 7.46663Z" fill="#0E4B9C"/>
</g>
<path opacity="0.75" fill-rule="evenodd" clip-rule="evenodd" d="M14.9369 2.59011C14.7766 2.68076 14.7225 2.88284 14.8159 3.04145L15.9061 4.89193C15.9996 5.05054 16.2052 5.10564 16.3654 5.01498L16.61 4.87661C16.7702 4.78595 16.8243 4.58388 16.7309 4.42526L15.6407 2.57479C15.5473 2.41617 15.3416 2.36108 15.1814 2.45174L14.9369 2.59011ZM13.6997 3.29011C13.5395 3.38076 13.4853 3.58284 13.5788 3.74145L14.6689 5.59193C14.7624 5.75054 14.968 5.80564 15.1282 5.71498L15.3728 5.57661C15.533 5.48595 15.5872 5.28388 15.4937 5.12526L14.4035 3.27479C14.3101 3.11617 14.1045 3.06108 13.9442 3.15174L13.6997 3.29011ZM3.26893 9.57479C3.17549 9.41617 3.22962 9.2141 3.38985 9.12344L3.63441 8.98507C3.79463 8.89441 4.00027 8.94951 4.09372 9.10812L5.18389 10.9586C5.27734 11.1172 5.2232 11.3193 5.06298 11.4099L4.81842 11.5483C4.6582 11.639 4.45255 11.5839 4.35911 11.4253L3.26893 9.57479ZM4.62703 8.42344C4.4668 8.5141 4.41267 8.71617 4.50611 8.87479L5.59629 10.7253C5.68973 10.8839 5.89538 10.939 6.0556 10.8483L6.30016 10.7099C6.46038 10.6193 6.51452 10.4172 6.42107 10.2586L5.3309 8.40812C5.23745 8.24951 5.03181 8.19441 4.87159 8.28507L4.62703 8.42344ZM14.6689 8.40812C14.7624 8.24951 14.968 8.19442 15.1282 8.28507L15.3728 8.42344C15.533 8.5141 15.5872 8.71617 15.4937 8.87479L14.4035 10.7253C14.3101 10.8839 14.1045 10.939 13.9442 10.8483L13.6997 10.7099C13.5395 10.6193 13.4853 10.4172 13.5788 10.2586L14.6689 8.40812ZM16.3654 8.98507C16.2052 8.89442 15.9996 8.94951 15.9061 9.10812L14.8159 10.9586C14.7225 11.1172 14.7766 11.3193 14.9369 11.4099L15.1814 11.5483C15.3416 11.639 15.5473 11.5839 15.6407 11.4253L16.7309 9.57479C16.8243 9.41617 16.7702 9.2141 16.61 9.12344L16.3654 8.98507ZM4.35911 2.57479C4.45255 2.41617 4.6582 2.36108 4.81842 2.45174L5.06298 2.59011C5.2232 2.68076 5.27734 2.88284 5.18389 3.04145L4.09372 4.89193C4.00027 5.05054 3.79463 5.10564 3.63441 5.01498L3.38985 4.87661C3.22962 4.78595 3.17549 4.58388 3.26893 4.42526L4.35911 2.57479ZM6.0556 3.15174C5.89538 3.06108 5.68973 3.11617 5.59629 3.27479L4.50611 5.12526C4.41267 5.28388 4.4668 5.48595 4.62703 5.57661L4.87159 5.71498C5.03181 5.80564 5.23745 5.75054 5.3309 5.59193L6.42107 3.74145C6.51452 3.58284 6.46038 3.38076 6.30016 3.29011L6.0556 3.15174Z" fill="#262626"/>
</g>
</svg>
