<svg width="20" height="14" viewBox="0 0 20 14" fill="none" xmlns="http://www.w3.org/2000/svg">
<rect width="20" height="14" rx="2" fill="white"/>
<mask id="mask0_3245_60800" style="mask-type:luminance" maskUnits="userSpaceOnUse" x="0" y="0" width="20" height="14">
<rect width="20" height="14" rx="2" fill="white"/>
</mask>
<g mask="url(#mask0_3245_60800)">
<path fill-rule="evenodd" clip-rule="evenodd" d="M0 14H20V0H0V14Z" fill="#079D7B"/>
<path fill-rule="evenodd" clip-rule="evenodd" d="M11.3465 6.06673C11.3465 6.27103 11.3314 6.4692 11.3029 6.65805C11.376 6.63605 11.4504 6.61506 11.526 6.5952C12.7962 6.26167 13.9298 6.37172 14.0582 6.841C14.1741 7.26511 13.4292 7.83749 12.3472 8.18994C12.156 7.63437 11.1779 7.46673 10.0001 7.46673C8.82092 7.46673 7.84197 7.63474 7.65234 8.19179C6.58496 7.83866 5.85343 7.27229 5.96842 6.85172C6.09673 6.38244 7.23042 6.27239 8.50057 6.60592C8.56726 6.62343 8.633 6.64182 8.69769 6.66101C8.66894 6.47127 8.65363 6.2721 8.65363 6.06673C8.65363 4.77807 9.25646 3.7334 10.0001 3.7334C10.7437 3.7334 11.3465 4.77807 11.3465 6.06673ZM7.61913 8.40007H8.45234C8.32037 8.37471 8.18572 8.34435 8.04945 8.30888C8.20268 8.31333 8.39167 8.32616 8.60793 8.34084C8.99944 8.36742 9.48031 8.40007 10.0001 8.40007C10.5199 8.40007 11.0007 8.36742 11.3922 8.34084C11.6003 8.32672 11.7832 8.3143 11.9332 8.30942C11.7922 8.34508 11.6531 8.37526 11.517 8.40007H12.381H13.8096C13.6967 8.73236 13.5446 9.04546 13.3593 9.3334H6.64092C6.45555 9.04546 6.30352 8.73236 6.19056 8.40007H7.61913ZM10.0001 11.2001C10.962 11.2001 11.8455 10.8504 12.5392 10.2667H7.46097C8.15472 10.8504 9.03813 11.2001 10.0001 11.2001Z" fill="white"/>
<path fill-rule="evenodd" clip-rule="evenodd" d="M10.0001 2.80003C10.2631 2.80003 10.4763 2.5911 10.4763 2.33337C10.4763 2.07563 10.2631 1.8667 10.0001 1.8667C9.73708 1.8667 9.52388 2.07563 9.52388 2.33337C9.52388 2.5911 9.73708 2.80003 10.0001 2.80003ZM6.19055 5.13337C6.45354 5.13337 6.66674 4.92443 6.66674 4.6667C6.66674 4.40897 6.45354 4.20003 6.19055 4.20003C5.92755 4.20003 5.71436 4.40897 5.71436 4.6667C5.71436 4.92443 5.92755 5.13337 6.19055 5.13337ZM14.2858 4.6667C14.2858 4.92443 14.0726 5.13337 13.8096 5.13337C13.5466 5.13337 13.3334 4.92443 13.3334 4.6667C13.3334 4.40897 13.5466 4.20003 13.8096 4.20003C14.0726 4.20003 14.2858 4.40897 14.2858 4.6667ZM12.381 3.73337C12.644 3.73337 12.8572 3.52443 12.8572 3.2667C12.8572 3.00897 12.644 2.80003 12.381 2.80003C12.118 2.80003 11.9048 3.00897 11.9048 3.2667C11.9048 3.52443 12.118 3.73337 12.381 3.73337ZM8.09531 3.2667C8.09531 3.52443 7.88211 3.73337 7.61912 3.73337C7.35612 3.73337 7.14293 3.52443 7.14293 3.2667C7.14293 3.00897 7.35612 2.80003 7.61912 2.80003C7.88211 2.80003 8.09531 3.00897 8.09531 3.2667Z" fill="#FCD117"/>
</g>
</svg>
