<svg width="20" height="14" viewBox="0 0 20 14" fill="none" xmlns="http://www.w3.org/2000/svg">
<rect width="20" height="14" rx="2" fill="white"/>
<mask id="mask0_3245_60857" style="mask-type:luminance" maskUnits="userSpaceOnUse" x="0" y="0" width="20" height="14">
<rect width="20" height="14" rx="2" fill="white"/>
</mask>
<g mask="url(#mask0_3245_60857)">
<rect width="20" height="14" fill="#07319C"/>
<path fill-rule="evenodd" clip-rule="evenodd" d="M12.3809 7C12.3809 6.37943 12.3809 5.66715 12.3809 5.06641C12.3809 4.33003 12.9778 3.73334 13.7142 3.73334H15.8094C16.5458 3.73334 17.1428 4.33003 17.1428 5.06641C17.1428 5.66715 17.1428 6.37943 17.1428 7C17.1428 9.33334 14.7618 10.2667 14.7618 10.2667C14.7618 10.2667 12.3809 9.33334 12.3809 7Z" fill="#008339"/>
<mask id="mask1_3245_60857" style="mask-type:luminance" maskUnits="userSpaceOnUse" x="12" y="3" width="6" height="8">
<path fill-rule="evenodd" clip-rule="evenodd" d="M12.3809 7C12.3809 6.37943 12.3809 5.66715 12.3809 5.06641C12.3809 4.33003 12.9778 3.73334 13.7142 3.73334H15.8094C16.5458 3.73334 17.1428 4.33003 17.1428 5.06641C17.1428 5.66715 17.1428 6.37943 17.1428 7C17.1428 9.33334 14.7618 10.2667 14.7618 10.2667C14.7618 10.2667 12.3809 9.33334 12.3809 7Z" fill="white"/>
</mask>
<g mask="url(#mask1_3245_60857)">
<path fill-rule="evenodd" clip-rule="evenodd" d="M13.8094 5.60002C14.0724 5.60002 14.2856 5.39109 14.2856 5.13335C14.2856 4.87562 14.0724 4.66669 13.8094 4.66669C13.5465 4.66669 13.3333 4.87562 13.3333 5.13335C13.3333 5.39109 13.5465 5.60002 13.8094 5.60002ZM13.8094 6.53335C14.0724 6.53335 14.2856 6.32442 14.2856 6.06669C14.2856 5.80895 14.0724 5.60002 13.8094 5.60002C13.5465 5.60002 13.3333 5.80895 13.3333 6.06669C13.3333 6.32442 13.5465 6.53335 13.8094 6.53335ZM13.8094 7.46669C13.5465 7.46669 13.3333 7.25775 13.3333 7.00002C13.3333 6.74229 13.5465 6.53335 13.8094 6.53335C14.0724 6.53335 14.2856 6.74229 14.2856 7.00002C14.2856 7.25775 14.0724 7.46669 13.8094 7.46669ZM13.8094 7.46669C14.0724 7.46669 14.2856 7.67562 14.2856 7.93335C14.2856 8.19109 14.0724 8.40002 13.8094 8.40002C13.5465 8.40002 13.3333 8.19109 13.3333 7.93335C13.3333 7.67562 13.5465 7.46669 13.8094 7.46669ZM16.1904 7.93335C16.1904 8.19109 15.9772 8.40002 15.7142 8.40002C15.4512 8.40002 15.238 8.19109 15.238 7.93335C15.238 7.67562 15.4512 7.46669 15.7142 7.46669C15.9772 7.46669 16.1904 7.67562 16.1904 7.93335ZM15.7142 6.53335C15.9772 6.53335 16.1904 6.74229 16.1904 7.00002C16.1904 7.25775 15.9772 7.46669 15.7142 7.46669C15.4512 7.46669 15.238 7.25775 15.238 7.00002C15.238 6.74229 15.4512 6.53335 15.7142 6.53335ZM15.7142 5.60002C15.9772 5.60002 16.1904 5.39109 16.1904 5.13335C16.1904 4.87562 15.9772 4.66669 15.7142 4.66669C15.4512 4.66669 15.238 4.87562 15.238 5.13335C15.238 5.39109 15.4512 5.60002 15.7142 5.60002ZM15.7142 5.60002C15.4512 5.60002 15.238 5.80895 15.238 6.06669C15.238 6.32442 15.4512 6.53335 15.7142 6.53335C15.9772 6.53335 16.1904 6.32442 16.1904 6.06669C16.1904 5.80895 15.9772 5.60002 15.7142 5.60002Z" fill="#FFD033"/>
<path fill-rule="evenodd" clip-rule="evenodd" d="M14.7618 7.93336C15.0248 7.93336 15.238 7.30656 15.238 6.53336C15.238 5.76016 15.0248 5.13336 14.7618 5.13336C14.4988 5.13336 14.2856 5.76016 14.2856 6.53336C14.2856 7.30656 14.4988 7.93336 14.7618 7.93336Z" fill="white"/>
</g>
<path d="M11.9048 9.3333C11.9048 10.2234 13.2056 10.7333 14.7619 10.7333C16.3182 10.7333 17.6191 10.2234 17.6191 9.3333C17.6191 9.07557 17.4059 8.86664 17.1429 8.86664C16.8799 8.86664 16.6667 9.07557 16.6667 9.3333C16.6667 9.34223 16.5513 9.4492 16.2687 9.55998C15.885 9.71036 15.3446 9.79997 14.7619 9.79997C14.1793 9.79997 13.6388 9.71036 13.2552 9.55998C12.9726 9.4492 12.8572 9.34223 12.8572 9.3333C12.8572 9.07557 12.644 8.86664 12.381 8.86664C12.118 8.86664 11.9048 9.07557 11.9048 9.3333Z" fill="#FFD033"/>
<path d="M-0.915074 -0.333333H0H0.47619H0.581265L0.667345 -0.273077L3.9146 2H4.66793L8.39732 -0.284251L8.90476 -0.595057V0V0.293115C8.90476 0.510658 8.79862 0.714517 8.6204 0.839269L5.57143 2.97355V3.578L8.45876 6.00336C8.80818 6.29688 8.60063 6.86667 8.14428 6.86667C8.04397 6.86667 7.94608 6.83581 7.8639 6.77828M-0.915074 -0.333333L7.8639 6.77828M-0.915074 -0.333333L-0.214397 0.255235L3 2.95533V3.55978L-0.191154 5.79359L-0.333333 5.89311V6.06667V6.53333V7.12839L0.174104 6.81758L3.90349 4.53333H4.65683L7.8639 6.77828M-0.915074 -0.333333L7.8639 6.77828" fill="#DB1E36" stroke="white" stroke-width="0.666667"/>
<path fill-rule="evenodd" clip-rule="evenodd" d="M0 2.33333V4.2H3.33333V6.33333C3.33333 6.70152 3.63181 7 4 7H4.57143C4.93962 7 5.23809 6.70152 5.23809 6.33333V4.2H8.38095C8.74914 4.2 9.04762 3.90152 9.04762 3.53333V3C9.04762 2.63181 8.74914 2.33333 8.38095 2.33333H5.23809V0H3.33333V2.33333H0Z" fill="white"/>
<path fill-rule="evenodd" clip-rule="evenodd" d="M0 2.8H3.80952V2.33333V0H4.7619V2.33333V2.8H8.57143V3.73333H4.7619V4.2V6.53333H3.80952V4.2V3.73333H0V2.8Z" fill="#DB1E36"/>
</g>
</svg>
