<svg width="20" height="14" viewBox="0 0 20 14" fill="none" xmlns="http://www.w3.org/2000/svg">
<rect width="20" height="14" rx="2" fill="white"/>
<mask id="mask0_3245_60732" style="mask-type:luminance" maskUnits="userSpaceOnUse" x="0" y="0" width="20" height="14">
<rect width="20" height="14" rx="2" fill="white"/>
</mask>
<g mask="url(#mask0_3245_60732)">
<rect width="20" height="14" fill="#19BFBF"/>
<path fill-rule="evenodd" clip-rule="evenodd" d="M10.0001 12.1333C12.893 12.1333 15.2382 9.83503 15.2382 6.99997C15.2382 4.16491 12.893 1.86664 10.0001 1.86664C7.10714 1.86664 4.76196 4.16491 4.76196 6.99997C4.76196 9.83503 7.10714 12.1333 10.0001 12.1333ZM14.2596 7.46664C14.0828 9.03405 13.0259 10.3415 11.5839 10.9039C12.0482 9.97704 12.3195 8.76959 12.3717 7.46664H14.2596ZM11.4184 7.46664C11.3488 9.04097 10.9294 10.4324 10.2754 11.1914C10.1844 11.1971 10.0926 11.2 10.0001 11.2C9.90756 11.2 9.81574 11.1971 9.7247 11.1914C9.07072 10.4324 8.65127 9.04097 8.58174 7.46664H11.4184ZM7.62841 7.46664C7.68065 8.76959 7.95192 9.97704 8.41626 10.9039C6.97424 10.3415 5.91731 9.03405 5.7405 7.46664H7.62841ZM8.58174 6.53331H11.4184C11.3488 4.95897 10.9294 3.56757 10.2754 2.8085C10.1844 2.80284 10.0926 2.79997 10.0001 2.79997C9.90756 2.79997 9.81574 2.80284 9.7247 2.8085C9.07072 3.56757 8.65127 4.95897 8.58174 6.53331ZM8.41626 3.09609C7.95192 4.02291 7.68065 5.23035 7.62841 6.53331H5.7405C5.91731 4.96589 6.97424 3.65843 8.41626 3.09609ZM14.2596 6.53331H12.3717C12.3195 5.23035 12.0482 4.0229 11.5839 3.09609C13.0259 3.65843 14.0828 4.96589 14.2596 6.53331Z" fill="white"/>
</g>
</svg>
