<svg width="20" height="14" viewBox="0 0 20 14" fill="none" xmlns="http://www.w3.org/2000/svg">
<rect width="20" height="14" rx="2" fill="white"/>
<mask id="mask0_240_10764" style="mask-type:luminance" maskUnits="userSpaceOnUse" x="0" y="0" width="20" height="14">
<rect width="20" height="14" rx="2" fill="white"/>
</mask>
<g mask="url(#mask0_240_10764)">
<rect width="20" height="14" fill="#19BFBF"/>
<path fill-rule="evenodd" clip-rule="evenodd" d="M7.14282 11.2419C7.14282 11.2141 7.14629 11.1864 7.15316 11.1595L7.61901 9.33337L8.07072 7.56267C8.08669 7.50004 8.08412 7.43412 8.0633 7.37293L7.66359 6.19777C7.63505 6.11386 7.57427 6.04478 7.49468 6.00578L6.85329 5.6915C6.73904 5.63552 6.66663 5.51939 6.66663 5.39217V3.81349C6.66663 3.76082 6.6791 3.70891 6.70304 3.662L7.14282 2.80003L7.52623 2.04854C7.58317 1.93695 7.69787 1.8667 7.82315 1.8667H10.1428C10.3269 1.8667 10.4761 2.01594 10.4761 2.20003V2.4667C10.4761 2.65079 10.6254 2.80003 10.8095 2.80003H11.0952C11.2793 2.80003 11.4285 2.94927 11.4285 3.13337V3.5255C11.4285 3.65272 11.5009 3.76885 11.6152 3.82483L13.1466 4.57524C13.2609 4.63121 13.3333 4.74734 13.3333 4.87457V5.51991C13.3333 5.57258 13.3208 5.62449 13.2969 5.6714L12.8974 6.45433C12.871 6.50612 12.8315 6.5501 12.7828 6.5819L11.5028 7.41817C11.4541 7.44997 11.4146 7.49395 11.3882 7.54573L10.5165 9.25433C10.4901 9.30612 10.4505 9.3501 10.4019 9.3819L9.12186 10.2182C9.07319 10.25 9.03368 10.2939 9.00725 10.3457L8.18797 11.9515C8.13104 12.0631 8.01634 12.1334 7.89105 12.1334H7.47615C7.29205 12.1334 7.14282 11.9841 7.14282 11.8V11.2419Z" fill="white"/>
</g>
</svg>
