<svg width="20" height="14" viewBox="0 0 20 14" fill="none" xmlns="http://www.w3.org/2000/svg">
<rect width="20" height="14" rx="2" fill="white"/>
<mask id="mask0_240_10777" style="mask-type:luminance" maskUnits="userSpaceOnUse" x="0" y="0" width="20" height="14">
<rect width="20" height="14" rx="2" fill="white"/>
</mask>
<g mask="url(#mask0_240_10777)">
<rect width="20" height="14" fill="#19BFBF"/>
<path fill-rule="evenodd" clip-rule="evenodd" d="M12.1477 12.3714L11.4853 11.7223C11.4481 11.6857 11.4199 11.641 11.4031 11.5915L11.0073 10.4279C10.9745 10.3315 10.884 10.2667 10.7822 10.2667C10.6271 10.2667 10.5135 10.4129 10.5519 10.5632L10.905 11.9473C10.9344 12.0625 10.9002 12.1846 10.8153 12.2678L10.7096 12.3714C10.5799 12.4984 10.3725 12.4984 10.2429 12.3714L10.1001 12.2314C10.0361 12.1687 10.0001 12.0829 10.0001 11.9933V11.2802C10.0001 11.2275 9.98758 11.1756 9.96365 11.1287L9.61664 10.4485C9.55971 10.3369 9.44501 10.2667 9.31972 10.2667H8.17257C8.12173 10.2667 8.07156 10.2783 8.0259 10.3007L7.26724 10.6724C7.18765 10.7114 7.12687 10.7805 7.09833 10.8644L6.71131 12.0023C6.68277 12.0862 6.62199 12.1553 6.5424 12.1943L5.86102 12.5282C5.76849 12.5735 5.6602 12.5735 5.56767 12.5282L4.94862 12.2248C4.83438 12.1688 4.76196 12.0527 4.76196 11.9255V10.6C4.76196 10.4159 4.9112 10.2667 5.0953 10.2667H5.8572C6.0413 10.2667 6.19053 10.1175 6.19053 9.93337V9.3885C6.19053 9.35199 6.19653 9.31573 6.20829 9.28116L6.58986 8.15936C6.63582 8.02424 6.76271 7.93337 6.90543 7.93337H7.54183C7.59267 7.93337 7.64284 7.92173 7.6885 7.89936L8.50209 7.5007C8.54775 7.47833 8.59792 7.4667 8.64876 7.4667H9.19526C9.37675 7.4667 9.52387 7.31958 9.52387 7.13809C9.52387 7.04979 9.55941 6.9652 9.62247 6.9034L9.67602 6.85092C9.8367 6.69346 10.104 6.73711 10.2063 6.9375L10.3835 7.28486C10.4404 7.39645 10.5551 7.4667 10.6804 7.4667H11.6661C11.8088 7.4667 11.9357 7.37583 11.9817 7.24071L12.3041 6.29269C12.3501 6.15757 12.477 6.0667 12.6197 6.0667H13.1001C13.2289 6.0667 13.3334 5.96223 13.3334 5.83337C13.3334 5.7045 13.2289 5.60003 13.1001 5.60003H12.7143C12.5302 5.60003 12.381 5.45079 12.381 5.2667V4.74682C12.381 4.69416 12.3935 4.64224 12.4174 4.59533L12.7459 3.95151C12.8121 3.82171 12.7864 3.66394 12.6823 3.56195L12.6143 3.49534C12.4847 3.36833 12.2773 3.36833 12.1477 3.49534L11.5287 4.10201C11.4647 4.1647 11.4286 4.25051 11.4286 4.34008V5.07823C11.4286 5.11474 11.4226 5.151 11.4109 5.18557L11.0293 6.30737C10.9833 6.4425 10.8565 6.53337 10.7137 6.53337H10.6124C10.5251 6.53337 10.4413 6.49916 10.379 6.4381L10.0693 6.13451C10.025 6.09114 10.0001 6.03178 10.0001 5.96982C10.0001 5.7992 9.82121 5.68767 9.668 5.76274L9.25933 5.96299C9.13248 6.02515 8.98023 6.0006 8.87934 5.90173L8.67151 5.69806C8.60754 5.63536 8.57149 5.54956 8.57149 5.45999V4.80675C8.57149 4.71717 8.60754 4.63137 8.67151 4.56868L9.52387 3.73337L10.8968 2.38794C10.9334 2.35204 10.9778 2.32508 11.0266 2.30915L12.3306 1.88318C12.364 1.87226 12.3989 1.8667 12.4341 1.8667H13.1292C13.2545 1.8667 13.3692 1.93695 13.4262 2.04854L13.7732 2.72866C13.7971 2.77557 13.8096 2.82749 13.8096 2.88015V4.05998C13.8096 4.14956 13.8456 4.23536 13.9096 4.29806L14.136 4.51988C14.2275 4.60961 14.2595 4.74391 14.2182 4.86529L13.8929 5.82179C13.8439 5.96591 13.8987 6.12493 14.0261 6.20819L15.2382 7.00003L15.8455 7.29761C16.0276 7.38686 16.0885 7.61672 15.9744 7.78443L15.2959 8.78184C15.2583 8.83713 15.2382 8.90246 15.2382 8.96933V10.0249C15.2382 10.1691 15.1454 10.297 15.0083 10.3418L13.9404 10.6906C13.8566 10.718 13.7871 10.7775 13.747 10.856L13.3581 11.6182C13.3417 11.6503 13.3203 11.6796 13.2945 11.7048L12.6143 12.3714C12.4847 12.4984 12.2773 12.4984 12.1477 12.3714ZM8.0953 12.1334C8.35829 12.1334 8.57149 11.9244 8.57149 11.6667C8.57149 11.409 8.35829 11.2 8.0953 11.2C7.8323 11.2 7.61911 11.409 7.61911 11.6667C7.61911 11.9244 7.8323 12.1334 8.0953 12.1334ZM6.66672 6.0667C6.66672 6.32443 6.45353 6.53337 6.19053 6.53337C5.92754 6.53337 5.71434 6.32443 5.71434 6.0667C5.71434 5.80897 5.92754 5.60003 6.19053 5.60003C6.45353 5.60003 6.66672 5.80897 6.66672 6.0667Z" fill="white"/>
<path fill-rule="evenodd" clip-rule="evenodd" d="M7.1064 6.13799C7.13034 6.09108 7.14282 6.03917 7.14282 5.9865V5.68008C7.14282 5.62742 7.13034 5.5755 7.1064 5.52859L6.91399 5.15145C6.80083 4.92967 6.96193 4.66663 7.21091 4.66663H7.28567C7.46977 4.66663 7.61901 4.81586 7.61901 4.99996V5.9865C7.61901 6.03917 7.63149 6.09108 7.65542 6.13799L7.84784 6.51514C7.96099 6.73692 7.7999 6.99996 7.55092 6.99996H7.21091C6.96193 6.99996 6.80083 6.73692 6.91399 6.51513L7.1064 6.13799Z" fill="white"/>
</g>
</svg>
