<svg width="20" height="14" viewBox="0 0 20 14" fill="none" xmlns="http://www.w3.org/2000/svg">
<rect width="20" height="14" rx="2" fill="white"/>
<mask id="mask0_240_10770" style="mask-type:luminance" maskUnits="userSpaceOnUse" x="0" y="0" width="20" height="14">
<rect width="20" height="14" rx="2" fill="white"/>
</mask>
<g mask="url(#mask0_240_10770)">
<rect width="20" height="14" fill="#19BFBF"/>
<path fill-rule="evenodd" clip-rule="evenodd" d="M5.74347 3.90527C5.72516 3.79759 5.76076 3.68777 5.83877 3.61132L7.52179 1.96196C7.5841 1.9009 7.66786 1.8667 7.7551 1.8667H8.84342C8.9687 1.8667 9.08341 1.93695 9.14034 2.04854L9.43098 2.61819C9.48792 2.72979 9.60262 2.80003 9.7279 2.80003H11.2244C11.3497 2.80003 11.4644 2.87028 11.5213 2.98188L12.7643 5.41819C12.8213 5.52979 12.936 5.60003 13.0612 5.60003H13.6108C13.887 5.60003 14.0434 5.91663 13.8755 6.13595L12.8755 7.44262C12.8633 7.45864 12.8525 7.47574 12.8433 7.49371L12.4173 8.32866C12.3934 8.37557 12.3809 8.42749 12.3809 8.48015V9.25324C12.3809 9.30591 12.3684 9.35782 12.3445 9.40474L11.9047 10.2667L11.4285 11.2L11.0451 11.9515C10.9882 12.0631 10.8735 12.1334 10.7482 12.1334H10.2041C10.0788 12.1334 9.96411 12.0631 9.90717 11.9515L9.56017 11.2714C9.53624 11.2245 9.52376 11.1726 9.52376 11.1199V8.54008C9.52376 8.45051 9.48771 8.3647 9.42373 8.30201L9.10427 7.98893C9.06699 7.9524 9.03881 7.90762 9.022 7.8582L8.64825 6.75936C8.60228 6.62424 8.47539 6.53337 8.33267 6.53337H6.47185C6.30932 6.53337 6.17049 6.41615 6.14324 6.25592L5.74347 3.90527Z" fill="white"/>
<path fill-rule="evenodd" clip-rule="evenodd" d="M13.3334 9.66671C13.3334 9.48261 13.4826 9.33337 13.6667 9.33337H13.9524C14.1365 9.33337 14.2858 9.48261 14.2858 9.66671V10.1866C14.2858 10.2392 14.2733 10.2912 14.2493 10.3381L13.8918 11.0389C13.8413 11.1378 13.7397 11.2 13.6287 11.2C13.4656 11.2 13.3334 11.0678 13.3334 10.9047V9.66671Z" fill="white"/>
</g>
</svg>
