<svg width="20" height="14" viewBox="0 0 20 14" fill="none" xmlns="http://www.w3.org/2000/svg">
<rect width="20" height="14" rx="2" fill="white"/>
<mask id="mask0_240_10758" style="mask-type:luminance" maskUnits="userSpaceOnUse" x="0" y="0" width="20" height="14">
<rect width="20" height="14" rx="2" fill="white"/>
</mask>
<g mask="url(#mask0_240_10758)">
<rect width="20" height="14" fill="#19BFBF"/>
<path fill-rule="evenodd" clip-rule="evenodd" d="M9.52384 10.2667L9.14043 9.51521C9.08349 9.40361 8.96879 9.33337 8.84351 9.33337H8.70757C8.62033 9.33337 8.53656 9.29916 8.47426 9.2381L6.76673 7.56472C6.70275 7.50203 6.6667 7.41622 6.6667 7.32665V6.67341C6.6667 6.58384 6.63065 6.49804 6.56668 6.43534L5.78094 5.66532C5.73737 5.62262 5.70635 5.56877 5.69126 5.50965L5.28343 3.91093C5.25522 3.80036 5.17241 3.7119 5.06394 3.67646L3.80956 3.2667L3.04384 2.8915C2.92959 2.83552 2.85718 2.71939 2.85718 2.59217V2.20003C2.85718 2.01594 3.00642 1.8667 3.19051 1.8667H3.67346C3.7607 1.8667 3.84446 1.9009 3.90677 1.96196L4.18854 2.2381C4.25085 2.29916 4.33461 2.33337 4.42185 2.33337H5.10203C5.18927 2.33337 5.27303 2.29916 5.33534 2.2381L5.61711 1.96196C5.67942 1.9009 5.76318 1.8667 5.85042 1.8667H7.54181C7.59265 1.8667 7.64282 1.87833 7.68848 1.9007L8.50207 2.29936C8.54773 2.32173 8.5979 2.33337 8.64874 2.33337H9.44657C9.49741 2.33337 9.54758 2.32173 9.59324 2.29936L10.4068 1.9007C10.4525 1.87833 10.5027 1.8667 10.5535 1.8667H12.0477C12.2317 1.8667 12.381 2.01594 12.381 2.20003V2.4667C12.381 2.65079 12.2317 2.80003 12.0477 2.80003H11.7619C11.5778 2.80003 11.4286 2.94927 11.4286 3.13337V3.99217C11.4286 4.11939 11.501 4.23552 11.6153 4.2915L11.901 4.4315C12.1224 4.54002 12.381 4.37879 12.381 4.13217V3.60003C12.381 3.41594 12.5302 3.2667 12.7143 3.2667H13.5762C13.7051 3.2667 13.8096 3.37117 13.8096 3.50003C13.8096 3.6289 13.914 3.73337 14.0429 3.73337H14.9048C15.0889 3.73337 15.2381 3.8826 15.2381 4.0667V4.61156C15.2381 4.64807 15.2321 4.68433 15.2204 4.7189L14.7875 5.99154C14.7707 6.04095 14.7425 6.08573 14.7052 6.12227L13.3722 7.4286C13.3465 7.45383 13.325 7.48307 13.3086 7.51518L12.8936 8.32866C12.8697 8.37557 12.8572 8.42749 12.8572 8.48015V9.03804C12.8572 9.20114 12.725 9.33337 12.5619 9.33337C12.4509 9.33337 12.3492 9.27113 12.2988 9.17226L11.9976 8.58188C11.9406 8.47028 11.8259 8.40003 11.7007 8.40003H10.6804C10.5551 8.40003 10.4404 8.47028 10.3834 8.58188L10.0773 9.18188C10.0288 9.27703 10.0288 9.3897 10.0773 9.48486L10.3834 10.0849C10.4404 10.1965 10.5551 10.2667 10.6804 10.2667H11.2925C11.3797 10.2667 11.4635 10.3009 11.5258 10.362L12.281 11.102C12.3449 11.1647 12.381 11.2505 12.381 11.3401V11.8C12.381 11.9841 12.2317 12.1334 12.0477 12.1334H11.6327C11.5075 12.1334 11.3928 12.0631 11.3358 11.9515L11.0452 11.3819C10.9883 11.2703 10.8736 11.2 10.7483 11.2H10.2042C10.0789 11.2 9.96419 11.1298 9.90726 11.0182L9.52384 10.2667Z" fill="white"/>
</g>
</svg>
