<svg width="20" height="14" viewBox="0 0 20 14" fill="none" xmlns="http://www.w3.org/2000/svg">
<rect width="20" height="14" rx="2" fill="white"/>
<mask id="mask0_3245_60926" style="mask-type:luminance" maskUnits="userSpaceOnUse" x="0" y="0" width="20" height="14">
<rect width="20" height="14" rx="2" fill="white"/>
</mask>
<g mask="url(#mask0_3245_60926)">
<path fill-rule="evenodd" clip-rule="evenodd" d="M0 1.86667H20V0H0V1.86667Z" fill="#262626"/>
<path fill-rule="evenodd" clip-rule="evenodd" d="M0 9.33334H20V7.46667H0V9.33334Z" fill="#262626"/>
<path fill-rule="evenodd" clip-rule="evenodd" d="M0 7.46669H20V4.66669H0V7.46669Z" fill="#ED1623"/>
<path fill-rule="evenodd" clip-rule="evenodd" d="M0 4.66664H20V1.86664H0V4.66664Z" fill="#FEE044"/>
<path fill-rule="evenodd" clip-rule="evenodd" d="M0 14H20V12.1334H0V14Z" fill="#ED1623"/>
<path fill-rule="evenodd" clip-rule="evenodd" d="M0 12.1333H20V9.33331H0V12.1333Z" fill="#FEE044"/>
<path fill-rule="evenodd" clip-rule="evenodd" d="M10.0001 10.2667C11.841 10.2667 13.3334 8.80413 13.3334 7C13.3334 5.19587 11.841 3.73334 10.0001 3.73334C8.15913 3.73334 6.66675 5.19587 6.66675 7C6.66675 8.80413 8.15913 10.2667 10.0001 10.2667Z" fill="white"/>
<path fill-rule="evenodd" clip-rule="evenodd" d="M9.28582 5.36665C9.15511 5.23855 9.15511 5.02808 9.28582 4.89998L9.50455 4.68562C9.51744 4.67299 9.52915 4.65946 9.54029 4.64527C9.55889 4.62158 9.59202 4.58101 9.63281 4.53811C9.78096 4.3823 10.2858 4.41431 10.4176 4.58415C10.483 4.66843 10.4466 4.72482 10.3981 4.81985L10.0365 5.52861C10.0126 5.57552 10.0001 5.62744 10.0001 5.6801V5.85878C10.0001 5.986 10.0725 6.10213 10.1868 6.15811L10.9042 6.50967C10.9362 6.52533 10.9654 6.54601 10.9909 6.57093L11.73 7.29524C11.834 7.39723 11.8598 7.555 11.7936 7.6848L11.6048 8.05469C11.5175 8.22591 11.2891 8.2632 11.1518 8.12867C11.0411 8.02014 10.8639 8.02014 10.7531 8.12867L10.5763 8.30196C10.5123 8.36465 10.4763 8.45046 10.4763 8.54003V8.76902C10.4763 8.83146 10.5014 8.89128 10.546 8.93498C10.6947 9.08068 10.5915 9.33332 10.3834 9.33332H10.093C9.88487 9.33332 9.78171 9.08068 9.93038 8.93498C9.97497 8.89128 10.0001 8.83146 10.0001 8.76902V8.72859C10.0001 8.5471 9.85298 8.39998 9.6715 8.39998H9.66002C9.57278 8.39998 9.48902 8.43418 9.42671 8.49524L9.28101 8.63803C9.15141 8.76503 8.94403 8.76503 8.81444 8.63803C8.68109 8.50734 8.68109 8.29262 8.81444 8.16194L8.95053 8.02857C9.01283 7.96751 9.09658 7.93332 9.18381 7.93332C9.48238 7.93332 9.63034 7.57094 9.4171 7.36197L8.81446 6.77139C8.6811 6.64069 8.6811 6.42594 8.81446 6.29524L9.28582 5.83331C9.41653 5.70522 9.41653 5.49474 9.28582 5.36665Z" fill="#262626"/>
</g>
</svg>
