<svg width="20" height="14" viewBox="0 0 20 14" fill="none" xmlns="http://www.w3.org/2000/svg">
<rect width="20" height="14" rx="2" fill="white"/>
<mask id="mask0_3245_60752" style="mask-type:luminance" maskUnits="userSpaceOnUse" x="0" y="0" width="20" height="14">
<rect width="20" height="14" rx="2" fill="white"/>
</mask>
<g mask="url(#mask0_3245_60752)">
<rect width="20" height="14" fill="url(#paint0_linear_3245_60752)"/>
<g filter="url(#filter0_d_3245_60752)">
<path fill-rule="evenodd" clip-rule="evenodd" d="M0 0H20L0 14V0Z" fill="url(#paint1_linear_3245_60752)"/>
</g>
<path fill-rule="evenodd" clip-rule="evenodd" d="M20 0L0 14H20V0Z" fill="#2C7442"/>
<rect width="23.8135" height="16.7902" transform="matrix(0.834219 -0.551434 0.566962 0.823744 -1.9812 13.794)" fill="#FFD646"/>
<path fill-rule="evenodd" clip-rule="evenodd" d="M1.44321 3.04387L1.57685 2.28028L1.01074 1.7395L1.79308 1.62809L2.14295 0.93335L2.49282 1.62809L3.27516 1.7395L2.70906 2.28028L2.8427 3.04387L2.14295 2.68335L1.44321 3.04387ZM6.20511 3.04387L6.33875 2.28028L5.77265 1.7395L6.55499 1.62809L6.90486 0.93335L7.25473 1.62809L8.03707 1.7395L7.47096 2.28028L7.6046 3.04387L6.90486 2.68335L6.20511 3.04387ZM6.33875 5.08028L6.20511 5.84387L6.90486 5.48335L7.6046 5.84387L7.47096 5.08028L8.03707 4.5395L7.25473 4.42809L6.90486 3.73335L6.55499 4.42809L5.77265 4.5395L6.33875 5.08028ZM2.14295 5.48335L1.44321 5.84387L1.57685 5.08028L1.01074 4.5395L1.79308 4.42809L2.14295 3.73335L2.49282 4.42809L3.27516 4.5395L2.70906 5.08028L2.8427 5.84387L2.14295 5.48335ZM3.82416 4.44387L4.5239 4.08335L5.22365 4.44387L5.09001 3.68028L5.65612 3.1395L4.87378 3.02809L4.5239 2.33335L4.17403 3.02809L3.39169 3.1395L3.9578 3.68028L3.82416 4.44387Z" fill="white"/>
</g>
<defs>
<filter id="filter0_d_3245_60752" x="0" y="0" width="20" height="14" filterUnits="userSpaceOnUse" color-interpolation-filters="sRGB">
<feFlood flood-opacity="0" result="BackgroundImageFix"/>
<feColorMatrix in="SourceAlpha" type="matrix" values="0 0 0 0 0 0 0 0 0 0 0 0 0 0 0 0 0 0 127 0" result="hardAlpha"/>
<feOffset/>
<feColorMatrix type="matrix" values="0 0 0 0 0 0 0 0 0 0 0 0 0 0 0 0 0 0 0.06 0"/>
<feBlend mode="normal" in2="BackgroundImageFix" result="effect1_dropShadow_3245_60752"/>
<feBlend mode="normal" in="SourceGraphic" in2="effect1_dropShadow_3245_60752" result="shape"/>
</filter>
<linearGradient id="paint0_linear_3245_60752" x1="0" y1="0" x2="0" y2="14" gradientUnits="userSpaceOnUse">
<stop stop-color="#1DBE4F"/>
<stop offset="1" stop-color="#159B3F"/>
</linearGradient>
<linearGradient id="paint1_linear_3245_60752" x1="0" y1="0" x2="0" y2="14" gradientUnits="userSpaceOnUse">
<stop stop-color="#0660D4"/>
<stop offset="1" stop-color="#0051BB"/>
</linearGradient>
</defs>
</svg>
