<svg width="20" height="14" viewBox="0 0 20 14" fill="none" xmlns="http://www.w3.org/2000/svg">
<rect width="20" height="14" rx="2" fill="white"/>
<mask id="mask0_3245_60740" style="mask-type:luminance" maskUnits="userSpaceOnUse" x="0" y="0" width="20" height="14">
<rect width="20" height="14" rx="2" fill="white"/>
</mask>
<g mask="url(#mask0_3245_60740)">
<rect width="20" height="14" fill="#07319C"/>
<path d="M12.7142 7V6.94156V6.88262V6.82322V6.76339V6.70317V6.6426V6.58171V6.52055V6.45915V6.39755V6.33578V6.27389V6.2119V6.14986V6.1421V6.13823V6.13435V6.11883V6.11495V6.11108V6.1072V6.10332V6.09944V6.09556V6.09168V6.0878V6.08393V6.08005V6.07617V6.07229V6.06841V6.06454V6.06066V6.05678V6.0529V6.04903V6.04515V6.04127V6.0374V6.03352V6.02965V6.02577V6.02189V6.01802V6.01414V6.01027V6.00639V6.00252V5.99865V5.99477V5.9909V5.98702V5.98315V5.97928V5.97541V5.97153V5.96766V5.96379V5.95992V5.95605V5.95218V5.94831V5.94444V5.94057V5.9367V5.93284V5.92897V5.9251V5.92124V5.91737V5.9135V5.90964V5.90577V5.90191V5.89805V5.89418V5.89032V5.88646V5.8826V5.87874V5.87488V5.87102V5.86716V5.8633V5.85944V5.85558V5.85173V5.84787V5.84402V5.84016V5.83631V5.83245V5.8286V5.82475V5.8209V5.81705V5.8132V5.80935V5.8055V5.80165V5.7978V5.79396V5.79011V5.78627V5.78242V5.77858V5.77474V5.7709V5.76706V5.76322V5.75938V5.75554V5.7517V5.74787V5.74403V5.7402V5.73636V5.73253V5.7287V5.72487V5.72104V5.71721V5.71338V5.70955V5.70573V5.7019V5.69808V5.69426V5.69043V5.68661V5.68279V5.67897V5.67515V5.67134V5.66752V5.66371V5.65989V5.65608V5.65227V5.64846V5.64465V5.64084V5.63703V5.63323V5.62942V5.62562V5.62182V5.61802V5.61422V5.61042V5.60662V5.60282V5.59903V5.59523V5.59144V5.58765V5.58386V5.58007V5.57628V5.5725V5.56871V5.56493V5.56114V5.55736V5.55358V5.54981V5.54603V5.54225V5.53848V5.53471V5.53093V5.52716V5.51963V5.50457V5.47453V5.41475V5.3554V5.29652V5.23814V5.18031V5.12305V5.06641C12.7142 4.51421 13.1618 4.06667 13.7142 4.06667H15.8094C16.3618 4.06667 16.8094 4.51421 16.8094 5.06641V5.06993V5.07346V5.07699V5.08051V5.08405V5.08758V5.09112V5.09465V5.0982V5.10174V5.10529V5.10883V5.11239V5.11594V5.1195V5.12305V5.12661V5.13018V5.13374V5.13731V5.14088V5.14445V5.14803V5.15161V5.15519V5.15877V5.16235V5.16594V5.16953V5.17312V5.17671V5.18031V5.18391V5.18751V5.19111V5.19472V5.19832V5.20193V5.20554V5.20916V5.21277V5.21639V5.22001V5.22363V5.22726V5.23089V5.23451V5.23815V5.24178V5.24541V5.24905V5.25269V5.25633V5.25997V5.26362V5.26727V5.27092V5.27457V5.27822V5.28188V5.28554V5.2892V5.29286V5.29652V5.30019V5.30386V5.30753V5.3112V5.31487V5.31855V5.32222V5.3259V5.32958V5.33327V5.33695V5.34064V5.34433V5.34802V5.35171V5.3554V5.3591V5.3628V5.3665V5.3702V5.3739V5.37761V5.38131V5.38502V5.38873V5.39244V5.39616V5.39987V5.40359V5.40731V5.41103V5.41475V5.41848V5.4222V5.42593V5.42966V5.43339V5.43712V5.44086V5.44459V5.44833V5.45207V5.45581V5.45955V5.46329V5.46704V5.47078V5.47453V5.47828V5.48203V5.48579V5.48954V5.4933V5.49705V5.50081V5.50457V5.50833V5.5121V5.51586V5.51963V5.52339V5.52716V5.53093V5.53471V5.53848V5.54225V5.54603V5.54981V5.55358V5.55736V5.56115V5.56493V5.56871V5.5725V5.57628V5.58007V5.58386V5.58765V5.59144V5.59523V5.59903V5.60282V5.60662V5.61042V5.61422V5.61802V5.62182V5.62562V5.62942V5.63323V5.63703V5.64084V5.64465V5.64846V5.65227V5.65608V5.65989V5.66371V5.66752V5.67134V5.67515V5.67897V5.68279V5.68661V5.69043V5.69426V5.69808V5.7019V5.70573V5.70955V5.71338V5.71721V5.72104V5.72487V5.7287V5.73253V5.73636V5.7402V5.74403V5.74787V5.7517V5.75554V5.75938V5.76322V5.76706V5.7709V5.77474V5.77858V5.78242V5.78627V5.79011V5.79396V5.7978V5.80165V5.8055V5.80935V5.8132V5.81705V5.8209V5.82475V5.8286V5.83245V5.83631V5.84016V5.84402V5.84787V5.85173V5.85558V5.85944V5.8633V5.86716V5.87102V5.87488V5.87874V5.8826V5.88646V5.89032V5.89418V5.89805V5.90191V5.90577V5.90964V5.9135V5.91737V5.92124V5.9251V5.92897V5.93284V5.93671V5.94057V5.94444V5.94831V5.95218V5.95605V5.95992V5.96379V5.96766V5.97153V5.97541V5.97928V5.98315V5.98702V5.9909V5.99477V5.99865V6.00252V6.00639V6.01027V6.01414V6.01802V6.02189V6.02577V6.02965V6.03352V6.0374V6.04127V6.04515V6.04903V6.0529V6.05678V6.06066V6.06454V6.06841V6.07229V6.07617V6.08005V6.08393V6.0878V6.09168V6.09556V6.09944V6.10332V6.1072V6.11108V6.11495V6.11883V6.12271V6.12659V6.13047V6.13435V6.13823V6.1421V6.14598V6.14986V6.15374V6.15762V6.1615V6.16537V6.16925V6.17313V6.17701V6.18089V6.18476V6.18864V6.19252V6.19639V6.20027V6.20415V6.20802V6.2119V6.21578V6.21965V6.22353V6.2274V6.23128V6.23515V6.23903V6.2429V6.24678V6.25065V6.25452V6.2584V6.26227V6.26614V6.27002V6.27389V6.27776V6.28163V6.2855V6.28937V6.29324V6.29711V6.30098V6.30485V6.30872V6.31258V6.31645V6.32032V6.32419V6.32805V6.33192V6.33578V6.33965V6.34351V6.34738V6.35124V6.3551V6.35896V6.36282V6.36668V6.37055V6.3744V6.37826V6.38212V6.38598V6.38984V6.39369V6.39755V6.40141V6.40526V6.40911V6.41297V6.41682V6.42067V6.42452V6.42837V6.43222V6.43607V6.43992V6.44377V6.44762V6.45146V6.45531V6.45915V6.463V6.46684V6.47068V6.47452V6.47836V6.4822V6.48604V6.48988V6.49372V6.49755V6.50139V6.50522V6.50906V6.51289V6.51672V6.52055V6.52438V6.52821V6.53204V6.53587V6.53969V6.54352V6.54734V6.55117V6.55499V6.55881V6.56263V6.56645V6.57027V6.57408V6.5779V6.58171V6.58553V6.58934V6.59315V6.59696V6.60077V6.60458V6.60839V6.61219V6.616V6.6198V6.6236V6.6274V6.6312V6.635V6.6388V6.6426V6.64639V6.65019V6.65398V6.65777V6.66156V6.66535V6.66914V6.67292V6.67671V6.68049V6.68428V6.68806V6.69184V6.69561V6.69939V6.70317V6.70694V6.71071V6.71449V6.71826V6.72203V6.72579V6.72956V6.73332V6.73709V6.74085V6.74461V6.74837V6.75212V6.75588V6.75963V6.76339V6.76714V6.77089V6.77463V6.77838V6.78213V6.78587V6.78961V6.79335V6.79709V6.80083V6.80456V6.8083V6.81203V6.81576V6.81949V6.82322V6.82694V6.83067V6.83439V6.83811V6.84183V6.84554V6.84926V6.85297V6.85669V6.8604V6.8641V6.86781V6.87152V6.87522V6.87892V6.88262V6.88632V6.89001V6.89371V6.8974V6.90109V6.90478V6.90847V6.91215V6.91583V6.91952V6.92319V6.92687V6.93055V6.93422V6.93789V6.94156V6.94523V6.9489V6.95256V6.95622V6.95988V6.96354V6.96719V6.97085V6.9745V6.97815V6.9818V6.98544V6.98909V6.99273V6.99637V7C16.8094 8.04002 16.2824 8.77274 15.7318 9.25835C15.4565 9.5012 15.1799 9.67753 14.972 9.79297C14.8887 9.83921 14.8171 9.87534 14.7618 9.90178C14.7065 9.87534 14.6349 9.83921 14.5516 9.79297C14.3437 9.67753 14.0672 9.5012 13.7918 9.25835C13.2413 8.77274 12.7142 8.04002 12.7142 7Z" fill="#FFD033" stroke="white" stroke-width="0.666667"/>
<mask id="mask1_3245_60740" style="mask-type:luminance" maskUnits="userSpaceOnUse" x="12" y="3" width="6" height="8">
<path d="M12.7142 7V6.94156V6.88262V6.82322V6.76339V6.70317V6.6426V6.58171V6.52055V6.45915V6.39755V6.33578V6.27389V6.2119V6.14986V6.1421V6.13823V6.13435V6.11883V6.11495V6.11108V6.1072V6.10332V6.09944V6.09556V6.09168V6.0878V6.08393V6.08005V6.07617V6.07229V6.06841V6.06454V6.06066V6.05678V6.0529V6.04903V6.04515V6.04127V6.0374V6.03352V6.02965V6.02577V6.02189V6.01802V6.01414V6.01027V6.00639V6.00252V5.99865V5.99477V5.9909V5.98702V5.98315V5.97928V5.97541V5.97153V5.96766V5.96379V5.95992V5.95605V5.95218V5.94831V5.94444V5.94057V5.9367V5.93284V5.92897V5.9251V5.92124V5.91737V5.9135V5.90964V5.90577V5.90191V5.89805V5.89418V5.89032V5.88646V5.8826V5.87874V5.87488V5.87102V5.86716V5.8633V5.85944V5.85558V5.85173V5.84787V5.84402V5.84016V5.83631V5.83245V5.8286V5.82475V5.8209V5.81705V5.8132V5.80935V5.8055V5.80165V5.7978V5.79396V5.79011V5.78627V5.78242V5.77858V5.77474V5.7709V5.76706V5.76322V5.75938V5.75554V5.7517V5.74787V5.74403V5.7402V5.73636V5.73253V5.7287V5.72487V5.72104V5.71721V5.71338V5.70955V5.70573V5.7019V5.69808V5.69426V5.69043V5.68661V5.68279V5.67897V5.67515V5.67134V5.66752V5.66371V5.65989V5.65608V5.65227V5.64846V5.64465V5.64084V5.63703V5.63323V5.62942V5.62562V5.62182V5.61802V5.61422V5.61042V5.60662V5.60282V5.59903V5.59523V5.59144V5.58765V5.58386V5.58007V5.57628V5.5725V5.56871V5.56493V5.56114V5.55736V5.55358V5.54981V5.54603V5.54225V5.53848V5.53471V5.53093V5.52716V5.51963V5.50457V5.47453V5.41475V5.3554V5.29652V5.23814V5.18031V5.12305V5.06641C12.7142 4.51421 13.1618 4.06667 13.7142 4.06667H15.8094C16.3618 4.06667 16.8094 4.51421 16.8094 5.06641V5.06993V5.07346V5.07699V5.08051V5.08405V5.08758V5.09112V5.09465V5.0982V5.10174V5.10529V5.10883V5.11239V5.11594V5.1195V5.12305V5.12661V5.13018V5.13374V5.13731V5.14088V5.14445V5.14803V5.15161V5.15519V5.15877V5.16235V5.16594V5.16953V5.17312V5.17671V5.18031V5.18391V5.18751V5.19111V5.19472V5.19832V5.20193V5.20554V5.20916V5.21277V5.21639V5.22001V5.22363V5.22726V5.23089V5.23451V5.23815V5.24178V5.24541V5.24905V5.25269V5.25633V5.25997V5.26362V5.26727V5.27092V5.27457V5.27822V5.28188V5.28554V5.2892V5.29286V5.29652V5.30019V5.30386V5.30753V5.3112V5.31487V5.31855V5.32222V5.3259V5.32958V5.33327V5.33695V5.34064V5.34433V5.34802V5.35171V5.3554V5.3591V5.3628V5.3665V5.3702V5.3739V5.37761V5.38131V5.38502V5.38873V5.39244V5.39616V5.39987V5.40359V5.40731V5.41103V5.41475V5.41848V5.4222V5.42593V5.42966V5.43339V5.43712V5.44086V5.44459V5.44833V5.45207V5.45581V5.45955V5.46329V5.46704V5.47078V5.47453V5.47828V5.48203V5.48579V5.48954V5.4933V5.49705V5.50081V5.50457V5.50833V5.5121V5.51586V5.51963V5.52339V5.52716V5.53093V5.53471V5.53848V5.54225V5.54603V5.54981V5.55358V5.55736V5.56115V5.56493V5.56871V5.5725V5.57628V5.58007V5.58386V5.58765V5.59144V5.59523V5.59903V5.60282V5.60662V5.61042V5.61422V5.61802V5.62182V5.62562V5.62942V5.63323V5.63703V5.64084V5.64465V5.64846V5.65227V5.65608V5.65989V5.66371V5.66752V5.67134V5.67515V5.67897V5.68279V5.68661V5.69043V5.69426V5.69808V5.7019V5.70573V5.70955V5.71338V5.71721V5.72104V5.72487V5.7287V5.73253V5.73636V5.7402V5.74403V5.74787V5.7517V5.75554V5.75938V5.76322V5.76706V5.7709V5.77474V5.77858V5.78242V5.78627V5.79011V5.79396V5.7978V5.80165V5.8055V5.80935V5.8132V5.81705V5.8209V5.82475V5.8286V5.83245V5.83631V5.84016V5.84402V5.84787V5.85173V5.85558V5.85944V5.8633V5.86716V5.87102V5.87488V5.87874V5.8826V5.88646V5.89032V5.89418V5.89805V5.90191V5.90577V5.90964V5.9135V5.91737V5.92124V5.9251V5.92897V5.93284V5.93671V5.94057V5.94444V5.94831V5.95218V5.95605V5.95992V5.96379V5.96766V5.97153V5.97541V5.97928V5.98315V5.98702V5.9909V5.99477V5.99865V6.00252V6.00639V6.01027V6.01414V6.01802V6.02189V6.02577V6.02965V6.03352V6.0374V6.04127V6.04515V6.04903V6.0529V6.05678V6.06066V6.06454V6.06841V6.07229V6.07617V6.08005V6.08393V6.0878V6.09168V6.09556V6.09944V6.10332V6.1072V6.11108V6.11495V6.11883V6.12271V6.12659V6.13047V6.13435V6.13823V6.1421V6.14598V6.14986V6.15374V6.15762V6.1615V6.16537V6.16925V6.17313V6.17701V6.18089V6.18476V6.18864V6.19252V6.19639V6.20027V6.20415V6.20802V6.2119V6.21578V6.21965V6.22353V6.2274V6.23128V6.23515V6.23903V6.2429V6.24678V6.25065V6.25452V6.2584V6.26227V6.26614V6.27002V6.27389V6.27776V6.28163V6.2855V6.28937V6.29324V6.29711V6.30098V6.30485V6.30872V6.31258V6.31645V6.32032V6.32419V6.32805V6.33192V6.33578V6.33965V6.34351V6.34738V6.35124V6.3551V6.35896V6.36282V6.36668V6.37055V6.3744V6.37826V6.38212V6.38598V6.38984V6.39369V6.39755V6.40141V6.40526V6.40911V6.41297V6.41682V6.42067V6.42452V6.42837V6.43222V6.43607V6.43992V6.44377V6.44762V6.45146V6.45531V6.45915V6.463V6.46684V6.47068V6.47452V6.47836V6.4822V6.48604V6.48988V6.49372V6.49755V6.50139V6.50522V6.50906V6.51289V6.51672V6.52055V6.52438V6.52821V6.53204V6.53587V6.53969V6.54352V6.54734V6.55117V6.55499V6.55881V6.56263V6.56645V6.57027V6.57408V6.5779V6.58171V6.58553V6.58934V6.59315V6.59696V6.60077V6.60458V6.60839V6.61219V6.616V6.6198V6.6236V6.6274V6.6312V6.635V6.6388V6.6426V6.64639V6.65019V6.65398V6.65777V6.66156V6.66535V6.66914V6.67292V6.67671V6.68049V6.68428V6.68806V6.69184V6.69561V6.69939V6.70317V6.70694V6.71071V6.71449V6.71826V6.72203V6.72579V6.72956V6.73332V6.73709V6.74085V6.74461V6.74837V6.75212V6.75588V6.75963V6.76339V6.76714V6.77089V6.77463V6.77838V6.78213V6.78587V6.78961V6.79335V6.79709V6.80083V6.80456V6.8083V6.81203V6.81576V6.81949V6.82322V6.82694V6.83067V6.83439V6.83811V6.84183V6.84554V6.84926V6.85297V6.85669V6.8604V6.8641V6.86781V6.87152V6.87522V6.87892V6.88262V6.88632V6.89001V6.89371V6.8974V6.90109V6.90478V6.90847V6.91215V6.91583V6.91952V6.92319V6.92687V6.93055V6.93422V6.93789V6.94156V6.94523V6.9489V6.95256V6.95622V6.95988V6.96354V6.96719V6.97085V6.9745V6.97815V6.9818V6.98544V6.98909V6.99273V6.99637V7C16.8094 8.04002 16.2824 8.77274 15.7318 9.25835C15.4565 9.5012 15.1799 9.67753 14.972 9.79297C14.8887 9.83921 14.8171 9.87534 14.7618 9.90178C14.7065 9.87534 14.6349 9.83921 14.5516 9.79297C14.3437 9.67753 14.0672 9.5012 13.7918 9.25835C13.2413 8.77274 12.7142 8.04002 12.7142 7Z" fill="white" stroke="white" stroke-width="0.666667"/>
</mask>
<g mask="url(#mask1_3245_60740)">
<path fill-rule="evenodd" clip-rule="evenodd" d="M15.7142 6.53335C15.9772 6.53335 16.1904 6.11549 16.1904 5.60002C16.1904 5.08455 15.9772 4.66669 15.7142 4.66669C15.4512 4.66669 15.238 5.08455 15.238 5.60002C15.238 6.11549 15.4512 6.53335 15.7142 6.53335Z" fill="#BA5B1F"/>
<path fill-rule="evenodd" clip-rule="evenodd" d="M13.9559 6.50519C14.203 6.41704 14.2575 5.95291 14.0776 5.46853C13.8977 4.98415 13.5515 4.66295 13.3044 4.7511C13.0573 4.83925 13.0028 5.30337 13.1827 5.78775C13.3626 6.27213 13.7087 6.59334 13.9559 6.50519Z" fill="#FF9F3E"/>
<path fill-rule="evenodd" clip-rule="evenodd" d="M13.6083 6.48964C13.8466 6.59857 14.2201 6.30815 14.4423 5.84098C14.6646 5.37381 14.6516 4.90679 14.4133 4.79787C14.1749 4.68895 13.8015 4.97936 13.5792 5.44653C13.3569 5.9137 13.3699 6.38072 13.6083 6.48964Z" fill="#FF937F"/>
<path fill-rule="evenodd" clip-rule="evenodd" d="M14.2856 7.46666L14.7618 6.53333L15.238 7.46666V8.39999H14.2856V7.46666Z" fill="#01A827"/>
</g>
<path d="M-0.915074 -0.333333H0H0.47619H0.581265L0.667345 -0.273077L3.9146 2H4.66793L8.39732 -0.284251L8.90476 -0.595057V0V0.293115C8.90476 0.510658 8.79862 0.714517 8.6204 0.839269L5.57143 2.97355V3.578L8.45876 6.00336C8.80818 6.29688 8.60063 6.86667 8.14428 6.86667C8.04397 6.86667 7.94608 6.83581 7.8639 6.77828M-0.915074 -0.333333L7.8639 6.77828M-0.915074 -0.333333L-0.214397 0.255235L3 2.95533V3.55978L-0.191154 5.79359L-0.333333 5.89311V6.06667V6.53333V7.12839L0.174104 6.81758L3.90349 4.53333H4.65683L7.8639 6.77828M-0.915074 -0.333333L7.8639 6.77828" fill="#DB1E36" stroke="white" stroke-width="0.666667"/>
<path fill-rule="evenodd" clip-rule="evenodd" d="M0 2.33333V4.2H3.33333V6.33333C3.33333 6.70152 3.63181 7 4 7H4.57143C4.93962 7 5.23809 6.70152 5.23809 6.33333V4.2H8.38095C8.74914 4.2 9.04762 3.90152 9.04762 3.53333V3C9.04762 2.63181 8.74914 2.33333 8.38095 2.33333H5.23809V0H3.33333V2.33333H0Z" fill="white"/>
<path fill-rule="evenodd" clip-rule="evenodd" d="M0 2.8H3.80952V2.33333V0H4.7619V2.33333V2.8H8.57143V3.73333H4.7619V4.2V6.53333H3.80952V4.2V3.73333H0V2.8Z" fill="#DB1E36"/>
</g>
</svg>
