<svg width="20" height="14" viewBox="0 0 20 14" fill="none" xmlns="http://www.w3.org/2000/svg">
<rect width="20" height="14" rx="2" fill="white"/>
<mask id="mask0_3245_60784" style="mask-type:luminance" maskUnits="userSpaceOnUse" x="0" y="0" width="20" height="14">
<rect width="20" height="14" rx="2" fill="white"/>
</mask>
<g mask="url(#mask0_3245_60784)">
<rect width="20" height="14" fill="#E6BE53"/>
<path fill-rule="evenodd" clip-rule="evenodd" d="M0.952393 12.0667C0.952393 12.619 1.40011 13.0667 1.95239 13.0667H18.0476C18.5999 13.0667 19.0476 12.619 19.0476 12.0667V1.93335C19.0476 1.38107 18.5999 0.93335 18.0476 0.93335H1.95239C1.40011 0.93335 0.952393 1.38106 0.952393 1.93335V12.0667Z" fill="#E01826"/>
<path fill-rule="evenodd" clip-rule="evenodd" d="M9.58718 2.46821C9.1245 2.61935 8.98696 3.20732 9.3346 3.54801C9.45584 3.66682 9.61883 3.73337 9.78859 3.73337H10.2113C10.3811 3.73337 10.544 3.66682 10.6653 3.54801C11.0129 3.20732 10.8754 2.61935 10.4127 2.46821L10.207 2.401C10.0724 2.35706 9.92744 2.35706 9.79293 2.401L9.58718 2.46821ZM10.4666 4.67609C10.2073 4.93012 9.79254 4.93012 9.53332 4.67609L9.52375 4.66671L8.82385 3.9808C8.67253 3.83251 8.44418 3.7957 8.25393 3.88892L8.21771 3.90667C7.92552 4.04984 7.86279 4.43896 8.09518 4.66671L8.69774 5.25721C8.90588 5.4612 8.95741 5.77674 8.82496 6.03634L8.59902 6.47919C8.58085 6.5148 8.57137 6.55422 8.57137 6.5942C8.57137 6.78145 8.37508 6.90386 8.20693 6.82147L7.96678 6.70379C7.79705 6.62062 7.76061 6.39459 7.8956 6.26229C8.00517 6.15492 8.00517 5.97849 7.8956 5.87112L7.68468 5.66442C7.64117 5.62178 7.60487 5.57237 7.57719 5.51811L7.17657 4.7329C7.15413 4.68891 7.13664 4.64256 7.12443 4.59471L7.00645 4.13221C6.8688 3.59264 6.16948 3.44962 5.83105 3.89184L5.37529 4.48737C5.28627 4.60368 5.23804 4.74607 5.23804 4.89254V6.37313C5.23804 6.47846 5.26299 6.58229 5.31086 6.67611L5.66475 7.36974C5.69752 7.43396 5.74049 7.49244 5.79198 7.5429L6.58985 8.32481C6.64069 8.37464 6.69919 8.41601 6.76312 8.44733L7.57537 8.84533C7.60407 8.8594 7.63561 8.86671 7.66757 8.86671C7.88958 8.86671 7.95913 9.1667 7.75976 9.26439L7.6533 9.31656C7.63057 9.3277 7.60978 9.3424 7.5917 9.36012L7.38089 9.56671C7.24863 9.69633 7.03697 9.69633 6.9047 9.56671C6.77244 9.43708 6.56078 9.43708 6.42851 9.56671L6.39445 9.60009C6.27305 9.71906 6.243 9.9031 6.32025 10.0545L6.48105 10.3697C6.59493 10.5929 6.82433 10.7334 7.0749 10.7334H7.46444C7.56612 10.7334 7.66646 10.7101 7.75778 10.6654L8.3863 10.3574C8.50643 10.2985 8.60424 10.2023 8.66504 10.0831L8.85986 9.70126C8.95293 9.51884 9.19627 9.47911 9.34253 9.62245C9.44743 9.72524 9.46364 9.8884 9.38104 10.0098L8.95341 10.6384C8.74358 10.9469 8.82768 11.3675 9.13999 11.5715L9.63531 11.8951C9.85685 12.0399 10.143 12.0399 10.3646 11.8951L10.8599 11.5715C11.1722 11.3675 11.2563 10.9469 11.0465 10.6384L10.6188 10.0098C10.5362 9.8884 10.5525 9.72524 10.6574 9.62245C10.8036 9.47911 11.047 9.51884 11.14 9.70126L11.3348 10.0831C11.3956 10.2023 11.4935 10.2985 11.6136 10.3574L12.2421 10.6654C12.3334 10.7101 12.4338 10.7334 12.5355 10.7334H12.925C13.1756 10.7334 13.405 10.5929 13.5188 10.3697L13.6796 10.0545C13.7569 9.9031 13.7268 9.71906 13.6054 9.60009L13.5714 9.56671C13.4391 9.43708 13.2274 9.43708 13.0952 9.56671C12.9629 9.69633 12.7513 9.69633 12.619 9.56671L12.4082 9.36012C12.3901 9.3424 12.3693 9.3277 12.3466 9.31656L12.2401 9.26439C12.0408 9.1667 12.1103 8.86671 12.3323 8.86671C12.3643 8.86671 12.3958 8.8594 12.4245 8.84533L13.2368 8.44733C13.3007 8.41601 13.3592 8.37464 13.41 8.32481L14.2079 7.5429C14.2594 7.49244 14.3024 7.43396 14.3351 7.36974L14.689 6.67611C14.7369 6.58229 14.7618 6.47846 14.7618 6.37313V4.89254C14.7618 4.74607 14.7136 4.60368 14.6246 4.48737L14.1688 3.89184C13.8304 3.44962 13.1311 3.59264 12.9934 4.13221L12.8755 4.59471C12.8632 4.64256 12.8458 4.68891 12.8233 4.7329L12.4227 5.51811C12.395 5.57237 12.3587 5.62178 12.3152 5.66442L12.1043 5.87112C11.9947 5.97849 11.9947 6.15492 12.1043 6.26229C12.2393 6.39459 12.2028 6.62062 12.0331 6.70379L11.793 6.82147C11.6248 6.90386 11.4285 6.78145 11.4285 6.5942C11.4285 6.55422 11.419 6.5148 11.4009 6.47919L11.1749 6.03634C11.0425 5.77674 11.094 5.4612 11.3021 5.25721L11.9047 4.66671C12.1371 4.43896 12.0744 4.04984 11.7822 3.90667L11.746 3.88892C11.5557 3.7957 11.3274 3.83251 11.176 3.9808L10.4761 4.66671L10.4666 4.67609Z" fill="#E6BE53"/>
<path fill-rule="evenodd" clip-rule="evenodd" d="M9.04761 7.93333C9.04761 8.10792 9.34052 8.16679 9.42676 8.01498C9.59308 7.72223 9.79653 7.46666 9.99999 7.46666C10.2034 7.46666 10.4069 7.72223 10.5732 8.01498C10.6595 8.16679 10.9524 8.10792 10.9524 7.93333C10.9524 7.16013 10.526 6.53333 9.99999 6.53333C9.474 6.53333 9.04761 7.16013 9.04761 7.93333Z" fill="#215F90"/>
</g>
</svg>
