<svg width="20" height="14" viewBox="0 0 20 14" fill="none" xmlns="http://www.w3.org/2000/svg">
<rect width="20" height="14" rx="2" fill="#009F60"/>
<mask id="mask0_3245_60841" style="mask-type:luminance" maskUnits="userSpaceOnUse" x="0" y="0" width="20" height="14">
<rect width="20" height="14" rx="2" fill="white"/>
</mask>
<g mask="url(#mask0_3245_60841)">
<rect x="17.1428" y="7.46667" width="2.85714" height="6.53333" fill="#EA8B42"/>
<path fill-rule="evenodd" clip-rule="evenodd" d="M14.2856 14H17.1428V7.46667H14.2856V14Z" fill="#1A1919"/>
<path fill-rule="evenodd" clip-rule="evenodd" d="M11.4285 14H14.2856V7.46667H11.4285V14Z" fill="#DB3C36"/>
<path fill-rule="evenodd" clip-rule="evenodd" d="M15.0101 2.43885C14.9445 2.44066 14.8962 2.41838 14.879 2.38092C14.986 2.31938 15.0583 2.33311 15.1481 2.41151C15.1654 2.35021 15.1481 2.28193 15.1101 2.24098C15.0722 2.20004 15.0411 2.20004 14.9894 2.19654C14.9376 2.19317 14.8858 2.17956 14.8513 2.17956C14.8007 2.07033 14.674 2.11658 14.5523 2.16138C14.3544 2.23412 14.1766 2.36623 14.0968 2.4981C14.0603 2.55844 14.0559 2.58216 14.0334 2.61636C14.0519 2.61407 14.0507 2.61407 14.0622 2.60721C14.0484 2.75739 14.03 2.89612 14.0576 2.98488C14.0232 3.11458 14.0507 3.19647 14.0921 3.23742C14.1336 3.27837 14.1508 3.29547 14.1577 3.34328C14.1646 3.39097 14.1853 3.43529 14.2198 3.46262C14.2543 3.48996 14.275 3.53091 14.2785 3.55487C14.2819 3.57872 14.3887 3.68157 14.4337 3.70842C14.451 3.71854 14.4544 3.73913 14.4752 3.76635C14.4303 4.02576 14.6098 4.28516 14.5683 4.54108C14.5994 4.54445 14.6408 4.54108 14.6823 4.53084C14.7167 4.74918 14.7374 4.85504 14.5442 4.91983C14.351 4.98474 14.2453 5.04857 14.2992 5.12119C14.3371 5.17237 14.4157 5.12781 14.4648 5.08361C14.5028 5.04953 14.5476 5.01882 14.5821 5.00859C14.6167 4.99835 14.6237 5.00859 14.6063 5.0529C14.589 5.09734 14.4959 5.19284 14.4924 5.24065C14.489 5.28847 14.5303 5.32255 14.596 5.28497C14.6615 5.2474 14.7192 5.14913 14.734 5.09048C14.7443 5.04953 14.7617 5.02219 14.7581 5.09048C14.7547 5.15876 14.7133 5.2816 14.8065 5.30207C14.8997 5.32255 14.9273 5.21332 14.8962 5.11432C14.8651 5.01545 14.8548 4.96078 14.8686 4.92669C14.8824 4.89249 14.8962 4.87214 14.9306 4.88225C14.9652 4.89249 15.0342 4.87888 15.0308 4.82433C15.0272 4.76977 14.979 4.72533 14.9238 4.75604C14.8686 4.78675 14.8272 4.78218 14.8513 4.7151C14.8686 4.66729 14.8997 4.60924 14.9031 4.57179C14.941 4.62634 15.155 4.63321 15.2413 4.58202C15.262 4.68439 15.3172 4.77652 15.1965 4.87214C15.0756 4.96764 14.979 5.05977 14.9824 5.12805C14.986 5.19634 15.0135 5.23716 15.0756 5.20308C15.1377 5.169 15.1757 5.12119 15.1895 5.07687C15.2033 5.03243 15.231 5.03243 15.2172 5.08711C15.2033 5.14166 15.1792 5.22018 15.1895 5.26799C15.1999 5.31568 15.2758 5.31918 15.3068 5.27474C15.3379 5.23042 15.3309 5.17237 15.3241 5.11432C15.3172 5.05628 15.3276 4.99498 15.3413 4.97101C15.3552 4.94717 15.3827 4.91296 15.4104 4.97788C15.4381 5.04267 15.4518 5.09385 15.507 5.11095C15.5622 5.12805 15.6036 5.10409 15.5933 5.0393C15.5829 4.9745 15.5104 4.90273 15.4381 4.84817C15.3656 4.79362 15.3897 4.76628 15.3931 4.7151C15.3966 4.66391 15.3863 4.57179 15.3827 4.53084C15.4483 4.57865 15.5208 4.57179 15.5552 4.57179C15.5898 4.57179 15.6465 4.56131 15.5898 4.51037C15.4759 4.408 15.5139 4.34646 15.4345 4.27143C15.3552 4.19641 15.2827 4.08031 15.2586 3.98144C15.2343 3.88244 15.1812 3.70156 15.0756 3.60943C15.017 3.55825 14.9997 3.41831 15.0135 3.25789C15.0272 3.09748 15.0308 2.92009 14.8824 2.83819C14.734 2.7563 14.7374 2.68802 14.7858 2.61636C14.834 2.54471 14.8961 2.47462 14.9756 2.46956C14.9934 2.46847 15.0347 2.4651 15.0515 2.45306C15.044 2.4474 15.0319 2.43837 15.0101 2.43885Z" fill="#EA8B42"/>
<path fill-rule="evenodd" clip-rule="evenodd" d="M14.0449 2.80748C14.0412 2.87684 14.0429 2.9379 14.0575 2.98487C14.0231 3.11457 14.0506 3.19646 14.092 3.23741C14.1335 3.27836 14.1507 3.29546 14.1576 3.34327C14.1645 3.39096 14.1852 3.43528 14.2197 3.46262C14.2543 3.48995 14.2749 3.5309 14.2784 3.55486C14.2818 3.57871 14.3886 3.68156 14.4336 3.70841C14.4509 3.71853 14.4543 3.73912 14.4752 3.76634C14.4564 3.87412 14.4761 3.98191 14.5031 4.08945C14.2592 4.28961 14.0184 4.19519 14.1197 3.99046C13.9172 4.14967 13.5676 4.14521 13.6458 3.99046C13.3283 4.09969 13.2317 4.00865 13.2731 3.90857C13.0063 4.01322 12.8681 3.91314 12.905 3.84028C12.6841 3.89941 12.5414 3.86304 12.5184 3.82668C12.4955 3.79031 12.5506 3.70841 12.6013 3.66747C12.5001 3.70384 12.4034 3.70384 12.3114 3.69023C12.2194 3.6765 12.2424 3.64916 12.2608 3.60821C12.2793 3.56727 12.3034 3.50248 12.377 3.43877C12.201 3.47285 11.9801 3.49682 11.8249 3.44551C11.7956 3.43588 11.7455 3.42504 11.7765 3.39445C11.8076 3.36374 11.9008 3.28859 12.0147 3.24078C11.7558 3.27836 11.2658 3.30569 11.1278 3.15215C11.2623 3.17936 11.4349 3.12481 11.5453 3.08049C11.1105 3.03268 10.517 2.73919 10.51 2.45257C10.6343 2.65043 10.8483 2.71872 11.0623 2.78014C10.7723 2.61286 10.6516 2.4115 10.6413 2.27843C10.8068 2.43547 11.0587 2.61286 11.3073 2.65393C11.1312 2.5618 10.9034 2.29215 10.8414 2.1044C10.9691 2.21701 11.2969 2.39789 11.5212 2.45594C11.3659 2.33647 11.1141 2.05322 11.1278 1.8963C11.1864 1.95435 11.3314 2.06346 11.6281 2.23411C11.9249 2.40476 12.0859 2.39223 12.3309 2.44342C12.2861 2.38428 12.2458 2.30576 12.2424 2.28529C12.3149 2.29553 12.3838 2.32286 12.5909 2.44908C12.798 2.57541 13.2504 2.61406 13.5089 2.72558C13.6986 2.80748 13.9689 2.75629 14.0449 2.80748Z" fill="#EA8B42"/>
<path fill-rule="evenodd" clip-rule="evenodd" d="M15.6068 4.56007C15.6182 4.55116 15.6182 4.53574 15.5898 4.51033C15.4759 4.40797 15.5139 4.34643 15.4345 4.2714C15.3552 4.19637 15.2827 4.08028 15.2586 3.9814C15.2343 3.88241 15.1812 3.70153 15.0756 3.6094C15.017 3.55821 14.9997 3.41827 15.0135 3.25786C15.0253 3.12057 15.0296 2.97088 14.9375 2.87923C15.11 2.83142 15.269 2.82106 15.3241 2.87562C15.6105 2.80396 15.8591 2.78228 16.1028 2.76651C16.3835 2.7482 16.9126 2.62994 17.29 2.37968C17.267 2.47073 17.1382 2.60718 17.0231 2.67546C17.405 2.58442 17.8651 2.41605 18.2562 2.12943C18.2516 2.32971 18.086 2.47976 17.9893 2.56177C18.2562 2.41605 18.6472 2.23408 18.7807 2.00659C18.8393 2.23974 18.4403 2.54467 18.2239 2.71303C18.4448 2.60838 18.7301 2.51168 18.8406 2.35692C18.8382 2.54576 18.5875 2.78011 18.3482 2.91656C18.5921 2.82564 18.8636 2.73002 19.02 2.58899C19.0383 2.77903 18.2906 3.21583 17.9202 3.33518C18.2424 3.25786 18.6611 3.15321 18.8451 3.04398C18.8359 3.08263 18.7608 3.13683 18.7062 3.17633C18.4812 3.33939 18.136 3.42694 17.9249 3.46717C17.9526 3.58097 17.9157 3.64468 17.7869 3.65371C17.6581 3.66287 17.3463 3.61397 17.1899 3.53654C17.1669 3.55014 17.1393 3.55484 17.1082 3.55821C17.26 3.67082 17.3118 3.75271 17.2807 3.80052C17.2497 3.84833 17.141 3.83966 17.0582 3.82268C17.1237 4.00356 16.9045 3.99164 16.7217 3.88916C16.7942 3.9814 16.8046 4.0598 16.7044 4.08028C16.6044 4.10075 16.5249 4.09401 16.4283 4.03247C16.4215 4.10075 16.3547 4.14627 16.2662 4.12351C16.5699 4.3044 16.5526 4.37039 16.5008 4.43856C16.4491 4.50684 16.2679 4.49323 16.1713 4.43181C16.1299 4.57175 15.9648 4.57223 15.8417 4.46084C15.8406 4.5166 15.723 4.62727 15.6068 4.56007Z" fill="#EA8B42"/>
<path fill-rule="evenodd" clip-rule="evenodd" d="M14.1979 5.24629C14.2029 5.20318 14.2071 5.15308 14.2438 5.12116C14.2807 5.08925 14.3037 5.06203 14.3359 5.09383C14.3681 5.12574 14.3474 5.15537 14.3037 5.16898C14.26 5.18258 14.2301 5.22124 14.2231 5.24629C14.2162 5.27134 14.1932 5.28495 14.1979 5.24629Z" fill="black"/>
<path fill-rule="evenodd" clip-rule="evenodd" d="M14.4486 5.45563C14.4258 5.3841 14.4372 5.29185 14.4624 5.26451C14.4877 5.23717 14.5199 5.21898 14.5498 5.24632C14.5797 5.27366 14.5912 5.31232 14.536 5.33508C14.4871 5.35519 14.4831 5.40553 14.4809 5.44202C14.4786 5.47839 14.4624 5.49887 14.4486 5.45563Z" fill="black"/>
<path fill-rule="evenodd" clip-rule="evenodd" d="M14.7708 5.27138C14.7531 5.30064 14.7754 5.41927 14.8352 5.44877C14.8776 5.46973 14.8973 5.46479 14.872 5.42601C14.8467 5.38735 14.8559 5.35098 14.8698 5.33051C14.8835 5.31003 14.8813 5.27366 14.8513 5.25548C14.8214 5.23717 14.7845 5.24862 14.7708 5.27138Z" fill="black"/>
<path fill-rule="evenodd" clip-rule="evenodd" d="M15.0306 5.16443C14.9927 5.13625 14.957 5.17009 14.9432 5.19393C14.9155 5.24174 14.9363 5.31003 14.98 5.34869C15.0238 5.38734 15.0168 5.33508 15.0029 5.31232C14.9892 5.28955 14.9869 5.24403 15.0168 5.23946C15.0467 5.235 15.0675 5.19164 15.0306 5.16443Z" fill="black"/>
<path fill-rule="evenodd" clip-rule="evenodd" d="M15.2469 5.24175C15.21 5.23104 15.1733 5.26909 15.1779 5.31461C15.1813 5.34858 15.1849 5.39193 15.2193 5.41469C15.2424 5.42987 15.2584 5.43974 15.2469 5.3988C15.2354 5.35785 15.2539 5.32365 15.2745 5.31233C15.2952 5.30101 15.286 5.2532 15.2469 5.24175Z" fill="black"/>
<path fill-rule="evenodd" clip-rule="evenodd" d="M15.553 5.04834C15.5262 5.06689 15.5277 5.10988 15.553 5.12578C15.5782 5.14167 15.6151 5.16444 15.6082 5.20309C15.6013 5.24175 15.622 5.25548 15.6404 5.21225C15.6588 5.16901 15.6611 5.1053 15.6404 5.07568C15.6196 5.04605 15.5759 5.03244 15.553 5.04834Z" fill="black"/>
<path fill-rule="evenodd" clip-rule="evenodd" d="M14.886 2.37783C14.902 2.41255 14.9479 2.43305 15.01 2.43134L15.01 2.43134C15.0298 2.4309 15.0417 2.43609 15.0561 2.45915C15.0409 2.47004 15.0123 2.47489 14.9761 2.47708C14.9102 2.48128 14.8526 2.53089 14.7922 2.62054C14.7379 2.70106 14.7569 2.76029 14.8862 2.83164C15.0147 2.90255 15.0411 3.02607 15.0212 3.25854C15.0067 3.42746 15.0277 3.55746 15.0808 3.60381C15.1687 3.68053 15.2253 3.81309 15.2661 3.9797C15.2894 4.07512 15.3598 4.19032 15.4399 4.26602C15.4587 4.28382 15.4722 4.30175 15.4829 4.32222C15.4891 4.334 15.4936 4.34463 15.5009 4.3637C15.5262 4.42955 15.5432 4.45826 15.595 4.50482C15.6237 4.53063 15.6293 4.55209 15.6116 4.56607C15.5999 4.57528 15.5788 4.57933 15.5553 4.57933L15.5426 4.5795C15.4869 4.5805 15.451 4.57602 15.4098 4.55588C15.4037 4.55291 15.3977 4.54964 15.3919 4.54605L15.3954 4.58402C15.3969 4.60092 15.3981 4.61592 15.3991 4.63019C15.4015 4.666 15.4022 4.69459 15.4008 4.71561C15.4003 4.72357 15.3994 4.7305 15.3977 4.74142C15.3944 4.7616 15.3938 4.76712 15.3944 4.7759C15.396 4.79741 15.4089 4.81672 15.4428 4.84221C15.5315 4.90907 15.5913 4.97815 15.601 5.03815C15.6117 5.10557 15.5685 5.13788 15.5048 5.11815C15.4658 5.10606 15.4457 5.08104 15.4225 5.02681L15.4034 4.9808C15.3921 4.95434 15.3819 4.94585 15.3729 4.94841C15.3651 4.9506 15.3565 4.96027 15.3481 4.97472C15.3339 4.99954 15.3256 5.06105 15.3317 5.11347L15.3318 5.11403C15.3423 5.20268 15.3405 5.24012 15.3132 5.27901C15.2786 5.32866 15.194 5.32418 15.1821 5.26956C15.1766 5.24427 15.1797 5.21084 15.1894 5.16648C15.1921 5.15427 15.1952 5.14162 15.1992 5.12607L15.2098 5.0853C15.2151 5.06427 15.2137 5.05247 15.2124 5.05223C15.2102 5.05183 15.2023 5.06172 15.1969 5.07909C15.1814 5.1287 15.1396 5.17665 15.0794 5.20967C15.016 5.24449 14.9791 5.20906 14.9749 5.12844C14.9716 5.0642 15.0443 4.98283 15.1918 4.86629C15.2204 4.84361 15.2396 4.82058 15.2511 4.79645C15.2717 4.75278 15.2687 4.71924 15.246 4.63355C15.2413 4.61592 15.2384 4.60442 15.236 4.59356C15.1488 4.63733 14.9664 4.63358 14.9084 4.58795C14.9044 4.60591 14.8959 4.62784 14.8788 4.66795L14.8787 4.66815C14.8679 4.69333 14.8633 4.70456 14.8586 4.71762C14.8483 4.74614 14.8505 4.76119 14.8607 4.76528C14.8718 4.76972 14.8936 4.76423 14.9201 4.74951C14.9771 4.71779 15.0343 4.75932 15.0385 4.82388C15.0419 4.87732 14.9782 4.90422 14.9285 4.88948C14.9027 4.88189 14.8909 4.89193 14.8758 4.92948C14.8636 4.95978 14.8714 5.00953 14.9036 5.11212C14.9396 5.2266 14.8987 5.33004 14.8049 5.30943C14.7475 5.29682 14.7325 5.25221 14.7405 5.17414C14.7415 5.16447 14.7427 5.15523 14.7447 5.14079C14.7491 5.10924 14.7499 5.10205 14.7505 5.09011C14.7511 5.07911 14.7511 5.07045 14.7507 5.06418C14.7478 5.07091 14.7443 5.08102 14.7415 5.09231C14.7238 5.16242 14.6609 5.25652 14.5999 5.29149C14.5344 5.32899 14.4806 5.29986 14.4848 5.24012C14.4865 5.21815 14.5025 5.19013 14.5354 5.14478L14.5445 5.13231C14.5863 5.07575 14.5932 5.06579 14.5992 5.05021C14.6144 5.01153 14.6121 5.00759 14.5844 5.01581C14.5533 5.02504 14.5103 5.05309 14.4701 5.08918C14.4019 5.15057 14.3296 5.17488 14.2931 5.12564C14.2641 5.08666 14.2761 5.04821 14.3244 5.01167C14.367 4.97951 14.4386 4.94739 14.5418 4.91272C14.7053 4.85788 14.7179 4.80511 14.6843 4.53815C14.6427 4.5484 14.6003 4.55212 14.5608 4.5399C14.5778 4.43552 14.5645 4.35162 14.514 4.15991C14.4623 3.96381 14.4487 3.87547 14.4692 3.77089C14.4638 3.76387 14.4593 3.75699 14.4547 3.749L14.4447 3.73153C14.4396 3.72288 14.4355 3.71817 14.4299 3.71487C14.3808 3.68565 14.2747 3.58182 14.271 3.55594C14.2672 3.52982 14.2446 3.49189 14.2151 3.4685C14.1804 3.441 14.1577 3.39618 14.1502 3.34436C14.1443 3.3039 14.1356 3.29091 14.0868 3.24274C14.0357 3.19223 14.0188 3.10139 14.0503 2.98709C14.0291 2.91856 14.031 2.85257 14.0509 2.64667L14.0534 2.62052C14.0511 2.6213 14.0487 2.62185 14.0454 2.62237L14.0345 2.62384L14.0271 2.6123C14.0317 2.60534 14.0356 2.59855 14.0396 2.59111L14.0461 2.57829L14.0461 2.57812C14.0461 2.57831 14.046 2.57836 14.0461 2.57829C14.0465 2.57725 14.0588 2.55169 14.0632 2.54302C14.0711 2.52738 14.0796 2.51188 14.0903 2.49426C14.1713 2.36035 14.3509 2.2274 14.5497 2.15434C14.738 2.08502 14.8137 2.08003 14.8514 2.17205C14.868 2.17205 14.8764 2.17319 14.9254 2.18101C14.9534 2.18549 14.9713 2.18783 14.99 2.18905L15.0018 2.18983C15.0459 2.19275 15.0644 2.19661 15.0868 2.21097C15.0966 2.21727 15.1062 2.22544 15.1159 2.23593C15.1566 2.27987 15.1731 2.35121 15.1556 2.41353L15.1431 2.41715C15.0528 2.33831 14.9839 2.32936 14.886 2.37783ZM15.0469 2.45904C15.0349 2.44992 15.026 2.44604 15.0104 2.44639L15.0104 2.44639C14.9427 2.44825 14.891 2.42512 14.8752 2.37444C14.9785 2.31505 15.053 2.32226 15.1437 2.39771C15.1429 2.40168 15.1419 2.40562 15.1408 2.40952L15.1533 2.4059C15.15 2.40309 15.1469 2.40036 15.1437 2.39771C15.1548 2.34328 15.1392 2.28342 15.1046 2.24607C15.0957 2.23648 15.0871 2.22914 15.0784 2.22357C15.0589 2.21105 15.0424 2.2076 15.0008 2.20485L14.989 2.20407C14.9697 2.20281 14.9514 2.20042 14.9229 2.19587C14.914 2.19445 14.9065 2.19326 14.9 2.19223C14.8716 2.1877 14.8626 2.18628 14.8444 2.1827C14.8049 2.09743 14.7355 2.10201 14.555 2.16844C14.3593 2.24038 14.1826 2.37125 14.1034 2.50196C14.093 2.51925 14.0846 2.53441 14.0769 2.54972C14.0725 2.55825 14.0603 2.58378 14.0599 2.58477L14.0532 2.59806C14.0517 2.60083 14.0502 2.60352 14.0487 2.60617C14.0473 2.6067 14.0457 2.60709 14.043 2.60752L14.0326 2.60891L14.04 2.62045C14.0431 2.61569 14.0459 2.611 14.0487 2.60617C14.049 2.60606 14.0493 2.60595 14.0495 2.60583C14.0511 2.60513 14.0525 2.60432 14.0583 2.60079L14.0699 2.6079L14.0661 2.64809C14.0465 2.8514 14.0446 2.91694 14.0651 2.98679C14.0349 3.10042 14.0508 3.18578 14.0976 3.23212C14.1486 3.28239 14.1589 3.29774 14.1654 3.34224C14.1723 3.39054 14.1932 3.43188 14.2247 3.45678C14.2572 3.48252 14.2818 3.52386 14.2861 3.55384C14.289 3.57376 14.3924 3.67498 14.4377 3.70197C14.4459 3.70678 14.4516 3.71327 14.4579 3.72391L14.4679 3.74151C14.4691 3.74348 14.4702 3.74538 14.4714 3.74732C14.4747 3.75276 14.4782 3.7586 14.4829 3.76763C14.4642 3.87517 14.4776 3.9621 14.5288 4.15613C14.5798 4.34987 14.5933 4.43512 14.5692 4.53361C14.5976 4.53668 14.6343 4.53391 14.6784 4.53057C14.6822 4.53028 14.6861 4.52999 14.69 4.5297C14.734 4.80929 14.7199 4.86892 14.5467 4.92697C14.445 4.96115 14.3746 4.9927 14.3338 5.0236C14.2913 5.05567 14.2821 5.08535 14.3054 5.11677C14.3341 5.15538 14.3976 5.13402 14.4598 5.07807C14.5015 5.04059 14.5463 5.0114 14.58 5.00139C14.6224 4.98884 14.6326 5.00686 14.6135 5.05561C14.6067 5.07308 14.6001 5.08259 14.5569 5.14115L14.5479 5.15353C14.5168 5.19632 14.5014 5.22319 14.5001 5.2412C14.4967 5.28837 14.5369 5.31012 14.5922 5.27849C14.6493 5.24575 14.7099 5.15512 14.7266 5.08869C14.7324 5.06559 14.7397 5.04811 14.7471 5.04328C14.7561 5.03734 14.7627 5.04393 14.7649 5.05446C14.7664 5.06195 14.7667 5.07398 14.7658 5.09086C14.7652 5.10343 14.7643 5.11073 14.7598 5.14284C14.7578 5.15711 14.7567 5.16621 14.7557 5.17566C14.7484 5.24702 14.7609 5.28436 14.8082 5.29474C14.8865 5.31194 14.9221 5.22193 14.889 5.11656C14.8556 5.0105 14.8475 4.95872 14.8615 4.92393C14.8793 4.88004 14.8974 4.86461 14.9329 4.87506C14.9739 4.88722 15.0258 4.86529 15.0232 4.82482C15.0197 4.77038 14.9737 4.73699 14.9276 4.76261C14.8974 4.77941 14.8717 4.7859 14.855 4.77923C14.8349 4.77121 14.8315 4.74772 14.8442 4.71259C14.849 4.69916 14.8537 4.68777 14.8646 4.66232L14.8647 4.66212C14.8862 4.61173 14.8937 4.59081 14.8955 4.57113L14.9095 4.56755C14.9448 4.61834 15.1544 4.62483 15.2374 4.57559L15.2489 4.58057C15.2517 4.59457 15.2548 4.60693 15.2608 4.62975C15.2844 4.71881 15.2877 4.7548 15.2649 4.80281C15.2525 4.82914 15.2317 4.85396 15.2013 4.87802C15.0583 4.99104 14.9873 5.07062 14.9902 5.12768C14.9939 5.19878 15.0208 5.22462 15.072 5.19652C15.1288 5.16533 15.168 5.12041 15.1823 5.07468C15.1898 5.05061 15.2022 5.03504 15.2152 5.03744C15.2295 5.04009 15.232 5.06 15.2247 5.08894L15.214 5.12978C15.21 5.14517 15.207 5.15766 15.2044 5.16966C15.1951 5.21208 15.1922 5.24379 15.1971 5.26643C15.2058 5.30668 15.2729 5.31023 15.3006 5.27048C15.3249 5.23575 15.3266 5.20068 15.3166 5.11577L15.3165 5.11521C15.31 5.05989 15.3187 4.99529 15.3348 4.9673C15.3451 4.94955 15.3558 4.93758 15.3686 4.93394C15.3872 4.9287 15.4036 4.94237 15.4175 4.97498L15.4367 5.02098C15.4582 5.07152 15.4758 5.09338 15.5094 5.10379C15.5627 5.12031 15.5947 5.09636 15.5859 5.04049C15.577 4.98549 15.5193 4.91882 15.4335 4.85417C15.3964 4.82628 15.381 4.80334 15.3792 4.77694C15.3784 4.76658 15.3791 4.76052 15.3825 4.73909C15.3842 4.72858 15.3851 4.72202 15.3856 4.71462C15.3869 4.69443 15.3862 4.6664 15.3838 4.6312C15.3828 4.61704 15.3816 4.60214 15.3801 4.58533L15.3752 4.53149L15.3874 4.52481C15.3967 4.53161 15.4064 4.53745 15.4166 4.5424C15.455 4.56119 15.4889 4.56541 15.5423 4.56445L15.5553 4.56427C15.5755 4.56427 15.5938 4.56077 15.602 4.55432C15.6104 4.54771 15.6075 4.53639 15.5847 4.51594C15.5308 4.46749 15.5126 4.43688 15.4866 4.36902C15.4795 4.35045 15.4752 4.34026 15.4693 4.32914C15.4593 4.31011 15.4469 4.2935 15.4293 4.27687C15.3472 4.19924 15.2752 4.08155 15.2512 3.98322C15.2111 3.8195 15.1554 3.68909 15.0706 3.61507C15.0126 3.56447 14.991 3.43069 15.006 3.25728C15.0254 3.03035 15 2.91171 14.8787 2.84477C14.742 2.76935 14.7199 2.70046 14.7795 2.61222C14.8423 2.51898 14.903 2.46665 14.9752 2.46206C14.9856 2.46143 14.9954 2.46054 15.0043 2.45973C15.0237 2.45797 15.039 2.45658 15.0469 2.45904Z" fill="black"/>
<path fill-rule="evenodd" clip-rule="evenodd" d="M13.8585 2.77189C13.9765 2.77597 14.0195 2.78115 14.0493 2.80126L14.0526 2.80786C14.0485 2.88507 14.0518 2.94064 14.065 2.98676C14.0348 3.10039 14.0507 3.18575 14.0975 3.23209C14.1485 3.28236 14.1588 3.29771 14.1653 3.34221C14.1722 3.39051 14.1932 3.43185 14.2246 3.45675C14.2571 3.48249 14.2817 3.52383 14.286 3.55381C14.2889 3.57373 14.3924 3.67495 14.4376 3.70194C14.4458 3.70675 14.4515 3.71324 14.4578 3.72388L14.4679 3.74148C14.469 3.74345 14.4701 3.74534 14.4713 3.74728C14.4746 3.75273 14.4781 3.75857 14.4828 3.7676C14.4666 3.86043 14.4769 3.95316 14.5081 4.09523C14.3926 4.18996 14.2679 4.22628 14.1797 4.19896C14.0998 4.17421 14.0684 4.10255 14.1016 4.01329C14.0076 4.07833 13.8828 4.11629 13.7775 4.11572C13.6691 4.11513 13.6079 4.07266 13.6322 4.00302C13.3703 4.08921 13.2245 4.04039 13.2604 3.92145C13.0436 4.00069 12.864 3.94573 12.8924 3.85136C12.7063 3.89815 12.5443 3.88163 12.512 3.83063C12.4919 3.79871 12.5232 3.7342 12.5707 3.68532C12.4884 3.70898 12.4046 3.7116 12.3103 3.69767C12.2659 3.69104 12.2439 3.68081 12.238 3.66338C12.2335 3.65008 12.2349 3.64606 12.2518 3.6098L12.2539 3.60516C12.2538 3.60528 12.2649 3.58016 12.2687 3.57196C12.2754 3.55758 12.282 3.5448 12.2894 3.53208C12.3064 3.50308 12.3267 3.47638 12.3525 3.45105C12.1373 3.49053 11.9536 3.49596 11.8225 3.45265L11.8029 3.44644C11.7846 3.44049 11.7733 3.4353 11.7662 3.42796C11.7554 3.41692 11.757 3.40311 11.7712 3.38914C11.813 3.3478 11.887 3.29467 11.9658 3.2551C11.5922 3.30335 11.2346 3.2823 11.1221 3.15713L11.1294 3.14477C11.2342 3.16597 11.3691 3.13973 11.5147 3.08437C11.0377 3.02195 10.5089 2.71747 10.5024 2.45274L10.5166 2.44861C10.6134 2.60267 10.7425 2.67598 11.0086 2.75645C10.7782 2.61047 10.6453 2.42911 10.6337 2.27899L10.6467 2.273C10.8348 2.45147 11.0589 2.59082 11.2647 2.63784C11.0943 2.52917 10.8925 2.28318 10.8342 2.10673L10.8465 2.0988C10.9766 2.21343 11.2782 2.37536 11.4873 2.43855C11.2969 2.28184 11.1086 2.02864 11.1202 1.89565L11.1333 1.89099C11.206 1.96297 11.3729 2.07858 11.632 2.22761C11.7926 2.31991 11.9149 2.36229 12.076 2.39146C12.0988 2.39559 12.1209 2.39927 12.1556 2.40484C12.2412 2.4186 12.2728 2.42389 12.3133 2.43208C12.2758 2.37886 12.2388 2.30937 12.2349 2.28651L12.2436 2.27784C12.3241 2.2892 12.4011 2.32444 12.595 2.44267C12.6885 2.4997 12.8027 2.53321 13.08 2.59642L13.0928 2.59934C13.3165 2.65037 13.416 2.67723 13.5121 2.71869C13.5622 2.74033 13.6208 2.75387 13.6906 2.76175C13.7379 2.76709 13.772 2.7689 13.8585 2.77189ZM14.0371 2.81143C14.0372 2.80999 14.0372 2.80854 14.0373 2.80708L14.0406 2.81368C14.0395 2.81291 14.0383 2.81216 14.0371 2.81143ZM11.1506 3.16356C11.262 3.17832 11.4004 3.14681 11.5483 3.08746L11.5462 3.07301C11.0869 3.02249 10.566 2.7359 10.5208 2.48268C10.6252 2.63308 10.7688 2.7037 11.0602 2.78736L11.0662 2.77364C10.8203 2.63178 10.674 2.44953 10.6513 2.29816C10.8519 2.48428 11.0906 2.62574 11.3061 2.66135L11.311 2.64728C11.1452 2.56057 10.9314 2.31307 10.8584 2.12859C11.0083 2.25004 11.3185 2.41125 11.5193 2.46321L11.526 2.45001C11.338 2.30533 11.1405 2.05152 11.1351 1.91374C11.2146 1.98728 11.3781 2.09899 11.6243 2.2406C11.7865 2.33383 11.9105 2.37679 12.0733 2.40627C12.0962 2.41041 12.1183 2.41411 12.1531 2.4197C12.2515 2.4355 12.2783 2.44009 12.3294 2.45077L12.3372 2.43891C12.3022 2.39279 12.2643 2.32536 12.2531 2.29457C12.3271 2.30739 12.4043 2.34413 12.587 2.45547C12.6825 2.51374 12.7973 2.54743 13.0765 2.61109L13.0893 2.614C13.3121 2.6648 13.411 2.69153 13.5059 2.73247C13.5576 2.7548 13.6176 2.76867 13.6889 2.77671C13.7367 2.78211 13.7711 2.78393 13.858 2.78693C13.9669 2.7907 14.0106 2.79556 14.0371 2.81143C14.0333 2.888 14.0368 2.94378 14.0502 2.98706C14.0187 3.10136 14.0356 3.1922 14.0867 3.24271C14.1355 3.29088 14.1442 3.30387 14.1501 3.34433C14.1576 3.39615 14.1803 3.44097 14.215 3.46847C14.2446 3.49186 14.2671 3.52979 14.2709 3.55591C14.2746 3.58179 14.3807 3.68562 14.4298 3.71485C14.4354 3.71814 14.4395 3.72286 14.4446 3.73151L14.4546 3.74897C14.4592 3.75696 14.4638 3.76384 14.4691 3.77086C14.4511 3.86039 14.4616 3.95492 14.4957 4.09125C14.3865 4.17539 14.2669 4.2102 14.1843 4.18461C14.1062 4.16041 14.0805 4.08714 14.1266 3.99375L14.115 3.98458C14.0219 4.05773 13.8883 4.10126 13.7776 4.10067C13.6706 4.10009 13.6194 4.05968 13.6527 3.99381L13.6434 3.98335C13.3697 4.07748 13.2325 4.0269 13.2802 3.9114L13.2703 3.90157C13.046 3.98957 12.868 3.93039 12.9119 3.84363L12.9031 3.83302C12.7167 3.8829 12.5533 3.86747 12.525 3.82269C12.5071 3.79426 12.5506 3.71822 12.6063 3.67328L12.5988 3.66039C12.5083 3.69289 12.4172 3.69825 12.3126 3.68278C12.2735 3.67695 12.256 3.66879 12.2525 3.65863C12.2499 3.65098 12.2514 3.64676 12.2657 3.61606L12.2679 3.61125C12.3069 3.52478 12.3214 3.49997 12.373 3.45258L12.3821 3.44442L12.3756 3.43138C12.1515 3.47478 11.9605 3.48237 11.8274 3.43837L11.8077 3.43215C11.7917 3.42697 11.782 3.42248 11.7772 3.41753C11.7727 3.41297 11.7733 3.40837 11.782 3.39976C11.8306 3.35175 11.9248 3.28674 12.0178 3.2477L12.0136 3.23333C11.6456 3.28675 11.2808 3.27369 11.1506 3.16356ZM11.1506 3.16356C11.1444 3.15831 11.1387 3.15285 11.1336 3.14716L11.1263 3.15951C11.1342 3.16112 11.1423 3.16246 11.1506 3.16356ZM12.2531 2.29457C12.2515 2.29032 12.2505 2.28676 12.2501 2.28406L12.2414 2.29274C12.2453 2.29329 12.2492 2.2939 12.2531 2.29457ZM11.1351 1.91374C11.1349 1.90793 11.135 1.90232 11.1355 1.89694L11.1224 1.9016C11.1264 1.90552 11.1306 1.90957 11.1351 1.91374ZM10.8584 2.12859C10.8548 2.11959 10.8516 2.11074 10.8487 2.10207L10.8363 2.11C10.8432 2.11608 10.8506 2.12228 10.8584 2.12859ZM10.6513 2.29816C10.6503 2.29132 10.6495 2.28455 10.649 2.27785L10.636 2.28384C10.6411 2.28864 10.6462 2.29341 10.6513 2.29816ZM10.5208 2.48268C10.519 2.47252 10.518 2.46242 10.5177 2.45238L10.5036 2.45652C10.5092 2.4655 10.515 2.47422 10.5208 2.48268Z" fill="black"/>
<path fill-rule="evenodd" clip-rule="evenodd" d="M15.603 4.5666L15.6021 4.55422C15.6105 4.54768 15.6075 4.53632 15.5847 4.51593C15.5308 4.46748 15.5127 4.43687 15.4866 4.36901C15.4795 4.35044 15.4752 4.34025 15.4693 4.32913C15.4593 4.3101 15.4469 4.29349 15.4293 4.27686C15.3472 4.19923 15.2752 4.08154 15.2512 3.98321C15.2111 3.81949 15.1554 3.68908 15.0706 3.61506C15.0126 3.56446 14.991 3.43068 15.006 3.25727C15.0078 3.23595 15.0093 3.21568 15.0103 3.19639L15.0152 3.19892L15.0151 3.19956L15.0161 3.19936L15.0252 3.20406C15.0242 3.22145 15.0229 3.23959 15.0213 3.25854C15.0067 3.42745 15.0277 3.55745 15.0808 3.60381C15.1687 3.68052 15.2253 3.81309 15.2661 3.97969C15.2894 4.07512 15.3599 4.19031 15.4399 4.26601C15.4587 4.28381 15.4722 4.30174 15.4829 4.32222C15.4891 4.33399 15.4936 4.34462 15.501 4.3637C15.5262 4.42954 15.5432 4.45825 15.595 4.5048C15.6187 4.526 15.6267 4.54436 15.6189 4.55795C15.6162 4.55661 15.6135 4.55517 15.6108 4.55362L15.6117 4.566C15.6148 4.56355 15.6172 4.56086 15.6189 4.55795C15.7117 4.60346 15.8327 4.52943 15.8341 4.46073L15.8469 4.45533C15.9713 4.56782 16.1259 4.55859 16.164 4.42975L16.1755 4.42553C16.2745 4.48847 16.4484 4.4954 16.4948 4.43409C16.5587 4.35 16.5211 4.28412 16.2623 4.12999L16.2682 4.11627C16.3491 4.13705 16.4141 4.09824 16.4208 4.03177L16.4326 4.02619C16.5218 4.08302 16.5972 4.09459 16.703 4.07295C16.7897 4.05522 16.7913 3.99001 16.7157 3.8938L16.7256 3.88265C16.8164 3.93357 16.9152 3.96132 16.9824 3.95473C17.0533 3.94777 17.08 3.90503 17.0511 3.82524L17.0598 3.81535C17.166 3.83712 17.2502 3.83369 17.2743 3.7965C17.3034 3.75182 17.2474 3.67086 17.1036 3.56426L17.1074 3.55077C17.1449 3.5467 17.1671 3.54136 17.1935 3.52985C17.3356 3.60026 17.643 3.65643 17.7864 3.64625C17.9064 3.63783 17.9451 3.58241 17.9235 3.45982C18.2313 3.40118 18.5144 3.30608 18.7018 3.1703C18.7221 3.15561 18.7312 3.14897 18.7428 3.14025C18.7593 3.12784 18.7733 3.11672 18.7855 3.10617C18.8044 3.08987 18.8185 3.07535 18.8274 3.06283C18.8349 3.05872 18.8422 3.0546 18.8491 3.05046L18.8377 3.0423C18.8363 3.04838 18.8328 3.05524 18.8274 3.06283C18.6696 3.14924 18.3939 3.2293 17.9221 3.34253L17.9179 3.32806C18.3369 3.19307 18.9854 2.78204 19.0119 2.60631L19.0252 2.59458L19.0124 2.58974C19.0129 2.595 19.0127 2.60053 19.0119 2.60631C18.9032 2.69937 18.7501 2.77342 18.4944 2.87013L18.4223 2.89713L18.351 2.92364L18.3444 2.91009C18.6022 2.76313 18.8099 2.54742 18.8312 2.3818C18.8367 2.37509 18.8419 2.36826 18.8469 2.36129L18.833 2.35687C18.8329 2.36504 18.8323 2.37335 18.8312 2.3818C18.7599 2.46872 18.6419 2.53567 18.4149 2.63587L18.3094 2.68235C18.2779 2.69635 18.2517 2.70832 18.2273 2.71985L18.2193 2.70717C18.3327 2.61891 18.3722 2.58751 18.4339 2.5348C18.5501 2.43554 18.6387 2.34544 18.6983 2.26037C18.7592 2.17354 18.7868 2.09555 18.777 2.02725C18.7806 2.02165 18.7841 2.01603 18.7874 2.01039L18.7733 2.00844C18.7749 2.01462 18.7761 2.02089 18.777 2.02725C18.6946 2.15543 18.5351 2.27292 18.2797 2.41444C18.2392 2.43687 18.1378 2.49102 18.0665 2.5291L18.0665 2.52912L18.0664 2.52915L17.9931 2.56839L17.9844 2.55611C18.1471 2.41814 18.2388 2.2973 18.248 2.14488L18.2609 2.1355L18.2487 2.1293L18.248 2.14488C17.8998 2.39687 17.4725 2.57612 17.0249 2.68281L17.0208 2.67291L17.0192 2.66905C17.1282 2.60438 17.2425 2.48357 17.2762 2.39785L17.2944 2.38596L17.2827 2.37791C17.281 2.3843 17.2789 2.39096 17.2762 2.39785C16.9483 2.60871 16.4604 2.75077 16.1034 2.77406C15.7805 2.79496 15.5714 2.82157 15.3187 2.88096C15.2706 2.83329 15.1286 2.83583 14.9519 2.88319L14.943 2.87398L14.9397 2.88651L14.9519 2.88319C15.0133 2.95026 15.032 3.03904 15.0264 3.17947L15.0122 3.18223L15.0105 3.1931C15.0181 3.04177 14.9989 2.95101 14.9321 2.88456L14.9355 2.87202C15.1232 2.82002 15.2748 2.81613 15.3223 2.86836C15.5687 2.80671 15.7786 2.77999 16.1024 2.75903C16.4636 2.73548 16.9604 2.58926 17.2858 2.37348L17.2975 2.38154C17.277 2.46251 17.1732 2.582 17.0648 2.65757C17.5002 2.54886 17.9142 2.3708 18.2518 2.12343L18.264 2.12964C18.2605 2.27842 18.1838 2.39622 18.0439 2.52405L18.0593 2.5158C18.1306 2.47772 18.2319 2.42368 18.2722 2.40132C18.5364 2.25491 18.6969 2.13458 18.7741 2.00287L18.7882 2.00482C18.8077 2.08248 18.7797 2.1708 18.7109 2.26891C18.6504 2.35522 18.561 2.44615 18.4439 2.54616C18.3924 2.59019 18.3563 2.61938 18.2802 2.67885L18.303 2.66863L18.4086 2.62213C18.6504 2.51539 18.7672 2.44684 18.8344 2.35264L18.8483 2.35705C18.8463 2.51743 18.6629 2.7269 18.4209 2.88153L18.4889 2.85607C18.7535 2.75601 18.9073 2.68045 19.0149 2.58348L19.0277 2.58832C19.0431 2.74766 18.4831 3.12194 18.0505 3.29582C18.4615 3.19441 18.7036 3.11927 18.8412 3.03757L18.8526 3.04573C18.8478 3.0659 18.8283 3.08931 18.7956 3.11749C18.7831 3.12829 18.7688 3.13961 18.7521 3.1522C18.7404 3.161 18.7313 3.16768 18.7109 3.18243C18.5212 3.31985 18.2362 3.41557 17.9324 3.46546C17.9622 3.58774 17.9171 3.65217 17.7875 3.66126C17.6414 3.67164 17.3313 3.61496 17.194 3.54303C17.1762 3.55355 17.1566 3.55931 17.1277 3.56342C17.2667 3.66925 17.3215 3.75189 17.2872 3.8046C17.2592 3.84785 17.1762 3.85286 17.0697 3.83264C17.0945 3.91401 17.0609 3.96215 16.9839 3.96971C16.9205 3.97593 16.8322 3.95362 16.7473 3.91127C16.8081 4.00156 16.7984 4.06883 16.7061 4.08769C16.6005 4.10929 16.5228 4.09874 16.4343 4.04505C16.4226 4.10321 16.3699 4.13988 16.3027 4.13673C16.5391 4.28153 16.5751 4.35354 16.507 4.44309C16.4561 4.51034 16.2817 4.50522 16.1757 4.44334C16.1306 4.57209 15.9745 4.58233 15.8476 4.47601C15.8307 4.55266 15.7007 4.6231 15.603 4.5666ZM15.365 3.15442C15.3687 3.14461 15.3715 3.13401 15.3732 3.12258L15.3642 3.11407L15.0264 3.17947L15.0259 3.18975L15.0173 3.1851L15.0152 3.19892L15.0161 3.19936L15.0255 3.19747L15.0252 3.20406C15.1565 3.26863 15.3016 3.26489 15.3546 3.17595C15.4696 3.23718 15.6513 3.20718 15.7099 3.12136C15.8748 3.17986 16.0289 3.14474 16.0563 2.99647L16.0463 2.988L15.7226 3.0968C15.7272 3.08415 15.7294 3.07057 15.7287 3.05616L15.365 3.15442ZM15.3616 3.16255L15.365 3.15442L15.3496 3.15856L15.348 3.17226L15.3546 3.17595L15.3568 3.17217L15.3719 3.1677C15.4802 3.21848 15.6431 3.18964 15.7015 3.1183L15.7099 3.12136C15.7112 3.11953 15.7124 3.11766 15.7135 3.11577L15.727 3.11125C15.8745 3.15963 16.0076 3.12896 16.0385 3.00654L16.0513 3.00224L16.0413 2.99377C16.0405 2.99813 16.0395 3.00239 16.0385 3.00654L15.727 3.11125C15.7239 3.11024 15.7208 3.1092 15.7177 3.10813C15.7196 3.10444 15.7212 3.10066 15.7226 3.0968L15.7137 3.09979C15.7195 3.08856 15.7228 3.07651 15.7232 3.06375L15.3719 3.1677C15.3684 3.16607 15.365 3.16435 15.3616 3.16255ZM15.7105 3.10555C15.7129 3.10643 15.7153 3.10729 15.7177 3.10813C15.7164 3.11072 15.715 3.11327 15.7135 3.11577L15.7062 3.11822L15.7063 3.11193C15.7078 3.10984 15.7092 3.10771 15.7105 3.10555ZM15.7105 3.10555C15.7092 3.10506 15.7078 3.10456 15.7065 3.10406L15.7063 3.11193C15.7048 3.11409 15.7032 3.11621 15.7015 3.1183L15.701 3.11813L15.7013 3.10397L15.7137 3.09979C15.7127 3.10174 15.7117 3.10366 15.7105 3.10555ZM15.3616 3.16255C15.3601 3.16586 15.3585 3.16906 15.3568 3.17217L15.354 3.17298L15.3557 3.15928L15.3616 3.16255ZM15.0367 3.19525L15.0255 3.19747L15.0259 3.18975L15.0367 3.19525ZM15.3561 3.13134C15.3297 3.24936 15.1771 3.2646 15.0367 3.19525L15.3561 3.13134ZM15.3561 3.13134C15.3569 3.12776 15.3575 3.12409 15.3581 3.12032L15.3672 3.12912L15.3561 3.13134ZM17.0208 2.67291L17.0257 2.68717C17.0332 2.68455 16.8166 2.76139 16.7406 2.78745L16.6751 2.80961C16.5223 2.86065 16.4074 2.89383 16.3343 2.90584L16.3307 2.89125L17.0208 2.67291ZM15.0105 3.1931L15.0103 3.19639L15.01 3.19622L15.0105 3.1931ZM12.3214 2.44541C12.3702 2.5151 12.4982 2.61729 12.5788 2.64213C12.5846 2.69745 12.6084 2.75105 12.6485 2.79425L12.284 2.67965L12.2743 2.68877C12.2828 2.71998 12.2972 2.74748 12.3158 2.77096L12.0648 2.67119C12.0855 2.67158 12.1083 2.6702 12.1332 2.66694L12.1373 2.6539L11.9571 2.49373C11.9889 2.50078 12.0209 2.50625 12.053 2.51004L12.0574 2.49587L11.3603 2.14325L11.3516 2.15541C11.5183 2.31067 11.712 2.4293 11.9158 2.48364C11.9028 2.51247 11.8995 2.54914 11.9091 2.58123L11.5205 2.44549L11.5131 2.45839C11.5985 2.5275 11.7318 2.56839 11.9165 2.59974L11.9196 2.60557C11.9362 2.63395 11.9644 2.65388 12.0045 2.66388C11.9975 2.68086 11.9941 2.69719 11.9941 2.71251C11.8086 2.67793 11.6912 2.66685 11.6425 2.68788C11.6172 2.69885 11.6005 2.71442 11.5931 2.73235C11.5603 2.71984 11.5294 2.70937 11.4953 2.69909C11.4818 2.69501 11.4677 2.69094 11.4515 2.68638C11.461 2.68906 11.348 2.6579 11.3097 2.64675L11.3097 2.64673L11.3097 2.64673L11.3096 2.64671L11.3053 2.66164L11.5891 2.74792C11.5863 2.77409 11.6016 2.80355 11.6375 2.83057C11.6501 2.84007 11.6651 2.84917 11.6823 2.85785C11.646 2.87491 11.6323 2.90279 11.64 2.93264L11.0645 2.77291L11.0583 2.78651C11.2066 2.87901 11.3922 2.92839 11.6474 2.95104C11.6543 2.96387 11.665 2.97674 11.6794 2.98896C11.6621 3.00871 11.6554 3.03092 11.658 3.05354C11.6237 3.05247 11.5747 3.06103 11.5426 3.0742L11.5467 3.08909L11.6617 3.07085C11.6687 3.09255 11.6838 3.11413 11.7061 3.1338C11.8914 3.29815 12.349 3.29498 12.7817 3.14735C12.7915 3.16877 12.8167 3.18351 12.8571 3.19458C12.8735 3.19909 12.8901 3.20293 12.9068 3.20612L12.3742 3.43187L12.3783 3.44623C12.5401 3.42293 12.7672 3.31951 12.9351 3.21085C12.9796 3.21732 13.0253 3.21936 13.0712 3.21726C13.0516 3.25319 13.0481 3.29922 13.0624 3.33825L12.4989 3.53405L12.5036 3.54837C12.6892 3.49479 12.9317 3.41168 13.0685 3.35252C13.0854 3.38587 13.1167 3.41179 13.1637 3.41777L12.5984 3.66058L12.6034 3.67477C12.7355 3.6412 12.9974 3.52903 13.1979 3.42078C13.2553 3.42384 13.3188 3.41776 13.3842 3.40454C13.3719 3.4294 13.3647 3.45392 13.3623 3.47722L12.8225 3.72546L12.8276 3.73957C12.9912 3.69846 13.1388 3.62602 13.3613 3.49552C13.3615 3.53065 13.3732 3.56228 13.3956 3.58714L12.9017 3.83129L12.9067 3.84538C12.9604 3.83434 13.0244 3.81053 13.0971 3.77595C13.137 3.757 13.1788 3.73512 13.2224 3.71066C13.2846 3.67573 13.3336 3.64579 13.4075 3.59883C13.4325 3.62059 13.4674 3.63554 13.5116 3.64075C13.5167 3.64135 13.5218 3.6418 13.5271 3.64209L13.1228 3.82782L13.1277 3.842C13.2174 3.82331 13.3032 3.78887 13.3955 3.73903C13.4164 3.72779 13.4589 3.70298 13.4968 3.68086L13.4968 3.68086L13.4968 3.68086L13.4968 3.68083L13.4968 3.68083L13.4968 3.68082C13.5263 3.66363 13.5529 3.64808 13.5645 3.64177C13.6106 3.63862 13.6619 3.62563 13.7162 3.60378C13.692 3.64105 13.679 3.67087 13.677 3.6971L13.2641 3.89956L13.27 3.9134C13.3426 3.88854 13.5524 3.78358 13.6773 3.7145C13.6794 3.73197 13.6869 3.7481 13.6997 3.76424C13.7125 3.78035 13.7277 3.78909 13.7477 3.79064L13.4645 3.91994L13.4706 3.93375C13.5679 3.89523 13.7006 3.83491 13.8128 3.7784C13.843 3.76759 13.8801 3.74979 13.9267 3.72517C13.9634 3.70585 14.0066 3.67843 14.0561 3.64365C14.0691 3.63451 14.0825 3.62491 14.0963 3.61481C14.0858 3.65236 14.0853 3.68475 14.0936 3.71176L13.6397 3.98175L13.6464 3.99522C13.768 3.94943 13.9931 3.81127 14.0996 3.72729C14.1112 3.75185 14.1312 3.77112 14.1584 3.78489L13.8431 3.98183L13.8502 3.99512C13.9703 3.94521 14.1092 3.85718 14.1763 3.79276L14.1793 3.79389C14.2494 3.81952 14.3199 3.8203 14.3861 3.78617L14.1153 3.98566L14.1238 3.99816C14.2558 3.92131 14.4125 3.80772 14.4639 3.74735L14.4535 3.73649L14.4529 3.73695L14.4507 3.72537L14.1316 3.58869C14.1492 3.57547 14.1675 3.56152 14.1875 3.54608L14.2522 3.49588L14.2461 3.48257L14.037 3.52055L14.1832 3.41068L14.1743 3.39845C14.1275 3.42929 14.0568 3.4797 13.9906 3.52898L13.8017 3.56328C13.9138 3.50253 14.0325 3.409 14.1394 3.29023L14.1326 3.27778L13.8567 3.3164L13.8935 3.29249L13.9771 3.23755C14.0089 3.21681 14.0342 3.2006 14.0583 3.18576L14.0504 3.17289L14.0502 3.173L13.7858 3.32632L13.5417 3.36047C13.692 3.30726 13.8353 3.22513 13.9231 3.13777C13.9604 3.1327 13.999 3.1256 14.0382 3.11629L14.0402 3.11667L14.0402 3.11582L14.0435 3.11503L14.0431 3.10033L13.5849 3.01405C13.6141 3.01191 13.6441 3.00848 13.6748 3.00364L13.6757 2.98898L13.15 2.83784L13.1402 2.8447C13.14 2.84988 13.1402 2.855 13.1408 2.86005L12.5887 2.59587L12.5777 2.60225C12.5774 2.60804 12.5773 2.61383 12.5774 2.61962L12.3324 2.43517L12.3214 2.44541ZM12.5776 2.62589L12.5774 2.61962L12.5923 2.63086L12.5857 2.64412L12.5788 2.64213L12.5785 2.6394L12.583 2.64282L12.5896 2.62956C12.5858 2.62855 12.5817 2.62732 12.5776 2.62589ZM12.5351 2.60676L12.3811 2.49078C12.3619 2.4719 12.3456 2.45339 12.334 2.43687L12.3231 2.44712L12.3811 2.49078C12.425 2.53405 12.484 2.57926 12.5351 2.60676ZM12.5351 2.60676C12.5501 2.61483 12.5645 2.62137 12.5776 2.62589C12.5778 2.6304 12.5781 2.63491 12.5785 2.6394L12.5351 2.60676ZM13.1581 2.86831L13.1408 2.86005C13.1413 2.86351 13.142 2.86694 13.1428 2.87033L13.1325 2.87279L12.5927 2.61451L12.593 2.60303L12.582 2.60941L12.5927 2.61451C12.5922 2.71995 12.6617 2.82447 12.7878 2.8617C12.8995 2.89471 13.0092 2.8988 13.1018 2.88114C13.0782 2.88809 13.0546 2.89617 13.0315 2.90514C12.9543 2.91017 12.8694 2.90152 12.7834 2.87612C12.7406 2.86349 12.704 2.84348 12.674 2.81842L12.6776 2.81563L12.6751 2.80261L12.6485 2.79425C12.653 2.79903 12.6576 2.80368 12.6624 2.80819L12.6564 2.81252L12.2932 2.69835C12.2917 2.69394 12.2903 2.68945 12.2891 2.68487L12.2793 2.69399L12.2932 2.69835C12.3089 2.74412 12.3387 2.78058 12.3759 2.8065L12.3408 2.79779L12.3405 2.7975L12.3438 2.7965L12.3444 2.78233L12.3158 2.77096C12.3197 2.77592 12.3239 2.78071 12.3282 2.78531L12.3183 2.78817L12.0189 2.6692L12.0198 2.6671C12.0335 2.66951 12.0485 2.67089 12.0648 2.67119L12.0177 2.6525L12.0079 2.65629L12.0045 2.66388L12.0134 2.6659L12.012 2.66646L12.0189 2.6692C12.0121 2.68548 12.0091 2.70112 12.0098 2.71568L12.0063 2.71481L12.0059 2.71471L11.9941 2.71251C11.9942 2.71783 11.9946 2.72302 11.9955 2.72808C11.8118 2.69371 11.6934 2.68232 11.6486 2.70165C11.5924 2.72611 11.5867 2.77333 11.6468 2.81861C11.6623 2.83029 11.6816 2.84134 11.7042 2.85176L11.7026 2.85137L11.6983 2.85153C11.6926 2.85343 11.6873 2.85554 11.6823 2.85785C11.6878 2.8606 11.6934 2.8633 11.6992 2.86596L11.6989 2.86598L11.6997 2.86617L11.7008 2.86664C11.6405 2.88775 11.638 2.93794 11.693 2.98113L11.6914 2.98092L11.6849 2.98307L11.6794 2.98896C11.6831 2.99213 11.6871 2.99527 11.6914 2.99835C11.6589 3.03506 11.6703 3.08192 11.7163 3.12261C11.8929 3.27916 12.3311 3.2792 12.7516 3.14152L12.7809 3.14555L12.7817 3.14735L12.787 3.14554L12.7855 3.13098L12.7853 3.13095L12.7863 3.11752L12.7777 3.11541C12.7797 3.10047 12.7862 3.08322 12.7972 3.06319C12.8141 3.03247 12.8522 2.99948 12.9015 2.969C12.9155 2.96669 12.9288 2.9642 12.9413 2.96153L12.9416 2.94688L12.9406 2.94663C12.969 2.93157 12.9997 2.91752 13.0315 2.90514C13.0571 2.90348 13.0819 2.90031 13.1056 2.89575C12.9747 2.93438 12.8447 3.00872 12.8106 3.07036C12.7753 3.13453 12.7904 3.16065 12.8612 3.18008C13.0672 3.23687 13.3126 3.18529 13.5 3.05655L13.5076 3.06035C13.5088 3.06256 13.5102 3.06473 13.5116 3.06687C13.4353 3.11983 13.3493 3.16016 13.2601 3.18579L13.0838 3.2026L13.0782 3.20586C13.0757 3.20952 13.0734 3.21333 13.0712 3.21726L13.0874 3.21634L13.0853 3.21758L13.089 3.21723C13.0476 3.28135 13.0696 3.39089 13.1661 3.4029C13.1747 3.40397 13.1836 3.4048 13.1926 3.40539L13.1637 3.41777L13.1642 3.41783L13.1701 3.41852C13.1034 3.45388 13.0308 3.48938 12.9591 3.5221L12.7936 3.5932C12.7172 3.6238 12.6491 3.64762 12.5996 3.66019L12.6046 3.67438L12.7936 3.5932C12.846 3.5722 12.9023 3.54802 12.9591 3.5221L13.1953 3.42064L13.1979 3.42078L13.2091 3.41466L13.2048 3.40604C13.2629 3.40846 13.3273 3.40148 13.3935 3.38722C13.3901 3.39301 13.387 3.39878 13.3842 3.40454L13.4035 3.40044C13.3433 3.50958 13.3858 3.61075 13.5134 3.62581C13.5281 3.62754 13.5437 3.62792 13.5599 3.627L13.5271 3.64209L13.5329 3.64235L13.4881 3.6684C13.4652 3.68179 13.4407 3.69608 13.4204 3.7077L13.2104 3.80419C13.1819 3.81355 13.1534 3.82125 13.1245 3.82728L13.1293 3.84146L13.2104 3.80419C13.2688 3.78502 13.3269 3.75887 13.3882 3.72583C13.3962 3.72153 13.4074 3.71517 13.4204 3.7077L13.5638 3.64182L13.5645 3.64177L13.5679 3.63995L13.5613 3.62692C13.6122 3.6238 13.6702 3.60799 13.7318 3.5809C13.7262 3.58883 13.721 3.59645 13.7162 3.60378C13.7247 3.60035 13.7333 3.5967 13.742 3.59283C13.6866 3.67171 13.6788 3.71338 13.7118 3.75497C13.7295 3.77728 13.7553 3.78135 13.8007 3.76646L13.7477 3.79064L13.7535 3.79089C13.6545 3.83911 13.547 3.88728 13.4649 3.91979L13.4709 3.9336L13.8051 3.78105L13.8128 3.7784L13.83 3.76967L13.8241 3.75782C13.8501 3.74732 13.8814 3.73204 13.9195 3.71191C13.9555 3.69294 13.9982 3.66584 14.0472 3.6314C14.0643 3.61937 14.0821 3.60652 14.1007 3.59277L14.1044 3.59C14.1013 3.59851 14.0986 3.60677 14.0963 3.61481L14.1099 3.6048L14.1173 3.59929C14.0832 3.69408 14.1119 3.75336 14.1846 3.77977C14.2708 3.81129 14.3567 3.8032 14.4339 3.7346L14.4446 3.73917L14.4423 3.72687L14.4339 3.7346L14.1176 3.59911L14.1316 3.58869L14.1161 3.58206L14.114 3.58294C14.1341 3.56793 14.1549 3.55208 14.178 3.53424L14.2184 3.50289L14.2489 3.49737L14.2427 3.48405L14.2184 3.50289L14.0101 3.54074L14.037 3.52055L14.0243 3.52285C14.0828 3.47982 14.1421 3.43782 14.1828 3.41095L14.1739 3.39872L14.0037 3.52659L13.9906 3.52898L13.9636 3.54919L13.7543 3.5872C13.77 3.5799 13.7858 3.57193 13.8017 3.56328L13.7497 3.57273C13.8677 3.51724 13.9972 3.42166 14.114 3.2956L14.1348 3.29269L14.128 3.28025L14.114 3.2956L13.8262 3.33587L13.8567 3.3164L13.8255 3.32076L14.0581 3.18586L14.0502 3.173C14.026 3.18792 14.0005 3.2042 13.9686 3.22502L13.885 3.27996C13.8623 3.29481 13.841 3.3086 13.8207 3.32143L13.7858 3.32632L13.7512 3.34636L13.454 3.38794C13.4832 3.37998 13.5126 3.37077 13.5417 3.36047L13.4509 3.37317C13.6203 3.32689 13.7933 3.23786 13.898 3.14089L13.9231 3.13777L13.9251 3.13575L13.9198 3.1247C13.9474 3.12093 13.9757 3.11601 14.0045 3.10985L14.0382 3.11629L14.0402 3.11582L14.0398 3.10175C14.028 3.10466 14.0162 3.10736 14.0045 3.10985L13.5173 3.01675C13.5393 3.01662 13.5618 3.01574 13.5849 3.01405L13.5193 3.0017C13.557 3.00139 13.5966 2.99883 13.6376 2.9937L13.6714 3.00343L13.6723 2.98877C13.6606 2.99062 13.6491 2.99226 13.6376 2.9937L13.1557 2.85516C13.1554 2.85194 13.1554 2.84869 13.1555 2.84543L13.1457 2.85229L13.1557 2.85516C13.1561 2.85959 13.1569 2.86398 13.1581 2.86831ZM13.1592 2.87029L13.1593 2.86889L13.1581 2.86831L13.1586 2.86998L13.1565 2.86894L13.1537 2.8686L13.1537 2.86846L13.1534 2.86856L13.1513 2.86831L13.1428 2.87033L13.1431 2.87152L13.1346 2.87381L13.1325 2.87279C13.1223 2.87534 13.112 2.87814 13.1018 2.88114C13.113 2.87901 13.1239 2.87656 13.1346 2.87381L13.1455 2.87904L13.1478 2.88458C13.1338 2.88785 13.1197 2.89159 13.1056 2.89575C13.1203 2.89293 13.1345 2.88958 13.1483 2.88573C13.1713 2.93622 13.2414 2.97732 13.3404 2.99931L13.0294 3.09958L13.0326 3.11472C13.1733 3.09723 13.2536 3.06782 13.3711 3.00563L13.371 3.00532C13.3829 3.00738 13.3951 3.00918 13.4077 3.0107L13.5 3.05655L13.5043 3.05351C13.5053 3.05582 13.5064 3.05811 13.5076 3.06035L13.5113 3.06217L13.5103 3.04935L13.5043 3.05351C13.5025 3.04907 13.5011 3.04451 13.5003 3.03982L13.5182 3.04874L13.5192 3.06156L13.5116 3.06687C13.5306 3.09457 13.5706 3.11625 13.6253 3.13012L13.5655 3.15668L13.2601 3.18579C13.204 3.20191 13.1467 3.21221 13.0896 3.21619L13.0909 3.21432L13.0874 3.21634L13.0896 3.21619L13.089 3.21723L13.5221 3.17594L13.2609 3.29199L13.2664 3.30603C13.3711 3.27362 13.4866 3.22328 13.5885 3.16962L13.8345 3.14616C13.8551 3.14508 13.8763 3.14334 13.898 3.14089L13.8989 3.14003L13.9204 3.13798L13.9143 3.12543L13.9198 3.1247L13.9189 3.12299L13.8021 3.13413C13.6245 3.13776 13.5017 3.08874 13.5158 3.01675L13.5173 3.01675L13.5158 3.01646C13.5163 3.01429 13.5168 3.01209 13.5175 3.00987L13.5088 3.01511L13.5158 3.01646L13.5158 3.01675L13.5002 3.01669C13.5008 3.01299 13.5017 3.00924 13.5029 3.00542L13.5091 3.00173L13.5193 3.0017L13.5116 3.00025L13.5091 3.00173C13.4752 3.00164 13.4428 2.99971 13.4125 2.99618L13.1592 2.87029ZM13.1591 2.87161L13.1592 2.87029L13.1586 2.86998L13.1591 2.87161ZM13.169 2.89203C13.1647 2.8854 13.1614 2.87858 13.1591 2.87161L13.1582 2.88285L13.1534 2.88428L13.152 2.8836L13.1547 2.88299L13.1496 2.88237L13.152 2.8836L13.1478 2.88458L13.1483 2.88573L13.1534 2.88428L13.169 2.89203ZM13.3638 2.98886C13.3794 2.99177 13.3956 2.99422 13.4125 2.99618L13.4496 3.01466C13.4353 3.01367 13.4213 3.01235 13.4077 3.0107L13.3638 2.98886ZM13.169 2.89203L13.3638 2.98886C13.2674 2.97084 13.1971 2.93538 13.169 2.89203ZM13.4496 3.01466L13.5003 3.03982C13.4989 3.03241 13.4989 3.02469 13.5002 3.01669C13.4829 3.01648 13.466 3.01579 13.4496 3.01466ZM13.9139 3.12548L13.9142 3.12522L13.9143 3.12543L13.9139 3.12548ZM13.9139 3.12548C13.8749 3.1306 13.8375 3.1334 13.8021 3.13413L13.7034 3.14353C13.6847 3.1416 13.6669 3.13898 13.6503 3.13572L13.6521 3.1347L13.6451 3.12134L13.6253 3.13012L13.6282 3.13085C13.6138 3.13891 13.599 3.14696 13.5839 3.15493L13.5655 3.15668L13.5221 3.17594L13.548 3.17347C13.4555 3.22019 13.3543 3.26304 13.2618 3.29167L13.2672 3.3057L13.5695 3.17143L13.5885 3.16962C13.6 3.16353 13.6114 3.15739 13.6226 3.15124L13.7034 3.14353C13.7432 3.14763 13.7874 3.14864 13.8345 3.14616L13.8989 3.14003C13.9041 3.1352 13.9091 3.13035 13.9139 3.12548ZM13.6128 3.15217L13.6226 3.15124L13.6503 3.13572L13.65 3.13566L13.6514 3.13506L13.6444 3.12169L13.6282 3.13085C13.6352 3.13258 13.6425 3.13419 13.65 3.13566L13.6128 3.15217ZM13.6128 3.15217L13.5839 3.15493C13.5721 3.16116 13.5602 3.16735 13.548 3.17347L13.5695 3.17143L13.6128 3.15217ZM13.3694 3.00506L13.371 3.00532L13.3652 2.99132L13.3404 2.99931L13.347 3.00073C13.3173 3.01609 13.2898 3.02926 13.2629 3.04062L13.137 3.08121C13.1049 3.08849 13.0703 3.09435 13.0307 3.09926L13.034 3.1144L13.137 3.08121C13.182 3.07096 13.2219 3.05788 13.2629 3.04062L13.3699 3.00613L13.3694 3.00506ZM13.3694 3.00506C13.3618 3.00372 13.3543 3.00228 13.347 3.00073L13.364 2.99182L13.3694 3.00506ZM13.1455 2.87904C13.1446 2.87655 13.1438 2.87405 13.1431 2.87152L13.1534 2.86856L13.1537 2.8686L13.1526 2.88242L13.1455 2.87904ZM13.4068 3.39454L13.4035 3.40044C13.4202 3.39671 13.4371 3.39254 13.454 3.38794L13.4068 3.39454ZM13.4068 3.39454L13.4087 3.39143L13.4032 3.39505L13.4068 3.39454ZM13.7894 3.34101L13.7512 3.34636L13.55 3.46301L13.5566 3.47654C13.6396 3.44597 13.7174 3.40458 13.8262 3.33587L13.7909 3.3408L13.8255 3.32076L13.8207 3.32143L13.7894 3.34101ZM13.7682 3.354L13.7894 3.34101L13.7909 3.3408L13.7682 3.354ZM13.7682 3.354C13.7441 3.36857 13.7215 3.38168 13.6999 3.39356L13.7682 3.354ZM13.6999 3.39356C13.647 3.42269 13.6 3.4445 13.5512 3.46245L13.5578 3.47598L13.6999 3.39356ZM13.7448 3.58894L13.742 3.59283L13.7543 3.5872L13.7448 3.58894ZM13.7448 3.58894L13.7465 3.58643L13.7417 3.5895L13.7448 3.58894ZM13.9768 3.54678L13.9636 3.54919C13.9029 3.595 13.8497 3.63729 13.828 3.65868L13.8381 3.66997L14.0101 3.54074L13.9969 3.54313L14.0243 3.52285L14.0037 3.52659L13.9768 3.54678ZM13.9768 3.54678L13.8288 3.65801L13.8389 3.6693C13.8629 3.64563 13.927 3.59524 13.9969 3.54313L13.9768 3.54678ZM14.1174 3.59905L14.1173 3.59929L14.1176 3.59911L14.1174 3.59905ZM14.1174 3.59905L14.1202 3.59164L14.11 3.59586L14.1174 3.59905ZM14.114 3.58294L14.1044 3.59L14.1059 3.58628L14.114 3.58294ZM13.8238 3.75794L13.8241 3.75782L13.8233 3.75616L13.8007 3.76646L13.8075 3.76413C13.79 3.77298 13.7719 3.78194 13.7535 3.79089C13.768 3.79103 13.7849 3.78773 13.8051 3.78105L13.8297 3.76981L13.8238 3.75794ZM13.8238 3.75794L13.823 3.7563L13.8075 3.76413C13.8127 3.76229 13.8181 3.76023 13.8238 3.75794ZM13.7497 3.57273L13.7318 3.5809L13.734 3.57776L13.7389 3.5747L13.7497 3.57273ZM13.5609 3.62694L13.5613 3.62692L13.5611 3.62646L13.56 3.62699L13.5608 3.62661L13.5609 3.62694ZM13.5609 3.62694L13.56 3.62699C13.5551 3.62957 13.5454 3.63511 13.5329 3.64235C13.5429 3.64271 13.5532 3.64252 13.5638 3.64182L13.5676 3.6401L13.5609 3.62694ZM13.4509 3.37317C13.4317 3.37842 13.4125 3.38312 13.3935 3.38722L13.3955 3.38377L13.401 3.38015L13.4509 3.37317ZM13.204 3.406L13.2085 3.41497L13.1953 3.42064C13.1868 3.42014 13.1783 3.41943 13.1701 3.41852L13.1944 3.40548L13.204 3.406ZM13.204 3.406L13.2048 3.40604L13.2024 3.40118L13.1926 3.40539L13.1944 3.40548L13.2017 3.40149L13.204 3.406ZM12.9381 2.94799L12.9406 2.94663L12.5886 2.85928C12.6192 2.85152 12.6483 2.83802 12.674 2.81842L12.6701 2.8151L12.668 2.80392L12.6624 2.80819L12.6701 2.8151L12.6704 2.81695L12.6564 2.81252C12.6255 2.83376 12.5899 2.8462 12.5532 2.85051L12.3759 2.8065C12.3937 2.81892 12.4132 2.82892 12.4337 2.83637L12.3693 2.82039C12.3592 2.81356 12.3497 2.80603 12.3408 2.79779L12.3401 2.79762L12.3405 2.7975L12.3387 2.79587L12.3393 2.78211L12.3282 2.78531C12.3316 2.78894 12.3351 2.79246 12.3387 2.79587L12.3387 2.79628L12.3183 2.78817L12.3104 2.79027L12.0098 2.71568C12.0101 2.72122 12.0109 2.72661 12.0123 2.73181L12.0028 2.72946L12.003 2.7295L12.0026 2.7294L12.0028 2.72946L11.9955 2.72808C12.009 2.80763 12.1243 2.85335 12.3105 2.8058L12.3693 2.82039C12.4221 2.85639 12.4885 2.87252 12.5521 2.86577L12.9046 2.95322C12.7065 2.98703 12.3615 2.98249 12.0765 2.9432L11.7042 2.85176C11.7908 2.89168 11.9252 2.92234 12.0765 2.9432L12.1956 2.97244C12.154 2.96828 12.113 2.96343 12.0732 2.9579L11.7011 2.86652L11.7032 2.86581L11.6992 2.86596L11.6997 2.86617L11.7011 2.86652L11.7008 2.86664C11.7889 2.90646 11.9229 2.93703 12.0732 2.9579L12.7368 3.12087L12.7187 3.12182L11.693 2.98113C11.7014 2.98775 11.7111 2.99419 11.7223 3.00035L11.6932 2.99636L11.6958 2.99368L11.6893 2.99583L11.6932 2.99636L11.6914 2.99835C11.7089 3.01107 11.7307 3.02284 11.7566 3.03284C11.9352 3.10171 12.4296 3.15023 12.718 3.13692L12.7516 3.14152L12.7768 3.13308L12.7776 3.13301C12.7782 3.13743 12.7793 3.1416 12.7809 3.14555L12.7834 3.14589L12.7821 3.1326L12.7852 3.13232L12.7853 3.13095L12.7827 3.13059L12.7837 3.11733L12.7774 3.11791L12.7777 3.11541L12.1956 2.97244C12.4509 2.99799 12.7287 2.9975 12.9015 2.969C12.9079 2.96506 12.9144 2.96117 12.9212 2.95734L12.9378 2.96147L12.9381 2.94799ZM12.9381 2.94799L12.9212 2.95734L12.9046 2.95322C12.9163 2.95122 12.9275 2.94908 12.9381 2.94682L12.9381 2.94799ZM12.7772 3.12984C12.7769 3.12604 12.777 3.12207 12.7774 3.11791C12.7645 3.11907 12.7509 3.12005 12.7368 3.12087L12.7683 3.12862L12.7187 3.12182C12.6892 3.1232 12.6575 3.12393 12.6242 3.12405L11.7223 3.00035C11.7341 3.00689 11.7474 3.0131 11.7622 3.01882C11.9206 3.07991 12.3342 3.12508 12.6242 3.12405L12.718 3.13692C12.7387 3.13597 12.7584 3.13469 12.7768 3.13308L12.7776 3.13282L12.7776 3.13301L12.7821 3.1326L12.782 3.13198L12.7826 3.13213L12.7827 3.13059L12.7772 3.12984ZM12.7773 3.13083L12.7772 3.12984L12.7683 3.12862L12.7773 3.13083ZM12.7808 3.1317L12.7776 3.13282L12.7773 3.13083L12.7808 3.1317ZM12.7808 3.1317L12.782 3.13198L12.7819 3.13133L12.7808 3.1317ZM12.4874 2.84971L12.4337 2.83637C12.451 2.84268 12.4691 2.84716 12.4874 2.84971ZM12.4874 2.84971L12.5521 2.86577C12.5644 2.86446 12.5766 2.86231 12.5886 2.85928L12.5532 2.85051C12.5314 2.85306 12.5092 2.85275 12.4874 2.84971ZM12.2786 2.79789C12.2889 2.79566 12.2995 2.79312 12.3104 2.79027L12.3401 2.79762C12.33 2.8006 12.3201 2.80333 12.3105 2.8058L12.2786 2.79789ZM12.2786 2.79789L12.0123 2.73181C12.0286 2.79505 12.1226 2.83148 12.2786 2.79789ZM12.0134 2.6659L12.0198 2.6671L12.0218 2.66267L12.0134 2.6659ZM14.4526 3.73807L14.453 3.73768L14.4529 3.73695L14.3861 3.78617C14.4074 3.77513 14.4284 3.76044 14.4486 3.74176C14.3951 3.80151 14.2436 3.91089 14.116 3.9852L14.1245 3.9977L14.4627 3.74853L14.4526 3.73807ZM14.4526 3.73807L14.4486 3.74176L14.4522 3.73767L14.4526 3.73807ZM14.1751 3.7923L14.1763 3.79276L14.1804 3.78876L14.1709 3.7771L14.1584 3.78489L14.1611 3.78623C14.1346 3.81098 14.0976 3.8391 14.0554 3.86704L13.9938 3.90556C13.9449 3.93432 13.893 3.96099 13.8442 3.98125L13.8513 3.99454L13.9938 3.90556C14.0151 3.893 14.0358 3.88004 14.0554 3.86704L14.1751 3.7923ZM14.1751 3.7923L14.1791 3.78981L14.1696 3.77815L14.1611 3.78623C14.1656 3.7884 14.1702 3.79043 14.1751 3.7923ZM14.099 3.7261L14.0996 3.72729L14.1075 3.72099L14.0987 3.70873L14.0936 3.71176L14.0938 3.71253C14.0509 3.74676 13.9868 3.79083 13.9177 3.83398L13.8106 3.8977C13.7472 3.93348 13.6865 3.96399 13.6409 3.98116L13.6476 3.99463L13.8106 3.8977C13.8461 3.87764 13.8825 3.85593 13.9177 3.83398L14.099 3.7261ZM14.099 3.7261C14.097 3.72174 14.0953 3.71722 14.0938 3.71253L14.0978 3.70936L14.1066 3.72161L14.099 3.7261ZM13.6773 3.7138L13.6773 3.7145L13.6888 3.70811L13.6816 3.69483L13.677 3.6971L13.677 3.69741C13.5538 3.76592 13.3378 3.87424 13.265 3.89919L13.2709 3.91303L13.6773 3.7138ZM13.6773 3.7138C13.6767 3.70848 13.6766 3.70303 13.677 3.69741L13.6813 3.69502L13.6885 3.7083L13.6773 3.7138ZM13.407 3.59836L13.4075 3.59883L13.4131 3.59528L13.4055 3.58224L13.3956 3.58714L13.3964 3.58799C13.346 3.61994 13.3073 3.64396 13.2677 3.66721L12.9848 3.80709C12.9555 3.81763 12.9283 3.82556 12.9036 3.83064L12.9086 3.84474L12.9848 3.80709C13.0174 3.79535 13.0527 3.78035 13.0905 3.7624C13.13 3.74361 13.1715 3.72188 13.2148 3.69758C13.2333 3.68721 13.2506 3.67728 13.2677 3.66721L13.407 3.59836ZM13.407 3.59836C13.4032 3.59506 13.3997 3.5916 13.3964 3.58799L13.4048 3.58264L13.4124 3.59569L13.407 3.59836ZM13.3613 3.49427L13.3613 3.49552L13.3715 3.48956L13.3643 3.47629L13.3623 3.47722L13.3622 3.47746C13.3086 3.509 13.2593 3.53719 13.2132 3.56239L12.9259 3.69452C12.892 3.70626 12.8582 3.71633 12.8238 3.72498L12.829 3.73909L12.9259 3.69452C13.0151 3.66362 13.1057 3.62113 13.2132 3.56239L13.3613 3.49427ZM13.3613 3.49427L13.3708 3.48992L13.3636 3.47664L13.3622 3.47746C13.3617 3.48314 13.3614 3.48874 13.3613 3.49427ZM13.0684 3.35214L13.0685 3.35252L13.074 3.35016L13.0683 3.33619L13.0624 3.33825L13.0625 3.33867C12.9264 3.39754 12.6843 3.48049 12.4993 3.53393L12.504 3.54825L13.0684 3.35214ZM13.0684 3.35214C13.0662 3.34777 13.0642 3.34327 13.0625 3.33867L13.0678 3.3364L13.0734 3.35038L13.0684 3.35214ZM12.9345 3.21077L12.9351 3.21085L12.937 3.20963L12.9297 3.19643L12.9068 3.20612L12.9127 3.20721C12.8894 3.22194 12.8651 3.23653 12.8401 3.2508L12.4487 3.41666C12.4234 3.42306 12.399 3.42803 12.3761 3.43134L12.3802 3.4457L12.4487 3.41666C12.57 3.38603 12.7142 3.32254 12.8401 3.2508L12.9345 3.21077ZM12.9345 3.21077C12.9272 3.2097 12.9199 3.20852 12.9127 3.20721L12.9285 3.19706L12.9358 3.21026L12.9345 3.21077ZM11.6612 3.06922L11.6617 3.07085L11.6691 3.06968L11.6688 3.05426C11.6654 3.0539 11.6618 3.05366 11.658 3.05354L11.6582 3.05564L11.5443 3.0737L11.5484 3.08859C11.5797 3.07572 11.6292 3.0674 11.6612 3.06922ZM11.6612 3.06922C11.6599 3.06469 11.6589 3.06016 11.6582 3.05564L11.6668 3.05428L11.6672 3.0697L11.6612 3.06922ZM11.6469 2.9502L11.6474 2.95104L11.6519 2.95144L11.6546 2.93669L11.64 2.93264L11.6408 2.93533C11.6145 2.93292 11.589 2.93023 11.5642 2.92723L11.1183 2.80347C11.1005 2.79412 11.0833 2.78423 11.0665 2.7738L11.0604 2.7874L11.1183 2.80347C11.2376 2.86627 11.3813 2.9051 11.5642 2.92723L11.6469 2.9502ZM11.6469 2.9502C11.6443 2.94522 11.6422 2.94025 11.6408 2.93533L11.6532 2.93644L11.6505 2.95118L11.6469 2.9502ZM11.5892 2.74747L11.5891 2.74792L11.5951 2.74974L11.6 2.73502L11.5931 2.73235L11.5929 2.73283L11.3097 2.64675L11.3097 2.64673L11.3054 2.66166C11.3436 2.67281 11.4571 2.70408 11.4474 2.70137C11.4636 2.7059 11.4775 2.70996 11.4909 2.714C11.5252 2.72433 11.5562 2.73485 11.5892 2.74747ZM11.5892 2.74747L11.5946 2.74956L11.5995 2.73484L11.5929 2.73283C11.591 2.73756 11.5898 2.74246 11.5892 2.74747ZM11.9159 2.59865L11.9165 2.59974L11.9169 2.59982L11.9208 2.58531L11.9091 2.58123L11.9098 2.58331C11.8781 2.57782 11.8479 2.57203 11.8194 2.56585L11.5684 2.47819C11.5518 2.4684 11.5366 2.45796 11.5228 2.44677L11.5154 2.45968L11.5684 2.47819C11.6318 2.51561 11.7153 2.54334 11.8194 2.56585L11.9157 2.5995L11.9159 2.59865ZM11.9159 2.59865C11.9135 2.5937 11.9115 2.58857 11.9098 2.58331L11.9195 2.58498L11.9159 2.59865ZM11.9314 2.47212L11.9207 2.47385C11.919 2.47699 11.9173 2.48026 11.9158 2.48364L11.9259 2.48627L11.9298 2.48975C11.9152 2.52211 11.9143 2.56615 11.9329 2.59808C11.9585 2.64202 12.0175 2.66366 12.1145 2.65395L12.127 2.66507L12.1312 2.65202L12.1145 2.65395L11.9298 2.48975L11.9308 2.48752C11.9396 2.48971 11.9483 2.49178 11.9571 2.49373L11.9333 2.47261C11.9586 2.47898 11.9841 2.48434 12.0097 2.48864L12.0504 2.50925L12.0548 2.49509C12.0397 2.49331 12.0247 2.49116 12.0097 2.48864L11.4041 2.18234C11.3899 2.16998 11.3759 2.15736 11.3621 2.14448L11.3533 2.15664L11.4041 2.18234C11.5625 2.32019 11.7429 2.42424 11.9314 2.47212ZM11.9314 2.47212L11.9326 2.47193L11.9333 2.47261L11.9314 2.47212ZM11.9308 2.48752L11.9259 2.48627L11.9223 2.4831L11.9341 2.48117L11.9308 2.48752ZM14.4588 3.85061C14.4272 3.89218 14.3477 3.98431 14.2971 4.03773L14.3085 4.04774L14.4708 3.85999L14.4588 3.85061ZM14.4591 3.85024L14.4711 3.85962C14.4391 3.90166 14.3593 3.99419 14.3083 4.04799L14.2969 4.03799L14.4591 3.85024ZM17.0206 2.67299C17.0136 2.67551 16.8089 2.74809 16.7355 2.77324L16.6702 2.79536C16.5182 2.84614 16.4038 2.87916 16.3318 2.89099L16.3354 2.90558L17.0255 2.68724L17.0206 2.67299Z" fill="black"/>
<path fill-rule="evenodd" clip-rule="evenodd" d="M14.0648 2.61442C14.0879 2.60241 14.0993 2.59901 14.1253 2.59417C14.1317 2.59296 14.1356 2.59211 14.1398 2.59091C14.1562 2.58625 14.1703 2.57728 14.1891 2.55849C14.2001 2.54752 14.2116 2.53643 14.2236 2.5253L14.655 2.28328C14.6758 2.30282 14.6995 2.30804 14.7356 2.29483C14.7611 2.28541 14.7739 2.26721 14.7789 2.24101C14.7804 2.23354 14.7808 2.22875 14.7819 2.21497L14.7821 2.21197L14.8256 2.18756C14.8345 2.18698 14.8435 2.18682 14.853 2.18705L14.8534 2.172L14.8256 2.18756C14.8129 2.1884 14.8007 2.19008 14.7882 2.19265L14.7876 2.19278L14.7863 2.17769L14.7687 2.19639L14.7842 2.17887L14.7862 2.17769C14.7838 2.17791 14.7817 2.17835 14.7798 2.17905C14.7608 2.18332 14.7409 2.18959 14.7153 2.19911C14.6984 2.20539 14.6253 2.23423 14.6261 2.23394C14.5127 2.278 14.3111 2.41657 14.1838 2.54239L14.1228 2.5793L14.1224 2.57938C14.0951 2.58448 14.0823 2.58827 14.0576 2.60112L14.0648 2.61442ZM14.1299 2.57787L14.1228 2.5793L14.0648 2.61442L14.1299 2.57787ZM14.1711 2.5548L14.1782 2.54794L14.1838 2.54239L14.2472 2.50398C14.2392 2.51109 14.2313 2.5182 14.2236 2.5253L14.1711 2.5548ZM14.6201 2.25266C14.5222 2.29405 14.3663 2.39866 14.2472 2.50398L14.6398 2.26632L14.6459 2.27362L14.6459 2.27362L14.6473 2.27523C14.6498 2.27813 14.6524 2.28082 14.655 2.28328L14.6693 2.27529C14.685 2.28814 14.7025 2.29044 14.7303 2.28023C14.7502 2.27288 14.7598 2.2593 14.7639 2.23804C14.7649 2.23277 14.7654 2.22888 14.7661 2.22099L14.7821 2.21197C14.7834 2.19725 14.7849 2.1934 14.7876 2.19315L14.7876 2.19278L14.7764 2.19489L14.7706 2.19597L14.7687 2.19639C14.7695 2.19231 14.7705 2.18901 14.7718 2.18639L14.7842 2.17887L14.7851 2.17792L14.7798 2.17905C14.7763 2.18041 14.7737 2.18276 14.7718 2.18639L14.7387 2.20642C14.7239 2.21203 14.7012 2.22085 14.6647 2.23507L14.6647 2.23507L14.6404 2.24455C14.6324 2.23801 14.6242 2.23626 14.6147 2.24057L14.6201 2.25266ZM14.6531 2.25824L14.6398 2.26632C14.6371 2.26312 14.6344 2.26001 14.6332 2.25885C14.6281 2.25378 14.6252 2.25281 14.621 2.25473L14.6201 2.25266L14.6317 2.24794L14.6404 2.24455L14.644 2.24779C14.6457 2.24953 14.6497 2.25421 14.6531 2.25824ZM14.6531 2.25824L14.6584 2.26449L14.6584 2.26449L14.6587 2.26491C14.6622 2.2689 14.6657 2.27237 14.6693 2.27529L14.7661 2.22099L14.7666 2.21376C14.7672 2.20682 14.7678 2.20108 14.7687 2.19639C14.7627 2.19774 14.7558 2.19997 14.7387 2.20642L14.6531 2.25824ZM14.1711 2.5548L14.1299 2.57787L14.1356 2.57645C14.1472 2.57313 14.1576 2.56712 14.1711 2.5548ZM17.3734 2.97112L17.3663 2.97372L17.361 2.95959L17.3733 2.95512C17.3737 2.96027 17.3738 2.96561 17.3734 2.97112ZM17.3151 3.10475C17.3384 3.0769 17.3599 3.03708 17.3688 3.00084C17.3714 2.99047 17.3729 2.98054 17.3734 2.97112C17.7074 2.84988 17.8938 2.77191 18.1178 2.64491C18.2336 2.57927 18.3412 2.50838 18.4404 2.4311L18.4309 2.4193C18.3323 2.4961 18.2253 2.56659 18.1102 2.63187C17.8882 2.75767 17.7033 2.83523 17.3733 2.95512C17.3709 2.92457 17.3559 2.90076 17.3271 2.8869C17.6192 2.79361 17.8924 2.66806 17.997 2.56714L17.9863 2.55639C17.8814 2.65755 17.6006 2.78532 17.3034 2.87855C17.3122 2.8807 17.32 2.8835 17.3271 2.8869L17.3038 2.89424L17.2997 2.89315L17.3034 2.87855C17.2162 2.90592 17.1275 2.93031 17.0414 2.95018C17.0214 2.94073 16.9971 2.93273 16.9685 2.92632C16.7856 2.88539 16.5104 2.9287 16.3421 3.02399C16.3195 3.01838 16.297 3.01323 16.275 3.00862C16.3261 2.96389 16.3529 2.90649 16.3321 2.85258L16.3178 2.85793C16.36 2.96721 16.1729 3.09935 16.0124 3.06957L16.0095 3.08437C16.0981 3.1008 16.1944 3.07075 16.2599 3.0209C16.3409 3.03729 16.4296 3.06149 16.509 3.08876L16.5091 3.08975L16.5109 3.08944C16.6041 3.1216 16.6843 3.15797 16.7237 3.19085C16.7692 3.22875 16.7932 3.26244 16.7918 3.28818C16.7902 3.31643 16.7569 3.33817 16.6859 3.35052C16.5975 3.36597 16.5408 3.36987 16.462 3.36145L16.4161 3.35282L16.4156 3.35549C16.3863 3.3512 16.3536 3.34556 16.3154 3.33854C16.2069 3.26335 16.0404 3.18941 15.8685 3.13127L15.8635 3.14551C16.0329 3.20278 16.1974 3.27579 16.3044 3.34928L16.3039 3.35172L16.3093 3.35273C16.3399 3.37408 16.3655 3.39545 16.3849 3.41646C16.4319 3.46748 16.426 3.50134 16.3744 3.52086C16.3235 3.54013 16.2331 3.5423 16.1294 3.52692C15.9345 3.4979 15.6109 3.33513 15.4465 3.19082L15.4363 3.20205C15.5356 3.28924 15.6918 3.38281 15.8437 3.45038L15.8433 3.45079C15.8807 3.48788 15.9156 3.54195 15.9312 3.59115C15.9458 3.63727 15.9269 3.6598 15.8838 3.65644C15.826 3.6521 15.7834 3.64226 15.7277 3.6162L15.7255 3.62083C15.6988 3.59086 15.6629 3.56229 15.6176 3.53799C15.494 3.47156 15.3329 3.33199 15.258 3.22961L15.2456 3.23841C15.3218 3.34261 15.4847 3.4837 15.6103 3.5512C15.7525 3.62749 15.796 3.74458 15.7526 3.80648C15.7144 3.86124 15.5866 3.86842 15.4592 3.79404C15.3069 3.70504 15.131 3.42217 15.1074 3.2229L15.0922 3.22464C15.1163 3.42844 15.2949 3.71551 15.4514 3.80698C15.4768 3.82185 15.5024 3.8336 15.5274 3.84246C15.539 3.87384 15.5437 3.913 15.5408 3.97418C15.5371 4.05088 15.4797 4.1027 15.4097 4.07672C15.3406 4.05112 15.2873 3.99417 15.2516 3.92338L15.2379 3.93007C15.2752 4.00397 15.331 4.06365 15.4043 4.09081C15.4236 4.09794 15.442 4.1 15.459 4.09784C15.5003 4.18413 15.5231 4.24744 15.5202 4.27047C15.5158 4.30518 15.5066 4.31577 15.4743 4.30838L15.4708 4.32304C15.5142 4.33295 15.53 4.3147 15.5354 4.27232C15.5387 4.24553 15.5162 4.18235 15.4743 4.09463C15.4829 4.09212 15.491 4.08846 15.4985 4.08381C15.5568 4.15949 15.5995 4.2134 15.652 4.27574C15.6678 4.29444 15.6832 4.31224 15.698 4.32906C15.7532 4.3915 15.8002 4.43859 15.837 4.46677L15.8464 4.45489C15.8106 4.42745 15.7642 4.38094 15.7096 4.31918C15.6948 4.30245 15.6795 4.28474 15.6638 4.26613C15.6115 4.20405 15.5689 4.15031 15.5108 4.07487C15.5371 4.05273 15.5541 4.01689 15.5561 3.97489C15.5579 3.93791 15.5569 3.90848 15.5533 3.88372C15.7051 4.05601 16.0615 4.37935 16.1676 4.43836L16.1751 4.42526C16.0666 4.36489 15.6862 4.01822 15.5475 3.85376L15.5472 3.85403L15.5455 3.84839C15.6345 3.87525 15.7141 3.86528 15.7535 3.82849C15.8424 3.94267 16.1196 4.10297 16.2625 4.12982L16.2654 4.11503C16.125 4.08865 15.848 3.92799 15.7638 3.81698L15.7653 3.81501C15.7912 3.77791 15.7902 3.72485 15.7612 3.67122C15.8622 3.75428 16.0321 3.87675 16.1894 3.98409L16.1981 3.97172C16.03 3.85698 15.8472 3.72469 15.7506 3.64256C15.7948 3.66016 15.8336 3.66777 15.8827 3.67145C15.9054 3.67322 15.9233 3.66842 15.9352 3.65803C16.0421 3.76734 16.317 3.98743 16.4262 4.04042L16.433 4.02692C16.3251 3.97459 16.0494 3.75369 15.9448 3.64611C15.9527 3.63163 15.9536 3.61146 15.9458 3.58668C15.9326 3.54509 15.9066 3.50059 15.8765 3.46461C15.9677 3.50307 16.0557 3.53118 16.1271 3.5418C16.1486 3.54499 16.1695 3.54744 16.1897 3.54915L16.1887 3.55024C16.3231 3.66728 16.5723 3.82747 16.7185 3.89595L16.7251 3.88235C16.585 3.81675 16.3487 3.66566 16.2127 3.5508C16.2533 3.55317 16.2903 3.55236 16.3218 3.54834C16.3635 3.58143 16.4407 3.6278 16.5516 3.68813L16.5964 3.71227C16.6343 3.73255 16.7255 3.78032 16.782 3.80989L16.8286 3.83435L16.8359 3.82111L16.789 3.79654L16.7889 3.79649C16.7324 3.76689 16.6415 3.71926 16.6037 3.69905L16.559 3.67496C16.4582 3.6201 16.3853 3.57683 16.3425 3.54509C16.3564 3.54244 16.3689 3.53905 16.3799 3.53491C16.3912 3.53062 16.4008 3.52555 16.4085 3.51978C16.6918 3.69529 16.8721 3.78793 17.0565 3.83L17.06 3.81534C16.8785 3.77394 16.6998 3.68237 16.42 3.5091C16.4337 3.4928 16.4359 3.47241 16.4257 3.44896C16.4578 3.4616 16.4957 3.47713 16.5438 3.49729L16.7016 3.56385L16.7324 3.5768C16.9091 3.65078 17.0199 3.69298 17.096 3.71218L17.0998 3.6976C17.0248 3.67866 16.9143 3.63661 16.7384 3.56295L16.7076 3.55001L16.5498 3.48344C16.4927 3.45951 16.45 3.44208 16.414 3.42824L16.414 3.42835C16.4091 3.42123 16.4032 3.41389 16.3962 3.40635C16.3817 3.39062 16.3639 3.37476 16.3433 3.35889C16.3887 3.36693 16.4261 3.37273 16.4597 3.37634C16.752 3.43228 17.0342 3.50579 17.1032 3.56392L17.1132 3.55249C17.049 3.49837 16.8176 3.43401 16.5582 3.38053C16.598 3.37924 16.6383 3.37414 16.6886 3.36534C16.7307 3.35802 16.7615 3.34708 16.7811 3.3326L16.7812 3.33363C16.7929 3.33245 16.8044 3.33114 16.8157 3.3297C16.9481 3.38582 17.1605 3.40119 17.263 3.35286C17.2953 3.41605 17.2453 3.51124 17.1877 3.52936L17.1923 3.5437C17.2241 3.53371 17.2534 3.50428 17.2711 3.4684C17.4217 3.50291 17.7601 3.50956 17.9242 3.47416L17.921 3.45894C17.7602 3.49364 17.4274 3.48734 17.2775 3.4539C17.284 3.43704 17.288 3.41921 17.2885 3.40161C17.5134 3.4216 17.7843 3.40495 17.9224 3.34017L17.916 3.32605C17.7806 3.38954 17.5108 3.40596 17.288 3.38595C17.2867 3.37196 17.283 3.35835 17.2765 3.34575L17.2815 3.34266C17.2989 3.33138 17.3132 3.3188 17.3245 3.30544C17.6014 3.26642 17.8056 3.20334 17.9919 3.11178C18.0322 3.09197 18.1166 3.04531 18.1848 3.0076L18.1849 3.00759L18.1849 3.00756L18.1849 3.00754L18.1851 3.00747C18.2303 2.98244 18.2684 2.96137 18.2817 2.95475C18.306 2.94265 18.3288 2.93239 18.3511 2.92354L18.3454 2.90957C18.3226 2.91859 18.2995 2.92903 18.2748 2.94132C18.2612 2.9481 18.2224 2.96953 18.1766 2.99486L18.1766 2.99486L18.1766 2.99488L18.1765 2.99491C18.1085 3.03254 18.0249 3.07876 17.9851 3.09832C17.8035 3.18755 17.6047 3.24953 17.3368 3.28846C17.3493 3.26854 17.3555 3.24744 17.3558 3.22666C17.8214 3.11198 18.2247 2.94091 18.4958 2.72222L18.4861 2.71058C18.2175 2.92719 17.8173 3.09718 17.3549 3.21137C17.3506 3.17843 17.331 3.14726 17.2971 3.124C17.5431 3.07241 17.7047 3.00162 18.016 2.83121L18.0363 2.82007C18.1247 2.77169 18.1724 2.74619 18.2275 2.71853L18.2205 2.70512C18.1653 2.73289 18.1174 2.75845 18.0289 2.80692L18.0086 2.81805C17.7075 2.98284 17.5475 3.05389 17.3151 3.10475ZM17.2967 3.12376C17.3028 3.11841 17.309 3.11198 17.3151 3.10475L17.293 3.10947L17.296 3.12329L17.2883 3.11836L17.2803 3.1312L17.2844 3.13372C17.152 3.2373 17.0214 3.29853 16.8462 3.32543C16.8376 3.32235 16.8294 3.31912 16.8214 3.31574L16.8153 3.32956L16.8157 3.3297C16.826 3.32839 16.8362 3.32696 16.8462 3.32543C16.9841 3.37513 17.1902 3.38382 17.2731 3.33009C17.3612 3.27303 17.3608 3.18282 17.2844 3.13372L17.2925 3.12726L17.2962 3.12419L17.2971 3.124L17.2967 3.12376ZM17.2967 3.12376L17.296 3.12329L17.2962 3.12419L17.2962 3.12419L17.2967 3.12376ZM17.3549 3.21137L17.3434 3.21418L17.3471 3.22879L17.3558 3.22666C17.3559 3.22154 17.3556 3.21643 17.3549 3.21137ZM17.3368 3.28846L17.3165 3.29135L17.3187 3.30625L17.3245 3.30544C17.3291 3.2999 17.3332 3.29423 17.3368 3.28846ZM17.288 3.38595C17.2885 3.39113 17.2886 3.39636 17.2885 3.40161L17.28 3.40084L17.2814 3.38535L17.288 3.38595ZM17.2775 3.4539L17.2688 3.45189L17.2653 3.46702L17.2711 3.4684C17.2734 3.46367 17.2756 3.45883 17.2775 3.4539ZM17.2765 3.34575C17.2723 3.34825 17.2678 3.35062 17.263 3.35286L17.2604 3.34812L17.2736 3.34053L17.2765 3.34575ZM16.7971 3.31677L16.7796 3.31865L16.7811 3.3326C16.7877 3.32772 16.793 3.32245 16.7971 3.31677ZM16.7625 3.20562C16.7927 3.23607 16.8084 3.26408 16.807 3.28901C16.8065 3.29913 16.8032 3.30839 16.7971 3.31677C16.9975 3.29394 17.1383 3.2306 17.2829 3.11556C17.311 3.09313 17.3429 3.04197 17.3539 2.99729C17.3669 2.94472 17.352 2.90791 17.3038 2.89424C17.2232 2.91944 17.1413 2.94208 17.0615 2.96097C17.0554 2.95719 17.0487 2.95359 17.0414 2.95018L17.041 2.95029L17.0445 2.96495L17.0615 2.96097C17.0897 2.97832 17.1063 2.99949 17.1118 3.02374C17.12 3.05978 17.1019 3.09948 17.0686 3.13026C17.0118 3.18294 16.8893 3.21384 16.7625 3.20562ZM16.7449 3.18911C16.7512 3.19469 16.7571 3.20019 16.7625 3.20562C16.7555 3.20517 16.7486 3.20461 16.7417 3.20392L16.7432 3.18895L16.7449 3.18911ZM16.5421 3.08446L16.5109 3.08944L16.509 3.08876L16.5066 3.07441L16.5113 3.0736C16.5217 3.07717 16.532 3.08079 16.5421 3.08446ZM16.3636 3.02943C16.5296 2.94133 16.791 2.90202 16.9651 2.941C17.0463 2.95919 17.0884 2.98959 17.0969 3.02701C17.1037 3.05705 17.0878 3.09181 17.0582 3.1193C17.0021 3.17123 16.8744 3.2015 16.7449 3.18911L16.7336 3.17937C16.6964 3.14838 16.6257 3.11486 16.5421 3.08446C16.6655 3.06576 16.8571 3.04754 16.9564 3.04754V3.03199C16.8483 3.03199 16.6324 3.05332 16.5113 3.0736C16.4641 3.05743 16.4137 3.0424 16.3636 3.02943ZM16.3636 3.02943L16.3421 3.02399L16.3383 3.02616L16.346 3.03914C16.3518 3.03584 16.3576 3.03261 16.3636 3.02943ZM16.5582 3.38053C16.5266 3.38156 16.4954 3.38018 16.4597 3.37634L16.4133 3.36762L16.4156 3.35549C16.432 3.3579 16.4474 3.35989 16.462 3.36145C16.4943 3.36762 16.5265 3.374 16.5582 3.38053ZM16.414 3.42835L16.4084 3.44226L16.4257 3.44896C16.4228 3.44232 16.4189 3.43545 16.414 3.42835ZM16.42 3.5091C16.4168 3.51289 16.4129 3.51645 16.4085 3.51978L16.4036 3.51676L16.4118 3.50403L16.42 3.5091ZM16.3425 3.54509C16.3379 3.54169 16.3337 3.53842 16.3298 3.53528L16.3201 3.54693L16.3218 3.54834C16.329 3.54742 16.3359 3.54634 16.3425 3.54509ZM16.2127 3.5508C16.2051 3.55036 16.1975 3.54981 16.1897 3.54915L16.1988 3.53896L16.2127 3.5508ZM15.9448 3.64611L15.9406 3.64181L15.9295 3.65212L15.9352 3.65803C15.939 3.65464 15.9423 3.65066 15.9448 3.64611ZM15.7397 3.63811L15.7506 3.64256C15.743 3.63616 15.736 3.63006 15.7296 3.6243L15.729 3.62489L15.7255 3.62083L15.7211 3.6298L15.7235 3.63089L15.7193 3.63543C15.7314 3.64626 15.7455 3.65826 15.7612 3.67122C15.7552 3.66016 15.7481 3.64908 15.7397 3.63811ZM15.7397 3.63811L15.7235 3.63089L15.729 3.62489C15.7328 3.62927 15.7364 3.63368 15.7397 3.63811ZM15.7638 3.81698C15.7608 3.82107 15.7573 3.82491 15.7535 3.82849L15.7469 3.81962L15.7595 3.81103L15.7638 3.81698ZM15.5472 3.85403C15.5497 3.86321 15.5517 3.87303 15.5533 3.88372L15.5357 3.86336L15.5472 3.85403ZM15.5108 4.07487L15.5063 4.06899L15.4941 4.07807L15.4985 4.08381C15.5028 4.08115 15.5069 4.07816 15.5108 4.07487ZM15.4743 4.09463L15.4692 4.0839L15.4553 4.09038L15.459 4.09784C15.4642 4.09717 15.4694 4.09609 15.4743 4.09463ZM15.5455 3.84839C15.5441 3.84377 15.5426 3.8393 15.5409 3.83496L15.5266 3.84026L15.5274 3.84246C15.5335 3.84461 15.5395 3.84658 15.5455 3.84839ZM15.8765 3.46461C15.8656 3.46001 15.8547 3.45527 15.8437 3.45038L15.8541 3.44018C15.8617 3.44772 15.8692 3.45592 15.8765 3.46461ZM16.3433 3.35889C16.3345 3.3521 16.3252 3.34532 16.3154 3.33854L16.3067 3.33693L16.3044 3.34928L16.3093 3.35273L16.3433 3.35889ZM16.2599 3.0209C16.2652 3.01693 16.2702 3.01283 16.275 3.00862L16.2563 3.0048L16.2532 3.01956L16.2599 3.0209ZM15.3257 2.86835C15.2615 2.88623 15.2255 2.90431 15.158 2.9469L15.166 2.96011C15.2325 2.91825 15.2673 2.90076 15.3297 2.88335L15.3257 2.86835ZM15.624 3.17914C15.8003 3.27714 16.0371 3.38728 16.2016 3.44582L16.2068 3.43166C16.0432 3.37343 15.8071 3.26364 15.6316 3.16604L15.624 3.17914ZM16.2647 3.18764C16.1376 3.16192 16.0278 3.14509 15.9171 3.13565L15.9184 3.12065C16.0298 3.13015 16.1401 3.14707 16.2678 3.1729C16.319 3.18325 16.3719 3.19477 16.4396 3.21013L16.6165 3.25052L16.613 3.26519L16.4362 3.2248C16.3686 3.20946 16.3158 3.19797 16.2647 3.18764ZM15.1685 3.23976C15.1996 3.33177 15.4198 3.60273 15.5237 3.66695L15.5318 3.6542C15.4309 3.59182 15.2129 3.32366 15.183 3.23501L15.1685 3.23976ZM15.3619 3.89201C15.3275 3.80973 15.1146 3.49806 15.0005 3.35118L15.0127 3.34204C15.1276 3.49002 15.341 3.80235 15.376 3.88629L15.3619 3.89201ZM15.3081 3.21852C15.3792 3.29776 15.6121 3.472 15.7181 3.51401L15.7238 3.50004C15.6202 3.45899 15.3892 3.28615 15.3196 3.20856L15.3081 3.21852ZM14.8756 2.37415C14.8328 2.39598 14.8015 2.42791 14.7757 2.47236L14.7889 2.48026C14.8133 2.43824 14.8424 2.40845 14.8825 2.38806L14.8756 2.37415ZM14.164 2.86592C14.1598 2.80926 14.1658 2.73549 14.1814 2.6825L14.1961 2.68671C14.181 2.73783 14.1752 2.80984 14.1793 2.86482L14.164 2.86592ZM14.1745 2.95927C14.1619 3.0118 14.1712 3.13403 14.1883 3.20163L14.2032 3.19799C14.1866 3.13251 14.1775 3.0125 14.1894 2.96272L14.1745 2.95927ZM14.2286 3.36356C14.2215 3.35247 14.2162 3.34203 14.2127 3.33222L14.2271 3.32697C14.2301 3.33552 14.235 3.34492 14.2415 3.35507C14.2496 3.36777 14.2601 3.3813 14.2728 3.39576C14.2832 3.40772 14.2918 3.41671 14.3081 3.43337L14.2972 3.44434C14.2807 3.42748 14.2721 3.41834 14.2613 3.4061C14.2482 3.39111 14.2372 3.377 14.2286 3.36356ZM14.2882 3.04916C14.2812 3.13648 14.3301 3.30222 14.3798 3.35842C14.3907 3.45137 14.4564 3.58442 14.5492 3.67612L14.5601 3.6655C14.4697 3.57616 14.4054 3.44618 14.3932 3.35251C14.3445 3.29555 14.2967 3.13382 14.3034 3.05035L14.2882 3.04916ZM14.2675 2.95181C14.2596 2.89662 14.2577 2.84128 14.2642 2.80612L14.2792 2.80878C14.2731 2.84204 14.275 2.89597 14.2827 2.94971L14.2675 2.95181ZM14.3991 2.46337C14.3686 2.5388 14.3516 2.69841 14.3607 2.76071C14.3624 2.77264 14.3622 2.77566 14.3568 2.82577C14.3471 2.91716 14.3509 2.98648 14.3817 3.07601L14.3962 3.07118C14.3662 2.98404 14.3625 2.91677 14.3721 2.82735C14.3777 2.77497 14.3779 2.77243 14.3759 2.75858C14.3671 2.69881 14.3839 2.54185 14.4134 2.46893L14.3991 2.46337ZM14.5059 3.04167C14.4733 2.93419 14.4721 2.67608 14.5058 2.53952L14.5207 2.54307C14.4876 2.67714 14.4888 2.93255 14.5206 3.03736L14.5059 3.04167ZM14.4643 3.08217C14.4459 3.16235 14.4478 3.25517 14.4715 3.32503L14.486 3.32027C14.4633 3.25317 14.4614 3.16312 14.4792 3.08549L14.4643 3.08217ZM14.7422 2.95916C14.6504 2.85875 14.5949 2.70902 14.5987 2.59212L14.614 2.5926C14.6103 2.70562 14.6645 2.85157 14.7536 2.9491L14.7422 2.95916ZM14.5746 2.96726C14.564 3.09696 14.5716 3.2161 14.5957 3.28417C14.6019 3.30174 14.6062 3.32309 14.6124 3.3622L14.6183 3.40029C14.6208 3.41529 14.623 3.42793 14.6253 3.44003C14.6369 3.49909 14.6521 3.54255 14.6761 3.57615L14.6886 3.56748C14.6661 3.536 14.6515 3.49433 14.6404 3.43719C14.638 3.42527 14.6359 3.41279 14.6335 3.39793L14.6275 3.3599C14.6212 3.31989 14.6168 3.29795 14.6101 3.27923C14.5869 3.21352 14.5794 3.09627 14.5898 2.96846L14.5746 2.96726ZM14.6979 3.17875L14.6921 3.15742L14.7069 3.15356L14.7127 3.17497C14.7206 3.20514 14.7253 3.22789 14.7275 3.2506C14.7306 3.28339 14.7276 3.31169 14.7169 3.33588L14.7029 3.32988C14.7124 3.30832 14.7152 3.28248 14.7123 3.25202C14.7102 3.23027 14.7056 3.20821 14.6979 3.17875ZM14.782 3.05869C14.8074 3.14067 14.8233 3.24098 14.8196 3.28457L14.8349 3.28581C14.8387 3.24003 14.8226 3.13795 14.7966 3.0543L14.782 3.05869ZM14.8897 3.72223C14.8581 3.6679 14.8296 3.58112 14.823 3.51108L14.8383 3.50971C14.8446 3.57756 14.8725 3.66228 14.9029 3.71477L14.8897 3.72223ZM14.7095 3.7175C14.7384 3.80288 14.788 3.89103 14.8329 3.92577L14.8424 3.91394C14.8004 3.88146 14.7521 3.79557 14.724 3.71275L14.7095 3.7175ZM15.1341 3.95643C15.1034 3.86546 15.0833 3.82126 15.0349 3.75367L15.0474 3.745C15.0969 3.81404 15.1175 3.85945 15.1486 3.95169L15.1341 3.95643Z" fill="black"/>
<path fill-rule="evenodd" clip-rule="evenodd" d="M14.4744 3.77382C14.4839 3.77482 14.4899 3.77519 14.5063 3.776C14.5444 3.77786 14.5578 3.78167 14.575 3.7995C14.5863 3.81125 14.5975 3.82901 14.6097 3.85487C14.652 3.94514 14.7678 4.08315 14.8355 4.12614L14.8354 4.12618C14.925 4.28071 14.9648 4.4847 14.937 4.59419C14.929 4.54602 14.9012 4.50895 14.8582 4.47859C14.8415 4.4668 14.8309 4.46079 14.8019 4.44566C14.7636 4.47852 14.7076 4.51635 14.6794 4.52226L14.6826 4.53698C14.7145 4.53031 14.7729 4.49079 14.804 4.45738C14.8181 4.46948 14.8274 4.4758 14.8377 4.48282L14.8493 4.49082C14.8893 4.51908 14.9147 4.553 14.9219 4.59682L14.9369 4.59443L14.9359 4.59823L14.9507 4.60216C14.9804 4.49414 14.9445 4.29555 14.8598 4.13862C14.9641 4.18571 15.0308 4.23878 15.0439 4.31364L15.0584 4.31544L15.0659 4.29896C15.1007 4.22215 15.1139 4.16936 15.1007 4.11485L15.102 4.1164L15.1142 4.13086C15.1526 4.17616 15.1808 4.2095 15.2018 4.2347L15.2003 4.2349C15.2024 4.24924 15.2043 4.27107 15.2066 4.30437L15.214 4.41746C15.2195 4.49654 15.225 4.54923 15.2325 4.58359L15.2475 4.58043C15.2402 4.54702 15.2347 4.49478 15.2293 4.41643L15.2219 4.30335C15.2205 4.28322 15.2192 4.26722 15.218 4.25444C15.2507 4.2946 15.2592 4.30862 15.2636 4.32383C15.2649 4.32837 15.2659 4.33301 15.267 4.33848L15.2683 4.34462C15.281 4.40447 15.3301 4.48655 15.3793 4.53929L15.3906 4.52911C15.3431 4.4782 15.2954 4.3984 15.2832 4.34153L15.2816 4.33364L15.2816 4.33364L15.2816 4.33364C15.2804 4.32771 15.2794 4.32272 15.278 4.31784C15.2704 4.29163 15.251 4.26882 15.1279 4.12351L15.1137 4.10677C15.1033 4.09443 15.0938 4.08312 15.0849 4.07221L15.072 4.08007C15.1024 4.14513 15.0939 4.1992 15.0536 4.28912C15.0309 4.21741 14.9612 4.16671 14.8579 4.12124C14.7982 4.09502 14.6681 3.94353 14.6236 3.84857C14.6108 3.82134 14.5987 3.80226 14.5861 3.78914C14.5655 3.76776 14.5488 3.76301 14.507 3.76096C14.4909 3.76017 14.4851 3.75981 14.476 3.75885L14.4744 3.77382ZM15.218 4.25444C15.2172 4.24587 15.2163 4.23874 15.2155 4.23279L15.2018 4.2347C15.2078 4.24192 15.2132 4.24847 15.218 4.25444ZM14.9369 4.59443L14.937 4.59442L14.937 4.59419L14.9369 4.59443ZM14.8598 4.13862L14.8516 4.13498C14.8466 4.13278 14.8412 4.12981 14.8355 4.12614L14.8487 4.11872C14.8525 4.12527 14.8562 4.13191 14.8598 4.13862ZM14.5817 4.00198C14.6085 4.08141 14.6298 4.17678 14.632 4.23197L14.6473 4.23139C14.645 4.17455 14.6234 4.07789 14.5962 3.99723L14.5817 4.00198ZM14.8137 4.39357C14.8113 4.34902 14.7828 4.23235 14.7544 4.15462L14.7688 4.14953C14.7976 4.22852 14.8265 4.34653 14.829 4.39278L14.8137 4.39357ZM15.0811 4.36643C15.1033 4.41908 15.1173 4.50219 15.1129 4.55171L15.1281 4.55305C15.1328 4.50104 15.1184 4.4155 15.0952 4.36066L15.0811 4.36643Z" fill="black"/>
</g>
</svg>
