<svg width="20" height="14" viewBox="0 0 20 14" fill="none" xmlns="http://www.w3.org/2000/svg">
<rect x="0.25" y="0.25" width="19.5" height="13.5" rx="1.75" fill="white" stroke="#F5F5F5" stroke-width="0.5"/>
<mask id="mask0_240_9032" style="mask-type:luminance" maskUnits="userSpaceOnUse" x="0" y="0" width="20" height="14">
<rect x="0.25" y="0.25" width="19.5" height="13.5" rx="1.75" fill="white" stroke="white" stroke-width="0.5"/>
</mask>
<g mask="url(#mask0_240_9032)">
<path fill-rule="evenodd" clip-rule="evenodd" d="M0 3.73333H20V0H0V3.73333Z" fill="#FFCB49"/>
<path fill-rule="evenodd" clip-rule="evenodd" d="M0 10.2667H20V6.53333H0V10.2667Z" fill="#DC1D34"/>
<path fill-rule="evenodd" clip-rule="evenodd" d="M0 14H20V10.2667H0V14Z" fill="#4985D4"/>
<path fill-rule="evenodd" clip-rule="evenodd" d="M0 14L9.52381 7L0 0V14Z" fill="#4BA343"/>
<path fill-rule="evenodd" clip-rule="evenodd" d="M3.80954 9.80001C4.05618 9.80001 4.29552 9.76938 4.52382 9.7118C3.29152 9.40097 2.38096 8.3047 2.38096 7.00001C2.38096 5.69532 3.29152 4.59905 4.52382 4.28822C4.29552 4.23064 4.05618 4.20001 3.80954 4.20001C2.23158 4.20001 0.952393 5.45361 0.952393 7.00001C0.952393 8.54641 2.23158 9.80001 3.80954 9.80001ZM5.7143 5.13335C5.7143 5.39108 5.5011 5.60001 5.23811 5.60001C4.97511 5.60001 4.76192 5.39108 4.76192 5.13335C4.76192 4.87561 4.97511 4.66668 5.23811 4.66668C5.5011 4.66668 5.7143 4.87561 5.7143 5.13335ZM5.23811 7.46668C5.5011 7.46668 5.7143 7.25775 5.7143 7.00001C5.7143 6.74228 5.5011 6.53335 5.23811 6.53335C4.97511 6.53335 4.76192 6.74228 4.76192 7.00001C4.76192 7.25775 4.97511 7.46668 5.23811 7.46668ZM5.7143 8.86668C5.7143 9.12441 5.5011 9.33334 5.23811 9.33334C4.97511 9.33334 4.76192 9.12441 4.76192 8.86668C4.76192 8.60895 4.97511 8.40001 5.23811 8.40001C5.5011 8.40001 5.7143 8.60895 5.7143 8.86668Z" fill="white"/>
</g>
</svg>
