<svg width="20" height="14" viewBox="0 0 20 14" fill="none" xmlns="http://www.w3.org/2000/svg">
<mask id="mask0_3245_60935" style="mask-type:luminance" maskUnits="userSpaceOnUse" x="0" y="0" width="20" height="14">
<rect width="20" height="14" rx="2" fill="white"/>
</mask>
<g mask="url(#mask0_3245_60935)">
<rect width="20" height="14" fill="#EE343C"/>
<path fill-rule="evenodd" clip-rule="evenodd" d="M8.95374 3.17477C8.73042 2.95592 8.38494 2.92185 8.12318 3.09287C7.69071 3.37541 7.73052 4.02136 8.19441 4.24867L8.72565 4.50898C8.92267 4.60552 9.04756 4.80579 9.04756 5.02519C9.04756 5.34268 8.79019 5.60005 8.47271 5.60005H8.24974C8.14805 5.60005 8.04771 5.57679 7.95639 5.53204L6.58954 4.86228C6.35034 4.74508 6.06323 4.79136 5.87298 4.97781C5.56311 5.28148 5.64676 5.80032 6.03636 5.99123L6.50409 6.22041C6.78584 6.35847 6.81002 6.7508 6.54735 6.92241C6.24345 7.12096 6.33459 7.5883 6.69081 7.65813L7.10323 7.73896C7.48246 7.81329 7.59208 8.30316 7.2807 8.53203L6.92859 8.79083C6.69474 8.9627 6.81631 9.33338 7.10653 9.33338C7.13062 9.33338 7.15463 9.33048 7.17803 9.32475L8.09447 9.10022C8.42977 9.01807 8.6898 9.39262 8.49563 9.67806C8.32548 9.92818 8.50462 10.2667 8.80713 10.2667H9.2341C9.40729 10.2667 9.56125 10.377 9.61702 10.5409C9.74139 10.9066 10.2585 10.9066 10.3829 10.5409C10.4386 10.377 10.5926 10.2667 10.7658 10.2667H11.1928C11.4953 10.2667 11.6744 9.92818 11.5043 9.67806C11.3101 9.39262 11.5701 9.01807 11.9054 9.10022L12.8219 9.32475C12.8453 9.33048 12.8693 9.33338 12.8934 9.33338C13.1836 9.33338 13.3051 8.9627 13.0713 8.79083L12.7192 8.53203C12.4078 8.30316 12.5174 7.81329 12.8967 7.73896L13.3091 7.65813C13.6653 7.5883 13.7564 7.12096 13.4525 6.92241C13.1899 6.7508 13.214 6.35847 13.4958 6.22041L13.9635 5.99123C14.3531 5.80032 14.4368 5.28148 14.1269 4.97781C13.9367 4.79136 13.6495 4.74508 13.4103 4.86228L12.0435 5.53204C11.9522 5.57679 11.8518 5.60005 11.7501 5.60005H11.5272C11.2097 5.60005 10.9523 5.34268 10.9523 5.02519C10.9523 4.80579 11.077 4.6056 11.2741 4.50906C11.4414 4.42705 11.6248 4.3372 11.8055 4.24865C12.2694 4.02135 12.3092 3.37541 11.8767 3.09287C11.6149 2.92185 11.2695 2.95592 11.0461 3.17477L10.4666 3.74276C10.2073 3.9968 9.79254 3.9968 9.53332 3.74276L8.95374 3.17477Z" fill="#262626"/>
</g>
</svg>
