<svg width="20" height="14" viewBox="0 0 20 14" fill="none" xmlns="http://www.w3.org/2000/svg">
<rect width="20" height="14" rx="2" fill="white"/>
<mask id="mask0_3245_60790" style="mask-type:luminance" maskUnits="userSpaceOnUse" x="0" y="0" width="20" height="14">
<rect width="20" height="14" rx="2" fill="white"/>
</mask>
<g mask="url(#mask0_3245_60790)">
<path fill-rule="evenodd" clip-rule="evenodd" d="M0 14H20V0H0V14Z" fill="#30C375"/>
<rect x="2.85718" width="2.85714" height="14" fill="#DE414F"/>
<path fill-rule="evenodd" clip-rule="evenodd" d="M4.28575 2.80002C5.07473 2.80002 5.71432 2.38215 5.71432 1.86668C5.71432 1.35122 5.07473 0.93335 4.28575 0.93335C3.49677 0.93335 2.85718 1.35122 2.85718 1.86668C2.85718 2.38215 3.49677 2.80002 4.28575 2.80002Z" fill="white"/>
<mask id="mask1_3245_60790" style="mask-type:luminance" maskUnits="userSpaceOnUse" x="2" y="0" width="4" height="3">
<path fill-rule="evenodd" clip-rule="evenodd" d="M4.28575 2.80002C5.07473 2.80002 5.71432 2.38215 5.71432 1.86668C5.71432 1.35122 5.07473 0.93335 4.28575 0.93335C3.49677 0.93335 2.85718 1.35122 2.85718 1.86668C2.85718 2.38215 3.49677 2.80002 4.28575 2.80002Z" fill="white"/>
</mask>
<g mask="url(#mask1_3245_60790)">
<path fill-rule="evenodd" clip-rule="evenodd" d="M4.28576 2.33336C4.54875 2.33336 4.76195 2.12442 4.76195 1.86669C4.76195 1.60896 4.54875 1.40002 4.28576 1.40002C4.02277 1.40002 3.80957 1.60896 3.80957 1.86669C3.80957 2.12442 4.02277 2.33336 4.28576 2.33336Z" fill="#DD404F"/>
<rect x="2.85718" y="0.93335" width="1.42857" height="0.933333" fill="#FBAF29"/>
<rect x="4.28564" y="1.8667" width="1.42857" height="0.933333" fill="#FBAF29"/>
</g>
<path fill-rule="evenodd" clip-rule="evenodd" d="M4.28575 13.0667C5.07473 13.0667 5.71432 12.6488 5.71432 12.1333C5.71432 11.6179 5.07473 11.2 4.28575 11.2C3.49677 11.2 2.85718 11.6179 2.85718 12.1333C2.85718 12.6488 3.49677 13.0667 4.28575 13.0667Z" fill="white"/>
<mask id="mask2_3245_60790" style="mask-type:luminance" maskUnits="userSpaceOnUse" x="2" y="11" width="4" height="3">
<path fill-rule="evenodd" clip-rule="evenodd" d="M4.28575 13.0667C5.07473 13.0667 5.71432 12.6488 5.71432 12.1333C5.71432 11.6179 5.07473 11.2 4.28575 11.2C3.49677 11.2 2.85718 11.6179 2.85718 12.1333C2.85718 12.6488 3.49677 13.0667 4.28575 13.0667Z" fill="white"/>
</mask>
<g mask="url(#mask2_3245_60790)">
<path fill-rule="evenodd" clip-rule="evenodd" d="M4.28576 12.6C4.54875 12.6 4.76195 12.3911 4.76195 12.1334C4.76195 11.8756 4.54875 11.6667 4.28576 11.6667C4.02277 11.6667 3.80957 11.8756 3.80957 12.1334C3.80957 12.3911 4.02277 12.6 4.28576 12.6Z" fill="#DD404F"/>
<rect x="2.85718" y="11.2" width="1.42857" height="0.933332" fill="#FBAF29"/>
<rect x="4.28564" y="12.1334" width="1.42857" height="0.933335" fill="#FBAF29"/>
</g>
<path fill-rule="evenodd" clip-rule="evenodd" d="M4.28575 8.39999C5.07473 8.39999 5.71432 7.98213 5.71432 7.46666C5.71432 6.95119 5.07473 6.53333 4.28575 6.53333C3.49677 6.53333 2.85718 6.95119 2.85718 7.46666C2.85718 7.98213 3.49677 8.39999 4.28575 8.39999Z" fill="#28AE67"/>
<mask id="mask3_3245_60790" style="mask-type:luminance" maskUnits="userSpaceOnUse" x="2" y="6" width="4" height="3">
<path fill-rule="evenodd" clip-rule="evenodd" d="M4.28575 8.39999C5.07473 8.39999 5.71432 7.98213 5.71432 7.46666C5.71432 6.95119 5.07473 6.53333 4.28575 6.53333C3.49677 6.53333 2.85718 6.95119 2.85718 7.46666C2.85718 7.98213 3.49677 8.39999 4.28575 8.39999Z" fill="white"/>
</mask>
<g mask="url(#mask3_3245_60790)">
<path fill-rule="evenodd" clip-rule="evenodd" d="M4.28563 7.93333C4.81162 7.93333 5.23801 7.7244 5.23801 7.46667C5.23801 7.20893 4.81162 7 4.28563 7C3.75965 7 3.33325 7.20893 3.33325 7.46667C3.33325 7.7244 3.75965 7.93333 4.28563 7.93333Z" fill="#DD404F"/>
</g>
<path fill-rule="evenodd" clip-rule="evenodd" d="M4.28575 10.2666C5.07473 10.2666 5.71432 10.0577 5.71432 9.79998C5.71432 9.54225 5.07473 9.33331 4.28575 9.33331C3.49677 9.33331 2.85718 9.54225 2.85718 9.79998C2.85718 10.0577 3.49677 10.2666 4.28575 10.2666Z" fill="#28AE67"/>
<mask id="mask4_3245_60790" style="mask-type:luminance" maskUnits="userSpaceOnUse" x="2" y="9" width="4" height="2">
<path fill-rule="evenodd" clip-rule="evenodd" d="M4.28575 10.2666C5.07473 10.2666 5.71432 10.0577 5.71432 9.79998C5.71432 9.54225 5.07473 9.33331 4.28575 9.33331C3.49677 9.33331 2.85718 9.54225 2.85718 9.79998C2.85718 10.0577 3.49677 10.2666 4.28575 10.2666Z" fill="white"/>
</mask>
<g mask="url(#mask4_3245_60790)">
</g>
<path fill-rule="evenodd" clip-rule="evenodd" d="M4.28575 5.6C5.07473 5.6 5.71432 5.18214 5.71432 4.66667C5.71432 4.1512 5.07473 3.73334 4.28575 3.73334C3.49677 3.73334 2.85718 4.1512 2.85718 4.66667C2.85718 5.18214 3.49677 5.6 4.28575 5.6Z" fill="#FBAF29"/>
<mask id="mask5_3245_60790" style="mask-type:luminance" maskUnits="userSpaceOnUse" x="2" y="3" width="4" height="3">
<path fill-rule="evenodd" clip-rule="evenodd" d="M4.28575 5.6C5.07473 5.6 5.71432 5.18214 5.71432 4.66667C5.71432 4.1512 5.07473 3.73334 4.28575 3.73334C3.49677 3.73334 2.85718 4.1512 2.85718 4.66667C2.85718 5.18214 3.49677 5.6 4.28575 5.6Z" fill="white"/>
</mask>
<g mask="url(#mask5_3245_60790)">
<path fill-rule="evenodd" clip-rule="evenodd" d="M4.28576 5.13335C4.54875 5.13335 4.76195 4.92441 4.76195 4.66668C4.76195 4.40895 4.54875 4.20001 4.28576 4.20001C4.02277 4.20001 3.80957 4.40895 3.80957 4.66668C3.80957 4.92441 4.02277 5.13335 4.28576 5.13335Z" fill="#DD404F"/>
<rect x="2.85718" y="3.73334" width="0.952381" height="1.86667" fill="#28AE67"/>
<rect x="4.76196" y="3.73334" width="0.952381" height="1.86667" fill="#28AE67"/>
</g>
<path fill-rule="evenodd" clip-rule="evenodd" d="M10.5877 2.96668C10.4187 3.16412 10.4449 3.45847 10.6464 3.62414C10.8479 3.7898 11.1482 3.76405 11.3173 3.56662C11.4863 3.36918 11.46 3.07483 11.2586 2.90916C11.0571 2.74349 10.7568 2.76925 10.5877 2.96668ZM9.35381 4.77583C9.15235 4.61016 8.85199 4.63591 8.68294 4.83335C8.51389 5.03078 8.54017 5.32514 8.74163 5.4908C8.9431 5.65647 9.24346 5.63072 9.41251 5.43328C9.58155 5.23585 9.55528 4.9415 9.35381 4.77583ZM8.40143 3.8425C8.19997 3.67683 7.89961 3.70258 7.73056 3.90001C7.56151 4.09745 7.58779 4.3918 7.78925 4.55747C7.99072 4.72314 8.29108 4.69738 8.46013 4.49995C8.62918 4.30252 8.6029 4.00816 8.40143 3.8425ZM10.3062 1.97583C10.1047 1.81016 9.80437 1.83591 9.63532 2.03335C9.46627 2.23078 9.49255 2.52514 9.69402 2.6908C9.89548 2.85647 10.1958 2.83072 10.3649 2.63328C10.5339 2.43585 10.5077 2.1415 10.3062 1.97583ZM9.83 3.37583C9.62854 3.21016 9.32818 3.23591 9.15913 3.43335C8.99008 3.63078 9.01636 3.92514 9.21782 4.0908C9.41929 4.25647 9.71965 4.23072 9.8887 4.03328C10.0577 3.83585 10.0315 3.5415 9.83 3.37583Z" fill="white"/>
<path fill-rule="evenodd" clip-rule="evenodd" d="M12.4829 6.61539C11.3486 7.72703 9.5095 7.72703 8.37518 6.61539C8.26527 6.50768 8.166 6.39348 8.07739 6.27405C9.2132 7.08342 10.8124 6.98614 11.8368 5.98222C12.8612 4.9783 12.9605 3.41106 12.1346 2.29797C12.2565 2.38481 12.373 2.48209 12.4829 2.5898C13.6172 3.70144 13.6172 5.50376 12.4829 6.61539Z" fill="white"/>
</g>
</svg>
