<svg width="20" height="14" viewBox="0 0 20 14" fill="none" xmlns="http://www.w3.org/2000/svg">
<rect width="20" height="14" rx="2" fill="white"/>
<mask id="mask0_240_9819" style="mask-type:luminance" maskUnits="userSpaceOnUse" x="0" y="0" width="20" height="14">
<rect width="20" height="14" rx="2" fill="white"/>
</mask>
<g mask="url(#mask0_240_9819)">
<path fill-rule="evenodd" clip-rule="evenodd" d="M0 14H20V0H0V14Z" fill="#079D7B"/>
<path fill-rule="evenodd" clip-rule="evenodd" d="M11.3465 6.06673C11.3465 6.27103 11.3313 6.4692 11.3029 6.65805C11.3759 6.63605 11.4503 6.61506 11.5259 6.5952C12.7961 6.26167 13.9298 6.37172 14.0581 6.841C14.1741 7.26511 13.4292 7.83749 12.3471 8.18994C12.156 7.63437 11.1779 7.46673 10 7.46673C8.82086 7.46673 7.84191 7.63474 7.65228 8.19179C6.5849 7.83866 5.85337 7.27229 5.96836 6.85172C6.09667 6.38244 7.23035 6.27239 8.50051 6.60592C8.5672 6.62343 8.63294 6.64182 8.69763 6.66101C8.66888 6.47127 8.65357 6.2721 8.65357 6.06673C8.65357 4.77807 9.2564 3.7334 10 3.7334C10.7437 3.7334 11.3465 4.77807 11.3465 6.06673ZM7.61907 8.40007H8.45228C8.32031 8.37471 8.18565 8.34435 8.04939 8.30888C8.20262 8.31333 8.39161 8.32616 8.60787 8.34084C8.99938 8.36742 9.48025 8.40007 10 8.40007C10.5198 8.40007 11.0007 8.36742 11.3922 8.34084C11.6003 8.32672 11.7831 8.3143 11.9332 8.30942C11.7922 8.34508 11.653 8.37526 11.5169 8.40007H12.381H13.8095C13.6966 8.73236 13.5446 9.04546 13.3592 9.3334H6.64086C6.45549 9.04546 6.30346 8.73236 6.1905 8.40007H7.61907ZM10 11.2001C10.962 11.2001 11.8454 10.8504 12.5391 10.2667H7.46091C8.15466 10.8504 9.03807 11.2001 10 11.2001Z" fill="white"/>
<path fill-rule="evenodd" clip-rule="evenodd" d="M10 2.80003C10.263 2.80003 10.4762 2.5911 10.4762 2.33337C10.4762 2.07563 10.263 1.8667 10 1.8667C9.73702 1.8667 9.52382 2.07563 9.52382 2.33337C9.52382 2.5911 9.73702 2.80003 10 2.80003ZM6.19048 5.13337C6.45348 5.13337 6.66668 4.92443 6.66668 4.6667C6.66668 4.40897 6.45348 4.20003 6.19048 4.20003C5.92749 4.20003 5.71429 4.40897 5.71429 4.6667C5.71429 4.92443 5.92749 5.13337 6.19048 5.13337ZM14.2857 4.6667C14.2857 4.92443 14.0725 5.13337 13.8095 5.13337C13.5465 5.13337 13.3333 4.92443 13.3333 4.6667C13.3333 4.40897 13.5465 4.20003 13.8095 4.20003C14.0725 4.20003 14.2857 4.40897 14.2857 4.6667ZM12.381 3.73337C12.644 3.73337 12.8572 3.52443 12.8572 3.2667C12.8572 3.00897 12.644 2.80003 12.381 2.80003C12.118 2.80003 11.9048 3.00897 11.9048 3.2667C11.9048 3.52443 12.118 3.73337 12.381 3.73337ZM8.09525 3.2667C8.09525 3.52443 7.88205 3.73337 7.61906 3.73337C7.35606 3.73337 7.14287 3.52443 7.14287 3.2667C7.14287 3.00897 7.35606 2.80003 7.61906 2.80003C7.88205 2.80003 8.09525 3.00897 8.09525 3.2667Z" fill="#FCD117"/>
</g>
</svg>
