<svg width="20" height="14" viewBox="0 0 20 14" fill="none" xmlns="http://www.w3.org/2000/svg">
<rect x="0.25" y="0.25" width="19.5" height="13.5" rx="1.75" fill="white" stroke="#F5F5F5" stroke-width="0.5"/>
<mask id="mask0_3245_60755" style="mask-type:luminance" maskUnits="userSpaceOnUse" x="0" y="0" width="20" height="14">
<rect x="0.25" y="0.25" width="19.5" height="13.5" rx="1.75" fill="white" stroke="white" stroke-width="0.5"/>
</mask>
<g mask="url(#mask0_3245_60755)">
<path fill-rule="evenodd" clip-rule="evenodd" d="M0 9.33335H20V4.66669H0V9.33335Z" fill="#0C47B7"/>
<path fill-rule="evenodd" clip-rule="evenodd" d="M0 14H20V9.33331H0V14Z" fill="#E53B35"/>
<path d="M3.88103 9.79741L4.30772 9.28945L3.88103 9.79741L5.42764 11.0966C6.41936 11.9296 7.86627 11.9296 8.858 11.0966L10.4046 9.79741C10.878 9.39972 11.1409 8.80541 11.1167 8.18757L10.9545 4.05489C10.9124 2.98166 10.0301 2.13332 8.95603 2.13332H5.32961C4.25556 2.13332 3.37327 2.98166 3.33115 4.05489L3.16896 8.18757C3.14471 8.80541 3.40759 9.39972 3.88103 9.79741Z" fill="#F73744" stroke="white" stroke-width="1.33333"/>
<mask id="mask1_3245_60755" style="mask-type:luminance" maskUnits="userSpaceOnUse" x="2" y="1" width="10" height="12">
<path d="M3.88103 9.79741L4.30772 9.28945L3.88103 9.79741L5.42764 11.0966C6.41936 11.9296 7.86627 11.9296 8.858 11.0966L10.4046 9.79741C10.878 9.39972 11.1409 8.80541 11.1167 8.18757L10.9545 4.05489C10.9124 2.98166 10.0301 2.13332 8.95603 2.13332H5.32961C4.25556 2.13332 3.37327 2.98166 3.33115 4.05489L3.16896 8.18757C3.14471 8.80541 3.40759 9.39972 3.88103 9.79741Z" fill="white" stroke="white" stroke-width="1.33333"/>
</mask>
<g mask="url(#mask1_3245_60755)">
<path fill-rule="evenodd" clip-rule="evenodd" d="M6.66661 7.8C6.66661 7.61591 6.51737 7.46667 6.33328 7.46667H5.57137C5.38728 7.46667 5.23804 7.31743 5.23804 7.13334V6.86667C5.23804 6.68258 5.38728 6.53334 5.57137 6.53334H6.33327C6.51737 6.53334 6.66661 6.3841 6.66661 6.2V5.93334C6.66661 5.74924 6.51737 5.6 6.33328 5.6H6.04756C5.86347 5.6 5.71423 5.45077 5.71423 5.26667V5C5.71423 4.81591 5.86347 4.66667 6.04756 4.66667H6.33328C6.51737 4.66667 6.66661 4.51743 6.66661 4.33334V4.06667C6.66661 3.88258 6.81585 3.73334 6.99994 3.73334H7.28566C7.46975 3.73334 7.61899 3.88258 7.61899 4.06667V4.33334C7.61899 4.51743 7.76823 4.66667 7.95232 4.66667H8.23804C8.42213 4.66667 8.57137 4.81591 8.57137 5V5.26667C8.57137 5.45077 8.42213 5.6 8.23804 5.6H7.95232C7.76823 5.6 7.61899 5.74924 7.61899 5.93334V6.2C7.61899 6.3841 7.76823 6.53334 7.95232 6.53334H8.71423C8.89832 6.53334 9.04756 6.68258 9.04756 6.86667V7.13334C9.04756 7.31743 8.89832 7.46667 8.71423 7.46667H7.95232C7.76823 7.46667 7.61899 7.61591 7.61899 7.8V9C7.61899 9.1841 7.46975 9.33334 7.28566 9.33334H6.99994C6.81585 9.33334 6.66661 9.1841 6.66661 9V7.8Z" fill="white"/>
<path fill-rule="evenodd" clip-rule="evenodd" d="M8.00245 9.39779C7.84915 9.08364 7.52183 8.86664 7.14279 8.86664C6.76375 8.86664 6.43643 9.08364 6.28312 9.39779C5.12525 9.57656 4.28564 10.1069 4.28564 10.7333C4.28564 11.5065 5.56483 12.1333 7.14279 12.1333C8.72074 12.1333 9.99993 11.5065 9.99993 10.7333C9.99993 10.1069 9.16032 9.57656 8.00245 9.39779Z" fill="#1251A1"/>
</g>
</g>
</svg>
