<svg width="20" height="14" viewBox="0 0 20 14" fill="none" xmlns="http://www.w3.org/2000/svg">
<rect width="20" height="14" rx="2" fill="white"/>
<mask id="mask0_3245_60884" style="mask-type:luminance" maskUnits="userSpaceOnUse" x="0" y="0" width="20" height="14">
<rect width="20" height="14" rx="2" fill="white"/>
</mask>
<g mask="url(#mask0_3245_60884)">
<rect width="20" height="14" fill="#F1361D"/>
<path fill-rule="evenodd" clip-rule="evenodd" d="M7.19482 2.17048L7.88657 2.28605L8.40538 2.7491L8.52332 2.07119L8.99581 1.56275L8.30407 1.44718L7.78525 0.984131L7.66732 1.66204L7.19482 2.17048ZM9.0477 4.54157L9.64714 4.18405L10.3487 4.19995L9.98385 3.6125L10.0001 2.92499L9.40064 3.28252L8.6991 3.26661L9.06392 3.85406L9.0477 4.54157ZM8.23454 8.37956L7.6482 8.75737L7.63994 8.06972L7.25442 7.49511L7.95609 7.48701L8.54243 7.1092L8.5507 7.79684L8.93622 8.37145L8.23454 8.37956ZM8.74375 6.60195L9.4412 6.52619L10.0702 6.83116L9.99285 6.14765L10.304 5.53128L9.60658 5.60704L8.97763 5.30207L9.05493 5.98558L8.74375 6.60195Z" fill="#FFDC42"/>
<path fill-rule="evenodd" clip-rule="evenodd" d="M4.76193 5.7587L3.08254 6.93195L3.70218 5.00415L2.04462 3.80145L4.10697 3.78325L4.76193 1.8667L5.41689 3.78325L7.47923 3.80145L5.82168 5.00415L6.44131 6.93195L4.76193 5.7587Z" fill="#FFDC42"/>
</g>
</svg>
