<svg width="20" height="14" viewBox="0 0 20 14" fill="none" xmlns="http://www.w3.org/2000/svg">
<rect width="20" height="14" rx="2" fill="white"/>
<mask id="mask0_240_8899" style="mask-type:luminance" maskUnits="userSpaceOnUse" x="0" y="0" width="20" height="14">
<rect width="20" height="14" rx="2" fill="white"/>
</mask>
<g mask="url(#mask0_240_8899)">
<rect width="20" height="14" fill="#05AB41"/>
<path fill-rule="evenodd" clip-rule="evenodd" d="M2.79265 7.56298C2.37979 7.30118 2.37979 6.69876 2.79265 6.43696L9.64301 2.09303C9.86095 1.95482 10.1391 1.95482 10.357 2.09303L17.2074 6.43696C17.6203 6.69876 17.6203 7.30118 17.2074 7.56298L10.357 11.9069C10.1391 12.0451 9.86095 12.0451 9.64301 11.9069L2.79265 7.56298Z" fill="#FDD216"/>
<path fill-rule="evenodd" clip-rule="evenodd" d="M10 10.2667C11.841 10.2667 13.3334 8.80413 13.3334 7C13.3334 5.19587 11.841 3.73334 10 3.73334C8.15907 3.73334 6.66669 5.19587 6.66669 7C6.66669 8.80413 8.15907 10.2667 10 10.2667Z" fill="#053087"/>
<mask id="mask1_240_8899" style="mask-type:luminance" maskUnits="userSpaceOnUse" x="6" y="3" width="8" height="8">
<path fill-rule="evenodd" clip-rule="evenodd" d="M10 10.2667C11.841 10.2667 13.3334 8.80413 13.3334 7C13.3334 5.19587 11.841 3.73334 10 3.73334C8.15907 3.73334 6.66669 5.19587 6.66669 7C6.66669 8.80413 8.15907 10.2667 10 10.2667Z" fill="white"/>
</mask>
<g mask="url(#mask1_240_8899)">
<path d="M6.27142 6.14616C6.79478 5.73083 8.4836 6.12428 10.0601 6.5364C11.6365 6.94852 13.2808 7.81232 13.6994 8.31897" stroke="white" stroke-width="1.33333" stroke-linecap="square"/>
</g>
</g>
</svg>
