<svg width="20" height="14" viewBox="0 0 20 14" fill="none" xmlns="http://www.w3.org/2000/svg">
<rect x="0.25" y="0.25" width="19.5" height="13.5" rx="1.75" fill="white" stroke="#F5F5F5" stroke-width="0.5"/>
<mask id="mask0_240_9072" style="mask-type:luminance" maskUnits="userSpaceOnUse" x="0" y="0" width="20" height="14">
<rect x="0.25" y="0.25" width="19.5" height="13.5" rx="1.75" fill="white" stroke="white" stroke-width="0.5"/>
</mask>
<g mask="url(#mask0_240_9072)">
<path fill-rule="evenodd" clip-rule="evenodd" d="M14.2857 2.3333C14.5446 2.20647 14.8037 2.50521 14.6416 2.74354L14.3336 3.19622C14.302 3.24271 14.2615 3.28247 14.2144 3.31322L12.9063 4.16784C12.8736 4.18921 12.8431 4.21375 12.8152 4.2411C12.5768 4.47471 12.5768 4.85856 12.8152 5.09218L12.8571 5.13331C13.1186 5.3895 13.1186 5.81045 12.8571 6.06664L12.6977 6.22292C12.5079 6.40894 12.2214 6.45512 11.9827 6.33818C11.6752 6.18751 11.3037 6.31132 11.1481 6.61634L11.0775 6.75473C10.9974 6.91179 10.8583 7.03071 10.6907 7.08546L9.6247 7.43368C9.55786 7.45552 9.48799 7.46664 9.41768 7.46664H8.9734C8.72671 7.46664 8.50086 7.60496 8.38875 7.8247C8.22589 8.14391 7.8371 8.27348 7.5153 8.1158L6.28699 7.51393C6.22306 7.4826 6.16456 7.44124 6.11372 7.39141L5.43531 6.72657C5.30918 6.60296 5.2381 6.43379 5.2381 6.25718V5.9381C5.2381 5.75136 5.38948 5.59997 5.57623 5.59997C5.66472 5.59997 5.74969 5.56528 5.81289 5.50334L6.47226 4.85716C6.59687 4.73504 6.7644 4.66664 6.93888 4.66664H7.14163C7.42709 4.66664 7.68087 4.4849 7.77279 4.21465L7.90762 3.81824C8.01507 3.50233 8.33955 3.31452 8.667 3.3787L10.332 3.70505C10.427 3.72366 10.5249 3.72138 10.6189 3.69834L12.311 3.28379C12.3575 3.27239 12.4027 3.25601 12.4457 3.23493L13.3333 2.79997L14.2857 2.3333Z" fill="#E7832C"/>
<path fill-rule="evenodd" clip-rule="evenodd" d="M9.99999 11.2C10.263 11.2 10.4762 10.9911 10.4762 10.7333C10.4762 10.4756 10.263 10.2667 9.99999 10.2667C9.737 10.2667 9.5238 10.4756 9.5238 10.7333C9.5238 10.9911 9.737 11.2 9.99999 11.2Z" fill="#445128"/>
<path opacity="0.75" d="M11.4286 10.2666C11.4286 10.2666 12.8572 9.79997 13.3334 8.86664" stroke="#445128" stroke-width="1.33333" stroke-linecap="round"/>
<path opacity="0.75" d="M8.57141 10.2666C8.57141 10.2666 7.14284 9.79997 6.66665 8.86664" stroke="#445128" stroke-width="1.33333" stroke-linecap="round"/>
</g>
</svg>
