<svg width="24" height="24" viewBox="0 0 24 24" fill="none" xmlns="http://www.w3.org/2000/svg">
<path d="M22.99 8.99999C19.15 5.15999 13.8 3.75999 8.84 4.77999L11.36 7.29999C14.83 7.12999 18.35 8.34999 20.99 11L22.99 8.99999ZM18.99 13C17.7 11.71 16.15 10.87 14.5 10.44L18.03 13.97L18.99 13ZM2 3.04999L5.07 6.09999C3.6 6.81999 2.22 7.77999 1 8.99999L2.99 11C4.23 9.75999 5.66 8.83999 7.19 8.22999L9.43 10.47C7.81 10.89 6.27 11.73 5 13V13.01L6.99 15C8.35 13.64 10.13 12.96 11.91 12.94L18.98 20L20.25 18.74L3.29 1.78999L2 3.04999ZM9 17L12 20L15 17C13.35 15.34 10.66 15.34 9 17Z" fill="#7D7F82"/>
</svg>
