<svg width="24" height="24" viewBox="0 0 24 24" fill="none" xmlns="http://www.w3.org/2000/svg">
<path d="M10.82 12.49C10.84 12.33 10.86 12.17 10.86 12C10.86 11.83 10.84 11.67 10.82 11.51L11.9 10.69C12 10.62 12.02 10.48 11.96 10.37L10.93 8.64C10.87 8.53 10.73 8.49 10.62 8.53L9.33999 9.03C9.06999 8.83 8.77999 8.67 8.46999 8.54L8.26999 7.21C8.26999 7.09 8.15999 7 8.02999 7H5.97999C5.84999 7 5.73999 7.09 5.71999 7.21L5.51999 8.53C5.20999 8.65 4.91999 8.83 4.64999 9.02L3.36999 8.52C3.24999 8.47 3.11999 8.52 3.05999 8.63L2.02999 10.36C1.96999 10.48 1.99999 10.61 2.09999 10.69L3.17999 11.51C3.15999 11.67 3.14999 11.84 3.14999 12C3.14999 12.17 3.16999 12.33 3.18999 12.49L2.09999 13.32C1.99999 13.39 1.97999 13.53 2.03999 13.64L3.06999 15.37C3.12999 15.48 3.26999 15.52 3.37999 15.48L4.65999 14.98C4.92999 15.18 5.21999 15.34 5.52999 15.47L5.72999 16.79C5.73999 16.91 5.84999 17 5.97999 17H8.03999C8.16999 17 8.27999 16.91 8.28999 16.79L8.48999 15.47C8.79999 15.35 9.08999 15.17 9.35999 14.98L10.64 15.48C10.76 15.53 10.89 15.48 10.95 15.37L11.98 13.64C12.04 13.53 12.02 13.4 11.92 13.32L10.82 12.49ZM6.99999 13.75C6.00999 13.75 5.19999 12.97 5.19999 12C5.19999 11.03 6.00999 10.25 6.99999 10.25C7.98999 10.25 8.79999 11.03 8.79999 12C8.79999 12.97 7.99999 13.75 6.99999 13.75ZM18 1.01L7.99999 1C6.89999 1 5.99999 1.9 5.99999 3V6H7.99999V5H18V19H7.99999V18H5.99999V21C5.99999 22.1 6.89999 23 7.99999 23H18C19.1 23 20 22.1 20 21V3C20 1.9 19.1 1.01 18 1.01Z" fill="#7D7F82"/>
</svg>
