<svg width="24" height="24" viewBox="0 0 24 24" fill="none" xmlns="http://www.w3.org/2000/svg">
<path d="M17 6.53998C18.1046 6.53998 19 5.64455 19 4.53998C19 3.43541 18.1046 2.53998 17 2.53998C15.8954 2.53998 15 3.43541 15 4.53998C15 5.64455 15.8954 6.53998 17 6.53998Z" fill="#7D7F82"/>
<path d="M14 17H12C12 18.65 10.65 20 9 20C7.35 20 6 18.65 6 17C6 15.35 7.35 14 9 14V12C6.24 12 4 14.24 4 17C4 19.76 6.24 22 9 22C11.76 22 14 19.76 14 17ZM17 13.5H15.14L16.81 9.82998C17.42 8.49998 16.44 6.99998 14.96 6.99998H9.76C8.95 6.99998 8.22 7.46998 7.89 8.19998L7.22 9.99998L9.14 10.53L9.79 8.99998H12L10.17 13.1C9.57 14.43 10.56 16 12.02 16H17V21H19V15.5C19 14.4 18.1 13.5 17 13.5Z" fill="#7D7F82"/>
</svg>
