<svg width="24" height="24" viewBox="0 0 24 24" fill="none" xmlns="http://www.w3.org/2000/svg">
<path d="M22 5.99999V3.99999H6.82L8.82 5.99999H22ZM1.92 1.64999L0.65 2.91999L2.47 4.73999C2.18 5.07999 2 5.51999 2 5.99999V17H0V20H17.73L20.08 22.35L21.35 21.08L3.89 3.61999L1.92 1.64999ZM4 6.26999L14.73 17H4V6.26999ZM23 7.99999H17C16.45 7.99999 16 8.44999 16 8.99999V13.18L18 15.18V9.99999H22V17H19.82L22.82 20H23C23.55 20 24 19.55 24 19V8.99999C24 8.44999 23.55 7.99999 23 7.99999Z" fill="#7D7F82"/>
</svg>
