<svg width="24" height="24" viewBox="0 0 24 24" fill="none" xmlns="http://www.w3.org/2000/svg">
<path d="M13.49 5.48C14.59 5.48 15.49 4.58 15.49 3.48C15.49 2.38 14.59 1.48 13.49 1.48C12.39 1.48 11.49 2.38 11.49 3.48C11.49 4.58 12.39 5.48 13.49 5.48ZM9.89001 19.38L10.89 14.98L12.99 16.98V22.98H14.99V15.48L12.89 13.48L13.49 10.48C14.79 11.98 16.79 12.98 18.99 12.98V10.98C17.09 10.98 15.49 9.98 14.69 8.58L13.69 6.98C13.29 6.38 12.69 5.98 11.99 5.98C11.69 5.98 11.49 6.08 11.19 6.08L5.99001 8.28V12.98H7.99001V9.58L9.79001 8.88L8.19001 16.98L3.29001 15.98L2.89001 17.98L9.89001 19.38Z" fill="#7D7F82"/>
</svg>
