<svg width="24" height="24" viewBox="0 0 24 24" fill="none" xmlns="http://www.w3.org/2000/svg">
<path d="M22.17 9.17001C22.17 5.30001 19.04 2.17001 15.17 2.17001C11.3 2.17001 8.17 5.30001 8.17 9.17001C8.17 12.64 10.69 15.51 14 16.06V20H6V17H7V13C7 12.45 6.55 12 6 12H3C2.45 12 2 12.45 2 13V17H3V22H19V20H16V16.12C19.47 15.71 22.17 12.76 22.17 9.17001ZM4.5 11C5.33 11 6 10.33 6 9.50001C6 8.67001 5.33 8.00001 4.5 8.00001C3.67 8.00001 3 8.67001 3 9.50001C3 10.33 3.67 11 4.5 11Z" fill="#7D7F82"/>
</svg>
