<svg width="24" height="24" viewBox="0 0 24 24" fill="none" xmlns="http://www.w3.org/2000/svg">
<path fill-rule="evenodd" clip-rule="evenodd" d="M2 5.92389L3.82196 6.97594C4.19598 6.32634 4.65529 5.73141 5.19335 5.19336C5.98513 4.40158 6.90595 3.78041 7.93176 3.34734C8.99256 2.89896 10.119 2.67148 11.2826 2.67148C12.4462 2.67148 13.5748 2.89896 14.6334 3.34734C15.6592 3.78041 16.5801 4.40158 17.3718 5.19336C18.1636 5.98513 18.7848 6.90595 19.2178 7.93176C19.6684 8.99038 19.8959 10.119 19.8959 11.2826C19.8959 12.4462 19.6684 13.5748 19.22 14.6334C18.787 15.6592 18.1658 16.5801 17.374 17.3718C16.5822 18.1636 15.6614 18.7848 14.6356 19.2178C13.5748 19.6662 12.4484 19.8937 11.2848 19.8937C10.5346 19.8937 9.79309 19.7975 9.07568 19.6094C8.38233 19.4256 7.71085 19.1544 7.08311 18.8023C5.84514 18.1089 4.78434 17.1094 4.021 15.9108C3.95319 15.8036 3.88758 15.6964 3.82415 15.5871L2 16.6413C2.07874 16.7791 2.16185 16.9125 2.24497 17.0459C4.15004 20.0249 7.48556 22 11.2826 22C17.2012 22 22 17.2012 22 11.2826C22 5.36396 17.2012 0.565186 11.2826 0.565186C7.31715 0.565186 3.85258 2.7196 2 5.92389Z" fill="#7D7F82"/>
</svg>
