<svg width="32" height="32" viewBox="0 0 32 32" fill="none" xmlns="http://www.w3.org/2000/svg">
<g clip-path="url(#clip0_5534_20707)">
<path d="M16.4755 5.46353C16.3259 5.00287 15.6741 5.00287 15.5245 5.46353L14.7652 7.80041C14.6982 8.00642 14.5063 8.1459 14.2896 8.1459H11.8325C11.3481 8.1459 11.1468 8.76571 11.5386 9.05041L13.5265 10.4947C13.7017 10.622 13.7751 10.8477 13.7081 11.0537L12.9488 13.3906C12.7991 13.8512 13.3264 14.2343 13.7182 13.9496L15.7061 12.5053C15.8814 12.378 16.1186 12.378 16.2939 12.5053L18.2818 13.9496C18.6736 14.2343 19.2009 13.8512 19.0512 13.3906L18.2919 11.0537C18.2249 10.8477 18.2983 10.622 18.4735 10.4947L20.4614 9.05041C20.8532 8.76571 20.6519 8.1459 20.1675 8.1459H17.7104C17.4937 8.1459 17.3018 8.00642 17.2348 7.80041L16.4755 5.46353Z" fill="#7D7F82"/>
<path fill-rule="evenodd" clip-rule="evenodd" d="M5 3.29178C3.89589 3.621 2.87971 4.2208 2.05025 5.05025C0.737498 6.36301 0 8.14348 0 10C0 11.8565 0.737497 13.637 2.05025 14.9497C3.31026 16.2098 5.00116 16.9398 6.77661 16.9964C8.21065 19.1977 10.4114 20.8538 13 21.5859V26H8.33333C6.49238 26 5 27.4924 5 29.3333C5 30.8061 6.19391 32 7.66667 32H24.3333C25.8061 32 27 30.8061 27 29.3333C27 27.4924 25.5076 26 23.6667 26H19V21.5859C21.5886 20.8538 23.7894 19.1977 25.2234 16.9964C26.9988 16.9398 28.6897 16.2098 29.9497 14.9497C31.2625 13.637 32 11.8565 32 10C32 8.14349 31.2625 6.36301 29.9497 5.05025C29.1203 4.2208 28.1041 3.621 27 3.29178V0H5V3.29178ZM25 2H7V11C7 15.9706 11.0294 20 16 20C20.9706 20 25 15.9706 25 11V2ZM3.43438 6.43438C3.88887 5.97989 4.42118 5.62112 5 5.37104V11C5 12.3629 5.24786 13.6679 5.70095 14.8724C4.85091 14.6457 4.06721 14.1984 3.43438 13.5656C2.48872 12.62 1.95745 11.3374 1.95745 10C1.95745 8.66263 2.48872 7.38004 3.43438 6.43438ZM27 5.37104V11C27 12.3629 26.7521 13.6679 26.299 14.8724C27.1491 14.6457 27.9328 14.1984 28.5656 13.5656C29.5113 12.62 30.0425 11.3374 30.0425 10C30.0425 8.66263 29.5113 7.38004 28.5656 6.43438C28.1111 5.97989 27.5788 5.62112 27 5.37104ZM15 22H17V26H15V22ZM8.33333 28C8.21823 28 8.10654 28.0146 8 28.042C7.88174 28.0724 7.76983 28.1187 7.66667 28.1784C7.26813 28.4089 7 28.8398 7 29.3333C7 29.7015 7.29848 30 7.66667 30H24.3333C24.7015 30 25 29.7015 25 29.3333C25 28.8398 24.7319 28.4089 24.3333 28.1784C24.2302 28.1187 24.1183 28.0724 24 28.042C23.8935 28.0146 23.7818 28 23.6667 28H8.33333Z" fill="#7D7F82"/>
</g>
<defs>
<clipPath id="clip0_5534_20707">
<rect width="32" height="32" fill="white"/>
</clipPath>
</defs>
</svg>
