<svg width="32" height="32" viewBox="0 0 32 32" fill="none" xmlns="http://www.w3.org/2000/svg">
<path d="M30.9016 6.75599C29.5168 5.37122 27.2619 5.37122 25.8752 6.75599C24.4894 8.14271 24.4904 10.3976 25.8752 11.7824C26.5471 12.4542 27.4396 12.8243 28.3889 12.8243C29.3381 12.8243 30.2307 12.4542 30.9016 11.7824C31.5734 11.1115 31.9435 10.2189 31.9435 9.26966C31.9435 8.32044 31.5734 7.42787 30.9016 6.75599ZM29.4875 10.3683C28.8996 10.9562 27.8771 10.9562 27.2892 10.3683C26.6838 9.76283 26.6838 8.7765 27.2892 8.17005C27.592 7.86732 27.9904 7.71595 28.3889 7.71595C28.7863 7.71595 29.1848 7.86732 29.4875 8.17005C29.7814 8.464 29.9435 8.85462 29.9435 9.26966C29.9435 9.6847 29.7814 10.0743 29.4875 10.3683Z" fill="#7D7F82"/>
<path d="M22.9299 13.1242C22.5207 11.9078 22.3972 11.1707 22.4125 10.4956C22.4382 10.2817 22.4616 10.0656 22.4875 9.8556C22.8469 6.91615 22.9953 5.70033 21.9201 5.31751C19.8127 4.57142 18.3273 4.02064 16.9914 3.52552C15.6711 3.03626 14.4963 2.59974 13.0158 2.08607C12.6105 1.94447 12.1808 1.97865 11.8029 2.1808C10.8488 2.68861 10.424 4.07435 9.83808 6.29505L9.77606 6.52766C9.77411 6.53278 9.76972 6.53596 9.76776 6.54115C9.7475 6.59632 9.74066 6.65986 9.72528 6.71809L9.68866 6.8556C9.68671 6.86262 9.68903 6.86939 9.68732 6.87641C9.5307 7.73585 9.82672 8.88929 10.2673 10.2152L4.06952 7.12513C3.5744 6.87611 2.97479 7.08021 2.7287 7.57337C2.48163 8.06751 2.6828 8.6681 3.17694 8.91419L11.1838 12.9063C11.4792 13.8318 11.7094 14.7162 11.6291 15.1251C11.5034 15.5798 10.0268 16.7123 8.51703 17.5157C7.9317 16.9296 7.3598 16.3565 6.82147 15.8165C1.41229 10.3927 1.40644 10.38 0.740419 10.5675C0.39374 10.6622 0.121279 10.9396 0.031435 11.2872C-0.0857525 11.7462 0.133974 12.212 0.536318 12.422C1.04608 12.8585 3.26093 15.0783 5.40546 17.2296C9.15253 20.9865 14.2844 26.132 17.3508 28.8869C17.8879 29.3683 18.7463 29.966 19.7902 30.0822C19.8586 30.09 19.9299 30.0929 20.0021 30.0929C20.7639 30.0929 21.7121 29.7052 22.0041 29.5773C22.51 29.3556 22.7404 28.7658 22.5187 28.2599C22.2971 27.756 21.7101 27.5275 21.2014 27.7452C20.7678 27.9347 20.1848 28.1163 20.0109 28.0939C19.6066 28.049 19.1369 27.8019 18.6867 27.3986C16.457 25.3956 13.097 22.0872 9.98969 18.9874C11.2914 18.2435 13.3222 16.8858 13.591 15.5148C13.6713 15.104 13.6444 14.6193 13.5529 14.0875L25.8351 20.2111C25.9787 20.2833 26.131 20.3165 26.2805 20.3165C26.2829 20.3165 26.2853 20.3156 26.2878 20.3156C26.3149 20.3178 26.3402 20.3322 26.3674 20.3322C26.6047 20.3322 26.843 20.2482 27.0334 20.0783C27.4455 19.7101 27.4807 19.0773 27.1135 18.6661C25.676 17.0577 23.2687 14.13 22.9299 13.1242ZM12.6642 4.08119C13.9894 4.54505 15.0803 4.95033 16.2961 5.40052C17.5324 5.85951 18.8967 6.36537 20.758 7.0265C20.7485 7.47572 20.6682 8.22706 20.5834 8.94178C20.5268 9.27253 20.4794 9.58338 20.4483 9.89375L11.85 6.50935C12.0656 5.70045 12.3857 4.55262 12.6642 4.08119ZM12.5617 10.7423C12.3564 10.1552 12.0815 9.36591 11.8821 8.67158L20.5735 12.0927C20.6723 12.5766 20.8176 13.1174 21.0344 13.7618C21.2551 14.417 21.8972 15.3919 22.6376 16.3828L12.8207 11.4883C12.7361 11.2421 12.6496 10.9935 12.5617 10.7423Z" fill="#7D7F82"/>
</svg>
