<svg width="32" height="32" viewBox="0 0 32 32" fill="none" xmlns="http://www.w3.org/2000/svg">
<path d="M27.9676 17.8085L22.4201 17.719L20.9925 14.295C22.4351 13.6364 24.0775 13.1153 25.2886 12.6288C25.3513 12.6151 25.4147 12.6164 25.4755 12.5897L28.589 11.2396C29.096 11.0197 29.3285 10.4306 29.1087 9.92459C28.8899 9.41756 28.3018 9.18212 27.7938 9.40486L26.4786 9.97515C24.3185 5.28451 19.8457 3 14.137 3C6.32934 3 0 9.32927 0 17.1369C0 21.5064 3.42466 29.6299 7.09361 29.9521C7.20015 29.9615 7.30267 29.9659 7.40152 29.9659C9.38764 29.9659 9.9114 28.1667 12.2223 28.1086C12.254 28.1078 12.286 28.1075 12.3177 28.1075C13.8823 28.1075 15.6024 29.049 17.1133 29.049C17.5755 29.049 18.0178 28.961 18.4304 28.7309C20.0372 27.8353 20.0943 26.5742 19.5576 24.5718H23.1115L23.4786 25.452C24.3549 27.2202 25.5582 29.0242 27.8283 29.0403C27.833 29.0405 27.8369 29.0432 27.8416 29.0433C27.866 29.0433 27.8914 29.0433 27.9168 29.0433C30.1833 29.0433 31.9106 27.3961 31.9477 25.1844L31.9995 21.9732C32.0356 19.7135 30.2263 17.8446 27.9676 17.8085ZM27.9354 19.8092C28.4952 19.818 29.0188 20.0447 29.4086 20.4472C29.7984 20.8497 30.0075 21.3811 29.9987 21.9409L29.9886 22.5711H24.4432L23.2601 19.7335L27.9354 19.8092ZM20.2501 17.7115L17.7928 17.7397C17.7996 17.2133 17.9027 16.7649 18.1496 16.3646C18.3947 15.9673 18.7788 15.6115 19.2371 15.2828L20.2501 17.7115ZM17.4562 26.9834C17.4244 27.0011 17.3399 27.0482 17.1133 27.0482C16.6478 27.0482 15.9992 26.8607 15.3125 26.6623C14.4115 26.4019 13.3902 26.1067 12.3177 26.1067L12.1722 26.1085C10.3917 26.1532 9.29971 26.9013 8.50235 27.4475C7.89964 27.8604 7.7128 27.9652 7.40152 27.9652C7.35884 27.9652 7.31458 27.963 7.26866 27.959C5.25012 27.7817 2.00077 21.1064 2.00077 17.1369C2.00077 10.445 7.44506 5.00077 14.137 5.00077C17.7841 5.00077 22.4303 6.03186 24.6366 10.737C24.1682 10.9267 23.5955 11.1348 23.1196 11.3076C20.5816 12.2295 17.705 13.2744 16.4467 15.3142C15.2876 17.1934 15.7538 19.1035 16.8521 22.5711H15.2079C15.2748 22.3343 15.3222 22.0895 15.3222 21.8315C15.3222 20.3202 14.0922 19.0902 12.5809 19.0902C11.0696 19.0902 9.84057 20.3202 9.84057 21.8315C9.84057 23.3428 11.0696 24.5718 12.5809 24.5718C12.5978 24.5718 12.6135 24.5671 12.6303 24.5668C12.6391 24.5671 12.6463 24.5718 12.6551 24.5718H17.4829C18.0961 26.6181 17.8934 26.7396 17.4562 26.9834ZM12.5809 22.5711C12.1735 22.5711 11.8413 22.2389 11.8413 21.8315C11.8413 21.4232 12.1735 21.091 12.5809 21.091C12.9892 21.091 13.3214 21.4231 13.3214 21.8315C13.3214 22.2389 12.9892 22.5711 12.5809 22.5711ZM18.9511 22.5711C18.5935 21.4532 18.2967 20.5114 18.0957 19.7372L21.0806 19.7027L22.277 22.5711H18.9511ZM27.8729 27.0425C27.8701 27.0424 27.8676 27.044 27.8649 27.044C27.8622 27.044 27.8599 27.0425 27.8573 27.0425C26.8676 27.0425 26.1672 26.3704 25.2987 24.6226L25.2775 24.5718H29.9563L29.9469 25.1511C29.9284 26.2854 29.0726 27.0552 27.8729 27.0425Z" fill="#7D7F82"/>
</svg>
