<svg width="32" height="32" viewBox="0 0 32 32" fill="none" xmlns="http://www.w3.org/2000/svg">
<g clip-path="url(#clip0_5534_20795)">
<path d="M9.43145 3.63661C12.0185 2.26215 14.9714 1.73384 17.8745 2.12608C18.4218 2.20002 18.9255 1.81629 18.9994 1.26898C19.0734 0.721663 18.6896 0.218033 18.1423 0.144086C14.8245 -0.304185 11.4497 0.2996 8.49308 1.8704C5.5365 3.44121 3.14715 5.89989 1.66152 8.90018C0.175904 11.9005 -0.331132 15.2912 0.211826 18.5948C0.754784 21.8985 2.32038 24.9486 4.68812 27.3155C7.05586 29.6825 10.1065 31.2471 13.4103 31.789C16.7141 32.3309 20.1046 31.8228 23.1044 30.3362C26.1043 28.8496 28.5622 26.4595 30.132 23.5024C31.7019 20.5453 32.3046 17.1703 31.8553 13.8526C31.7811 13.3053 31.2774 12.9218 30.7301 12.9959C30.1828 13.07 29.7992 13.5738 29.8734 14.1211C30.2665 17.024 29.7392 19.9772 28.3655 22.5646C26.9919 25.1521 24.8412 27.2434 22.2164 28.5442C19.5916 29.845 16.6248 30.2896 13.734 29.8154C10.8431 29.3412 8.17388 27.9722 6.10211 25.9011C4.03033 23.83 2.66044 21.1612 2.18535 18.2705C1.71026 15.3798 2.15392 12.4129 3.45384 9.78766C4.75375 7.16241 6.84444 5.01106 9.43145 3.63661Z" fill="#7D7F82"/>
<path d="M15.1051 6.04012C15.6551 5.99069 16.061 5.50471 16.0116 4.95464C15.9621 4.40457 15.4762 3.99872 14.9261 4.04814C12.656 4.25212 10.4909 5.09841 8.68414 6.48799C6.87743 7.87757 5.50383 9.75296 4.72407 11.8947C3.94431 14.0365 3.79065 16.356 4.28106 18.5819C4.77147 20.8078 5.88567 22.848 7.49328 24.4638C9.1009 26.0795 11.1354 27.2041 13.3588 27.7057C15.5822 28.2074 17.9025 28.0655 20.0482 27.2966C22.1938 26.5276 24.0762 25.1635 25.4749 23.3639C26.8736 21.5642 27.7308 19.4034 27.9463 17.1344C27.9985 16.5846 27.5951 16.0965 27.0453 16.0443C26.4955 15.9921 26.0074 16.3955 25.9552 16.9453C25.7757 18.8362 25.0613 20.6369 23.8957 22.1366C22.7301 23.6363 21.1615 24.773 19.3735 25.4138C17.5854 26.0546 15.6518 26.1728 13.799 25.7548C11.9462 25.3367 10.2507 24.3996 8.91107 23.0531C7.57139 21.7067 6.64289 20.0065 6.23421 18.1516C5.82554 16.2967 5.95359 14.3637 6.60339 12.5789C7.25319 10.7941 8.39786 9.23131 9.90345 8.07333C11.409 6.91534 13.2133 6.2101 15.1051 6.04012Z" fill="#7D7F82"/>
<path d="M16.0164 8.929C16.0933 9.47591 15.7122 9.98156 15.1653 10.0584C14.0613 10.2135 13.0225 10.673 12.1651 11.3855C11.3078 12.098 10.6659 13.0353 10.3114 14.0922C9.95694 15.1491 9.90392 16.2838 10.1583 17.3692C10.4127 18.4545 10.9644 19.4476 11.7516 20.2369C12.5387 21.0262 13.5303 21.5806 14.6149 21.838C15.6996 22.0953 16.8344 22.0454 17.8923 21.6938C18.9502 21.3422 19.8892 20.7029 20.604 19.8475C21.3189 18.9921 21.7812 17.9545 21.9394 16.851C22.0177 16.3043 22.5244 15.9246 23.0711 16.0029C23.6178 16.0813 23.9975 16.588 23.9191 17.1347C23.7083 18.606 23.0918 19.9895 22.1387 21.13C21.1856 22.2705 19.9336 23.123 18.5231 23.5918C17.1126 24.0605 15.5994 24.1271 14.1532 23.784C12.707 23.4408 11.385 22.7016 10.3354 21.6492C9.28586 20.5967 8.55024 19.2727 8.21107 17.8256C7.8719 16.3784 7.94259 14.8654 8.41521 13.4562C8.88783 12.047 9.7437 10.7974 10.8868 9.84737C12.03 8.89737 13.4151 8.28463 14.887 8.07784C15.4339 8.00101 15.9396 8.38208 16.0164 8.929Z" fill="#7D7F82"/>
<path fill-rule="evenodd" clip-rule="evenodd" d="M16.7716 16.6573C16.381 17.0478 15.7479 17.0478 15.3573 16.6573C14.9668 16.2668 14.9668 15.6336 15.3573 15.2431L19.0363 11.5641C18.9833 11.4531 18.9368 11.3382 18.8974 11.2199L17.8367 8.03792C17.4774 6.95992 17.7579 5.77141 18.5614 4.96792L22.6372 0.892201C24.2141 -0.684749 26.8993 -0.0508647 27.6045 2.06484L27.8373 2.76314L29.4381 1.16234C29.8286 0.771814 30.4618 0.771815 30.8523 1.16234C31.2428 1.55286 31.2428 2.18603 30.8523 2.57655L29.2515 4.17735L29.9498 4.41011C32.0655 5.11535 32.6994 7.80053 31.1224 9.37748L27.0467 13.4532C26.2432 14.2567 25.0547 14.5373 23.9767 14.1779L20.7947 13.1173C20.6765 13.0778 20.5616 13.0314 20.4505 12.9783L16.7716 16.6573ZM24.6092 12.2806L22.0135 11.4153L27.6704 5.75849L29.3174 6.30748C30.0226 6.54256 30.2339 7.43762 29.7082 7.96327L25.6325 12.039C25.3647 12.3068 24.9685 12.4003 24.6092 12.2806ZM20.5993 10.0011L26.2562 4.34427L25.7072 2.69729C25.4721 1.99206 24.577 1.78076 24.0514 2.30641L19.9757 6.38213C19.7078 6.64996 19.6143 7.04613 19.7341 7.40546L20.5993 10.0011Z" fill="#7D7F82"/>
</g>
<defs>
<clipPath id="clip0_5534_20795">
<rect width="32" height="32" fill="white"/>
</clipPath>
</defs>
</svg>
