<svg width="32" height="32" viewBox="0 0 32 32" fill="none" xmlns="http://www.w3.org/2000/svg">
<path d="M15.5245 1.34549C15.6741 0.884836 16.3258 0.884836 16.4755 1.34549L17.2348 3.68237C17.3018 3.88838 17.4937 4.02786 17.7104 4.02786H20.1675C20.6519 4.02786 20.8532 4.64767 20.4614 4.93237L18.4735 6.37664C18.2983 6.50397 18.2249 6.72965 18.2919 6.93566L19.0512 9.27254C19.2009 9.7332 18.6736 10.1163 18.2818 9.83156L16.2939 8.38729C16.1186 8.25997 15.8813 8.25997 15.7061 8.38729L13.7182 9.83156C13.3264 10.1163 12.7991 9.7332 12.9488 9.27254L13.7081 6.93566C13.7751 6.72965 13.7017 6.50397 13.5265 6.37664L11.5386 4.93237C11.1468 4.64767 11.3481 4.02786 11.8325 4.02786H14.2896C14.5063 4.02786 14.6982 3.88838 14.7652 3.68237L15.5245 1.34549Z" fill="#7D7F82"/>
<path fill-rule="evenodd" clip-rule="evenodd" d="M32 21V31H0V23C0 20.7909 1.79086 19 4 19H10V16C10 13.7909 11.7909 12 14 12H18C20.2091 12 22 13.7909 22 16V17H28C30.2091 17 32 18.7909 32 21ZM20 29H12V16C12 14.8954 12.8954 14 14 14H18C19.1046 14 20 14.8954 20 16V29ZM4 21H10V29H2V23C2 21.8954 2.89543 21 4 21ZM22 29V19H28C29.1046 19 30 19.8954 30 21V29H22Z" fill="#7D7F82"/>
</svg>
