<svg width="32" height="32" viewBox="0 0 32 32" fill="none" xmlns="http://www.w3.org/2000/svg">
<g clip-path="url(#clip0_5534_20822)">
<path fill-rule="evenodd" clip-rule="evenodd" d="M8 32C21.2548 32 32 21.2548 32 8C32 5.94927 31.7428 3.95862 31.2589 2.05854C31.0939 1.41092 30.5891 0.906056 29.9415 0.741119C28.0414 0.257207 26.0507 0 24 0C10.7452 0 0 10.7452 0 24C0 26.0507 0.257207 28.0414 0.741119 29.9415C0.906056 30.5891 1.41092 31.0939 2.05854 31.2589C3.95862 31.7428 5.94927 32 8 32ZM30 8C30 20.1503 20.1503 30 8 30C6.72316 30 5.473 29.8914 4.25787 29.6834L11.7635 22.1777L12.9497 23.3639C13.3403 23.7545 13.9734 23.7545 14.364 23.3639C14.7545 22.9734 14.7545 22.3402 14.364 21.9497L13.1777 20.7635L14.7635 19.1777L15.9497 20.3639C16.3403 20.7545 16.9734 20.7545 17.364 20.3639C17.7545 19.9734 17.7545 19.3402 17.364 18.9497L16.1777 17.7635L17.7635 16.1777L18.9497 17.3639C19.3403 17.7545 19.9734 17.7545 20.364 17.3639C20.7545 16.9734 20.7545 16.3402 20.364 15.9497L19.1777 14.7635L20.7635 13.1777L21.9497 14.3639C22.3403 14.7545 22.9734 14.7545 23.364 14.3639C23.7545 13.9734 23.7545 13.3402 23.364 12.9497L22.1777 11.7635L29.6834 4.25787C29.8914 5.473 30 6.72316 30 8ZM11.7635 19.3493L13.3493 17.7635L11.7071 16.1213C11.3166 15.7308 11.3166 15.0976 11.7071 14.7071C12.0976 14.3166 12.7308 14.3166 13.1213 14.7071L14.7635 16.3493L16.3493 14.7635L14.7071 13.1213C14.3166 12.7308 14.3166 12.0976 14.7071 11.7071C15.0976 11.3166 15.7308 11.3166 16.1213 11.7071L17.7635 13.3493L19.3493 11.7635L17.7071 10.1213C17.3166 9.73077 17.3166 9.0976 17.7071 8.70708C18.0976 8.31655 18.7308 8.31655 19.1213 8.70708L20.7635 10.3493L28.626 2.48678C27.136 2.16807 25.5887 2 24 2C11.8497 2 2 11.8497 2 24C2 25.5887 2.16807 27.136 2.48678 28.626L10.3493 20.7635L8.70711 19.1213C8.31658 18.7308 8.31658 18.0976 8.70711 17.7071C9.09763 17.3166 9.7308 17.3166 10.1213 17.7071L11.7635 19.3493Z" fill="#7D7F82"/>
</g>
<defs>
<clipPath id="clip0_5534_20822">
<rect width="32" height="32" fill="white"/>
</clipPath>
</defs>
</svg>
