<svg width="32" height="32" viewBox="0 0 32 32" fill="none" xmlns="http://www.w3.org/2000/svg">
<g clip-path="url(#clip0_5534_20800)">
<path d="M17.7071 8.70708C17.3166 9.0976 17.3166 9.73077 17.7071 10.1213L19.1213 11.5355L17.5355 13.1213L16.1213 11.7071C15.7308 11.3166 15.0976 11.3166 14.7071 11.7071C14.3166 12.0976 14.3166 12.7308 14.7071 13.1213L16.1213 14.5355L14.5355 16.1213L13.1213 14.7071C12.7308 14.3166 12.0976 14.3166 11.7071 14.7071C11.3166 15.0976 11.3166 15.7308 11.7071 16.1213L13.1213 17.5355L11.7071 18.9497C11.6479 19.0089 11.5977 19.0736 11.5565 19.1422L10.1213 17.7071C9.7308 17.3166 9.09763 17.3166 8.70711 17.7071C8.31658 18.0976 8.31658 18.7308 8.70711 19.1213L12.9497 23.3639C13.3403 23.7545 13.9734 23.7545 14.364 23.3639C14.7545 22.9734 14.7545 22.3402 14.364 21.9497L12.9288 20.5145C12.9974 20.4733 13.0621 20.4231 13.1213 20.3639L14.5355 18.9497L15.9497 20.3639C16.3403 20.7545 16.9734 20.7545 17.364 20.3639C17.7545 19.9734 17.7545 19.3402 17.364 18.9497L15.9497 17.5355L17.5355 15.9497L18.9497 17.3639C19.3403 17.7545 19.9734 17.7545 20.364 17.3639C20.7545 16.9734 20.7545 16.3402 20.364 15.9497L18.9497 14.5355L20.5355 12.9497L21.9497 14.3639C22.3403 14.7545 22.9734 14.7545 23.364 14.3639C23.7545 13.9734 23.7545 13.3402 23.364 12.9497L19.1213 8.70708C18.7308 8.31655 18.0976 8.31655 17.7071 8.70708Z" fill="#7D7F82"/>
<path fill-rule="evenodd" clip-rule="evenodd" d="M8 32C21.2548 32 32 21.2548 32 8C32 5.94927 31.7428 3.95862 31.2589 2.05854C31.0939 1.41092 30.5891 0.906056 29.9415 0.741119C28.0414 0.257207 26.0507 0 24 0C10.7452 0 0 10.7452 0 24C0 26.0507 0.257207 28.0414 0.741119 29.9415C0.906056 30.5891 1.41092 31.0939 2.05854 31.2589C3.95862 31.7428 5.94927 32 8 32ZM29.9368 9.68053C29.1202 20.491 20.491 29.1202 9.68053 29.9368C9.88764 29.3292 10 28.6777 10 28C10 24.6863 7.31371 22 4 22C3.3223 22 2.67083 22.1124 2.06323 22.3195C2.8798 11.509 11.509 2.8798 22.3195 2.06323C22.1124 2.67083 22 3.3223 22 4C22 7.31371 24.6863 10 28 10C28.6777 10 29.3292 9.88764 29.9368 9.68053ZM8 28C8 28.726 7.80659 29.4068 7.4685 29.9937C6.29098 29.9658 5.13742 29.8456 4.01449 29.6403L3.9106 29.5747L7.36397 26.1213C7.40162 26.0837 7.43564 26.0437 7.46604 26.002C7.80566 26.5899 8 27.2723 8 28ZM6.09108 24.5894C5.48263 24.2156 4.76649 24 4 24C3.27402 24 2.59321 24.1934 2.00628 24.5315C2.03633 25.8008 2.17369 27.0423 2.40931 28.2475L5.94975 24.7071C5.99398 24.6629 6.04133 24.6237 6.09108 24.5894ZM29.9937 7.4685C29.9658 6.29098 29.8456 5.13742 29.6403 4.01449L29.5653 3.92L26.1213 7.36396C26.0837 7.40162 26.0438 7.43564 26.002 7.46604C26.5899 7.80566 27.2723 8 28 8C28.726 8 29.4068 7.80659 29.9937 7.4685ZM24.5315 2.00628C25.8008 2.03633 27.0423 2.17369 28.2475 2.40931L24.7071 5.94975C24.6629 5.99398 24.6237 6.04133 24.5894 6.09108C24.2156 5.48263 24 4.76649 24 4C24 3.27402 24.1934 2.59321 24.5315 2.00628Z" fill="#7D7F82"/>
</g>
<defs>
<clipPath id="clip0_5534_20800">
<rect width="32" height="32" fill="white"/>
</clipPath>
</defs>
</svg>
