<svg width="32" height="32" viewBox="0 0 32 32" fill="none" xmlns="http://www.w3.org/2000/svg">
<path d="M31.5191 14.2128C31.499 13.9893 31.4043 13.779 31.2501 13.6159C31.0959 13.4527 30.8912 13.3462 30.6691 13.3134L25.8891 12.604L25.1391 7.44767C25.1088 7.22539 25.0045 7.01975 24.8431 6.86387C24.6816 6.70798 24.4724 6.61092 24.2491 6.58829L19.1091 6.11863L18.4091 1.33208C18.3767 1.11161 18.2716 0.908268 18.1103 0.754369C17.949 0.60047 17.7409 0.504846 17.5191 0.482692L12.2891 0.00303772C12.0794 -0.0133331 11.8699 0.0367588 11.6904 0.146192C11.5109 0.255625 11.3704 0.418829 11.2891 0.612599L3.58906 19.3891C3.10208 19.8151 2.65367 20.2832 2.24906 20.7881L1.82906 21.2577C0.657149 22.4435 0 24.0429 0 25.7095C0 27.3761 0.657149 28.9755 1.82906 30.1613C2.40453 30.7458 3.09107 31.2096 3.84838 31.5254C4.60568 31.8411 5.41848 32.0025 6.23906 32C7.05964 32.0025 7.87244 31.8411 8.62974 31.5254C9.38705 31.2096 10.0736 30.7458 10.6491 30.1613C10.7591 30.0514 10.9491 29.8915 11.1791 29.6916C11.6581 29.2934 12.1092 28.8627 12.5291 28.4026L19.6891 25.4047L31.3591 20.5382C31.5548 20.4585 31.7203 20.3189 31.8317 20.1394C31.9431 19.9598 31.9947 19.7496 31.9791 19.539L31.5191 14.2128ZM11.5191 17.9901L13.9991 20.4483L9.48906 23.7859L8.23906 22.5168L11.5191 17.9901ZM10.9191 25.1949L15.3791 21.8873L17.5691 24.0957L12.1191 26.374L10.9191 25.1949ZM23.9191 13.0336L15.5591 19.2492L12.6891 16.3513L18.6891 8.0972L23.2691 8.5169L23.9191 13.0336ZM12.8191 2.04157L16.5391 2.38132L17.1991 6.79814L11.2891 14.9423L8.65906 12.2842L12.8191 2.04157ZM7.81906 14.2428L10.0791 16.5311L8.99906 18.05L6.79906 21.0479L5.56906 19.7888L7.81906 14.2428ZM9.22906 28.6824C8.83527 29.0764 8.36762 29.3889 7.85286 29.6022C7.33809 29.8154 6.78631 29.9252 6.22906 29.9252C5.67181 29.9252 5.12003 29.8154 4.60526 29.6022C4.0905 29.3889 3.62285 29.0764 3.22906 28.6824C2.43566 27.8719 1.99138 26.7833 1.99138 25.6495C1.99138 24.5158 2.43566 23.4272 3.22906 22.6167C3.35906 22.4868 3.53906 22.287 3.73906 22.0671C3.93906 21.8473 4.11906 21.6275 4.33906 21.3976L6.22906 23.2962L8.67906 25.7845L10.4991 27.5832L9.86906 28.1428C9.59906 28.3826 9.36906 28.5824 9.24906 28.7123L9.22906 28.6824ZM19.5391 23.2363L16.9991 20.6881L25.2691 14.5426L29.6091 15.1821L29.9991 18.9394L19.5391 23.2363Z" fill="#7D7F82"/>
</svg>
