<svg width="32" height="32" viewBox="0 0 32 32" fill="none" xmlns="http://www.w3.org/2000/svg">
<g clip-path="url(#clip0_5534_20734)">
<path d="M15.996 6C17.6528 6 18.996 4.65685 18.996 3C18.996 1.34315 17.6528 0 15.996 0C14.3391 0 12.996 1.34315 12.996 3C12.996 4.65685 14.3391 6 15.996 6Z" fill="#7D7F82"/>
<path fill-rule="evenodd" clip-rule="evenodd" d="M5.2431 1.23884L5.99916 2.19573C6.4807 2.80511 7.16901 3.676 7.996 4.72201C8.75525 5.68233 9.59397 6.79479 10.4938 7.98833C11.5543 9.39487 12.6997 10.9141 13.8999 12.4296C14.6148 13.3322 15.3305 14.2356 16.0291 15.1168C16.7048 14.2572 17.4105 13.361 18.1482 12.4296C19.3462 10.9169 20.4732 9.40059 21.5169 7.99624C22.4062 6.79972 23.2351 5.68448 23.996 4.72204C24.823 3.67603 25.5113 2.80514 25.9928 2.19576L26.7489 1.23888L28.3185 2.47836L27.8657 3.05147C27.4871 3.5306 26.8886 4.28799 26.1369 5.23885C23.6675 8.36267 19.6908 13.4911 16.423 17.7052C13.4442 21.5467 11.0545 24.6284 10.9329 24.7392C10.606 25.0371 10.2075 25.3436 10.2075 25.3436C9.87311 25.678 9.47607 25.9433 9.03911 26.1243C8.60215 26.3053 8.13382 26.3984 7.66085 26.3984C7.18789 26.3984 6.71956 26.3053 6.28259 26.1243C5.84563 25.9433 5.4486 25.678 5.11416 25.3436C4.41092 24.6403 3.27072 24.6403 2.56748 25.3436C1.86423 26.0468 1.86423 27.187 2.56748 27.8903C3.23635 28.5591 4.03041 29.0897 4.90434 29.4517C5.77826 29.8137 6.71493 30 7.66086 30C8.60678 30 9.54345 29.8137 10.4174 29.4517C11.2913 29.0897 12.0854 28.5591 12.7542 27.8903L13.3613 27.2832L14.7804 25.2307L14.7606 25.202L15.9879 23.4609L15.996 23.4726L29.5905 3.81086C29.6529 3.7484 29.7046 3.67919 29.7453 3.60559C29.9394 3.25525 29.8878 2.80525 29.5905 2.50792C29.2424 2.15989 28.6823 2.14687 28.3185 2.47836C26.7491 1.23862 26.7489 1.23888 26.7489 1.23888C26.8164 1.1534 26.891 1.07333 26.9715 0.999964C28.1251 -0.0511034 29.9012 -0.00981939 31.0047 1.09371C32.0936 2.18266 32.1432 3.91743 31.1533 5.06514L20.3968 20.6236C20.6801 20.9914 20.9014 21.2938 21.1012 21.5668C21.327 21.8753 21.5253 22.1463 21.7542 22.4312C22.0093 22.7486 22.2108 22.9977 22.352 23.1704C22.408 23.2388 22.4517 23.2918 22.4841 23.3307C22.5885 23.4225 22.7028 23.5175 22.8036 23.5992C22.8648 23.6489 22.917 23.6903 22.9532 23.7187L22.9938 23.7504L23.0037 23.7582C23.0723 23.8109 23.1375 23.8681 23.1987 23.9293C23.3474 24.078 23.5239 24.196 23.7183 24.2765C23.9126 24.357 24.1208 24.3984 24.3311 24.3984C24.5415 24.3984 24.7497 24.357 24.944 24.2765C25.1383 24.196 25.3149 24.078 25.4636 23.9293C26.9479 22.445 29.3544 22.445 30.8387 23.9293C32.323 25.4136 32.323 27.8201 30.8387 29.3044C29.9841 30.159 28.9696 30.8369 27.853 31.2994C26.7365 31.7619 25.5397 32 24.3311 32C23.1226 32 21.9258 31.7619 20.8093 31.2994C19.6927 30.8369 18.6781 30.159 17.8236 29.3044L17.2165 28.6974C17.1356 28.6165 17.0619 28.5289 16.996 28.4354L15.996 26.989L14.996 28.4355C14.9301 28.5289 14.8564 28.6166 14.7755 28.6974L14.1684 29.3045C13.3139 30.1591 12.2993 30.837 11.1827 31.2995C10.0662 31.762 8.86942 32 7.66086 32C6.45228 32 5.25555 31.762 4.13897 31.2995C3.0224 30.837 2.00785 30.1591 1.15326 29.3045C-0.331035 27.8202 -0.331035 25.4137 1.15326 23.9294C2.63756 22.4451 5.04408 22.4451 6.52838 23.9294C6.6771 24.0781 6.85366 24.196 7.04796 24.2765C7.24227 24.357 7.45054 24.3984 7.66086 24.3984C7.87118 24.3984 8.07944 24.357 8.27374 24.2765C8.46805 24.196 8.64461 24.0781 8.79333 23.9294C8.8545 23.8682 8.91968 23.811 8.98826 23.7582L8.99823 23.7505L9.03882 23.7187C9.07497 23.6903 9.12715 23.6489 9.18843 23.5993C9.28924 23.5176 9.4035 23.4225 9.50786 23.3307C9.54027 23.2919 9.58402 23.2388 9.63996 23.1704C9.78122 22.9978 9.98266 22.7486 10.2378 22.4312C10.6063 21.9726 11.0809 21.379 11.6361 20.6827L0.838718 5.06511C-0.151178 3.9174 -0.101648 2.18263 0.987307 1.09368C2.09084 -0.00985217 3.86686 -0.0511361 5.02047 0.999931C5.10099 1.07329 5.17558 1.15336 5.2431 1.23884ZM4.12629 3.05144C4.50487 3.53056 5.1034 4.28795 5.85507 5.23882C8.13065 8.11743 11.6862 12.6983 14.7874 16.6973C14.1416 17.5194 13.5252 18.3032 12.9363 19.0473L2.40152 3.81083C2.33905 3.74836 2.28743 3.67916 2.24666 3.60556C2.05257 3.25521 2.10419 2.80522 2.40152 2.50789C2.74955 2.15986 3.30967 2.14684 3.67349 2.47832L4.12629 3.05144ZM3.67349 2.47832L5.2431 1.23884C5.2431 1.23884 5.24291 1.23859 3.67349 2.47832ZM18.6307 27.2831L17.2116 25.2307L19.1896 22.3697C20.2867 23.7792 20.9943 24.6802 21.0591 24.7392C21.386 25.037 21.7845 25.3435 21.7845 25.3435C22.1189 25.678 22.5159 25.9433 22.9529 26.1242C23.3898 26.3052 23.8582 26.3984 24.3311 26.3984C24.8041 26.3984 25.2724 26.3052 25.7094 26.1242C26.1464 25.9433 26.5434 25.678 26.8778 25.3435C27.5811 24.6403 28.7213 24.6403 29.4245 25.3435C30.1278 26.0468 30.1278 27.187 29.4245 27.8902C28.7556 28.5591 27.9616 29.0897 27.0877 29.4517C26.2137 29.8136 25.2771 30 24.3311 30C23.3852 30 22.4485 29.8136 21.5746 29.4517C20.7007 29.0897 19.9066 28.5591 19.2378 27.8902L18.6307 27.2831ZM22.5314 23.3866C22.5415 23.3984 22.5456 23.4028 22.5456 23.4028L22.5415 23.398L22.5314 23.3866ZM9.44636 23.4029C9.44636 23.4029 9.45046 23.3985 9.46064 23.3866L9.45265 23.3956L9.44636 23.4029Z" fill="#7D7F82"/>
</g>
<defs>
<clipPath id="clip0_5534_20734">
<rect width="32" height="32" fill="white"/>
</clipPath>
</defs>
</svg>
