<svg width="32" height="32" viewBox="0 0 32 32" fill="none" xmlns="http://www.w3.org/2000/svg">
<g clip-path="url(#clip0_5534_20719)">
<path d="M13.7036 4.94642L15.5979 5.58787C15.8227 4.92406 16.0026 4.24842 16.1378 3.56566L14.1759 3.17725C14.0576 3.77482 13.9001 4.36591 13.7036 4.94642Z" fill="#7D7F82"/>
<path d="M12.0882 8.22114L13.75 9.33401C14.1421 8.74861 14.4913 8.14305 14.7977 7.52174L13.0041 6.63704C12.7362 7.18004 12.431 7.70933 12.0882 8.22114Z" fill="#7D7F82"/>
<path d="M10.9928 12.4742L9.67277 10.9717C9.90114 10.771 10.1247 10.5615 10.3431 10.3431C10.5615 10.1247 10.771 9.90114 10.9717 9.67277L12.4742 10.9928C12.2451 11.2535 12.0062 11.5085 11.7574 11.7574C11.5085 12.0062 11.2535 12.2451 10.9928 12.4742Z" fill="#7D7F82"/>
<path d="M3.56567 16.1378L3.17725 14.1759C3.77482 14.0576 4.36591 13.9001 4.94642 13.7036L5.58787 15.5979C4.92406 15.8227 4.24842 16.0026 3.56567 16.1378Z" fill="#7D7F82"/>
<path d="M7.52173 14.7977L6.63704 13.0041C7.18004 12.7362 7.70933 12.431 8.22114 12.0882L9.33401 13.75C8.74861 14.1421 8.14305 14.4913 7.52173 14.7977Z" fill="#7D7F82"/>
<path d="M28.4343 15.8622L28.8227 17.8241C28.2252 17.9424 27.6341 18.0999 27.0536 18.2964L26.4121 16.4021C27.0759 16.1773 27.7516 15.9974 28.4343 15.8622Z" fill="#7D7F82"/>
<path d="M24.4783 17.2023L25.363 18.9959C24.82 19.2638 24.2907 19.569 23.7789 19.9118L22.666 18.25C23.2514 17.8579 23.8569 17.5087 24.4783 17.2023Z" fill="#7D7F82"/>
<path d="M21.0072 19.5258C20.7465 19.7549 20.4915 19.9938 20.2426 20.2426C19.9938 20.4915 19.7549 20.7465 19.5258 21.0072L21.0283 22.3272C21.229 22.0989 21.4385 21.8753 21.6569 21.6569C21.8752 21.4385 22.0989 21.229 22.3272 21.0283L21.0072 19.5258Z" fill="#7D7F82"/>
<path d="M18.25 22.666L19.9118 23.7789C19.569 24.2907 19.2638 24.82 18.9959 25.363L17.2023 24.4783C17.5087 23.8569 17.8579 23.2514 18.25 22.666Z" fill="#7D7F82"/>
<path d="M16.4021 26.4121L18.2964 27.0536C18.0999 27.6341 17.9424 28.2252 17.8241 28.8227L15.8622 28.4343C15.9974 27.7516 16.1773 27.0759 16.4021 26.4121Z" fill="#7D7F82"/>
<path fill-rule="evenodd" clip-rule="evenodd" d="M15.5623 31.994C11.6146 31.8867 7.69916 30.3266 4.68629 27.3137C1.67343 24.3008 0.113313 20.3854 0.0059507 16.4377C0.00595047 16.4377 0.00595092 16.4377 0.0059507 16.4377C-0.00497431 16.036 -0.000856392 15.6339 0.0183057 15.2325C0.0309485 14.9676 0.0501402 14.703 0.0758803 14.4389C0.42284 10.8789 1.95964 7.41294 4.68629 4.68629C7.41294 1.95964 10.8789 0.422841 14.4389 0.0758806C19.0369 -0.372253 23.792 1.16455 27.3137 4.68629C30.3266 7.69916 31.8867 11.6146 31.994 15.5623C31.9945 15.5802 31.995 15.5982 31.9954 15.6161C32.0109 16.265 31.9871 16.9146 31.9241 17.5611C31.5772 21.1211 30.0404 24.5871 27.3137 27.3137C24.5871 30.0404 21.1211 31.5772 17.5611 31.9241C17.552 31.925 17.5428 31.9259 17.5336 31.9268C16.8783 31.9895 16.2199 32.0119 15.5623 31.994ZM25.8995 25.8995C20.4322 31.3668 11.5678 31.3668 6.1005 25.8995C0.633165 20.4322 0.633164 11.5678 6.1005 6.1005C11.5678 0.633163 20.4322 0.633163 25.8995 6.1005C31.3668 11.5678 31.3668 20.4322 25.8995 25.8995Z" fill="#7D7F82"/>
</g>
<defs>
<clipPath id="clip0_5534_20719">
<rect width="32" height="32" fill="white"/>
</clipPath>
</defs>
</svg>
