<svg width="32" height="32" viewBox="0 0 32 32" fill="none" xmlns="http://www.w3.org/2000/svg">
<g clip-path="url(#clip0_5534_20763)">
<path d="M29.991 23.764C29.989 23.764 29.986 23.763 29.985 23.763C31.851 20.408 32.425 16.53 31.691 12.854C31.691 12.853 31.692 12.852 31.692 12.851C31.682 12.803 31.665 12.757 31.655 12.709C31.551 12.214 31.425 11.724 31.274 11.239C31.244 11.143 31.206 11.05 31.174 10.954C31.027 10.512 30.864 10.075 30.677 9.644C30.666 9.618 30.658 9.591 30.647 9.565C30.646 9.568 30.645 9.571 30.644 9.574C29.867 7.802 28.767 6.136 27.316 4.685C25.995 3.365 24.495 2.341 22.901 1.579C22.689 1.475 22.481 1.366 22.262 1.273C22.262 1.276 22.263 1.28 22.263 1.283C20.268 0.435 18.135 0 16 0C14.846 0 13.695 0.138 12.563 0.386C12.483 0.403 12.405 0.426 12.325 0.444C9.52503 1.102 6.86503 2.504 4.68203 4.686C4.08203 5.286 3.55703 5.931 3.07303 6.596L3.07203 6.595C3.06003 6.61 3.04903 6.627 3.03803 6.643C2.84803 6.905 2.66103 7.166 2.48903 7.436C2.29603 7.733 2.11103 8.036 1.94103 8.349C1.94303 8.351 1.94503 8.353 1.94603 8.355C-1.36097 14.425 -0.454967 22.178 4.68203 27.314C6.17203 28.804 7.88703 29.927 9.71403 30.707C9.71103 30.709 9.70903 30.711 9.70603 30.712C9.73903 30.726 9.77503 30.736 9.80803 30.75C10.066 30.858 10.329 30.949 10.592 31.043C10.732 31.092 10.871 31.145 11.013 31.19C11.377 31.309 11.744 31.412 12.114 31.504C12.119 31.505 12.125 31.507 12.13 31.509C12.13 31.509 12.13 31.509 12.131 31.509C13.401 31.824 14.699 32 16 32C17.75 32 19.495 31.697 21.169 31.127C21.265 31.095 21.36 31.061 21.455 31.027C21.747 30.921 22.038 30.812 22.325 30.688C22.356 30.675 22.388 30.665 22.419 30.652C22.42 30.65 22.42 30.647 22.421 30.644C24.197 29.867 25.865 28.766 27.319 27.313C27.872 26.76 28.359 26.168 28.814 25.559C28.816 25.557 28.817 25.555 28.819 25.552C29.155 25.103 29.464 24.641 29.746 24.166C29.826 24.033 29.914 23.902 29.991 23.764ZM27.918 23.328C25.785 22.843 23.735 22.152 21.778 21.297C22.185 20.47 22.556 19.582 22.889 18.631C23.074 18.639 23.27 18.665 23.451 18.665C26.215 18.665 28.376 17.678 29.986 15.725C30.037 18.364 29.345 21.008 27.918 23.328ZM29.576 12.642C27.998 15.9 25.69 16.673 23.495 16.669C24.342 13.481 24.748 9.618 24.538 4.918C25.012 5.284 25.473 5.671 25.903 6.101C27.773 7.97 28.987 10.244 29.576 12.642ZM22.468 3.582C22.834 8.876 22.39 13.07 21.428 16.453C17.872 15.532 16.818 10.954 15.799 6.514C15.423 4.878 15.064 3.352 14.587 2.072C15.054 2.024 15.525 2 16 2C18.29 2 20.494 2.551 22.468 3.582ZM6.09703 6.1C7.91803 4.28 10.157 3.039 12.593 2.432C13.091 3.669 13.475 5.327 13.851 6.96C14.894 11.509 16.179 17.09 20.807 18.357C20.533 19.087 20.233 19.772 19.911 20.421C13.62 17.261 8.38803 12.542 4.42403 8.133C4.91003 7.418 5.46303 6.734 6.09703 6.1ZM18.937 22.17C18.556 22.782 18.154 23.356 17.737 23.894C15.394 22.927 12.199 22.219 8.09603 21.761C5.91203 21.517 4.22203 21.089 2.71103 20.37C1.59703 16.967 1.82203 13.227 3.38103 9.961C7.41003 14.36 12.653 18.997 18.937 22.17ZM6.09703 25.899C5.20003 25.003 4.46603 24.008 3.86403 22.957C5.04903 23.321 6.35403 23.577 7.87403 23.747C11.764 24.182 14.471 24.812 16.361 25.502C14.89 27.052 13.302 28.274 11.759 29.341C9.64603 28.674 7.70803 27.51 6.09703 25.899ZM14.394 29.9C15.732 28.895 17.07 27.766 18.318 26.388C19.316 26.957 19.896 27.529 20.216 28.041C20.47 28.449 20.572 28.847 20.591 29.217C19.132 29.722 17.589 30 16 30C15.458 30 14.924 29.961 14.394 29.9ZM25.903 25.899C24.884 26.917 23.734 27.755 22.494 28.406C22.395 27.95 22.218 27.471 21.913 26.983C21.41 26.178 20.642 25.462 19.609 24.828C20.027 24.273 20.431 23.686 20.813 23.059C22.676 23.883 24.62 24.571 26.642 25.083C26.404 25.36 26.165 25.637 25.903 25.899Z" fill="#7D7F82"/>
</g>
<defs>
<clipPath id="clip0_5534_20763">
<rect width="32" height="32" fill="white"/>
</clipPath>
</defs>
</svg>
