<svg width="32" height="32" viewBox="0 0 32 32" fill="none" xmlns="http://www.w3.org/2000/svg">
<g clip-path="url(#clip0_5534_20708)">
<path d="M20.9799 20.69C21.0986 20.746 21.2287 20.7734 21.3599 20.77C21.5579 20.7718 21.752 20.7148 21.9175 20.6062C22.0831 20.4976 22.2127 20.3423 22.2899 20.16C22.4799 19.69 22.6599 19.16 22.8299 18.69C24.2569 18.6943 25.6605 18.3279 26.9034 17.6267C28.1462 16.9255 29.1856 15.9136 29.9199 14.69C30.0848 16.3071 29.9733 17.9404 29.5899 19.52C29.5265 19.7773 29.5677 20.0492 29.7046 20.276C29.8415 20.5029 30.0628 20.6662 30.3199 20.73C30.5772 20.7935 30.8491 20.7522 31.076 20.6153C31.3028 20.4785 31.4661 20.2572 31.5299 20C32.1914 17.2954 32.1489 14.4663 31.4067 11.7827C30.6645 9.09913 29.2471 6.65039 27.2899 4.67001C24.2896 1.6717 20.2216 -0.0125732 15.9799 -0.0125732C11.7383 -0.0125732 7.6702 1.6717 4.66992 4.67001C3.95669 5.377 3.31677 6.15429 2.75991 6.99001C2.59255 7.13057 2.47939 7.32505 2.43991 7.54001C0.546802 10.6027 -0.257925 14.2144 0.155818 17.7911C0.56956 21.3678 2.17758 24.7004 4.7199 27.25C6.41926 29.0083 8.51408 30.3351 10.8299 31.12C10.9361 31.1337 11.0437 31.1337 11.1499 31.12C11.4151 31.1624 11.6864 31.0978 11.9039 30.9403C12.1214 30.7827 12.2675 30.5452 12.3099 30.28C12.3524 30.0148 12.2877 29.7436 12.1302 29.526C11.9726 29.3085 11.7351 29.1624 11.4699 29.12C9.45012 28.4685 7.61335 27.3479 6.10992 25.85C4.98367 24.7194 4.0602 23.4036 3.37991 21.96C5.07591 22.7474 6.8968 23.2314 8.75991 23.39L10.4099 23.61H10.8499C11.1151 23.6272 11.3763 23.5384 11.5761 23.3631C11.7758 23.1877 11.8977 22.9402 11.9149 22.675C11.9322 22.4098 11.8433 22.1486 11.668 21.9489C11.4926 21.7491 11.2451 21.6272 10.9799 21.61H10.6799C10.1599 21.54 9.38992 21.43 8.98992 21.39C6.59793 21.2454 4.29886 20.4119 2.36993 18.99C1.64639 15.7827 2.07474 12.4231 3.57992 9.50001C7.25312 13.8545 11.5978 17.5949 16.4499 20.58C16.6043 20.6716 16.7804 20.72 16.9599 20.72C17.1335 20.72 17.304 20.6748 17.4548 20.5889C17.6056 20.503 17.7314 20.3793 17.8199 20.23C17.9551 20.0019 17.9942 19.7295 17.9286 19.4725C17.8629 19.2156 17.698 18.9953 17.4699 18.86C12.6289 15.8753 8.31132 12.1152 4.68991 7.73001C5.11819 7.14902 5.59311 6.60388 6.10992 6.10001C7.85916 4.35326 10.0397 3.10082 12.4299 2.47001C13.4299 3.20001 13.9699 5.66001 14.4299 8.07001C15.2999 12.22 16.4299 17.33 20.7699 18.45C20.6499 18.77 20.5499 19.09 20.4199 19.38C20.3697 19.5027 20.3443 19.6341 20.3453 19.7667C20.3463 19.8993 20.3736 20.0303 20.4257 20.1522C20.4779 20.2741 20.5537 20.3844 20.6488 20.4768C20.744 20.5691 20.8565 20.6416 20.9799 20.69ZM29.1599 11.31C28.9056 12.6994 28.2096 13.9697 27.1754 14.9318C26.1412 15.8939 24.8241 16.4965 23.4199 16.65C24.29 12.713 24.543 8.66471 24.1699 4.65001C24.7753 5.08235 25.3439 5.56399 25.8699 6.09001C27.3412 7.56368 28.4651 9.34699 29.1599 11.31ZM16.3999 7.66001C16.118 5.71346 15.5308 3.82356 14.6599 2.06001C15.0999 2.06001 15.5299 2.00001 15.9799 2.00001C18.0864 2.00028 20.1654 2.47899 22.0599 3.40001C22.6016 7.78281 22.3714 12.2266 21.3799 16.53C18.1099 15.74 17.2399 11.64 16.3999 7.66001Z" fill="#D9D9D9"/>
<path d="M18.2799 26.85C18.6065 26.7084 18.8796 26.4668 19.0599 26.16C19.255 25.8266 19.3553 25.4463 19.3499 25.06C19.3666 24.7484 19.3123 24.437 19.191 24.1494C19.0697 23.8619 18.8847 23.6056 18.6499 23.4C18.105 22.9716 17.4218 22.7581 16.7299 22.8C16.0315 22.7932 15.343 22.9653 14.7299 23.3C14.5646 23.3936 14.4293 23.5323 14.3399 23.7C14.2614 23.8542 14.2301 24.0281 14.2499 24.2C14.2653 24.3673 14.3277 24.5267 14.4299 24.66C14.5226 24.7859 14.6518 24.8802 14.7999 24.93C14.9685 24.9682 15.1452 24.947 15.2999 24.87C15.5036 24.7585 15.7226 24.6776 15.9499 24.63C16.143 24.5827 16.3411 24.5592 16.5399 24.56C17.1899 24.56 17.5399 24.82 17.5399 25.33C17.547 25.4449 17.5272 25.5599 17.4821 25.6658C17.4369 25.7717 17.3677 25.8656 17.2799 25.94C17.075 26.0907 16.8238 26.165 16.5699 26.15H16.1999C16.0885 26.1414 15.9765 26.1566 15.8713 26.1945C15.7661 26.2325 15.6703 26.2923 15.5899 26.37C15.5157 26.4543 15.4589 26.5526 15.4228 26.659C15.3868 26.7654 15.3722 26.8779 15.3799 26.99C15.366 27.2192 15.4413 27.445 15.5899 27.62C15.6703 27.6978 15.7661 27.7576 15.8713 27.7955C15.9765 27.8334 16.0885 27.8486 16.1999 27.84H16.7599C17.4299 27.84 17.7599 28.1 17.7599 28.63C17.7599 29.16 17.3799 29.49 16.6299 29.49C16.4115 29.487 16.1939 29.4636 15.9799 29.42C15.733 29.3643 15.4944 29.2769 15.2699 29.16C15.0988 29.0667 14.8987 29.0416 14.7099 29.09C14.548 29.1339 14.4066 29.2329 14.3099 29.37C14.2129 29.5167 14.1562 29.6864 14.1457 29.862C14.1351 30.0375 14.1711 30.2128 14.2499 30.37C14.3594 30.554 14.5189 30.7032 14.7099 30.8C15.001 30.9471 15.3104 31.0547 15.6299 31.12C15.981 31.1999 16.3399 31.2402 16.6999 31.24C17.4613 31.2812 18.2125 31.0508 18.8199 30.59C19.0721 30.376 19.2719 30.1069 19.4036 29.8035C19.5354 29.5001 19.5957 29.1704 19.5799 28.84C19.5939 28.3938 19.4793 27.953 19.2499 27.57C19.023 27.2219 18.6789 26.9665 18.2799 26.85Z" fill="#D9D9D9"/>
<path d="M24.1899 26.9L25.2699 25.44C25.4255 25.2546 25.5136 25.022 25.5199 24.78C25.5215 24.6813 25.5028 24.5833 25.465 24.4921C25.4271 24.401 25.371 24.3186 25.2999 24.25C25.2275 24.1792 25.1413 24.1241 25.0467 24.088C24.9521 24.0518 24.8511 24.0355 24.7499 24.04C24.5626 24.0325 24.3765 24.0738 24.2099 24.16C24.0396 24.2573 23.8954 24.3946 23.7899 24.56L23.1399 25.49L22.4899 24.56C22.3852 24.3974 22.245 24.2607 22.0799 24.16C21.9098 24.0738 21.7205 24.0325 21.5299 24.04C21.4296 24.033 21.3288 24.0471 21.2342 24.0814C21.1396 24.1157 21.0532 24.1694 20.9807 24.2391C20.9081 24.3088 20.851 24.393 20.813 24.4862C20.775 24.5793 20.7569 24.6794 20.7599 24.78C20.7575 25.0218 20.8428 25.2563 20.9999 25.44L22.1099 26.9L20.8999 28.54C20.7464 28.7252 20.6647 28.9595 20.6699 29.2C20.6651 29.2982 20.6814 29.3963 20.7176 29.4877C20.7538 29.5791 20.8092 29.6617 20.8799 29.73C20.9516 29.8018 21.0377 29.8576 21.1325 29.8938C21.2273 29.93 21.3286 29.9457 21.4299 29.94C21.6206 29.9489 21.8102 29.9075 21.9799 29.82C22.1382 29.7108 22.2769 29.5756 22.3899 29.42L23.1599 28.33L23.9299 29.42C24.0354 29.5854 24.1795 29.7227 24.3499 29.82C24.5205 29.905 24.7095 29.9462 24.8999 29.94C25.0011 29.9445 25.1021 29.9282 25.1967 29.8921C25.2913 29.8559 25.3775 29.8008 25.4499 29.73C25.5233 29.6627 25.5816 29.5808 25.6213 29.4895C25.6609 29.3982 25.6809 29.2995 25.6799 29.2C25.6823 28.9582 25.5971 28.7238 25.4399 28.54L24.1899 26.9Z" fill="#D9D9D9"/>
<path d="M30.7199 26.85C31.0464 26.7084 31.3196 26.4668 31.4999 26.16C31.695 25.8266 31.7953 25.4463 31.7899 25.06C31.8064 24.7493 31.7529 24.4389 31.6335 24.1516C31.5141 23.8643 31.3318 23.6075 31.0999 23.4C30.551 22.9718 29.8648 22.7585 29.1699 22.8C28.471 22.7891 27.7815 22.9615 27.1699 23.3C27.0009 23.3921 26.862 23.531 26.7699 23.7C26.6914 23.8542 26.6601 24.0281 26.6799 24.2C26.6953 24.3673 26.7577 24.5267 26.8599 24.66C26.9526 24.7859 27.0818 24.8802 27.2299 24.93C27.3985 24.9682 27.5751 24.947 27.7299 24.87C27.9343 24.76 28.1531 24.6792 28.3799 24.63C28.573 24.5827 28.7711 24.5592 28.9699 24.56C29.6199 24.56 29.9699 24.82 29.9699 25.33C29.977 25.4449 29.9572 25.5599 29.9121 25.6658C29.8669 25.7717 29.7977 25.8656 29.7099 25.94C29.505 26.0907 29.2539 26.165 28.9999 26.15H28.6299C28.5185 26.1414 28.4065 26.1566 28.3013 26.1945C28.1961 26.2325 28.1003 26.2923 28.0199 26.37C27.9457 26.4543 27.8889 26.5526 27.8528 26.659C27.8168 26.7654 27.8022 26.8779 27.8099 26.99C27.796 27.2192 27.8713 27.445 28.0199 27.62C28.1003 27.6978 28.1961 27.7576 28.3013 27.7955C28.4065 27.8334 28.5185 27.8486 28.6299 27.84H29.1899C29.8599 27.84 30.1899 28.1 30.1899 28.63C30.1899 29.16 29.8099 29.49 29.0599 29.49C28.8416 29.487 28.6239 29.4636 28.4099 29.42C28.1635 29.3626 27.9251 29.2753 27.6999 29.16C27.5288 29.0666 27.3287 29.0416 27.1399 29.09C26.978 29.1339 26.8366 29.2329 26.7399 29.37C26.6382 29.5103 26.5792 29.677 26.5699 29.85C26.559 30.0301 26.597 30.2098 26.6799 30.37C26.7894 30.554 26.9489 30.7032 27.1399 30.8C27.431 30.9471 27.7404 31.0547 28.0599 31.12C28.411 31.1999 28.7699 31.2402 29.1299 31.24C29.8912 31.2812 30.6425 31.0508 31.2499 30.59C31.5008 30.377 31.6996 30.1096 31.8314 29.808C31.9631 29.5064 32.0241 29.1788 32.0099 28.85C32.0239 28.4038 31.9093 27.963 31.6799 27.58C31.4572 27.23 31.1167 26.9711 30.7199 26.85Z" fill="#D9D9D9"/>
</g>
<defs>
<clipPath id="clip0_5534_20708">
<rect width="32" height="32" fill="white"/>
</clipPath>
</defs>
</svg>
