<svg width="32" height="32" viewBox="0 0 32 32" fill="none" xmlns="http://www.w3.org/2000/svg">
<g clip-path="url(#clip0_5534_20784)">
<path d="M22.9479 22.2601C22.8385 22.1766 22.7086 22.1269 22.5684 22.0939C22.4755 22.0721 22.3811 22.0529 22.2744 22.0529C21.946 22.0529 21.6908 22.1281 21.51 22.2796C21.3282 22.4302 21.1728 22.6569 21.0428 22.96L18.7633 28.2589L16.4828 22.9727C16.3528 22.6706 16.1974 22.4409 16.0156 22.2855C15.8347 22.1301 15.5708 22.0529 15.2258 22.0529C14.9403 22.0529 14.7028 22.1193 14.5132 22.2532C14.3226 22.3872 14.2024 22.5748 14.1505 22.8172C14.0987 23.0587 14.1417 23.3314 14.2796 23.6334L17.4153 30.5521C17.4756 30.6844 17.5449 30.7942 17.6177 30.8949C17.5972 30.8975 17.5769 30.9014 17.5564 30.9038C17.5772 30.9014 17.598 30.899 17.6188 30.8969C17.7124 31.0259 17.8135 31.1356 17.9275 31.2128C18.1299 31.3507 18.3957 31.4201 18.7242 31.4201C19.0438 31.4201 19.3048 31.3507 19.5081 31.2128C19.7105 31.075 19.8766 30.8551 20.0066 30.5521L23.1551 23.6334C23.2929 23.3314 23.3389 23.0606 23.291 22.8231C23.2441 22.5856 23.1297 22.3979 22.9479 22.2601Z" fill="#7D7F82"/>
<path d="M31.1626 28.7124C30.8684 28.1768 30.4804 27.8444 29.9965 27.7144C30.6446 27.5336 31.1382 27.212 31.4803 26.7497C31.8215 26.2873 31.9915 25.7155 31.9915 25.0322C31.9915 24.1339 31.7091 23.4321 31.1431 22.9267C31.0742 22.8652 30.9909 22.8193 30.915 22.7653C30.4234 22.4152 29.7863 22.2215 29.0012 22.186C28.9125 22.182 28.832 22.1692 28.7395 22.1692H25.5519C25.1638 22.1692 24.8657 22.2728 24.6585 22.48C24.4513 22.6872 24.3476 22.9854 24.3476 23.3744V30.2158C24.3476 30.3599 24.3768 30.4786 24.4053 30.5978C24.4537 30.7997 24.5282 30.9789 24.6585 31.1092C24.8657 31.3165 25.1589 31.4201 25.5392 31.4201C25.9282 31.4201 26.2234 31.3165 26.4267 31.1092C26.6301 30.902 26.7317 30.6039 26.7317 30.2158V27.8962H27.4443C27.5226 27.8962 27.5807 27.9272 27.6521 27.9376C27.7697 27.9549 27.8949 27.9607 27.9946 28.0057C28.154 28.08 28.2859 28.212 28.3895 28.4016L29.5693 30.5648C29.7326 30.8678 29.9203 31.0858 30.1324 31.2197C30.3445 31.3536 30.6182 31.4201 30.9554 31.4201C31.2917 31.4201 31.5468 31.3448 31.7198 31.1933C31.8928 31.0428 31.9857 30.8502 31.9984 30.6166C32.0111 30.3839 31.9485 30.1376 31.8107 29.8786L31.1626 28.7124ZM29.6979 25.2462C29.6611 25.5981 29.4989 25.8512 29.2145 26.0077C28.9865 26.1333 28.6993 26.212 28.3123 26.212H26.7317V23.9961H28.3123C29.2536 23.9961 29.7248 24.3636 29.7248 25.0977C29.7248 25.1543 29.7033 25.1939 29.6979 25.2462Z" fill="#7D7F82"/>
<path d="M31.5967 12.434C31.4784 11.9165 31.3336 11.4052 31.1633 10.8992C30.4003 8.63196 29.1329 6.49696 27.3267 4.69075C26.4119 3.77595 25.4068 3.01138 24.3501 2.36416C23.7501 1.99675 23.1327 1.67229 22.4994 1.39108C20.4346 0.474507 18.2213 0 16.0024 0C15.2487 0 14.4973 0.0711118 13.7497 0.176863C13.086 0.270701 12.4275 0.400646 11.7775 0.577875C9.17801 1.28655 6.71964 2.6491 4.67798 4.69075C4.07695 5.29178 3.55192 5.9379 3.06642 6.60381C2.65136 7.17307 2.26953 7.75815 1.93896 8.36541C0.201177 11.5574 -0.366435 15.2101 0.227813 18.7088C0.398628 19.7144 0.666275 20.7045 1.02965 21.6689C1.80828 23.7351 3.0151 25.6766 4.67798 27.3394C6.61987 29.2813 8.9351 30.6001 11.3936 31.3351C11.4059 31.3405 11.4192 31.3424 11.4318 31.3472C11.4907 31.3647 11.5486 31.3863 11.6077 31.4031L11.6157 31.3844C11.6752 31.3954 11.7298 31.4201 11.7926 31.4201C12.3454 31.4201 12.7935 30.972 12.7935 30.4191C12.7935 29.9719 12.495 29.6066 12.0902 29.4783C12.0806 29.4722 12.0763 29.4583 12.0648 29.4549C9.83249 28.8055 7.7832 27.6136 6.09356 25.9239C5.18554 25.0159 4.44284 24.0071 3.83662 22.9413C5.02701 23.3316 5.61356 23.4791 7.15578 23.652C8.41087 23.7918 8.35038 23.769 9.73081 23.9498C9.78881 23.9574 9.84518 23.9645 9.90187 23.9645C10.3799 23.9645 10.8031 23.6214 10.8872 23.1336C10.981 22.5891 10.6154 22.0711 10.071 21.9772C8.96935 21.7866 8.67283 21.8075 7.37864 21.6619C5.13544 21.4106 4.20769 21.0891 2.66932 20.2857C1.59439 16.9102 1.8315 13.2131 3.37188 9.9804C6.77676 13.7118 9.64869 16.2868 13.3139 18.7797C13.487 18.897 13.6825 18.9527 13.876 18.9527C14.1966 18.9527 14.5114 18.7993 14.7049 18.5148C15.0157 18.0574 14.8965 17.4347 14.44 17.1239C10.7463 14.6132 7.84399 11.9784 4.41272 8.14994C4.90122 7.43064 5.45649 6.74328 6.0935 6.10627C7.96049 4.23934 10.2661 2.97882 12.7735 2.38939C13.3419 3.62383 13.73 5.45069 14.1079 7.24601C15.1118 12.0083 16.3601 17.9348 21.8799 18.5868C22.2738 18.6327 22.6619 18.6562 23.0441 18.6562C25.8349 18.6562 28.3024 17.4407 29.9783 15.3709C30.0203 16.291 29.9795 17.2133 29.8434 18.1253L29.8561 18.1332C29.8516 18.1719 29.8334 18.2059 29.8334 18.2457C29.8334 18.7986 30.2815 19.2467 30.8343 19.2467C31.3187 19.2467 31.7038 18.8956 31.7963 18.4385L31.8161 18.4375C32.1199 16.4425 32.0476 14.4065 31.5967 12.434ZM21.5559 16.4924C17.9343 15.6571 16.9828 11.1787 16.0678 6.83352C15.6932 5.05548 15.3419 3.40048 14.8147 2.05974C15.208 2.02687 15.6031 2.00188 16.0024 2.00188C18.2858 2.00188 20.4828 2.55074 22.4523 3.57465C22.8415 8.62206 22.5402 12.8664 21.5559 16.4924ZM23.5888 16.627C24.4556 13.242 24.7693 9.37589 24.5367 4.91582C25.0138 5.28415 25.4779 5.67306 25.9112 6.10627C27.6896 7.88474 28.8786 10.0284 29.4993 12.2966C28.4131 14.8024 26.2112 16.421 23.5888 16.627Z" fill="#7D7F82"/>
</g>
<defs>
<clipPath id="clip0_5534_20784">
<rect width="32" height="32" fill="white"/>
</clipPath>
</defs>
</svg>
