<svg width="33" height="33" viewBox="0 0 33 33" fill="none" xmlns="http://www.w3.org/2000/svg">
<path d="M30.1176 28.7466C28.2912 26.9579 25.3302 26.9579 23.504 28.7466C22.483 29.7464 20.8276 29.7464 19.8067 28.7466C17.9803 26.9579 15.0193 26.9579 13.1931 28.7466C12.172 29.7464 10.5167 29.7464 9.49569 28.7466C7.66938 26.9579 4.70839 26.9579 2.88208 28.7466L0.304343 31.2711C-0.0983013 31.6654 -0.0983013 32.3048 0.304343 32.6992C0.707051 33.0936 1.35985 33.0936 1.7625 32.6992L4.34023 30.1746C5.36125 29.1747 7.01658 29.1747 8.03754 30.1746C9.86385 31.9633 12.8248 31.9633 14.6512 30.1746C15.6722 29.1747 17.3275 29.1747 18.3485 30.1746C20.1748 31.9633 23.1358 31.9633 24.9621 30.1746C25.9831 29.1747 27.6384 29.1747 28.6595 30.1746L31.2372 32.6992C31.6398 33.0936 32.2927 33.0936 32.6953 32.6992C33.098 32.3048 33.098 31.6654 32.6953 31.2711L30.1176 28.7466Z" fill="#7D7F82"/>
<path d="M1.03109 25.3116H31.9689C32.5388 25.3116 33 24.8504 33 24.2805C33 23.7106 32.5388 23.2494 31.9689 23.2494H23.3752C25.2003 22.0647 26.7117 20.4417 27.7272 18.5072C28.647 16.7551 29.1746 14.7667 29.1746 12.6551C29.1746 10.6246 28.6814 8.71098 27.8263 7.00859C26.7799 4.92488 25.178 3.17207 23.2105 1.93928C23.0022 1.80875 22.7962 1.67496 22.58 1.55639C20.7735 0.56583 18.7018 0 16.4993 0C16.3096 0 16.125 0.0202015 15.9373 0.0285086C11.7886 0.211455 8.14912 2.38088 5.9707 5.62079C4.72972 7.46655 3.97673 9.658 3.85766 12.014C3.84684 12.2277 3.82512 12.4387 3.82512 12.6551C3.82512 12.8191 3.84356 12.9783 3.84979 13.1407C3.93922 15.4768 4.65886 17.651 5.85364 19.4979C6.82765 21.0035 8.12231 22.2744 9.62596 23.2494H1.03109C0.461172 23.2494 0 23.7106 0 24.2805C0 24.8504 0.461172 25.3116 1.03109 25.3116ZM16.6447 23.2447L14.2871 19.1661C14.1642 18.9549 14.1642 18.6926 14.2871 18.4814L16.8215 14.0968C16.8239 14.0926 16.829 14.0911 16.8315 14.0869L16.9071 13.9561C16.9565 13.8707 16.9777 13.7758 17.0162 13.6865C17.1834 13.7183 17.35 13.754 17.5234 13.754H22.4866C22.7312 13.754 22.9588 13.8857 23.0806 14.0968L25.4886 18.262C23.6348 21.2142 20.3729 23.194 16.6447 23.2447ZM26.6349 9.50948C26.9451 10.5037 27.1124 11.5603 27.1124 12.6551C27.1124 13.8247 26.9141 14.9471 26.5621 15.9999L24.8669 13.0673C24.8083 12.9661 24.7261 12.8858 24.656 12.7941C24.7696 12.6634 24.8856 12.5343 24.9737 12.3816L26.6349 9.50948ZM16.8272 2.07572C20.5446 2.18994 23.7794 4.2172 25.5849 7.20695L23.1874 11.3531C23.0655 11.5642 22.838 11.6949 22.5933 11.6949H17.5234C17.2787 11.6949 17.0511 11.5632 16.9293 11.3521L14.3938 6.9695C14.272 6.75736 14.272 6.49392 14.3938 6.28284L16.8272 2.07572ZM14.3247 2.28472L12.6075 5.25427C12.5568 5.34206 12.5336 5.43929 12.4934 5.53105C12.3075 5.49134 12.1199 5.45534 11.9258 5.45534H8.73584C10.2036 3.87855 12.1377 2.74148 14.3247 2.28472ZM7.14628 17.653C6.34458 16.1629 5.88731 14.4617 5.88731 12.6551C5.88731 10.7899 6.37649 9.03836 7.22747 7.51444H11.9258C12.1705 7.51444 12.3981 7.64616 12.5199 7.8573L15.0554 12.2399C15.1671 12.4339 15.2427 12.7154 15.1208 12.9265L12.5864 17.3101C12.5846 17.3133 12.5807 17.3145 12.5788 17.3178C12.4556 17.5232 12.2333 17.653 11.9923 17.653H7.14628ZM8.60507 19.712H11.9923C12.0924 19.712 12.1868 19.6838 12.2851 19.673C12.3434 19.8515 12.405 20.0298 12.5008 20.1957L14.1046 22.9698C11.9435 22.4694 10.0382 21.309 8.60507 19.712Z" fill="#7D7F82"/>
</svg>
