<svg width="32" height="32" viewBox="0 0 32 32" fill="none" xmlns="http://www.w3.org/2000/svg">
<path d="M16 7C17.6569 7 19 5.65685 19 4C19 2.34315 17.6569 1 16 1C14.3431 1 13 2.34315 13 4C13 5.65685 14.3431 7 16 7Z" fill="#7D7F82"/>
<path fill-rule="evenodd" clip-rule="evenodd" d="M1 7C0.447715 7 0 7.44772 0 8V30C0 30.5523 0.447715 31 1 31C1.55228 31 2 30.5523 2 30V22L30 22V30C30 30.5523 30.4477 31 31 31C31.5523 31 32 30.5523 32 30V8C32 7.44772 31.5523 7 31 7C30.4477 7 30 7.44772 30 8V10L2 10V8C2 7.44772 1.55228 7 1 7ZM2 20V17H6L6 20L2 20ZM2 15H6L6 12H2V15ZM8 20V17H12V20H8ZM8 15H12V12H8V15ZM14 20V17L18 17V20H14ZM14 12V15L18 15V12H14ZM20 20V17H24V20H20ZM20 15H24V12H20V15ZM26 20V17H30V20H26ZM26 15H30V12L26 12V15Z" fill="#7D7F82"/>
</svg>
