<svg width="32" height="32" viewBox="0 0 32 32" fill="none" xmlns="http://www.w3.org/2000/svg">
<path d="M14 17C14 16.4477 14.4477 16 15 16H23C23.5523 16 24 16.4477 24 17C24 17.5523 23.5523 18 23 18H15C14.4477 18 14 17.5523 14 17Z" fill="#7D7F82"/>
<path d="M15 20C14.4477 20 14 20.4477 14 21C14 21.5523 14.4477 22 15 22H23C23.5523 22 24 21.5523 24 21C24 20.4477 23.5523 20 23 20H15Z" fill="#7D7F82"/>
<path fill-rule="evenodd" clip-rule="evenodd" d="M8 23C10.2091 23 12 21.2091 12 19C12 16.7909 10.2091 15 8 15C5.79086 15 4 16.7909 4 19C4 21.2091 5.79086 23 8 23ZM10 19C10 20.1046 9.10457 21 8 21C6.89543 21 6 20.1046 6 19C6 17.8954 6.89543 17 8 17C9.10457 17 10 17.8954 10 19Z" fill="#7D7F82"/>
<path fill-rule="evenodd" clip-rule="evenodd" d="M28.8738 7.76216L9.55533 2.58578C7.42146 2.01401 5.22811 3.28034 4.65635 5.4142L3.41625 10.0423C1.48381 10.3248 0 11.9891 0 14V24C0 26.2091 1.79086 28 4 28H24C26.2091 28 28 26.2091 28 24V22.6727C28.7744 22.1525 29.3713 21.3605 29.6317 20.3885L31.7023 12.6611C32.274 10.5273 31.0077 8.33392 28.8738 7.76216ZM24 10H5.49813L6.5882 5.93184C6.87408 4.86491 7.97076 4.2317 9.03769 4.51758L28.3562 9.69396C29.0897 9.89051 29.6182 10.4703 29.784 11.1602C29.8593 11.4737 29.8597 11.8101 29.7704 12.1435L28 18.7507V14C28 11.7909 26.2091 10 24 10ZM24 12C25.1046 12 26 12.8954 26 14V24C26 25.1046 25.1046 26 24 26H4C2.89543 26 2 25.1046 2 24V14C2 12.8954 2.89543 12 4 12H24Z" fill="#7D7F82"/>
</svg>
