<svg width="32" height="32" viewBox="0 0 32 32" fill="none" xmlns="http://www.w3.org/2000/svg">
<g clip-path="url(#clip0_5534_20759)">
<path fill-rule="evenodd" clip-rule="evenodd" d="M31.9693 17C31.4735 25.04 25.04 31.4735 17 31.9693V32H15V31.9693C6.95998 31.4735 0.526544 25.04 0.030742 17H0V15H0.030742C0.526544 6.95999 6.95999 0.526544 15 0.030742V0H17V0.030742C25.04 0.526544 31.4735 6.95999 31.9693 15H32V17H31.9693ZM29.9648 17C29.4754 23.935 23.935 29.4754 17 29.9648V25.9506C21.7244 25.4816 25.4816 21.7244 25.9506 17H29.9648ZM15 25.9506V29.9648C8.06503 29.4754 2.5246 23.935 2.03516 17H6.04938C6.51844 21.7244 10.2756 25.4816 15 25.9506ZM23.9381 17C23.4869 20.6187 20.6187 23.4869 17 23.9381V20.9C18.9591 20.5023 20.5023 18.9591 20.9 17H23.9381ZM15 23.9381V20.9C13.0409 20.5023 11.4977 18.9591 11.1 17H8.06189C8.51314 20.6187 11.3813 23.4869 15 23.9381ZM20.9 15C20.5023 13.0409 18.9591 11.4977 17 11.1V8.06189C20.6187 8.51314 23.4869 11.3813 23.9381 15H20.9ZM15 11.1V8.06189C11.3813 8.51314 8.51314 11.3813 8.06189 15H11.1C11.4977 13.0409 13.0409 11.4977 15 11.1ZM25.9506 15C25.4816 10.2756 21.7244 6.51844 17 6.04938V2.03516C23.935 2.5246 29.4754 8.06503 29.9648 15H25.9506ZM15 6.04938V2.03516C8.06503 2.5246 2.5246 8.06503 2.03516 15H6.04938C6.51844 10.2756 10.2756 6.51844 15 6.04938ZM16 19C17.6569 19 19 17.6569 19 16C19 14.3431 17.6569 13 16 13C14.3431 13 13 14.3431 13 16C13 17.6569 14.3431 19 16 19Z" fill="#7D7F82"/>
</g>
<defs>
<clipPath id="clip0_5534_20759">
<rect width="32" height="32" fill="white"/>
</clipPath>
</defs>
</svg>
