<svg width="32" height="32" viewBox="0 0 32 32" fill="none" xmlns="http://www.w3.org/2000/svg">
<path d="M31.99 26.98C31.99 26.7148 31.8846 26.4604 31.6971 26.2729C31.5096 26.0853 31.2552 25.98 30.99 25.98C30.7248 25.98 30.4704 26.0853 30.2829 26.2729C30.0954 26.4604 29.99 26.7148 29.99 26.98C29.989 27.1074 29.9618 27.2332 29.9102 27.3497C29.8585 27.4662 29.7835 27.5708 29.6897 27.657C29.5959 27.7433 29.4854 27.8094 29.3651 27.8512C29.2447 27.893 29.117 27.9096 28.99 27.9H23.81V25.9C23.81 25.6348 23.7046 25.3804 23.5171 25.1929C23.3296 25.0053 23.0752 24.9 22.81 24.9C22.5448 24.9 22.2904 25.0053 22.1029 25.1929C21.9154 25.3804 21.81 25.6348 21.81 25.9V27.9H10.2V25.9C10.2 25.6348 10.0946 25.3804 9.90711 25.1929C9.71957 25.0053 9.46522 24.9 9.2 24.9C8.93478 24.9 8.68043 25.0053 8.49289 25.1929C8.30536 25.3804 8.2 25.6348 8.2 25.9V27.9H1C0.734784 27.9 0.48043 28.0053 0.292893 28.1929C0.105357 28.3804 0 28.6348 0 28.9C0 29.1652 0.105357 29.4196 0.292893 29.6071C0.48043 29.7946 0.734784 29.9 1 29.9H29.07C29.8444 29.9 30.5871 29.5923 31.1348 29.0447C31.6824 28.4971 31.99 27.7544 31.99 26.98Z" fill="#7D7F82"/>
<path d="M2.84 22.83H27.99C28.275 22.83 28.5571 22.7739 28.8204 22.6648C29.0837 22.5557 29.3229 22.3959 29.5244 22.1944C29.7259 21.9929 29.8858 21.7537 29.9948 21.4904C30.1039 21.2271 30.16 20.945 30.16 20.66V16.83C30.1239 15.1345 29.5767 13.4894 28.5899 12.1101C27.6032 10.7309 26.223 9.68168 24.63 9.09998C24.366 8.98318 24.077 8.93429 23.7893 8.95776C23.5016 8.98124 23.2243 9.07634 22.9828 9.23439C22.7412 9.39245 22.543 9.60843 22.4063 9.86267C22.2696 10.1169 22.1987 10.4013 22.2 10.69V11.43H2.71C2.24852 11.43 1.80595 11.6133 1.47963 11.9396C1.15332 12.2659 0.969999 12.7085 0.969999 13.17V20.98C0.980364 21.4708 1.18133 21.9384 1.53035 22.2837C1.87937 22.629 2.34907 22.8249 2.84 22.83ZM27.99 20.83H2.99V18.83H28.16V20.66C28.16 20.7051 28.1421 20.7483 28.1102 20.7802C28.0783 20.8121 28.0351 20.83 27.99 20.83ZM22.46 13.43C22.6885 13.43 22.9148 13.385 23.1259 13.2975C23.337 13.2101 23.5288 13.0819 23.6904 12.9204C23.8519 12.7588 23.9801 12.567 24.0676 12.3559C24.155 12.1447 24.2 11.9185 24.2 11.69V11.07C25.3603 11.5347 26.3582 12.3305 27.0694 13.3583C27.7807 14.3861 28.1739 15.6004 28.2 16.85H2.95V13.41L22.46 13.43Z" fill="#7D7F82"/>
<path d="M6.84 9.20998C7.54169 9.20801 8.22707 8.99812 8.80954 8.60685C9.39202 8.21557 9.84548 7.66045 10.1126 7.0116C10.3798 6.36275 10.4487 5.64928 10.3106 4.9613C10.1725 4.27333 9.83357 3.64172 9.3367 3.14624C8.83982 2.65076 8.20726 2.31365 7.5189 2.17748C6.83054 2.04131 6.11727 2.1122 5.46917 2.38118C4.82108 2.65016 4.26723 3.10518 3.87759 3.68876C3.48796 4.27233 3.28 4.95829 3.28 5.65998C3.28 6.12702 3.37215 6.58947 3.55118 7.02082C3.73021 7.45218 3.9926 7.84398 4.3233 8.17376C4.65401 8.50353 5.04654 8.76482 5.4784 8.94263C5.91026 9.12045 6.37297 9.2113 6.84 9.20998ZM6.84 4.11998C7.14655 4.12197 7.44563 4.21481 7.69942 4.38677C7.95321 4.55873 8.1503 4.80208 8.26578 5.08606C8.38127 5.37003 8.40995 5.68188 8.3482 5.98215C8.28645 6.28243 8.13705 6.55765 7.91889 6.77301C7.70073 6.98838 7.4236 7.13422 7.12255 7.19209C6.8215 7.24995 6.51006 7.21725 6.2276 7.09811C5.94514 6.97898 5.70434 6.77876 5.53567 6.52277C5.367 6.26679 5.27803 5.96654 5.28 5.65998C5.28131 5.45643 5.3227 5.25514 5.4018 5.06758C5.48091 4.88003 5.59619 4.70989 5.74105 4.56689C5.88591 4.42388 6.05752 4.31081 6.24607 4.23413C6.43463 4.15745 6.63645 4.11867 6.84 4.11998Z" fill="#7D7F82"/>
<path d="M17.54 9.09999C18.243 9.10196 18.9307 8.89519 19.516 8.50587C20.1014 8.11656 20.5579 7.56222 20.8278 6.91314C21.0978 6.26405 21.1689 5.54944 21.0323 4.85988C20.8956 4.17031 20.5573 3.53685 20.0602 3.03977C19.5631 2.54269 18.9297 2.20439 18.2401 2.06773C17.5505 1.93107 16.8359 2.00221 16.1868 2.27214C15.5378 2.54207 14.9834 2.99863 14.5941 3.58396C14.2048 4.16928 13.998 4.85702 14 5.55999C14.0026 6.49804 14.3764 7.39692 15.0398 8.06023C15.7031 8.72354 16.6019 9.09735 17.54 9.09999ZM17.54 4.00998C17.847 4.008 18.1476 4.09722 18.4038 4.26633C18.6601 4.43544 18.8603 4.67682 18.9791 4.95986C19.098 5.24291 19.1301 5.55487 19.0714 5.8562C19.0128 6.15753 18.8659 6.43465 18.6496 6.65242C18.4332 6.87019 18.157 7.01881 17.8561 7.07943C17.5551 7.14005 17.243 7.10995 16.9592 6.99293C16.6754 6.87591 16.4327 6.67726 16.2619 6.42215C16.0912 6.16704 16 5.86697 16 5.55999C15.996 5.35477 16.0328 5.1508 16.1083 4.95992C16.1838 4.76905 16.2965 4.59507 16.4397 4.44808C16.583 4.30109 16.754 4.18402 16.9429 4.10367C17.1318 4.02331 17.3347 3.98127 17.54 3.97999V4.00998Z" fill="#7D7F82"/>
</svg>
