<svg width="32" height="32" viewBox="0 0 32 32" fill="none" xmlns="http://www.w3.org/2000/svg">
<g clip-path="url(#clip0_5534_20787)">
<path fill-rule="evenodd" clip-rule="evenodd" d="M26.99 4.79363C27.3211 3.80036 27.55 2.1333 26.3353 0.918537C25.1205 -0.296231 23.4535 -0.0672799 22.4602 0.263811C21.34 0.637197 20.2172 1.37976 19.2642 2.33275C18.6556 2.94138 18.1328 3.61927 17.7372 4.3215C17.4508 4.82977 16.8178 5.06978 16.2362 5.02449C16.1582 5.01842 16.0795 5.01533 16 5.01533C15.9173 5.01533 15.8354 5.01868 15.7544 5.02524C15.1724 5.0724 14.5378 4.83401 14.2502 4.32584C13.8555 3.62861 13.3356 2.95569 12.7311 2.35112C11.7781 1.39813 10.6552 0.655565 9.53509 0.282179C8.54181 -0.0489119 6.87476 -0.277863 5.65999 0.936905C4.44522 2.15167 4.67418 3.81873 5.00527 4.812C5.37865 5.93216 6.12121 7.05498 7.07421 8.00797C7.43861 8.37237 7.82784 8.70601 8.23226 9H3C1.34315 9 0 10.3431 0 12V14C0 15.6569 1.34314 17 3 17L3 30C3 31.1046 3.89543 32 5 32H27C28.1046 32 29 31.1046 29 30V17C30.6569 17 32 15.6569 32 14V12C32 10.3431 30.6569 9 29 9H23.7376C24.1512 8.70156 24.549 8.36162 24.9211 7.9896C25.8741 7.03661 26.6166 5.91379 26.99 4.79363ZM16.1754 9C16.6441 8.91708 17 8.50778 17 8.01533C17 7.46305 16.5523 7.01533 16 7.01533C15.4477 7.01533 15 7.46305 15 8.01533C15 8.50778 15.356 8.91708 15.8246 9H16.1754ZM24.9211 2.33275C25.7021 3.1138 25.0689 5.01329 23.5068 6.57539C21.9448 8.13749 20.0453 8.77065 19.2642 7.9896C18.4832 7.20856 19.1163 5.30906 20.6784 3.74696C22.2405 2.18487 24.14 1.5517 24.9211 2.33275ZM11.3168 3.76533C12.8789 5.32743 13.5121 7.22692 12.7311 8.00797C11.95 8.78902 10.0505 8.15586 8.48842 6.59376C6.92632 5.03166 6.29316 3.13217 7.07421 2.35112C7.85525 1.57007 9.75475 2.20324 11.3168 3.76533ZM27 30H20L20 17H27V30ZM29 15H20V11H29C29.5523 11 30 11.4477 30 12V14C30 14.5523 29.5523 15 29 15ZM3 11H12V15H3C2.44771 15 2 14.5523 2 14V12C2 11.4477 2.44772 11 3 11ZM14 12H18V30H14L14 12ZM12 17L12 30H5V17H12Z" fill="#7D7F82"/>
</g>
<defs>
<clipPath id="clip0_5534_20787">
<rect width="32" height="32" fill="white"/>
</clipPath>
</defs>
</svg>
