<svg width="32" height="32" viewBox="0 0 32 32" fill="none" xmlns="http://www.w3.org/2000/svg">
<g clip-path="url(#clip0_5534_20726)">
<path d="M30.65 9.61C30.43 9.1 29.84 8.87 29.33 9.1C28.82 9.32 28.59 9.91 28.81 10.42C29.59 12.19 29.99 14.08 29.99 16.03C29.99 23.73 23.71 29.99 16 29.99C8.29 29.99 2.01 23.73 2.01 16.04C2.01 8.35 8.29 2.08 16 2.08C17.53 2.08 19.03 2.32 20.46 2.8C20.99 2.98 21.56 2.69 21.73 2.17C21.9 1.65 21.62 1.08 21.1 0.9C19.46 0.35 17.75 0.07 16 0.07C7.18 0.07 0 7.23 0 16.04C0 24.85 7.18 32 16 32C24.82 32 32 24.84 32 16.04C32 13.81 31.55 11.65 30.65 9.62V9.61Z" fill="#7D7F82"/>
<path d="M20.37 9.66C20.2 9.77 20.04 9.97 19.9 10.25L15.72 17.96L11.54 10.25C11.39 9.97 11.23 9.78 11.06 9.66C10.89 9.54 10.65 9.49 10.35 9.49C9.63 9.49 9.26 9.85 9.26 10.57V21.42C9.26 22.14 9.61 22.5 10.31 22.5C11.01 22.5 11.36 22.14 11.36 21.42V13.82L14.76 19.98C14.87 20.17 14.99 20.32 15.14 20.42C15.28 20.52 15.47 20.57 15.7 20.57C15.93 20.57 16.11 20.52 16.24 20.43C16.37 20.34 16.5 20.18 16.62 19.98L20.02 13.79V21.43C20.02 22.15 20.37 22.51 21.07 22.51C21.77 22.51 22.12 22.15 22.12 21.43V10.57C22.12 9.85 21.77 9.49 21.07 9.49C20.77 9.49 20.53 9.55 20.37 9.66Z" fill="#7D7F82"/>
<path d="M23.71 5.15H25.91V7.39C25.91 8.07 26.26 8.42 26.93 8.42C27.6 8.42 27.95 8.06 27.95 7.39V5.15H30.15C30.8 5.15 31.15 4.8 31.15 4.16C31.15 3.52 30.79 3.17 30.15 3.17H27.95V1.03C27.95 0.35 27.6 0 26.93 0C26.26 0 25.91 0.36 25.91 1.03V3.18H23.71C23.06 3.18 22.71 3.53 22.71 4.17C22.71 4.81 23.07 5.16 23.71 5.16V5.15Z" fill="#7D7F82"/>
</g>
<defs>
<clipPath id="clip0_5534_20726">
<rect width="32" height="32" fill="white"/>
</clipPath>
</defs>
</svg>
