<svg width="32" height="32" viewBox="0 0 32 32" fill="none" xmlns="http://www.w3.org/2000/svg">
<g clip-path="url(#clip0_5534_20743)">
<path d="M27.31 4.69001C25.0722 2.45274 22.2213 0.929248 19.1177 0.31218C16.0141 -0.304887 12.7972 0.0121796 9.87378 1.22329C6.95037 2.4344 4.45173 4.48516 2.69379 7.11627C0.93585 9.74738 -0.00244141 12.8407 -0.00244141 16.005C-0.00244141 19.1694 0.93585 22.2626 2.69379 24.8938C4.45173 27.5249 6.95037 29.5756 9.87378 30.7867C12.7972 31.9978 16.0141 32.3149 19.1177 31.6978C22.2213 31.0808 25.0722 29.5573 27.31 27.32C28.7961 25.8342 29.975 24.0702 30.7793 22.1288C31.5836 20.1873 31.9976 18.1065 31.9976 16.005C31.9976 13.9036 31.5836 11.8227 30.7793 9.88123C29.975 7.93979 28.7961 6.1758 27.31 4.69001ZM25.9 6.10001C27.756 7.95249 29.0492 10.2928 29.63 12.85C27.3974 11.998 25.3747 10.6746 23.7 8.97001C21.8502 7.16396 20.4582 4.94238 19.64 2.49001C22.0106 3.11505 24.1716 4.36123 25.9 6.10001ZM25.9 25.9C23.2743 28.5257 19.7132 30.0007 16 30.0007C12.2868 30.0007 8.72562 28.5257 6.09998 25.9C3.47433 23.2744 1.99926 19.7132 1.99926 16C1.99926 12.2868 3.47433 8.72565 6.09998 6.10001C7.89766 4.29729 10.1568 3.02413 12.63 2.42001C13.2756 6.84913 15.3883 10.9337 18.63 14.02C21.5394 17.05 25.3095 19.1131 29.43 19.93C28.775 22.1856 27.5608 24.2392 25.9 25.9ZM20.06 12.61C16.89 9.45001 14.91 5.61001 14.61 2.07001C15.0717 2.02151 15.5357 1.99814 16 2.00001C16.4842 1.99815 16.9682 2.02151 17.45 2.07001C18.2617 5.2329 19.9335 8.1092 22.28 10.38C24.4173 12.5641 27.0733 14.1708 30 15.05C30 15.37 30.05 15.68 30.05 16C30.0482 16.6698 29.9948 17.3385 29.89 18C26.1306 17.2747 22.6929 15.3897 20.06 12.61Z" fill="#7D7F82"/>
<path d="M15.3 18.94C15.82 19.38 16.36 19.81 16.91 20.21L18.08 18.58C17.57 18.22 17.08 17.83 16.59 17.42L15.3 18.94Z" fill="#7D7F82"/>
<path d="M10.89 10.04L9.06997 10.87C9.34997 11.49 9.66998 12.1 10.02 12.71L11.75 11.71C11.4335 11.1692 11.1465 10.6117 10.89 10.04Z" fill="#7D7F82"/>
<path d="M11.75 15.26C12.17 15.79 12.61 16.31 13.08 16.82L14.55 15.46C14.12 14.99 13.71 14.51 13.33 14.03L11.75 15.26Z" fill="#7D7F82"/>
<path d="M22.15 20.91C21.59 20.67 21.02 20.39 20.46 20.09L19.51 21.85C20.12 22.18 20.74 22.48 21.36 22.75L22.15 20.91Z" fill="#7D7F82"/>
<path d="M26.6 22.16C25.9901 22.0801 25.3857 21.9633 24.79 21.81L24.3 23.75C24.9733 23.9281 25.6583 24.0584 26.35 24.14L26.6 22.16Z" fill="#7D7F82"/>
<path d="M7.99998 7.93001L9.99998 7.43001C9.84085 6.8582 9.71728 6.27709 9.62998 5.69001L7.62998 5.91001C7.70864 6.59077 7.83224 7.26557 7.99998 7.93001Z" fill="#7D7F82"/>
</g>
<defs>
<clipPath id="clip0_5534_20743">
<rect width="32" height="32" fill="white"/>
</clipPath>
</defs>
</svg>
