<svg width="32" height="32" viewBox="0 0 32 32" fill="none" xmlns="http://www.w3.org/2000/svg">
<path d="M26.1471 4.24462C26.0757 4.07458 24.3098 0.0951335 16.8015 0.00131532C13.0898 -0.0367982 10.4189 0.752836 8.75559 2.44254C7.34057 3.87851 6.6395 5.90378 6.57115 8.74971C6.09223 9.00466 5.65478 9.31671 5.30192 9.72906C4.13017 11.0992 3.73927 13.2775 4.17024 16.0285C4.34029 17.1094 5.26283 18.5685 6.75512 20.8582C7.8879 22.5973 9.15774 24.5543 9.6953 26.0125V30.2275C9.6953 31.2064 10.4888 32 11.4678 32H22.3655C23.3445 32 24.1381 31.2064 24.1381 30.2275V25.7952C24.1381 25.7588 24.1295 25.7249 24.1274 25.6891C24.2158 23.5914 25.2529 20.5606 26.0992 18.1052C26.5575 16.7722 26.9543 15.62 27.138 14.7972C28.4632 8.83974 26.2116 4.36385 26.1471 4.24462ZM22.1366 29.9986H11.6967V26.0242H22.1366V29.9986ZM25.1835 14.3623C25.0252 15.0757 24.646 16.1771 24.2062 17.4534C23.5036 19.4938 22.6743 21.9127 22.3062 24.0227H11.4678C11.317 24.0227 11.1731 24.0473 11.0333 24.0828C10.3516 22.7161 9.38178 21.2235 8.43212 19.7656C7.4138 18.203 6.25964 16.4312 6.14824 15.7178C5.81401 13.5942 6.05442 11.9289 6.82353 11.0298C7.33757 10.4288 8.09203 10.1366 9.13086 10.1366C10.4209 10.1366 10.9085 10.5119 11.1626 10.7933C11.8565 11.5634 12.0451 13.2179 11.7548 15.9992C11.6982 16.5494 12.0979 17.041 12.6471 17.0986C13.1992 17.1436 13.6889 16.7556 13.7465 16.2064C13.7786 15.898 13.7984 15.6147 13.8196 15.3287C13.9017 15.3663 13.9801 15.4075 14.0651 15.4422C14.9876 15.8194 16.0587 16.0188 17.163 16.0188C18.6417 16.0188 20.047 15.6621 21.12 15.0132C21.593 14.7278 21.7445 14.1121 21.4581 13.6391C21.1728 13.1671 20.5591 13.0137 20.0841 13.301C18.7521 14.1053 16.3988 14.2343 14.8215 13.5893C14.4322 13.4303 14.1179 13.2274 13.8604 13.0072C13.7663 11.3869 13.3751 10.2592 12.649 9.45347C11.8496 8.56611 10.6984 8.13513 9.13086 8.13513C8.94585 8.13513 8.77892 8.16769 8.60173 8.1821C8.72957 6.20851 9.23885 4.80429 10.1814 3.84687C11.4431 2.56567 13.6361 1.98126 16.776 2.00276C22.8762 2.07899 24.2541 4.91601 24.3342 5.08898C24.3548 5.12905 26.3464 9.13977 25.1835 14.3623Z" fill="#7D7F82"/>
</svg>
