<svg width="32" height="32" viewBox="0 0 32 32" fill="none" xmlns="http://www.w3.org/2000/svg">
<g clip-path="url(#clip0_5534_20704)">
<path fill-rule="evenodd" clip-rule="evenodd" d="M8.05011 2.37152C8.42518 2.7466 8.63589 3.2553 8.63589 3.78574V6.61416C8.63589 6.67646 8.63305 6.73809 8.62747 6.79893L10.2156 8.38702C16.2182 2.78982 23.5859 -0.20214 30.0873 0.081762L31.9182 0.161715L31.9981 1.99263C32.2819 8.49395 29.2899 15.8616 23.6927 21.8642L25.2494 23.4209C25.3038 23.4164 25.3588 23.4142 25.4143 23.4142H28.2428C28.7732 23.4142 29.2819 23.6249 29.657 23.9999L31.4144 25.7574C32.1954 26.5384 32.1954 27.8047 31.4144 28.5858L28.586 31.4142C27.8049 32.1953 26.5386 32.1953 25.7575 31.4142L24.0001 29.6568C23.625 29.2817 23.4143 28.773 23.4143 28.2426V25.4142C23.4143 25.1207 23.4775 24.842 23.5911 24.5909L22.2884 23.2883C16.2214 29.1069 8.68606 32.2275 2.05267 31.9378L0.221758 31.8578L0.141829 30.0269C-0.147751 23.3936 2.9729 15.8583 8.79147 9.79135L7.44421 8.44409C7.19704 8.55343 6.92356 8.61416 6.63589 8.61416H3.80747C3.27703 8.61416 2.76833 8.40345 2.39325 8.02838L0.635835 6.27096C-0.145213 5.48991 -0.145213 4.22358 0.635835 3.44253L3.46426 0.614107C4.24531 -0.166942 5.51164 -0.166942 6.29269 0.614107L8.05011 2.37152ZM10.206 11.2059C4.70298 16.9573 1.87936 23.9711 2.13993 29.9397C5.91178 30.1044 10.101 29.0374 14.1253 26.8409C9.60929 26.0654 6.03417 22.5368 5.18979 18.0447C5.73886 17.0303 6.35967 16.0261 7.05057 15.0414C7.01722 15.3564 7.00012 15.6762 7.00012 16C7.00012 20.9706 11.0296 25 16.0001 25C16.4035 25 16.8007 24.9735 17.19 24.9221C18.4579 24.0214 19.6925 23.0041 20.8739 21.8738L19.0004 20.0002C18.1647 20.628 17.1258 21 16.0001 21C13.2387 21 11.0001 18.7615 11.0001 16C11.0001 14.8743 11.3721 13.8355 11.9999 12.9998L10.206 11.2059ZM13.4985 11.6699C14.2343 11.2439 15.0887 11 16.0001 11C18.7615 11 21.0001 13.2386 21.0001 16C21.0001 16.9114 20.7563 17.7659 20.3302 18.5017L22.2776 20.4491C23.2452 19.4073 24.1262 18.3264 24.9182 17.2198C24.9722 16.8209 25.0001 16.4137 25.0001 16C25.0001 11.0295 20.9707 7.00004 16.0001 7.00004C15.6661 7.00004 15.3364 7.01824 15.0118 7.05369C15.9937 6.35968 16.9953 5.73549 18.0073 5.18274C22.5298 6.01656 26.0831 9.61665 26.8474 14.1631C29.0803 10.1089 30.166 5.88231 30 2.07986C24.1569 1.8247 17.3121 4.52538 11.6307 9.8021L13.4985 11.6699ZM18.8292 17.0006C18.9399 16.6877 19.0001 16.3509 19.0001 16C19.0001 14.3432 17.657 13 16.0001 13C14.3433 13 13.0001 14.3432 13.0001 16C13.0001 17.6569 14.3433 19 16.0001 19C16.5723 19 17.107 18.8399 17.562 18.5619C17.6062 18.5349 17.6497 18.5067 17.6924 18.4775C17.72 18.4586 17.7473 18.4393 17.7742 18.4195C17.8199 18.3859 17.8647 18.3511 17.9084 18.315C18.3241 17.9719 18.6459 17.519 18.8292 17.0006ZM6.63589 6.61416H3.80747L2.05005 4.85675L4.87848 2.02832L6.63589 3.78574V6.61416ZM25.4143 25.4142V28.2426L27.1717 30L30.0002 27.1716L28.2428 25.4142H25.4143Z" fill="#7D7F82"/>
</g>
<defs>
<clipPath id="clip0_5534_20704">
<rect width="32" height="32" fill="white"/>
</clipPath>
</defs>
</svg>
