<svg width="32" height="32" viewBox="0 0 32 32" fill="none" xmlns="http://www.w3.org/2000/svg">
<path d="M16 9.99999C16.5523 9.99999 17 9.55227 17 8.99999C17 8.4477 16.5523 7.99999 16 7.99999C15.4477 7.99999 15 8.4477 15 8.99999C15 9.55227 15.4477 9.99999 16 9.99999Z" fill="#7D7F82"/>
<path fill-rule="evenodd" clip-rule="evenodd" d="M15.2688 0.00199915C14.8205 -0.012921 13.7798 0.0395481 12.7061 0.725022C11.686 1.37621 10.749 2.5266 10.2282 4.44627C6.79733 6.25748 5 10.1355 5 13.1454C5 14.2092 5.30673 15.4818 5.69938 16.6686C6.09834 17.8744 6.61529 19.0776 7.09649 20.0325C7.84242 21.5141 8.53455 22.9176 8.88274 24.4208C6.99095 25.231 5.71428 26.9821 5.71428 29.2145C5.71428 30.7508 6.96259 32 8.5 32H24.2143C25.7517 32 27 30.7508 27 29.2145C27 26.9406 25.6754 25.166 23.7253 24.3766C23.1665 22.1322 21.7272 20.4539 20.4033 18.9102L20.3994 18.9056C19.8335 18.2452 19.1727 17.1631 18.5537 16.076C19.6345 16.056 20.6023 15.7258 21.3323 15.3263L21.9012 15.4473L21.9185 15.4508C23.6613 15.7891 25.3144 14.9948 26.0037 13.3576C26.658 11.8027 26.2317 9.94801 24.8454 8.97021L18.4456 4.26752L18.4444 4.26659C18.2453 4.11973 18.0161 4.0183 17.7761 3.96859C17.7132 3.95537 17.4267 3.89809 16.9986 3.83116V1.71842C16.9986 0.86724 16.3758 0.146598 15.534 0.0231834C15.4724 0.014164 15.3794 0.0056826 15.2688 0.00199915ZM10.8214 23.9294C10.4037 22.1583 9.60649 20.5704 8.88286 19.1331C8.44126 18.2569 7.96327 17.1439 7.59815 16.0403C7.22668 14.9176 7 13.887 7 13.1454C7 10.6604 8.60752 7.37052 11.5036 6.0468C11.789 5.91637 11.9965 5.65958 12.0643 5.35324C12.4567 3.57901 13.1953 2.78549 13.7823 2.41078C14.255 2.10895 14.7148 2.02476 14.9986 2.00519V4.70349C14.9986 5.2107 15.3783 5.63759 15.8821 5.69668C16.3096 5.74682 16.6777 5.80344 16.9417 5.84818C17.1177 5.87801 17.2446 5.90205 17.3098 5.91481L23.6696 10.5881L23.6884 10.6016C24.231 10.9813 24.4901 11.798 24.1603 12.5818C23.869 13.2735 23.1952 13.6582 22.3076 13.489L21.3656 13.2887C21.1058 13.2335 20.8348 13.2839 20.6123 13.4287C19.7915 13.9627 18.424 14.3795 17.0425 13.7827C16.65 13.6131 16.1932 13.7118 15.9057 14.0283C15.6183 14.3447 15.5638 14.8089 15.7701 15.1834C15.8353 15.3016 15.904 15.4268 15.9758 15.5576C16.7539 16.9755 17.8983 19.0606 18.8808 20.207C19.9939 21.5051 20.9342 22.6351 21.4755 23.9294H10.8214ZM7.71428 29.2145C7.71428 27.3576 9.14173 25.9294 11.3571 25.9294H21.3571C23.5726 25.9294 25 27.3576 25 29.2145C25 29.6465 24.6469 30 24.2143 30H8.5C8.06741 30 7.71428 29.6465 7.71428 29.2145Z" fill="#7D7F82"/>
</svg>
