<svg width="32" height="32" viewBox="0 0 32 32" fill="none" xmlns="http://www.w3.org/2000/svg">
<g clip-path="url(#clip0_5534_20782)">
<path fill-rule="evenodd" clip-rule="evenodd" d="M31.1299 15.25L30.4799 14.15C30.7399 13.83 30.9899 13.45 31.1499 12.95C31.4099 12.15 31.4099 11.28 31.1499 10.48C30.9699 9.92999 30.6699 9.5 30.3899 9.16C30.1199 8.84 29.7799 8.5 29.4399 8.14999C29.4399 8.14999 29.4199 8.13 29.4099 8.12C29.3999 8.10999 29.3699 8.08 29.3299 8.05C29.2499 7.98 29.1099 7.86 28.8999 7.75C28.6399 7.62 28.3599 7.54 28.0699 7.52C27.8299 7.5 27.6399 7.53 27.5399 7.55C27.4899 7.55 27.4499 7.57 27.4299 7.57C27.4099 7.57 27.3899 7.56999 27.3899 7.58C27.1599 7.64 26.9199 7.67 26.6699 7.67C25.0099 7.67 23.6699 6.33 23.6699 4.67C23.6699 4.42 23.6999 4.18 23.7599 3.95C23.7599 3.95 23.7599 3.92 23.7699 3.91C23.7699 3.89 23.7799 3.84999 23.7899 3.79999C23.8099 3.7 23.8399 3.51 23.8199 3.27C23.7999 2.98 23.7199 2.7 23.5899 2.44C23.4799 2.23 23.3599 2.07999 23.2899 2.00999C23.2599 1.97 23.2299 1.94 23.2199 1.93C23.2099 1.92 23.1899 1.9 23.1899 1.9C22.8499 1.56 22.5099 1.22 22.1799 0.949995C21.8399 0.669995 21.4099 0.369995 20.8599 0.189995C20.0599 -0.0700049 19.1899 -0.0700049 18.3899 0.189995C17.8099 0.379995 17.3699 0.699995 17.0199 0.989995C16.6999 1.26 16.3499 1.61 15.9999 1.96L1.96988 16C1.60988 16.36 1.26988 16.7 0.999883 17.02C0.699883 17.37 0.379883 17.81 0.199883 18.39C-0.0601172 19.19 -0.0601172 20.06 0.199883 20.86C0.379883 21.41 0.679883 21.84 0.959883 22.18C1.22988 22.5 1.56988 22.84 1.90988 23.19C1.90988 23.19 1.92988 23.21 1.93988 23.22C1.94988 23.23 1.97988 23.26 2.01988 23.29C2.09988 23.36 2.23988 23.48 2.44988 23.59C2.70988 23.72 2.98988 23.8 3.27988 23.82C3.51988 23.84 3.70988 23.81 3.80988 23.79C3.85988 23.79 3.89988 23.77 3.91988 23.77C3.93988 23.77 3.95988 23.77 3.95988 23.76C4.18988 23.7 4.42988 23.67 4.67988 23.67C6.33988 23.67 7.67988 25.01 7.67988 26.67C7.67988 26.92 7.64988 27.16 7.58988 27.39C7.58988 27.39 7.58988 27.42 7.57988 27.43C7.57988 27.45 7.56988 27.49 7.55988 27.54C7.53988 27.64 7.50988 27.83 7.52988 28.07C7.54988 28.36 7.62988 28.64 7.75988 28.9C7.86988 29.11 7.98988 29.26 8.05988 29.33C8.08988 29.37 8.11988 29.4 8.12988 29.41C8.13988 29.42 8.15988 29.44 8.15988 29.44C8.49988 29.78 8.83988 30.12 9.16988 30.39C9.50988 30.67 9.93988 30.97 10.4899 31.15C10.6299 31.2 10.7699 31.22 10.9199 31.25C10.9199 31.25 10.9799 31.27 11.0099 31.27C11.2499 31.31 11.4899 31.34 11.7399 31.34C11.7699 31.34 11.7999 31.34 11.8299 31.34C12.6499 31.34 13.4599 31.12 14.1799 30.69L29.5599 21.52C31.7299 20.23 32.4399 17.4 31.1499 15.23L31.1299 15.25ZM13.9799 27.91C13.1899 28.7 12.7899 29.1 12.3399 29.25C11.9399 29.38 11.5099 29.38 11.0999 29.25C10.6699 29.11 10.2899 28.74 9.56988 28.03C9.54988 28.01 9.52988 27.99 9.52988 27.98C9.52988 27.97 9.51988 27.95 9.51988 27.94C9.51988 27.92 9.51988 27.91 9.52988 27.87C9.61988 27.49 9.67988 27.08 9.67988 26.67C9.67988 23.91 7.43988 21.67 4.67988 21.67C4.26988 21.67 3.85988 21.72 3.47988 21.82C3.44988 21.82 3.42988 21.83 3.40988 21.83C3.39988 21.83 3.37988 21.83 3.36988 21.82C3.35988 21.82 3.33988 21.8 3.31988 21.78C2.60988 21.06 2.23988 20.69 2.09988 20.25C1.96988 19.85 1.96988 19.42 2.09988 19.01C2.24988 18.55 2.63988 18.16 3.43988 17.37L17.3699 3.43C18.1599 2.64 18.5599 2.24 19.0099 2.08999C19.4099 1.95999 19.8399 1.95999 20.2499 2.08999C20.6799 2.23 21.0599 2.6 21.7799 3.31C21.7999 3.33 21.8199 3.34999 21.8199 3.35999C21.8199 3.36999 21.8299 3.39 21.8299 3.4C21.8299 3.42 21.8299 3.43 21.8199 3.47C21.7299 3.85 21.6699 4.26 21.6699 4.67C21.6699 7.43 23.9099 9.67 26.6699 9.67C27.0799 9.67 27.4899 9.62 27.8699 9.52C27.8999 9.52 27.9199 9.51 27.9399 9.51C27.9499 9.51 27.9699 9.51 27.9799 9.52C27.9899 9.52 28.0099 9.54 28.0299 9.56C28.7499 10.28 29.1099 10.66 29.2499 11.09C29.3799 11.49 29.3799 11.92 29.2499 12.33C29.0999 12.79 28.7099 13.18 27.9099 13.97L13.9799 27.9V27.91ZM28.5199 19.81L19.5699 25.15L29.0599 15.66L29.4199 16.26C30.1499 17.49 29.7499 19.08 28.5199 19.81Z" fill="#7D7F82"/>
<path fill-rule="evenodd" clip-rule="evenodd" d="M16.3799 7.97C15.9899 8.35999 15.9899 8.99 16.3799 9.38C16.7699 9.77 17.3999 9.77 17.7899 9.38C18.1799 8.99 18.1799 8.35999 17.7899 7.97C17.3999 7.58 16.7699 7.58 16.3799 7.97Z" fill="#7D7F82"/>
<path fill-rule="evenodd" clip-rule="evenodd" d="M19.2099 10.79C18.8199 11.18 18.8199 11.81 19.2099 12.2C19.5999 12.59 20.2299 12.59 20.6199 12.2C21.0099 11.81 21.0099 11.18 20.6199 10.79C20.2299 10.4 19.5999 10.4 19.2099 10.79Z" fill="#7D7F82"/>
<path fill-rule="evenodd" clip-rule="evenodd" d="M22.0399 13.62C21.6499 14.01 21.6499 14.64 22.0399 15.03C22.4299 15.42 23.0599 15.42 23.4499 15.03C23.8399 14.64 23.8399 14.01 23.4499 13.62C23.0599 13.23 22.4299 13.23 22.0399 13.62Z" fill="#7D7F82"/>
</g>
<defs>
<clipPath id="clip0_5534_20782">
<rect width="32" height="32" fill="white"/>
</clipPath>
</defs>
</svg>
