<svg width="32" height="32" viewBox="0 0 32 32" fill="none" xmlns="http://www.w3.org/2000/svg">
<g clip-path="url(#clip0_5534_20785)">
<path d="M16.707 9.70711C16.3165 9.31659 16.3165 8.68342 16.707 8.2929C17.0976 7.90238 17.7307 7.90238 18.1213 8.2929C18.5118 8.68342 18.5118 9.3166 18.1213 9.70711C17.7307 10.0976 17.0976 10.0976 16.707 9.70711Z" fill="#7D7F82"/>
<path d="M19.5355 12.5355C19.1449 12.145 19.145 11.5118 19.5355 11.1213C19.926 10.7308 20.5592 10.7308 20.9497 11.1213C21.3402 11.5119 21.3402 12.145 20.9497 12.5355C20.5592 12.9261 19.926 12.9261 19.5355 12.5355Z" fill="#7D7F82"/>
<path d="M22.3639 15.364C21.9734 14.9734 21.9734 14.3403 22.3639 13.9498C22.7544 13.5592 23.3876 13.5592 23.7781 13.9498C24.1686 14.3403 24.1686 14.9734 23.7781 15.364C23.3876 15.7545 22.7544 15.7545 22.3639 15.364Z" fill="#7D7F82"/>
<path fill-rule="evenodd" clip-rule="evenodd" d="M1.3267 17.3471C1.02984 17.6968 0.710701 18.1406 0.522434 18.72C0.261403 19.5234 0.261402 20.3887 0.522433 21.1921C0.701474 21.7431 0.998213 22.1702 1.28103 22.5106C1.54899 22.8332 1.88845 23.1743 2.22994 23.5161L2.2309 23.5171C2.23561 23.5218 2.24845 23.5347 2.26177 23.5477C2.27636 23.562 2.30519 23.59 2.34182 23.6226C2.41779 23.6904 2.56433 23.8126 2.77491 23.9216C3.03148 24.0544 3.31203 24.1327 3.60044 24.152C3.84124 24.1681 4.03244 24.138 4.12871 24.1199C4.17621 24.111 4.21481 24.1021 4.23443 24.0975C4.2522 24.0933 4.26954 24.089 4.27641 24.0874L4.27802 24.087C4.50722 24.0305 4.74865 24 4.99994 24C6.65679 24 7.99994 25.3432 7.99994 27C7.99994 27.2513 7.96948 27.4927 7.91299 27.7219L7.91264 27.7233C7.91098 27.7301 7.90666 27.7476 7.90245 27.7655C7.89784 27.7851 7.88895 27.8237 7.88004 27.8712C7.86197 27.9675 7.83189 28.1587 7.84795 28.3995C7.8672 28.6878 7.9455 28.9684 8.07832 29.225C8.18733 29.4356 8.30953 29.5822 8.3773 29.6581C8.40998 29.6947 8.43793 29.7236 8.45221 29.7382C8.46487 29.7511 8.47737 29.7636 8.4824 29.7686L8.48378 29.77C8.82604 30.1119 9.16745 30.4517 9.49015 30.7199C9.83073 31.0029 10.258 31.3 10.8095 31.4791C11.6128 31.7402 12.4782 31.7402 13.2816 31.4791C13.861 31.2909 14.3048 30.9717 14.6545 30.6749C14.9729 30.4045 15.3205 30.0569 15.6774 29.6999L29.6999 15.6774C30.0569 15.3205 30.4045 14.973 30.6748 14.6546C30.9717 14.3049 31.2908 13.8611 31.4791 13.2817C31.7401 12.4783 31.7401 11.6129 31.4791 10.8095C31.2999 10.2581 31.0029 9.83079 30.7198 9.49022C30.4517 9.16752 30.1119 8.82611 29.7699 8.48384L29.7686 8.48254C29.7637 8.47756 29.7511 8.46499 29.7381 8.45225C29.7235 8.43796 29.6947 8.41001 29.658 8.37732C29.5821 8.30955 29.4355 8.18738 29.225 8.07839C28.9683 7.94554 28.6877 7.86726 28.3994 7.84802C28.1587 7.83195 27.9675 7.86203 27.8712 7.8801C27.8237 7.88902 27.7851 7.8979 27.7655 7.90251C27.7476 7.90671 27.7302 7.91101 27.7234 7.91269L27.7219 7.91306C27.4927 7.96954 27.2512 8.00001 26.9999 8.00001C25.3431 8.00001 23.9999 6.65686 23.9999 5.00001C23.9999 4.74871 24.0304 4.50728 24.0869 4.27808L24.0872 4.27675C24.0889 4.27008 24.0932 4.2525 24.0974 4.23448C24.102 4.21487 24.1109 4.17627 24.1198 4.12876C24.1379 4.03249 24.168 3.84129 24.1519 3.6005C24.1327 3.31227 24.0544 3.03169 23.9215 2.77497C23.8125 2.56439 23.6904 2.41785 23.6226 2.34188C23.5899 2.30525 23.5619 2.27642 23.5477 2.26182C23.5347 2.24859 23.5219 2.23584 23.5171 2.23105L23.5161 2.22999C23.1742 1.88851 22.8331 1.54905 22.5106 1.28108C22.1701 0.998271 21.7431 0.701535 21.1921 0.522495C20.3887 0.261464 19.5233 0.261463 18.7199 0.522494C18.1405 0.710763 17.6967 1.0299 17.347 1.32677C17.0286 1.5971 16.681 1.94475 16.3241 2.30172L2.30162 16.3242C1.94466 16.6811 1.59702 17.0287 1.3267 17.3471ZM20.574 2.42461C20.1723 2.29409 19.7396 2.29409 19.338 2.42461C18.8813 2.57298 18.4853 2.969 17.6933 3.76102L3.76094 17.6933C2.96893 18.4854 2.57292 18.8814 2.42455 19.338C2.29403 19.7397 2.29403 20.1724 2.42455 20.5741C2.56549 21.0079 2.92988 21.3869 3.64488 22.1027C3.66863 22.1264 3.6805 22.1383 3.6943 22.1455C3.70673 22.1519 3.71965 22.1555 3.73361 22.1564C3.74911 22.1575 3.76589 22.1533 3.79946 22.1451C4.18403 22.0503 4.58611 22 4.99994 22C7.76136 22 9.99994 24.2386 9.99994 27C9.99994 27.4138 9.94966 27.8159 9.85489 28.2005C9.84662 28.2341 9.84248 28.2508 9.84352 28.2663C9.84445 28.2803 9.84805 28.2932 9.85449 28.3056C9.86162 28.3194 9.8735 28.3313 9.89726 28.355C10.614 29.0711 10.9934 29.436 11.4275 29.577C11.8292 29.7075 12.2619 29.7075 12.6636 29.577C13.1202 29.4287 13.5162 29.0326 14.3083 28.2406L28.2405 14.3083C29.0326 13.5163 29.4286 13.1203 29.577 12.6636C29.7075 12.2619 29.7075 11.8292 29.577 11.4275C29.4359 10.9934 29.0711 10.6141 28.355 9.89735C28.3313 9.87358 28.3194 9.86169 28.3056 9.85455C28.2932 9.84812 28.2802 9.84451 28.2663 9.84358C28.2508 9.84255 28.234 9.84668 28.2004 9.85495C27.8159 9.94973 27.4138 10 26.9999 10C24.2385 10 21.9999 7.76143 21.9999 5.00001C21.9999 4.58617 22.0502 4.18409 22.145 3.79951C22.1533 3.76595 22.1574 3.74917 22.1564 3.73366C22.1554 3.7197 22.1518 3.70678 22.1454 3.69435C22.1383 3.68056 22.1264 3.66868 22.1026 3.64493C21.3869 2.92993 21.0078 2.56555 20.574 2.42461Z" fill="#7D7F82"/>
</g>
<defs>
<clipPath id="clip0_5534_20785">
<rect width="32" height="32" fill="white"/>
</clipPath>
</defs>
</svg>
