<svg width="32" height="32" viewBox="0 0 32 32" fill="none" xmlns="http://www.w3.org/2000/svg">
<g clip-path="url(#clip0_5534_20733)">
<path fill-rule="evenodd" clip-rule="evenodd" d="M29.4618 11.0226C30.0616 10.423 30.6446 9.84027 31.0606 9.29494C31.5297 8.68015 31.9706 7.88423 31.9706 6.8569C31.9706 5.82957 31.5297 5.03365 31.0606 4.41886C30.6445 3.87353 30.0616 3.29081 29.4618 2.69121L29.3079 2.53731C28.7083 1.93746 28.1255 1.35451 27.5802 0.93843C26.9654 0.46936 26.1695 0.0284729 25.1422 0.0284729C24.1148 0.0284729 23.3189 0.469361 22.7041 0.93843C22.1588 1.35451 21.5761 1.93746 20.9764 2.53731L5.85126 17.6625C5.25143 18.2621 4.66846 18.8448 4.25238 19.3902C3.78331 20.005 3.34243 20.8009 3.34243 21.8282C3.34243 22.6255 3.60798 23.2834 3.94616 23.8255L0.956805 26.8148C-0.214768 27.9864 -0.214768 29.8859 0.956805 31.0574C2.12838 32.229 4.02787 32.229 5.19945 31.0574L8.19236 28.0645C8.7308 28.3972 9.38273 28.6566 10.1709 28.6566C11.1982 28.6566 11.9941 28.2157 12.6089 27.7467C13.1542 27.3306 13.7369 26.7477 14.3365 26.1479L29.4618 11.0226ZM22.3137 4.02847C23.6471 2.69514 24.3137 2.02847 25.1422 2.02847C25.9706 2.02847 26.6373 2.69514 27.9706 4.02847C29.3039 5.36181 29.9706 6.02847 29.9706 6.8569C29.9706 7.68533 29.3039 8.35199 27.9706 9.68533L13.0351 24.6209L7.3782 18.964L22.3137 4.02847ZM5.99649 20.4107C5.56045 20.9336 5.34243 21.3545 5.34243 21.8282C5.34243 22.6566 6.00909 23.3233 7.34243 24.6566C8.67576 25.99 9.34242 26.6566 10.1709 26.6566C10.6446 26.6566 11.0655 26.4386 11.5883 26.0026L5.99649 20.4107ZM5.20002 25.4L6.61423 26.8142L3.78523 29.6432C3.39471 30.0338 2.76154 30.0338 2.37102 29.6432C1.98049 29.2527 1.98049 28.6195 2.37102 28.229L5.20002 25.4Z" fill="#7D7F82"/>
<path d="M11 6C11 7.65685 9.65686 9 8.00001 9C6.34315 9 5.00001 7.65685 5.00001 6C5.00001 4.34314 6.34315 3 8.00001 3C9.65686 3 11 4.34314 11 6Z" fill="#7D7F82"/>
</g>
<defs>
<clipPath id="clip0_5534_20733">
<rect width="32" height="32" fill="white"/>
</clipPath>
</defs>
</svg>
