<svg width="32" height="32" viewBox="0 0 32 32" fill="none" xmlns="http://www.w3.org/2000/svg">
<g clip-path="url(#clip0_5534_20703)">
<path d="M23.7052 7.05992C24.4999 7.05429 25.2695 6.78064 25.8894 6.28324C26.5093 5.78584 26.9432 5.09381 27.1209 4.31916C27.2985 3.5445 27.2096 2.73256 26.8684 2.01473C26.5273 1.29691 25.9539 0.715218 25.241 0.363808C24.5281 0.0123973 23.7176 -0.0881676 22.9404 0.07839C22.1633 0.244948 21.4651 0.668881 20.9589 1.28157C20.4527 1.89427 20.168 2.65986 20.151 3.45445C20.134 4.24904 20.3856 5.02612 20.8652 5.65992C21.1958 6.09946 21.625 6.45517 22.1183 6.69835C22.6117 6.94153 23.1552 7.06538 23.7052 7.05992ZM22.1852 3.30992C22.234 2.95643 22.4041 2.63086 22.6663 2.38886C22.9286 2.14686 23.2667 2.00345 23.623 1.98312C23.9793 1.9628 24.3315 2.06683 24.6196 2.27744C24.9077 2.48805 25.1137 2.79216 25.2024 3.13781C25.2911 3.48345 25.257 3.84918 25.1059 4.17248C24.9549 4.49578 24.6963 4.75659 24.3742 4.91035C24.0522 5.0641 23.6868 5.10125 23.3404 5.01544C22.994 4.92964 22.6882 4.72621 22.4752 4.43992C22.3528 4.28104 22.264 4.09895 22.2141 3.9047C22.1643 3.71045 22.1544 3.50809 22.1852 3.30992Z" fill="#7D7F82"/>
<path d="M31.3852 21.9199C31.2631 21.8712 31.1325 21.8471 31.0011 21.8488C30.8696 21.8506 30.7398 21.8783 30.6191 21.9303C30.4983 21.9823 30.389 22.0577 30.2974 22.152C30.2058 22.2463 30.1337 22.3577 30.0852 22.4799C29.9589 22.8357 29.7839 23.1722 29.5652 23.4799C29.1901 23.7324 28.7472 23.8649 28.2952 23.8599C27.1152 23.9199 25.7052 23.9499 24.2052 23.9699C25.4252 21.8399 25.6552 21.4899 25.6652 21.4699C25.7765 21.3179 25.8427 21.1375 25.856 20.9496C25.8693 20.7616 25.8292 20.5737 25.7404 20.4075C25.6515 20.2414 25.5175 20.1037 25.3538 20.0103C25.1902 19.917 25.0034 19.8718 24.8152 19.8799H21.0452C21.9052 18.3699 23.4552 15.6699 25.8052 11.5899C25.8419 11.5136 25.8688 11.433 25.8852 11.3499C25.8869 11.3199 25.8869 11.2899 25.8852 11.2599C25.9182 11.1325 25.9258 10.9999 25.9075 10.8695C25.8892 10.7392 25.8453 10.6138 25.7785 10.5004C25.7116 10.3871 25.623 10.2881 25.5177 10.209C25.4125 10.13 25.2927 10.0725 25.1652 10.0399L23.6552 9.63991C22.5513 9.26652 21.4063 9.02812 20.2452 8.92992C20.2452 8.92992 20.1852 8.92992 20.1552 8.92992H19.8552C19.0352 9.11992 16.8552 9.76992 12.7252 11.0899L14.8752 8.24992C15.022 8.03826 15.0814 7.77813 15.0411 7.52372C15.0009 7.26932 14.864 7.04026 14.659 6.88428C14.4541 6.7283 14.1968 6.65742 13.9409 6.68641C13.6849 6.71541 13.4501 6.84203 13.2852 7.03991L2.59518 21.1899L1.69518 20.4399C1.59642 20.3444 1.47905 20.2703 1.35037 20.2221C1.2217 20.174 1.08448 20.1529 0.947291 20.1601C0.810099 20.1674 0.675869 20.2028 0.552977 20.2642C0.430085 20.3256 0.321169 20.4117 0.233016 20.5171C0.144862 20.6225 0.0793634 20.7449 0.04061 20.8767C0.00185667 21.0085 -0.00932261 21.1469 0.00776931 21.2832C0.0248612 21.4195 0.0698578 21.5508 0.139952 21.669C0.210047 21.7871 0.303736 21.8896 0.415175 21.9699L1.41518 22.7899L0.335177 24.2199C0.174975 24.4309 0.105006 24.6967 0.140628 24.9592C0.176249 25.2217 0.314548 25.4593 0.525176 25.6199C0.697011 25.7533 0.90766 25.827 1.12518 25.8299C1.28042 25.8299 1.43353 25.7938 1.57239 25.7243C1.71125 25.6549 1.83203 25.5541 1.92518 25.4299L2.92518 24.0699L3.75518 24.7699C3.93509 24.919 4.16152 25.0004 4.39517 24.9999C4.60194 25.0024 4.8044 24.9407 4.97467 24.8234C5.14494 24.7061 5.27464 24.5388 5.34592 24.3447C5.41721 24.1506 5.42656 23.9392 5.3727 23.7395C5.31884 23.5399 5.20441 23.3618 5.04518 23.2299L4.14517 22.4799L10.6552 13.8799C14.2652 12.6599 16.5452 11.9699 18.0452 11.5399C13.9552 18.7699 13.3452 19.8599 13.0452 20.4099L11.0452 23.9099C8.04518 23.9099 8.04518 24.0099 7.74518 24.4699C7.65472 24.6225 7.60645 24.7963 7.60534 24.9737C7.60423 25.1511 7.65031 25.3255 7.73885 25.4792C7.82739 25.6329 7.95521 25.7602 8.10921 25.8482C8.2632 25.9362 8.43783 25.9817 8.61518 25.9799C8.71124 25.9952 8.80912 25.9952 8.90518 25.9799C9.08518 25.9799 9.44518 25.9799 9.90518 25.9799L9.60518 26.5199L7.68518 29.7599C7.68257 29.7865 7.68257 29.8133 7.68518 29.8399H6.74518C0.515177 29.8399 0.515177 29.8399 0.175177 30.3799C0.0847154 30.5325 0.0364537 30.7063 0.0353419 30.8837C0.0342302 31.0611 0.0803063 31.2355 0.168849 31.3892C0.257391 31.5429 0.385213 31.6702 0.539206 31.7582C0.6932 31.8462 0.867825 31.8917 1.04518 31.8899C1.14125 31.9051 1.23911 31.9051 1.33518 31.8899C1.92518 31.8899 4.33518 31.8899 6.72518 31.8899C11.0952 31.8899 17.0752 31.9599 20.8552 31.7799C21.7228 31.7647 22.5645 31.4818 23.2652 30.9699C23.7719 30.4641 24.1611 29.853 24.4052 29.1799C24.4539 29.0578 24.478 28.9273 24.4763 28.7958C24.4745 28.6644 24.4468 28.5345 24.3948 28.4138C24.3427 28.293 24.2674 28.1837 24.1731 28.0921C24.0788 28.0005 23.9674 27.9284 23.8452 27.8799C23.7231 27.8312 23.5925 27.8071 23.4611 27.8088C23.3296 27.8106 23.1998 27.8383 23.079 27.8903C22.9583 27.9423 22.849 28.0177 22.7574 28.112C22.6658 28.2063 22.5937 28.3177 22.5452 28.4399C22.4182 28.7954 22.2433 29.1318 22.0252 29.4399C21.6512 29.6866 21.2132 29.8187 20.7652 29.8199C17.8952 29.9599 13.7652 29.9699 9.96517 29.9499L11.3452 27.5299L12.2052 26.0099H14.3052C16.7252 26.0099 19.6352 26.0099 22.3952 26.0099H22.5952C24.7452 26.0099 26.7952 26.0099 28.4252 25.8799C29.2926 25.8634 30.1339 25.5807 30.8352 25.0699C31.3389 24.5617 31.7276 23.9513 31.9752 23.2799C32.0328 23.1527 32.0632 23.0148 32.0644 22.8752C32.0655 22.7355 32.0373 22.5972 31.9818 22.4691C31.9262 22.341 31.8444 22.2259 31.7416 22.1313C31.6389 22.0367 31.5174 21.9647 31.3852 21.9199ZM23.4452 11.6599C20.8152 16.2099 19.3052 18.8599 18.7252 19.8799H15.7852C16.3452 18.8799 16.9752 17.6899 17.6452 16.4799C18.5952 14.7599 19.6452 12.9099 20.5752 11.1099L20.6552 10.9599C21.2352 11.0599 22.3152 11.3499 23.1452 11.5799L23.4452 11.6599ZM14.2852 23.9299H13.2852C14.0052 22.6699 14.2852 22.1399 14.4752 21.8399H23.0652C22.6752 22.5099 22.2352 23.2899 21.8552 23.9499C19.2752 23.9599 16.5652 23.9399 14.2852 23.9299Z" fill="#7D7F82"/>
</g>
<defs>
<clipPath id="clip0_5534_20703">
<rect width="32" height="32" fill="white"/>
</clipPath>
</defs>
</svg>
