<svg width="32" height="32" viewBox="0 0 32 32" fill="none" xmlns="http://www.w3.org/2000/svg">
<path d="M13.9 2C13.3477 2 12.9 2.44772 12.9 3C12.9 3.55228 13.3477 4 13.9 4H21C21.5523 4 22 4.44771 22 5C22 5.55228 21.5523 6 21 6H9C8.44771 6 8 6.44772 8 7C8 7.55228 8.44771 8 9 8H21C22.6569 8 24 6.65685 24 5C24 3.34315 22.6569 2 21 2H13.9Z" fill="#7D7F82"/>
<path fill-rule="evenodd" clip-rule="evenodd" d="M24 10H8C3.58172 10 0 13.5817 0 18V22C0 26.4183 3.58172 30 8 30H24C28.4183 30 32 26.4183 32 22V18C32 13.5817 28.4183 10 24 10ZM2.34141 16C3.16508 13.6696 5.38756 12 8 12H24C26.6124 12 28.8349 13.6696 29.6586 16H2.34141ZM2 18V20H30V18H2ZM2 22H30C30 25.3137 27.3137 28 24 28H8C4.68629 28 2 25.3137 2 22Z" fill="#7D7F82"/>
</svg>
