<svg width="32" height="32" viewBox="0 0 32 32" fill="none" xmlns="http://www.w3.org/2000/svg">
<path d="M6.21585 19.5872C4.56639 19.5898 2.98535 20.2449 1.81995 21.4085C0.654537 22.5722 -2.13172e-06 24.1493 0 25.7936C-2.13172e-06 27.4379 0.654537 29.015 1.81995 30.1787C2.98535 31.3423 4.56639 31.9974 6.21585 32C7.86624 31.9974 9.44825 31.3426 10.6152 30.1793C11.7822 29.0159 12.439 27.4388 12.4417 25.7936C12.439 24.1484 11.7822 22.5713 10.6152 21.4079C9.44825 20.2445 7.86624 19.5898 6.21585 19.5872ZM6.21585 30.0044C5.09733 30.0017 4.0255 29.5569 3.23552 28.7675C2.44554 27.9781 2.00188 26.9086 2.00188 25.7936C2.00451 24.6794 2.44898 23.6114 3.23839 22.8225C4.02781 22.0337 5.09814 21.5881 6.21585 21.5828C7.33531 21.5854 8.40816 22.0299 9.19973 22.819C9.99131 23.6081 10.4371 24.6776 10.4398 25.7936C10.4398 26.3466 10.3305 26.8941 10.1183 27.405C9.90598 27.9159 9.59484 28.3801 9.20261 28.7711C8.81037 29.1621 8.34478 29.4722 7.8323 29.6838C7.31983 29.8954 6.77055 30.0044 6.21585 30.0044Z" fill="#7D7F82"/>
<path d="M25.7742 19.5872C24.1238 19.5898 22.5418 20.2445 21.3748 21.4079C20.2078 22.5713 19.551 24.1484 19.5484 25.7936C19.551 27.4388 20.2078 29.0159 21.3748 30.1793C22.5418 31.3426 24.1238 31.9974 25.7742 32C27.4246 31.9974 29.0066 31.3426 30.1736 30.1793C31.3406 29.0159 31.9974 27.4388 32 25.7936C31.9974 24.1484 31.3406 22.5713 30.1736 21.4079C29.0066 20.2445 27.4246 19.5898 25.7742 19.5872ZM25.7742 30.0044C25.2195 30.0044 24.6702 29.8954 24.1577 29.6838C23.6453 29.4722 23.1796 29.1621 22.7874 28.7711C22.3951 28.3801 22.0841 27.9159 21.8718 27.405C21.6595 26.8941 21.5503 26.3466 21.5503 25.7936C21.5529 24.6776 21.9987 23.6081 22.7903 22.819C23.5819 22.0299 24.6547 21.5854 25.7742 21.5828C26.8936 21.5854 27.9665 22.0299 28.7581 22.819C29.5496 23.6081 29.9955 24.6776 29.9981 25.7936C29.9955 26.9096 29.5496 27.979 28.7581 28.7681C27.9665 29.5573 26.8936 30.0017 25.7742 30.0044Z" fill="#7D7F82"/>
<path d="M22.2609 7.41378C22.7499 7.41378 23.234 7.31777 23.6858 7.13123C24.1376 6.94469 24.548 6.67127 24.8938 6.32659C25.2395 5.98191 25.5138 5.57272 25.7009 5.12237C25.8881 4.67203 25.9844 4.18935 25.9844 3.7019C25.9818 2.71917 25.5882 1.77762 24.8902 1.08366C24.1922 0.389703 23.2467 -3.5507e-06 22.2609 0C21.2751 -3.5507e-06 20.3295 0.389703 19.6315 1.08366C18.9335 1.77762 18.5401 2.71917 18.5374 3.7019C18.5374 4.18935 18.6337 4.67203 18.8208 5.12237C19.0079 5.57272 19.2822 5.98191 19.628 6.32659C19.9737 6.67127 20.3842 6.94469 20.836 7.13123C21.2877 7.31777 21.7719 7.41378 22.2609 7.41378ZM22.2609 1.99564C22.7158 1.99563 23.1521 2.17505 23.4747 2.49476C23.7973 2.81446 23.9799 3.24845 23.9825 3.7019C23.9825 4.15707 23.8011 4.5936 23.4783 4.91546C23.1554 5.23732 22.7175 5.41814 22.2609 5.41814C21.8043 5.41814 21.3664 5.23732 21.0436 4.91546C20.7207 4.5936 20.5393 4.15707 20.5393 3.7019C20.5419 3.24845 20.7245 2.81446 21.047 2.49476C21.3696 2.17505 21.806 1.99563 22.2609 1.99564Z" fill="#7D7F82"/>
<path d="M14.0932 18.8687C16.1506 17.2614 17.985 15.3891 19.5484 13.3009C20.7795 14.9074 21.8405 16.0349 22.8615 16.4241C24.8133 17.1724 28.0763 16.7035 28.4367 16.6536C28.5669 16.6341 28.692 16.5892 28.8047 16.5214C28.9175 16.4537 29.0157 16.3644 29.0938 16.2587C29.1719 16.1531 29.2284 16.033 29.2599 15.9056C29.2914 15.7782 29.2974 15.6458 29.2775 15.516C29.2579 15.3862 29.2129 15.2616 29.1449 15.1492C29.0769 15.0368 28.9874 14.9388 28.8814 14.861C28.7754 14.7831 28.655 14.7268 28.5272 14.6954C28.3994 14.664 28.2665 14.6581 28.1364 14.6779C26.6219 14.9387 25.0707 14.898 23.5721 14.5582C22.5712 14.189 20.8095 11.6844 19.6184 10.028C17.9668 7.71311 17.3963 7.0346 16.6156 6.94479C15.4645 6.87495 13.9631 7.73306 12.1814 9.42935C10.67 10.8762 8.26777 13.7 8.26777 15.1169C8.26777 16.8631 10.3597 18.4796 12.5718 20.1858C13.7162 20.9654 14.744 21.9027 15.6246 22.9697C15.995 23.6582 15.6247 26.512 15.0842 28.7371C15.0512 28.8649 15.0441 28.9979 15.063 29.1285C15.082 29.2591 15.1267 29.3846 15.1947 29.4978C15.2626 29.611 15.3525 29.7097 15.4589 29.7881C15.5654 29.8664 15.6863 29.923 15.8148 29.9545H16.055C16.2837 29.9611 16.5077 29.8895 16.6899 29.7515C16.872 29.6135 17.0012 29.4175 17.056 29.1961C17.3763 27.9389 18.3472 23.6882 17.4063 21.9819C16.4984 20.7543 15.3761 19.6998 14.0932 18.8687ZM10.2396 15.1568C10.4498 13.9495 14.5737 9.27968 16.2452 8.96038C16.8562 9.66778 17.4244 10.4108 17.9468 11.1855L18.2671 11.6246C16.6342 13.9072 14.6594 15.9263 12.4117 17.6115C11.3407 16.6735 10.2396 15.6657 10.2396 15.1768V15.1568Z" fill="#7D7F82"/>
</svg>
