<svg width="32" height="32" viewBox="0 0 32 32" fill="none" xmlns="http://www.w3.org/2000/svg">
<g clip-path="url(#clip0_5534_20777)">
<path d="M31.71 0.299994C31.6171 0.206266 31.5065 0.131872 31.3846 0.0811031C31.2628 0.0303344 31.1321 0.00419617 31 0.00419617C30.868 0.00419617 30.7373 0.0303344 30.6155 0.0811031C30.4936 0.131872 30.383 0.206266 30.29 0.299994L24.84 5.74999C23.7125 4.91417 22.3323 4.49058 20.93 4.54999C19.9174 4.61928 18.9303 4.89869 18.0316 5.37043C17.1329 5.84217 16.3422 6.4959 15.71 7.28999C12.23 11.37 7.71004 19.95 7.45004 20.37L4.83004 19.43C4.65725 19.3757 4.47295 19.3693 4.29683 19.4116C4.1207 19.4539 3.95936 19.5432 3.83004 19.67L0.290043 23.15C0.171712 23.2705 0.0858101 23.4189 0.0403465 23.5815C-0.00511711 23.7442 -0.00866184 23.9156 0.0300428 24.08C0.0650072 24.2449 0.141098 24.3983 0.251243 24.5259C0.361388 24.6536 0.502011 24.7513 0.660043 24.81L5.47004 26.53L7.20004 31.34C7.25646 31.4987 7.35203 31.6405 7.4779 31.7524C7.60377 31.8643 7.75585 31.9426 7.92004 31.98C7.99304 31.9899 8.06704 31.9899 8.14004 31.98C8.27165 31.9808 8.40211 31.9555 8.52395 31.9058C8.64579 31.856 8.7566 31.7827 8.85004 31.69L12.34 28.2C12.4744 28.065 12.5674 27.8945 12.6081 27.7085C12.6489 27.5225 12.6357 27.3287 12.57 27.15L11.57 24.47C12.21 24.13 20.63 19.7 24.67 16.27C25.464 15.6414 26.1186 14.8545 26.592 13.9592C27.0654 13.064 27.3474 12.0801 27.42 11.07C27.4661 9.66482 27.0401 8.28471 26.21 7.14999L31.71 1.71999C31.8038 1.62703 31.8782 1.51643 31.9289 1.39457C31.9797 1.27271 32.0058 1.14201 32.0058 1.00999C32.0058 0.877983 31.9797 0.747277 31.9289 0.625418C31.8782 0.503559 31.8038 0.392957 31.71 0.299994ZM16.54 9.45999L22.54 15.46C18.9474 18.0215 15.1855 20.3367 11.28 22.39L9.57004 20.67C11.6394 16.7813 13.968 13.0362 16.54 9.45999ZM4.75004 21.54L7.91004 22.67L6.54004 24.02L5.99004 24.57L2.83004 23.45L4.75004 21.54ZM8.55004 29.17L7.41004 26.02L7.96004 25.47L9.33004 24.1L10.47 27.26L8.55004 29.17ZM24.06 14.14L17.87 7.94999C18.7312 7.11601 19.8633 6.61916 21.06 6.54999C21.6402 6.54172 22.2161 6.64985 22.7537 6.86799C23.2913 7.08612 23.7797 7.40984 24.19 7.81999C24.6104 8.23689 24.9395 8.73665 25.1565 9.28753C25.3734 9.83842 25.4733 10.4284 25.45 11.02C25.3673 12.1909 24.8752 13.2954 24.06 14.14Z" fill="#7D7F82"/>
</g>
<defs>
<clipPath id="clip0_5534_20777">
<rect width="32" height="32" fill="white"/>
</clipPath>
</defs>
</svg>
