<svg width="32" height="32" viewBox="0 0 32 32" fill="none" xmlns="http://www.w3.org/2000/svg">
<path d="M28.2859 6.872C28.0758 6.75197 27.8658 6.65194 27.6557 6.55191V1.00029C27.6557 0.734998 27.5503 0.48057 27.3627 0.292979C27.1751 0.105388 26.9207 0 26.6554 0C26.3901 0 26.1357 0.105388 25.9481 0.292979C25.7605 0.48057 25.6551 0.734998 25.6551 1.00029V5.89172C25.1942 5.79676 24.7253 5.74651 24.2547 5.74167H7.77991C6.52404 5.73557 5.28553 6.03506 4.17122 6.61433C3.0569 7.19359 2.10023 8.03524 1.38371 9.06667C0.667194 10.0981 0.212344 11.2884 0.0583928 12.5348C-0.0955587 13.7812 0.0560102 15.0463 0.500026 16.2211C0.944043 17.3959 1.66718 18.445 2.60706 19.278C3.54694 20.111 4.67534 20.7028 5.89496 21.0025C7.11457 21.3021 8.38877 21.3006 9.60766 20.998C10.8265 20.6954 11.9535 20.1009 12.8914 19.2656C13.7656 19.971 14.8586 20.349 15.9817 20.3343C17.1049 20.3197 18.1877 19.9134 19.0432 19.1856C19.8999 19.9908 20.9334 20.584 22.0609 20.9175C23.1883 21.251 24.3782 21.3156 25.5351 21.1062V23.3268C25.5917 24.0495 25.3658 24.766 24.9051 25.3256C24.4443 25.8853 23.7845 26.2445 23.0644 26.3277H20.5436C20.2972 25.2161 19.6491 24.2347 18.7236 23.5715C17.7982 22.9083 16.6605 22.6101 15.5287 22.7341C14.3969 22.8581 13.3507 23.3954 12.5908 24.2432C11.8308 25.091 11.4105 26.1894 11.4105 27.328C11.4105 28.4665 11.8308 29.565 12.5908 30.4128C13.3507 31.2605 14.3969 31.7979 15.5287 31.9219C16.6605 32.0458 17.7982 31.7476 18.7236 31.0844C19.6491 30.4213 20.2972 29.4398 20.5436 28.3283H23.0644C24.3169 28.2483 25.4879 27.679 26.3244 26.7433C27.1609 25.8076 27.596 24.5805 27.5357 23.3268V20.486C28.8041 19.8945 29.8881 18.9698 30.6723 17.8106C31.4564 16.6514 31.9113 15.3011 31.9883 13.9037C32.0653 12.5063 31.7616 11.1142 31.1096 9.87581C30.4575 8.63746 29.4816 7.59928 28.2859 6.872ZM16.0423 30.0088C15.5236 30.0107 15.0159 29.8587 14.5836 29.5719C14.1513 29.2852 13.8138 28.8766 13.6139 28.3979C13.414 27.9192 13.3607 27.3919 13.4607 26.8829C13.5607 26.3738 13.8095 25.9059 14.1756 25.5384C14.5417 25.1709 15.0087 24.9203 15.5173 24.8183C16.026 24.7164 16.5534 24.7677 17.0329 24.9658C17.5124 25.1638 17.9223 25.4997 18.2107 25.9309C18.4991 26.3621 18.6531 26.8692 18.6531 27.388C18.6531 28.0813 18.3783 28.7464 17.889 29.2376C17.3997 29.7288 16.7357 30.0061 16.0423 30.0088ZM14.2118 17.7652C14.3018 17.6251 14.4018 17.4951 14.4919 17.3451C14.7078 16.9043 14.8755 16.4415 14.992 15.9647C15.2221 15.1044 15.5322 14.6643 15.9223 14.6643C16.0723 14.6643 16.5225 14.6643 16.9226 16.0047C16.9565 16.1201 16.9966 16.2336 17.0426 16.3448C17.1817 16.6896 17.3455 17.0239 17.5328 17.3451C17.597 17.4522 17.6671 17.5558 17.7428 17.6551C17.2415 18.0446 16.6297 18.2651 15.9952 18.2848C15.3607 18.3046 14.7363 18.1227 14.2118 17.7652ZM24.2147 19.2256C23.2015 19.2266 22.2059 18.961 21.328 18.4553C20.4501 17.9496 19.7207 17.2217 19.2132 16.3448C19.0752 16.1072 18.9549 15.8598 18.8531 15.6046L18.7631 15.3545C18.0529 13.1438 16.7625 12.6637 15.8623 12.6637C15.2984 12.6786 14.7526 12.8659 14.2984 13.2003C13.8441 13.5347 13.5032 14.0002 13.3215 14.5342C13.3215 14.5843 13.2615 14.6243 13.2415 14.6843C13.2215 14.7443 13.1215 15.0344 13.0514 15.2745C12.9814 15.5145 12.7814 16.1947 12.7013 16.3448C12.0572 17.4094 11.0846 18.236 9.93008 18.7C8.77552 19.1641 7.50145 19.2405 6.29969 18.9178C5.09794 18.595 4.03355 17.8906 3.26679 16.9106C2.50002 15.9306 2.07237 14.728 2.04823 13.4839C2.04823 11.9629 2.65178 10.504 3.72639 9.42749C4.801 8.351 6.25885 7.74491 7.77991 7.74226H24.2547C25.7767 7.7449 27.2356 8.35068 28.3118 9.42688C29.388 10.5031 29.9937 11.962 29.9964 13.4839C29.9937 15.0059 29.388 16.4648 28.3118 17.541C27.2356 18.6172 25.7767 19.223 24.2547 19.2256H24.2147Z" fill="#7D7F82"/>
<path d="M16.0423 28.3583C16.5947 28.3583 17.0426 27.9105 17.0426 27.358C17.0426 26.8056 16.5947 26.3577 16.0423 26.3577C15.4898 26.3577 15.042 26.8056 15.042 27.358C15.042 27.9105 15.4898 28.3583 16.0423 28.3583Z" fill="#7D7F82"/>
</svg>
