<svg width="32" height="32" viewBox="0 0 32 32" fill="none" xmlns="http://www.w3.org/2000/svg">
<path d="M29.236 24.5461C29.458 24.5461 29.6262 24.4922 29.769 24.413C30.0246 24.2712 30.1666 24.0159 30.1681 23.6204C30.1681 23.6181 30.1689 23.6167 30.1689 23.6144C30.1689 23.0099 29.8576 22.7082 29.236 22.7082H24.8442C24.0149 22.7082 23.6004 23.1183 23.6004 23.9377V30.6047C23.6004 31.424 24.0149 31.8342 24.8442 31.8342H29.236C29.8576 31.8342 30.1689 31.5275 30.1689 30.9152C30.1689 30.3029 29.8576 29.9963 29.236 29.9963H25.8807V28.1193H28.9511C29.5727 28.1193 29.8835 27.8127 29.8835 27.2004C29.8835 26.5871 29.5727 26.2805 28.9511 26.2805H25.8807V24.5461H29.236Z" fill="#7D7F82"/>
<path d="M31.5935 12.4219C31.4752 11.905 31.3304 11.3943 31.1601 10.889C30.3973 8.62384 29.13 6.49084 27.324 4.68628C26.4083 3.77136 25.4022 3.00696 24.3444 2.35999C23.6708 1.94806 22.9771 1.58405 22.262 1.2807C20.2652 0.433655 18.1347 0 16.0007 0C15.2473 0 14.4959 0.071106 13.7485 0.176697C13.0847 0.270508 12.4261 0.400269 11.7761 0.577332C9.17695 1.28534 6.71895 2.64655 4.67756 4.68628C4.07751 5.28583 3.55327 5.9303 3.06836 6.59448C2.65365 7.16254 2.27222 7.74646 1.94174 8.35248C0.201941 11.5428 -0.366774 15.194 0.22778 18.6915C0.398578 19.6959 0.666198 20.6851 1.02954 21.6484C1.80809 23.7127 3.01485 25.6523 4.67756 27.3137C5.61377 28.2491 6.64467 29.027 7.72901 29.6824C8.44141 30.113 9.17328 30.4984 9.931 30.808C11.8717 31.6012 13.9358 31.9999 16.0007 31.9999C16.9938 31.9999 17.9862 31.904 18.9654 31.7206L19.3961 31.6286H19.3986L19.4013 31.6275L19.4483 31.6174L19.4462 31.6088C19.9585 31.4787 20.2893 30.9772 20.1851 30.4531C20.0774 29.9115 19.5507 29.5597 19.0086 29.6673C18.9932 29.6703 18.9819 29.681 18.9668 29.6847L18.9654 29.6787C18.0011 29.8854 17.0104 29.9999 16.0008 29.9999C14.6949 29.9999 13.4197 29.812 12.1959 29.4689C13.8319 28.386 15.4684 27.0643 16.8693 25.6532C16.8755 25.6469 16.8773 25.6383 16.8833 25.6319C17.1055 25.7291 17.3236 25.8279 17.528 25.9335C17.6746 26.0087 17.832 26.0448 17.9864 26.0448C18.349 26.0448 18.6989 25.8475 18.8763 25.5038C18.9282 25.4038 18.9494 25.2978 18.9654 25.1923V24.95C18.9331 24.6241 18.7596 24.3179 18.4468 24.1561C16.2432 23.0184 13.3404 22.3466 8.09333 21.7606C5.84328 21.5088 4.19681 21.0663 2.65426 20.2588C2.22121 18.8989 1.98896 17.4681 1.98896 15.9999C1.98896 13.8745 2.47497 11.8282 3.36732 9.96637C7.87177 14.9069 12.6014 18.7814 17.4694 21.4823C17.6233 21.5682 17.79 21.6083 17.9542 21.6083C18.306 21.6083 18.6471 21.4227 18.8299 21.0936C19.0987 20.6112 18.9242 20.0018 18.4409 19.7343C13.6052 17.0507 8.89363 13.1573 4.40438 8.14392C4.89808 7.41962 5.45916 6.7337 6.09294 6.10046C7.95968 4.23529 10.265 2.97601 12.7721 2.38715C13.3406 3.62036 13.729 5.44519 14.1072 7.23816C15.0562 11.7418 16.2313 17.279 21.0321 18.4128C21.3041 18.477 21.5819 18.5343 21.8779 18.5692C22.2561 18.6133 22.6291 18.6342 22.9973 18.6359C23.0122 18.6359 23.0276 18.6385 23.0424 18.6385C25.8359 18.6385 28.3052 17.4214 29.9808 15.3494C29.9907 15.5664 30.0125 15.7812 30.0125 15.9999C30.0125 17.1317 29.862 18.2378 29.602 19.3104C29.6009 19.3156 29.5997 19.3205 29.5987 19.3257C29.5953 19.3394 29.593 19.3535 29.5897 19.3671L29.5985 19.3689C29.581 19.4814 29.574 19.5972 29.5975 19.7153C29.7052 20.2569 30.2319 20.6088 30.7739 20.5012C31.1678 20.423 31.4555 20.1214 31.5453 19.7559L31.5515 19.7571L31.645 19.3671C32.1364 17.0773 32.1161 14.7061 31.5935 12.4219ZM7.87098 23.7489C10.8946 24.0861 13.0725 24.446 14.7635 24.9028C13.2424 26.3265 11.5108 27.6208 9.85898 28.574C8.48331 27.9019 7.20758 27.0131 6.09294 25.8994C5.19234 24.9996 4.44134 23.9925 3.82669 22.9163C5.01959 23.308 6.3247 23.5757 7.87098 23.7489ZM21.5489 16.4758C17.9312 15.6384 16.9808 11.1661 16.0659 6.82605C15.6915 5.05023 15.3403 3.39709 14.8132 2.05774C15.2065 2.0249 15.6016 1.99994 16.0008 1.99994C18.2812 1.99994 20.4754 2.5473 22.4429 3.56793C22.8001 8.43878 22.4968 12.8365 21.5489 16.4758ZM23.577 16.6135C24.4263 13.2012 24.7385 9.27783 24.5244 4.90381C25.0049 5.27386 25.4724 5.66473 25.9086 6.10052C27.6513 7.84174 28.8658 9.96484 29.5007 12.2769C28.4164 14.7899 26.213 16.4127 23.577 16.6135Z" fill="#7D7F82"/>
</svg>
