<svg width="32" height="32" viewBox="0 0 32 32" fill="none" xmlns="http://www.w3.org/2000/svg">
<g clip-path="url(#clip0_5534_20904)">
<path d="M31.0576 9.2787C31.5288 8.66813 31.9699 7.86738 31.9699 6.83641C31.9699 5.80544 31.5288 5.0147 31.0576 4.39412C30.6365 3.8436 30.0551 3.26306 29.4536 2.6625L29.3032 2.51236C28.7017 1.91179 28.1203 1.33125 27.5689 0.910854C26.9573 0.440413 26.1553 0 25.1228 0C24.0902 0 23.2982 0.440413 22.6766 0.910854C22.1253 1.33125 21.5438 1.91179 20.9423 2.51236L5.78441 17.6465C5.18291 18.2471 4.60145 18.8277 4.1804 19.3782C3.70922 19.9887 3.26812 20.7895 3.26812 21.8205C3.26812 22.6212 3.5388 23.2818 3.86962 23.8223L0.872131 26.8151C-0.300801 27.9862 -0.300801 29.888 0.872131 31.0591C2.04506 32.2302 3.94983 32.2302 5.12276 31.0591L8.12025 28.0663C8.66161 28.3966 9.31323 28.6569 10.1052 28.6569C11.1378 28.6569 11.9298 28.2165 12.5513 27.746C13.1027 27.3256 13.6842 26.7451 14.2857 26.1445L29.4536 11.0003C30.0551 10.3997 30.6365 9.81921 31.0576 9.26869V9.2787ZM3.71925 29.6378C3.32827 30.0282 2.69669 30.0282 2.30572 29.6378C1.91474 29.2474 1.91474 28.6168 2.30572 28.2265L5.14281 25.3938L6.55634 26.8051L3.71925 29.6378ZM10.1253 26.645C9.29319 26.645 8.62151 25.9744 7.28817 24.6431C5.95484 23.3119 5.28316 22.6412 5.28316 21.8104C5.28316 21.34 5.50371 20.9196 5.93479 20.3891L11.5388 25.9844C11.0175 26.4248 10.5964 26.635 10.1152 26.635L10.1253 26.645ZM12.9924 24.6031L7.31825 18.9378L22.2957 4.00375C23.629 2.67251 24.3007 2.00188 25.1328 2.00188C25.9649 2.00188 26.6365 2.67251 27.9699 4.00375C29.3032 5.335 29.9749 6.00563 29.9749 6.83641C29.9749 7.66719 29.3032 8.33782 27.9699 9.66906L12.9924 24.6231V24.6031Z" fill="#7D7F82"/>
<path d="M7.9398 8.97842C9.60081 8.97842 10.9473 7.63401 10.9473 5.9756C10.9473 4.31719 9.60081 2.97279 7.9398 2.97279C6.27879 2.97279 4.93228 4.31719 4.93228 5.9756C4.93228 7.63401 6.27879 8.97842 7.9398 8.97842Z" fill="#7D7F82"/>
<path d="M28.5317 24.7351C28.8381 24.7351 29.0674 24.6581 29.2231 24.5076C29.3838 24.3522 29.466 24.1184 29.466 23.8026C29.466 23.4053 29.3181 23.152 29.0495 23.0157C28.9091 22.9444 28.7457 22.8955 28.5317 22.8955H24.1308C23.3003 22.8955 22.8851 23.306 22.8851 24.1261V30.7994C22.8851 30.8415 22.8989 30.87 22.9011 30.91C22.9417 31.648 23.343 32.03 24.1308 32.03H28.5317C29.1546 32.03 29.466 31.7231 29.466 31.1102C29.466 30.4973 29.1546 30.1904 28.5317 30.1904H25.1698V28.3117H28.2458C28.8686 28.3117 29.18 28.0048 29.18 27.3919C29.18 27.0497 29.0729 26.813 28.8794 26.6616C28.7257 26.5414 28.5214 26.4711 28.2458 26.4711H25.1698V24.7351H28.5317Z" fill="#7D7F82"/>
</g>
<defs>
<clipPath id="clip0_5534_20904">
<rect width="32" height="32" fill="white"/>
</clipPath>
</defs>
</svg>
