<svg width="32" height="32" viewBox="0 0 32 32" fill="none" xmlns="http://www.w3.org/2000/svg">
<g clip-path="url(#clip0_5534_20711)">
<path d="M28.62 24.6C29.24 24.6 29.55 24.29 29.55 23.67C29.55 23.05 29.24 22.76 28.62 22.76H24.23C23.4 22.76 22.99 23.17 22.99 23.99V30.66C22.99 31.48 23.4 31.89 24.23 31.89H28.62C29.24 31.89 29.55 31.58 29.55 30.97C29.55 30.36 29.24 30.05 28.62 30.05H25.27V28.17H28.34C28.96 28.17 29.27 27.86 29.27 27.25C29.27 26.64 28.96 26.33 28.34 26.33H25.27V24.6H28.62Z" fill="#7D7F82"/>
<path d="M28.35 5.81C28.25 5.69 28.14 5.59 28.04 5.47C25.11 2.12 20.81 0 16 0C11.19 0 6.88 2.13 3.95 5.48C3.85 5.59 3.74 5.7 3.64 5.82C1.37 8.57 0 12.1 0 15.94C0 16.44 0.03 16.93 0.07 17.42C0.33 20.25 1.33 22.86 2.88 25.07C5.77 29.19 10.54 31.89 15.97 31.89C16.65 31.89 17.34 31.83 18.01 31.74H18.08C18.55 31.64 18.84 31.25 18.84 30.76C18.84 30.21 18.39 29.76 17.84 29.76C17.81 29.76 17.62 29.78 17.62 29.78C17.04 29.86 16.58 29.89 15.98 29.89C14.96 29.89 13.96 29.77 13 29.56L10.53 25.29L13.39 21.68H19.09C19.21 21.68 19.33 21.65 19.44 21.61C19.48 21.6 19.51 21.58 19.54 21.56C19.61 21.52 19.68 21.48 19.74 21.43C19.77 21.4 19.8 21.37 19.83 21.34C19.88 21.28 19.93 21.21 19.96 21.14C19.98 21.1 20 21.07 20.02 21.03C20.02 21.01 20.04 21 20.04 20.99L21.82 15.54L26.45 13.48L29.95 16.86C29.9 17.59 29.8 18.3 29.64 18.99V19.04C29.58 19.39 29.73 19.86 30.12 20.08C30.6 20.36 31.21 20.19 31.49 19.72C31.54 19.63 31.61 19.43 31.61 19.43C31.86 18.3 32.01 17.13 32.01 15.93C32.01 12.08 30.64 8.55 28.36 5.8L28.35 5.81ZM16 1.99C17.34 1.99 18.63 2.19 19.85 2.54L16 4.25L12.14 2.54C13.37 2.19 14.66 1.99 16 1.99ZM9.82 3.69L15 5.99V10.68L10.87 13.67L6.27 11.62L5.74 6.63L9.82 3.68V3.69ZM3.96 8.86L4.29 12.02L2.05 14.89C2.22 12.7 2.89 10.65 3.96 8.86ZM5.91 25.62L8.68 26.11L10.02 28.55C8.47 27.82 7.08 26.83 5.91 25.62ZM11.78 20.51L8.9 24.13L4.09 23.27C3.11 21.69 2.44 19.91 2.16 18L5.63 13.55L10.17 15.58L11.78 20.51ZM18.36 19.7H13.62L12.16 15.21L15.99 12.43L19.82 15.21L18.35 19.7H18.36ZM25.72 11.64L21.12 13.69L16.99 10.7V5.99L22.16 3.69L26.24 6.64L25.72 11.63V11.64ZM27.7 11.94L28.02 8.86C28.94 10.41 29.57 12.15 29.83 14.01L27.69 11.94H27.7Z" fill="#7D7F82"/>
</g>
<defs>
<clipPath id="clip0_5534_20711">
<rect width="32" height="32" fill="white"/>
</clipPath>
</defs>
</svg>
