<svg width="32" height="32" viewBox="0 0 32 32" fill="none" xmlns="http://www.w3.org/2000/svg">
<path d="M14.9922 5.78711C14.4943 5.31622 13.8811 4.98431 13.2892 4.74756C12.0944 4.26965 10.5809 4.01874 9.01086 4.01874C7.44086 4.01874 5.92737 4.26965 4.73254 4.74756C4.14069 4.98431 3.52753 5.31622 3.0296 5.78711C2.52747 6.26202 2.01086 7.01544 2.01086 8.01874V12.1336C2.01086 12.4964 2.07544 12.9807 2.38232 13.4216C3.05609 14.3897 4.85016 16.0187 9.01086 16.0187C13.1716 16.0187 14.9657 14.3897 15.6395 13.4216C15.9463 12.9807 16.0109 12.4964 16.0109 12.1336V8.01874C16.0109 7.01544 15.4943 6.26202 14.9922 5.78711ZM14.0109 12.1336C14.0109 12.2017 14.0044 12.2453 13.9983 12.2698C13.9965 12.2772 13.995 12.282 13.994 12.2847C13.7143 12.6835 12.5495 14.0187 9.01086 14.0187C5.47229 14.0187 4.3075 12.6835 4.02783 12.2847C4.02686 12.282 4.02527 12.2772 4.02344 12.2698C4.0174 12.2453 4.01086 12.2017 4.01086 12.1336V10.9519C4.2489 11.0822 4.49249 11.1939 4.73254 11.2899C5.92737 11.7678 7.44086 12.0187 9.01086 12.0187C10.5809 12.0187 12.0944 11.7678 13.2892 11.2899C13.5293 11.1939 13.7729 11.0822 14.0109 10.9519V12.1336ZM9.01086 10.0187C6.24945 10.0187 4.01086 9.12329 4.01086 8.01874C4.01086 6.91418 6.24945 6.01874 9.01086 6.01874C11.7723 6.01874 14.0109 6.91418 14.0109 8.01874C14.0109 9.12329 11.7723 10.0187 9.01086 10.0187Z" fill="#7D7F82"/>
<path d="M27.5496 28.4744H24.197V26.5975H27.2644C27.8855 26.5975 28.196 26.2908 28.196 25.6785C28.196 25.0652 27.8855 24.7586 27.2644 24.7586H24.197V23.0242H27.5496C28.1707 23.0242 28.4812 22.7137 28.4812 22.0926C28.4812 21.4881 28.1707 21.1863 27.5496 21.1863H23.1609C22.3328 21.1863 21.9187 21.5965 21.9187 22.4158V29.0828C21.9187 29.1975 21.9459 29.2853 21.9622 29.3839C22.0618 29.9901 22.4487 30.3123 23.1609 30.3123H27.5496C28.1707 30.3123 28.4812 30.0057 28.4812 29.3934C28.4812 28.7811 28.1707 28.4744 27.5496 28.4744Z" fill="#7D7F82"/>
<path d="M28.9216 0H28.2589C26.9492 0 25.7797 0.847595 25.3899 2.11755C24.8874 3.75482 23.5788 7.97589 22.2584 11.8904C21.5969 13.8514 20.9408 15.7104 20.3863 17.1221C20.1076 17.8318 19.8674 18.3956 19.6749 18.7914C19.6119 18.921 19.5606 19.0189 19.5211 19.0898C19.4171 19.1476 19.2325 19.2345 18.935 19.3326C18.4922 19.4786 17.918 19.6115 17.226 19.7256C15.8423 19.9537 14.1582 20.0797 12.4593 20.1415C9.7934 20.2383 7.32513 20.1752 6.02563 20.1418C5.64917 20.1321 5.37085 20.1249 5.21411 20.1249C2.1853 20.1249 0.0170898 22.3647 0.0170898 25.0738V26.7701C0.0170898 27.9849 0.271973 29.4106 1.33801 30.5093C2.41248 31.6166 3.92767 31.9999 5.55469 31.9999C8.33026 31.9999 11.3182 31.8282 14.0585 31.465C15.7391 31.2422 17.3793 30.9405 18.843 30.5421L18.8874 30.5248C19.2887 30.3948 19.5461 30.0263 19.5461 29.5817C19.5461 29.0294 19.0984 28.5817 18.5461 28.5817C18.4952 28.5817 18.3274 28.6064 18.2635 28.6237C14.7889 29.5615 9.91479 29.9999 5.55469 29.9999C2.85474 29.9999 2.01709 28.7208 2.01709 26.7701V25.0738C2.01709 23.5099 3.24878 22.1249 5.21411 22.1249C5.32776 22.1249 5.55621 22.131 5.87756 22.1393H5.87885C8.6969 22.2125 18.6443 22.4709 20.918 20.5496C22.042 19.6729 26.2939 5.9884 27.3019 2.70441C27.4311 2.28326 27.8184 2 28.2589 2H28.9216C29.5769 2 30.0517 2.63263 29.885 3.26636C28.1041 10.0349 26.9166 14.4207 25.8661 17.827C25.8572 17.8473 25.8544 17.8694 25.8467 17.8904C25.8414 17.9076 25.8359 17.9257 25.8306 17.9429C25.8306 17.9429 25.7781 18.129 25.7781 18.2303C25.7781 18.7827 26.2258 19.2303 26.7781 19.2303C27.225 19.2303 27.5901 18.9319 27.7181 18.5273C27.7181 18.5273 30.1155 10.2502 31.8191 3.77527C32.31 1.90967 30.9255 0 28.9216 0Z" fill="#7D7F82"/>
</svg>
