<svg width="32" height="32" viewBox="0 0 32 32" fill="none" xmlns="http://www.w3.org/2000/svg">
<g clip-path="url(#clip0_5534_20807)">
<path d="M13.4228 1.32556C11.5162 0.385504 9.09826 1.78153 8.95907 3.90272C7.34707 4.0085 6.15387 5.43033 6.08649 6.94364H8.10271C8.16473 6.27994 8.8271 5.68801 9.61416 5.99165C10.5117 6.33792 11.3943 5.45536 11.048 4.55781C10.5927 3.37755 12.1512 2.47771 12.9457 3.46218C13.5499 4.21083 14.7555 3.88779 14.9044 2.93736C15.1002 1.68755 16.8998 1.68755 17.0956 2.93736C17.2445 3.88779 18.4501 4.21083 19.0543 3.46218C19.8488 2.47771 21.4073 3.37755 20.952 4.55781C20.6057 5.45536 21.4883 6.33792 22.3858 5.99165C23.1729 5.688 23.8353 6.27994 23.8973 6.94364H25.9135C25.8461 5.43033 24.6529 4.00849 23.0409 3.90272C22.9017 1.78152 20.4837 0.385504 18.5771 1.32556C17.396 -0.441855 14.604 -0.441851 13.4228 1.32556Z" fill="#7D7F82"/>
<path d="M11 16C10.4477 16 10 16.4477 10 17V26C10 26.5523 10.4477 27 11 27C11.5523 27 12 26.5523 12 26V17C12 16.4477 11.5523 16 11 16Z" fill="#7D7F82"/>
<path d="M16 16C15.4477 16 15 16.4477 15 17V26C15 26.5523 15.4477 27 16 27C16.5523 27 17 26.5523 17 26V17C17 16.4477 16.5523 16 16 16Z" fill="#7D7F82"/>
<path d="M21 16C20.4477 16 20 16.4477 20 17V26C20 26.5523 20.4477 27 21 27C21.5523 27 22 26.5523 22 26V17C22 16.4477 21.5523 16 21 16Z" fill="#7D7F82"/>
<path fill-rule="evenodd" clip-rule="evenodd" d="M3 7C1.34315 7 0 8.34315 0 10C0 10.8665 0.367325 11.6471 0.954746 12.1948L4.09757 29.4803C4.35693 30.9068 5.59932 31.9436 7.04918 31.9436H24.9508C26.4007 31.9436 27.6431 30.9068 27.9024 29.4803L31.0452 12.1948C31.6327 11.6471 32 10.8665 32 10C32 8.34315 30.6569 7 29 7H3ZM28.8661 13H3.13394L6.06531 29.1225C6.15176 29.598 6.56589 29.9436 7.04918 29.9436H24.9508C25.4341 29.9436 25.8482 29.598 25.9347 29.1225L28.8661 13ZM2 10C2 9.44772 2.44772 9 3 9H29C29.5523 9 30 9.44771 30 10C30 10.5523 29.5523 11 29 11H3C2.44772 11 2 10.5523 2 10Z" fill="#7D7F82"/>
</g>
<defs>
<clipPath id="clip0_5534_20807">
<rect width="32" height="32" fill="white"/>
</clipPath>
</defs>
</svg>
