<svg width="32" height="32" viewBox="0 0 32 32" fill="none" xmlns="http://www.w3.org/2000/svg">
<path d="M30.556 13.0757L21.5658 5.27929C21.1897 4.95312 20.7086 4.77361 20.2107 4.77361H18.9336C18.8081 3.33148 18.1293 2.04138 16.9845 1.11504C15.9269 0.258599 14.6075 -0.147651 13.5499 0.0486384C13.2404 0.107232 12.9757 0.279107 12.8048 0.532037C12.4757 1.02032 12.5548 1.42169 12.8888 3.11016C12.9763 3.55175 13.085 4.1021 13.2122 4.77361H10.4928C10.0081 4.77361 9.53876 4.97143 9.16681 5.33251L5 9.37762L0.759766 13.403C0.278931 13.8595 0 14.5428 0 15.2644V27.4509C0 29.6566 1.78809 31.4447 3.99384 31.4447H9.31152C11.5172 31.4447 13.3053 29.6566 13.3053 27.4509V27.3075C13.3053 27.2988 13.3029 27.2907 13.3027 27.282H19.0402C23.0103 27.282 26.245 24.1014 26.3469 20.1555C26.8258 20.3346 27.3208 20.4266 27.8115 20.4266C29.0965 20.4266 30.3452 19.8338 31.1543 18.7622C32.4816 17.0044 32.22 14.5187 30.556 13.0757ZM20.2554 6.79028L27.9081 13.4267L25.028 17.4969L16.2786 14.0678L15.9891 11.2724L15.6306 6.77361H20.2107L20.2554 6.79028ZM15.7267 2.66973C16.1274 2.99413 16.7715 3.6787 16.9239 4.77361H15.2475C15.0883 3.92266 14.9545 3.24694 14.8507 2.72247C14.8087 2.50665 14.7677 2.29962 14.7316 2.11309C15.0441 2.21758 15.3907 2.39825 15.7267 2.66973ZM2 15.2644C2 15.0713 2.07092 14.916 2.13672 14.8535L6.39313 10.8127L10.5553 6.77361H13.5125L13.9973 11.4554L14.2932 15.1686C14.2987 15.238 14.2951 15.3072 14.2825 15.3745L13.942 17.1897L11.8245 25.1228C11.7949 25.2338 11.7491 25.2998 11.7205 25.33H11.5286C11.4543 25.3216 11.3818 25.3075 11.3053 25.3075H2V15.2644ZM9.31152 29.4447H3.99384C2.89441 29.4447 2 28.5503 2 27.4509V27.33H11.3053V27.4509C11.3053 28.5503 10.4109 29.4447 9.31152 29.4447ZM19.0402 25.282H13.852L15.8938 17.6327L16.1677 16.1725L24.3566 19.3819V19.9656C24.3566 22.8973 21.9718 25.282 19.0402 25.282ZM29.5582 17.5571C29.1471 18.1015 28.4941 18.4266 27.8115 18.4266C27.5385 18.4266 27.2704 18.3757 27.0145 18.2754L26.9457 18.2485L29.4125 14.7624C30.1187 15.5287 30.1992 16.7081 29.5582 17.5571Z" fill="#7D7F82"/>
<path d="M18.994 11.3202C19.5651 11.3202 20.0281 10.8573 20.0281 10.2861C20.0281 9.715 19.5651 9.25201 18.994 9.25201C18.4228 9.25201 17.9598 9.715 17.9598 10.2861C17.9598 10.8573 18.4228 11.3202 18.994 11.3202Z" fill="#7D7F82"/>
</svg>
