<svg width="32" height="32" viewBox="0 0 32 32" fill="none" xmlns="http://www.w3.org/2000/svg">
<g clip-path="url(#clip0_5534_20819)">
<path d="M11.96 24.71H8.42002C8.28443 24.6919 8.14648 24.7053 8.0169 24.7491C7.88732 24.793 7.76959 24.8661 7.67286 24.9628C7.57613 25.0596 7.503 25.1773 7.45915 25.3069C7.4153 25.4365 7.40191 25.5744 7.42002 25.71V31.26C7.40987 31.3961 7.4277 31.5329 7.47242 31.6619C7.51713 31.7909 7.58779 31.9094 7.68002 32.01C7.77708 32.0985 7.89062 32.167 8.01416 32.2116C8.1377 32.2562 8.26882 32.2761 8.40002 32.27C9.05002 32.27 9.40002 31.93 9.40002 31.27V29.21H11.76C11.8631 29.2265 11.9687 29.2187 12.0682 29.1871C12.1678 29.1556 12.2586 29.1012 12.3334 29.0284C12.4082 28.9555 12.4649 28.8662 12.4991 28.7675C12.5332 28.6688 12.5438 28.5635 12.53 28.46C12.5421 28.3572 12.5302 28.2531 12.4953 28.1558C12.4604 28.0584 12.4034 27.9704 12.3289 27.8987C12.2543 27.827 12.1641 27.7736 12.0654 27.7426C11.9667 27.7116 11.8622 27.7038 11.76 27.72H9.40002V26.21H11.96C12.0633 26.2251 12.1687 26.2159 12.2679 26.183C12.367 26.1502 12.457 26.0947 12.5309 26.0208C12.6047 25.947 12.6602 25.8569 12.6931 25.7578C12.7259 25.6587 12.7352 25.5533 12.72 25.45C12.7317 25.3482 12.72 25.2451 12.6856 25.1486C12.6513 25.0521 12.5952 24.9647 12.5218 24.8933C12.4484 24.8218 12.3596 24.7681 12.2622 24.7364C12.1648 24.7046 12.0614 24.6956 11.96 24.71Z" fill="#7D7F82"/>
<path d="M15.37 24.61C15.2388 24.6039 15.1077 24.6238 14.9842 24.6684C14.8606 24.713 14.7471 24.7815 14.65 24.87C14.5591 24.9695 14.4891 25.0863 14.4444 25.2134C14.3998 25.3406 14.3812 25.4755 14.39 25.61V31.28C14.3812 31.4145 14.3998 31.5494 14.4444 31.6765C14.4891 31.8037 14.5591 31.9205 14.65 32.02C14.7471 32.1085 14.8606 32.177 14.9842 32.2216C15.1077 32.2662 15.2388 32.2861 15.37 32.28C15.5012 32.2861 15.6323 32.2662 15.7559 32.2216C15.8794 32.177 15.993 32.1085 16.09 32.02C16.1792 31.9197 16.2473 31.8025 16.2903 31.6754C16.3332 31.5483 16.3501 31.4138 16.34 31.28V25.61C16.3501 25.4762 16.3332 25.3417 16.2903 25.2146C16.2473 25.0874 16.1792 24.9703 16.09 24.87C15.993 24.7815 15.8794 24.713 15.7559 24.6684C15.6323 24.6238 15.5012 24.6039 15.37 24.61Z" fill="#7D7F82"/>
<path d="M22.81 27.72H20.44V26.21H23.04C23.1433 26.2251 23.2487 26.2159 23.3479 26.1831C23.447 26.1502 23.537 26.0947 23.6109 26.0209C23.6847 25.947 23.7402 25.857 23.7731 25.7579C23.8059 25.6587 23.8151 25.5533 23.8 25.45C23.8139 25.3478 23.8036 25.2438 23.7699 25.1463C23.7363 25.0488 23.6803 24.9605 23.6064 24.8886C23.5325 24.8166 23.4428 24.763 23.3444 24.732C23.2461 24.701 23.1418 24.6934 23.04 24.71H19.51C19.3744 24.6919 19.2365 24.7053 19.1069 24.7491C18.9773 24.793 18.8596 24.8661 18.7629 24.9628C18.6661 25.0596 18.593 25.1773 18.5491 25.3069C18.5053 25.4365 18.4919 25.5744 18.51 25.71V31.26C18.4999 31.3962 18.5177 31.5329 18.5624 31.6619C18.6071 31.7909 18.6778 31.9094 18.77 32.01C18.8683 32.0997 18.9835 32.169 19.1088 32.2136C19.2342 32.2582 19.3672 32.2774 19.5 32.27C20.14 32.27 20.5 31.93 20.5 31.27V29.21H22.87C22.9724 29.2248 23.0768 29.2156 23.175 29.1833C23.2733 29.151 23.3627 29.0964 23.4363 29.0238C23.5099 28.9511 23.5657 28.8624 23.5993 28.7646C23.6329 28.6668 23.6434 28.5625 23.63 28.46C23.6469 28.3517 23.6366 28.2409 23.5999 28.1376C23.5633 28.0343 23.5015 27.9418 23.4201 27.8683C23.3387 27.7949 23.2403 27.7429 23.1338 27.717C23.0273 27.6911 22.916 27.6921 22.81 27.72Z" fill="#7D7F82"/>
<path d="M29.23 25.44C29.1353 25.1985 28.9762 24.9875 28.77 24.83C28.5797 24.7059 28.3573 24.6398 28.13 24.64C27.8994 24.6385 27.6735 24.7045 27.48 24.83C27.2769 24.9906 27.1185 25.2006 27.02 25.44L24.38 31.12C24.3013 31.2478 24.2596 31.3949 24.2596 31.545C24.2596 31.6951 24.3013 31.8422 24.38 31.97C24.4615 32.0854 24.5717 32.1775 24.6998 32.2371C24.8278 32.2968 24.9693 32.3219 25.11 32.31C25.3335 32.3289 25.5556 32.2609 25.73 32.12C25.8957 31.938 26.0277 31.7281 26.12 31.5L26.46 30.7H29.8L30.14 31.5C30.2239 31.7347 30.3608 31.9468 30.54 32.12C30.7307 32.2593 30.9645 32.3266 31.2 32.31C31.3338 32.3199 31.4679 32.2946 31.5889 32.2367C31.7099 32.1788 31.8137 32.0904 31.89 31.98C31.9686 31.8503 32.0101 31.7016 32.0101 31.55C32.0101 31.3984 31.9686 31.2497 31.89 31.12L29.23 25.44ZM27.09 29.2L28.09 26.78L29.09 29.2H27.09Z" fill="#7D7F82"/>
<path d="M27.29 5.67001C24.2902 2.67476 20.2242 0.992401 15.985 0.992401C11.7458 0.992401 7.67989 2.67476 4.68002 5.67001C1.75413 8.59036 0.0823687 12.5366 0.0200195 16.67C0.0200195 16.67 0.0200195 16.85 0.0200195 16.94C0.0200195 21.21 0.770024 24.46 3.79002 27.48C3.97628 27.6648 4.22768 27.7689 4.49002 27.77C4.62163 27.7708 4.75209 27.7455 4.87393 27.6958C4.99577 27.646 5.10658 27.5727 5.20002 27.48C5.29375 27.387 5.36815 27.2764 5.41891 27.1546C5.46968 27.0327 5.49582 26.902 5.49582 26.77C5.49582 26.638 5.46968 26.5073 5.41891 26.3854C5.36815 26.2636 5.29375 26.153 5.20002 26.06C2.63002 23.5 2.12002 20.88 2.04002 17.27L5.42002 14.72L10.08 16.31L11.91 21.93C11.9403 22.0306 11.9877 22.1253 12.05 22.21L12.27 22.43C12.3458 22.4779 12.4262 22.5181 12.51 22.55C12.6103 22.582 12.7148 22.5988 12.82 22.6H19.23C19.3976 22.5922 19.5614 22.5478 19.71 22.47C19.9375 22.3489 20.1094 22.1447 20.19 21.9L22 16.29L25.47 15.11L27.16 14.54L29.96 17.06C29.9609 18.2018 29.8266 19.3398 29.56 20.45C29.4966 20.7073 29.5378 20.9792 29.6747 21.206C29.8116 21.4329 30.0329 21.5962 30.29 21.66C30.5473 21.7234 30.8192 21.6822 31.0461 21.5453C31.2729 21.4085 31.4362 21.1871 31.5 20.93C32.1497 18.2381 32.1042 15.4252 31.3677 12.7558C30.6313 10.0863 29.2281 7.64799 27.29 5.67001ZM17.96 3.14999L16.02 4.79999L13.96 3.16C15.2862 2.96768 16.6329 2.96431 17.96 3.14999ZM2.20002 14.67C2.38558 13.4919 2.72166 12.3425 3.20002 11.25L3.99002 13.3L2.20002 14.67ZM10.69 14.45L5.99002 12.85L4.51003 9C4.9783 8.31439 5.51069 7.67484 6.10002 7.09C7.61204 5.57699 9.45328 4.43391 11.48 3.75L15.04 6.58002V11.29L10.69 14.45ZM18.52 20.66H13.52L11.99 15.94L15.99 13.03L19.99 15.94L18.52 20.66ZM26.58 12.66L25.48 13.04L21.4 14.44L18.96 12.64L17.09 11.29V6.56L20.37 3.76001C20.37 3.76001 20.37 3.75999 20.37 3.70999C22.4508 4.38555 24.3423 5.54376 25.89 7.09C26.4992 7.70558 27.0514 8.37497 27.54 9.09L26.58 12.66ZM28.58 13.1L28.97 11.63C29.3031 12.4447 29.5609 13.2882 29.74 14.15L28.58 13.1Z" fill="#7D7F82"/>
</g>
<defs>
<clipPath id="clip0_5534_20819">
<rect width="32" height="32" fill="white"/>
</clipPath>
</defs>
</svg>
