<svg width="32" height="32" viewBox="0 0 32 32" fill="none" xmlns="http://www.w3.org/2000/svg">
<g clip-path="url(#clip0_5534_20732)">
<path d="M13.7257 6.54037C13.7835 5.60994 14.3089 5 15.1977 5C15.9975 5 16.747 5.43113 16.9283 6.28978C16.9636 6.45508 16.9232 6.63488 16.8824 6.81675C16.8574 6.92808 16.8322 7.04018 16.8241 7.15022C16.8149 7.27971 16.8308 7.41086 16.8468 7.54227C16.8538 7.60025 16.8609 7.65829 16.8658 7.71625C16.9206 7.70789 16.977 7.70335 17.0334 7.69881C17.1529 7.6892 17.2723 7.67958 17.3761 7.63388C17.4032 7.62197 17.4303 7.61001 17.4573 7.59807C18.0543 7.33415 18.6278 7.08069 19.3029 7.48843C19.4971 7.60538 19.7642 7.60655 20.0252 7.60769C20.1106 7.60806 20.1954 7.60843 20.2767 7.61286C20.4234 7.62084 20.566 7.6113 20.7085 7.60177C21.0304 7.58022 21.3524 7.55868 21.7226 7.73903C22.0714 7.90889 22.5205 7.86979 22.9899 7.82894C23.2023 7.81045 23.4188 7.7916 23.632 7.7916C23.6545 7.84061 23.6781 7.89205 23.7027 7.94562C23.7906 8.13723 23.891 8.35615 24 8.58895C23.9168 8.60528 23.8275 8.61903 23.7348 8.63331C23.5117 8.66766 23.269 8.70506 23.0436 8.78872C22.7976 8.88017 22.5664 9.0099 22.3349 9.13976C22.2234 9.20231 22.1119 9.26488 21.9986 9.32321C21.7993 9.42561 21.5992 9.52527 21.3586 9.64505C21.2388 9.70473 21.1089 9.76942 20.9641 9.84193L20.4503 9.96109C20.396 10.6358 20.0562 10.7637 19.5008 10.613C19.3532 10.5726 19.0843 10.6453 19.0043 10.7602C18.5104 11.472 17.7547 11.582 17.0205 11.6889C16.9606 11.6976 16.9009 11.7063 16.8415 11.7153C16.2851 11.7987 16.0267 12.0129 15.9805 12.5862C15.9583 12.8626 15.7965 13.142 15.649 13.3906C15.3495 13.8957 15.5016 14.1914 15.9042 14.6015C16.3685 15.0743 16.766 15.614 17.1632 16.1531C17.2936 16.3301 17.424 16.5071 17.5567 16.6816C17.6144 16.7579 17.6427 16.9252 17.6 17.0005C17.2961 17.5317 17.6046 17.8942 17.9299 18.2342C19.0059 19.3598 19.1509 20.8058 19.2936 22.2276C19.3041 22.3325 19.3146 22.4372 19.3254 22.5417C19.4197 23.4497 19.5314 24.3056 20.0389 25.0862C20.1757 25.297 20.3008 25.7232 20.1986 25.8362C20.0413 26.0112 19.6798 26.0083 19.4105 25.9939C18.4498 25.9428 17.8284 25.2309 17.6782 24.2888C17.5282 23.3531 17.3038 22.429 17.0795 21.5051C16.9875 21.1259 16.8954 20.7468 16.8085 20.3669C16.7925 20.2969 16.754 20.2245 16.7078 20.1689C16.5112 19.9337 16.3159 19.6975 16.1206 19.4613C15.5848 18.8134 15.0491 18.1656 14.4877 17.5403C14.0425 17.0441 13.7932 17.1179 13.5417 17.7558C12.9009 19.3789 12.2612 21.0033 11.6445 22.6363C11.4374 23.1863 11.0975 23.4408 10.5127 23.3986C10.2079 23.3771 9.88598 23.399 9.96419 23.8683L9.96649 23.8822C10.0378 24.3154 10.1083 24.7437 9.5042 24.8724C8.9594 24.989 8.434 24.7082 8.21449 24.1609C7.72924 22.9541 8.0643 21.8459 9.25077 21.1029C9.77512 20.7737 10.0128 20.3654 10.1603 19.7939C10.2998 19.2528 10.4594 18.7168 10.6188 18.1809C10.8261 17.4843 11.0334 16.7879 11.1966 16.0805C11.2708 15.7592 11.2428 15.4158 11.2146 15.0707C11.1972 14.8579 11.1798 14.6444 11.1862 14.435C11.2013 13.9191 11.2504 13.4008 11.3251 12.8894C11.4127 12.2873 11.5103 11.6869 11.6079 11.0864C11.6835 10.621 11.7592 10.1556 11.8302 9.68946C11.9427 8.9513 12.4235 8.46021 12.8971 7.97639C13.0032 7.86801 13.109 7.76 13.2102 7.64965C13.5212 7.3096 13.6973 7.00066 13.7257 6.54037Z" fill="#7D7F82"/>
<path fill-rule="evenodd" clip-rule="evenodd" d="M32 16C32 24.8366 24.8366 32 16 32C7.16344 32 0 24.8366 0 16C0 7.16344 7.16344 0 16 0C24.8366 0 32 7.16344 32 16ZM30 16C30 23.732 23.732 30 16 30C8.26801 30 2 23.732 2 16C2 8.26801 8.26801 2 16 2C23.732 2 30 8.26801 30 16Z" fill="#7D7F82"/>
</g>
<defs>
<clipPath id="clip0_5534_20732">
<rect width="32" height="32" fill="white"/>
</clipPath>
</defs>
</svg>
