<svg width="32" height="32" viewBox="0 0 32 32" fill="none" xmlns="http://www.w3.org/2000/svg">
<path d="M13.0001 6C13.0001 5.44772 13.4479 5 14.0001 5H18.0002C18.5524 5 19.0002 5.44772 19.0002 6C19.0002 6.55228 18.5524 7 18.0002 7H14.0001C13.4479 7 13.0001 6.55228 13.0001 6Z" fill="#7D7F82"/>
<path d="M11.0001 15C11.0001 16.6569 9.65698 18 8.00012 18C6.34327 18 5.00012 16.6569 5.00012 15C5.00012 13.3431 6.34327 12 8.00012 12C9.65698 12 11.0001 13.3431 11.0001 15Z" fill="#7D7F82"/>
<path d="M25.0001 13C25.0001 13.5523 24.5524 14 24.0001 14C23.4478 14 23.0001 13.5523 23.0001 13C23.0001 12.4477 23.4478 12 24.0001 12C24.5524 12 25.0001 12.4477 25.0001 13Z" fill="#7D7F82"/>
<path d="M25.0001 17C25.0001 17.5523 24.5524 18 24.0001 18C23.4478 18 23.0001 17.5523 23.0001 17C23.0001 16.4477 23.4478 16 24.0001 16C24.5524 16 25.0001 16.4477 25.0001 17Z" fill="#7D7F82"/>
<path d="M27.0001 15C27.0001 15.5523 26.5524 16 26.0001 16C25.4478 16 25.0001 15.5523 25.0001 15C25.0001 14.4477 25.4478 14 26.0001 14C26.5524 14 27.0001 14.4477 27.0001 15Z" fill="#7D7F82"/>
<path d="M23.0001 15C23.0001 15.5523 22.5524 16 22.0001 16C21.4478 16 21.0001 15.5523 21.0001 15C21.0001 14.4477 21.4478 14 22.0001 14C22.5524 14 23.0001 14.4477 23.0001 15Z" fill="#7D7F82"/>
<path fill-rule="evenodd" clip-rule="evenodd" d="M11.6093 7.9468C11.1662 5.73131 8.68283 4.601 6.72116 5.72196L4.32845 7.08922C2.90938 7.90012 1.94417 9.32077 1.71303 10.9388L0.27915 20.9759C0.0679039 22.4547 0.493141 23.9536 1.44941 25.1012C3.74955 27.8613 8.07539 27.5664 9.97964 24.5196L10.4163 23.821C11.1243 22.6882 12.3659 22 13.7018 22H18.2985C19.6344 22 20.876 22.6882 21.584 23.821L22.0207 24.5196C23.9249 27.5664 28.2507 27.8613 30.5509 25.1012C31.5072 23.9536 31.9324 22.4547 31.7212 20.9759L30.2873 10.9388C30.0561 9.32077 29.0909 7.90012 27.6718 7.08922L25.2791 5.72196C23.3175 4.601 20.8341 5.73131 20.391 7.9468C20.2685 8.55919 19.7308 9 19.1063 9H12.894C12.2695 9 11.7318 8.55919 11.6093 7.9468ZM19.1063 11H12.894C11.3161 11 9.9576 9.88627 9.64815 8.33903C9.47277 7.46215 8.48986 7.01477 7.71344 7.45845L5.32073 8.8257C4.43752 9.3304 3.83679 10.2146 3.69293 11.2216L2.25905 21.2588C2.12785 22.1772 2.39195 23.1081 2.98585 23.8208C4.41438 25.535 7.10099 25.3519 8.28364 23.4596L8.72029 22.761C9.79377 21.0434 11.6763 20 13.7018 20H18.2985C20.324 20 22.2065 21.0434 23.28 22.761L23.7167 23.4596C24.8993 25.3519 27.5859 25.535 29.0145 23.8208C29.6084 23.1081 29.8724 22.1772 29.7413 21.2588L28.3074 11.2216C28.1635 10.2146 27.5628 9.3304 26.6796 8.8257L24.2869 7.45845C23.5104 7.01477 22.5275 7.46215 22.3521 8.33903C22.0427 9.88627 20.6842 11 19.1063 11Z" fill="#7D7F82"/>
</svg>
