<svg width="32" height="32" viewBox="0 0 32 32" fill="none" xmlns="http://www.w3.org/2000/svg">
<path d="M29.5187 22.07H27.1606V19.78C27.1606 19.19 26.8684 18.9 26.294 18.9C25.7196 18.9 25.4274 19.19 25.4274 19.78V22.07H23.0693C22.4949 22.07 22.2128 22.35 22.2128 22.9C22.2128 23.45 22.4949 23.73 23.0693 23.73H25.4274V26.11C25.4274 26.7 25.7196 26.99 26.294 26.99C26.8684 26.99 27.1606 26.7 27.1606 26.11V23.73H29.5187C30.093 23.73 30.3752 23.45 30.3752 22.9C30.3752 22.35 30.093 22.07 29.5187 22.07Z" fill="#7D7F82"/>
<path d="M13.8791 7H17.9099C18.4642 7 18.9176 6.55 18.9176 6C18.9176 5.45 18.4642 5 17.9099 5H13.8791C13.3249 5 12.8714 5.45 12.8714 6C12.8714 6.55 13.3249 7 13.8791 7Z" fill="#7D7F82"/>
<path d="M7.83285 18C9.50247 18 10.856 16.6569 10.856 15C10.856 13.3431 9.50247 12 7.83285 12C6.16323 12 4.80973 13.3431 4.80973 15C4.80973 16.6569 6.16323 18 7.83285 18Z" fill="#7D7F82"/>
<path d="M23.9562 14C24.5127 14 24.9639 13.5523 24.9639 13C24.9639 12.4477 24.5127 12 23.9562 12C23.3996 12 22.9485 12.4477 22.9485 13C22.9485 13.5523 23.3996 14 23.9562 14Z" fill="#7D7F82"/>
<path d="M25.9716 16C26.5281 16 26.9793 15.5523 26.9793 15C26.9793 14.4477 26.5281 14 25.9716 14C25.415 14 24.9639 14.4477 24.9639 15C24.9639 15.5523 25.415 16 25.9716 16Z" fill="#7D7F82"/>
<path d="M21.9407 16C22.4973 16 22.9485 15.5523 22.9485 15C22.9485 14.4477 22.4973 14 21.9407 14C21.3842 14 20.933 14.4477 20.933 15C20.933 15.5523 21.3842 16 21.9407 16Z" fill="#7D7F82"/>
<path d="M30.2946 10.94C30.0628 9.32001 29.0854 7.90001 27.6544 7.09001L25.246 5.72001C23.2709 4.60001 20.7617 5.72001 20.3183 7.94001C20.1974 8.55001 19.6532 8.99001 19.0284 8.99001H12.7706C12.1458 8.99001 11.6016 8.55001 11.4807 7.94001C11.0273 5.73001 8.52814 4.60001 6.55304 5.72001L4.14462 7.09001C2.71368 7.90001 1.74628 9.32001 1.50443 10.94L0.0533321 20.98C-0.158286 22.46 0.264951 23.96 1.23235 25.11C3.55007 27.87 7.91344 27.58 9.82808 24.53L10.2715 23.83C10.9869 22.7 12.2365 22.01 13.5868 22.01C13.5868 22.01 18.6556 22.01 18.6657 22.01C19.2199 22.01 19.6734 21.56 19.6734 21.01C19.6734 20.46 19.2501 20.05 18.7261 20.02H13.5868C11.5412 20.01 9.6467 21.05 8.56845 22.77L8.12506 23.47C6.93597 25.36 4.22524 25.55 2.78422 23.83C2.18967 23.12 1.91759 22.19 2.04859 21.27L3.49969 11.22C3.64077 10.21 4.24539 9.33001 5.14225 8.82001L7.55067 7.45001C8.33668 7.01001 9.32423 7.45001 9.49554 8.33001C9.80793 9.88001 11.1784 10.99 12.7706 10.99H19.0284C20.6206 10.99 21.9911 9.88001 22.3035 8.33001C22.4849 7.45001 23.4724 7.01001 24.2484 7.45001L26.6568 8.82001C27.5436 9.32001 28.1482 10.21 28.2993 11.22L29.0249 16.16C29.1156 16.62 29.5086 16.98 29.9923 16.98C30.5465 16.98 31 16.53 31 15.98C31 15.95 30.2845 10.94 30.2845 10.94H30.2946Z" fill="#7D7F82"/>
</svg>
