<svg width="32" height="32" viewBox="0 0 32 32" fill="none" xmlns="http://www.w3.org/2000/svg">
<g clip-path="url(#clip0_5534_20717)">
<path fill-rule="evenodd" clip-rule="evenodd" d="M19.3949 10.2623L22.7127 12.6794C24.4993 13.9811 27.0323 12.9692 27.4302 10.7948L27.8433 8.53741C28.0673 7.31366 27.5127 6.07865 26.4493 5.433L24.9622 4.53013C24.2106 4.07383 23.2968 3.97019 22.4621 4.2466L20.2184 4.98966C17.9005 5.75725 17.4215 8.82449 19.3949 10.2623ZM23.8904 11.063L20.5727 8.64579C19.9149 8.16653 20.0745 7.14412 20.8471 6.88825L23.0909 6.14519C23.3691 6.05306 23.6737 6.08761 23.9242 6.2397L25.4113 7.14258C25.7658 7.35779 25.9507 7.76946 25.876 8.17738L25.4629 10.4348C25.3302 11.1596 24.4859 11.4969 23.8904 11.063Z" fill="#7D7F82"/>
<path fill-rule="evenodd" clip-rule="evenodd" d="M8.16838 6.27811L8.65788 6.16156C9.51478 5.95754 10.418 6.14041 11.1281 6.66168L25.5384 17.2406C26.6698 18.0713 27.0741 19.5754 26.5115 20.8614L25.4873 23.2024C25.0096 24.2944 23.9307 25 22.7388 25H20.3046C19.4504 25 18.6368 24.6359 18.0676 23.999L6.62627 11.1955C5.11228 9.50129 5.95803 6.80438 8.16838 6.27811ZM8.63162 8.22372L9.12112 8.10717C9.40675 8.03916 9.70784 8.10012 9.94452 8.27388L24.3548 18.8528C24.732 19.1297 24.8667 19.6311 24.6792 20.0598L23.655 22.4008C23.4957 22.7648 23.1361 23 22.7388 23H20.3046C20.0199 23 19.7487 22.8786 19.5589 22.6663L8.11758 9.86286C7.61292 9.29811 7.89483 8.39914 8.63162 8.22372Z" fill="#7D7F82"/>
<path fill-rule="evenodd" clip-rule="evenodd" d="M12.5895 21.0888L9.98265 18.132C8.37048 16.3033 5.36601 17.0592 4.81109 19.433L4.19832 22.0543C3.93171 23.1948 4.35322 24.3862 5.27774 25.1053L6.7049 26.2153C7.56932 26.8876 8.73141 27.0355 9.73668 26.6011L11.5291 25.8266C13.4007 25.0179 13.9378 22.6181 12.5895 21.0888ZM11.0893 22.4114L8.48244 19.4546C7.94505 18.8451 6.94356 19.097 6.75859 19.8883L6.14582 22.5096C6.05695 22.8898 6.19745 23.2869 6.50562 23.5266L7.93278 24.6366C8.22092 24.8607 8.60828 24.91 8.94337 24.7652L10.7358 23.9907C11.3597 23.7211 11.5387 22.9212 11.0893 22.4114Z" fill="#7D7F82"/>
<path fill-rule="evenodd" clip-rule="evenodd" d="M32 8.18133V16L31.0155 23.876C31.0052 23.9583 31.0052 24.0417 31.0155 24.124L31.8595 30.876C31.9341 31.4728 31.4687 32 30.8672 32H24.1813C24.0614 32 23.9425 31.9784 23.8302 31.9363L20.3511 30.6317C20.1247 30.5468 19.8753 30.5468 19.6489 30.6317L16.2307 31.9135C16.0792 31.9703 15.9161 31.9895 15.7555 31.9694L8.12403 31.0155C8.04167 31.0052 7.95833 31.0052 7.87597 31.0155L1.12403 31.8595C0.527181 31.9341 0 31.4687 0 30.8672V16.1813C0 16.0614 0.0215669 15.9425 0.0636708 15.8302L1.36833 12.3511C1.45322 12.1247 1.45322 11.8753 1.36833 11.6489L0.0636708 8.16979C0.0215669 8.05751 0 7.93858 0 7.81867V1.38743C0 0.704868 0.668697 0.222899 1.31623 0.438743L4.13931 1.37977C4.37166 1.45722 4.62435 1.44671 4.84946 1.35023L7.81134 0.080855C7.93582 0.0275078 8.06983 0 8.20526 0H30.557C31.2552 0 31.7385 0.697372 31.4933 1.35112L30.6317 3.64888C30.5468 3.87526 30.5468 4.12474 30.6317 4.35112L31.9363 7.83021C31.9784 7.94249 32 8.06142 32 8.18133ZM28.759 5.05337L30 8.36267V15.8755L29.0309 23.6279C29.0001 23.875 29.0001 24.125 29.0309 24.3721L29.7344 30H24.3627L21.0534 28.759C20.3742 28.5043 19.6258 28.5043 18.9466 28.759L15.7591 29.9543L8.3721 29.0309C8.125 29.0001 7.875 29.0001 7.6279 29.0309L2 29.7344V16.3627L3.24099 13.0534C3.49567 12.3742 3.49567 11.6258 3.24099 10.9466L2 7.63733V2.77485L3.50686 3.27714C4.20389 3.50948 4.96196 3.47795 5.6373 3.18852L8.41052 2H29.114L28.759 2.94663C28.5043 3.62579 28.5043 4.37422 28.759 5.05337Z" fill="#7D7F82"/>
</g>
<defs>
<clipPath id="clip0_5534_20717">
<rect width="32" height="32" fill="white"/>
</clipPath>
</defs>
</svg>
