<svg width="32" height="32" viewBox="0 0 32 32" fill="none" xmlns="http://www.w3.org/2000/svg">
<g clip-path="url(#clip0_5534_20893)">
<path d="M29.6325 21.8379C29.9381 21.8379 30.1668 21.7609 30.3221 21.6106C30.4824 21.4553 30.5644 21.2218 30.5644 20.9062C30.5644 20.5093 30.4169 20.2562 30.149 20.1201C30.009 20.0488 29.8459 20 29.6325 20H25.2425C24.4142 20 24 20.4102 24 21.2295V27.8965C24 27.9386 24.0138 27.967 24.016 28.007C24.0564 28.7443 24.4567 29.126 25.2425 29.126H29.6325C30.2538 29.126 30.5644 28.8193 30.5644 28.207C30.5644 27.5947 30.2538 27.2881 29.6325 27.2881H26.279V25.4111H29.3473C29.9685 25.4111 30.2792 25.1045 30.2792 24.4922C30.2792 24.1503 30.1723 23.9139 29.9793 23.7626C29.826 23.6425 29.6222 23.5723 29.3473 23.5723H26.279V21.8379H29.6325Z" fill="#7D7F82"/>
<path d="M20.3843 24.51C20.2261 24.51 19.9691 24.56 19.7813 24.6L7.26599 11.94C7.73061 10.05 8.76861 8.23001 10.5876 6.39001C15.5996 1.32001 22.9546 0.520013 27.0077 4.62001C29.8548 7.50001 30.2997 12.01 28.5894 16.21C28.5894 16.21 28.5894 16.22 28.5894 16.23V16.25C28.5499 16.36 28.5202 16.48 28.5202 16.6C28.5202 17.15 28.9651 17.6 29.5088 17.6C29.8943 17.6 30.2107 17.37 30.3787 17.05C30.3787 17.05 30.3787 17.04 30.3787 17.03C30.3985 16.99 30.4084 16.96 30.4183 16.92C32.3658 12.13 31.9605 6.79001 28.4115 3.20001C26.2169 0.990013 23.3599 -0.0099868 20.3843 1.3198e-05H20.1767C16.3114 0.0800132 12.2583 1.87001 9.18381 4.98001C6.85079 7.34001 5.57553 9.79001 5.14056 12.46C4.71548 15.07 5.14056 17.7 5.89188 20.34C5.89188 20.36 5.89188 20.38 5.89188 20.4L1.18628 25.17C-0.355885 26.73 -0.355885 29.26 1.18628 30.83C2.72845 32.39 5.22953 32.39 6.78159 30.83L11.5465 26.01C11.5465 26.01 11.5761 26.01 11.6058 26.01C14.1959 26.75 16.776 27.16 19.3364 26.73C19.7318 26.66 20.1174 26.58 20.5029 26.46C20.7995 26.37 21.3234 26.19 21.3037 25.48C21.2938 24.95 20.8984 24.5 20.3942 24.5L20.3843 24.51ZM9.38153 16.9L7.5329 18.77C7.15724 17.26 6.94964 15.83 6.95953 14.46L9.38153 16.91V16.9ZM10.2119 24.54C10.2119 24.54 10.1724 24.58 10.1427 24.6L5.3877 29.41C4.61662 30.19 3.36114 30.19 2.59005 29.41C1.81897 28.63 1.81897 27.36 2.59005 26.58L10.7754 18.3L13.5632 21.12L10.202 24.52L10.2119 24.54ZM13.1776 24.37L14.9768 22.55L17.3099 24.91C15.9852 24.92 14.6209 24.72 13.1776 24.36V24.37Z" fill="#7D7F82"/>
<path d="M2.96571 6.00001C4.60362 6.00001 5.93142 4.65687 5.93142 3.00001C5.93142 1.34316 4.60362 1.3198e-05 2.96571 1.3198e-05C1.32779 1.3198e-05 0 1.34316 0 3.00001C0 4.65687 1.32779 6.00001 2.96571 6.00001Z" fill="#7D7F82"/>
</g>
<defs>
<clipPath id="clip0_5534_20893">
<rect width="32" height="32" fill="white"/>
</clipPath>
</defs>
</svg>
