<svg width="32" height="32" viewBox="0 0 32 32" fill="none" xmlns="http://www.w3.org/2000/svg">
<g clip-path="url(#clip0_5534_20910)">
<path d="M31.99 15.56C31.88 11.61 30.32 7.69999 27.31 4.67999C23.79 1.15999 19.04 -0.370014 14.44 0.0799858C10.88 0.429986 7.40999 1.95999 4.68999 4.68999C1.96999 7.41999 0.419987 10.88 0.0799865 14.44C0.0499865 14.7 0.0399865 14.97 0.0199865 15.23C-1.34893e-05 15.63 -1.34883e-05 16.03 0.00998651 16.44C0.119987 20.39 1.67999 24.3 4.68999 27.32C7.69999 30.34 11.62 31.93 15.57 32C16.46 32.02 17.24 31.89 17.24 31.89C17.74 31.83 18.13 31.43 18.13 30.91C18.13 30.36 17.68 29.91 17.13 29.91C17.03 29.91 16.29 30 16.04 30C12.45 30 8.84999 28.64 6.10999 25.9C3.36999 23.16 1.99999 19.56 2.00999 15.97C2.00999 15.57 2.02999 15.18 2.06999 14.78C2.03999 15.17 2.00999 15.57 2.00999 15.97C9.49999 15.48 15.48 9.48999 15.98 1.99999C19.57 1.99999 23.17 3.35999 25.91 6.09999C28.65 8.83999 30.02 12.44 30.01 16.03C27.28 16.21 24.76 17.12 22.62 18.57C22.55 18.61 22.52 18.65 22.48 18.69C22.27 18.87 22.13 19.13 22.13 19.43C22.13 19.98 22.58 20.43 23.13 20.43C23.31 20.43 23.52 20.35 23.64 20.29C25.55 19.24 27.56 18.25 29.85 18.05C29.76 18.69 29.47 19.65 29.44 20.06C29.4 20.61 29.89 21.06 30.44 21.06C30.91 21.06 31.27 20.73 31.39 20.29C31.6 19.58 31.83 18.48 31.92 17.56C31.98 16.91 32.01 16.26 31.99 15.61V15.56ZM2.16999 13.95C2.14999 14.11 2.11999 14.27 2.09999 14.43C2.11999 14.27 2.12999 14.11 2.14999 13.95C2.14999 13.95 2.15999 13.95 2.16999 13.95C2.58999 11.08 3.88999 8.30999 6.09999 6.09999C8.30999 3.88999 11.08 2.56999 13.95 2.14999C13.4 8.40999 8.41999 13.39 2.16999 13.95Z" fill="#7D7F82"/>
<path d="M28.5316 24.7351C28.838 24.7351 29.0672 24.6581 29.223 24.5076C29.3837 24.3522 29.4659 24.1185 29.4659 23.8026C29.4659 23.4053 29.3179 23.152 29.0494 23.0157C28.909 22.9444 28.7455 22.8955 28.5316 22.8955H24.1307C23.3002 22.8955 22.885 23.306 22.885 24.1262V30.7994C22.885 30.8416 22.8988 30.87 22.901 30.91C22.9416 31.648 23.3429 32.03 24.1307 32.03H28.5316C29.1545 32.03 29.4659 31.7231 29.4659 31.1102C29.4659 30.4974 29.1545 30.1904 28.5316 30.1904H25.1697V28.3117H28.2457C28.8685 28.3117 29.1799 28.0048 29.1799 27.3919C29.1799 27.0497 29.0728 26.8131 28.8793 26.6616C28.7256 26.5414 28.5213 26.4711 28.2457 26.4711H25.1697V24.7351H28.5316Z" fill="#7D7F82"/>
</g>
<defs>
<clipPath id="clip0_5534_20910">
<rect width="32" height="32" fill="white"/>
</clipPath>
</defs>
</svg>
