<svg width="32" height="32" viewBox="0 0 32 32" fill="none" xmlns="http://www.w3.org/2000/svg">
<g clip-path="url(#clip0_5534_20773)">
<path d="M28.4605 24.7119C28.7662 24.7119 28.9948 24.6349 29.1501 24.4846C29.3105 24.3293 29.3925 24.0958 29.3925 23.7803C29.3925 23.3834 29.2449 23.1302 28.977 22.9941C28.837 22.9229 28.6739 22.874 28.4605 22.874H24.0706C23.2422 22.874 22.828 23.2842 22.828 24.1035V30.7705C22.828 30.8126 22.8418 30.8411 22.844 30.881C22.8844 31.6183 23.2848 32 24.0706 32H28.4605C29.0818 32 29.3925 31.6934 29.3925 31.0811C29.3925 30.4688 29.0818 30.1621 28.4605 30.1621H25.107V28.2852H28.1753C28.7966 28.2852 29.1072 27.9785 29.1072 27.3662C29.1072 27.0244 29.0004 26.7879 28.8073 26.6366C28.654 26.5165 28.4502 26.4463 28.1753 26.4463H25.107V24.7119H28.4605Z" fill="#7D7F82"/>
<path d="M31.7186 12.9968C31.1394 9.95221 29.6736 7.04291 27.3162 4.68628C24.8397 2.21045 21.7515 0.732056 18.5387 0.218262C17.6973 0.0836792 16.8492 0 15.9992 0C15.9325 0 15.8661 0.008667 15.7994 0.0095215C13.0103 0.0441284 10.2358 0.812805 7.76791 2.29633C6.95652 2.78406 6.18139 3.34924 5.44875 3.99359C5.1908 4.22046 4.92852 4.44 4.68217 4.68628C0.0384195 9.32867 -1.14784 16.1121 1.10886 21.8561C1.43214 22.6791 1.83674 23.4752 2.30165 24.246C2.95938 25.3364 3.74104 26.3728 4.68217 27.3137C5.73479 28.366 6.90413 29.2256 8.13997 29.9235C8.99581 30.4068 9.88505 30.8026 10.7986 31.1159C12.4824 31.6933 14.2384 32 15.9992 32C16.8234 32 17.6455 31.9193 18.4618 31.7928L18.4594 31.7766C18.9283 31.6938 19.2912 31.3032 19.2912 30.8106C19.2912 30.2584 18.8433 29.8106 18.2909 29.8106C18.2488 29.8106 18.2129 29.8295 18.1721 29.8346L18.1703 29.8228C17.4582 29.9352 16.7341 30 15.9992 30C15.2005 30 14.4154 29.92 13.6435 29.7899C15.5227 28.7632 17.1235 27.5831 18.4618 26.4024V26.3955C18.6522 26.2134 18.7734 25.9601 18.7734 25.6758C18.7734 25.1235 18.3255 24.6758 17.7731 24.6758C17.5589 24.6758 17.3712 24.7579 17.2085 24.8726L17.1922 24.8575C15.5097 26.3511 13.3734 27.8509 10.7496 28.9815C9.02933 28.2865 7.4483 27.2505 6.09683 25.8995C5.62703 25.4298 5.21266 24.9271 4.82369 24.4111C9.09929 24.2303 13.4567 21.778 16.1753 17.54L16.4235 17.1621C16.4557 17.1135 16.4885 17.062 16.5214 17.0121C16.6158 17.0103 16.7075 17 16.8025 17C20.1142 17 23.1154 18.1539 25.2852 20.0141H25.2941C25.4772 20.2178 25.7359 20.3513 26.0314 20.3513C26.5838 20.3513 27.0317 19.9036 27.0317 19.3513C27.0317 19.0549 26.8969 18.7958 26.692 18.6127L26.6925 18.6113C24.1628 16.3848 20.6676 15 16.8025 15C16.7217 15 16.6439 15.0093 16.5634 15.0104C15.4738 13.1426 14.8766 11.1412 14.7444 9.19098C17.2036 9.1366 23.8222 9.4895 29.8475 14.0652C30.1034 15.9125 30.0038 17.7995 29.5253 19.6099L29.5426 19.6144C29.5233 19.6918 29.4951 19.766 29.4951 19.8494C29.4951 20.4017 29.943 20.8494 30.4954 20.8494C30.9894 20.8494 31.3811 20.4848 31.4624 20.0141H31.4769C31.8243 18.67 32.0072 17.2929 31.9998 15.9131C31.9945 14.9362 31.9017 13.9598 31.7186 12.9968ZM3.54488 22.3914C1.02803 17.4809 1.60284 11.3897 5.2659 7.01978C5.24911 11.0223 6.09848 16.2661 9.23294 21.2294C7.40587 22.1381 5.43892 22.5453 3.54488 22.3914ZM14.8118 15.9725C14.7933 16.0004 14.7739 16.0305 14.756 16.0576L14.4903 16.4609C13.5135 17.9836 12.2921 19.2319 10.9428 20.1952C7.29194 14.4671 7.03918 8.58405 7.36649 4.98828C9.37483 3.40863 11.7521 2.42236 14.2885 2.11493C12.0925 6.06384 12.1544 11.3824 14.8118 15.9725ZM14.7743 7.1889C14.9636 5.27692 15.6132 3.49243 16.7048 2.03436C20.1793 2.2063 23.4243 3.6239 25.9016 6.10046C27.3814 7.5799 28.4459 9.3147 29.1236 11.1607C23.5694 7.73541 17.7349 7.08575 14.7743 7.1889Z" fill="#7D7F82"/>
</g>
<defs>
<clipPath id="clip0_5534_20773">
<rect width="32" height="32" fill="white"/>
</clipPath>
</defs>
</svg>
