<svg width="32" height="32" viewBox="0 0 32 32" fill="none" xmlns="http://www.w3.org/2000/svg">
<g clip-path="url(#clip0_5534_20702)">
<path fill-rule="evenodd" clip-rule="evenodd" d="M0.321702 0.30449C0.712226 -0.0860342 1.34539 -0.0860334 1.73592 0.304491L16.0122 14.5807L30.2884 0.30449C30.679 -0.0860339 31.3121 -0.0860347 31.7026 0.304489C32.0932 0.695013 32.0932 1.32818 31.7026 1.7187L17.4264 15.995L20.558 19.1265C22.9012 17.4566 26.1753 17.6727 28.2775 19.775L30.3988 21.8963L28.2775 24.0176L31.1059 26.846C32.2775 28.0176 32.2775 29.9171 31.1059 31.0886C29.9343 32.2602 28.0349 32.2602 26.8633 31.0886L24.0349 28.2602L21.9135 30.3816L19.7922 28.2602C17.69 26.158 17.4738 22.8839 19.1437 20.5407L16.0122 17.4092L12.8806 20.5407C14.5505 22.8839 14.3344 26.158 12.2321 28.2602L10.1108 30.3816L7.98952 28.2603L5.16113 31.0886C3.98956 32.2602 2.09007 32.2602 0.918493 31.0886C-0.25308 29.9171 -0.253079 28.0176 0.918493 26.846L3.74688 24.0176L1.62554 21.8963L3.74686 19.775C5.84909 17.6727 9.12319 17.4566 11.4664 19.1265L14.598 15.995L0.321702 1.7187C-0.0688226 1.32818 -0.0688222 0.695014 0.321702 0.30449ZM25.4491 26.846L26.8633 25.4318L29.6917 28.2602C30.0822 28.6507 30.0822 29.2839 29.6917 29.6744C29.3012 30.065 28.668 30.065 28.2775 29.6744L25.4491 26.846ZM21.9135 27.5531L21.2064 26.846C20.9623 26.6019 20.7563 26.334 20.5884 26.0498C19.6825 24.5159 19.8885 22.5071 21.2064 21.1892C22.5244 19.8712 24.5332 19.6652 26.0671 20.5712C26.3512 20.739 26.6191 20.945 26.8633 21.1892L27.5704 21.8963L21.9135 27.5531ZM5.16109 25.4318L6.5753 26.846L3.74692 29.6744C3.3564 30.065 2.72323 30.065 2.33271 29.6744C1.94218 29.2839 1.94218 28.6507 2.33271 28.2602L5.16109 25.4318ZM4.45397 21.8963L10.1108 27.5531L10.8179 26.846C11.0621 26.6019 11.2681 26.334 11.4359 26.0498C12.3419 24.5159 12.1359 22.5071 10.8179 21.1892C9.49999 19.8712 7.49119 19.6652 5.95729 20.5712C5.67311 20.739 5.40524 20.945 5.16107 21.1892L4.45397 21.8963Z" fill="#7D7F82"/>
</g>
<defs>
<clipPath id="clip0_5534_20702">
<rect width="32" height="32" fill="white"/>
</clipPath>
</defs>
</svg>
