<svg width="32" height="32" viewBox="0 0 32 32" fill="none" xmlns="http://www.w3.org/2000/svg">
<g clip-path="url(#clip0_5534_20788)">
<path fill-rule="evenodd" clip-rule="evenodd" d="M19.6578 18.7914C19.5948 18.921 19.5435 19.0189 19.504 19.0898C19.4 19.1476 19.2154 19.2344 18.9179 19.3325C18.4751 19.4785 17.9009 19.6115 17.2089 19.7256C15.8252 19.9537 14.1411 20.0796 12.4422 20.1414C9.77631 20.2384 7.30804 20.1751 6.00851 20.1418C5.63209 20.1321 5.35372 20.125 5.19702 20.125C2.16817 20.125 0 22.3648 0 25.0737V26.77C0 27.9849 0.254877 29.4106 1.32092 30.5093C2.39535 31.6166 3.91056 32 5.5376 32C8.31314 32 11.3011 31.8282 14.0414 31.465C16.747 31.1064 19.3496 30.5439 21.276 29.7011C22.2056 29.2945 23.0693 28.7211 23.8816 27.6878C24.6403 26.7227 25.3022 25.4212 25.9928 23.6505C27.3706 20.1181 29.0745 14.1415 31.802 3.77524C32.2929 1.90964 30.9084 1.90735e-06 28.9045 0H28.2418C26.9321 0 25.7626 0.847595 25.3728 2.11755C24.8703 3.7548 23.5617 7.97588 22.2413 11.8905C21.5798 13.8513 20.9237 15.7103 20.3692 17.1221C20.0905 17.8318 19.8503 18.3955 19.6578 18.7914ZM29.8679 3.26633C24.3965 24.061 23.1681 26.6907 20.4746 27.8687C17.1345 29.33 10.9376 30 5.5376 30C2.8376 30 2 28.7208 2 26.77V25.0737C2 23.51 3.23165 22.125 5.19702 22.125C5.31063 22.125 5.53911 22.1309 5.86047 22.1393L5.86171 22.1393C8.67978 22.2125 18.6272 22.4709 20.9009 20.5496C22.0249 19.6729 26.2768 5.98839 27.2848 2.70441C27.414 2.28326 27.8013 2 28.2418 2H28.9045C29.5598 2 30.0346 2.63262 29.8679 3.26633ZM19.4379 19.2009C19.4273 19.2172 19.4219 19.2236 19.4219 19.2236C19.4219 19.2236 19.4272 19.2149 19.4379 19.2009Z" fill="#7D7F82"/>
<path fill-rule="evenodd" clip-rule="evenodd" d="M7 14C10.866 14 14 10.866 14 7C14 3.13401 10.866 0 7 0C3.13401 0 0 3.13401 0 7C0 10.866 3.13401 14 7 14ZM12 7C12 9.76142 9.76142 12 7 12C4.23858 12 2 9.76142 2 7C2 4.23858 4.23858 2 7 2C9.76142 2 12 4.23858 12 7Z" fill="#7D7F82"/>
</g>
<defs>
<clipPath id="clip0_5534_20788">
<rect width="32" height="32" fill="white"/>
</clipPath>
</defs>
</svg>
