<svg width="32" height="32" viewBox="0 0 32 32" fill="none" xmlns="http://www.w3.org/2000/svg">
<path d="M27.2425 16.4014C24.9526 15.4405 24.7582 15.3731 23.938 15.089C23.7701 15.0307 23.5694 14.9611 23.3216 14.8738C23.4201 14.5685 23.4849 14.2511 23.4849 13.9211C23.4849 13.0891 23.1607 12.3079 22.5728 11.721C21.362 10.5092 19.3885 10.5082 18.1737 11.721L17.9692 11.9255C17.6501 11.5936 17.3552 11.2474 17.1152 10.8773C16.8751 10.5062 16.653 10.0968 16.4438 9.67195C17.7506 9.30332 18.7166 8.11339 18.7166 6.69008C18.7166 4.97436 17.3212 3.57894 15.6055 3.57894H14.5265C14.4057 3.07342 14.2857 2.56814 14.1573 2.06732C14.134 1.97656 14.0847 1.90217 14.04 1.8249C13.9547 1.35917 13.5659 1 13.0754 1C7.065 1 4.0525 1.00293 2.54185 1.00488C0.46971 1.00879 0.203124 1.00976 0.0449312 1.81831L0.0263777 2.00189C0.0127067 3.49984 -0.0146354 13.4094 0.00977716 24.0562C0.00977716 24.0696 0.0168568 24.0806 0.0174061 24.0938C0.0147207 24.1238 1.21623e-05 24.1496 1.21623e-05 24.1802C1.21623e-05 24.7329 0.44725 25.1801 0.99995 25.1801C1.5247 25.1801 2.01942 25.1797 2.50114 25.1792C2.11994 25.7776 1.8915 26.4829 1.8915 27.2435C1.8915 29.3723 3.62283 31.1036 5.75161 31.1036C7.42185 31.1036 8.83375 30.0315 9.37034 28.5442H12.269C12.8056 30.0315 14.2175 31.1036 15.8877 31.1036C17.5579 31.1036 18.9703 30.0315 19.5072 28.5442H22.4052C22.9421 30.0315 24.3545 31.1036 26.0248 31.1036C28.1535 31.1036 29.8849 29.3723 29.8849 27.2435C29.8849 26.3573 29.5729 25.5499 29.069 24.8974C29.6382 24.7901 30.1568 24.6022 30.6456 24.2603C31.3672 23.7554 32 22.2926 32 21.6765C32 18.3993 29.0226 17.1484 27.2425 16.4014ZM20.3728 12.8098C20.6579 12.8098 20.9421 12.9182 21.1589 13.136C21.3688 13.3449 21.485 13.6242 21.485 13.9211C21.485 14.2179 21.3688 14.4972 21.1589 14.7072L19.1424 16.7236C18.7088 17.1552 18.0048 17.1572 17.5712 16.7236C17.1376 16.2901 17.1376 15.585 17.5712 15.1515L19.5877 13.135C19.8044 12.9182 20.0886 12.8098 20.3728 12.8098ZM16.7167 6.69008C16.7167 7.30234 16.2178 7.80134 15.6055 7.80134H12.7531C12.1409 7.80134 11.6419 7.30234 11.6419 6.69008C11.6419 6.07781 12.1409 5.57882 12.7531 5.57882H15.6055C16.2178 5.57882 16.7167 6.07781 16.7167 6.69008ZM2.00794 23.1798C2.00257 20.457 2.00038 17.7997 2.00032 15.3329C5.473 15.8909 8.23559 18.063 9.33049 21.2136C9.54782 21.8369 9.66225 22.4855 9.72628 23.1414C7.75472 23.1617 5.36858 23.1772 2.00794 23.1798ZM12.6773 25.1053C12.392 25.5325 12.1948 26.0206 12.0983 26.5443H9.54105C9.44761 26.0373 9.25658 25.5659 8.98548 25.1486C10.3735 25.136 11.5502 25.1208 12.6773 25.1053ZM22.2344 26.5443H19.6781C19.5758 25.9895 19.3568 25.4776 19.0441 25.0326C20.1607 25.0249 21.4209 25.019 22.8823 25.0158C22.5629 25.4649 22.338 25.9821 22.2344 26.5443ZM5.75161 29.1037C4.72628 29.1037 3.89137 28.2688 3.89137 27.2435C3.89137 26.2172 4.72628 25.3823 5.75161 25.3823C6.77694 25.3823 7.61184 26.2172 7.61184 27.2435C7.61184 28.2688 6.77694 29.1037 5.75161 29.1037ZM15.8877 29.1037C14.8624 29.1037 14.0275 28.2688 14.0275 27.2435C14.0275 26.2172 14.8624 25.3823 15.8877 25.3823C16.914 25.3823 17.7489 26.2172 17.7489 27.2435C17.7489 28.2688 16.914 29.1037 15.8877 29.1037ZM26.0248 29.1037C24.9985 29.1037 24.1636 28.2688 24.1636 27.2435C24.1636 26.2172 24.9985 25.3823 26.0248 25.3823C27.0501 25.3823 27.885 26.2172 27.885 27.2435C27.885 28.2688 27.0501 29.1037 26.0248 29.1037ZM29.4992 22.6217C28.9084 23.0357 28.0949 23.0455 26.4495 23.0221C26.1107 23.0182 25.7474 23.0133 25.3568 23.0133C19.2537 23.0133 16.2353 23.0553 13.3156 23.0963C12.8043 23.1034 12.2888 23.1105 11.7554 23.1175C11.685 22.2437 11.5078 21.3845 11.219 20.5564C9.84211 16.5944 6.35631 13.8763 2.0008 13.2934C2.00294 8.60439 2.01234 4.8249 2.02039 3.00671C3.24828 3.0039 6.03791 3.00018 12.3263 2.99994C12.3765 3.20183 12.4258 3.40439 12.4748 3.60708C10.8911 3.75032 9.64199 5.06963 9.64199 6.69008C9.64199 8.40579 11.0374 9.80121 12.7531 9.80121H14.3088C14.3965 10.0058 14.4757 10.214 14.5723 10.4145C14.835 10.9623 15.125 11.4837 15.4366 11.9642C15.7529 12.4527 16.1396 12.9052 16.5581 13.3366L16.1572 13.7375C14.9444 14.9503 14.9444 16.9248 16.1572 18.1376C16.7636 18.744 17.5604 19.0477 18.3573 19.0477C19.1531 19.0477 19.9499 18.744 20.5564 18.1376L22.1233 16.5707C22.6567 16.7624 23.0072 16.8835 23.2847 16.9795C24.0552 17.2461 24.2387 17.3086 26.4691 18.245C28.4699 19.0858 30.0001 19.8719 30.005 21.5983C29.962 21.8376 29.6466 22.4869 29.4992 22.6217Z" fill="#7D7F82"/>
</svg>
