<svg width="32" height="32" viewBox="0 0 32 32" fill="none" xmlns="http://www.w3.org/2000/svg">
<g clip-path="url(#clip0_5534_20750)">
<path d="M19 12C19 12.5523 19.4477 13 20 13H21.5858L17 17.5858L12.7071 13.2929C12.506 13.0918 12.2287 12.9858 11.9447 13.0015C11.6607 13.0173 11.3968 13.1532 11.2191 13.3753L7.21913 18.3753C6.87412 18.8066 6.94404 19.4359 7.37531 19.7809C7.80657 20.1259 8.43586 20.056 8.78087 19.6247L12.0829 15.4971L16.2929 19.7071C16.6834 20.0976 17.3166 20.0976 17.7071 19.7071L23 14.4142V16C23 16.5523 23.4477 17 24 17C24.5523 17 25 16.5523 25 16V12C25 11.4477 24.5523 11 24 11H20C19.4477 11 19 11.4477 19 12Z" fill="#7D7F82"/>
<path fill-rule="evenodd" clip-rule="evenodd" d="M32 16C32 24.8366 24.8366 32 16 32C7.16344 32 0 24.8366 0 16C0 7.16344 7.16344 0 16 0C24.8366 0 32 7.16344 32 16ZM30 16C30 23.732 23.732 30 16 30C8.26801 30 2 23.732 2 16C2 8.26801 8.26801 2 16 2C23.732 2 30 8.26801 30 16Z" fill="#7D7F82"/>
</g>
<defs>
<clipPath id="clip0_5534_20750">
<rect width="32" height="32" fill="white"/>
</clipPath>
</defs>
</svg>
