<svg width="32" height="32" viewBox="0 0 32 32" fill="none" xmlns="http://www.w3.org/2000/svg">
<g clip-path="url(#clip0_5534_20731)">
<path fill-rule="evenodd" clip-rule="evenodd" d="M19.4903 17.7794L25.8824 2.04823C26.4522 0.645942 27.9772 -0.112486 29.4392 0.279274C31.1648 0.74164 32.1068 2.59992 31.4596 4.26502L23.4974 24.7507C21.413 30.1136 15.6255 33.0473 10.0678 31.5581L3.68256 29.8472C0.965582 29.1192 -0.5971 26.2739 0.246314 23.5905C1.04026 21.0645 3.68365 19.6127 6.24127 20.298L11.5605 21.7233C14.8201 22.5967 18.22 20.9058 19.4903 17.7794ZM28.9216 2.21113C29.4971 2.36534 29.8113 2.98512 29.5954 3.54048L21.6333 24.0262C20.1299 27.8942 16.2848 30.2261 12.2785 29.9165L13.8819 23.9326C17.1163 23.7123 20.0626 21.6838 21.3432 18.5323L27.7353 2.80112C27.9254 2.33342 28.434 2.08046 28.9216 2.21113ZM11.8391 23.8293C11.5734 23.7841 11.3078 23.7261 11.0428 23.6551L8.84606 23.0665L8.38538 24.7858L11.3645 25.6004L11.8391 23.8293ZM6.91421 22.5489L5.72363 22.2299C4.56769 21.9201 3.38233 22.3436 2.67152 23.2234L6.45617 24.2583L6.91421 22.5489ZM2.0183 25.1182C2.03776 26.396 2.89543 27.5658 4.2002 27.9154L5.39078 28.2344L5.93853 26.1902L2.0183 25.1182ZM7.32263 28.752L10.3058 29.5514L10.8469 27.5323L7.86773 26.7177L7.32263 28.752Z" fill="#7D7F82"/>
<path d="M8.99982 10C9.55211 10 9.99982 9.5523 9.99982 9.00001C9.99982 8.44773 9.55211 8.00001 8.99982 8.00001C8.44754 8.00001 7.99982 8.44773 7.99982 9.00001C7.99982 9.5523 8.44754 10 8.99982 10Z" fill="#7D7F82"/>
<path d="M8.99982 14C9.55211 14 9.99982 13.5523 9.99982 13C9.99982 12.4477 9.55211 12 8.99982 12C8.44754 12 7.99982 12.4477 7.99982 13C7.99982 13.5523 8.44754 14 8.99982 14Z" fill="#7D7F82"/>
<path d="M6.99982 12C7.55211 12 7.99982 11.5523 7.99982 11C7.99982 10.4477 7.55211 10 6.99982 10C6.44754 10 5.99982 10.4477 5.99982 11C5.99982 11.5523 6.44754 12 6.99982 12Z" fill="#7D7F82"/>
<path d="M10.9998 12C11.5521 12 11.9998 11.5523 11.9998 11C11.9998 10.4477 11.5521 10 10.9998 10C10.4475 10 9.99982 10.4477 9.99982 11C9.99982 11.5523 10.4475 12 10.9998 12Z" fill="#7D7F82"/>
<path fill-rule="evenodd" clip-rule="evenodd" d="M14.9998 11C14.9998 14.3137 12.3135 17 8.99982 17C5.68611 17 2.99982 14.3137 2.99982 11C2.99982 7.6863 5.68611 5.00001 8.99982 5.00001C12.3135 5.00001 14.9998 7.6863 14.9998 11ZM8.99982 15C11.209 15 12.9998 13.2091 12.9998 11C12.9998 8.79087 11.209 7.00001 8.99982 7.00001C6.79068 7.00001 4.99982 8.79087 4.99982 11C4.99982 13.2091 6.79068 15 8.99982 15Z" fill="#7D7F82"/>
</g>
<defs>
<clipPath id="clip0_5534_20731">
<rect width="32" height="32" fill="white"/>
</clipPath>
</defs>
</svg>
