<svg width="32" height="32" viewBox="0 0 32 32" fill="none" xmlns="http://www.w3.org/2000/svg">
<g clip-path="url(#clip0_5534_20716)">
<path fill-rule="evenodd" clip-rule="evenodd" d="M15.4004 5.20046C15.5578 5.08203 15.7467 5.01272 15.9434 5.00124C15.9765 4.99959 16.0098 4.99959 16.043 5.00124C16.2444 5.01003 16.4384 5.07947 16.5996 5.20046C16.5996 5.20046 18.6877 6.76414 20.7656 9.23171C20.8354 9.31459 20.9053 9.39741 20.9752 9.48024C22.986 11.8636 25 14.2506 25 18.0012C25 22.9598 20.9585 27.0012 16 27.0012C11.0415 27.0012 7 22.9598 7 18.0012C7 14.2506 9.014 11.8636 11.0248 9.48024C11.0947 9.39741 11.1646 9.31459 11.2344 9.23171C13.3123 6.76414 15.4004 5.20046 15.4004 5.20046ZM16.1094 7.46968C16.0696 7.43859 16.0331 7.41012 16 7.38405C15.9669 7.41012 15.9304 7.43858 15.8906 7.46968C15.369 7.87643 14.2718 8.73215 12.7656 10.5208C12.702 10.5963 12.6385 10.6716 12.5751 10.7468C10.7236 12.9419 9 14.9854 9 18.0012C9 20.2824 10.0863 22.2951 11.7656 23.5716C11.703 23.2797 11.668 22.979 11.668 22.6692C11.668 20.8298 12.589 18.8785 13.4531 17.2688C14.3172 15.6592 15.1816 14.427 15.1816 14.427C15.3603 14.1718 15.6477 14.0143 15.959 14.0012C16.2992 13.9876 16.6231 14.148 16.8184 14.427C16.8184 14.427 17.6828 15.6592 18.5469 17.2688C19.411 18.8784 20.332 20.8298 20.332 22.6692C20.332 22.979 20.297 23.2797 20.2344 23.5716C21.9137 22.2951 23 20.2824 23 18.0012C23 14.9854 21.2764 12.942 19.4249 10.7468C19.3615 10.6716 19.298 10.5963 19.2344 10.5208C17.7282 8.73215 16.631 7.87644 16.1094 7.46968ZM16.2076 17.2402C16.1467 17.1482 16.0809 17.0487 16 16.9212C15.9191 17.0486 15.8533 17.1482 15.7924 17.2402C15.6288 17.4877 15.5014 17.6803 15.2148 18.2141C14.4125 19.7088 13.668 21.5916 13.668 22.6692C13.668 23.9699 14.6993 25.0012 16 25.0012C17.3007 25.0012 18.332 23.9699 18.332 22.6692C18.332 21.5916 17.5875 19.7087 16.7852 18.2141C16.4986 17.6803 16.3712 17.4877 16.2076 17.2402Z" fill="#7D7F82"/>
<path fill-rule="evenodd" clip-rule="evenodd" d="M32 16C32 24.8366 24.8366 32 16 32C7.16344 32 0 24.8366 0 16C0 7.16344 7.16344 0 16 0C24.8366 0 32 7.16344 32 16ZM30 16C30 23.732 23.732 30 16 30C8.26801 30 2 23.732 2 16C2 8.26801 8.26801 2 16 2C23.732 2 30 8.26801 30 16Z" fill="#7D7F82"/>
</g>
<defs>
<clipPath id="clip0_5534_20716">
<rect width="32" height="32" fill="white"/>
</clipPath>
</defs>
</svg>
