<svg width="32" height="32" viewBox="0 0 32 32" fill="none" xmlns="http://www.w3.org/2000/svg">
<g clip-path="url(#clip0_5534_20772)">
<path d="M22.95 22.53C22.77 22.39 22.54 22.32 22.28 22.32C21.95 22.32 21.7 22.4 21.52 22.55C21.34 22.7 21.18 22.93 21.05 23.23L18.77 28.52L16.49 23.24C16.36 22.94 16.2 22.71 16.02 22.55C15.84 22.39 15.58 22.32 15.23 22.32C14.95 22.32 14.71 22.39 14.52 22.52C14.33 22.65 14.21 22.84 14.16 23.08C14.11 23.32 14.16 23.59 14.29 23.9L17.42 30.81C17.56 31.11 17.73 31.33 17.93 31.47C18.13 31.61 18.4 31.68 18.73 31.68C19.06 31.68 19.31 31.61 19.51 31.47C19.71 31.33 19.88 31.11 20.01 30.81L23.16 23.9C23.3 23.6 23.34 23.33 23.3 23.09C23.26 22.85 23.14 22.67 22.96 22.53H22.95Z" fill="#7D7F82"/>
<path d="M31.16 28.98C30.87 28.44 30.48 28.11 30 27.98C30.65 27.8 31.14 27.48 31.48 27.02C31.82 26.56 31.99 25.99 31.99 25.3C31.99 24.4 31.71 23.7 31.14 23.2C30.57 22.7 29.77 22.44 28.74 22.44H25.55C25.16 22.44 24.86 22.54 24.66 22.75C24.46 22.96 24.35 23.25 24.35 23.64V30.47C24.35 30.86 24.45 31.16 24.66 31.36C24.87 31.56 25.16 31.67 25.54 31.67C25.92 31.67 26.22 31.57 26.43 31.36C26.64 31.15 26.73 30.86 26.73 30.47V28.15H27.44C27.65 28.15 27.83 28.19 27.99 28.26C28.15 28.33 28.28 28.47 28.38 28.66L29.56 30.82C29.72 31.12 29.91 31.34 30.12 31.47C30.33 31.6 30.61 31.67 30.94 31.67C31.27 31.67 31.53 31.59 31.7 31.44C31.87 31.29 31.97 31.1 31.98 30.86C31.99 30.63 31.93 30.38 31.79 30.12L31.14 28.95L31.16 28.98ZM28.31 26.48H26.73V24.27H28.31C29.25 24.27 29.72 24.64 29.72 25.37C29.72 26.1 29.25 26.48 28.31 26.48Z" fill="#7D7F82"/>
<path d="M13.75 29.72C13.75 29.72 13.24 29.62 13 29.57L10.53 25.3C10.53 25.3 11.67 24.01 11.94 23.51C12.13 23.15 12.08 22.92 12.08 22.92C12.12 22.49 11.64 21.97 11.1 21.97C10.72 21.97 10.54 22.09 10.22 22.47L8.92 24.13L4.11 23.27C3.13 21.69 2.46 19.91 2.18 18L5.65 13.55L10.19 15.58L10.59 16.79C10.59 16.79 11.14 18.77 11.44 19.39C11.6 19.73 11.94 20.09 12.39 20.09C12.94 20.09 13.38 19.65 13.39 19.09C13.39 18.97 12.18 15.22 12.18 15.22L16.01 12.44L17.07 13.21L19.85 15.22L18.6 19.08C18.6 19.08 18.57 19.24 18.57 19.32C18.57 19.87 19.02 20.32 19.57 20.32C20.03 20.32 20.39 19.86 20.52 19.59C20.98 18.64 21.83 15.57 21.83 15.57L26.46 13.51L29.96 16.89C29.91 17.62 29.81 18.33 29.65 19.02V19.07C29.62 19.23 29.65 19.41 29.71 19.59C29.75 19.71 29.81 19.82 29.9 19.92C29.96 19.99 30.04 20.06 30.13 20.11C30.61 20.39 31.22 20.22 31.5 19.75C31.55 19.66 31.62 19.46 31.62 19.46C31.87 18.33 32.02 17.16 32.02 15.96C32.02 12.11 30.65 8.58 28.37 5.83C28.27 5.71 28.16 5.61 28.06 5.49C25.11 2.12 20.81 0 16 0C11.19 0 6.88 2.13 3.95 5.48C3.85 5.59 3.74 5.7 3.64 5.82C1.37 8.57 0 12.1 0 15.94C0 16.44 0.03 16.93 0.07 17.42C0.33 20.25 1.34 22.86 2.88 25.07C5.29 28.5 9.06 30.95 13.38 31.67C13.39 31.67 13.51 31.69 13.56 31.69C14.11 31.69 14.56 31.24 14.56 30.69C14.56 30.2 14.21 29.82 13.75 29.73V29.72ZM28.03 8.85C28.95 10.4 29.58 12.14 29.84 14L27.7 11.93L28.02 8.85H28.03ZM26.25 6.64L25.73 11.63L21.13 13.68L17 10.69V5.99L22.17 3.69L26.25 6.64ZM14.03 2.14C14.67 2.05 15.33 2 16 2C16.67 2 17.33 2.05 17.97 2.14C18.61 2.23 19.24 2.37 19.85 2.55L16 4.26L12.14 2.55C12.75 2.37 13.38 2.24 14.03 2.14ZM9.82 3.7L15 6V10.69L10.87 13.68L6.27 11.63L5.74 6.64L9.82 3.69V3.7ZM2.05 14.89C2.17 13.25 2.59 11.69 3.23 10.25C3.45 9.77 3.69 9.31 3.96 8.86L4.29 12.02L2.05 14.89ZM10.02 28.56C8.47 27.83 7.08 26.84 5.91 25.63H5.93L8.68 26.12L10.11 28.6C10.11 28.6 10.04 28.56 10.01 28.55V28.57L10.02 28.56Z" fill="#7D7F82"/>
</g>
<defs>
<clipPath id="clip0_5534_20772">
<rect width="32" height="32" fill="white"/>
</clipPath>
</defs>
</svg>
