<svg width="32" height="32" viewBox="0 0 32 32" fill="none" xmlns="http://www.w3.org/2000/svg">
<g clip-path="url(#clip0_5534_20701)">
<path d="M31.6459 27.1222L29.6473 25.1237L31.0663 23.7048C31.2524 23.5176 31.3569 23.2643 31.3569 23.0003C31.3569 22.7363 31.2524 22.4831 31.0663 22.2958C30.9734 22.2022 30.8629 22.1278 30.7411 22.0771C30.6193 22.0264 30.4887 22.0002 30.3568 22.0002C30.2249 22.0002 30.0943 22.0264 29.9725 22.0771C29.8508 22.1278 29.7402 22.2022 29.6473 22.2958L28.2584 23.7947L23.0123 18.5386L31.3061 10.2348C31.4341 10.1047 31.5303 9.94693 31.5875 9.77365C31.6447 9.60037 31.6613 9.41626 31.6359 9.23557L31.0563 5.81811C31.0237 5.63761 30.9362 5.47158 30.8056 5.34278C30.675 5.21398 30.5078 5.12871 30.3268 5.09865L27.469 4.60901L26.9893 1.75114C26.9568 1.57064 26.8692 1.40461 26.7386 1.27581C26.608 1.14701 26.4408 1.06174 26.2599 1.03168L22.8424 0.452111H22.6526C22.4965 0.451946 22.3419 0.482775 22.1978 0.542812C22.0537 0.602849 21.923 0.690897 21.8132 0.80185L13.5194 9.09567L10.8014 6.28776L11.8006 5.28851C11.9154 5.17092 11.9796 5.01313 11.9796 4.84883C11.9796 4.68454 11.9154 4.52675 11.8006 4.40916L8.26329 0.891783C7.98443 0.609297 7.65225 0.385003 7.28602 0.231917C6.91979 0.0788303 6.52681 0 6.12988 0C5.73294 0 5.33995 0.0788303 4.97373 0.231917C4.6075 0.385003 4.27532 0.609297 3.99646 0.891783C3.43411 1.45343 3.11782 2.21542 3.11712 3.0102C2.30163 3.02922 1.52491 3.3621 0.948733 3.93951C0.649323 4.23756 0.41174 4.59181 0.249623 4.98193C0.087507 5.37205 0.00405606 5.79035 0.00405606 6.21282C0.00405606 6.63528 0.087507 7.05358 0.249623 7.44371C0.41174 7.83383 0.649323 8.18808 0.948733 8.48612L4.19631 11.7337C4.27241 11.8098 4.36276 11.8702 4.4622 11.9114C4.56165 11.9527 4.66824 11.9739 4.77588 11.9739C4.88353 11.9739 4.99012 11.9527 5.08956 11.9114C5.189 11.8702 5.27936 11.8098 5.35545 11.7337L6.35471 10.7344L9.06269 13.4524L1.11861 21.3965C0.584103 21.9331 0.220344 22.6159 0.0731574 23.3588C-0.0740296 24.1017 0.00193794 24.8716 0.291493 25.5715C0.581048 26.2713 1.07123 26.8698 1.70031 27.2916C2.32939 27.7134 3.06921 27.9395 3.82659 27.9416H4.0864C4.04029 28.4912 4.11476 29.0442 4.30462 29.562C4.49448 30.0798 4.79514 30.5499 5.18558 30.9394C5.90645 31.6564 6.88183 32.0588 7.89855 32.0588C8.91528 32.0588 9.89067 31.6564 10.6115 30.9394L18.5456 23.0053L23.8017 28.2514L22.4227 29.6304C22.3291 29.7233 22.2547 29.8338 22.204 29.9555C22.1533 30.0773 22.1272 30.2079 22.1272 30.3398C22.1272 30.4717 22.1533 30.6024 22.204 30.7241C22.2547 30.8459 22.3291 30.9564 22.4227 31.0493C22.5161 31.1419 22.6268 31.2152 22.7486 31.2649C22.8703 31.3146 23.0007 31.3398 23.1322 31.3391C23.2637 31.3398 23.3941 31.3146 23.5158 31.2649C23.6376 31.2152 23.7483 31.1419 23.8417 31.0493L25.2107 29.6703L27.2092 31.6688C27.3953 31.8535 27.6465 31.9575 27.9086 31.9586C28.0401 31.9594 28.1705 31.9342 28.2923 31.8845C28.414 31.8347 28.5247 31.7615 28.6181 31.6688C28.8042 31.4816 28.9087 31.2284 28.9087 30.9644C28.9087 30.7004 28.8042 30.4471 28.6181 30.2599L26.6196 28.2614L28.2484 26.6326L30.2469 28.6311C30.3394 28.7255 30.4498 28.8006 30.5716 28.8521C30.6934 28.9036 30.8242 28.9303 30.9564 28.9309C31.0886 28.9303 31.2194 28.9036 31.3411 28.8521C31.4629 28.8006 31.5733 28.7255 31.6658 28.6311C31.7726 28.5359 31.8577 28.4188 31.9153 28.2879C31.973 28.157 32.0018 28.0152 31.9999 27.8721C31.998 27.7291 31.9654 27.5881 31.9043 27.4587C31.8433 27.3293 31.7551 27.2146 31.6459 27.1222ZM5.40542 2.30073C5.49877 2.20247 5.61113 2.12422 5.73568 2.07076C5.86022 2.01729 5.99434 1.98971 6.12988 1.98971C6.26541 1.98971 6.39953 2.01729 6.52408 2.07076C6.64862 2.12422 6.76098 2.20247 6.85433 2.30073L9.40244 4.85883L7.96351 6.29775L5.40542 3.73966C5.3098 3.64594 5.23398 3.53395 5.18249 3.41036C5.13099 3.28677 5.10486 3.15409 5.10564 3.0202C5.10486 2.88631 5.13099 2.75362 5.18249 2.63003C5.23398 2.50644 5.3098 2.39446 5.40542 2.30073ZM4.77588 9.48538L2.35769 7.06718C2.24477 6.95469 2.15563 6.82065 2.09555 6.67302C2.03546 6.52539 2.00568 6.36719 2.00795 6.20782C2.00662 6.04867 2.03698 5.89084 2.09727 5.74355C2.15756 5.59625 2.24657 5.46243 2.35911 5.34989C2.47165 5.23735 2.60547 5.14834 2.75277 5.08805C2.90007 5.02776 3.05789 4.99739 3.21705 4.99872C3.37642 4.99645 3.53462 5.02624 3.68225 5.08632C3.82987 5.1464 3.96392 5.23555 4.07641 5.34846L6.4946 7.80663L4.77588 9.48538ZM7.77365 9.33549L8.7729 8.33623L9.35247 7.69671L12.0605 10.4147L10.4317 12.0435L7.77365 9.33549ZM2.52756 25.4135C2.35587 25.2437 2.21973 25.0413 2.12708 24.8183C2.03444 24.5952 1.98714 24.356 1.98796 24.1145C1.98544 23.8727 2.03196 23.633 2.12471 23.4097C2.21745 23.1864 2.35449 22.9843 2.52756 22.8154L22.9323 2.41065L25.1507 2.79037L25.5304 5.00871L5.12562 25.4135C4.77837 25.7529 4.31212 25.9428 3.82659 25.9428C3.34106 25.9428 2.87481 25.7529 2.52756 25.4135ZM9.19259 29.4805C9.02467 29.6626 8.82168 29.809 8.59579 29.9107C8.3699 30.0125 8.12577 30.0675 7.87808 30.0726C7.63038 30.0776 7.38422 30.0325 7.15438 29.9401C6.92454 29.8476 6.71576 29.7096 6.54058 29.5344C6.3654 29.3592 6.22742 29.1505 6.13495 28.9206C6.04247 28.6908 5.9974 28.4446 6.00244 28.1969C6.00748 27.9492 6.06252 27.7051 6.16427 27.4792C6.26601 27.2533 6.41236 27.0503 6.59453 26.8824L26.9993 6.47762L29.2177 6.85734L29.5974 9.07568L9.19259 29.4805ZM25.1807 26.7925L19.9346 21.5364L21.5634 19.8976L26.8195 25.1537L25.1807 26.7925Z" fill="#7D7F82"/>
</g>
<defs>
<clipPath id="clip0_5534_20701">
<rect width="32" height="32" fill="white"/>
</clipPath>
</defs>
</svg>
