<svg width="32" height="32" viewBox="0 0 32 32" fill="none" xmlns="http://www.w3.org/2000/svg">
<g clip-path="url(#clip0_5534_20806)">
<path fill-rule="evenodd" clip-rule="evenodd" d="M9.57787 0C9.00799 0 8.45297 0.181737 7.99347 0.518798L1.63414 5.18354C0.606877 5.93707 0 7.13487 0 8.40886V11.2805C0 12.3121 0.39853 13.3037 1.11236 14.0484L17.1388 30.7679C17.8933 31.555 18.9362 32 20.0265 32H27.8317C28.7428 32 29.6267 31.6888 30.3368 31.1184C32.0324 29.7566 32.3304 27.2884 31.0053 25.5629L25.8533 18.8539C25.6784 18.6261 25.5545 18.3633 25.4903 18.0834L23.0047 7.2611C22.3806 4.54397 19.0103 3.57546 17.039 5.54679C16.7488 5.83698 16.3552 6 15.9449 6H14.5414C13.5637 6 12.7293 5.29317 12.5686 4.3288L12.2202 2.23838C12.0049 0.946713 10.8874 0 9.57787 0ZM9.1764 2.13146C9.29283 2.04605 9.43347 2 9.57787 2C9.90968 2 10.1929 2.23989 10.2474 2.56718L10.5958 4.6576C10.9173 6.58635 12.586 8 14.5414 8H15.9449C16.8857 8 17.788 7.62626 18.4532 6.96101C19.3131 6.10112 20.7832 6.52357 21.0554 7.70879L21.8686 11.2491C21.8556 11.2521 21.8426 11.2553 21.8296 11.2588L17.9659 12.294C17.4325 12.437 17.1159 12.9853 17.2588 13.5188C17.4018 14.0522 17.9501 14.3688 18.4836 14.2259L22.3164 13.1989L22.7918 15.2689L20.1786 15.9691C19.6452 16.112 19.3286 16.6604 19.4715 17.1938C19.6145 17.7273 20.1628 18.0439 20.6963 17.9009L23.2397 17.2194L23.541 18.5311C23.6696 19.0909 23.9172 19.6165 24.267 20.072L28.8193 26H22.2879C21.7397 26 21.2155 25.775 20.8379 25.3775L3.03432 6.63685L9.1764 2.13146ZM2 8.45191V11.2805C2 11.7963 2.19926 12.2921 2.55618 12.6645L18.5827 29.384C18.9599 29.7775 19.4814 30 20.0265 30H27.8317C28.2871 30 28.7292 29.8444 29.0844 29.5591C29.5753 29.1649 29.8318 28.5854 29.8326 28H22.2879C21.1915 28 20.1431 27.5499 19.3879 26.755L2 8.45191Z" fill="#7D7F82"/>
<path d="M0 27C0 26.4477 0.447715 26 1 26H5C5.55228 26 6 26.4477 6 27C6 27.5523 5.55228 28 5 28H1C0.447715 28 0 27.5523 0 27Z" fill="#7D7F82"/>
<path d="M1 30C0.447715 30 0 30.4477 0 31C0 31.5523 0.447716 32 1 32H9C9.55229 32 10 31.5523 10 31C10 30.4477 9.55228 30 9 30H1Z" fill="#7D7F82"/>
</g>
<defs>
<clipPath id="clip0_5534_20806">
<rect width="32" height="32" fill="white"/>
</clipPath>
</defs>
</svg>
