<svg width="32" height="32" viewBox="0 0 32 32" fill="none" xmlns="http://www.w3.org/2000/svg">
<g clip-path="url(#clip0_5534_20781)">
<path d="M31.0801 10.08C30.5801 7.76 29.4401 5.54 27.6301 3.74C25.7301 1.84 23.3701 0.660002 20.9101 0.210002C20.1401 0.0700017 19.3701 -0.00999832 18.5901 -0.00999832C18.4401 -0.00999832 18.3001 0.0100017 18.1501 0.0100017C16.1001 0.0800017 14.0801 0.640002 12.2501 1.69C11.4301 2.16 10.6501 2.73 9.93006 3.4C9.81006 3.51 9.68006 3.62 9.56006 3.74C5.92006 7.38 4.95006 12.67 6.62006 17.21C6.92006 18.04 7.31006 18.84 7.80006 19.6C8.30006 20.39 8.88006 21.14 9.57006 21.82C10.3401 22.59 11.1801 23.22 12.0701 23.75C12.9201 24.26 13.8201 24.66 14.7401 24.96C16.0001 25.36 17.3001 25.57 18.6101 25.57C21.8801 25.57 25.1501 24.32 27.6501 21.83C27.9701 21.51 28.2701 21.18 28.5501 20.83C29.1301 20.12 29.6101 19.36 30.0101 18.57C30.8901 16.83 31.3501 14.93 31.3801 13.02C31.4001 12.04 31.3001 11.06 31.0901 10.09L31.0801 10.08ZM19.1301 2.03C21.8101 2.16 24.3101 3.25 26.2201 5.16C27.1301 6.07 27.8501 7.13 28.3801 8.27C24.2801 5.97 20.1701 5.48 17.8401 5.54C18.0001 4.25 18.4401 3.05 19.1301 2.03ZM11.8601 4.37C13.2901 3.22 14.9601 2.48 16.7501 2.17C15.2901 5.28 15.4301 9.27 17.4101 12.76L17.4301 12.74C17.4301 12.74 17.4301 12.76 17.4301 12.78C17.4301 12.78 17.4201 12.78 17.4201 12.77L17.2301 13.06C16.5201 14.17 15.6301 15.12 14.6301 15.87C11.9501 11.57 11.6601 7.2 11.8701 4.39L11.8601 4.37ZM9.01006 17.72C8.23006 16.21 7.82006 14.53 7.82006 12.79C7.82006 10.52 8.52006 8.37 9.81006 6.56C9.92006 9.58 10.6701 13.29 12.9001 16.89C12.4801 17.09 12.0501 17.26 11.6101 17.39C10.7301 17.65 9.85006 17.76 9.00006 17.73L9.01006 17.72ZM14.6701 22.83C13.3001 22.3 12.0501 21.49 10.9801 20.42C10.7401 20.18 10.5101 19.92 10.2901 19.66C10.9201 19.59 11.5501 19.49 12.1901 19.3C14.9001 18.5 17.2901 16.66 18.9101 14.13L19.1001 13.84C19.1001 13.84 19.1201 13.81 19.1301 13.79C19.1701 13.79 19.2101 13.79 19.2401 13.79C20.7801 13.79 22.2201 14.11 23.5001 14.67C22.6101 16.3 19.8901 20.47 14.6601 22.83H14.6701ZM26.2301 20.42C24.1901 22.46 21.4901 23.58 18.6001 23.58C18.2701 23.58 17.9501 23.56 17.6301 23.53C21.7401 21.05 24.2101 17.64 25.2501 15.65C26.3201 16.41 27.1801 17.38 27.7701 18.47C27.3401 19.17 26.8301 19.82 26.2301 20.42ZM28.7801 16.35C26.7501 13.61 23.2401 11.79 19.2501 11.79C19.2201 11.79 19.2001 11.79 19.1701 11.79C18.3901 10.41 17.9401 8.95 17.8201 7.52C19.9301 7.49 24.8301 8.01 29.2601 11.22C29.3401 11.74 29.3901 12.26 29.3901 12.79C29.3901 14.02 29.1701 15.22 28.7801 16.35Z" fill="#7D7F82"/>
<path d="M7.92006 23.43C7.53006 23.04 6.90006 23.04 6.51006 23.43L0.830059 29.11C0.440059 29.5 0.440059 30.13 0.830059 30.52C1.03006 30.72 1.28006 30.81 1.54006 30.81C1.80006 30.81 2.05006 30.71 2.25006 30.52L7.93006 24.84C8.32006 24.45 8.32006 23.82 7.93006 23.43H7.92006Z" fill="#7D7F82"/>
<path d="M10.0801 27.01L7.42006 29.67C7.03006 30.06 7.03006 30.69 7.42006 31.08C7.62006 31.28 7.87006 31.37 8.13006 31.37C8.39006 31.37 8.64006 31.27 8.84006 31.08L11.5001 28.42C11.8901 28.03 11.8901 27.4 11.5001 27.01C11.1101 26.62 10.4801 26.62 10.0901 27.01H10.0801Z" fill="#7D7F82"/>
<path d="M1.71006 23.95L4.37006 21.29C4.76006 20.9 4.76006 20.27 4.37006 19.88C3.98006 19.49 3.35006 19.49 2.96006 19.88L0.290059 22.54C-0.0999414 22.93 -0.0999414 23.56 0.290059 23.95C0.490059 24.15 0.740059 24.24 1.00006 24.24C1.26006 24.24 1.51006 24.14 1.71006 23.95Z" fill="#7D7F82"/>
</g>
<defs>
<clipPath id="clip0_5534_20781">
<rect width="32" height="32" fill="white"/>
</clipPath>
</defs>
</svg>
