<svg width="32" height="32" viewBox="0 0 32 32" fill="none" xmlns="http://www.w3.org/2000/svg">
<path d="M31.3927 11.6451C31.3254 10.9558 31.092 10.2931 30.7125 9.71387C29.4633 6.79236 27.3733 4.30876 24.7086 2.57926C22.0438 0.849754 18.9249 -0.0474257 15.7488 0.00193239C12.5727 0.0512904 9.48317 1.04495 6.87343 2.85643C4.26369 4.6679 2.25183 7.21524 1.09397 10.1742C0.904635 10.5359 0.769796 10.9237 0.693848 11.3249C-0.231283 14.3646 -0.231283 17.611 0.693848 20.6507C0.780042 21.0756 0.924807 21.4864 1.12398 21.8715C1.92389 23.9141 3.14001 25.7679 4.695 27.3149C6.57867 29.1978 8.90225 30.5808 11.4552 31.3386C14.0081 32.0964 16.7098 32.2049 19.3152 31.6544C21.9207 31.1039 24.3477 29.9118 26.3763 28.1861C28.4048 26.4603 29.9709 24.2555 30.9325 21.7714C31.0955 21.4374 31.2164 21.0845 31.2926 20.7207C32.2005 17.7685 32.2352 14.6166 31.3927 11.6451ZM6.09541 6.09161C7.39582 4.79062 8.93967 3.75862 10.6388 3.05453C12.3379 2.35043 14.1591 1.98804 15.9982 1.98804C17.8374 1.98804 19.6585 2.35043 21.3577 3.05453C23.0568 3.75862 24.6007 4.79062 25.9011 6.09161C25.9596 6.14683 26.0132 6.2071 26.0611 6.27172C19.5555 3.85927 12.401 3.85927 5.89535 6.27172L6.09541 6.09161ZM22.9002 24.6732C20.6422 25.2517 18.3191 25.5376 15.9882 25.5237C13.7019 25.5402 11.4228 25.2645 9.2063 24.7032C8.45086 23.2928 7.89536 21.7841 7.55582 20.2204C10.2442 21.0513 13.0445 21.463 15.8582 21.4412C18.81 21.4691 21.7465 21.0128 24.5507 20.0903C24.2074 21.6827 23.6417 23.2187 22.8702 24.6532L22.9002 24.6732ZM15.8982 19.4399C12.9311 19.4741 9.98239 18.9689 7.19571 17.949C7.12336 17.2476 7.08663 16.5429 7.08568 15.8377C7.08568 15.4474 7.08568 15.0472 7.08568 14.657C12.8174 12.5085 19.1237 12.4554 24.8908 14.5069C24.8908 15.0172 24.9608 15.5075 24.9608 16.0678C24.9608 16.6282 24.9608 17.2085 24.8708 17.7789C22.0011 18.9064 18.9412 19.4703 15.8582 19.4399H15.8982ZM7.44579 12.4356C7.77039 10.6518 8.364 8.92776 9.2063 7.32238C13.7013 6.22179 18.3953 6.22179 22.8902 7.32238C23.7428 8.88614 24.3437 10.5746 24.6707 12.3255C21.946 11.469 19.1043 11.0436 16.2483 11.0647C13.2453 11.0174 10.2557 11.4774 7.40578 12.4256L7.44579 12.4356ZM3.01452 21.131C2.89449 20.8208 2.78445 20.5106 2.69442 20.2004C2.6889 20.1238 2.6889 20.0469 2.69442 19.9703H2.64442C1.88948 17.386 1.88948 14.6396 2.64442 12.0553H2.70443C2.69896 11.9687 2.69896 11.8818 2.70443 11.7952C2.79113 11.495 2.89116 11.2048 3.00452 10.9246C3.89595 9.6638 5.15822 8.71241 6.61556 8.20293C5.60699 10.6339 5.07387 13.2358 5.0451 15.8677C5.02318 18.608 5.53273 21.3265 6.54553 23.8727C5.10167 23.3428 3.85519 22.3823 2.9745 21.121L3.01452 21.131ZM25.9011 25.954C24.6007 27.255 23.0568 28.287 21.3577 28.9911C19.6585 29.6952 17.8374 30.0576 15.9982 30.0576C14.1591 30.0576 12.3379 29.6952 10.6388 28.9911C8.93967 28.287 7.39582 27.255 6.09541 25.954L5.92536 25.7639C9.12975 27.0174 12.5481 27.6326 15.9882 27.575C19.4323 27.6117 22.8504 26.9761 26.0511 25.7038L25.9011 25.954ZM29.4321 19.9503H29.3621C29.3552 20.0715 29.3385 20.192 29.3121 20.3105C29.232 20.5506 29.152 20.7908 29.062 21.0309C28.1879 22.3004 26.9342 23.2602 25.481 23.7726C26.5 21.3414 27.0335 18.7341 27.0514 16.0979C27.0652 13.3889 26.5487 10.7034 25.531 8.19292C26.9039 8.69214 28.112 9.56135 29.022 10.7045C30.2151 13.6494 30.3773 16.9115 29.4821 19.9603L29.4321 19.9503Z" fill="#7D7F82"/>
</svg>
