<svg width="32" height="32" viewBox="0 0 32 32" fill="none" xmlns="http://www.w3.org/2000/svg">
<path d="M31.1328 22.8001C30.0136 21.679 28.058 21.679 26.9394 22.8001L26.7489 22.9906L20.4607 16.7029L23.4182 13.7454C24.3159 13.1387 25.2626 12.5314 26.1742 11.9484C29.3115 9.93956 30.9697 8.84482 31.4121 7.83699C32.2617 5.90044 31.7793 3.64552 30.1513 1.95115C28.4262 0.154247 25.9364 -0.46588 23.8089 0.368118C21.6317 1.22165 20.8406 3.45899 20.0755 5.62211C19.4339 7.43635 18.769 9.31285 17.3267 10.6942L15.9134 12.1076L14.5155 10.7098L14.5144 10.7081C13.0602 9.3253 12.3937 7.4405 11.7492 5.61918C10.9845 3.45606 10.193 1.21872 8.01523 0.365188C5.88873 -0.46881 3.39797 0.153271 1.67284 1.9492C0.045373 3.64356 -0.437057 5.89848 0.413055 7.83406C0.855445 8.84189 2.51319 9.93664 5.65045 11.9455C6.56202 12.5285 7.50881 13.1357 8.40647 13.7425L11.3426 16.6786L5.58257 22.4388C5.5628 22.4586 5.5559 22.4848 5.53814 22.5057L5.26927 22.7746L5.07915 22.5843C3.95852 21.4632 2.00439 21.4632 0.885719 22.5843C-0.27055 23.7406 -0.27055 25.6215 0.885719 26.7777L4.93998 30.8325C5.03441 30.9269 5.14604 31 5.26726 31.0498C5.38872 31.0997 5.51769 31.1255 5.64703 31.1255C5.77636 31.1255 5.90533 31.0997 6.02679 31.0498C6.14801 31 6.25965 30.9269 6.35407 30.8325L9.13341 28.0531L15.9011 21.285L22.8844 28.2686L25.664 31.0483C25.8593 31.2436 26.1151 31.3413 26.371 31.3413C26.6269 31.3413 26.8827 31.2436 27.078 31.0483L31.1328 26.9936C32.2891 25.8373 32.2891 23.9564 31.1328 22.8001ZM25.3464 24.4163L23.6033 26.1593L17.304 19.8596L19.0467 18.1169L25.3464 24.4163ZM8.41459 25.9436L6.67164 24.2004L13.6852 17.1868C13.7052 17.1668 13.7123 17.1402 13.7302 17.1191L18.9768 11.8722C18.9925 11.8566 18.9977 11.8357 19.012 11.8193C19.1099 11.7156 19.215 11.6153 19.3065 11.5086L21.0665 13.2689L8.68956 25.6459C8.66954 25.6659 8.66246 25.6924 8.64451 25.7137L8.41459 25.9436ZM24.5394 2.22948C26.2025 1.5781 27.8256 2.41796 28.7089 3.33594C29.5366 4.19826 30.2002 5.62113 29.5844 7.0235C29.2827 7.58308 26.8627 9.13291 25.0961 10.2638C24.2537 10.8029 23.3854 11.3625 22.5482 11.9224L20.4594 9.8333C21.1148 8.66324 21.557 7.43183 21.9613 6.28814C22.6605 4.31154 23.2123 2.74999 24.5394 2.22948ZM2.24414 7.02936C1.6245 5.61918 2.28809 4.19533 3.11525 3.33399C3.99759 2.41503 5.62115 1.57615 7.28524 2.22655C8.61241 2.74706 9.16466 4.30861 9.86389 6.28521C10.2681 7.42896 10.7104 8.66043 11.3659 9.83062L9.27654 11.9196C8.43925 11.3596 7.57107 10.8 6.72859 10.2609C4.96196 9.12998 2.542 7.58015 2.24414 7.02936ZM10.7583 13.2661L12.5188 11.5058C12.6091 11.611 12.7129 11.71 12.8094 11.8124C12.8249 11.8303 12.8307 11.8532 12.8478 11.8703L14.4993 13.5217L12.7566 15.2645L10.7583 13.2661ZM2.30029 23.9984C2.66456 23.6341 3.29933 23.6331 3.66457 23.9984L4.49369 24.8275C4.51175 24.8489 4.5189 24.8757 4.5391 24.8959L7.00057 27.3578L5.64703 28.7114L2.2998 25.3636C1.92333 24.9877 1.92333 24.3744 2.30029 23.9984ZM29.7187 25.5795L26.371 28.9272L25.0173 27.5733L27.6552 24.9359C27.6757 24.9154 27.683 24.8882 27.7013 24.8665L28.3539 24.2142C28.7182 23.849 29.3535 23.849 29.7187 24.2142C30.0952 24.5902 30.0952 25.2035 29.7187 25.5795Z" fill="#7D7F82"/>
</svg>
