<svg width="32" height="32" viewBox="0 0 32 32" fill="none" xmlns="http://www.w3.org/2000/svg">
<g clip-path="url(#clip0_5534_20793)">
<path d="M15.9999 0C12.7809 0.00359128 9.63795 0.978009 6.98151 2.79594C4.32508 4.61388 2.27874 7.19079 1.10987 10.19C0.959136 10.5104 0.841843 10.8455 0.759865 11.19C-0.2585 14.4061 -0.234283 17.8618 0.829049 21.0633C1.89238 24.2648 3.94041 27.0483 6.68052 29.016C9.42063 30.9838 12.7126 32.0351 16.086 32.0198C19.4595 32.0045 22.7417 30.9234 25.4639 28.9308C28.186 26.9383 30.2087 24.1363 31.2429 20.9253C32.2772 17.7143 32.27 14.2585 31.2225 11.0518C30.175 7.84508 28.1408 5.0515 25.4104 3.07022C22.6801 1.08895 19.3933 0.0213572 16.0199 0.0199995L15.9999 0ZM29.9999 16C30.0008 17.3551 29.802 18.7029 29.4099 20L29.3599 19.92C28.1799 20.68 26.1399 21.49 25.5299 20.92C24.9199 20.35 23.1599 18.43 23.2499 16.48C23.2898 15.985 23.4454 15.5063 23.7042 15.0825C23.963 14.6587 24.3178 14.3016 24.7399 14.04C27.1099 12.32 27.1099 9.24 26.8499 7.17C28.8835 9.66385 29.9959 12.7821 29.9999 16ZM14.7799 2.06C14.9257 2.09553 15.0616 2.16342 15.1776 2.25863C15.2935 2.35384 15.3866 2.47393 15.4499 2.61C15.9299 3.61 15.2499 5.76 14.8999 6.42C14.5989 6.99875 14.3448 7.60068 14.1399 8.22C13.6999 9.44 13.4599 9.98 12.9999 10.02C12.9137 10.0337 12.826 10.0337 12.7399 10.02C12.6091 9.76533 12.5181 9.49218 12.4699 9.21C12.4187 8.57786 12.1923 7.97252 11.816 7.462C11.4397 6.95147 10.9285 6.55599 10.3399 6.32C9.66918 6.1085 8.95458 6.07757 8.26812 6.23031C7.58166 6.38305 6.94761 6.71407 6.42988 7.19C5.8334 7.69665 5.38142 8.35195 5.11976 9.08952C4.8581 9.82709 4.79605 10.6207 4.93987 11.39C5.76987 15.93 12.3399 17.96 14.3399 18.48C17.0399 19.18 17.0399 20.93 17.0399 21.48C17.0399 22.03 15.8999 22.93 15.2899 23.48C14.8626 23.8269 14.4676 24.2118 14.1099 24.63C13.1686 26.1267 12.3461 27.6948 11.6499 29.32C11.3199 29.21 11.0099 29.09 10.6499 28.97C11.1199 27.91 11.8699 25.64 10.3599 24.46C9.93036 24.1492 9.46334 23.8938 8.96987 23.7C8.33884 23.5306 7.78253 23.1552 7.38935 22.6334C6.99617 22.1115 6.78869 21.4733 6.79987 20.82C6.31987 16.62 4.59987 15.34 3.46987 14.5C3.09987 14.22 2.80987 14.01 2.72987 13.8C2.48677 13.1612 2.4449 12.4633 2.60987 11.8C3.44449 9.15302 5.04704 6.81384 7.21395 5.0796C9.38086 3.34536 12.0143 2.29433 14.7799 2.06ZM1.99987 16V15.84C2.10987 15.92 2.20988 16.01 2.31988 16.08C3.31988 16.8 4.46988 17.68 4.84988 21.03C4.87451 22.0346 5.21123 23.0066 5.81332 23.8112C6.4154 24.6158 7.253 25.213 8.20988 25.52C8.56467 25.6398 8.9012 25.808 9.20988 26.02C9.48988 26.24 9.29987 27.2 8.93987 28.02C6.83802 26.7926 5.09247 25.0384 3.87545 22.9306C2.65843 20.8227 2.01197 18.434 1.99987 16ZM15.9999 30C15.2051 29.9931 14.4123 29.9195 13.6299 29.78C14.2094 28.4371 14.8775 27.1342 15.6299 25.88C15.9217 25.5805 16.2323 25.2999 16.5599 25.04C17.6599 24.12 19.0299 22.98 19.0299 21.54C19.0299 19.04 17.5399 17.27 14.8299 16.54C11.4799 15.68 7.38986 13.71 6.89986 11.04C6.81792 10.6138 6.85067 10.1735 6.99474 9.7641C7.13882 9.35471 7.38907 8.99094 7.71987 8.71C7.98104 8.46004 8.30286 8.28247 8.65357 8.19479C9.00429 8.10711 9.3718 8.11235 9.71987 8.21C10.2199 8.38 10.3499 8.76 10.5599 9.63C10.7699 10.5 11.1699 12.19 13.2299 11.98C14.9899 11.81 15.5799 10.18 16.0499 8.87C16.2303 8.3436 16.4441 7.82923 16.6899 7.33C17.1099 6.54 18.0799 3.97 17.3899 2.04C20.0667 2.30669 22.6074 3.34937 24.6999 5.04C24.6765 5.56835 24.7066 6.09772 24.7899 6.62C25.0299 8.42 25.3799 11.15 23.5899 12.46C22.9172 12.8979 22.3575 13.4884 21.9561 14.1835C21.5547 14.8785 21.323 15.6585 21.2799 16.46C21.1399 19.69 24.2099 22.46 24.2799 22.46C24.8209 22.9165 25.5124 23.1553 26.2199 23.13C26.9605 23.106 27.6913 22.9537 28.3799 22.68C27.1714 24.9058 25.3818 26.7622 23.2017 28.0512C21.0215 29.3403 18.5326 30.0138 15.9999 30Z" fill="#7D7F82"/>
</g>
<defs>
<clipPath id="clip0_5534_20793">
<rect width="32" height="32" fill="white"/>
</clipPath>
</defs>
</svg>
