<svg width="32" height="32" viewBox="0 0 32 32" fill="none" xmlns="http://www.w3.org/2000/svg">
<g clip-path="url(#clip0_5534_20811)">
<path d="M16.7227 17.4358C16.8284 17.3118 16.9734 17.2249 17.1407 17.2249H17.2852C17.131 17.2249 16.983 17.1918 16.8339 17.1647C16.7981 17.2556 16.7693 17.3486 16.7227 17.4358Z" fill="#7D7F82"/>
<path d="M26.5464 11.6927C25.7153 9.57621 24.2842 7.76396 22.4585 6.4625C22.2712 6.32884 22.0789 6.20286 21.8833 6.0803C20.2314 5.04447 18.3052 4.4166 16.2373 4.32749C16.0693 4.32023 15.9041 4.30198 15.7344 4.30198C10.9089 4.30198 6.76294 7.25962 5.0083 11.4563C4.43262 12.8327 4.1123 14.3414 4.1123 15.9241C4.1123 18.265 4.81396 20.4425 6.00952 22.2687C8.0039 25.315 11.387 27.3624 15.2534 27.5218C15.4143 27.5284 15.572 27.5461 15.7344 27.5461C17.5513 27.5461 19.2654 27.1151 20.7986 26.3684C21.5149 26.0195 22.1897 25.6016 22.8147 25.1191C24.3362 23.9446 25.5598 22.4072 26.3503 20.6311C26.9917 19.1903 27.3555 17.6001 27.3555 15.9241C27.3555 14.4301 27.0623 13.0058 26.5464 11.6927ZM16.7939 6.36448L16.7947 6.36369C20.0947 6.72758 22.8901 8.7689 24.3232 11.6125L22.4023 14.9407C22.3008 15.1164 22.1123 15.2248 21.9111 15.2248H17.2852C17.084 15.2248 16.8955 15.1164 16.7949 14.9416L14.4824 10.9358C14.3809 10.761 14.3809 10.5442 14.4824 10.3694L16.7939 6.36448ZM14.467 6.39536L12.751 9.36839C12.6877 9.47758 12.6545 9.59715 12.6086 9.71275C12.4597 9.68565 12.3115 9.65257 12.1572 9.65257H8.45264C9.95728 7.90824 12.0735 6.7125 14.467 6.39536ZM7.53125 20.7961C7.49731 20.7961 7.46851 20.7764 7.43579 20.7704C6.6001 19.3451 6.1123 17.6923 6.1123 15.9241C6.1123 14.6495 6.36694 13.4346 6.81909 12.3204L7.04102 11.9358C7.1416 11.761 7.33008 11.6526 7.53125 11.6526H12.1572C12.3584 11.6526 12.5469 11.761 12.6475 11.9358L14.96 15.9416C15.0457 16.0906 15.0427 16.2664 14.9822 16.4244C14.9717 16.4518 14.9749 16.4822 14.96 16.508L12.6475 20.5129C12.6301 20.543 12.5981 20.5583 12.5762 20.5842C12.4697 20.709 12.3237 20.7961 12.1572 20.7961H7.53125ZM9.01221 22.7961H12.1572C12.2646 22.7961 12.3662 22.7676 12.4712 22.7543C12.5154 22.8634 12.5459 22.9768 12.6055 23.0803L13.9275 25.3702C12.0347 25.0086 10.3379 24.0931 9.01221 22.7961ZM16.322 25.5163L14.3379 22.0803C14.2515 21.9313 14.2544 21.7549 14.3154 21.5967C14.3259 21.5693 14.323 21.5387 14.3379 21.5129L16.5632 17.6596C16.5806 17.6296 16.7769 17.3733 16.9103 17.2829C17.0039 17.2196 17.1311 17.2249 17.2852 17.2249L21.7656 17.2248C21.9678 17.2248 22.1562 17.3332 22.2568 17.508L24.0876 20.6792C22.521 23.4206 19.6487 25.3139 16.322 25.5163ZM25.0396 18.3269L23.9893 16.508C23.9487 16.4378 23.8899 16.3838 23.8433 16.3185C23.9465 16.1986 24.0532 16.0812 24.1338 15.9416L25.1812 14.1274C25.2917 14.7102 25.3555 15.3095 25.3555 15.9241C25.3555 16.755 25.2385 17.5573 25.0396 18.3269Z" fill="#7D7F82"/>
<path d="M15.9668 32C15.4141 32 14.9668 31.5527 14.9668 31C14.9668 30.4473 15.4141 30 15.9668 30C23.6865 30 29.9668 23.7197 29.9668 16C29.9668 8.28027 23.6865 2 15.9668 2C15.4141 2 14.9668 1.55273 14.9668 1C14.9668 0.447266 15.4141 0 15.9668 0C24.7891 0 31.9668 7.17773 31.9668 16C31.9668 24.8223 24.7891 32 15.9668 32Z" fill="#7D7F82"/>
<path d="M11.9551 2H1C0.447266 2 0 1.55273 0 1C0 0.447266 0.447266 0 1 0H11.9551C12.5078 0 12.9551 0.447266 12.9551 1C12.9551 1.55273 12.5078 2 11.9551 2Z" fill="#7D7F82"/>
<path d="M11.9551 32H1C0.447266 32 0 31.5527 0 31C0 30.4473 0.447266 30 1 30H11.9551C12.5078 30 12.9551 30.4473 12.9551 31C12.9551 31.5527 12.5078 32 11.9551 32Z" fill="#7D7F82"/>
</g>
<defs>
<clipPath id="clip0_5534_20811">
<rect width="32" height="32" fill="white"/>
</clipPath>
</defs>
</svg>
