<svg width="32" height="32" viewBox="0 0 32 32" fill="none" xmlns="http://www.w3.org/2000/svg">
<g clip-path="url(#clip0_5534_20747)">
<path d="M31.84 13.75C31.76 13.2 31.26 12.82 30.7 12.9C30.15 12.98 29.77 13.49 29.85 14.04C29.95 14.7 29.99 15.37 29.99 16.04C29.99 23.73 23.71 29.99 16 29.99C8.29 29.99 2.01 23.74 2.01 16.04C2.01 8.34 8.29 2.09 16 2.09C16.77 2.09 17.54 2.15 18.29 2.28C18.84 2.38 19.36 2 19.45 1.45C19.54 0.899999 19.17 0.389999 18.62 0.299999C17.76 0.159999 16.88 0.0899991 16 0.0899991C7.18 0.0899991 0 7.25 0 16.04C0 24.83 7.18 32 16 32C24.82 32 32 24.84 32 16.04C32 15.27 31.95 14.5 31.84 13.75Z" fill="#7D7F82"/>
<path d="M11.54 10.26C11.39 9.98 11.23 9.79 11.06 9.67C10.89 9.55 10.65 9.5 10.35 9.5C9.63 9.5 9.26 9.86 9.26 10.58V21.43C9.26 22.15 9.61 22.51 10.31 22.51C11.01 22.51 11.36 22.15 11.36 21.43V13.83L14.76 19.98C14.87 20.17 14.99 20.32 15.14 20.42C15.28 20.52 15.47 20.57 15.7 20.57C15.93 20.57 16.11 20.52 16.24 20.43C16.37 20.34 16.5 20.18 16.62 19.98L20.02 13.79V21.42C20.02 22.14 20.37 22.5 21.07 22.5C21.77 22.5 22.12 22.14 22.12 21.42V10.58C22.12 9.86 21.77 9.5 21.07 9.5C20.77 9.5 20.53 9.56 20.37 9.67C20.2 9.78 20.04 9.98 19.9 10.26L15.72 17.97L11.54 10.26Z" fill="#7D7F82"/>
<path d="M23.1 5.57C23.31 5.77 23.51 5.97 23.72 6.17C23.76 6.21 23.8 6.25 23.79 6.32C23.71 6.76 23.64 7.19 23.56 7.63C23.53 7.81 23.49 8 23.46 8.18C23.42 8.42 23.37 8.66 23.44 8.9C23.61 9.47 24.3 9.88 24.99 9.51C25.58 9.19 26.18 8.89 26.78 8.57C26.9 8.51 26.99 8.51 27.1 8.57C27.7 8.89 28.31 9.21 28.92 9.52C29.31 9.72 29.69 9.69 30.03 9.43C30.37 9.18 30.51 8.84 30.44 8.42C30.32 7.72 30.21 7.03 30.08 6.33C30.06 6.24 30.08 6.19 30.15 6.13C30.65 5.65 31.15 5.16 31.65 4.68C31.87 4.47 31.99 4.22 31.99 3.91C31.99 3.41 31.63 2.96 31.15 2.89C30.49 2.79 29.82 2.69 29.15 2.6C29.1 2.6 29.05 2.59 29 2.58C28.9 2.57 28.85 2.53 28.81 2.44C28.53 1.87 28.24 1.3 27.96 0.719999C27.94 0.679999 27.92 0.649999 27.91 0.609999C27.87 0.519999 27.82 0.439999 27.76 0.359999C27.29 -0.240001 26.35 -0.140001 26 0.549999C25.68 1.18 25.37 1.82 25.05 2.46C25.02 2.53 24.97 2.56 24.89 2.57C24.2 2.66 23.52 2.76 22.83 2.86C22.65 2.89 22.49 2.93 22.34 3.03C21.78 3.4 21.71 4.17 22.19 4.65C22.49 4.95 22.79 5.24 23.1 5.53V5.57Z" fill="#7D7F82"/>
</g>
<defs>
<clipPath id="clip0_5534_20747">
<rect width="32" height="32" fill="white"/>
</clipPath>
</defs>
</svg>
