<svg width="32" height="32" viewBox="0 0 32 32" fill="none" xmlns="http://www.w3.org/2000/svg">
<path d="M23 12C23 12.5523 22.5523 13 22 13C21.4477 13 21 12.5523 21 12C21 11.4477 21.4477 11 22 11C22.5523 11 23 11.4477 23 12Z" fill="#7D7F82"/>
<path d="M20 17C20.5523 17 21 16.5523 21 16C21 15.4477 20.5523 15 20 15C19.4477 15 19 15.4477 19 16C19 16.5523 19.4477 17 20 17Z" fill="#7D7F82"/>
<path d="M19 12C19 12.5523 18.5523 13 18 13C17.4477 13 17 12.5523 17 12C17 11.4477 17.4477 11 18 11C18.5523 11 19 11.4477 19 12Z" fill="#7D7F82"/>
<path fill-rule="evenodd" clip-rule="evenodd" d="M16 22C22.0751 22 27 17.0751 27 11C27 4.92487 22.0751 0 16 0C9.92487 0 5 4.92487 5 11C5 17.0751 9.92487 22 16 22ZM16 20C20.9706 20 25 15.9706 25 11C25 6.02944 20.9706 2 16 2C11.0294 2 7 6.02944 7 11C7 15.9706 11.0294 20 16 20Z" fill="#7D7F82"/>
<path d="M10 25C10 24.4477 10.4477 24 11 24H21C21.5523 24 22 24.4477 22 25C22 25.5523 21.5523 26 21 26H17V31C17 31.5523 16.5523 32 16 32C15.4477 32 15 31.5523 15 31V26H11C10.4477 26 10 25.5523 10 25Z" fill="#7D7F82"/>
</svg>
