<svg width="32" height="32" viewBox="0 0 32 32" fill="none" xmlns="http://www.w3.org/2000/svg">
<g clip-path="url(#clip0_5534_20809)">
<path d="M11.9089 11.1867C12.5105 11.1867 12.9982 10.699 12.9982 10.0975C12.9982 9.49588 12.5105 9.0082 11.9089 9.0082C11.3074 9.0082 10.8197 9.49588 10.8197 10.0975C10.8197 10.699 11.3074 11.1867 11.9089 11.1867Z" fill="#7D7F82"/>
<path d="M20.1068 11.1867C20.7084 11.1867 21.1961 10.699 21.1961 10.0975C21.1961 9.49588 20.7084 9.0082 20.1068 9.0082C19.5052 9.0082 19.0176 9.49588 19.0176 10.0975C19.0176 10.699 19.5052 11.1867 20.1068 11.1867Z" fill="#7D7F82"/>
<path d="M31.4485 8.51598L29.9325 5.27424C29.8807 5.14323 29.8174 5.00299 29.7327 4.84694L29.7051 4.78782C29.7045 4.78653 29.7033 4.78586 29.7027 4.78458C29.3677 4.02356 28.233 1.60898 27.1037 0.966815C25.5489 0.0824138 18.4346 0.00228018 16.0364 0.00130298C15.9338 -0.00162872 15.8732 0.00130298 15.8527 0.00130298V0.00276888C15.8428 0.00276888 15.8333 0.00130298 15.8234 0.00130298C15.7687 0.00130298 15.7158 0.00863228 15.6614 0.00948738L15.6612 0.00130298C13.4282 0.021825 6.02853 0.062869 4.43857 0.966815C3.29911 1.61472 2.1528 4.0715 1.86843 4.72918C1.76423 4.91834 1.69045 5.08319 1.629 5.23692L0.0947403 8.51598C-0.139797 9.01633 0.0761728 9.61244 0.576519 9.846C0.713332 9.9105 0.857964 9.9408 0.999663 9.9408C1.3759 9.9408 1.7365 9.72776 1.90654 9.36423L2.82569 7.39979C3.59961 7.68234 4.74859 8.10719 5.57607 8.80622C5.68027 8.89417 5.78239 8.95879 5.88268 9.01248C5.85116 9.33485 5.83308 9.66112 5.83308 9.99161C5.83308 11.6949 6.42529 13.1256 6.99698 14.5094L7.20739 15.0204C8.75729 19.113 8.87132 25.2326 8.80194 28.5161C8.78239 29.4396 9.12833 30.3123 9.77429 30.9719C10.4232 31.6355 11.2929 32 12.2232 32H19.7656C21.6194 32 23.1537 30.4951 23.1869 28.6451C23.3038 22.1319 23.7602 17.199 24.4392 15.0689C24.5631 14.6968 24.7066 14.3222 24.8521 13.9436C25.3026 12.7709 25.8137 11.4428 25.8137 9.99161C25.8137 9.6406 25.7946 9.29411 25.7591 8.95232C25.8275 8.90926 25.8962 8.86528 25.9662 8.80622C26.7935 8.10731 27.9423 7.68252 28.7162 7.39998L29.6347 9.36423C29.8047 9.72776 30.1653 9.9408 30.5426 9.9408C30.6843 9.9408 30.8279 9.9105 30.9657 9.84698C31.4661 9.61244 31.682 9.01731 31.4485 8.51598ZM6.44484 6.55564C6.40575 6.65043 6.36177 6.75695 6.31779 6.86152C5.40603 6.23902 4.39166 5.84323 3.67632 5.57938C4.25582 4.27281 5.0855 2.90956 5.42753 2.7063C5.8497 2.47274 7.50221 2.28706 9.60523 2.16491C8.75894 2.80109 7.96444 3.62197 7.33608 4.68325C7.24806 4.83179 7.18638 4.97349 7.10991 5.11965C7.03863 5.24651 6.97438 5.37715 6.9086 5.50731C6.86352 5.60216 6.81594 5.69286 6.77478 5.78466C6.68145 5.98451 6.59435 6.18692 6.51416 6.39366C6.49315 6.44473 6.46493 6.50672 6.44484 6.55564ZM21.1855 28.61C21.1718 29.3888 20.5483 29.9986 19.7656 29.9986H17.0479V27.9477C18.118 27.5422 18.8823 26.5154 18.8823 25.3032C18.8823 23.7372 17.6128 22.4677 16.0468 22.4677C14.4808 22.4677 13.2114 23.7372 13.2114 25.3032C13.2114 26.5157 13.976 27.5426 15.0465 27.9479V29.9986H12.2232C11.8353 29.9986 11.4737 29.8471 11.204 29.5716C10.9372 29.2999 10.7955 28.9393 10.8033 28.5582C10.8756 25.13 10.7486 18.7203 9.07947 14.311L9.07483 14.3128C9.07208 14.3054 9.07361 14.2978 9.07068 14.2905L8.84689 13.7442C8.32602 12.4855 7.83447 11.2972 7.83447 9.99161C7.83447 8.9988 8.02485 8.05167 8.35723 7.17393C8.43657 6.98117 8.51847 6.78364 8.61107 6.57836C8.63245 6.53341 8.65376 6.4884 8.67593 6.44387C8.72968 6.32849 8.79552 6.2119 8.8555 6.09536C9.33826 5.23551 9.97242 4.47192 10.7262 3.8457C10.7557 3.82298 10.7847 3.79904 10.8144 3.77686C10.8739 3.72886 10.9372 3.6858 10.9981 3.63944C12.7791 2.39297 14.8364 2.0871 15.4902 2.01961C15.6016 2.01496 15.7109 2.00269 15.8234 2.00269C16.3548 2.00269 16.8735 2.05735 17.3762 2.15679C17.4037 2.16216 17.4288 2.16601 17.4568 2.17181C19.1398 2.52288 20.6238 3.41009 21.7375 4.63952C22.0016 4.95309 22.252 5.29922 22.4774 5.69176C22.7882 6.23218 23.0159 6.78627 23.2162 7.27391C23.3336 7.55902 23.4471 7.81585 23.565 8.05479C23.7206 8.67619 23.8123 9.32263 23.8123 9.99161C23.8123 11.0715 23.4097 12.1171 22.9846 13.2253C22.8364 13.6092 22.6952 13.988 22.5676 14.3645L22.5624 14.3628C22.5542 14.3878 22.5469 14.418 22.5387 14.4435C22.5356 14.453 22.5313 14.4628 22.5282 14.4723C22.5269 14.4763 22.528 14.4803 22.5268 14.4843C21.5262 17.6537 21.257 24.6729 21.1855 28.61ZM25.2895 6.82157C24.8602 5.54328 24.1789 4.38312 23.3049 3.39342C22.9186 2.92783 22.5083 2.52007 22.0826 2.1737C24.1153 2.29586 25.7023 2.47763 26.1137 2.7063C26.4499 2.90566 27.2561 4.22297 27.8688 5.5784C27.1716 5.83523 26.1869 6.22369 25.2895 6.82157Z" fill="#7D7F82"/>
</g>
<defs>
<clipPath id="clip0_5534_20809">
<rect width="32" height="32" fill="white"/>
</clipPath>
</defs>
</svg>
