<svg width="32" height="32" viewBox="0 0 32 32" fill="none" xmlns="http://www.w3.org/2000/svg">
<g clip-path="url(#clip0_5534_20748)">
<path d="M30.2039 -8.52731e-06H1.78609C1.31239 -8.52731e-06 0.858092 0.18817 0.523135 0.523128C0.188177 0.858085 0 1.31238 0 1.78609V4.16089C0 4.63459 0.188177 5.08889 0.523135 5.42385C0.858092 5.75881 1.31239 5.94698 1.78609 5.94698H9.14998V14.189C7.23725 14.4307 5.48904 15.3938 4.26262 16.8814C3.0362 18.369 2.42415 20.2688 2.55155 22.1925C2.67895 24.1162 3.53618 25.9187 4.94806 27.2316C6.35995 28.5444 8.21989 29.2686 10.1478 29.256C11.986 29.2614 13.7619 28.5901 15.1369 27.3701C15.6937 28.5641 16.5528 29.592 17.629 30.3519C18.7052 31.1118 19.9612 31.5775 21.2727 31.7027C22.5842 31.8279 23.9057 31.6084 25.1063 31.0658C26.3068 30.5233 27.3449 29.6766 28.1176 28.6095C28.8903 27.5424 29.3709 26.292 29.5117 24.9821C29.6526 23.6722 29.4488 22.3482 28.9207 21.1413C28.3925 19.9343 27.5582 18.8862 26.5004 18.1009C25.4426 17.3155 24.1981 16.82 22.8899 16.6635V5.90707H30.2039C30.6776 5.90707 31.1319 5.71889 31.4669 5.38394C31.8018 5.04898 31.99 4.59468 31.99 4.12098V1.74617C31.9796 1.27942 31.7868 0.835311 31.453 0.508938C31.1192 0.182564 30.6708 -0.000125109 30.2039 -8.52731e-06ZM10.1478 27.2204C8.74744 27.2356 7.3928 26.7225 6.35389 25.7834C5.31498 24.8443 4.66811 23.5482 4.54223 22.1534C4.41635 20.7587 4.82069 19.3677 5.67467 18.2577C6.52865 17.1478 7.76954 16.4004 9.14998 16.1646V17.8809C9.14998 18.1455 9.25511 18.3993 9.44224 18.5864C9.62936 18.7736 9.88316 18.8787 10.1478 18.8787C10.4124 18.8787 10.6662 18.7736 10.8534 18.5864C11.0405 18.3993 11.1456 18.1455 11.1456 17.8809V16.1846C12.1854 16.3806 13.1475 16.8699 13.9183 17.5948C14.6891 18.3197 15.2366 19.2498 15.4961 20.2756C14.7815 21.4481 14.4019 22.794 14.3985 24.1671C14.3965 24.5007 14.4165 24.834 14.4584 25.1649C13.9397 25.8085 13.2831 26.3274 12.537 26.6832C11.7909 27.039 10.9744 27.2226 10.1478 27.2204ZM27.5597 24.1671C27.5597 25.6438 26.9731 27.06 25.9289 28.1042C24.8848 29.1483 23.4686 29.735 21.9919 29.735C20.5152 29.735 19.099 29.1483 18.0548 28.1042C17.0107 27.06 16.4241 25.6438 16.4241 24.1671C16.4174 23.0573 16.748 21.9717 17.372 21.0539C17.781 20.4489 18.3052 19.9303 18.9147 19.528C19.5243 19.1256 20.2071 18.8474 20.9242 18.7091V20.2357C20.9242 20.5004 21.0294 20.7542 21.2165 20.9413C21.4036 21.1284 21.6574 21.2335 21.922 21.2335C22.1867 21.2335 22.4405 21.1284 22.6276 20.9413C22.8147 20.7542 22.9199 20.5004 22.9199 20.2357V18.6791C24.2097 18.9084 25.378 19.5836 26.2206 20.5867C27.0632 21.5898 27.5266 22.8571 27.5298 24.1671H27.5597ZM20.9242 16.6835C19.4732 16.8879 18.1136 17.5123 17.0128 18.4796C16.474 17.3263 15.6546 16.3266 14.6296 15.5718C13.6047 14.817 12.4068 14.3313 11.1456 14.159V5.90707H20.8943L20.9242 16.6835ZM30.0243 3.91143H1.99563V1.99563H29.9944L30.0243 3.91143Z" fill="#7D7F82"/>
</g>
<defs>
<clipPath id="clip0_5534_20748">
<rect width="32" height="32" fill="white"/>
</clipPath>
</defs>
</svg>
