<svg width="32" height="32" viewBox="0 0 32 32" fill="none" xmlns="http://www.w3.org/2000/svg">
<g clip-path="url(#clip0_5534_20728)">
<path d="M27.9101 4.2C27.4986 4.20425 27.0915 4.28566 26.7101 4.44C26.5427 3.77119 26.1565 3.17755 25.6129 2.75353C25.0693 2.32951 24.3995 2.09946 23.7101 2.1C23.2981 2.09947 22.8901 2.18106 22.5101 2.34C22.3411 1.67204 21.9546 1.07939 21.4113 0.655639C20.868 0.231891 20.199 0.00119935 19.5101 0C18.8211 0.00119935 18.1521 0.231891 17.6089 0.655639C17.0656 1.07939 16.679 1.67204 16.5101 2.34C16.1655 2.2034 15.8004 2.12565 15.4301 2.11C15.3701 2.11 15.3101 2.01 15.2401 1.97C13.6244 0.879611 11.7193 0.297967 9.77007 0.300001C7.17799 0.302652 4.69296 1.33421 2.86101 3.16803C1.02907 5.00185 4.81123e-05 7.48791 4.94673e-05 10.08C-0.00525944 11.7433 0.416836 13.3802 1.22582 14.8335C2.0348 16.2869 3.2036 17.5081 4.62011 18.38C4.85011 18.53 5.1101 18.64 5.3601 18.77L10.1401 27.57C10.8917 28.9418 11.9985 30.0862 13.3444 30.8832C14.6903 31.6802 16.2259 32.1005 17.7901 32.1H22.3401C24.6466 32.0974 26.858 31.1799 28.489 29.5489C30.12 27.9179 31.0374 25.7066 31.0401 23.4V7.3C31.0401 6.89037 30.9589 6.48479 30.8013 6.10671C30.6436 5.72863 30.4126 5.38555 30.1215 5.09729C29.8305 4.80904 29.4852 4.58132 29.1056 4.42731C28.7261 4.27329 28.3197 4.19604 27.9101 4.2ZM6.64006 16.88V16.69C6.62036 16.4045 6.7097 16.1222 6.89006 15.9C6.93738 15.8474 6.98747 15.7973 7.04009 15.75C7.09445 15.7021 7.15499 15.6618 7.22008 15.63C7.37974 15.5437 7.5586 15.499 7.7401 15.5C7.94419 15.4944 8.14583 15.5456 8.32244 15.648C8.49905 15.7505 8.64366 15.9 8.7401 16.08L12.3401 22.97C12.3728 23.0315 12.4131 23.0886 12.4601 23.14L12.5301 23.21C12.5891 23.2622 12.6527 23.3091 12.7201 23.35C12.7954 23.3936 12.8761 23.4273 12.9601 23.45C13.0864 23.4678 13.2148 23.4644 13.3401 23.44H13.4401H13.5701H13.6601L13.7601 23.39L13.8801 23.28L14.1001 22.95C14.1254 22.8858 14.1422 22.8186 14.1501 22.75C14.1549 22.6934 14.1549 22.6366 14.1501 22.58V5.2C14.1527 4.90907 14.2694 4.63079 14.4751 4.42507C14.6809 4.21934 14.9591 4.10261 15.25 4.1C15.5418 4.1 15.8216 4.21589 16.0279 4.42218C16.2342 4.62847 16.3501 4.90826 16.3501 5.2V14.3C16.3501 14.5652 16.4555 14.8196 16.643 15.0071C16.8305 15.1946 17.0849 15.3 17.3501 15.3C17.6153 15.3 17.8696 15.1946 18.0572 15.0071C18.2447 14.8196 18.3501 14.5652 18.3501 14.3V3.1C18.3501 2.80826 18.4659 2.52847 18.6722 2.32218C18.8785 2.11589 19.1583 2 19.4501 2C19.7418 2 20.0216 2.11589 20.2279 2.32218C20.4342 2.52847 20.5501 2.80826 20.5501 3.1V14.3C20.5501 14.5652 20.6554 14.8196 20.8429 15.0071C21.0305 15.1946 21.2849 15.3 21.5501 15.3C21.8153 15.3 22.0697 15.1946 22.2572 15.0071C22.4447 14.8196 22.5501 14.5652 22.5501 14.3V5.2C22.5527 4.90907 22.6694 4.63079 22.8752 4.42507C23.0809 4.21934 23.3591 4.10261 23.6501 4.1C23.9418 4.1 24.2216 4.21589 24.4279 4.42218C24.6342 4.62847 24.75 4.90826 24.75 5.2V14.3C24.75 14.5652 24.8554 14.8196 25.043 15.0071C25.2305 15.1946 25.4848 15.3 25.75 15.3C26.0153 15.3 26.2697 15.1946 26.4572 15.0071C26.6447 14.8196 26.75 14.5652 26.75 14.3V7.3C26.7527 7.00907 26.8694 6.73079 27.0751 6.52507C27.2808 6.31934 27.5592 6.20261 27.8501 6.2C28.1418 6.2 28.4216 6.31589 28.6279 6.52218C28.8342 6.72847 28.9501 7.00826 28.9501 7.3V23.44C28.9474 25.2161 28.2407 26.9188 26.9848 28.1747C25.7289 29.4306 24.0262 30.1374 22.25 30.14H17.7201C16.5159 30.1384 15.3341 29.8138 14.2981 29.1999C13.2621 28.5861 12.4098 27.7055 11.8301 26.65L6.73009 17.12C6.69181 17.0434 6.66162 16.9629 6.64006 16.88ZM8.00005 2.52C8.01527 2.79646 8.01527 3.07354 8.00005 3.35C8.00369 5.10218 7.41197 6.80362 6.32183 8.17539C5.23168 9.54716 3.70779 10.5079 2.00005 10.9C1.96845 10.6278 1.95177 10.354 1.95006 10.08C1.95491 8.32889 2.54964 6.63048 3.63823 5.25885C4.72683 3.88722 6.2458 2.92237 7.95006 2.52H8.00005ZM2.50005 12.85C4.64023 12.3479 6.54708 11.1352 7.90923 9.40984C9.27138 7.68445 10.0084 5.54827 10 3.35C10 3 10.0001 2.66 9.94005 2.35C11.0292 2.37355 12.1016 2.62209 13.0901 3.08C12.5231 3.65559 12.2067 4.43206 12.2101 5.24V18.44L10.4401 15.15C10.0538 14.425 9.39553 13.883 8.60991 13.643C7.8243 13.403 6.97552 13.4847 6.25005 13.87C6.16286 13.9133 6.07926 13.9634 6.00005 14.02H5.94005C5.86028 14.0678 5.78646 14.1249 5.72008 14.19C5.24588 14.5677 4.89723 15.0802 4.72008 15.66C4.72008 15.75 4.72008 15.83 4.72008 15.92C3.73564 15.0978 2.97245 14.0425 2.50005 12.85Z" fill="#7D7F82"/>
</g>
<defs>
<clipPath id="clip0_5534_20728">
<rect width="32" height="32" fill="white"/>
</clipPath>
</defs>
</svg>
