<svg width="32" height="32" viewBox="0 0 32 32" fill="none" xmlns="http://www.w3.org/2000/svg">
<g clip-path="url(#clip0_5534_20715)">
<path d="M30.5638 13.07L21.5638 5.28C21.187 4.95131 20.7039 4.77014 20.2038 4.76999H18.9338C18.8726 4.0599 18.6683 3.36956 18.3332 2.74054C17.9981 2.11152 17.5391 1.55689 16.9838 1.11002C16.5141 0.70587 15.9665 0.402367 15.3748 0.218323C14.7831 0.0342791 14.1599 -0.0264001 13.5438 0.040009C13.242 0.0987905 12.9758 0.27503 12.8038 0.529999C12.4738 1.02 12.5538 1.42002 12.8838 3.11002C12.9738 3.55002 13.0838 4.10999 13.2038 4.76999H10.4938C9.99433 4.77555 9.51688 4.97661 9.16384 5.33002L4.99384 9.33002L0.753835 13.33C0.509188 13.5735 0.315867 13.8635 0.185323 14.183C0.0547795 14.5025 -0.0103268 14.8449 -0.00615954 15.19V27.38C-0.00615954 28.4409 0.415265 29.4583 1.16541 30.2084C1.91556 30.9586 2.93297 31.38 3.99384 31.38H13.2638C14.6159 31.3454 15.9318 30.9363 17.0653 30.1984C18.1987 29.4604 19.1052 28.4225 19.6838 27.2C21.4705 27.0367 23.1352 26.2237 24.3626 24.9152C25.5901 23.6067 26.295 21.8935 26.3438 20.1C26.8103 20.2773 27.3049 20.3687 27.8038 20.37C28.4525 20.3708 29.0925 20.2213 29.6737 19.9333C30.2549 19.6453 30.7615 19.2266 31.1538 18.71C31.778 17.8662 32.0636 16.8193 31.9544 15.7754C31.8452 14.7315 31.3491 13.7664 30.5638 13.07ZM20.2638 6.79001L27.9138 13.42L25.0338 17.49L16.2838 14.06L15.9938 11.27L15.6338 6.76999H20.2138L20.2638 6.79001ZM15.7538 2.67001C16.4052 3.19292 16.834 3.94335 16.9538 4.76999H15.2538C15.0938 3.91999 14.9638 3.24 14.8538 2.72C14.8538 2.5 14.7738 2.30002 14.7338 2.11002C15.1071 2.22832 15.4536 2.41857 15.7538 2.67001ZM4.02384 29.44C3.49341 29.44 2.9847 29.2293 2.60962 28.8542C2.23455 28.4791 2.02384 27.9704 2.02384 27.44V15.25C2.01579 15.1004 2.06596 14.9534 2.16384 14.84L6.42383 10.84L10.5838 6.84H13.5838L14.0638 11.52L14.3638 15.23C14.3688 15.2999 14.3688 15.3701 14.3638 15.44L14.0838 16.93C13.7757 16.8868 13.465 16.8634 13.1538 16.86C12.1917 16.86 11.239 17.0497 10.3503 17.4182C9.46153 17.7866 8.65413 18.3267 7.97428 19.0075C7.29442 19.6883 6.75543 20.4964 6.38816 21.3857C6.02088 22.2749 5.83252 23.2279 5.83384 24.19C5.83651 24.5853 5.86993 24.9799 5.93383 25.37C6.04676 26.0634 6.25894 26.737 6.56383 27.37C6.95343 28.161 7.4818 28.8757 8.12383 29.48L4.02384 29.44ZM13.1038 29.44C12.9938 29.44 12.9038 29.44 12.7938 29.44C12.0794 29.4031 11.3808 29.2156 10.7438 28.89C10.0133 28.5317 9.37637 28.0078 8.88384 27.36C8.43412 26.7677 8.11695 26.0856 7.95383 25.36C7.86117 24.9735 7.81418 24.5774 7.81383 24.18C7.81383 22.7681 8.37401 21.4139 9.37142 20.4146C10.3688 19.4154 11.722 18.8527 13.1338 18.85C13.2737 18.8402 13.414 18.8402 13.5538 18.85C14.2263 18.8948 14.8828 19.0751 15.4838 19.38C16.378 19.812 17.1332 20.4861 17.6635 21.3257C18.1938 22.1654 18.478 23.1369 18.4838 24.13C18.4812 24.5202 18.4377 24.909 18.3538 25.29C18.187 26.0143 17.8701 26.6956 17.4238 27.29C16.9227 27.9669 16.2679 28.5148 15.5132 28.8886C14.7586 29.2625 13.9259 29.4515 13.0838 29.44H13.1038ZM20.3538 25.1C20.3982 24.7685 20.4216 24.4345 20.4238 24.1C20.4242 22.6628 20.0015 21.2573 19.2083 20.0587C18.4152 18.8601 17.2868 17.9216 15.9638 17.36L16.1938 16.15L24.3838 19.36V19.94C24.3842 21.1294 23.9852 22.2845 23.2509 23.2202C22.5165 24.1558 21.4893 24.8178 20.3338 25.1H20.3538ZM29.5838 17.55C29.38 17.8212 29.1156 18.041 28.8118 18.1921C28.508 18.3431 28.1731 18.4212 27.8338 18.42C27.5634 18.4206 27.2952 18.3697 27.0438 18.27H26.9738L29.4438 14.79C29.7778 15.1663 29.9721 15.646 29.9939 16.1487C30.0158 16.6513 29.8639 17.1462 29.5638 17.55H29.5838Z" fill="#7D7F82"/>
<path d="M18.9937 11.32C19.5626 11.32 20.0237 10.8589 20.0237 10.29C20.0237 9.72116 19.5626 9.26001 18.9937 9.26001C18.4249 9.26001 17.9637 9.72116 17.9637 10.29C17.9637 10.8589 18.4249 11.32 18.9937 11.32Z" fill="#7D7F82"/>
<path d="M14.4338 20.92C14.3828 20.8079 14.3116 20.7062 14.2238 20.62L14.1238 20.55C14.0569 20.4939 13.9829 20.4468 13.9038 20.41C13.8226 20.3838 13.7387 20.367 13.6538 20.36C13.6106 20.3553 13.567 20.3553 13.5238 20.36C13.3968 20.3653 13.2716 20.3923 13.1538 20.44C13.0346 20.4887 12.9259 20.56 12.8338 20.65L10.5838 22.97C10.3975 23.1573 10.293 23.4108 10.293 23.675C10.293 23.9391 10.3975 24.1926 10.5838 24.38C10.7716 24.5611 11.0228 24.6615 11.2838 24.66C11.4161 24.6594 11.547 24.6326 11.6688 24.5811C11.7907 24.5296 11.9012 24.4545 11.9938 24.36L12.5238 23.81V27.04C12.5238 27.3052 12.6291 27.5595 12.8167 27.7471C13.0042 27.9346 13.2586 28.04 13.5238 28.04C13.789 28.04 14.0433 27.9346 14.2309 27.7471C14.4184 27.5595 14.5238 27.3052 14.5238 27.04V21.34C14.5298 21.1946 14.4988 21.0501 14.4338 20.92Z" fill="#7D7F82"/>
</g>
<defs>
<clipPath id="clip0_5534_20715">
<rect width="32" height="32" fill="white"/>
</clipPath>
</defs>
</svg>
