<svg width="32" height="32" viewBox="0 0 32 32" fill="none" xmlns="http://www.w3.org/2000/svg">
<g clip-path="url(#clip0_5534_20770)">
<path fill-rule="evenodd" clip-rule="evenodd" d="M19.504 19.0898C19.5435 19.0189 19.5948 18.921 19.6578 18.7914C19.8503 18.3955 20.0905 17.8318 20.3692 17.1221C20.9237 15.7103 21.5798 13.8513 22.2413 11.8905C23.5617 7.97588 24.8703 3.7548 25.3728 2.11755C25.7626 0.847595 26.9321 0 28.2418 0H28.9045C30.9084 1.90735e-06 32.2929 1.90964 31.802 3.77524C29.0745 14.1415 27.3706 20.1181 25.9928 23.6505C25.3022 25.4212 24.6403 26.7227 23.8816 27.6878C23.0693 28.7211 22.2056 29.2945 21.276 29.7011C19.3496 30.5439 16.747 31.1064 14.0414 31.465C11.3011 31.8282 8.31314 32 5.5376 32C3.91056 32 2.39535 31.6166 1.32092 30.5093C0.254877 29.4106 0 27.9849 0 26.77V25.0737C0 22.3648 2.16817 20.125 5.19702 20.125C5.35372 20.125 5.63209 20.1321 6.00851 20.1418C7.30804 20.1751 9.77631 20.2384 12.4422 20.1414C14.1411 20.0796 15.8252 19.9537 17.2089 19.7256C17.9009 19.6115 18.4751 19.4785 18.9179 19.3325C19.2154 19.2344 19.4 19.1476 19.504 19.0898ZM20.4746 27.8687C23.1681 26.6907 24.3965 24.061 29.8679 3.26633C30.0346 2.63262 29.5598 2 28.9045 2H28.2418C27.8013 2 27.414 2.28326 27.2848 2.70441C26.2768 5.98839 22.0249 19.6729 20.9009 20.5496C18.6272 22.4709 8.67978 22.2125 5.86171 22.1393L5.86047 22.1393C5.53911 22.1309 5.31063 22.125 5.19702 22.125C3.23165 22.125 2 23.51 2 25.0737V26.77C2 28.7208 2.8376 30 5.5376 30C10.9376 30 17.1345 29.33 20.4746 27.8687ZM19.4379 19.2009C19.4273 19.2172 19.4219 19.2236 19.4219 19.2236C19.4219 19.2236 19.4272 19.2149 19.4379 19.2009Z" fill="#7D7F82"/>
<path fill-rule="evenodd" clip-rule="evenodd" d="M2 8C2 6.99672 2.51656 6.24329 3.01871 5.7684C3.51664 5.2975 4.12982 4.96558 4.72168 4.72883C5.9165 4.25091 7.42998 4 9 4C10.57 4 12.0835 4.25091 13.2783 4.72883C13.8702 4.96558 14.4834 5.2975 14.9813 5.7684C15.4834 6.24329 16 6.99672 16 8V12.1148C16 12.4777 15.9354 12.9619 15.6286 13.4029C14.9548 14.371 13.1607 16 9 16C4.83926 16 3.0452 14.371 2.37143 13.4029C2.06455 12.9619 2 12.4777 2 12.1148V8ZM13.2783 11.2712C12.0835 11.7491 10.57 12 9 12C7.42998 12 5.9165 11.7491 4.72168 11.2712C4.48159 11.1751 4.23799 11.0634 4 10.9331V12.1148C4 12.1829 4.00651 12.2265 4.01256 12.2511C4.01439 12.2585 4.01595 12.2633 4.01692 12.266C4.29661 12.6648 5.46138 14 9 14C12.5386 14 13.7034 12.6648 13.9831 12.266C13.9841 12.2633 13.9856 12.2585 13.9874 12.2511C13.9935 12.2265 14 12.1829 14 12.1148V10.9331C13.762 11.0634 13.5184 11.1751 13.2783 11.2712ZM14 8C14 9.10457 11.7614 10 9 10C6.23858 10 4 9.10457 4 8C4 6.89543 6.23858 6 9 6C11.7614 6 14 6.89543 14 8Z" fill="#7D7F82"/>
</g>
<defs>
<clipPath id="clip0_5534_20770">
<rect width="32" height="32" fill="white"/>
</clipPath>
</defs>
</svg>
