<svg width="32" height="32" viewBox="0 0 32 32" fill="none" xmlns="http://www.w3.org/2000/svg">
<g clip-path="url(#clip0_5534_20778)">
<path d="M21.97 2.24506C22.0642 2.02923 22.1077 1.7948 22.0973 1.55963C22.0869 1.32447 22.0228 1.09477 21.91 0.888048C21.7588 0.614047 21.5354 0.386493 21.264 0.229978C20.9926 0.0734631 20.6834 -0.00606045 20.37 2.02426e-06H11.65C11.337 -0.00388781 11.0287 0.0765528 10.7577 0.232844C10.4867 0.389136 10.2629 0.615489 10.11 0.888048C9.9986 1.0973 9.93623 1.32903 9.92757 1.56581C9.91891 1.80259 9.96418 2.03825 10.06 2.25504C7.17555 3.23662 4.66331 5.07938 2.86379 7.53356C1.06428 9.98774 0.0645099 12.9346 0 15.9749V24.8753C0.0104673 25.5335 0.27921 26.1614 0.748516 26.624C1.21782 27.0867 1.85026 27.3473 2.51 27.3498H5.92L5.65 29.1359C5.59725 29.4906 5.62176 29.8525 5.72185 30.1968C5.82194 30.5412 5.99526 30.86 6.23 31.1315C6.46387 31.406 6.75519 31.626 7.08346 31.7759C7.41173 31.9259 7.76896 32.0023 8.13 31.9996H23.79C24.151 32.0023 24.5083 31.9259 24.8365 31.7759C25.1648 31.626 25.4561 31.406 25.69 31.1315C25.9259 30.8605 26.1007 30.5421 26.2025 30.1977C26.3043 29.8534 26.3307 29.4913 26.28 29.1359L26.01 27.3498H29.51C30.1671 27.3447 30.7959 27.0826 31.2614 26.6199C31.727 26.1573 31.9922 25.5309 32 24.8753V15.9749C31.9498 12.934 30.9592 9.9829 29.1638 7.52525C27.3684 5.06761 24.8559 3.22345 21.97 2.24506ZM19.77 2.00559L16.01 7.73299L12.26 2.00559H19.77ZM6.19 25.3542H2.51C2.37819 25.3517 2.2525 25.2983 2.15928 25.2053C2.06606 25.1123 2.01256 24.9868 2.01 24.8553V15.9749C2.08529 13.274 3.00912 10.6651 4.65097 8.51657C6.29283 6.36805 8.56972 4.78855 11.16 4.0012L14.51 9.14988C14.5854 9.2529 14.669 9.34967 14.76 9.43924L8.9 17.5614L7.81 11.7442C7.78598 11.615 7.73661 11.4918 7.66475 11.3817C7.59288 11.2715 7.49992 11.1767 7.3912 11.1025C7.28249 11.0283 7.16017 10.9763 7.03125 10.9494C6.90234 10.9226 6.76938 10.9214 6.64 10.9459C6.51051 10.9699 6.38705 11.0191 6.27669 11.0909C6.16633 11.1626 6.07126 11.2553 5.99692 11.3638C5.92259 11.4723 5.87046 11.5943 5.84353 11.723C5.8166 11.8516 5.8154 11.9843 5.84 12.1134L7.15 19.098C7.15998 19.1675 7.15998 19.238 7.15 19.3075L6.91 20.7943L6.19 25.3542ZM24.19 29.8444C24.145 29.9017 24.0872 29.9477 24.0213 29.9789C23.9553 30.0101 23.883 30.0255 23.81 30.024H8.13C8.05727 30.024 7.98544 30.008 7.91971 29.9769C7.85398 29.9458 7.79601 29.9006 7.75 29.8444C7.70116 29.7911 7.665 29.7276 7.64422 29.6585C7.62344 29.5894 7.61858 29.5165 7.63 29.4452L8.88 21.2632H14.45L12.75 26.6713C12.7098 26.7971 12.695 26.9296 12.7065 27.0611C12.718 27.1926 12.7555 27.3205 12.8169 27.4375C12.8783 27.5544 12.9623 27.658 13.0641 27.7423C13.1659 27.8266 13.2835 27.8899 13.41 27.9286C13.5094 27.9436 13.6106 27.9436 13.71 27.9286C13.9319 27.938 14.1506 27.8735 14.3316 27.7453C14.5127 27.617 14.6458 27.4322 14.71 27.2201L16.02 23.0693L17.71 27.3498C17.7857 27.5336 17.9146 27.6907 18.0803 27.8009C18.246 27.9111 18.4409 27.9695 18.64 27.9685C18.77 27.9701 18.8991 27.9463 19.02 27.8986C19.1425 27.8493 19.254 27.7763 19.3481 27.6838C19.4422 27.5912 19.517 27.481 19.5681 27.3595C19.6192 27.2379 19.6457 27.1075 19.6461 26.9757C19.6464 26.8439 19.6205 26.7133 19.57 26.5915L17.39 21.2632H23.08L23.84 26.5217C23.8443 26.5414 23.8443 26.5618 23.84 26.5815L24.27 29.4652C24.2848 29.5349 24.2835 29.6071 24.2662 29.6763C24.2489 29.7454 24.216 29.8097 24.17 29.8643L24.19 29.8444ZM30.01 24.8553C30.01 24.9876 29.9573 25.1145 29.8636 25.2081C29.7698 25.3017 29.6426 25.3542 29.51 25.3542H25.72L25.05 20.7943L24.83 19.2377C24.82 19.1682 24.82 19.0976 24.83 19.0281L26.03 12.0435C26.0529 11.9137 26.0499 11.7807 26.021 11.6521C25.9921 11.5235 25.938 11.4019 25.8618 11.2942C25.7855 11.1866 25.6887 11.0952 25.5768 11.0251C25.4649 10.955 25.3403 10.9078 25.21 10.8861C25.0799 10.8632 24.9466 10.8662 24.8177 10.895C24.6888 10.9238 24.5669 10.9778 24.4591 11.0539C24.3512 11.13 24.2596 11.2266 24.1893 11.3382C24.1191 11.4499 24.0718 11.5743 24.05 11.7043L22.85 18.6889C22.8348 18.8715 22.8348 19.0551 22.85 19.2377H10.15L17.51 9.18979L20.89 4.04111C26.38 5.88705 30.02 10.6166 30.02 16.0148L30.01 24.8553Z" fill="#7D7F82"/>
</g>
<defs>
<clipPath id="clip0_5534_20778">
<rect width="32" height="32" fill="white"/>
</clipPath>
</defs>
</svg>
