<svg width="32" height="32" viewBox="0 0 32 32" fill="none" xmlns="http://www.w3.org/2000/svg">
<path d="M22.6961 9.40018C24.7368 9.40018 26.3971 7.73987 26.3971 5.70009C26.3971 3.66031 24.7368 2 22.6961 2C20.6563 2 18.996 3.66031 18.996 5.70009C18.996 7.73987 20.6563 9.40018 22.6961 9.40018ZM22.6961 3.99783C23.6355 3.99783 24.3993 4.76165 24.3993 5.70009C24.3993 6.63853 23.6355 7.40235 22.6961 7.40235C21.7576 7.40235 20.9938 6.63853 20.9938 5.70009C20.9938 4.76165 21.7576 3.99783 22.6961 3.99783Z" fill="#7D7F82"/>
<path d="M14.0092 12.315C16.05 12.315 17.7103 10.6547 17.7103 8.61392C17.7103 6.57414 16.05 4.91383 14.0092 4.91383C11.9694 4.91383 10.3091 6.57414 10.3091 8.61392C10.3091 10.6547 11.9694 12.315 14.0092 12.315ZM14.0092 6.91167C14.9486 6.91167 15.7124 7.67549 15.7124 8.61392C15.7124 9.55333 14.9486 10.3172 14.0092 10.3172C13.0708 10.3172 12.3069 9.55333 12.3069 8.61392C12.3069 7.67549 13.0708 6.91167 14.0092 6.91167Z" fill="#7D7F82"/>
<path d="M17.006 19.6791C13.7939 19.2134 13.0378 18.9737 13.1661 15.5931C13.231 15.2048 13.0644 14.7984 12.7089 14.5782L12.5469 14.4787C9.76966 12.7598 8.82244 12.1999 8.23422 12.1374C7.09483 12.0097 5.50963 12.7686 3.58106 14.3821C3.44059 14.4991 0.138501 17.2803 0.0272937 18.8411C-0.0483079 19.9 0.727218 20.9274 1.79393 21.9561L1.89051 22.8017C2.0183 23.9098 2.0183 23.9098 2.03001 24.4503C2.03586 24.7049 2.04366 25.0687 2.0661 25.6804C2.08756 26.2881 1.13547 27.8489 0.233125 28.9269C-0.120983 29.3502 -0.0653794 29.9794 0.357014 30.3345C0.544311 30.4906 0.772579 30.5677 0.998896 30.5677C1.28374 30.5677 1.56664 30.4467 1.76369 30.2106C2.15877 29.7404 4.12246 27.3104 4.06198 25.6092C4.04052 25.0112 4.03272 24.6561 4.02784 24.4064C4.01747 23.9254 4.01126 23.7813 3.95053 23.2342C4.05064 23.1881 4.07483 23.1673 4.11475 23.1475C4.44022 22.9856 5.26466 22.2864 5.26466 22.2864C5.28234 22.3076 5.28904 22.3339 5.30868 22.3539C5.85789 22.9119 6.18663 23.2406 6.39734 23.4504C6.70853 23.7625 6.71048 23.7606 6.85485 23.945C6.97679 24.101 7.18457 24.3654 7.66452 24.9409C7.95327 25.3653 7.80499 27.4597 7.35333 29.3346C7.22359 29.8711 7.55331 30.4106 8.08984 30.5394C8.16886 30.5589 8.2469 30.5677 8.32494 30.5677C8.77562 30.5677 9.18436 30.2604 9.29459 29.8029C9.63407 28.3981 10.3042 24.9887 9.20387 23.6669C8.74148 23.1129 8.54248 22.8602 8.42542 22.7109C8.23031 22.4612 8.23129 22.4602 7.80987 22.0378C7.61404 21.842 7.30554 21.534 6.81705 21.0383L11.2493 17.4744C11.6751 20.6551 13.6831 21.2163 16.7192 21.6554C16.7679 21.6632 16.8157 21.6662 16.8635 21.6662C17.3523 21.6662 17.7795 21.3082 17.8507 20.8107C17.9307 20.2644 17.5522 19.7581 17.006 19.6791ZM7.88011 14.107C7.90157 14.107 7.92303 14.108 7.94352 14.1099C8.2547 14.203 9.34361 14.8534 10.4645 15.5413L3.69105 20.9877C2.23974 19.6749 2.01025 19.1775 2.00854 19.0567C2.349 17.9417 6.53684 14.107 7.88011 14.107Z" fill="#7D7F82"/>
<path d="M29.1793 13.7422C29.6456 14.5089 30.0748 15.7166 29.9919 16.5418C29.9372 17.0911 30.3372 17.5808 30.8864 17.6354C30.9206 17.6383 30.9537 17.6403 30.9869 17.6403C31.4942 17.6403 31.9283 17.2559 31.98 16.7409C32.1224 15.3215 31.4795 13.6787 30.8864 12.7042C29.7178 10.7815 25.8089 10.4947 25.7572 10.4947C25.747 10.495 25.7387 10.5007 25.7287 10.5013C25.7189 10.502 25.7103 10.4976 25.7006 10.4986C23.5613 10.7298 21.5811 11.04 20.8533 12.2808L20.8516 12.2847L20.8416 12.2789C20.2076 13.3246 18.798 15.1459 16.4919 15.5927C15.9495 15.6971 15.5954 16.2209 15.7007 16.7623C15.7924 17.2403 16.2109 17.572 16.6801 17.572C16.7426 17.572 16.807 17.5661 16.8704 17.5534C18.5065 17.2373 19.7747 16.4267 20.7365 15.5352C20.9307 16.7794 21.2345 17.882 21.2592 17.971C21.5738 19.0971 21.9305 20.0169 22.3237 20.744C22.2521 20.7868 22.1769 20.8224 22.1157 20.8848C21.5752 21.434 21.2494 21.7598 21.0416 21.9676C20.6182 22.392 20.6192 22.3929 20.4241 22.6417C20.3071 22.7909 20.109 23.0436 19.6457 23.5987C18.5512 24.9127 19.1667 28.3776 19.4828 29.8068C19.5862 30.2731 19.9988 30.5901 20.4573 30.5901C20.5285 30.5901 20.6007 30.5823 20.6739 30.5667C21.2123 30.4477 21.5528 29.915 21.4338 29.3756C21.0085 27.447 20.8904 25.3009 21.1811 24.8785C21.6659 24.2961 21.8737 24.0318 21.9957 23.8757C22.14 23.6913 22.142 23.6933 22.4551 23.3801C22.6649 23.1704 22.9936 22.8407 23.5399 22.2856C23.5445 22.281 23.5457 22.2746 23.5501 22.2699C23.6411 22.3364 23.7321 22.4037 23.8257 22.4544C24.3142 22.7178 25.3382 22.8001 28.1594 22.9372C29.8497 29.3919 29.988 29.8994 29.988 29.8994C30.1089 30.3433 30.5118 30.635 30.9508 30.635C31.0376 30.635 31.1264 30.6233 31.2142 30.5998C31.7468 30.4545 32.0599 29.9053 31.9156 29.3736C31.9107 29.3544 31.733 28.6997 29.8634 21.5559L29.8699 21.554L29.8152 21.3717C29.8013 21.3187 29.7895 21.2732 29.7753 21.2194C29.7723 21.2078 29.7636 21.1999 29.7602 21.1885L27.2292 12.7632C28.0496 12.9834 28.9246 13.3228 29.1793 13.7422ZM22.5761 13.2924C22.6745 13.1336 23.1487 12.8472 25.089 12.5853L27.5897 20.91C26.2784 20.844 25.0279 20.77 24.7749 20.6965C23.5818 20.0517 22.2532 14.3548 22.5761 13.2924Z" fill="#7D7F82"/>
</svg>
