<svg width="32" height="32" viewBox="0 0 32 32" fill="none" xmlns="http://www.w3.org/2000/svg">
<path d="M13.34 7.94147C13.88 8.03147 14.4 7.66147 14.49 7.12147C14.58 6.58147 14.21 6.06147 13.67 5.97147C9.79002 5.32147 6.08002 7.84147 5.25002 11.6915L5.02002 12.7415C4.90002 13.2815 5.25002 13.8115 5.79002 13.9315C6.33002 14.0515 6.86002 13.7015 6.98002 13.1615L7.21002 12.1115C7.81002 9.30147 10.51 7.47147 13.34 7.94147Z" fill="#7D7F82"/>
<path d="M29.02 21.0815C28.91 21.0015 28.78 20.9515 28.64 20.9115C28.55 20.8915 28.45 20.8715 28.35 20.8715C28.02 20.8715 27.77 20.9515 27.59 21.1015C27.41 21.2515 27.25 21.4815 27.12 21.7815L26.48 23.2815L24.85 27.0815L24.72 26.7915L23.61 24.2215L22.57 21.8015C22.44 21.5015 22.28 21.2715 22.1 21.1115C21.92 20.9515 21.66 20.8815 21.31 20.8815C21.02 20.8815 20.79 20.9515 20.6 21.0815C20.41 21.2115 20.29 21.4015 20.24 21.6415C20.19 21.8815 20.24 22.1515 20.37 22.4615L22.52 27.2015L23.5 29.3715C23.56 29.5015 23.63 29.6115 23.7 29.7115C23.79 29.8415 23.89 29.9515 24.01 30.0315C24.21 30.1715 24.48 30.2415 24.81 30.2415C25.14 30.2415 25.39 30.1715 25.59 30.0315C25.79 29.8915 25.96 29.6715 26.09 29.3715L26.17 29.1915L29.23 22.4615C29.37 22.1615 29.41 21.8915 29.37 21.6515C29.32 21.4115 29.21 21.2315 29.03 21.0915L29.02 21.0815Z" fill="#7D7F82"/>
<path d="M31.24 15.5715C29.69 10.1215 25.73 5.01147 19.66 3.13147C14.4 1.49147 10.18 1.69147 6.94002 3.36147C3.70002 5.03147 1.82002 7.98147 0.870025 11.0815C-0.0899751 14.1715 -0.179975 17.5615 0.240025 20.4715C0.640025 23.2815 1.59002 26.0615 3.13002 27.6215C3.43002 27.9215 3.81002 28.1215 4.22002 28.1915L16.06 30.2015C16.06 30.2015 16.21 30.2315 16.29 30.2315C16.84 30.2315 17.29 29.7815 17.29 29.2315C17.29 28.7315 16.92 28.3415 16.45 28.2615L4.57002 26.2215C0.220025 21.8015 -0.679976 -1.09853 19.06 5.04147C22.06 5.97147 24.5 7.82148 26.31 10.1415L13.68 11.7015C12.96 11.7915 12.3 12.1515 11.85 12.7115C11.25 13.4615 11.06 14.4615 11.37 15.3715L12.38 18.3615C13.05 20.3515 14.42 21.9815 16.19 23.0015C16.21 23.0115 16.51 23.1415 16.71 23.1415C17.26 23.1415 17.71 22.6915 17.71 22.1415C17.71 21.7715 17.48 21.4815 17.19 21.2815C16.25 20.6215 14.79 19.2415 14.27 17.7215L13.26 14.7315C13.17 14.4715 13.22 14.1815 13.4 13.9715C13.53 13.8115 13.72 13.7115 13.92 13.6815L27.56 12.0015C28.79 14.1115 29.88 18.8615 29.88 18.8715C30 19.4015 30.34 19.7715 30.86 19.7715C31.41 19.7715 31.92 19.3215 31.86 18.7715C31.82 18.3315 31.53 16.6015 31.23 15.5815L31.24 15.5715Z" fill="#7D7F82"/>
</svg>
