<svg width="32" height="32" viewBox="0 0 32 32" fill="none" xmlns="http://www.w3.org/2000/svg">
<g clip-path="url(#clip0_5534_20905)">
<path d="M28.3589 5.81182C28.2588 5.69178 28.1488 5.59175 28.0488 5.47171C25.1179 2.12066 20.8165 0 16.005 0C11.1935 0 6.88215 2.13067 3.95124 5.48171C3.8512 5.59175 3.74117 5.70178 3.64114 5.82182C1.37043 8.57268 0 12.1038 0 15.945C0 16.4451 0.0300094 16.9353 0.0700219 17.4255C0.330103 20.2563 1.33042 22.8672 2.8809 25.0778C5.77181 29.1991 10.5433 31.9 15.975 31.9C16.6552 31.9 17.3454 31.84 18.0156 31.7499H18.0857C18.5558 31.6499 18.8459 31.2598 18.8459 30.7696C18.8459 30.2195 18.3958 29.7693 17.8456 29.7693C17.8156 29.7693 17.6255 29.7893 17.6255 29.7893C17.0453 29.8693 16.5852 29.8994 15.985 29.8994C14.9647 29.8994 13.9644 29.7793 13.0041 29.5692L10.5333 25.2979L13.3942 21.6868H19.096C19.216 21.6868 19.336 21.6568 19.4461 21.6168C19.4861 21.6068 19.5161 21.5868 19.5461 21.5667C19.6161 21.5267 19.6862 21.4867 19.7462 21.4367C19.7762 21.4067 19.8062 21.3767 19.8362 21.3467C19.8862 21.2867 19.9362 21.2166 19.9662 21.1466C19.9863 21.1066 20.0063 21.0766 20.0263 21.0366C20.0263 21.0166 20.0463 21.0066 20.0463 20.9966L21.8268 15.5449L26.4583 13.4842L29.9594 16.8653C29.9094 17.5955 29.8093 18.3057 29.6493 18.9959V19.046C29.5893 19.3961 29.7393 19.8662 30.1294 20.0863C30.6096 20.3664 31.2198 20.1963 31.4999 19.7262C31.5499 19.6361 31.6199 19.4361 31.6199 19.4361C31.87 18.3057 32.02 17.1354 32.02 15.935C32.02 12.0838 30.6496 8.55268 28.3689 5.80182L28.3589 5.81182ZM16.005 1.99062C17.3454 1.99062 18.6358 2.19069 19.8562 2.54079L16.005 4.25133L12.1438 2.54079C13.3742 2.19069 14.6646 1.99062 16.005 1.99062ZM9.82307 3.69115L15.0047 5.99187V10.6833L10.8734 13.6743L6.27196 11.6236L5.7418 6.63207L9.82307 3.68115V3.69115ZM3.96124 8.86277L4.29134 12.0238L2.05064 14.8947C2.22069 12.704 2.8909 10.6533 3.96124 8.86277ZM5.91185 25.628L8.68272 26.1182L10.0231 28.5589C8.47265 27.8287 7.08222 26.8384 5.91185 25.628ZM11.7837 20.5164L8.90278 24.1375L4.09128 23.2773C3.11097 21.6968 2.44076 19.9162 2.16068 18.0056L5.63176 13.5542L10.1732 15.5849L11.7837 20.5164ZM18.3657 19.7062H13.6243L12.1638 15.2148L15.995 12.4339L19.8262 15.2148L18.3557 19.7062H18.3657ZM25.728 11.6436L21.1266 13.6943L16.9953 10.7033V5.99187L22.1669 3.69115L26.2482 6.64208L25.728 11.6336V11.6436ZM27.7087 11.9437L28.0288 8.86277C28.9491 10.4133 29.5793 12.1538 29.8393 14.0144L27.6987 11.9437H27.7087Z" fill="#7D7F82"/>
<path d="M30.2795 22.7471C30.1694 22.6671 30.0394 22.6171 29.8994 22.5771C29.8093 22.5571 29.7093 22.5371 29.6093 22.5371C29.2792 22.5371 29.0291 22.6171 28.849 22.7671C28.669 22.9172 28.5089 23.1472 28.3789 23.4473L27.7387 24.9478L26.1082 28.749L25.9781 28.4589L24.8678 25.8881L23.8275 23.4673C23.6974 23.1672 23.5374 22.9372 23.3573 22.7771C23.1773 22.6171 22.9172 22.5471 22.5671 22.5471C22.277 22.5471 22.0469 22.6171 21.8568 22.7471C21.6668 22.8772 21.5467 23.0672 21.4967 23.3073C21.4467 23.5474 21.4967 23.8175 21.6268 24.1275L23.7774 28.869L24.7577 31.0397C24.8178 31.1697 24.8878 31.2798 24.9578 31.3798C25.0478 31.5099 25.1479 31.6199 25.2679 31.6999C25.468 31.84 25.738 31.91 26.0682 31.91C26.3983 31.91 26.6483 31.84 26.8484 31.6999C27.0485 31.5599 27.2185 31.3398 27.3486 31.0397L27.4286 30.8597L30.4895 24.1275C30.6296 23.8275 30.6696 23.5574 30.6296 23.3173C30.5796 23.0772 30.4695 22.8972 30.2895 22.7571L30.2795 22.7471Z" fill="#7D7F82"/>
</g>
<defs>
<clipPath id="clip0_5534_20905">
<rect width="31.99" height="31.89" fill="white" transform="scale(1.00031)"/>
</clipPath>
</defs>
</svg>
