<svg width="32" height="32" viewBox="0 0 32 32" fill="none" xmlns="http://www.w3.org/2000/svg">
<g clip-path="url(#clip0_5534_20907)">
<path d="M20.3843 24.51C20.2261 24.51 19.9691 24.56 19.7813 24.6L7.26599 11.94C7.73061 10.05 8.76861 8.23001 10.5876 6.39001C15.5996 1.32001 22.9546 0.520013 27.0077 4.62001C29.8548 7.50001 30.2997 12.01 28.5894 16.21C28.5894 16.21 28.5894 16.22 28.5894 16.23V16.25C28.5499 16.36 28.5202 16.48 28.5202 16.6C28.5202 17.15 28.9651 17.6 29.5088 17.6C29.8943 17.6 30.2107 17.37 30.3787 17.05C30.3787 17.05 30.3787 17.04 30.3787 17.03C30.3985 16.99 30.4084 16.96 30.4183 16.92C32.3658 12.13 31.9605 6.79001 28.4115 3.20001C26.2169 0.990013 23.3599 -0.0099868 20.3843 1.3198e-05H20.1767C16.3114 0.0800132 12.2583 1.87001 9.18381 4.98001C6.85079 7.34001 5.57553 9.79001 5.14056 12.46C4.71548 15.07 5.14056 17.7 5.89188 20.34C5.89188 20.36 5.89188 20.38 5.89188 20.4L1.18628 25.17C-0.355885 26.73 -0.355885 29.26 1.18628 30.83C2.72845 32.39 5.22953 32.39 6.78159 30.83L11.5465 26.01C11.5465 26.01 11.5761 26.01 11.6058 26.01C14.1959 26.75 16.776 27.16 19.3364 26.73C19.7318 26.66 20.1174 26.58 20.5029 26.46C20.7995 26.37 21.3234 26.19 21.3037 25.48C21.2938 24.95 20.8984 24.5 20.3942 24.5L20.3843 24.51ZM9.38153 16.9L7.5329 18.77C7.15724 17.26 6.94964 15.83 6.95953 14.46L9.38153 16.91V16.9ZM10.2119 24.54C10.2119 24.54 10.1724 24.58 10.1427 24.6L5.3877 29.41C4.61662 30.19 3.36114 30.19 2.59005 29.41C1.81897 28.63 1.81897 27.36 2.59005 26.58L10.7754 18.3L13.5632 21.12L10.202 24.52L10.2119 24.54ZM13.1776 24.37L14.9768 22.55L17.3099 24.91C15.9852 24.92 14.6209 24.72 13.1776 24.36V24.37Z" fill="#7D7F82"/>
<path d="M2.96571 6.00001C4.60362 6.00001 5.93142 4.65687 5.93142 3.00001C5.93142 1.34316 4.60362 1.3198e-05 2.96571 1.3198e-05C1.32779 1.3198e-05 0 1.34316 0 3.00001C0 4.65687 1.32779 6.00001 2.96571 6.00001Z" fill="#7D7F82"/>
<path d="M31.9901 20.61C31.9407 20.37 31.8319 20.19 31.654 20.05C31.5453 19.97 31.4167 19.92 31.2783 19.88C31.1894 19.86 31.0905 19.84 30.9917 19.84C30.6654 19.84 30.4183 19.92 30.2403 20.07C30.0624 20.22 29.9042 20.45 29.7757 20.75L29.143 22.25L27.5317 26.05L27.4031 25.76L26.3058 23.19L25.2777 20.77C25.1492 20.47 24.991 20.24 24.8131 20.08C24.6352 19.92 24.3781 19.85 24.0321 19.85C23.7454 19.85 23.5181 19.92 23.3302 20.05C23.1424 20.18 23.0238 20.37 22.9744 20.61C22.9249 20.85 22.9744 21.12 23.1029 21.43L25.2283 26.17L26.1971 28.34C26.2564 28.47 26.3256 28.58 26.3948 28.68C26.4838 28.81 26.5826 28.92 26.7013 29C26.899 29.14 27.1659 29.21 27.4921 29.21C27.8183 29.21 28.0655 29.14 28.2632 29C28.4609 28.86 28.629 28.64 28.7575 28.34L28.8366 28.16L31.8616 21.43C32 21.13 32.0395 20.86 32 20.62L31.9901 20.61Z" fill="#7D7F82"/>
</g>
<defs>
<clipPath id="clip0_5534_20907">
<rect width="32" height="32" fill="white"/>
</clipPath>
</defs>
</svg>
