<svg width="32" height="32" viewBox="0 0 32 32" fill="none" xmlns="http://www.w3.org/2000/svg">
<g clip-path="url(#clip0_5534_20902)">
<path d="M11.9001 11.18C12.5021 11.18 12.9901 10.692 12.9901 10.09C12.9901 9.48801 12.5021 9 11.9001 9C11.2981 9 10.8101 9.48801 10.8101 10.09C10.8101 10.692 11.2981 11.18 11.9001 11.18Z" fill="#7D7F82"/>
<path d="M20.0901 9C19.4901 9 19.0001 9.49 19.0001 10.09C19.0001 10.69 19.4901 11.18 20.0901 11.18C20.6901 11.18 21.1801 10.69 21.1801 10.09C21.1801 9.49 20.6901 9 20.0901 9Z" fill="#7D7F82"/>
<path d="M22.7001 20.01C23.2001 20.01 23.6401 19.63 23.6901 19.12C23.8901 17.29 24.1401 15.92 24.4301 15.03C24.5501 14.67 24.6901 14.3 24.8301 13.93C25.2801 12.76 25.7901 11.43 25.7901 9.98C25.7901 9.63 25.7701 9.28 25.7401 8.94C25.8101 8.9 25.8801 8.85 25.9501 8.79C26.7801 8.09 27.9201 7.67 28.7001 7.38L29.6201 9.34C29.7901 9.7 30.1501 9.92 30.5301 9.92C30.6701 9.92 30.8201 9.89 30.9501 9.83C31.4501 9.6 31.6701 9 31.4301 8.5L29.9201 5.27C29.8701 5.14 29.8001 4.99 29.7201 4.84L29.6901 4.78C29.3601 4.02 28.2201 1.61 27.0901 0.96C25.5301 0.08 18.4201 0 16.0301 0C15.9201 0 15.8601 0 15.8401 0C15.8401 0 15.8201 0 15.8101 0C15.7601 0 15.7001 0 15.6501 0C13.4401 0 6.03012 0.05 4.43012 0.96C3.29012 1.61 2.15012 4.06 1.86012 4.72C1.85012 4.74 1.84012 4.76 1.83012 4.78C1.75012 4.95 1.68012 5.09 1.63012 5.22L0.0901157 8.51C-0.139884 9.01 0.0701156 9.61 0.570116 9.84C0.710116 9.9 0.850116 9.93 0.990116 9.93C1.37012 9.93 1.73012 9.72 1.90012 9.35L2.82012 7.39C3.59012 7.67 4.74012 8.1 5.57012 8.79C5.67012 8.88 5.78012 8.94 5.88012 9C5.85012 9.32 5.83012 9.65 5.83012 9.98C5.83012 11.68 6.42012 13.11 6.99012 14.5L7.20012 15.01C8.75012 19.1 8.86012 25.22 8.79012 28.5C8.77011 29.42 9.12012 30.29 9.76012 30.95C10.4101 31.61 11.2801 31.98 12.2101 31.98H19.7501C20.3001 31.98 20.7501 31.53 20.7501 30.98C20.7501 30.43 20.3001 29.98 19.7501 29.98H17.0301V27.93C18.1001 27.52 18.8601 26.5 18.8601 25.29C18.8601 23.73 17.5901 22.46 16.0301 22.46C14.4701 22.46 13.2001 23.73 13.2001 25.29C13.2001 26.5 13.9601 27.53 15.0301 27.93V29.98H12.2101C11.8201 29.98 11.4601 29.83 11.1901 29.55C10.9201 29.28 10.7801 28.92 10.7901 28.54C10.8601 25.11 10.7401 18.71 9.07012 14.3C9.07012 14.3 9.07012 14.3 9.07012 14.29L8.85012 13.75C8.33012 12.49 7.84012 11.3 7.84012 10C7.84012 9 8.03012 8.05 8.37012 7.17C8.45012 6.98 8.53012 6.79 8.62012 6.59C8.64012 6.55 8.66012 6.5 8.68012 6.46C8.74012 6.34 8.80012 6.22 8.87012 6.1C9.35011 5.24 9.98011 4.48 10.7301 3.86C10.7601 3.84 10.7901 3.81 10.8201 3.79C10.8801 3.74 10.9401 3.7 11.0001 3.66C12.7801 2.41 14.8401 2.11 15.4901 2.04C15.6001 2.04 15.7101 2.02 15.8201 2.02C16.3501 2.02 16.8701 2.07 17.3801 2.17C17.4101 2.17 17.4301 2.17 17.4501 2.18C19.1301 2.53 20.6101 3.42 21.7201 4.64C21.9901 4.95 22.2401 5.3 22.4601 5.7C22.7701 6.24 23.0001 6.79 23.2001 7.28C23.3201 7.57 23.4301 7.82 23.5501 8.06C23.7101 8.68 23.8001 9.33 23.8001 9.99C23.8001 11.07 23.4001 12.11 22.9701 13.22C22.8301 13.6 22.6901 13.97 22.5601 14.33C22.5601 14.33 22.5501 14.34 22.5501 14.35C22.5501 14.37 22.5401 14.39 22.5301 14.41C22.5301 14.43 22.5201 14.44 22.5101 14.46V14.48C22.1801 15.51 21.9201 16.95 21.7001 18.89C21.6401 19.44 22.0301 19.93 22.5801 19.99C22.6201 19.99 22.6601 19.99 22.6901 19.99L22.7001 20.01ZM7.33012 4.68C7.24012 4.83 7.18012 4.97 7.10012 5.11C7.03012 5.24 6.96012 5.37 6.90012 5.5C6.86012 5.59 6.81012 5.68 6.77012 5.77C6.68012 5.97 6.59012 6.17 6.51012 6.37C6.49012 6.42 6.46012 6.49 6.44012 6.54C6.40012 6.63 6.36012 6.74 6.31012 6.84C5.40012 6.22 4.38012 5.82 3.67012 5.56C4.25012 4.25 5.08012 2.89 5.42012 2.69C5.84012 2.46 7.49012 2.27 9.60012 2.15C8.75012 2.79 7.96012 3.61 7.33012 4.67V4.68ZM23.2801 3.38C22.9001 2.92 22.4901 2.51 22.0601 2.17C24.0901 2.29 25.6801 2.47 26.0901 2.7C26.4201 2.9 27.2301 4.22 27.8401 5.57C27.1401 5.83 26.1601 6.21 25.2601 6.81C24.8301 5.53 24.1501 4.37 23.2701 3.38H23.2801Z" fill="#7D7F82"/>
<path d="M31.1601 22.83C31.0501 22.75 30.9201 22.7 30.7801 22.66C30.6901 22.64 30.5901 22.62 30.4901 22.62C30.1601 22.62 29.9101 22.7 29.7301 22.85C29.5501 23 29.3901 23.23 29.2601 23.53L28.6201 25.03L26.9901 28.83L26.8601 28.54L25.7501 25.97L24.7101 23.55C24.5801 23.25 24.4201 23.02 24.2401 22.86C24.0601 22.7 23.8001 22.63 23.4501 22.63C23.1601 22.63 22.9301 22.7 22.7401 22.83C22.5501 22.96 22.4301 23.15 22.3801 23.39C22.3301 23.63 22.3801 23.9 22.5101 24.21L24.6601 28.95L25.6401 31.12C25.7001 31.25 25.7701 31.36 25.8401 31.46C25.9301 31.59 26.0301 31.7 26.1501 31.78C26.3501 31.92 26.6201 31.99 26.9501 31.99C27.2801 31.99 27.5301 31.92 27.7301 31.78C27.9301 31.64 28.1001 31.42 28.2301 31.12L28.3101 30.94L31.3701 24.21C31.5101 23.91 31.5501 23.64 31.5101 23.4C31.4601 23.16 31.3501 22.98 31.1701 22.84L31.1601 22.83Z" fill="#7D7F82"/>
</g>
<defs>
<clipPath id="clip0_5534_20902">
<rect width="32" height="32" fill="white"/>
</clipPath>
</defs>
</svg>
