<svg width="32" height="32" viewBox="0 0 32 32" fill="none" xmlns="http://www.w3.org/2000/svg">
<g clip-path="url(#clip0_5534_20908)">
<path d="M18.99 11.32C19.5589 11.32 20.02 10.8589 20.02 10.29C20.02 9.72115 19.5589 9.26 18.99 9.26C18.4211 9.26 17.96 9.72115 17.96 10.29C17.96 10.8589 18.4211 11.32 18.99 11.32Z" fill="#7D7F82"/>
<path d="M19.04 25.28H13.85L15.89 17.63L16.16 16.17L24.35 19.38V19.96C24.35 20.51 24.8 20.96 25.35 20.96C25.84 20.96 26.23 20.6 26.31 20.14C26.8 20.33 27.3 20.42 27.8 20.42C29.09 20.42 30.33 19.83 31.14 18.76C32.47 17 32.21 14.52 30.54 13.07L21.55 5.27C21.17 4.94 20.69 4.76 20.19 4.76H18.91C18.79 3.32 18.11 2.03 16.96 1.1C15.93 0.260004 14.61 -0.149996 13.55 0.0500036C13.24 0.110004 12.97 0.280004 12.8 0.530004C12.47 1.02 12.55 1.42 12.88 3.11C12.97 3.55 13.08 4.1 13.2 4.77H10.48C10 4.77 9.53 4.97 9.15 5.33L4.98 9.38L0.76 13.4C0.28 13.86 0 14.54 0 15.26V27.45C0 29.66 1.79 31.44 3.99 31.44H9.31C11.52 31.44 13.3 29.65 13.3 27.45V27.31C13.3 27.31 13.3 27.29 13.3 27.28H19.04C19.59 27.28 20.04 26.83 20.04 26.28C20.04 25.73 19.59 25.28 19.04 25.28ZM29.56 17.56C29.15 18.1 28.5 18.43 27.81 18.43C27.54 18.43 27.27 18.38 27.01 18.28L26.94 18.25L29.41 14.76C30.12 15.53 30.2 16.71 29.56 17.55V17.56ZM20.26 6.79L27.91 13.43L25.13 17.36C25.05 17.38 24.97 17.4 24.9 17.44L16.29 14.06L16 11.26L15.64 6.76H20.22L20.26 6.78V6.79ZM15.73 2.67C16.13 2.99 16.77 3.68 16.93 4.77H15.25C15.09 3.92 14.96 3.24 14.85 2.72C14.81 2.5 14.77 2.3 14.73 2.11C15.04 2.21 15.39 2.4 15.73 2.67ZM2 15.27C2 15.08 2.07 14.92 2.14 14.86L6.4 10.82L10.56 6.78H13.52L14 11.46L14.3 15.17C14.3 15.24 14.3 15.31 14.29 15.38L13.95 17.2L11.83 25.13C11.81 25.21 11.78 25.26 11.76 25.3C11.69 25.3 11.62 25.32 11.56 25.34H11.54C11.47 25.34 11.39 25.32 11.32 25.32H2V15.27ZM3.99 29.45C2.89 29.45 2 28.56 2 27.46V27.34H11.31V27.46C11.31 28.56 10.42 29.45 9.32 29.45H3.99Z" fill="#7D7F82"/>
<path d="M30.96 22.29C30.85 22.21 30.72 22.16 30.58 22.12C30.49 22.1 30.39 22.08 30.29 22.08C29.96 22.08 29.71 22.16 29.53 22.31C29.35 22.46 29.19 22.69 29.06 22.99L28.42 24.49L26.79 28.29L26.66 28L25.55 25.43L24.51 23.01C24.38 22.71 24.22 22.48 24.04 22.32C23.86 22.16 23.6 22.09 23.25 22.09C22.96 22.09 22.73 22.16 22.54 22.29C22.35 22.42 22.23 22.61 22.18 22.85C22.13 23.09 22.18 23.36 22.31 23.67L24.46 28.41L25.44 30.58C25.5 30.71 25.57 30.82 25.64 30.92C25.73 31.05 25.83 31.16 25.95 31.24C26.15 31.38 26.42 31.45 26.75 31.45C27.08 31.45 27.33 31.38 27.53 31.24C27.73 31.1 27.9 30.88 28.03 30.58L28.11 30.4L31.17 23.67C31.31 23.37 31.35 23.1 31.31 22.86C31.26 22.62 31.15 22.44 30.97 22.3L30.96 22.29Z" fill="#7D7F82"/>
</g>
<defs>
<clipPath id="clip0_5534_20908">
<rect width="32" height="32" fill="white"/>
</clipPath>
</defs>
</svg>
