<svg width="32" height="32" viewBox="0 0 32 32" fill="none" xmlns="http://www.w3.org/2000/svg">
<path d="M29.2952 2.70508C27.5511 0.960449 25.2317 0 22.7649 0C20.2981 0 17.9788 0.960449 16.2347 2.70459C14.1907 4.74805 13.5247 7.91699 13.5725 10.0391C13.4895 10.9023 12.97 12.3062 11.0081 14.167L10.8899 14.2803C9.97293 15.1968 9.46805 16.415 9.46805 17.7109C9.46805 17.8828 9.49997 18.0483 9.51749 18.2169L0.59177 27.1426C0.0481296 27.6862 0.0481296 28.5676 0.59177 29.1112L2.88987 31.4093C3.16165 31.6811 3.51792 31.817 3.87412 31.817C4.23038 31.817 4.58664 31.6811 4.85843 31.4093L13.7625 22.5052C13.9452 22.5259 14.127 22.5576 14.3108 22.5576C15.5608 22.5576 16.8157 22.0781 17.7786 21.1152C19.3743 19.5176 21.0286 18.6201 22.7415 18.4424C22.8567 18.4277 22.9983 18.4189 23.1614 18.4072C24.4056 18.3232 26.9964 18.1465 29.3079 15.7534C32.8987 12.0356 32.8938 6.30371 29.2952 2.70508ZM29.5813 11.5766L25.7101 7.7052L28.5345 4.8808C30.0106 6.82874 30.3586 9.33044 29.5813 11.5766ZM27.1206 3.46655L24.2961 6.29114L20.4052 2.40015C21.1553 2.14191 21.9484 2 22.7649 2C24.3597 2 25.8716 2.51947 27.1206 3.46655ZM17.6487 4.11914C17.9278 3.83997 18.2298 3.59344 18.5437 3.3667L22.882 7.7052L20.0852 10.502L16.1614 6.57812C16.4996 5.65588 16.983 4.78442 17.6487 4.11914ZM15.5735 10.0405C15.5628 9.67535 15.5863 9.27936 15.6292 8.87402L18.6712 11.916L15.7957 14.7915L14.3441 13.3399C15.0715 12.2542 15.4881 11.1866 15.5706 10.1489L15.5745 10.0947L15.5735 10.0405ZM12.305 15.6938L12.3841 15.6182C12.633 15.3821 12.8673 15.1465 13.0876 14.9115L14.3816 16.2056L11.7188 18.8684C11.5582 18.5079 11.4681 18.1171 11.4681 17.7109C11.4681 16.9492 11.7649 16.2334 12.305 15.6938ZM3.87412 29.5651L2.43589 28.1269L10.1386 20.4242L11.5769 21.8624L3.87412 29.5651ZM13.1254 20.2899L15.7957 17.6196L17.15 18.9739C16.8773 19.2103 16.6061 19.4594 16.3372 19.7285C15.4697 20.596 14.1798 20.7767 13.1254 20.2899ZM22.4895 16.4585C21.224 16.5893 19.9858 17.0336 18.7791 17.7749L17.2098 16.2056L20.0852 13.3301L23.1574 16.4022C23.1148 16.4052 23.0663 16.4094 23.0257 16.4121C22.8216 16.4263 22.6448 16.439 22.4895 16.4585ZM27.8684 14.3638C27.0846 15.1754 26.2758 15.6429 25.5148 15.9315L21.4993 11.916L24.2961 9.11926L28.6206 13.4441C28.3954 13.7629 28.1494 14.0729 27.8684 14.3638Z" fill="#7D7F82"/>
<path d="M3 6.00092C4.65686 6.00092 6.00001 4.65777 6.00001 3.00092C6.00001 1.34406 4.65686 0.0009122 3 0.0009122C1.34315 0.0009122 0 1.34406 0 3.00092C0 4.65777 1.34315 6.00092 3 6.00092Z" fill="#7D7F82"/>
</svg>
