<svg width="32" height="32" viewBox="0 0 32 32" fill="none" xmlns="http://www.w3.org/2000/svg">
<path fill-rule="evenodd" clip-rule="evenodd" d="M5.26774 7.00761L4.21115 4.89443C3.90116 4.27445 3.93429 3.53817 4.2987 2.94854C4.66311 2.3589 5.30685 2 6 2H12C12.3911 2 12.756 2.11228 13.0642 2.30636C14.0109 2.10435 14.993 1.99805 16 1.99805C23.732 1.99805 30 8.26606 30 15.998C30 18.7057 29.2313 21.2339 27.9003 23.3762C28.0628 23.8713 28.0274 24.4173 27.7889 24.8944L25.7889 28.8944C25.4501 29.572 24.7575 30 24 30H6C5.30685 30 4.66311 29.6411 4.2987 29.0515C3.93429 28.4618 3.90116 27.7255 4.21115 27.1056L5.26897 24.9899C3.22862 22.5575 2 19.4213 2 15.998C2 12.5755 3.22813 9.43981 5.26774 7.00761ZM26 24H12V4H6L8 8V24L6 28H24L26 24ZM6 22.6336V16.0043C6 16.0022 6 16.0001 6 15.998C6 15.996 6 15.9939 6 15.9918V9.36245C4.73631 11.2631 4 13.5446 4 15.998C4 18.4515 4.73631 20.733 6 22.6336ZM26.3731 22.0351C27.4074 20.2617 28 18.1991 28 15.998C28 9.37063 22.6274 3.99805 16 3.99805C15.3186 3.99805 14.6504 4.05484 14 4.16396V6.19808C14.6462 6.06691 15.3151 5.99805 16 5.99805C21.5228 5.99805 26 10.4752 26 15.998C26 18.2501 25.2555 20.3283 23.9993 22H26C26.1265 22 26.2513 22.012 26.3731 22.0351ZM21.2894 22C22.9516 20.5341 24 18.3885 24 15.998C24 11.5798 20.4183 7.99805 16 7.99805C15.3094 7.99805 14.6392 8.08555 14 8.25008V22H21.2894Z" fill="#7D7F82"/>
</svg>
