<svg width="32" height="32" viewBox="0 0 32 32" fill="none" xmlns="http://www.w3.org/2000/svg">
<g clip-path="url(#clip0_5534_20779)">
<path fill-rule="evenodd" clip-rule="evenodd" d="M23 17.732C24.3333 16.9622 24.3333 15.0377 23 14.2679L14 9.07177C12.6667 8.30198 11 9.26422 11 10.8038L11 21.1961C11 22.7357 12.6667 23.698 14 22.9282L23 17.732ZM13 10.8038L22 16L13 21.1961L13 10.8038Z" fill="#7D7F82"/>
<path fill-rule="evenodd" clip-rule="evenodd" d="M32 16C32 24.8366 24.8366 32 16 32C7.16344 32 0 24.8366 0 16C0 7.16344 7.16344 0 16 0C24.8366 0 32 7.16344 32 16ZM30 16C30 23.732 23.732 30 16 30C8.26801 30 2 23.732 2 16C2 8.26801 8.26801 2 16 2C23.732 2 30 8.26801 30 16Z" fill="#7D7F82"/>
</g>
<defs>
<clipPath id="clip0_5534_20779">
<rect width="32" height="32" fill="white"/>
</clipPath>
</defs>
</svg>
