<svg width="33" height="33" viewBox="0 0 33 33" fill="none" xmlns="http://www.w3.org/2000/svg">
<path d="M31.9689 30.9367H26.5465L24.2506 26.566C28.2557 24.0007 30.9226 19.5219 30.9226 14.4226C30.9226 6.4697 24.4529 0 16.5 0C8.54705 0 2.07735 6.4697 2.07735 14.4226C2.07735 19.4959 4.71627 23.9565 8.68733 26.5282L6.30871 30.9367H1.03112C0.461186 30.9367 0 31.3979 0 31.9679C0 32.5378 0.461186 32.999 1.03112 32.999H31.9689C32.5388 32.999 33 32.5378 33 31.9679C33 31.3979 32.5388 30.9367 31.9689 30.9367ZM4.1396 14.4226C4.1396 7.60756 9.68491 2.06225 16.5 2.06225C23.3151 2.06225 28.8604 7.60756 28.8604 14.4226C28.8604 18.7301 26.6419 22.5256 23.2909 24.739L19.2487 17.044C19.8339 16.3961 20.2006 15.5467 20.2006 14.6069C20.2006 12.593 18.5622 10.9537 16.5483 10.9537C14.5344 10.9537 12.8951 12.593 12.8951 14.6069C12.8951 15.5321 13.2521 16.3685 13.8215 17.0127L9.66666 24.7132C6.3388 22.4959 4.1396 18.7123 4.1396 14.4226ZM15.5721 18.1099C15.8849 18.1974 16.208 18.2592 16.5483 18.2592C16.8741 18.2592 17.1842 18.2025 17.4849 18.1221L21.4795 25.7266C19.9544 26.4012 18.272 26.783 16.5 26.783C14.7098 26.783 13.0119 26.3921 11.4745 25.7043L15.5721 18.1099ZM14.9573 14.6069C14.9573 13.7299 15.6713 13.0159 16.5483 13.0159C17.4254 13.0159 18.1383 13.7299 18.1383 14.6069C18.1383 15.484 17.4254 16.1969 16.5483 16.1969C15.6713 16.1969 14.9573 15.484 14.9573 14.6069ZM8.65134 30.9367L10.4953 27.5191C12.3263 28.3621 14.3556 28.8453 16.5 28.8453C18.6181 28.8453 20.6246 28.3749 22.438 27.5513L24.2164 30.9367H8.65134Z" fill="#7D7F82"/>
<path d="M11.3424 11.3424C12.4813 11.3424 13.4046 10.4191 13.4046 9.28012C13.4046 8.14117 12.4813 7.21787 11.3424 7.21787C10.2034 7.21787 9.28012 8.14117 9.28012 9.28012C9.28012 10.4191 10.2034 11.3424 11.3424 11.3424Z" fill="#7D7F82"/>
<path d="M22.6847 9.28012C23.8237 9.28012 24.747 8.35682 24.747 7.21787C24.747 6.07892 23.8237 5.15562 22.6847 5.15562C21.5458 5.15562 20.6225 6.07892 20.6225 7.21787C20.6225 8.35682 21.5458 9.28012 22.6847 9.28012Z" fill="#7D7F82"/>
<path d="M24.2164 19.7226C25.3553 19.7226 26.2786 18.7993 26.2786 17.6604C26.2786 16.5214 25.3553 15.5981 24.2164 15.5981C23.0774 15.5981 22.1541 16.5214 22.1541 17.6604C22.1541 18.7993 23.0774 19.7226 24.2164 19.7226Z" fill="#7D7F82"/>
<path d="M7.61883 16.6688C8.75777 16.6688 9.68107 15.7455 9.68107 14.6065C9.68107 13.4676 8.75777 12.5443 7.61883 12.5443C6.47988 12.5443 5.55658 13.4676 5.55658 14.6065C5.55658 15.7455 6.47988 16.6688 7.61883 16.6688Z" fill="#7D7F82"/>
</svg>
