<svg width="32" height="32" viewBox="0 0 32 32" fill="none" xmlns="http://www.w3.org/2000/svg">
<path d="M9.21071 7.81499C10.0834 8.15543 11.0555 8.13609 11.9139 7.76122C12.7724 7.38634 13.4473 6.6865 13.7907 5.81499C14.0447 5.16503 14.1004 4.45436 13.9507 3.77276C13.801 3.09117 13.4527 2.46924 12.9497 1.98554C12.4467 1.50185 11.8116 1.17809 11.1246 1.05519C10.4377 0.932277 9.72976 1.01573 9.09023 1.29499C8.45071 1.57426 7.90831 2.03682 7.53156 2.62421C7.15481 3.21161 6.96061 3.8975 6.9735 4.59522C6.9864 5.29294 7.2058 5.97118 7.60399 6.54426C8.00219 7.11734 8.56131 7.55954 9.21071 7.81499ZM9.08071 3.97499C9.15045 3.78151 9.25923 3.60443 9.40029 3.45477C9.54136 3.3051 9.71169 3.18604 9.90071 3.10499C10.0919 3.01699 10.3003 2.97258 10.5107 2.97499C10.703 2.97282 10.8936 3.01026 11.0707 3.08499C11.3504 3.19847 11.5902 3.39212 11.7601 3.64157C11.9299 3.89103 12.0222 4.18516 12.0254 4.48694C12.0285 4.78873 11.9423 5.08469 11.7776 5.3376C11.6129 5.59051 11.3771 5.78906 11.0998 5.90828C10.8226 6.0275 10.5163 6.06206 10.2194 6.00761C9.92255 5.95317 9.64844 5.81214 9.43154 5.60228C9.21465 5.39242 9.06466 5.1231 9.00046 4.82821C8.93625 4.53332 8.9607 4.22603 9.07071 3.94499L9.08071 3.97499Z" fill="#7D7F82"/>
<path d="M22.9506 19.365C24.6306 18.105 25.6506 17.105 25.7306 16.105C25.7534 15.8957 25.7313 15.684 25.6658 15.484C25.6002 15.284 25.4928 15.1002 25.3506 14.945C24.2606 13.785 23.3506 12.865 22.3506 11.845C21.3506 10.825 20.2006 9.64499 18.6206 7.99499C17.8406 7.17499 16.8306 7.75498 14.1406 9.30499L12.7106 10.105C12.5968 10.1711 12.4973 10.2591 12.4176 10.3638C12.3379 10.4686 12.2797 10.588 12.2462 10.7153C12.2128 10.8425 12.2048 10.9752 12.2227 11.1055C12.2406 11.2359 12.2841 11.3614 12.3506 11.475L12.4306 11.565C12.4701 11.6427 12.5169 11.7163 12.5706 11.785C20.4406 19.685 20.5706 19.785 20.7406 19.965C20.9106 20.145 21.0006 20.205 28.0206 27.265C28.1132 27.3595 28.2237 27.4346 28.3455 27.4861C28.4674 27.5376 28.5983 27.5644 28.7306 27.565C28.9292 27.5661 29.1237 27.5081 29.2892 27.3983C29.4547 27.2885 29.5838 27.1319 29.66 26.9485C29.7361 26.765 29.756 26.5631 29.7169 26.3683C29.6778 26.1736 29.5816 25.9949 29.4406 25.855L22.9506 19.365ZM14.8106 11.215L15.1206 11.035C15.9206 10.575 16.9506 10.035 17.5006 9.73499C18.9106 11.205 19.9506 12.275 20.9006 13.245C21.8506 14.215 22.6606 15.035 23.6406 16.075C22.9923 16.7652 22.279 17.3915 21.5106 17.945C20.7906 17.225 19.0506 15.485 14.8106 11.215Z" fill="#7D7F82"/>
<path d="M4.70079 6.76499C4.51343 6.57874 4.25998 6.4742 3.99579 6.4742C3.73161 6.4742 3.47816 6.57874 3.29079 6.76499C3.10454 6.95235 3 7.2058 3 7.46999C3 7.73418 3.10454 7.98763 3.29079 8.17499L22.4808 27.375L21.7808 28.085C21.6839 28.1763 21.5723 28.2506 21.4508 28.305C21.206 28.398 20.9356 28.398 20.6908 28.305C20.5671 28.2577 20.4522 28.1901 20.3508 28.105L6.18079 13.905C6.08821 13.8118 5.97817 13.7377 5.85696 13.6869C5.73574 13.6362 5.60572 13.6099 5.47433 13.6094C5.34293 13.609 5.21273 13.6344 5.09116 13.6842C4.96959 13.7341 4.85903 13.8074 4.76579 13.9C4.67255 13.9926 4.59846 14.1026 4.54775 14.2238C4.49704 14.345 4.4707 14.4751 4.47024 14.6065C4.46977 14.7379 4.49519 14.868 4.54505 14.9896C4.5949 15.1112 4.66821 15.2218 4.76079 15.315L18.9508 29.495C19.2325 29.7799 19.5741 29.9985 19.9508 30.135C20.3153 30.2863 20.7061 30.3642 21.1008 30.3642C21.4955 30.3642 21.8863 30.2863 22.2508 30.135C22.6243 29.9874 22.9643 29.7664 23.2508 29.485L23.9508 28.785L26.0708 30.905C26.2582 31.0912 26.5116 31.1958 26.7758 31.1958C27.04 31.1958 27.2934 31.0912 27.4808 30.905C27.5745 30.812 27.6489 30.7014 27.6997 30.5796C27.7505 30.4577 27.7766 30.327 27.7766 30.195C27.7766 30.063 27.7505 29.9323 27.6997 29.8104C27.6489 29.6886 27.5745 29.578 27.4808 29.485L4.70079 6.76499Z" fill="#7D7F82"/>
</svg>
