<svg width="32" height="32" viewBox="0 0 32 32" fill="none" xmlns="http://www.w3.org/2000/svg">
<g clip-path="url(#clip0_5534_20744)">
<path d="M21.35 9.51C21.05 9.51 20.82 9.57 20.65 9.68C20.48 9.79 20.33 9.99 20.18 10.26L16.02 17.95L11.86 10.26C11.72 9.98 11.56 9.79 11.38 9.68C11.2 9.57 10.97 9.51 10.67 9.51C9.95 9.51 9.59 9.87 9.59 10.59V21.41C9.59 22.13 9.94 22.49 10.63 22.49C11.32 22.49 11.67 22.13 11.67 21.41V13.83L15.05 19.97C15.16 20.16 15.28 20.31 15.43 20.41C15.57 20.51 15.76 20.56 15.99 20.56C16.22 20.56 16.4 20.51 16.53 20.42C16.66 20.33 16.79 20.17 16.91 19.97L20.29 13.8V21.41C20.29 22.13 20.64 22.49 21.33 22.49C22.02 22.49 22.37 22.13 22.37 21.41V10.59C22.37 9.87 22.02 9.51 21.33 9.51H21.35Z" fill="#7D7F82"/>
<path d="M16 0C7.16 0 0 7.16 0 16C0 24.84 7.16 32 16 32C24.84 32 32 24.84 32 16C32 7.16 24.84 0 16 0ZM16 30C8.28 30 2 23.72 2 16C2 8.28 8.28 2 16 2C23.72 2 30 8.28 30 16C30 23.72 23.72 30 16 30Z" fill="#7D7F82"/>
</g>
<defs>
<clipPath id="clip0_5534_20744">
<rect width="32" height="32" fill="white"/>
</clipPath>
</defs>
</svg>
