<svg width="32" height="32" viewBox="0 0 32 32" fill="none" xmlns="http://www.w3.org/2000/svg">
<g clip-path="url(#clip0_5534_20789)">
<path d="M6 3C6 4.65685 4.65685 6 3 6C1.34315 6 0 4.65685 0 3C0 1.34315 1.34315 0 3 0C4.65685 0 6 1.34315 6 3Z" fill="#7D7F82"/>
<path fill-rule="evenodd" clip-rule="evenodd" d="M1.71002 26.19L4.21002 23.74C4.6896 23.2745 5.33167 23.0141 6.00002 23.0141C6.66838 23.0141 7.31044 23.2745 7.79002 23.74C8.65141 24.5722 9.80231 25.0373 11 25.0373C12.1977 25.0373 13.3486 24.5722 14.21 23.74C14.6896 23.2745 15.3317 23.0141 16 23.0141C16.6684 23.0141 17.3104 23.2745 17.79 23.74C18.6514 24.5722 19.8023 25.0373 21 25.0373C22.1977 25.0373 23.3486 24.5722 24.21 23.74C24.6896 23.2745 25.3317 23.0141 26 23.0141C26.6684 23.0141 27.3104 23.2745 27.79 23.74L30.29 26.19C30.383 26.2837 30.4936 26.3581 30.6154 26.4089C30.7373 26.4597 30.868 26.4858 31 26.4858C31.132 26.4858 31.2627 26.4597 31.3846 26.4089C31.5065 26.3581 31.6171 26.2837 31.71 26.19C31.8903 26.0035 31.991 25.7543 31.991 25.495C31.991 25.2357 31.8903 24.9865 31.71 24.8L29.23 22.33C28.3686 21.4978 27.2177 21.0327 26.02 21.0327C24.8223 21.0327 23.6714 21.4978 22.81 22.33C22.3304 22.7955 21.6884 23.0559 21.02 23.0559C20.3517 23.0559 19.7096 22.7955 19.23 22.33C18.8278 21.9423 18.3563 21.6336 17.84 21.42C17.8413 21.3967 17.8413 21.3733 17.84 21.35L17.18 20.06C17.0455 19.8151 16.9205 19.5848 16.8032 19.3688C16.0917 18.0589 15.6651 17.2734 15.15 16.93C15.6337 15.8875 16.0415 14.8113 16.37 13.71C16.6878 12.3877 17.2362 11.1319 17.99 10C18.55 9.46 21.38 9.05 23.67 9C23.9352 9 24.1896 8.89464 24.3771 8.70711C24.5647 8.51957 24.67 8.26522 24.67 8C24.67 7.73478 24.5647 7.48043 24.3771 7.29289C24.1896 7.10536 23.9352 7 23.67 7C22.37 7 18.03 7.21 16.67 8.56C15.7149 9.43874 15.1885 11.0747 14.6204 12.8405L14.54 13.09L14.4854 13.254C13.9722 14.796 13.3051 16.8004 12.61 17.09C10.2708 18.0649 8.09535 19.3938 6.16002 21.03C5.53965 21.0081 4.92125 21.112 4.34209 21.3354C3.76292 21.5588 3.23497 21.8971 2.79002 22.33L0.290024 24.78C0.109784 24.9665 0.0090332 25.2157 0.0090332 25.475C0.0090332 25.7343 0.109784 25.9835 0.290024 26.17C0.38166 26.265 0.491209 26.341 0.612354 26.3935C0.733499 26.446 0.863842 26.474 0.995857 26.4758C1.12787 26.4777 1.25895 26.4534 1.38152 26.4043C1.5041 26.3553 1.61575 26.2824 1.71002 26.19ZM14.14 18.73C14.4032 19.1072 14.8357 19.954 15.208 20.6828C15.2601 20.7847 15.3109 20.8843 15.36 20.98L15.42 21.11C14.4338 21.219 13.5102 21.6474 12.79 22.33C12.3114 22.7896 11.6736 23.0462 11.01 23.0462C10.3465 23.0462 9.70865 22.7896 9.23002 22.33C8.98924 22.1019 8.72435 21.9007 8.44002 21.73C10.36 20.33 12.91 18.88 14.14 18.73Z" fill="#7D7F82"/>
<path fill-rule="evenodd" clip-rule="evenodd" d="M19.3 13.0196C20.0892 12.4348 21.0782 12.1867 22.05 12.33C23.0151 12.4658 23.888 12.9759 24.48 13.75C24.7702 14.1405 24.9805 14.5844 25.0989 15.0563C25.2173 15.5282 25.2415 16.0188 25.17 16.5C25.0242 17.4713 24.4992 18.3452 23.71 18.93C23.0745 19.404 22.3028 19.66 21.51 19.66C21.327 19.6749 21.1431 19.6749 20.96 19.66C19.9887 19.5142 19.1148 18.9891 18.53 18.2C18.2379 17.8105 18.0264 17.3667 17.9079 16.8945C17.7894 16.4223 17.7664 15.9312 17.84 15.45C17.9857 14.4785 18.5108 13.6045 19.3 13.0196ZM22.9974 16.9004C23.1171 16.7047 23.1962 16.4869 23.23 16.26C23.261 16.0366 23.2474 15.8094 23.1902 15.5913C23.133 15.3732 23.0332 15.1685 22.8966 14.9892C22.7599 14.8098 22.5892 14.6592 22.3941 14.5461C22.1991 14.4329 21.9836 14.3595 21.76 14.33H21.5C21.0943 14.3265 20.7005 14.4674 20.389 14.7275C20.0776 14.9877 19.8688 15.3501 19.8 15.75C19.7653 15.9717 19.7749 16.198 19.8281 16.416C19.8813 16.634 19.9771 16.8392 20.11 17.02C20.383 17.3794 20.7843 17.6194 21.23 17.69C21.4557 17.7314 21.6873 17.727 21.9112 17.677C22.1351 17.627 22.3466 17.5325 22.5333 17.3991C22.7199 17.2657 22.8777 17.0961 22.9974 16.9004Z" fill="#7D7F82"/>
<path d="M26.02 26.5348C27.2192 26.5348 28.3711 27.0032 29.23 27.84L31.71 30.33C31.8903 30.5165 31.991 30.7657 31.991 31.025C31.991 31.2843 31.8903 31.5335 31.71 31.72C31.6171 31.8137 31.5065 31.8881 31.3846 31.9389C31.2627 31.9897 31.132 32.0158 31 32.0158C30.868 32.0158 30.7373 31.9897 30.6154 31.9389C30.4936 31.8881 30.383 31.8137 30.29 31.72L27.79 29.27C27.3104 28.8045 26.6684 28.5441 26 28.5441C25.3317 28.5441 24.6896 28.8045 24.21 29.27C23.3511 30.1068 22.1992 30.5752 21 30.5752C19.8008 30.5752 18.649 30.1068 17.79 29.27C17.3104 28.8045 16.6684 28.5441 16 28.5441C15.3317 28.5441 14.6896 28.8045 14.21 29.27C13.3511 30.1068 12.1992 30.5752 11 30.5752C9.8008 30.5752 8.64899 30.1068 7.79002 29.27C7.31044 28.8045 6.66838 28.5441 6.00002 28.5441C5.33167 28.5441 4.6896 28.8045 4.21002 29.27L1.71002 31.72C1.61706 31.8137 1.50646 31.8881 1.3846 31.9389C1.26274 31.9897 1.13203 32.0158 1.00002 32.0158C0.868011 32.0158 0.737303 31.9897 0.615444 31.9389C0.493585 31.8881 0.382987 31.8137 0.290024 31.72C0.109784 31.5335 0.0090332 31.2843 0.0090332 31.025C0.0090332 30.7657 0.109784 30.5165 0.290024 30.33L2.81002 27.84C3.66899 27.0032 4.8208 26.5348 6.02002 26.5348C7.21925 26.5348 8.37106 27.0032 9.23002 27.84C9.70961 28.3055 10.3517 28.5659 11.02 28.5659C11.6884 28.5659 12.3304 28.3055 12.81 27.84C13.669 27.0032 14.8208 26.5348 16.02 26.5348C17.2192 26.5348 18.3711 27.0032 19.23 27.84C19.7096 28.3055 20.3517 28.5659 21.02 28.5659C21.6884 28.5659 22.3304 28.3055 22.81 27.84C23.669 27.0032 24.8208 26.5348 26.02 26.5348Z" fill="#7D7F82"/>
<path d="M3 8C2.44772 8 2 8.44771 2 9V11C2 11.5523 2.44772 12 3 12C3.55228 12 4 11.5523 4 11V9C4 8.44771 3.55228 8 3 8Z" fill="#7D7F82"/>
<path d="M6.70711 8.12129C6.31658 7.73077 6.31658 7.0976 6.70711 6.70708C7.09763 6.31655 7.7308 6.31655 8.12132 6.70708L9.53553 8.12129C9.92606 8.51182 9.92606 9.14498 9.53553 9.53551C9.14501 9.92603 8.51184 9.92603 8.12132 9.53551L6.70711 8.12129Z" fill="#7D7F82"/>
<path d="M8 3C8 3.55228 8.44772 4 9 4H11C11.5523 4 12 3.55228 12 3C12 2.44772 11.5523 2 11 2H9C8.44772 2 8 2.44772 8 3Z" fill="#7D7F82"/>
</g>
<defs>
<clipPath id="clip0_5534_20789">
<rect width="32" height="32" fill="white"/>
</clipPath>
</defs>
</svg>
