<svg width="32" height="32" viewBox="0 0 32 32" fill="none" xmlns="http://www.w3.org/2000/svg">
<g clip-path="url(#clip0_5534_20803)">
<path fill-rule="evenodd" clip-rule="evenodd" d="M5.57024 17.24C4.98249 16.0832 4 13.6777 4 10.5237C4 6.02369 5 5.02368 5 5.02368C5 5.02368 6.80569 1.96639 14.5 0.523648C22.1943 -0.919098 24.5 1.02367 25 1.52368C25.5 2.02369 25.5 4.52368 25.5 8.52369C25.5 9.33263 25.4591 10.2019 25.3938 11.0741L28.5198 12.0119C29.9843 12.4513 31.0027 14.0118 30.418 15.6111C29.9369 16.9271 29.1857 18.4744 28.1171 19.8322C27.1826 21.0195 25.9744 22.1 24.4579 22.7206C24.1024 23.2274 23.5942 23.6193 23 23.8293V28C23 30.2091 21.2091 32 19 32H10C7.79086 32 6 30.2091 6 28V23.2361C5.38625 22.6868 5 21.8885 5 21V19C5 18.3425 5.21152 17.7344 5.57024 17.24ZM6.41156 6.67436C6.46926 6.48683 6.51922 6.36754 6.54992 6.30219L6.59329 6.25882L6.69583 6.08519C6.71636 6.05766 6.76947 5.98953 6.86222 5.89048C7.04692 5.69324 7.39611 5.36511 7.97609 4.97742C8.25797 4.789 8.59662 4.58503 9 4.37446V9C9 9.55228 9.44772 10 10 10C10.5523 10 11 9.55228 11 9V4C11 3.8377 10.9613 3.68443 10.8927 3.5489C11.7556 3.2339 12.7827 2.9296 14 2.66498V8C14 8.55228 14.4477 9 15 9C15.5523 9 16 8.55228 16 8V2.29613C17.1603 2.11826 18.1534 2.03169 19 2.00736V7C19 7.55228 19.4477 8 20 8C20.5523 8 21 7.55228 21 7V2.07784C21.3853 2.12107 21.7167 2.17924 21.9999 2.24432C22.6939 2.40381 23.1126 2.60752 23.3439 2.75282C23.3811 2.9885 23.4149 3.33426 23.4403 3.8163C23.4993 4.93855 23.5 6.50056 23.5 8.52369C23.5 10.3888 23.2642 12.6531 23.0177 14.4967C22.9436 15.0507 22.8694 15.5598 22.8022 16H7.19105C7.08932 15.781 6.97898 15.5248 6.8679 15.2345C6.43473 14.1026 6 12.4779 6 10.5237C6 8.41271 6.23563 7.24613 6.41156 6.67436ZM8 22H22C22.5523 22 23 21.5523 23 21V19C23 18.4477 22.5523 18 22 18H8C7.44772 18 7 18.4477 7 19V21C7 21.5523 7.44772 22 8 22ZM12 24H8V28C8 29.1046 8.89543 30 10 30H12C13.6569 30 15 28.6569 15 27C15 25.3431 13.6569 24 12 24ZM16.0004 30C16.6281 29.1643 17 28.1256 17 27C17 25.8744 16.6281 24.8357 16.0004 24H21V28C21 29.1046 20.1046 30 19 30H16.0004ZM24.5896 17.4844C24.7264 16.6734 24.9935 14.9959 25.2032 13.105L27.9451 13.9276C28.4773 14.0872 28.6706 14.5659 28.5396 14.9245C28.1093 16.1015 27.4492 17.4469 26.5455 18.5952C26.0838 19.1818 25.5691 19.704 25 20.1274V19C25 18.4471 24.8504 17.9292 24.5896 17.4844ZM23.572 2.92399L23.5855 2.93761C23.5844 2.93646 23.5801 2.93177 23.572 2.92399Z" fill="#7D7F82"/>
</g>
<defs>
<clipPath id="clip0_5534_20803">
<rect width="32" height="32" fill="white"/>
</clipPath>
</defs>
</svg>
