<svg width="32" height="32" viewBox="0 0 32 32" fill="none" xmlns="http://www.w3.org/2000/svg">
<g clip-path="url(#clip0_5534_20774)">
<path d="M22.1 16C22.3305 17.1294 22.9442 18.1444 23.8371 18.8733C24.73 19.6022 25.8473 20.0002 27 20C28.3261 20 29.5978 19.4732 30.5355 18.5355C31.4732 17.5978 32 16.3261 32 15C32 13.6739 31.4732 12.4021 30.5355 11.4645C29.5978 10.5268 28.3261 10 27 10C25.8473 9.99976 24.73 10.3978 23.8371 11.1267C22.9442 11.8556 22.3305 12.8706 22.1 14H17V10C17.0038 9.96677 17.0038 9.93322 17 9.89999C18.1294 9.66946 19.1444 9.05582 19.8733 8.1629C20.6022 7.26999 21.0002 6.15265 21 5C21 3.67392 20.4732 2.40214 19.5355 1.46446C18.5978 0.52678 17.3261 0 16 0C14.6739 0 13.4021 0.52678 12.4645 1.46446C11.5268 2.40214 11 3.67392 11 5C10.9998 6.15265 11.3978 7.26999 12.1267 8.1629C12.8556 9.05582 13.8706 9.66946 15 9.89999C15 9.89999 15 9.97 15 10V14H9.89999C9.66946 12.8706 9.05582 11.8556 8.1629 11.1267C7.26999 10.3978 6.15265 9.99976 5 10C3.67392 10 2.40214 10.5268 1.46446 11.4645C0.52678 12.4021 0 13.6739 0 15C0 16.3261 0.52678 17.5978 1.46446 18.5355C2.40214 19.4732 3.67392 20 5 20C6.15265 20.0002 7.26999 19.6022 8.1629 18.8733C9.05582 18.1444 9.66946 17.1294 9.89999 16H14.56L10.45 22.12C9.98112 21.969 9.49252 21.8881 9 21.88C7.67392 21.88 6.40214 22.4068 5.46446 23.3445C4.52678 24.2821 4 25.5539 4 26.88C4 28.2061 4.52678 29.4778 5.46446 30.4155C6.40214 31.3532 7.67392 31.88 9 31.88C10.3261 31.88 11.5978 31.3532 12.5355 30.4155C13.4732 29.4778 14 28.2061 14 26.88C13.9951 26.1547 13.8325 25.4391 13.5234 24.7829C13.2143 24.1267 12.7661 23.5456 12.21 23.08L16 17.45L19.79 23.08C19.2339 23.5456 18.7857 24.1267 18.4766 24.7829C18.1675 25.4391 18.0049 26.1547 18 26.88C18 28.2061 18.5268 29.4778 19.4645 30.4155C20.4021 31.3532 21.6739 31.88 23 31.88C24.3261 31.88 25.5978 31.3532 26.5355 30.4155C27.4732 29.4778 28 28.2061 28 26.88C28 25.5539 27.4732 24.2821 26.5355 23.3445C25.5978 22.4068 24.3261 21.88 23 21.88C22.5108 21.8882 22.0255 21.9691 21.56 22.12L17.44 16H22.1ZM5 18C4.20435 18 3.44129 17.6839 2.87868 17.1213C2.31607 16.5587 2 15.7956 2 15C2 14.2044 2.31607 13.4413 2.87868 12.8787C3.44129 12.3161 4.20435 12 5 12C5.79565 12 6.55871 12.3161 7.12132 12.8787C7.68393 13.4413 8 14.2044 8 15C8 15.7956 7.68393 16.5587 7.12132 17.1213C6.55871 17.6839 5.79565 18 5 18ZM9 29.88C8.20435 29.88 7.44129 29.5639 6.87868 29.0013C6.31607 28.4387 6 27.6756 6 26.88C6 26.0843 6.31607 25.3213 6.87868 24.7587C7.44129 24.1961 8.20435 23.88 9 23.88C9.79565 23.88 10.5587 24.1961 11.1213 24.7587C11.6839 25.3213 12 26.0843 12 26.88C12 27.6756 11.6839 28.4387 11.1213 29.0013C10.5587 29.5639 9.79565 29.88 9 29.88ZM26 26.88C26 27.6756 25.6839 28.4387 25.1213 29.0013C24.5587 29.5639 23.7956 29.88 23 29.88C22.2044 29.88 21.4413 29.5639 20.8787 29.0013C20.3161 28.4387 20 27.6756 20 26.88C20 26.0843 20.3161 25.3213 20.8787 24.7587C21.4413 24.1961 22.2044 23.88 23 23.88C23.394 23.88 23.7841 23.9576 24.148 24.1084C24.512 24.2591 24.8427 24.4801 25.1213 24.7587C25.3999 25.0373 25.6209 25.368 25.7716 25.7319C25.9224 26.0959 26 26.486 26 26.88ZM27 12C27.7956 12 28.5587 12.3161 29.1213 12.8787C29.6839 13.4413 30 14.2044 30 15C30 15.7956 29.6839 16.5587 29.1213 17.1213C28.5587 17.6839 27.7956 18 27 18C26.2044 18 25.4413 17.6839 24.8787 17.1213C24.3161 16.5587 24 15.7956 24 15C24 14.2044 24.3161 13.4413 24.8787 12.8787C25.4413 12.3161 26.2044 12 27 12ZM13 5C13 4.20435 13.3161 3.44129 13.8787 2.87868C14.4413 2.31607 15.2044 2 16 2C16.7956 2 17.5587 2.31607 18.1213 2.87868C18.6839 3.44129 19 4.20435 19 5C19 5.79565 18.6839 6.55871 18.1213 7.12132C17.5587 7.68392 16.7956 8 16 8C15.2044 8 14.4413 7.68392 13.8787 7.12132C13.3161 6.55871 13 5.79565 13 5Z" fill="#7D7F82"/>
</g>
<defs>
<clipPath id="clip0_5534_20774">
<rect width="32" height="32" fill="white"/>
</clipPath>
</defs>
</svg>
