<svg width="32" height="32" viewBox="0 0 32 32" fill="none" xmlns="http://www.w3.org/2000/svg">
<path d="M13.6644 5.01361C9.77983 4.36619 6.07279 6.88752 5.24764 10.7382L5.02216 11.7905C4.90644 12.3305 5.2504 12.8621 5.79043 12.9778C6.33045 13.0935 6.86204 12.7496 6.97776 12.2095L7.20324 11.1573C7.80444 8.35171 10.5053 6.5147 13.3356 6.9864C13.8803 7.07719 14.3956 6.70917 14.4864 6.1644C14.5771 5.61963 14.2091 5.10441 13.6644 5.01361Z" fill="#7D7F82"/>
<path fill-rule="evenodd" clip-rule="evenodd" d="M28.2445 30.3542C27.7857 30.8529 27.1055 31.0853 26.4374 30.9717L4.21703 27.1929C3.80156 27.1223 3.41902 26.9222 3.12402 26.6212C1.59088 25.057 0.641036 22.277 0.236248 19.4701C-0.182791 16.5644 -0.0864956 13.173 0.867376 10.082C1.82484 6.97924 3.70217 4.02912 6.9393 2.35994C10.1764 0.690794 14.4013 0.49442 19.657 2.12724C25.7304 4.01411 29.6811 9.11742 31.2355 14.5702C32.7795 19.9868 32.075 26.1911 28.2445 30.3542ZM26.7727 29L4.55233 25.2212C0.222089 20.8033 -0.684866 -2.09825 19.0636 4.03719C22.065 4.96966 24.5035 6.81493 26.3099 9.14055L13.6805 10.6965C12.9615 10.785 12.3048 11.1487 11.8483 11.7112C11.2433 12.4565 11.0622 13.4596 11.3682 14.3694L12.3734 17.3576C13.3802 20.3508 15.9585 22.5426 19.0747 23.0545L29.2545 24.7266C28.7224 26.3161 27.9006 27.7742 26.7727 29ZM19.3989 21.0809L29.7514 22.7814C30.4515 18.9291 29.6572 14.595 27.5643 11.0011L13.9251 12.6814C13.7195 12.7068 13.5317 12.8108 13.4011 12.9716C13.2281 13.1847 13.1763 13.4716 13.2638 13.7318L14.269 16.72C15.0398 19.0112 17.0134 20.6891 19.3989 21.0809Z" fill="#7D7F82"/>
</svg>
