<svg width="32" height="32" viewBox="0 0 32 32" fill="none" xmlns="http://www.w3.org/2000/svg">
<g clip-path="url(#clip0_5534_20780)">
<path d="M8.46914 7.30448C8.95445 7.10346 9.47459 7 9.99988 7C10.5522 7 10.9999 6.55228 10.9999 6C10.9999 5.44772 10.5522 5 9.99988 5C9.21195 5 8.43173 5.15519 7.70378 5.45672C6.97582 5.75825 6.31439 6.20021 5.75724 6.75736C5.20009 7.31451 4.75813 7.97595 4.4566 8.7039C4.15507 9.43185 3.99988 10.2121 3.99988 11C3.99988 11.5523 4.44759 12 4.99988 12C5.55216 12 5.99988 11.5523 5.99988 11C5.99988 10.4747 6.10334 9.95457 6.30436 9.46927C6.50538 8.98396 6.80002 8.54301 7.17145 8.17157C7.54288 7.80014 7.98384 7.5055 8.46914 7.30448Z" fill="#7D7F82"/>
<path fill-rule="evenodd" clip-rule="evenodd" d="M31.5069 22.3587C31.4607 22.2203 31.4054 22.0873 31.3416 21.9602L27.5279 8.95293C27.4998 8.83134 27.462 8.70918 27.4141 8.5871C27.2214 8.09667 26.9653 7.55767 26.6257 7H30.7775C31.4526 7 31.9999 6.5325 31.9999 5.9558C31.9999 5.48388 31.6293 5.07061 31.0959 4.94766L22.9505 3.07016L22.2818 2.85024C22.2818 2.85024 17.1016 1 12.9999 1C6.57911 1 3.18363 2.9871 1.47122 5.39372C-0.20173 7.74486 -0.0843292 10.2487 -0.0143302 10.9438C-0.00448908 11.0416 -0.000125784 11.1051 -0.000125784 11.1631V16.4264C-0.000125784 16.9887 0.157882 17.5396 0.455879 18.0164L4.70488 24.8148C5.1336 25.5007 5.82115 25.9845 6.61159 26.1563L27.033 30.5958C28.5301 30.9212 30.0318 30.0664 30.5163 28.6129L31.7377 24.9487C31.943 24.3329 31.943 23.6671 31.7377 23.0513L31.5069 22.3587ZM3.10079 6.55323C1.84009 8.32501 1.9252 10.243 1.97561 10.7434C1.98752 10.8617 1.99987 11.004 1.99987 11.1631V16.4264C1.99987 16.6138 2.05254 16.7975 2.15188 16.9564L6.40088 23.7548C6.54378 23.9835 6.77297 24.1447 7.03644 24.202L27.4578 28.6414C27.9569 28.7499 28.4575 28.4649 28.619 27.9805L29.8404 24.3162C29.9088 24.111 29.9088 23.889 29.8404 23.6838L29.6095 22.9912C29.45 22.5127 28.9592 22.2279 28.4647 22.3268L25.8051 22.8588C25.21 22.9778 24.5928 22.9135 24.035 22.6745L18.5178 20.3099C17.656 19.9406 17.0165 19.1897 16.7891 18.2801L15.651 13.7276C15.1776 11.8342 16.6097 10 18.5614 10H24.8804C25.1763 10 25.3903 9.87481 25.4972 9.74426C25.5726 9.65216 25.6106 9.54543 25.58 9.40686L25.552 9.31697C25.0885 8.13801 24.1585 6.57943 22.2818 5.30846C20.4038 4.03651 17.4999 3 12.9999 3C6.99637 3 4.32203 4.83692 3.10079 6.55323ZM26.4999 12L28.9781 20.3237C28.6824 20.2923 28.3777 20.3046 28.0725 20.3657L25.4129 20.8976C25.2145 20.9373 25.0088 20.9158 24.8228 20.8362L19.3056 18.4716C19.0184 18.3485 18.8052 18.0982 18.7294 17.795L17.5913 13.2425C17.4335 12.6114 17.9109 12 18.5614 12H26.4999Z" fill="#7D7F82"/>
</g>
<defs>
<clipPath id="clip0_5534_20780">
<rect width="32" height="32" fill="white"/>
</clipPath>
</defs>
</svg>
