<svg width="32" height="32" viewBox="0 0 32 32" fill="none" xmlns="http://www.w3.org/2000/svg">
<g clip-path="url(#clip0_5534_20757)">
<path fill-rule="evenodd" clip-rule="evenodd" d="M21.084 10.8034C22.1752 11.1577 23.228 11.6263 24.223 12.2039C26.6885 13.6349 28.7056 15.6798 30.0691 18.1187C30.3386 18.6008 30.9479 18.7731 31.4299 18.5036C31.8034 18.2948 31.991 17.882 31.9312 17.4825C32.23 14.2711 31.5514 11.0442 29.9838 8.2249C28.4109 5.39587 26.0168 3.11046 23.1179 1.67047C20.2189 0.230472 16.9514 -0.296383 13.7467 0.159476C10.5421 0.615334 7.55103 2.03246 5.16861 4.22373C2.78618 6.415 1.12441 9.27734 0.402735 12.4328C-0.318941 15.5882 -0.0665811 18.8883 1.12649 21.8974C2.31956 24.9064 4.39723 27.4828 7.08514 29.2863C9.77305 31.0898 12.9448 32.0357 16.1815 31.999C16.7337 31.9927 17.1763 31.54 17.1701 30.9877C17.1638 30.4355 16.711 29.9928 16.1588 29.9991C13.3267 30.0312 10.5514 29.2036 8.1995 27.6255C8.08457 27.5484 7.97091 27.4697 7.85855 27.3893C7.19579 25.0016 7.96861 22.0027 9.07555 19.3994C9.63796 18.0767 10.259 16.9191 10.7404 16.0915C10.9806 15.6785 11.1849 15.3497 11.3279 15.1258C11.3993 15.014 11.4554 14.9285 11.493 14.8719C11.5117 14.8436 11.5259 14.8226 11.5349 14.8092L11.5447 14.7947L11.5467 14.7919L11.5693 14.7589L11.5893 14.7242C12.4797 13.1753 12.8955 11.6759 12.9823 10.2782C13.6472 10.1545 14.3211 10.0715 15 10.0303V16C15 16.5523 15.4477 17 16 17C16.5523 17 17 16.5523 17 16V10.0303C17.679 10.0715 18.3529 10.1545 19.0177 10.2782C19.1046 11.6759 19.5203 13.1753 20.4108 14.7242L20.4307 14.7589L20.4531 14.7915L20.4553 14.7947L20.4651 14.8092C20.4742 14.8226 20.4883 14.8436 20.5071 14.8719C20.5446 14.9285 20.6007 15.014 20.6722 15.1259C20.7379 15.2287 20.8165 15.3537 20.9056 15.4989C21.095 15.8073 21.4286 16 21.7906 16H22.453C22.9262 16 23.2264 15.4951 22.9885 15.086C22.7327 14.6461 22.5137 14.2935 22.3576 14.0491C22.2795 13.9268 22.217 13.8315 22.1734 13.7658C22.154 13.7366 22.1383 13.7132 22.1266 13.6959C21.5494 12.6837 21.2243 11.7148 21.084 10.8034ZM21.5725 3.15682C20.1177 2.52558 18.5712 2.14829 17 2.03577V8.02704C17.7111 8.0655 18.4176 8.14487 19.1158 8.26418C19.1896 7.80377 19.2963 7.35981 19.4292 6.93468C19.9152 5.38021 20.7464 4.08926 21.5725 3.15682ZM21.071 8.70883C21.1294 8.29792 21.2213 7.90485 21.3381 7.53149C21.735 6.26171 22.4242 5.2075 23.083 4.46763C23.1888 4.34883 23.2693 4.212 23.3218 4.06722C25.3676 5.32247 27.0627 7.08683 28.2359 9.19679C29.1327 10.8098 29.697 12.5753 29.9071 14.3897C28.596 12.8385 27.0147 11.5118 25.227 10.4741C23.9179 9.71429 22.5209 9.12272 21.071 8.70883ZM15 2.03577C14.6758 2.05899 14.3517 2.09355 14.0284 2.13954C12.781 2.31698 11.5706 2.66088 10.4276 3.15681C11.2537 4.08925 12.0849 5.3802 12.5709 6.93468C12.7038 7.3598 12.8105 7.80377 12.8842 8.26418C13.5825 8.14486 14.289 8.06549 15 8.02704V2.03577ZM10.662 7.53148C10.7787 7.90484 10.8707 8.29791 10.929 8.70882C9.51956 9.11117 8.15982 9.68151 6.88198 10.4114C5.05013 11.4577 3.43095 12.8066 2.09291 14.3897C2.15154 13.8834 2.23798 13.379 2.35239 12.8787C2.98386 10.1177 4.43791 7.61313 6.52253 5.69577C7.16437 5.10542 7.8567 4.57929 8.58942 4.12216C9.33632 4.85972 10.1984 6.04861 10.662 7.53148ZM9.87341 13.6959C10.4506 12.6837 10.7757 11.7147 10.916 10.8034C9.86043 11.1461 8.84053 11.596 7.87395 12.1481C5.47518 13.5182 3.49312 15.4675 2.11583 17.7971C2.26422 18.9437 2.55486 20.0736 2.98568 21.1602C3.60557 22.7236 4.49838 24.1535 5.61384 25.3876C5.62786 23.0063 6.40457 20.5698 7.23502 18.6168C7.83847 17.1976 8.50091 15.964 9.01158 15.086C9.26739 14.6461 9.48632 14.2935 9.64247 14.0491C9.72057 13.9268 9.78305 13.8315 9.82669 13.7658C9.84606 13.7366 9.86173 13.7132 9.87341 13.6959Z" fill="#7D7F82"/>
<path d="M29.7263 31.9067L27.3579 27.0533L32 23.9733H27.7368L23.8526 26.7733L24.8 23.9733H18.0737C18.3579 23.6933 18.7368 23.5067 19.4947 23.4133L22.6211 23.04C23.8526 22.8533 25.6526 22.2 26.1263 20.7067C26.8842 18.4667 24.5158 18 21.8632 18C19.779 18 17.0316 18.3733 15.8947 21.08H19.4C19.8737 20.0533 20.8211 19.96 21.6737 19.96C22.4316 19.96 23 20.1467 22.8105 20.6133C22.7158 20.9867 22.4316 21.1733 21.9579 21.2667L19.4 21.7333C17.3158 22.2 15.0421 23.04 14 26.12H20.9158L19.0211 32H22.2421L22.9053 29.8533L24.2316 28.92L25.4632 31.9067H29.7263Z" fill="#7D7F82"/>
</g>
<defs>
<clipPath id="clip0_5534_20757">
<rect width="32" height="32" fill="white"/>
</clipPath>
</defs>
</svg>
