<svg width="32" height="32" viewBox="0 0 32 32" fill="none" xmlns="http://www.w3.org/2000/svg">
<g clip-path="url(#clip0_5534_20767)">
<path d="M27.44 13.34H25.19C25.6506 12.1917 25.8914 10.9672 25.9 9.73C25.9093 8.29098 25.5993 6.86782 24.9923 5.56305C24.3853 4.25829 23.4964 3.10441 22.3897 2.18456C21.283 1.2647 19.9861 0.601779 18.5924 0.243546C17.1986 -0.114687 15.7428 -0.159308 14.3297 0.1129C12.9166 0.385108 11.5815 0.967367 10.4206 1.81772C9.25967 2.66808 8.30182 3.76536 7.61605 5.0305C6.93029 6.29564 6.53368 7.69714 6.45482 9.13403C6.37596 10.5709 6.61681 12.0074 7.16 13.34H4.9C4.13087 13.34 3.39325 13.6455 2.84939 14.1894C2.30554 14.7332 2 15.4709 2 16.24V16.62C2.00125 17.291 2.23516 17.9408 2.66185 18.4587C3.08855 18.9766 3.68162 19.3304 4.34 19.46L5.79 30.39C5.8268 30.8218 6.02163 31.2249 6.33717 31.522C6.6527 31.819 7.06675 31.9893 7.5 32H24.8C25.2278 32.0012 25.6414 31.8466 25.9635 31.565C26.2856 31.2834 26.4941 30.8941 26.55 30.47L28 19.54C28.672 19.408 29.2757 19.0424 29.704 18.5079C30.1323 17.9734 30.3576 17.3047 30.34 16.62V16.2C30.3295 15.4378 30.0193 14.7104 29.4766 14.1752C28.9339 13.64 28.2022 13.3399 27.44 13.34ZM16.17 2C17.58 1.99529 18.964 2.37936 20.17 3.11C19.73 3.82 18.1 5.34 14.95 6.7C11.62 8.15 9.32 8.24 8.65 8.06C9.03253 6.34788 9.98463 4.8162 11.3506 3.7154C12.7166 2.61461 14.4157 2.00985 16.17 2ZM8.46 10C8.79064 10.0535 9.12506 10.0803 9.46 10.08C11.6294 9.95663 13.7547 9.41681 15.72 8.49C17.4458 7.77359 19.0565 6.80651 20.5 5.62C20.9428 5.24106 21.336 4.80762 21.67 4.33C22.8147 5.49805 23.5556 7.00184 23.7841 8.62128C24.0126 10.2407 23.7168 11.8908 22.94 13.33H9.35C8.82646 12.3098 8.53613 11.1861 8.5 10.04L8.46 10ZM25.98 19.51L25.42 23.74H17.17V19.55L25.98 19.51ZM15.17 19.51V23.74H6.92L6.36 19.51H15.17ZM7.17 25.74H15.17V29.96H7.74L7.17 25.74ZM24.58 29.96H17.17V25.78H25.17L24.58 29.96ZM28.34 16.62C28.34 16.7377 28.3167 16.8543 28.2713 16.9629C28.226 17.0715 28.1595 17.1701 28.0758 17.2529C27.9921 17.3357 27.8928 17.401 27.7837 17.4451C27.6745 17.4893 27.5577 17.5113 27.44 17.51H4.9C4.78229 17.5113 4.66548 17.4893 4.55634 17.4451C4.4472 17.401 4.34791 17.3357 4.2642 17.2529C4.1805 17.1701 4.11404 17.0715 4.06869 16.9629C4.02334 16.8543 3.99999 16.7377 4 16.62V16.2C4 15.9613 4.09482 15.7324 4.2636 15.5636C4.43239 15.3948 4.66131 15.3 4.9 15.3H27.44C27.6787 15.3 27.9076 15.3948 28.0764 15.5636C28.2452 15.7324 28.34 15.9613 28.34 16.2V16.62Z" fill="#7D7F82"/>
</g>
<defs>
<clipPath id="clip0_5534_20767">
<rect width="32" height="32" fill="white"/>
</clipPath>
</defs>
</svg>
