<svg width="32" height="32" viewBox="0 0 32 32" fill="none" xmlns="http://www.w3.org/2000/svg">
<g clip-path="url(#clip0_5534_20740)">
<path d="M12.4472 25.1056C11.9532 24.8586 11.3526 25.0588 11.1056 25.5528C10.8586 26.0467 11.0588 26.6474 11.5528 26.8944L12.6807 27.4584C14.7741 28.5051 17.2521 28.4363 19.2842 27.2751L19.9961 26.8682C20.4757 26.5942 20.6423 25.9834 20.3682 25.5038C20.0942 25.0243 19.4834 24.8577 19.0039 25.1317L18.2919 25.5386C16.8404 26.368 15.0704 26.4171 13.5751 25.6695L12.4472 25.1056Z" fill="#7D7F82"/>
<path fill-rule="evenodd" clip-rule="evenodd" d="M18 -1.52588e-05C22.7157 -1.52588e-05 26.669 3.26406 27.7238 7.65614C28.7958 8.36852 29.4823 9.44679 29.7978 10.6072C31.0674 10.9565 32 12.1193 32 13.4999V17.5C32 18.8551 31.1015 20.0004 29.8678 20.3726C29.5734 21.681 28.8042 23.256 27.7292 24.3212C26.6697 28.7247 20.7238 32 16 32C11.2763 32 5.33045 28.7248 4.2709 24.3213C3.19586 23.2561 2.42663 21.6811 2.13223 20.3726C0.898484 20.0004 0 18.8551 0 17.5V13.5C0 12.1194 0.93262 10.9566 2.20224 10.6072C2.51769 9.44682 3.20421 8.36853 4.27622 7.65615C5.33106 3.26407 9.28436 -1.52588e-05 14 -1.52588e-05H18ZM14 1.99998H18C21.2553 1.99998 24.0565 3.94429 25.3056 6.73496C23.1507 6.23917 20.0626 5.99998 16 5.99998C11.9374 5.99998 8.84933 6.2392 6.69443 6.73499C7.94354 3.9443 10.7447 1.99998 14 1.99998ZM22.152 24.2463C23.033 24.8283 24.0657 25.5106 25.1634 25.5324C23.6672 28.1791 19.1503 30 16 30C12.8498 30 8.33293 28.1791 6.8367 25.5324C7.93429 25.5106 8.96699 24.8283 9.84796 24.2463C10.2089 24.0079 10.5444 23.7862 10.8485 23.6337C11.4538 23.3301 12.0433 22.9829 12.5539 22.6821L12.5976 22.6564C13.1449 22.334 13.5936 22.0717 14.0055 21.8714C14.3989 21.68 15.0237 21.5 16 21.5C16.9763 21.5 17.6011 21.68 17.9945 21.8713C18.4064 22.0717 18.8551 22.334 19.4024 22.6563L19.4461 22.6821C19.9567 22.9829 20.5462 23.3301 21.1515 23.6337C21.4556 23.7862 21.7911 24.0078 22.152 24.2463ZM6.02682 9.00187C6.33256 8.89315 6.67341 8.79362 7.04972 8.70311L10.5223 21.6628C10.3855 21.7665 10.2483 21.8725 10.1106 21.9787C8.95674 22.8697 7.77631 23.7812 6.6495 23.5182C5.09776 23.1562 4 20.7728 4 19.1794V18.5H3C2.44772 18.5 2 18.0523 2 17.5V13.5C2 12.9477 2.44774 12.5 3.00002 12.5H4V12.1222C4 10.7402 4.72468 9.46489 6.02682 9.00187ZM11.1677 8.1434C10.3888 8.19707 9.67515 8.26602 9.02583 8.35066L12.2873 20.5228C12.5743 20.3596 12.8559 20.2065 13.1306 20.0729C13.4576 19.9138 13.8316 19.7799 14.2593 19.6816L11.1677 8.1434ZM13.2111 8.04218C14.0775 8.01393 15.0069 7.99998 16 7.99998C20.7608 7.99998 24.0567 8.32034 25.9732 9.00183C27.2753 9.46485 28 10.7402 28 12.1222V12.4999H29C29.5523 12.4999 30 12.9477 30 13.4999V17.5C30 18.0523 29.5523 18.5 29 18.5H28V19.1793C28 20.7727 26.9022 23.1561 25.3505 23.5182C24.2237 23.7811 23.0436 22.8699 21.8897 21.9789C21.3993 21.6003 20.9137 21.2253 20.4389 20.9457C19.8987 20.6275 19.3725 20.3176 18.8694 20.0728C18.2141 19.7541 17.3699 19.5362 16.2823 19.5041L13.2111 8.04218Z" fill="#7D7F82"/>
</g>
<defs>
<clipPath id="clip0_5534_20740">
<rect width="32" height="32" fill="white"/>
</clipPath>
</defs>
</svg>
