<svg width="32" height="32" viewBox="0 0 32 32" fill="none" xmlns="http://www.w3.org/2000/svg">
<path d="M32 13.2385C32 10.2299 29.5523 7.78223 26.5437 7.78223C24.0217 7.78223 21.8941 9.50235 21.2719 11.831C20.6496 9.50235 18.5221 7.78223 15.9999 7.78223C13.4778 7.78223 11.3502 9.50235 10.728 11.831C10.1058 9.50235 7.97825 7.78223 5.45619 7.78223C2.44769 7.78229 0 10.23 0 13.2385C0 16.1856 2.34881 18.5941 5.27275 18.6913C5.27244 18.7147 5.27187 18.738 5.27187 18.7614C5.27187 21.77 7.71956 24.2177 10.7282 24.2177C13.2503 24.2177 15.3779 22.4974 16.0001 20.1686C16.6222 22.4974 18.7498 24.2177 21.2719 24.2177C24.2806 24.2177 26.7283 21.77 26.7283 18.7614C26.7283 18.738 26.7276 18.7147 26.7274 18.6913C29.6512 18.5942 32 16.1857 32 13.2385ZM5.63094 16.8152C5.573 16.8181 5.51487 16.8197 5.45631 16.8197C3.48156 16.8197 1.875 15.2132 1.875 13.2385C1.875 11.2637 3.48156 9.65723 5.45631 9.65723C7.431 9.65723 9.0375 11.2637 9.0375 13.2385C9.0375 13.3534 9.0315 13.4669 9.02087 13.579C7.46375 14.0934 6.21488 15.291 5.63094 16.8152ZM10.7281 22.3427C8.75337 22.3427 7.14681 20.7362 7.14681 18.7614C7.14681 18.6465 7.15281 18.533 7.16344 18.4209C8.72056 17.9066 9.96944 16.709 10.5534 15.1847C10.6113 15.1819 10.6696 15.1802 10.7281 15.1802C10.7867 15.1802 10.8449 15.1819 10.9028 15.1847C11.4867 16.709 12.7356 17.9066 14.2927 18.4209C14.3033 18.533 14.3093 18.6465 14.3093 18.7614C14.3093 20.7362 12.7028 22.3427 10.7281 22.3427ZM16.1747 16.8153C16.1168 16.8181 16.0586 16.8197 16 16.8197C15.9414 16.8197 15.8832 16.8181 15.8253 16.8153C15.2413 15.2909 13.9924 14.0933 12.4353 13.5791C12.4247 13.4669 12.4187 13.3534 12.4187 13.2385C12.4187 11.2638 14.0252 9.65729 16 9.65729C17.9748 9.65729 19.5813 11.2638 19.5813 13.2385C19.5813 13.3534 19.5753 13.4669 19.5647 13.5791C18.0076 14.0934 16.7586 15.291 16.1747 16.8153ZM21.2719 22.3427C19.2972 22.3427 17.6907 20.7362 17.6907 18.7614C17.6907 18.6465 17.6967 18.533 17.7073 18.4209C19.2644 17.9065 20.5134 16.7089 21.0972 15.1847C21.1552 15.1819 21.2133 15.1802 21.2719 15.1802C21.3305 15.1802 21.3887 15.1819 21.4466 15.1847C22.0306 16.709 23.2794 17.9067 24.8366 18.4209C24.8472 18.533 24.8532 18.6465 24.8532 18.7614C24.8531 20.7362 23.2466 22.3427 21.2719 22.3427ZM26.5437 16.8197C26.4852 16.8197 26.427 16.8181 26.3691 16.8153C25.7851 15.291 24.5362 14.0934 22.9791 13.5791C22.9685 13.4669 22.9625 13.3534 22.9625 13.2385C22.9625 11.2638 24.569 9.65729 26.5437 9.65729C28.5184 9.65729 30.125 11.2638 30.125 13.2385C30.125 15.2133 28.5184 16.8197 26.5437 16.8197Z" fill="#7D7F82"/>
</svg>
