<svg width="32" height="32" viewBox="0 0 32 32" fill="none" xmlns="http://www.w3.org/2000/svg">
<g clip-path="url(#clip0_5534_20713)">
<path fill-rule="evenodd" clip-rule="evenodd" d="M24.1103 22.7339C24.4343 23.3945 25.3247 23.5611 25.7546 22.9641C27.1687 21.0004 28.0006 18.5965 28.0006 16C28.0006 9.37258 22.5806 4 15.8946 4C10.0154 4 5.1151 8.15425 4.0181 13.663C3.88249 14.3439 4.53135 14.8814 5.2103 14.736C8.2934 14.0757 12.2554 13.9027 16.3991 15.5C20.4129 17.0473 22.7509 19.9625 24.1103 22.7339ZM26.0006 16C26.0006 17.5298 25.6546 18.9773 25.0349 20.2726C23.4338 17.6746 20.9463 15.1094 17.1184 13.6339C13.2336 12.1363 9.50967 12.0479 6.42901 12.488C7.86346 8.70529 11.5541 6 15.8946 6C21.4926 6 26.0006 10.4937 26.0006 16Z" fill="#7D7F82"/>
<path fill-rule="evenodd" clip-rule="evenodd" d="M22.2038 25.1551C22.4704 25.601 22.332 26.1778 21.8797 26.4333C20.1145 27.4304 18.0717 28 15.8946 28C10.3036 28 5.59785 24.243 4.2065 19.137C4.06631 18.6225 4.40023 18.1101 4.91981 17.9903C8.23605 17.2253 11.8792 16.6605 16.2625 19C18.7735 20.3402 20.7278 22.687 22.2038 25.1551ZM15.8946 26C17.3074 26 18.6486 25.7142 19.8657 25.199C18.5965 23.3045 17.0811 21.704 15.3208 20.7644C12.0309 19.0085 9.27386 19.1386 6.49984 19.6936C7.98229 23.3817 11.6249 26 15.8946 26Z" fill="#7D7F82"/>
<path fill-rule="evenodd" clip-rule="evenodd" d="M32 16C32 24.8366 24.8366 32 16 32C7.16344 32 0 24.8366 0 16C0 7.16344 7.16344 0 16 0C24.8366 0 32 7.16344 32 16ZM30 16C30 23.732 23.732 30 16 30C8.26801 30 2 23.732 2 16C2 8.26801 8.26801 2 16 2C23.732 2 30 8.26801 30 16Z" fill="#7D7F82"/>
</g>
<defs>
<clipPath id="clip0_5534_20713">
<rect width="32" height="32" fill="white"/>
</clipPath>
</defs>
</svg>
