<svg width="32" height="32" viewBox="0 0 32 32" fill="none" xmlns="http://www.w3.org/2000/svg">
<g clip-path="url(#clip0_5534_20742)">
<path d="M3 6.00001C4.65686 6.00001 6.00001 4.65686 6.00001 3C6.00001 1.34315 4.65686 0 3 0C1.34315 0 0 1.34315 0 3C0 4.65686 1.34315 6.00001 3 6.00001Z" fill="#7D7F82"/>
<path d="M31.415 14.4121C31.045 10.8221 29.035 8.54212 26.995 6.51212C26.995 6.51212 26.965 6.48212 26.945 6.46212C24.915 4.41212 22.635 2.40212 19.035 2.03212C16.745 1.79212 13.065 2.88212 10.345 5.80212C7.945 8.38212 5.415 13.3421 6.985 22.3221L2.825 26.4721C1.725 27.5721 1.725 29.3621 2.825 30.4621L2.975 30.6121C3.525 31.1621 4.245 31.4421 4.975 31.4421C5.705 31.4421 6.425 31.1621 6.975 30.6121L11.135 26.4521C13.065 26.7921 14.815 26.9421 16.385 26.9421C22.135 26.9421 25.625 24.9821 27.655 23.0921C30.575 20.3721 31.655 16.6821 31.425 14.4021L31.415 14.4121ZM5.555 29.2021C5.235 29.5221 4.705 29.5221 4.385 29.2021L4.235 29.0521C3.915 28.7321 3.915 28.2021 4.235 27.8821L7.775 24.3421C7.935 24.5821 8.115 24.8021 8.335 25.0121C8.565 25.2621 8.835 25.4621 9.115 25.6321L5.545 29.2021H5.555ZM26.285 21.6321C24.025 23.7321 19.615 25.9221 11.395 24.4721C11.075 24.4121 10.675 24.2321 10.315 24.0021L10.295 23.9921C10.105 23.8721 9.935 23.7421 9.785 23.6121C9.425 23.2121 9.065 22.5721 8.975 22.0521C7.525 13.8321 9.715 9.41212 11.815 7.16212C14.225 4.57212 17.345 3.86212 18.835 4.02212C21.805 4.33212 23.715 6.04212 25.565 7.91212C27.425 9.75212 29.115 11.6621 29.425 14.6121C29.585 16.1221 28.875 19.2321 26.285 21.6321Z" fill="#7D7F82"/>
<path d="M15.605 21.1321C14.695 20.8521 13.915 20.3621 13.325 19.7121C12.855 19.1821 12.505 18.5521 12.295 17.8321C12.135 17.3021 11.585 17.0021 11.055 17.1521C10.525 17.3121 10.225 17.8621 10.375 18.3921C10.675 19.3921 11.165 20.2821 11.835 21.0321C12.665 21.9521 13.765 22.6421 15.015 23.0321C15.115 23.0621 15.215 23.0721 15.305 23.0721C15.735 23.0721 16.135 22.7921 16.265 22.3621C16.425 21.8321 16.125 21.2721 15.605 21.1121V21.1321Z" fill="#7D7F82"/>
<path d="M19.885 11.1721C20.4373 11.1721 20.885 10.7244 20.885 10.1721C20.885 9.61984 20.4373 9.17212 19.885 9.17212C19.3327 9.17212 18.885 9.61984 18.885 10.1721C18.885 10.7244 19.3327 11.1721 19.885 11.1721Z" fill="#7D7F82"/>
<path d="M23.275 14.5721C23.8273 14.5721 24.275 14.1244 24.275 13.5721C24.275 13.0198 23.8273 12.5721 23.275 12.5721C22.7227 12.5721 22.275 13.0198 22.275 13.5721C22.275 14.1244 22.7227 14.5721 23.275 14.5721Z" fill="#7D7F82"/>
<path d="M15.275 12.8221C15.665 12.4321 15.665 11.8021 15.275 11.4121C14.885 11.0221 14.255 11.0221 13.865 11.4121C13.475 11.8021 13.475 12.4321 13.865 12.8221C14.255 13.2121 14.885 13.2121 15.275 12.8221Z" fill="#7D7F82"/>
<path d="M17.245 14.8021C16.855 15.1921 16.855 15.8221 17.245 16.2121C17.635 16.6021 18.265 16.6021 18.655 16.2121C19.045 15.8221 19.045 15.1921 18.655 14.8021C18.265 14.4121 17.635 14.4121 17.245 14.8021Z" fill="#7D7F82"/>
<path d="M20.625 18.1721C20.235 18.5621 20.235 19.1921 20.625 19.5821C21.015 19.9721 21.645 19.9721 22.035 19.5821C22.425 19.1921 22.425 18.5621 22.035 18.1721C21.645 17.7821 21.015 17.7821 20.625 18.1721Z" fill="#7D7F82"/>
</g>
<defs>
<clipPath id="clip0_5534_20742">
<rect width="32" height="32" fill="white"/>
</clipPath>
</defs>
</svg>
