<svg width="32" height="32" viewBox="0 0 32 32" fill="none" xmlns="http://www.w3.org/2000/svg">
<g clip-path="url(#clip0_5534_20749)">
<path fill-rule="evenodd" clip-rule="evenodd" d="M16.0157 21.248L7.44305 28.8938C7.4654 29.6896 7.1729 30.4926 6.56556 31.0999C5.39399 32.2715 3.4945 32.2715 2.32292 31.0999L0.908709 29.6857C-0.262864 28.5141 -0.262864 26.6146 0.908709 25.443C1.50854 24.8432 2.29919 24.5505 3.08526 24.5649L10.4617 16.2944L1.64628 8.43201C-0.426808 6.58303 -0.518498 3.37127 1.44573 1.40704C3.40996 -0.557192 6.62172 -0.465507 8.4707 1.60759L16.0157 10.0671L23.5606 1.60765C25.4096 -0.465446 28.6214 -0.557131 30.5856 1.4071C32.5498 3.37133 32.4581 6.58309 30.385 8.43207L21.5697 16.2944L28.9461 24.5648C29.7321 24.5504 30.5228 24.8431 31.1226 25.443C32.2942 26.6145 32.2942 28.514 31.1226 29.6856L29.7084 31.0998C28.5368 32.2714 26.6373 32.2714 25.4658 31.0998C24.8584 30.4925 24.5659 29.6895 24.5883 28.8938L16.0157 21.248ZM20.0771 17.6256L20.9796 18.6374L18.6761 20.9409L17.5181 19.908L20.0771 17.6256ZM11.7929 14.8018L14.6757 11.5695L6.97811 2.93882C5.89421 1.72353 4.01141 1.66978 2.85994 2.82125C1.70848 3.97272 1.76223 5.85551 2.97751 6.93942L11.7929 14.8018ZM26.6603 29.3548C26.7091 29.4751 26.7823 29.5879 26.88 29.6856C26.9554 29.761 27.0399 29.8219 27.13 29.8682C27.5061 30.0616 27.9791 30.0007 28.2942 29.6856L29.7084 28.2714C30.0167 27.9631 30.0816 27.5035 29.9031 27.1315C29.8852 27.0943 29.8649 27.058 29.8422 27.0228C29.8044 26.9641 29.7598 26.9086 29.7084 26.8572C29.3179 26.4667 28.6847 26.4667 28.2942 26.8572L26.88 28.2714C26.6934 28.4579 26.596 28.6998 26.5876 28.9442C26.5829 29.0835 26.6071 29.2236 26.6603 29.3548ZM26.9713 25.3554L25.1416 23.3039L23.3426 25.1029L25.3934 26.932C25.417 26.9068 25.4411 26.8818 25.4658 26.8572L26.88 25.443C26.9099 25.413 26.9404 25.3838 26.9713 25.3554ZM23.8082 21.8089L22.313 20.1325L20.1712 22.2743L21.8476 23.7695L23.8082 21.8089ZM5.15136 29.6856C5.24899 29.588 5.32222 29.4752 5.37103 29.3548C5.42421 29.2237 5.44842 29.0836 5.44367 28.9443C5.43533 28.6999 5.33788 28.458 5.15135 28.2715L3.73714 26.8573C3.34661 26.4667 2.71345 26.4667 2.32292 26.8573C2.27156 26.9086 2.22694 26.9642 2.18909 27.0228C2.16638 27.058 2.14609 27.0943 2.12825 27.1315C1.94969 27.5035 2.01458 27.9631 2.32292 28.2715L3.73714 29.6857C4.05223 30.0008 4.52522 30.0616 4.90133 29.8682C4.99139 29.822 5.07591 29.7611 5.15136 29.6856ZM6.88975 23.304L5.06005 25.3554C5.09094 25.3839 5.12139 25.4131 5.15135 25.443L6.56556 26.8573C6.59018 26.8819 6.61429 26.9068 6.63787 26.9321L8.68872 25.1029L6.88975 23.304ZM9.71832 20.1325L8.22315 21.8089L10.1837 23.7695L11.8601 22.2744L9.71832 20.1325ZM11.0517 18.6375L25.0532 2.93888C26.1371 1.72359 28.0199 1.66984 29.1714 2.82131C30.3228 3.97278 30.2691 5.85558 29.0538 6.93948L13.3552 20.941L11.0517 18.6375Z" fill="#7D7F82"/>
</g>
<defs>
<clipPath id="clip0_5534_20749">
<rect width="32" height="32" fill="white"/>
</clipPath>
</defs>
</svg>
