<svg width="32" height="32" viewBox="0 0 32 32" fill="none" xmlns="http://www.w3.org/2000/svg">
<g clip-path="url(#clip0_5534_20696)">
<path d="M25.9554 19.8021C26.3567 20.2035 27.0075 20.2035 27.4088 19.8021C27.8102 19.4007 27.8102 18.75 27.4088 18.3486C27.0074 17.9473 26.3567 17.9473 25.9554 18.3486C25.554 18.75 25.554 19.4007 25.9554 19.8021Z" fill="#7D7F82"/>
<path d="M23.0484 22.7091C23.4498 23.1104 24.1005 23.1104 24.5019 22.7091C24.9032 22.3077 24.9033 21.657 24.5019 21.2556C24.1005 20.8542 23.4498 20.8542 23.0484 21.2556C22.6471 21.6569 22.647 22.3077 23.0484 22.7091Z" fill="#7D7F82"/>
<path d="M24.5019 19.8021C24.1005 20.2035 23.4498 20.2035 23.0484 19.8021C22.647 19.4007 22.6471 18.75 23.0484 18.3486C23.4498 17.9473 24.1005 17.9473 24.5019 18.3486C24.9033 18.75 24.9032 19.4007 24.5019 19.8021Z" fill="#7D7F82"/>
<path d="M25.9554 22.7091C26.3567 23.1104 27.0075 23.1104 27.4088 22.7091C27.8102 22.3077 27.8102 21.657 27.4088 21.2556C27.0074 20.8542 26.3567 20.8542 25.9554 21.2556C25.554 21.6569 25.554 22.3077 25.9554 22.7091Z" fill="#7D7F82"/>
<path fill-rule="evenodd" clip-rule="evenodd" d="M14.3276 2.36042C16.7358 -0.0477816 20.6402 -0.0477816 23.0484 2.36042L28.8623 8.17432C31.023 10.3351 31.2451 13.7003 29.5284 16.1086C29.5487 16.1284 29.5689 16.1483 29.589 16.1684C31.9972 18.5766 31.9972 22.4811 29.589 24.8893C27.1808 27.2975 23.2764 27.2975 20.8682 24.8893C20.8175 24.8386 20.7679 24.7872 20.7193 24.7353C19.7931 25.2669 18.7361 25.5537 17.6495 25.5536L12.4591 25.5537C11.3688 25.5537 10.3231 25.9868 9.55212 26.7578L6.69683 29.6131C5.29206 31.0178 3.01444 31.0178 1.60967 29.6131C0.204901 28.2083 0.204901 25.9307 1.60967 24.5259L4.46497 21.6706C5.23595 20.8996 5.66905 19.854 5.66907 18.7637L5.66909 13.5732C5.66907 11.9377 6.31876 10.3692 7.47522 9.21277L14.3276 2.36042ZM19.5836 23.0148C18.5889 20.7547 19.0171 18.0195 20.8682 16.1684C22.7529 14.2837 25.554 13.874 27.8371 14.9393C28.9987 13.3323 28.8559 11.0749 27.4088 9.62779L21.5949 3.8139C19.9895 2.20841 17.3865 2.20843 15.781 3.8139L8.92869 10.6662C8.15771 11.4372 7.72461 12.4829 7.72459 13.5732L7.72457 18.7636C7.72457 19.6658 7.52692 20.5475 7.15556 21.3509L9.87178 24.0672C10.6753 23.6958 11.557 23.4982 12.4591 23.4982L17.6495 23.4981C18.3303 23.4981 18.9936 23.3293 19.5836 23.0148ZM5.91844 23.1241C5.93567 23.1068 5.95279 23.0895 5.96978 23.0721L8.15061 25.2529L8.12919 25.2739L8.09865 25.3043L6.69683 26.7061L4.51662 24.5259L5.91844 23.1241ZM3.06315 25.9794C2.46109 26.5814 2.4611 27.5575 3.06315 28.1596C3.6652 28.7616 4.6413 28.7616 5.24336 28.1596L3.06315 25.9794ZM28.1356 23.4358C26.5301 25.0413 23.9272 25.0413 22.3217 23.4358C20.7162 21.8303 20.7162 19.2274 22.3217 17.6219C23.9271 16.0164 26.5301 16.0164 28.1356 17.6219C29.7411 19.2274 29.741 21.8303 28.1356 23.4358Z" fill="#7D7F82"/>
</g>
<defs>
<clipPath id="clip0_5534_20696">
<rect width="32" height="32" fill="white"/>
</clipPath>
</defs>
</svg>
