<svg width="32" height="32" viewBox="0 0 32 32" fill="none" xmlns="http://www.w3.org/2000/svg">
<g clip-path="url(#clip0_5534_20764)">
<path d="M30.88 15.07H26.21C25.66 15.07 25.21 15.52 25.21 16.07C25.21 16.62 25.66 17.07 26.21 17.07H28.41L20.29 24.86L16.32 20.82C15.78 20.27 14.92 20.18 14.27 20.59L0.459995 29.46C-5.48363e-06 29.76 -0.140005 30.37 0.159995 30.84C0.349995 31.14 0.669994 31.3 0.999995 31.3C1.17999 31.3 1.36999 31.25 1.53999 31.14L15.11 22.43L19.16 26.56C19.76 27.17 20.75 27.19 21.38 26.59L30.02 18.3V20.78C30.02 21.33 30.47 21.78 31.02 21.78C31.57 21.78 32.02 21.33 32.02 20.78V16.19C32.02 15.58 31.52 15.08 30.9 15.08L30.88 15.07Z" fill="#7D7F82"/>
<path d="M5.93999 21.88C6.10999 22 6.30999 22.05 6.49999 22.05C6.81999 22.05 7.13999 21.9 7.32999 21.61C7.63999 21.15 7.51999 20.53 7.05999 20.22C4.45999 18.46 2.90999 15.55 2.90999 12.41C2.90999 7.22 7.12999 3 12.33 3C17.53 3 21.75 7.22 21.75 12.42C21.75 14.67 20.95 16.84 19.49 18.54C19.13 18.96 19.18 19.59 19.6 19.95C20.02 20.31 20.65 20.26 21.01 19.84C22.78 17.77 23.76 15.14 23.76 12.41C23.74 6.12 18.62 1 12.33 1C6.03999 1 0.909995 6.12 0.909995 12.42C0.909995 16.22 2.78999 19.76 5.93999 21.89V21.88Z" fill="#7D7F82"/>
<path d="M12.33 19.25C8.52999 19.25 5.44999 16.16 5.44999 12.37C5.44999 8.58 8.53999 5.49 12.33 5.49C16.12 5.49 19.21 8.58 19.21 12.37C19.21 16.16 16.12 19.25 12.33 19.25ZM12.33 7.48C9.63999 7.48 7.44999 9.67 7.44999 12.36C7.44999 15.05 9.63999 17.24 12.33 17.24C15.02 17.24 17.21 15.05 17.21 12.36C17.21 9.67 15.02 7.48 12.33 7.48Z" fill="#7D7F82"/>
</g>
<defs>
<clipPath id="clip0_5534_20764">
<rect width="32" height="32" fill="white"/>
</clipPath>
</defs>
</svg>
