<svg width="32" height="32" viewBox="0 0 32 32" fill="none" xmlns="http://www.w3.org/2000/svg">
<path fill-rule="evenodd" clip-rule="evenodd" d="M10 6C10 9.31371 7.31371 12 4 12C3.46148 12 2.93953 11.9291 2.44298 11.796C1.56274 11.5601 0.454134 12.2597 0.688497 13.1403C1.25033 15.2515 2.23091 17.6482 3.88805 20.1803C8.6103 27.3959 13.9119 30.2157 15.2755 30.8528C15.4912 30.9535 15.7305 30.9581 15.9507 30.8678C17.4297 30.2609 23.4062 27.4541 27.8399 20.1803C32.4127 12.6783 32.0616 6.3642 31.9413 5.14642C31.9272 5.00399 31.8762 4.87204 31.7811 4.76504C31.1116 4.01142 27.7108 1 16.1188 1C13.7897 1 11.7913 1.12157 10.0792 1.32197C9.25878 1.41801 8.92088 2.46825 9.30713 3.19844C9.7495 4.0347 10 4.9881 10 6ZM12 6C12 10.4183 8.41828 14 4 14C3.66884 14 3.34174 13.9798 3.02002 13.9404C3.24729 14.6071 3.52219 15.3014 3.8537 16.0184C4.459 16.5154 5.38041 16.8054 6.15275 17.0245C6.91387 17.2526 7.69993 17.3843 8.48607 17.516C9.09925 17.6186 9.71248 17.7213 10.314 17.8698C11.8505 18.2203 13.3251 18.7692 14.7359 19.42C16.9045 20.4761 18.9999 21.7977 20.4516 23.6327C20.7817 24.0675 21.0779 24.5535 21.2298 25.0684C22.8645 23.5987 24.5965 21.6588 26.1321 19.1394C29.9442 12.8853 30.0684 7.56747 29.9847 5.81944C29.0258 5.05561 25.5691 3 16.1188 3C14.3828 3 12.8473 3.06962 11.4913 3.1882C11.8203 4.06456 12 5.01289 12 6ZM15.6617 28.8124C14.0132 27.9525 9.69346 25.2892 5.72618 19.3345C5.86433 19.2222 6.06425 19.1639 6.23854 19.1259C6.6298 19.0492 7.02677 19.0801 7.42281 19.1109C7.57704 19.1229 7.73113 19.1349 7.88468 19.1405C10.8686 19.4169 13.7999 20.2143 16.4424 21.509C17.5653 22.0671 18.644 22.7233 19.5444 23.5563C20.1018 24.0935 20.6561 24.7165 20.7739 25.4686C18.6091 27.3232 16.6688 28.35 15.6617 28.8124Z" fill="#7D7F82"/>
<path d="M4 10C6.20914 10 8 8.20914 8 6C8 3.79086 6.20914 2 4 2C1.79086 2 0 3.79086 0 6C0 8.20914 1.79086 10 4 10Z" fill="#7D7F82"/>
</svg>
