<svg width="32" height="32" viewBox="0 0 32 32" fill="none" xmlns="http://www.w3.org/2000/svg">
<path fill-rule="evenodd" clip-rule="evenodd" d="M9.27096 2.20002L12.8065 5.73555C13.9781 6.90712 13.9781 8.80662 12.8065 9.97819L12.0994 10.6853L15.9999 14.5858L19.9004 10.6853L19.1933 9.97824C18.0217 8.80667 18.0217 6.90717 19.1933 5.7356L22.7288 2.20007C24.2909 0.63797 26.8236 0.63797 28.3857 2.20007L29.7999 3.61428C31.362 5.17638 31.362 7.70904 29.7999 9.27113L26.2644 12.8067C25.0928 13.9782 23.1933 13.9782 22.0217 12.8067L21.3146 12.0995L17.4141 16L29.9917 28.5776C30.3822 28.9681 30.3822 29.6013 29.9917 29.9918C29.6012 30.3823 28.968 30.3823 28.5775 29.9918L15.9999 17.4142L3.42228 29.9919C3.03175 30.3824 2.39859 30.3824 2.00806 29.9919C1.61754 29.6013 1.61754 28.9682 2.00806 28.5777L14.5857 16L10.6852 12.0995L9.97807 12.8066C8.8065 13.9782 6.907 13.9782 5.73543 12.8066L2.19989 9.27108C0.637796 7.70899 0.637796 5.17633 2.19989 3.61423L3.61411 2.20002C5.1762 0.637918 7.70886 0.637918 9.27096 2.20002ZM22.7288 10.6853L23.4359 11.3925C23.8265 11.783 24.4596 11.783 24.8501 11.3925L28.3857 7.85692C29.1667 7.07587 29.1667 5.80954 28.3857 5.02849L26.9715 3.61428C26.1904 2.83323 24.9241 2.83323 24.143 3.61428L20.6075 7.14981C20.217 7.54034 20.217 8.1735 20.6075 8.56403L21.3146 9.27112L24.7593 5.82645C25.1498 5.43593 25.7829 5.43593 26.1735 5.82645C26.564 6.21697 26.564 6.85014 26.1735 7.24066L22.7288 10.6853ZM10.6852 9.27107L7.24051 5.8264C6.84999 5.43587 6.21682 5.43587 5.8263 5.8264C5.43577 6.21692 5.43577 6.85009 5.8263 7.24061L9.27097 10.6853L8.56385 11.3924C8.17333 11.7829 7.54016 11.7829 7.14964 11.3924L3.61411 7.85687C2.83306 7.07582 2.83306 5.80949 3.61411 5.02844L5.02832 3.61423C5.80937 2.83318 7.0757 2.83318 7.85675 3.61423L11.3923 7.14976C11.7828 7.54029 11.7828 8.17345 11.3923 8.56398L10.6852 9.27107Z" fill="#7D7F82"/>
</svg>
