<svg width="32" height="32" viewBox="0 0 32 32" fill="none" xmlns="http://www.w3.org/2000/svg">
<g clip-path="url(#clip0_5534_20815)">
<path fill-rule="evenodd" clip-rule="evenodd" d="M8 32C21.2548 32 32 21.2548 32 8C32 5.94927 31.7428 3.95862 31.2589 2.05854C31.0939 1.41092 30.5891 0.906056 29.9415 0.741119C28.0414 0.257207 26.0507 0 24 0C10.7452 0 0 10.7452 0 24C0 26.0507 0.257207 28.0414 0.741119 29.9415C0.906056 30.5891 1.41092 31.0939 2.05854 31.2589C3.95862 31.7428 5.94927 32 8 32ZM29.4893 12.7344C27.6581 21.0843 21.0843 27.6581 12.7344 29.4893C12.2843 27.3852 11.275 25.4349 9.80635 23.8484L11.6203 22.0345L12.9497 23.3639C13.3403 23.7545 13.9734 23.7545 14.364 23.3639C14.7545 22.9734 14.7545 22.3402 14.364 21.9497L13.0345 20.6203L14.6203 19.0345L15.9497 20.3639C16.3403 20.7545 16.9734 20.7545 17.364 20.3639C17.7545 19.9734 17.7545 19.3402 17.364 18.9497L16.0345 17.6203L17.6203 16.0345L18.9497 17.3639C19.3403 17.7545 19.9734 17.7545 20.364 17.3639C20.7545 16.9734 20.7545 16.3402 20.364 15.9497L19.0345 14.6203L20.6203 13.0345L21.9497 14.3639C22.3403 14.7545 22.9734 14.7545 23.364 14.3639C23.7545 13.9734 23.7545 13.3402 23.364 12.9497L22.0345 11.6203L23.8484 9.80634C25.4337 11.2739 27.3836 12.2839 29.4893 12.7344ZM29.8284 10.7614C29.9416 9.85684 30 8.93523 30 8C30 6.63775 29.8764 5.30587 29.6403 4.01449L25.2639 8.39087C26.5546 9.56725 28.1291 10.3833 29.8284 10.7614ZM23.9261 6.90022L28.3889 2.43743C26.9721 2.15074 25.5046 2 24 2C23.3459 2 22.6985 2.02854 22.059 2.08445C22.2496 3.83206 22.8967 5.49164 23.9261 6.90022ZM20.0761 2.34892C20.323 4.53212 21.1639 6.59905 22.4978 8.32857L20.6203 10.206L19.1213 8.70708C18.7308 8.31655 18.0976 8.31655 17.7071 8.70708C17.3166 9.0976 17.3166 9.73077 17.7071 10.1213L19.2061 11.6203L17.6203 13.206L16.1213 11.7071C15.7308 11.3166 15.0976 11.3166 14.7071 11.7071C14.3166 12.0976 14.3166 12.7308 14.7071 13.1213L16.2061 14.6203L14.6203 16.206L13.1213 14.7071C12.7308 14.3166 12.0976 14.3166 11.7071 14.7071C11.3166 15.0976 11.3166 15.7308 11.7071 16.1213L13.2061 17.6203L11.6203 19.206L10.1213 17.7071C9.7308 17.3166 9.09763 17.3166 8.70711 17.7071C8.31658 18.0976 8.31658 18.7308 8.70711 19.1213L10.2061 20.6203L8.32857 22.4978C6.59717 21.1624 4.52957 20.3227 2.34892 20.076C3.97015 11.0713 11.0713 3.97015 20.0761 2.34892ZM8.39087 25.2639C9.56811 26.5555 10.3836 28.1303 10.7614 29.8284C9.85684 29.9416 8.93524 30 8 30C6.63775 30 5.30587 29.8764 4.01449 29.6403L8.39087 25.2639ZM6.90022 23.9261C5.49017 22.8957 3.83009 22.2494 2.08445 22.059C2.02854 22.6985 2 23.3459 2 24C2 25.5046 2.15074 26.9721 2.43743 28.3889L6.90022 23.9261Z" fill="#7D7F82"/>
</g>
<defs>
<clipPath id="clip0_5534_20815">
<rect width="32" height="32" fill="white"/>
</clipPath>
</defs>
</svg>
