<svg width="32" height="32" viewBox="0 0 32 32" fill="none" xmlns="http://www.w3.org/2000/svg">
<g clip-path="url(#clip0_5534_20802)">
<path fill-rule="evenodd" clip-rule="evenodd" d="M8 32C21.2548 32 32 21.2548 32 8C32 5.94927 31.7428 3.95862 31.2589 2.05854C31.0939 1.41092 30.5891 0.906056 29.9415 0.741119C28.0414 0.257207 26.0507 0 24 0C10.7452 0 0 10.7452 0 24C0 26.0507 0.257207 28.0414 0.741119 29.9415C0.906056 30.5891 1.41092 31.0939 2.05854 31.2589C3.95862 31.7428 5.94927 32 8 32ZM30 8C30 8.82842 29.9542 9.64615 29.865 10.4508L26.5345 7.12025L29.6403 4.01449C29.8764 5.30587 30 6.63775 30 8ZM12.8727 29.4585C21.1108 27.5958 27.5958 21.1107 29.4585 12.8727L25.1203 8.53447L22.0345 11.6203L23.364 12.9497C23.7545 13.3402 23.7545 13.9734 23.364 14.3639C22.9734 14.7545 22.3403 14.7545 21.9497 14.3639L20.6203 13.0345L19.0345 14.6203L20.364 15.9497C20.7545 16.3402 20.7545 16.9734 20.364 17.3639C19.9734 17.7545 19.3403 17.7545 18.9497 17.3639L17.6203 16.0345L16.0345 17.6203L17.364 18.9497C17.7545 19.3402 17.7545 19.9734 17.364 20.3639C16.9734 20.7545 16.3403 20.7545 15.9497 20.3639L14.6203 19.0345L13.0345 20.6203L14.364 21.9497C14.7545 22.3402 14.7545 22.9734 14.364 23.3639C13.9734 23.7545 13.3403 23.7545 12.9497 23.3639L11.6203 22.0345L8.5345 25.1203L12.8727 29.4585ZM10.4508 29.865L7.12028 26.5345L4.01449 29.6403C5.30587 29.8764 6.63775 30 8 30C8.82844 30 9.64618 29.9542 10.4508 29.865ZM7.12028 23.706L10.2061 20.6203L8.70711 19.1213C8.31658 18.7308 8.31658 18.0976 8.70711 17.7071C9.09763 17.3166 9.7308 17.3166 10.1213 17.7071L11.6203 19.206L13.2061 17.6203L11.7071 16.1213C11.3166 15.7308 11.3166 15.0976 11.7071 14.7071C12.0976 14.3166 12.7308 14.3166 13.1213 14.7071L14.6203 16.206L16.2061 14.6203L14.7071 13.1213C14.3166 12.7308 14.3166 12.0976 14.7071 11.7071C15.0976 11.3166 15.7308 11.3166 16.1213 11.7071L17.6203 13.206L19.2061 11.6203L17.7071 10.1213C17.3166 9.73077 17.3166 9.0976 17.7071 8.70708C18.0976 8.31655 18.7308 8.31655 19.1213 8.70708L20.6203 10.206L23.7061 7.12025L19.1273 2.54148C10.8893 4.40422 4.40424 10.8892 2.54149 19.1273L7.12028 23.706ZM2.13498 21.5492L5.70607 25.1203L2.43743 28.3889C2.15074 26.9721 2 25.5046 2 24C2 23.1716 2.04579 22.3538 2.13498 21.5492ZM28.3889 2.43743L25.1203 5.70604L21.5492 2.13497C22.3539 2.04579 23.1716 2 24 2C25.5046 2 26.9721 2.15074 28.3889 2.43743Z" fill="#7D7F82"/>
</g>
<defs>
<clipPath id="clip0_5534_20802">
<rect width="32" height="32" fill="white"/>
</clipPath>
</defs>
</svg>
