<svg width="32" height="32" viewBox="0 0 32 32" fill="none" xmlns="http://www.w3.org/2000/svg">
<g clip-path="url(#clip0_5534_20801)">
<path fill-rule="evenodd" clip-rule="evenodd" d="M21.7025 9.29746C20.4053 8.19273 18.7834 7.45792 17 7.25619C16.6718 7.21907 16.3381 7.2 16 7.2C15.6619 7.2 15.3282 7.21907 15 7.25619C13.4222 7.43466 11.9708 8.03039 10.7588 8.93038C10.2213 9.32951 9.73091 9.78849 9.29746 10.2975C8.19273 11.5946 7.45792 13.2166 7.25619 15C7.21907 15.3282 7.2 15.6619 7.2 16C7.2 16.3381 7.21907 16.6718 7.25619 17C7.45792 18.7834 8.19273 20.4053 9.29746 21.7025C9.73091 22.2115 10.2213 22.6705 10.7588 23.0696C11.9708 23.9696 13.4222 24.5653 15 24.7438C15.3282 24.7809 15.6619 24.8 16 24.8C16.3381 24.8 16.6718 24.7809 17 24.7438C18.7834 24.5421 20.4053 23.8073 21.7025 22.7025C22.2115 22.2691 22.6705 21.7787 23.0696 21.2412C23.9696 20.0292 24.5653 18.5778 24.7438 17C24.7809 16.6718 24.8 16.3381 24.8 16C24.8 15.6619 24.7809 15.3282 24.7438 15C24.5653 13.4222 23.9696 11.9708 23.0696 10.7588C22.6705 10.2213 22.2115 9.73091 21.7025 9.29746ZM9.27301 15C9.45471 13.7671 9.96727 12.642 10.7176 11.7176L12.7159 13.7159C12.4481 14.1001 12.2461 14.5336 12.126 15H9.27301ZM12.126 17H9.27301C9.45471 18.2329 9.96727 19.358 10.7176 20.2824L12.7159 18.2841C12.4481 17.8999 12.2461 17.4664 12.126 17ZM14.2369 19.5915L12.1931 21.6353C13.0177 22.1935 13.9714 22.5754 15 22.727V19.874C14.7339 19.8055 14.4786 19.7103 14.2369 19.5915ZM17 19.874V22.727C18.2329 22.5453 19.358 22.0327 20.2824 21.2824L18.2841 19.2841C17.8999 19.5519 17.4664 19.7539 17 19.874ZM19.5915 17.7631L21.6353 19.8069C22.1935 18.9823 22.5754 18.0286 22.727 17H19.874C19.8055 17.2661 19.7103 17.5214 19.5915 17.7631ZM19.874 15H22.727C22.5754 13.9714 22.1935 13.0177 21.6353 12.1931L19.5915 14.2369C19.7103 14.4786 19.8055 14.7339 19.874 15ZM18.2841 12.7159L20.2824 10.7176C19.358 9.96727 18.2329 9.45471 17 9.27301V12.126C17.4664 12.2461 17.8999 12.4481 18.2841 12.7159ZM15 12.126V9.27301C13.9714 9.42461 13.0177 9.80652 12.1931 10.3647L14.2369 12.4085C14.4786 12.2897 14.7339 12.1945 15 12.126ZM18 16C18 17.1046 17.1046 18 16 18C14.8954 18 14 17.1046 14 16C14 14.8954 14.8954 14 16 14C17.1046 14 18 14.8954 18 16Z" fill="#7D7F82"/>
<path fill-rule="evenodd" clip-rule="evenodd" d="M16 0C15.4477 0 15 0.447715 15 1V3.03789C12.2655 3.2459 9.76753 4.29988 7.76712 5.9387L6.12132 4.29289C5.7308 3.90237 5.09763 3.90237 4.70711 4.29289C4.31658 4.68342 4.31658 5.31658 4.70711 5.70711L6.32114 7.32114C4.46445 9.39037 3.26166 12.0584 3.03789 15H1C0.447716 15 0 15.4477 0 16C0 16.5523 0.447715 17 1 17H3.03789C3.26166 19.9416 4.46444 22.6096 6.32114 24.6789L5.07969 25.9203C4.68917 26.3108 4.68917 26.944 5.07969 27.3345C5.47021 27.725 6.10338 27.725 6.4939 27.3345L7.76712 26.0613C9.76753 27.7001 12.2655 28.7541 15 28.9621V31C15 31.5523 15.4477 32 16 32C16.5523 32 17 31.5523 17 31V28.9621C19.9416 28.7383 22.6096 27.5356 24.6789 25.6789L25.9203 26.9203C26.3108 27.3108 26.944 27.3108 27.3345 26.9203C27.725 26.5298 27.725 25.8966 27.3345 25.5061L26.0613 24.2329C27.7001 22.2325 28.7541 19.7345 28.9621 17H31C31.5523 17 32 16.5523 32 16C32 15.4477 31.5523 15 31 15H28.9621C28.7541 12.2655 27.7001 9.76753 26.0613 7.76712L27.7071 6.12132C28.0976 5.7308 28.0976 5.09763 27.7071 4.70711C27.3166 4.31658 26.6834 4.31658 26.2929 4.70711L24.6789 6.32114C22.6096 4.46444 19.9416 3.26166 17 3.03789V1C17 0.447715 16.5523 0 16 0ZM9.18963 7.3612C10.8172 6.07633 12.8166 5.2416 15 5.04484C15.3294 5.01516 15.6629 5 16 5C16.3371 5 16.6706 5.01516 17 5.04484C19.3899 5.26021 21.5595 6.23999 23.2622 7.73781C23.7636 8.17892 24.2246 8.66496 24.6388 9.18963C25.9237 10.8172 26.7584 12.8166 26.9552 15C26.9848 15.3294 27 15.6629 27 16C27 16.3371 26.9848 16.6706 26.9552 17C26.7584 19.1834 25.9237 21.1828 24.6388 22.8104C24.2246 23.335 23.7636 23.8211 23.2622 24.2622C21.5595 25.76 19.3899 26.7398 17 26.9552C16.6706 26.9848 16.3371 27 16 27C15.6629 27 15.3294 26.9848 15 26.9552C12.8166 26.7584 10.8172 25.9237 9.18963 24.6388C8.66496 24.2246 8.17892 23.7636 7.73781 23.2622C6.23999 21.5595 5.26021 19.3899 5.04484 17C5.01516 16.6706 5 16.3371 5 16C5 15.6629 5.01516 15.3294 5.04484 15C5.26021 12.6101 6.23999 10.4405 7.73781 8.73781C8.17892 8.23636 8.66496 7.77539 9.18963 7.3612Z" fill="#7D7F82"/>
</g>
<defs>
<clipPath id="clip0_5534_20801">
<rect width="32" height="32" fill="white"/>
</clipPath>
</defs>
</svg>
