<svg width="32" height="32" viewBox="0 0 32 32" fill="none" xmlns="http://www.w3.org/2000/svg">
<g clip-path="url(#clip0_5534_20761)">
<path fill-rule="evenodd" clip-rule="evenodd" d="M16 23C19.866 23 23 19.866 23 16C23 12.134 19.866 9 16 9C12.134 9 9 12.134 9 16C9 19.866 12.134 23 16 23ZM21 16C21 18.7614 18.7614 21 16 21C13.2386 21 11 18.7614 11 16C11 13.2386 13.2386 11 16 11C18.7614 11 21 13.2386 21 16Z" fill="#7D7F82"/>
<path fill-rule="evenodd" clip-rule="evenodd" d="M12.0997 2.16804L11.0858 4.13605L8.97725 3.46141C7.5508 3.005 5.98889 3.3837 4.92986 4.44272L4.44272 4.92986C3.3837 5.98889 3.005 7.5508 3.46141 8.97725L4.13605 11.0858L2.16804 12.0997C0.83666 12.7856 0 14.1579 0 15.6555V16.3445C0 17.8421 0.836659 19.2144 2.16804 19.9003L4.13605 20.9142L3.46141 23.0228C3.005 24.4492 3.3837 26.0111 4.44272 27.0701L4.92986 27.5573C5.98889 28.6163 7.5508 28.995 8.97725 28.5386L11.0858 27.8639L12.0997 29.832C12.7856 31.1633 14.1579 32 15.6555 32H16.3445C17.8421 32 19.2144 31.1633 19.9003 29.832L20.9142 27.8639L23.0228 28.5386C24.4492 28.995 26.0111 28.6163 27.0701 27.5573L27.5573 27.0701C28.6163 26.0111 28.995 24.4492 28.5386 23.0228L27.8639 20.9142L29.832 19.9003C31.1633 19.2144 32 17.8421 32 16.3445V15.6555C32 14.1579 31.1633 12.7856 29.832 12.0997L27.8639 11.0858L28.5386 8.97725C28.995 7.5508 28.6163 5.98889 27.5573 4.92986L27.0701 4.44272C26.0111 3.3837 24.4492 3.005 23.0228 3.46141L20.9142 4.13605L19.9003 2.16804C19.2144 0.83666 17.8421 0 16.3445 0H15.6555C14.1579 0 12.7856 0.836659 12.0997 2.16804ZM5.85694 6.34408C5.32742 6.87359 5.13807 7.65454 5.36628 8.36777L6.04092 10.4763C6.0878 10.6228 6.11692 10.7713 6.12935 10.9192C6.14458 11.1005 6.1347 11.281 6.10162 11.4561C6.05035 11.7274 5.94336 11.9857 5.78774 12.2138C5.68733 12.361 5.56668 12.4957 5.42769 12.6131C5.31432 12.7089 5.18876 12.7933 5.05203 12.8637L3.08402 13.8776C2.41833 14.2206 2 14.9067 2 15.6555V16.3445C2 17.0933 2.41833 17.7794 3.08402 18.1224L5.05203 19.1363C5.18876 19.2067 5.31433 19.2911 5.42769 19.3869C5.56668 19.5044 5.68733 19.639 5.78774 19.7862C5.94336 20.0143 6.05035 20.2726 6.10162 20.5439C6.1347 20.719 6.14458 20.8995 6.12935 21.0809C6.11692 21.2288 6.08779 21.3772 6.04092 21.5237L5.36628 23.6322C5.13808 24.3455 5.32742 25.1264 5.85694 25.6559L6.34408 26.1431C6.87359 26.6726 7.65454 26.8619 8.36777 26.6337L10.4763 25.9591C10.6228 25.9122 10.7712 25.8831 10.9192 25.8707C11.1005 25.8554 11.281 25.8653 11.4561 25.8984C11.7274 25.9496 11.9857 26.0566 12.2138 26.2123C12.361 26.3127 12.4957 26.4333 12.6131 26.5723C12.7089 26.6857 12.7933 26.8112 12.8637 26.948L13.8776 28.916C14.2206 29.5817 14.9067 30 15.6555 30H16.3445C17.0933 30 17.7794 29.5817 18.1224 28.916L19.1363 26.948C19.2067 26.8112 19.2911 26.6857 19.3869 26.5723C19.5043 26.4333 19.639 26.3127 19.7862 26.2123C20.0143 26.0566 20.2726 25.9496 20.5439 25.8984C20.719 25.8653 20.8995 25.8554 21.0809 25.8707C21.2288 25.8831 21.3772 25.9122 21.5237 25.9591L23.6322 26.6337C24.3455 26.8619 25.1264 26.6726 25.6559 26.1431L26.1431 25.6559C26.6726 25.1264 26.8619 24.3455 26.6337 23.6322L25.9591 21.5237C25.9122 21.3772 25.8831 21.2288 25.8707 21.0809C25.8554 20.8995 25.8653 20.719 25.8984 20.5439C25.9496 20.2726 26.0566 20.0143 26.2123 19.7862C26.3127 19.639 26.4333 19.5043 26.5723 19.3869C26.6857 19.2911 26.8112 19.2067 26.948 19.1363L28.916 18.1224C29.5817 17.7794 30 17.0933 30 16.3445V15.6555C30 14.9067 29.5817 14.2206 28.916 13.8776L26.948 12.8637C26.8112 12.7933 26.6857 12.7089 26.5723 12.6131C26.4333 12.4957 26.3127 12.361 26.2123 12.2138C26.0566 11.9857 25.9496 11.7274 25.8984 11.4561C25.8653 11.281 25.8554 11.1005 25.8707 10.9191C25.8831 10.7712 25.9122 10.6228 25.9591 10.4763L26.6337 8.36777C26.8619 7.65454 26.6726 6.87359 26.1431 6.34408L25.6559 5.85694C25.1264 5.32742 24.3455 5.13808 23.6322 5.36628L21.5237 6.04092C21.3772 6.08779 21.2288 6.11692 21.0809 6.12935C20.8995 6.14458 20.719 6.1347 20.5439 6.10162C20.2726 6.05035 20.0143 5.94336 19.7862 5.78774C19.639 5.68733 19.5044 5.56668 19.3869 5.42769C19.2911 5.31432 19.2067 5.18876 19.1363 5.05203L18.1224 3.08402C17.7794 2.41833 17.0933 2 16.3445 2H15.6555C14.9067 2 14.2206 2.41833 13.8776 3.08402L12.8637 5.05203C12.7933 5.18876 12.7089 5.31433 12.6131 5.42769C12.4956 5.56668 12.361 5.68733 12.2138 5.78774C11.9857 5.94336 11.7274 6.05035 11.4561 6.10162C11.281 6.1347 11.1005 6.14458 10.9191 6.12935C10.7712 6.11692 10.6228 6.0878 10.4763 6.04092L8.36777 5.36628C7.65454 5.13808 6.87359 5.32742 6.34407 5.85694L5.85694 6.34408Z" fill="#7D7F82"/>
</g>
<defs>
<clipPath id="clip0_5534_20761">
<rect width="32" height="32" fill="white"/>
</clipPath>
</defs>
</svg>
