<svg width="32" height="32" viewBox="0 0 32 32" fill="none" xmlns="http://www.w3.org/2000/svg">
<path d="M29.1 5L24.3 0.3C23.9 -0.1 23.3 -0.1 22.9 0.3L2.3 20.9C1.9 21.3 1.9 21.9 2.3 22.3L5.4 25.8C5.6 26.1 6 26.2 6.3 26.1L8.4 25.8L10.1 30.8C10.3 31.3 10.6 31.6 11 31.8C11.3 31.9 11.5 32 11.8 32C12 32 12.2 32 12.5 31.9L17.2 30.1C17.7 29.9 18.2 29.5 18.4 28.9C18.6 28.3 18.6 27.7 18.3 27.2L17.5 25.7C18.4 25.2 19.7 24.3 20.4 22.9C21.5 20.6 20.5 17.6 20.1 16.4L29.2 6.3C29.5 5.9 29.4 5.3 29.1 5ZM18.6 22C18.2 22.8 17.3 23.5 16.6 23.9L15.4 21.6L18.5 18.1C18.8 19.3 19.1 20.9 18.6 22ZM13.4 20.8C13.1 21.1 13.1 21.6 13.3 21.9L16.5 28.2L12 30L10 24.4C9.8 24 9.4 23.7 9 23.7H8.9L6.5 24L4.4 21.6L7.6 18.4L9.4 20.2C9.6 20.4 9.9 20.5 10.1 20.5C10.3 20.5 10.6 20.4 10.8 20.2C11.2 19.8 11.2 19.2 10.8 18.8L9 17.1L23.6 2.4L27 5.7L13.4 20.8Z" fill="#7D7F82"/>
</svg>
