<svg width="33" height="32" viewBox="0 0 33 32" fill="none" xmlns="http://www.w3.org/2000/svg">
<path d="M30.6271 24.9517C30.715 24.8849 30.8132 24.8222 30.8877 24.7499C31.918 23.7489 32.2734 22.2079 31.7939 20.8222C31.1943 19.0907 29.2139 18.1357 27.3555 17.4306C26.4883 17.1005 24.7549 16.0692 22.2031 14.3642C19.9746 12.873 17.71 5.67374 17.71 2.49796C17.71 2.47739 17.6995 2.4603 17.6983 2.44003C17.6994 2.43039 17.7052 2.4227 17.7061 2.41299C17.7529 1.86319 17.3457 1.37882 16.7949 1.33194C6.86328 0.485261 5.84473 1.48135 5.46094 1.85538C5.17285 2.1376 5.02832 2.50577 5.05273 2.89053C5.11621 3.88956 5.1084 4.28018 5.09961 4.73135C5.09473 4.98917 5.08984 5.2626 5.0957 5.65811C5.10938 6.52139 5.14746 7.19815 5.17969 7.76456C5.28711 9.63565 5.3125 10.081 4.01074 12.5155C2.48145 15.3769 3.08008 18.4149 3.77051 20.7382C3.80957 20.8886 3.81543 21.4306 3.81934 21.8671C3.8291 22.7411 3.8418 23.9374 4.04004 25.2499C4.11584 25.7584 4.2074 26.3162 6.48047 26.4205V29.2528H1C0.447266 29.2528 0 29.7001 0 30.2528C0 30.8056 0.447266 31.2528 1 31.2528H28.4717C30.417 31.2528 32 29.6698 32 27.7245C32 26.5945 31.4562 25.5979 30.6271 24.9517ZM5.77441 13.4589C7.27051 10.661 7.30176 9.83585 7.17676 7.6503C7.14551 7.10635 7.1084 6.45596 7.0957 5.62686C7.08984 5.26163 7.09473 5.0087 7.09961 4.76944C7.10742 4.36905 7.11523 3.98721 7.0752 3.22745C8.08447 2.96323 11.1688 2.9053 15.7432 3.25656C15.8002 4.00723 15.9346 4.89591 16.1365 5.85465L14.835 7.16788C14.4463 7.56046 14.4482 8.19327 14.8408 8.58194C15.0361 8.7753 15.29 8.87198 15.5449 8.87198C15.8027 8.87198 16.0596 8.77335 16.2549 8.57608L16.7098 8.1171C16.8262 8.51523 16.9518 8.91354 17.0861 9.31198L15.9707 10.4374C15.582 10.83 15.584 11.4628 15.9766 11.8515C16.1719 12.0448 16.4258 12.1415 16.6807 12.1415C16.9385 12.1415 17.1953 12.0429 17.3906 11.8456L17.8683 11.3637C18.0789 11.8536 18.3002 12.3282 18.5351 12.7776L17.8359 13.4833C17.4473 13.8759 17.4502 14.5087 17.8418 14.8974C18.0371 15.0907 18.292 15.1874 18.5459 15.1874C18.8037 15.1874 19.0605 15.0888 19.2559 14.8915L19.6166 14.5273C20.0816 15.1562 20.5737 15.6797 21.0918 16.0263C22.8232 17.1835 25.2832 18.7821 26.6455 19.2997C27.8828 19.7704 29.5684 20.5067 29.9033 21.4765C30.127 22.122 29.9629 22.8603 29.4951 23.3144C29.1315 23.6668 27.9868 24.0262 26.392 24.1962H22.5264C22.4111 24.1852 22.3024 24.182 22.1855 24.1689C20.1611 23.9413 18.2793 23.3046 15.8975 22.4999C13.3048 21.6232 10.0892 20.5424 5.53021 19.6035C5.00031 17.655 4.70105 15.4669 5.77441 13.4589ZM5.81934 21.8456C5.81885 21.7956 5.81799 21.7555 5.81744 21.7076C7.38129 22.0448 8.77747 22.3977 10.0408 22.752C9.86566 23.2552 9.56964 24.068 9.34082 24.3651C8.03418 24.4442 6.64062 24.4442 5.94238 24.3769C5.83594 23.4276 5.82715 22.5634 5.81934 21.8456ZM8.48047 26.4123C8.84332 26.3976 9.23218 26.3774 9.6582 26.3495C10.9147 26.2657 11.4773 24.72 11.9619 23.3153C13.1795 23.6919 14.2639 24.0586 15.2568 24.3944C17.5111 25.1565 19.3446 25.7563 21.3253 26.055C21.3466 26.067 21.3635 26.0854 21.3857 26.0958V29.2528H8.48047V26.4123ZM28.4717 29.2528H23.3857V26.2652C23.7446 26.282 24.1056 26.2948 24.4678 26.2948C25.1588 26.2948 25.847 26.2616 26.5091 26.1962H28.4717C29.3145 26.1962 30 26.8817 30 27.7245C30 28.5673 29.3145 29.2528 28.4717 29.2528Z" fill="#7D7F82"/>
</svg>
