<svg width="33" height="32" viewBox="0 0 33 32" fill="none" xmlns="http://www.w3.org/2000/svg">
<path d="M28.2078 18.3487L29.9897 16.5668C30.5248 16.0227 30.8638 15.3162 30.9534 14.5584C31.043 13.8006 30.8781 13.0345 30.4847 12.3807C31.4842 10.8473 31.9276 9.01749 31.7411 7.19662C31.5545 5.37575 30.7491 3.67394 29.4594 2.37512C28.1605 1.08537 26.4587 0.280011 24.6379 0.0934203C22.817 -0.0931706 20.9872 0.350295 19.4538 1.34982C18.8 0.951024 18.0319 0.781768 17.2711 0.868865C16.5103 0.955961 15.8003 1.29443 15.2536 1.83065L13.4717 3.61256C12.9496 4.13837 12.6101 4.81789 12.5032 5.5511C12.3963 6.28431 12.5275 7.03248 12.8777 7.68549L8.29565 12.2675C7.64305 11.9158 6.8945 11.7836 6.1609 11.8906C5.4273 11.9976 4.74768 12.338 4.22271 12.8615L2.46202 14.6222C1.93575 15.1504 1.59534 15.8352 1.49204 16.5737C1.38874 17.3121 1.52814 18.064 1.88926 18.7164C0.599375 20.2429 -0.0724139 22.197 0.00610469 24.194C0.0846233 26.191 0.907765 28.0862 2.31352 29.5068C3.73409 30.9126 5.62937 31.7357 7.62636 31.8142C9.62336 31.8927 11.5774 31.221 13.104 29.9311C13.7563 30.2922 14.5083 30.4316 15.2467 30.3283C15.9851 30.225 16.6699 29.8846 17.1981 29.3583L18.9588 27.5976C19.4823 27.0727 19.8227 26.393 19.9297 25.6594C20.0367 24.9258 19.9045 24.1773 19.5528 23.5247L24.1348 18.9426C24.7878 19.2928 25.536 19.4241 26.2692 19.3171C27.0024 19.2102 27.682 18.8707 28.2078 18.3487ZM14.0656 22.7044L13.8959 22.8741L8.94618 17.9244L9.11589 17.7547C9.63936 17.2297 9.97981 16.5501 10.0868 15.8165C10.1938 15.0829 10.0616 14.3344 9.70986 13.6818L14.2919 9.09971C14.9449 9.44987 15.6931 9.58114 16.4263 9.47422C17.1595 9.36729 17.839 9.02781 18.3648 8.50574L18.5346 8.33603L23.4843 13.2858L23.3146 13.4555C22.7925 13.9813 22.453 14.6608 22.3461 15.394C22.2392 16.1272 22.3705 16.8754 22.7206 17.5284L18.1386 22.1105C17.486 21.7587 16.7374 21.6266 16.0038 21.7335C15.2702 21.8405 14.5906 22.181 14.0656 22.7044ZM28.5755 15.1525L26.7936 16.9345C26.6587 17.0731 26.4976 17.1835 26.3197 17.2594C26.1417 17.3352 25.9505 17.375 25.7571 17.3763C25.5636 17.3776 25.3719 17.3405 25.1929 17.267C25.014 17.1936 24.8514 17.0854 24.7147 16.9486C24.5779 16.8118 24.4696 16.6493 24.3962 16.4703C24.3228 16.2914 24.2857 16.0996 24.287 15.9062C24.2883 15.7128 24.328 15.5215 24.4039 15.3436C24.4797 15.1657 24.5902 15.0046 24.7288 14.8697L26.5107 13.0878C26.7858 12.8164 27.1567 12.6643 27.5431 12.6643C27.9295 12.6643 28.3004 12.8164 28.5755 13.0878C28.8493 13.3616 29.0031 13.733 29.0031 14.1202C29.0031 14.5074 28.8493 14.8787 28.5755 15.1525ZM28.0593 3.76105C28.9995 4.70027 29.6012 5.92504 29.7702 7.2432C29.9391 8.56136 29.6656 9.8983 28.9927 11.0443C28.3565 10.7395 27.6424 10.6365 26.9461 10.7489C26.2497 10.8614 25.6044 11.184 25.0965 11.6736L24.9197 11.8504L19.97 6.90061L20.1468 6.72383C20.6348 6.22287 20.9595 5.58578 21.0781 4.89656C21.1968 4.20734 21.1038 3.49834 20.8114 2.86303C21.95 2.20225 23.2743 1.93426 24.5802 2.10038C25.8861 2.26649 27.1012 2.85748 28.0381 3.78226L28.0593 3.76105ZM14.8859 5.02677L16.6678 3.24486C16.9416 2.97106 17.313 2.81724 17.7002 2.81724C18.0874 2.81724 18.4587 2.97106 18.7325 3.24486C19.0039 3.51995 19.1561 3.89082 19.1561 4.27724C19.1561 4.66366 19.0039 5.03453 18.7325 5.30962L16.9506 7.09152C16.8157 7.23016 16.6547 7.34061 16.4767 7.41645C16.2988 7.4923 16.1076 7.53204 15.9141 7.53336C15.7207 7.53467 15.529 7.49754 15.35 7.42412C15.1711 7.3507 15.0085 7.24245 14.8717 7.10567C14.735 6.96891 14.6267 6.80633 14.5533 6.62738C14.4799 6.44844 14.4427 6.25668 14.4441 6.06326C14.4454 5.86984 14.4851 5.67861 14.561 5.50068C14.6368 5.32275 14.7472 5.16166 14.8859 5.02677ZM3.87623 16.0364L5.63692 14.2757C5.91073 14.0019 6.28208 13.8481 6.6693 13.8481C7.05652 13.8481 7.42787 14.0019 7.70168 14.2757C7.97548 14.5495 8.1293 14.9209 8.1293 15.3081C8.1293 15.6953 7.97548 16.0667 7.70168 16.3405L5.94098 18.1012C5.6659 18.3726 5.29502 18.5247 4.9086 18.5247C4.52219 18.5247 4.15131 18.3726 3.87623 18.1012C3.74066 17.9656 3.63311 17.8047 3.55974 17.6275C3.48637 17.4504 3.4486 17.2605 3.44861 17.0688C3.44861 16.8771 3.48637 16.6872 3.55974 16.5101C3.63311 16.3329 3.74066 16.172 3.87623 16.0364ZM3.72774 28.0926C2.69236 27.0452 2.07839 25.6535 2.00276 24.1827C1.92713 22.7118 2.39512 21.2645 3.31761 20.1164C3.967 20.4589 4.70869 20.5852 5.43483 20.4771C6.16098 20.369 6.83371 20.0321 7.35519 19.5154L7.53197 19.3386L12.4817 24.2884L12.3049 24.4651C11.7882 24.9866 11.4513 25.6594 11.3432 26.3855C11.2351 27.1116 11.3615 27.8533 11.7039 28.5027C10.5558 29.4252 9.10852 29.8932 7.63767 29.8176C6.16682 29.7419 4.77516 29.128 3.72774 28.0926ZM17.5446 26.1834L15.7839 27.9441C15.5101 28.2179 15.1387 28.3717 14.7515 28.3717C14.3643 28.3717 13.993 28.2179 13.7192 27.9441C13.4478 27.669 13.2956 27.2981 13.2956 26.9117C13.2956 26.5253 13.4478 26.1544 13.7192 25.8794L15.4798 24.1187C15.7537 23.8449 16.125 23.691 16.5122 23.691C16.8994 23.691 17.2708 23.8449 17.5446 24.1187C17.8184 24.3925 17.9722 24.7638 17.9722 25.151C17.9722 25.5382 17.8184 25.9096 17.5446 26.1834Z" fill="#7D7F82"/>
</svg>
