<svg width="32" height="32" viewBox="0 0 32 32" fill="none" xmlns="http://www.w3.org/2000/svg">
<path d="M30.9106 20.9108C30.6573 20.2558 30.2144 19.6912 29.6385 19.2893C29.0626 18.8874 28.3799 18.6664 27.6777 18.6546C26.9755 18.6428 26.2857 18.8407 25.6966 19.223C25.1075 19.6053 24.6459 20.1547 24.3706 20.8008C24.1762 21.2453 24.0774 21.7257 24.0806 22.2108C24.0953 22.6617 24.1936 23.1059 24.3706 23.5208C24.7141 24.3923 25.389 25.0921 26.2474 25.467C27.1059 25.8419 28.078 25.8612 28.9506 25.5208C29.3818 25.3532 29.7753 25.1016 30.1084 24.7806C30.4414 24.4595 30.7073 24.0755 30.8906 23.6508C31.0759 23.2183 31.1731 22.7533 31.1765 22.2828C31.1799 21.8123 31.0896 21.3459 30.9106 20.9108ZM29.0306 22.8208C28.9509 23.0045 28.8356 23.1706 28.6915 23.3096C28.5473 23.4486 28.3771 23.5578 28.1906 23.6308C27.8886 23.7392 27.5599 23.7485 27.2522 23.6575C26.9445 23.5664 26.6738 23.3797 26.4794 23.1244C26.2849 22.8691 26.1769 22.5585 26.1709 22.2377C26.1649 21.9169 26.2613 21.6025 26.4461 21.3401C26.6308 21.0777 26.8944 20.8811 27.1985 20.7786C27.5026 20.6761 27.8314 20.6732 28.1373 20.7702C28.4431 20.8673 28.7101 21.0592 28.8995 21.3182C29.0889 21.5773 29.1909 21.8899 29.1906 22.2108C29.1765 22.4224 29.1222 22.6295 29.0306 22.8208Z" fill="#7D7F82"/>
<path d="M12.1908 12.0008C12.3408 12.1508 12.4708 12.2908 20.3808 20.1608C20.4463 20.2188 20.5206 20.266 20.6008 20.3008C20.6258 20.3326 20.6563 20.3597 20.6908 20.3808C20.9217 20.5103 21.1944 20.5431 21.4494 20.4719C21.7043 20.4006 21.9206 20.2312 22.0508 20.0008C22.3108 19.5308 22.5908 19.0508 22.8508 18.5908C24.4108 15.9008 24.9908 14.8908 24.1708 14.1108C22.5108 12.5208 21.3708 11.4008 20.3708 10.3808C19.3708 9.36079 18.3708 8.52079 17.2108 7.39079C17.0594 7.24159 16.877 7.12751 16.6765 7.05666C16.476 6.98581 16.2624 6.95991 16.0508 6.98079C15.0508 7.06079 14.1108 8.09079 12.8008 9.76079L6.30085 3.29079C6.11348 3.10454 5.86003 3 5.59585 3C5.33166 3 5.07821 3.10454 4.89085 3.29079C4.7061 3.47705 4.60195 3.72845 4.60085 3.99079C4.60009 4.1224 4.62531 4.25286 4.67508 4.3747C4.72484 4.49654 4.79817 4.60735 4.89085 4.70079C11.9508 11.7408 12.0808 11.8708 12.1908 12.0008ZM16.0808 9.07079C17.0808 10.0708 17.9708 10.8908 18.9208 11.8108C19.8708 12.7308 20.9208 13.8108 22.4208 15.2108C22.1808 15.7608 21.5808 16.7908 21.1208 17.5908L20.9408 17.9008L14.2208 11.2008C14.7682 10.4305 15.3913 9.7169 16.0808 9.07079Z" fill="#7D7F82"/>
<path d="M2.70079 5.32079C2.51343 5.13454 2.25998 5.03 1.99579 5.03C1.73161 5.03 1.47815 5.13454 1.29079 5.32079C1.10454 5.50815 1 5.76161 1 6.02579C1 6.28998 1.10454 6.54343 1.29079 6.73079L20.4808 25.9308L19.7808 26.6408C19.6836 26.7291 19.572 26.8001 19.4508 26.8508C19.3311 26.9037 19.2017 26.931 19.0708 26.931C18.9399 26.931 18.8105 26.9037 18.6908 26.8508C18.5696 26.8001 18.458 26.7291 18.3608 26.6408L4.18079 12.4508C3.99249 12.2625 3.73709 12.1567 3.47079 12.1567C3.20449 12.1567 2.9491 12.2625 2.76079 12.4508C2.57249 12.6391 2.4667 12.8945 2.4667 13.1608C2.4667 13.4271 2.57249 13.6825 2.76079 13.8708L16.9508 28.0508C17.2382 28.3286 17.5782 28.5462 17.9508 28.6908C18.3153 28.8421 18.7061 28.92 19.1008 28.92C19.4955 28.92 19.8863 28.8421 20.2508 28.6908C20.6243 28.5432 20.9643 28.3222 21.2508 28.0408L21.9508 27.3408L24.0708 29.4608C24.2582 29.647 24.5116 29.7516 24.7758 29.7516C25.04 29.7516 25.2934 29.647 25.4808 29.4608C25.667 29.2734 25.7716 29.02 25.7716 28.7558C25.7716 28.4916 25.667 28.2382 25.4808 28.0508L2.70079 5.32079Z" fill="#7D7F82"/>
</svg>
