<svg width="32" height="32" viewBox="0 0 32 32" fill="none" xmlns="http://www.w3.org/2000/svg">
<path d="M17.6973 7.08322C18.457 7.08612 19.1972 6.8429 19.8072 6.38997C20.1806 6.11157 20.4955 5.76236 20.7339 5.36227C20.9723 4.96218 21.1296 4.51904 21.1968 4.05815C21.264 3.59727 21.2397 3.12767 21.1254 2.67617C21.0111 2.22466 20.809 1.80009 20.5306 1.4267C20.2531 1.05364 19.9048 0.738958 19.5055 0.500655C19.1063 0.262352 18.664 0.105106 18.2039 0.0379164C17.7439 -0.0292729 17.2751 -0.00508686 16.8244 0.109089C16.3737 0.223265 15.9499 0.42519 15.5773 0.703311C15.2032 0.980958 14.8874 1.32961 14.648 1.72934C14.4086 2.12908 14.2504 2.57206 14.1823 3.03298C14.1142 3.4939 14.1375 3.96372 14.2511 4.41561C14.3646 4.86749 14.566 5.29258 14.8439 5.66658C15.1777 6.10712 15.6091 6.46431 16.1042 6.71011C16.5992 6.9559 17.1445 7.08361 17.6973 7.08322ZM16.793 2.31085C17.0577 2.11508 17.3781 2.00942 17.7073 2.00943C17.9468 2.00826 18.1833 2.06306 18.3978 2.16947C18.6124 2.27588 18.7991 2.43094 18.9431 2.62231C19.1841 2.94974 19.2865 3.35886 19.2282 3.7612C19.1699 4.16355 18.9556 4.52678 18.6317 4.77238C18.4705 4.89427 18.2867 4.98296 18.091 5.03331C17.8953 5.08366 17.6916 5.09467 17.4916 5.0657C17.2916 5.03673 17.0993 4.96835 16.926 4.86454C16.7526 4.76073 16.6015 4.62354 16.4816 4.46092C16.3597 4.29975 16.271 4.11598 16.2207 3.92028C16.1703 3.72458 16.1593 3.52083 16.1883 3.32084C16.2172 3.12085 16.2856 2.9286 16.3894 2.75523C16.4932 2.58186 16.6304 2.43081 16.793 2.31085Z" fill="#7D7F82"/>
<path d="M19.5158 11.4838C19.563 11.3779 19.5967 11.2665 19.6163 11.1523C19.6368 11.1244 19.6537 11.094 19.6665 11.0619C19.6998 10.9339 19.7074 10.8006 19.689 10.6696C19.6706 10.5387 19.6265 10.4127 19.5593 10.2988C19.4921 10.1849 19.4031 10.0854 19.2974 10.006C19.1916 9.92664 19.0712 9.86889 18.9431 9.83611L17.426 9.42418C16.3513 9.07461 15.2438 8.83559 14.1205 8.71083C14.0206 8.69567 13.919 8.69567 13.8191 8.71083H13.6383L13.4172 8.79121L4.68632 11.6546C4.56079 11.6966 4.44478 11.7629 4.34496 11.8498C4.24514 11.9367 4.16347 12.0425 4.10466 12.1611C4.04584 12.2796 4.01103 12.4087 4.00223 12.5407C3.99342 12.6728 4.0108 12.8053 4.05335 12.9306C4.12075 13.1302 4.24917 13.3035 4.42045 13.4261C4.59172 13.5487 4.7972 13.6144 5.00783 13.6138C5.11384 13.6161 5.21937 13.5991 5.31929 13.5636L11.7394 11.4537L10.4031 13.9052C9.72996 15.1309 9.13718 16.2261 8.3937 17.6025C8.29479 17.7877 8.23565 17.9915 8.22008 18.2008C8.20451 18.4102 8.23284 18.6204 8.30327 18.8182C8.64488 19.7626 9.80029 20.3655 11.6389 21.1592C10.9155 22.4452 9.53907 24.8733 7.50955 28.4433C7.44312 28.558 7.40004 28.6847 7.38277 28.8161C7.36551 28.9475 7.37441 29.081 7.40896 29.2089C7.44351 29.3369 7.50304 29.4567 7.5841 29.5615C7.66517 29.6664 7.76617 29.7541 7.8813 29.8198C8.03442 29.9066 8.20765 29.9516 8.38365 29.9504C8.56168 29.9501 8.73644 29.9025 8.89002 29.8124C9.04361 29.7224 9.17051 29.5932 9.25775 29.438C13.8794 21.3099 13.9799 21.0788 14.0603 20.898C14.1406 20.7171 15.0851 19.1498 19.5158 11.4838ZM12.1513 14.8998C12.7742 13.7444 13.4675 12.4785 14.3918 10.7403C14.9745 10.8408 16.0596 11.1322 16.8935 11.3633L17.205 11.4537L12.6135 19.421C11.8174 19.1152 11.0535 18.7316 10.3328 18.2757C10.9758 17.0399 11.5284 16.0251 12.1513 14.8998Z" fill="#7D7F82"/>
<path d="M28.1061 11.7451C28.0537 11.6234 27.9777 11.5133 27.8826 11.4211C27.7874 11.3289 27.675 11.2565 27.5517 11.2079C27.4285 11.1594 27.2968 11.1357 27.1643 11.1382C27.0319 11.1407 26.9012 11.1694 26.7799 11.2226C26.6545 11.2748 26.5409 11.3519 26.4462 11.4493C26.3514 11.5467 26.2773 11.6622 26.2285 11.789C26.1797 11.9158 26.1571 12.0512 26.162 12.187C26.167 12.3227 26.1995 12.4561 26.2575 12.579C26.4049 12.8988 26.5096 13.2366 26.5689 13.5837C26.482 14.0255 26.2651 14.4314 25.946 14.7491C23.4342 17.5121 18.702 22.184 15.2559 25.59C10.2323 30.6135 10.2323 30.6135 10.373 31.2364C10.4193 31.4089 10.5107 31.5659 10.6379 31.6913C10.765 31.8166 10.9233 31.9059 11.0964 31.9498C11.1796 31.9634 11.2644 31.9634 11.3476 31.9498C11.5293 31.9493 11.7076 31.8995 11.8632 31.8057C12.0189 31.712 12.1463 31.5777 12.2317 31.4173C12.6436 30.9451 14.6832 28.9356 16.6625 26.9765C20.1287 23.6308 24.881 18.9086 27.433 16.1055C28.0315 15.4763 28.4271 14.6817 28.5683 13.8248C28.5672 13.1062 28.4095 12.3965 28.1061 11.7451Z" fill="#7D7F82"/>
</svg>
