<svg width="32" height="32" viewBox="0 0 32 32" fill="none" xmlns="http://www.w3.org/2000/svg">
<path d="M17.195 17.1755C17.4128 17.5695 17.4906 17.9688 17.4284 18.3733C17.3713 18.7829 17.1769 19.1537 16.845 19.4856C16.5287 19.8019 16.1683 19.9912 15.7638 20.0534C15.3594 20.1156 14.9342 20.0534 14.4882 19.8667C14.0526 19.68 13.6248 19.3767 13.2048 18.9567C12.8678 18.6196 12.5877 18.2514 12.3648 17.8522C12.147 17.4477 12.0096 17.0458 11.9525 16.6465C11.9318 16.491 11.9396 16.3587 11.9759 16.2499C12.0173 16.1358 12.0899 16.0269 12.1936 15.9232C12.3544 15.7624 12.5333 15.6717 12.7303 15.6509C12.9326 15.625 13.0985 15.6769 13.2281 15.8065C13.3007 15.8791 13.3526 15.9569 13.3837 16.0398C13.42 16.1176 13.4615 16.2317 13.5082 16.3821C13.5185 16.4132 13.5289 16.4495 13.5393 16.491C13.56 16.5325 13.5808 16.5791 13.6015 16.631C13.6845 16.8799 13.7674 17.0925 13.8504 17.2688C13.9437 17.4451 14.0734 17.6162 14.2393 17.7822C14.5297 18.0725 14.7838 18.2333 15.0016 18.2644C15.2245 18.3007 15.4449 18.21 15.6627 17.9922C15.8649 17.7899 15.9453 17.5799 15.9038 17.3621C15.8623 17.1443 15.6938 16.8877 15.3983 16.5921L14.916 16.1098C14.7604 15.9543 14.693 15.778 14.7138 15.5809C14.7345 15.3839 14.8201 15.2102 14.9705 15.0598C15.1208 14.9094 15.2945 14.8239 15.4916 14.8031C15.6886 14.7824 15.8649 14.8498 16.0205 15.0053L16.3627 15.3476C16.6479 15.6328 16.8968 15.7987 17.1094 15.8454C17.3221 15.8921 17.5191 15.8246 17.7006 15.6432C17.8925 15.4513 17.9832 15.2465 17.9728 15.0287C17.9676 14.8057 17.8639 14.5931 17.6617 14.3909C17.5165 14.2457 17.3558 14.1316 17.1795 14.0486C17.0083 13.9708 16.8061 13.8931 16.5728 13.8153L16.3316 13.7297C16.1813 13.6831 16.0646 13.6442 15.9816 13.613C15.9038 13.5768 15.8286 13.5223 15.756 13.4497C15.6264 13.3201 15.572 13.1567 15.5927 12.9597C15.6186 12.7575 15.712 12.576 15.8727 12.4152C15.9816 12.3063 16.0905 12.2337 16.1994 12.1974C16.3083 12.1611 16.4405 12.1533 16.5961 12.1741C16.985 12.2311 17.3765 12.3634 17.7706 12.5708C18.1699 12.7834 18.5251 13.0452 18.8362 13.3564C19.2199 13.7401 19.4948 14.1394 19.6607 14.5542C19.8318 14.9742 19.8811 15.3761 19.8085 15.7598C19.7411 16.1487 19.557 16.4936 19.2562 16.7943C18.971 17.0795 18.6443 17.2558 18.2762 17.3232C17.9184 17.3906 17.558 17.3414 17.195 17.1755Z" fill="#7D7F82"/>
<path fill-rule="evenodd" clip-rule="evenodd" d="M23.2175 27.9706C24.1732 27.3947 25.075 26.6946 25.8995 25.87C31.3668 20.4027 31.3668 11.5384 25.8995 6.07106C20.4322 0.603715 11.5678 0.603715 6.10051 6.07106C0.633165 11.5384 0.633165 20.4027 6.10051 25.87C6.92502 26.6946 7.8268 27.3947 8.78253 27.9706H1C0.447715 27.9706 0 28.4183 0 28.9706C0 29.5229 0.447715 29.9706 1 29.9706H31C31.5523 29.9706 32 29.5229 32 28.9706C32 28.4183 31.5523 27.9706 31 27.9706H23.2175ZM24.4853 24.4558C22.9397 26.0014 21.0775 27.0372 19.1075 27.5633L15.4991 23.955C17.7101 24.0928 19.9673 23.317 21.6569 21.6274C23.3464 19.9379 24.1223 17.6806 23.9844 15.4697L27.5927 19.078C27.0666 21.0481 26.0308 22.9103 24.4853 24.4558ZM20.2447 11.7299C22.5858 14.0733 22.5851 17.8707 20.2426 20.2132C17.8998 22.556 14.1016 22.5563 11.7584 20.2142L11.7563 20.2122C9.41421 17.8689 9.41455 14.0707 11.7574 11.7279C14.0998 9.38544 17.8973 9.38476 20.2406 11.7259L20.2447 11.7299ZM16.5009 7.98615C14.2899 7.8483 12.0327 8.62415 10.3431 10.3137C8.65359 12.0032 7.87775 14.2605 8.0156 16.4714L4.40726 12.8631C4.93336 10.893 5.96918 9.03081 7.51472 7.48527C9.06026 5.93973 10.9225 4.90391 12.8925 4.37781L16.5009 7.98615ZM15.3322 3.98903C18.6218 3.8068 21.9722 4.97221 24.4853 7.48527C26.9983 9.99833 28.1637 13.3487 27.9815 16.6384L15.3322 3.98903ZM4.01848 15.3027C3.83625 18.5924 5.00166 21.9428 7.51472 24.4558C10.0278 26.9689 13.3782 28.1343 16.6678 27.9521L4.01848 15.3027Z" fill="#7D7F82"/>
</svg>
