<svg width="32" height="32" viewBox="0 0 32 32" fill="none" xmlns="http://www.w3.org/2000/svg">
<g clip-path="url(#clip0_5534_20758)">
<path d="M15.0919 7.11784C14.6326 7.12371 14.1768 7.03803 13.751 6.86579C12.9351 6.53963 12.2702 5.92077 11.8865 5.1303C11.5027 4.33982 11.4277 3.4346 11.6761 2.59174C11.9245 1.74887 12.4784 1.02901 13.2295 0.572974C13.9806 0.116941 14.8748 -0.0424446 15.7372 0.125995C16.5996 0.294434 17.3682 0.77858 17.8925 1.48372C18.4168 2.18885 18.6592 3.06424 18.5722 3.93863C18.4851 4.81301 18.075 5.62348 17.422 6.21146C16.7691 6.79945 15.9202 7.12266 15.0415 7.11784H15.0919ZM16.5135 2.93385C16.3442 2.56105 16.037 2.26835 15.6565 2.11721C15.4795 2.04962 15.2915 2.01543 15.102 2.01639C14.8867 2.01508 14.6736 2.05977 14.4769 2.14746C14.2917 2.22786 14.1242 2.34407 13.9841 2.48941C13.8439 2.63474 13.7339 2.80634 13.6603 2.99434C13.5807 3.18078 13.5396 3.38141 13.5396 3.58413C13.5396 3.78685 13.5807 3.98748 13.6603 4.17393C13.824 4.54523 14.1275 4.83704 14.5049 4.98613C14.8824 5.13522 15.3034 5.12956 15.6767 4.97039C16.0495 4.80111 16.3422 4.49395 16.4933 4.11343C16.6561 3.73844 16.6633 3.31418 16.5135 2.93385Z" fill="#7D7F82"/>
<path d="M4.29417 5.53498C4.37211 5.42751 4.4705 5.33649 4.5837 5.26715C4.69691 5.1978 4.82269 5.1515 4.95383 5.13089C5.08498 5.11028 5.2189 5.11577 5.34792 5.14706C5.47694 5.17834 5.5985 5.23479 5.70564 5.31318C8.43845 7.23088 11.4024 8.79588 14.5273 9.97103C16.7622 10.6809 18.823 11.8521 20.5765 13.409C20.7209 13.5482 20.8206 13.7274 20.8626 13.9236C20.9047 14.1197 20.8872 14.324 20.8125 14.5102C20.7378 14.6965 20.6093 14.8561 20.4433 14.9689C20.2773 15.0816 20.0815 15.1423 19.8808 15.143C19.6226 15.1447 19.3736 15.0473 19.1852 14.8708C18.0613 13.849 16.7684 13.0302 15.3641 12.4512C14.9709 13.9231 14.729 14.9414 14.5273 15.8185C14.6604 15.8265 14.7907 15.8607 14.9104 15.9194C15.2331 16.0403 16.6445 16.4436 17.935 16.7864C18.1031 16.8339 18.2559 16.9242 18.3786 17.0485L20.516 19.1859L25.7687 13.9433C25.9399 13.7034 26.0134 13.4072 25.974 13.115C25.9347 12.8228 25.7856 12.5566 25.5569 12.3705C25.3671 12.1807 25.2604 11.9232 25.2604 11.6547C25.2604 11.3862 25.3671 11.1287 25.5569 10.9389C25.7468 10.749 26.0043 10.6424 26.2727 10.6424C26.5412 10.6424 26.7987 10.749 26.9886 10.9389C27.5968 11.5022 27.959 12.2823 27.9967 13.1105C28.0345 13.9387 27.7447 14.7485 27.1902 15.3648L11.3414 31.1834C11.0757 31.4456 10.7608 31.6528 10.4148 31.793C10.0687 31.9331 9.69838 32.0035 9.32505 32C8.42356 31.9936 7.56112 31.6312 6.92555 30.9918C6.83155 30.8978 6.75699 30.7862 6.70611 30.6634C6.65524 30.5406 6.62906 30.4089 6.62906 30.276C6.62906 30.1431 6.65524 30.0114 6.70611 29.8886C6.75699 29.7658 6.83155 29.6542 6.92555 29.5602C7.01956 29.4662 7.13116 29.3916 7.25397 29.3407C7.37679 29.2899 7.50843 29.2637 7.64137 29.2637C7.77431 29.2637 7.90595 29.2899 8.02877 29.3407C8.15159 29.3916 8.26319 29.4662 8.35719 29.5602C8.54329 29.7894 8.81042 29.9381 9.10324 29.9757C9.39605 30.0132 9.69208 29.9366 9.92996 29.7618L14.4063 25.2855L13.6704 21.8475C12.5087 21.4754 11.3678 21.0412 10.2526 20.547C9.688 20.3856 9.04276 20.1638 8.30678 19.9017L7.77244 19.7001C7.52171 19.611 7.31636 19.4264 7.20116 19.1866C7.08596 18.9467 7.07024 18.6711 7.15744 18.4197C7.15744 18.4197 7.15744 18.4197 7.15744 18.3491C7.15238 18.3089 7.15238 18.2683 7.15744 18.2281L9.31497 9.86012C7.64762 9.00124 6.04386 8.02416 4.51598 6.93637C4.30181 6.77913 4.15837 6.54371 4.11684 6.28129C4.0753 6.01888 4.13903 5.75067 4.29417 5.53498ZM14.8701 20.1336C15.0313 20.1914 15.1751 20.2893 15.288 20.418C15.4009 20.5468 15.4792 20.7022 15.5153 20.8696L16.1001 23.5715L19.0541 20.6579L17.1083 18.6415C16.085 18.392 15.0754 18.0891 14.0837 17.7341C13.9426 18.2886 13.7913 18.9036 13.5897 19.6396L14.8701 20.1336ZM9.29481 18.1172C10.0813 18.4243 10.8947 18.6572 11.7245 18.8129C12.0573 17.5627 12.2589 16.7158 12.4807 15.7883C12.7025 14.8608 12.9848 13.6207 13.4889 11.7555C12.6924 11.4531 11.9161 11.1304 11.1801 10.7977L9.29481 18.1172Z" fill="#7D7F82"/>
</g>
<defs>
<clipPath id="clip0_5534_20758">
<rect width="32" height="32" fill="white" transform="matrix(-1 0 0 1 32 0)"/>
</clipPath>
</defs>
</svg>
