<svg width="32" height="32" viewBox="0 0 32 32" fill="none" xmlns="http://www.w3.org/2000/svg">
<g clip-path="url(#clip0_5534_20797)">
<path fill-rule="evenodd" clip-rule="evenodd" d="M11.9138 10.5939C11.7533 10.2327 11.3952 10 11 10C10.6048 10 10.2467 10.2327 10.0862 10.5939L6.08619 19.5939C5.86189 20.0985 6.08918 20.6895 6.59387 20.9138C7.09855 21.1381 7.68951 20.9108 7.91382 20.4061L8.98321 18H13.0168L14.0862 20.4061C14.3105 20.9108 14.9015 21.1381 15.4061 20.9138C15.9108 20.6895 16.1381 20.0985 15.9138 19.5939L11.9138 10.5939ZM12.1279 16L11 13.4622L9.8721 16H12.1279Z" fill="#7D7F82"/>
<path d="M18 11C18 10.4477 18.4477 10 19 10H25C25.3688 10 25.7077 10.203 25.8817 10.5281C26.0557 10.8533 26.0366 11.2478 25.8321 11.5547L20.8685 19H25C25.5523 19 26 19.4477 26 20C26 20.5523 25.5523 21 25 21H19C18.6312 21 18.2924 20.797 18.1183 20.4719C17.9443 20.1467 17.9634 19.7522 18.168 19.4453L23.1315 12H19C18.4477 12 18 11.5523 18 11Z" fill="#7D7F82"/>
<path fill-rule="evenodd" clip-rule="evenodd" d="M32 16C32 24.8366 24.8366 32 16 32C7.16344 32 0 24.8366 0 16C0 7.16344 7.16344 0 16 0C24.8366 0 32 7.16344 32 16ZM30 16C30 23.732 23.732 30 16 30C8.26801 30 2 23.732 2 16C2 8.26801 8.26801 2 16 2C23.732 2 30 8.26801 30 16Z" fill="#7D7F82"/>
</g>
<defs>
<clipPath id="clip0_5534_20797">
<rect width="32" height="32" fill="white"/>
</clipPath>
</defs>
</svg>
