<svg width="32" height="32" viewBox="0 0 32 32" fill="none" xmlns="http://www.w3.org/2000/svg">
<g clip-path="url(#clip0_5534_20771)">
<path d="M21.56 13.02L18.83 12.63L17.61 10.16C17.4604 9.85854 17.2294 9.60505 16.943 9.42829C16.6567 9.25153 16.3265 9.15858 15.99 9.15999C15.6547 9.15811 15.3257 9.25097 15.0408 9.42789C14.756 9.60481 14.5269 9.85859 14.38 10.16L13.15 12.62L10.42 13.02C10.0854 13.0663 9.77069 13.2065 9.51234 13.4241C9.25398 13.6418 9.06249 13.9281 8.96 14.25C8.85496 14.572 8.84238 14.917 8.9237 15.2458C9.00502 15.5747 9.17697 15.8741 9.42 16.11L11.42 18.02L10.96 20.74C10.9037 21.0713 10.9414 21.4118 11.0686 21.7228C11.1959 22.0339 11.4076 22.3031 11.68 22.5C11.9888 22.7219 12.3597 22.8408 12.74 22.84C13.0361 22.8394 13.3277 22.7674 13.59 22.63L16.02 21.35L18.42 22.63C18.7196 22.7876 19.0574 22.858 19.395 22.8333C19.7327 22.8085 20.0566 22.6896 20.33 22.49C20.6031 22.2919 20.8147 22.0206 20.9403 21.7074C21.066 21.3942 21.1005 21.0519 21.04 20.72L20.6 18.02L22.6 16.09C22.8405 15.8545 23.0101 15.5564 23.0896 15.2294C23.1692 14.9024 23.1554 14.5596 23.05 14.24C22.9427 13.9164 22.7456 13.63 22.4819 13.414C22.2181 13.198 21.8984 13.0614 21.56 13.02ZM19.13 16.67C18.9196 16.8742 18.7622 17.1267 18.6716 17.4055C18.5809 17.6843 18.5598 17.9811 18.61 18.27L19.03 20.7L16.85 19.56C16.5916 19.4217 16.3031 19.3493 16.01 19.3493C15.7169 19.3493 15.4284 19.4217 15.17 19.56L12.99 20.71L13.42 18.26C13.4676 17.9711 13.4452 17.6751 13.3548 17.3967C13.2643 17.1183 13.1083 16.8656 12.9 16.66L11.13 14.95L13.57 14.59C13.8588 14.544 14.1323 14.4292 14.3673 14.2551C14.6023 14.081 14.7919 13.8529 14.92 13.59L16.01 11.37L17.11 13.58C17.2391 13.8441 17.4302 14.0731 17.667 14.2472C17.9039 14.4214 18.1794 14.5355 18.47 14.58L20.91 14.93L19.13 16.67Z" fill="#7D7F82"/>
<path d="M16 0.019989C11.7565 0.019989 7.68687 1.7057 4.68629 4.70628C1.68571 7.70686 0 11.7765 0 16.02C0 20.2635 1.68571 24.3331 4.68629 27.3337C7.68687 30.3343 11.7565 32.02 16 32.02C20.2435 32.02 24.3131 30.3343 27.3137 27.3337C30.3143 24.3331 32 20.2635 32 16.02C32 11.7765 30.3143 7.70686 27.3137 4.70628C24.3131 1.7057 20.2435 0.019989 16 0.019989ZM16 30.02C12.287 30.02 8.72601 28.545 6.1005 25.9195C3.47499 23.294 2 19.733 2 16.02C2 12.307 3.47499 8.746 6.1005 6.12049C8.72601 3.49499 12.287 2.01999 16 2.01999C19.713 2.01999 23.274 3.49499 25.8995 6.12049C28.525 8.746 30 12.307 30 16.02C30 19.733 28.525 23.294 25.8995 25.9195C23.274 28.545 19.713 30.02 16 30.02Z" fill="#7D7F82"/>
</g>
<defs>
<clipPath id="clip0_5534_20771">
<rect width="32" height="32" fill="white"/>
</clipPath>
</defs>
</svg>
