<svg width="32" height="32" viewBox="0 0 32 32" fill="none" xmlns="http://www.w3.org/2000/svg">
<path d="M25.6498 3.07075L21.6728 2.4086C21.5065 0.181436 17.369 0 16.0795 0C14.7646 0 10.4716 0.183387 10.4716 2.54303C10.4716 2.61936 10.4809 2.69367 10.4853 2.76909L6.83509 3.37607C6.29078 3.46679 5.92303 3.98086 6.01375 4.52516C6.09471 5.01387 6.51806 5.36016 6.99799 5.36016C7.05262 5.36016 7.10724 5.35626 7.16284 5.3465L9.80732 4.90675C7.97052 6.67545 6.93971 7.88605 7.52864 8.9879C7.96492 9.80357 8.46484 10.5138 9.02768 11.1241C8.6136 12.1807 8.21415 13.6186 8.14806 15.3499C8.11197 16.298 8.01637 18.8157 9.3947 21.3958C10.1993 22.8968 11.1244 24.0738 12.1387 24.9364V28.1099C12.1387 30.2549 13.8838 32 16.0288 32C18.1738 32 19.9189 30.2549 19.9189 28.1099V25.1239C21.0495 24.2288 22.0614 22.9535 22.9224 21.308C24.2549 18.7659 24.1642 16.2853 24.129 15.3518C24.0642 13.5362 23.6261 12.0339 23.2239 11.0145C23.7545 10.4604 24.2638 9.83655 24.7514 9.10495C25.5894 7.84838 24.032 6.30623 22.2037 4.52199L25.322 5.04118C25.3776 5.05094 25.4323 5.05484 25.4869 5.05484C25.9668 5.05484 26.3902 4.70855 26.4711 4.21984C26.5618 3.67554 26.1941 3.16147 25.6498 3.07075ZM16.0795 1.99774C18.13 1.99774 19.3785 2.40354 19.6878 2.65716C19.6078 4.10962 18.0197 5.27237 16.0795 5.27237C14.3854 5.27237 12.9616 4.38567 12.574 3.19384C12.5725 3.19043 12.5715 3.18677 12.5701 3.18342C12.5159 3.01357 12.4823 2.83768 12.4723 2.65716C12.7815 2.40354 14.0301 1.99774 16.0795 1.99774ZM11.1535 20.4486C10.0326 18.3513 10.1107 16.3009 10.1439 15.4259C10.1881 14.2712 10.4119 13.2929 10.673 12.4841C11.2934 12.8792 11.9722 13.187 12.7059 13.4145C12.3803 14.3911 12.1031 15.6115 12.0489 17.0296C12.0392 17.2774 12.0538 17.5866 12.0733 17.9456C12.0918 18.2909 12.1143 18.6898 12.1094 19.2078C12.105 19.7164 12.0961 20.6465 12.1138 21.9698C11.7812 21.5142 11.458 21.0171 11.1535 20.4486ZM17.2167 13.8465C17.5659 14.7147 17.9049 15.9025 17.979 17.3551C17.4035 17.0181 16.7426 16.8111 16.0288 16.8111C15.3023 16.8111 14.6298 17.0239 14.0474 17.372C14.0445 17.2772 14.042 17.1841 14.0447 17.1047C14.095 15.7895 14.3735 14.6882 14.681 13.8305C15.1253 13.8773 15.5846 13.9032 16.0629 13.9032C16.4634 13.9032 16.8423 13.8781 17.2167 13.8465ZM17.9212 28.1099C17.9212 29.1536 17.0726 30.0023 16.0288 30.0023C14.9851 30.0023 14.1364 29.1536 14.1364 28.1099V20.7022C14.1364 19.6585 14.9851 18.8088 16.0288 18.8088C17.0726 18.8088 17.9212 19.6585 17.9212 20.7022V28.1099ZM21.1529 20.3813C20.7752 21.1033 20.3703 21.7374 19.9421 22.282C19.9497 21.2677 19.9399 20.4592 19.9326 19.9179L19.9277 19.5161C19.9238 19.0761 19.9453 18.6772 19.9638 18.3318C19.9833 17.9709 19.998 17.6617 19.9882 17.4139C19.928 15.836 19.5909 14.5035 19.2188 13.4796C20.0745 13.2341 20.8617 12.8719 21.5925 12.3867C21.8545 13.1924 22.09 14.2226 22.1332 15.425C22.1645 16.2873 22.2396 18.3084 21.1529 20.3813ZM22.9087 8.26216C21.1061 10.8452 19.1015 11.9055 16.0629 11.9055C12.9503 11.9055 10.8325 10.7535 9.42299 8.28557C9.75172 7.70809 11.0471 6.47901 11.6285 5.9269C11.7284 5.83228 11.8046 5.75882 11.8916 5.67584C12.9195 6.65118 14.4137 7.27011 16.0795 7.27011C17.8168 7.27011 19.3717 6.60095 20.4012 5.55275C20.5089 5.65895 20.623 5.77064 20.7461 5.89081C21.3129 6.44292 22.5644 7.6642 22.9087 8.26216Z" fill="#7D7F82"/>
</svg>
