<svg width="32" height="32" viewBox="0 0 32 32" fill="none" xmlns="http://www.w3.org/2000/svg">
<path d="M26.773 0C25.759 0.00264765 24.7874 0.407333 24.0713 1.12531C23.3552 1.84329 22.953 2.81595 22.953 3.83C22.9557 4.84232 23.359 5.81241 24.0748 6.52823C24.7906 7.24405 25.7607 7.64736 26.773 7.65C27.7854 7.64736 28.7555 7.24405 29.4713 6.52823C30.1871 5.81241 30.5904 4.84232 30.593 3.83C30.5931 2.81595 30.1909 1.84329 29.4748 1.12531C28.7587 0.407333 27.7871 0.00264765 26.773 0ZM26.773 5.64C26.2921 5.64001 25.8307 5.44963 25.4896 5.11047C25.1486 4.77132 24.9557 4.31096 24.953 3.83C24.9557 3.34812 25.1483 2.88672 25.489 2.54597C25.8298 2.20522 26.2912 2.01263 26.773 2.01C27.254 2.01264 27.7144 2.20556 28.0535 2.54659C28.3927 2.88762 28.5831 3.34903 28.583 3.83C28.583 4.31004 28.3924 4.77042 28.0529 5.10986C27.7135 5.4493 27.2531 5.64 26.773 5.64Z" fill="#7D7F82"/>
<path d="M24.913 27.78C24.6478 27.78 24.3935 27.8854 24.2059 28.0729C24.0184 28.2604 23.913 28.5148 23.913 28.78C23.9151 29.0783 23.8003 29.3655 23.593 29.58C23.4903 29.6859 23.3676 29.7705 23.232 29.8289C23.0964 29.8872 22.9506 29.9182 22.803 29.92H21.383C21.773 28.28 22.533 24.46 21.653 22.85C20.6535 21.4943 19.4251 20.3234 18.023 19.39L24.663 12.77C24.8232 12.6017 24.9198 12.3829 24.9363 12.1512C24.9527 11.9194 24.8879 11.6892 24.753 11.5L24.013 10.5C22.743 8.73 22.093 7.85 21.503 7.5C21.3912 7.40857 21.2609 7.34246 21.1211 7.3062C20.9812 7.26995 20.8352 7.26442 20.693 7.29C19.2475 7.2463 17.8173 6.97983 16.453 6.5C14.9942 5.99252 13.4575 5.74542 11.913 5.77C10.213 6.04 7.79304 8.96 7.09304 9.85C7.01109 9.95352 6.95044 10.0722 6.91461 10.1993C6.87877 10.3264 6.86846 10.4593 6.88427 10.5904C6.90007 10.7215 6.94168 10.8482 7.00669 10.9631C7.07171 11.078 7.15883 11.1789 7.26305 11.26C7.4403 11.3976 7.65867 11.4715 7.88305 11.47C8.03494 11.4708 8.18502 11.437 8.32191 11.3712C8.45879 11.3053 8.57887 11.2092 8.67305 11.09C10.003 9.4 11.673 7.84 12.233 7.75C13.4952 7.81151 14.7432 8.04362 15.943 8.44L17.443 8.82C17.083 9.12 16.713 9.44 16.313 9.82C15.2121 10.8688 14.2142 12.0208 13.333 13.26C12.6324 14.3027 12.0489 15.4194 11.593 16.59C10.753 18.5 9.59304 21.11 8.59304 21.73C7.1481 22.3464 5.59398 22.6661 4.02304 22.67L2.94305 19.77C2.85022 19.5207 2.66216 19.3185 2.42024 19.2078C2.17832 19.0972 1.90235 19.0872 1.65305 19.18C1.40374 19.2728 1.20152 19.4609 1.09088 19.7028C0.980231 19.9447 0.97022 20.2207 1.06305 20.47L3.33305 26.55C3.62095 27.3233 4.20347 27.9511 4.95312 28.2959C5.70278 28.6408 6.55851 28.6746 7.33305 28.39C7.58235 28.2972 7.78457 28.1091 7.89521 27.8672C8.00586 27.6253 8.01587 27.3493 7.92305 27.1C7.83022 26.8507 7.64216 26.6485 7.40024 26.5378C7.15832 26.4272 6.88235 26.4172 6.63305 26.51C6.49464 26.5624 6.34717 26.5865 6.1993 26.5811C6.05142 26.5756 5.90612 26.5407 5.77196 26.4782C5.63779 26.4158 5.51746 26.3272 5.41805 26.2176C5.31863 26.108 5.24213 25.9796 5.19305 25.84L4.74305 24.64C6.43957 24.5903 8.10625 24.1813 9.63305 23.44C11.063 22.55 12.213 20.13 13.223 17.86C14.2677 18.9996 15.4272 20.0284 16.683 20.93C17.8763 21.7435 18.9472 22.7234 19.863 23.84C20.253 24.56 19.863 27.53 19.303 29.84C19.298 29.8765 19.298 29.9135 19.303 29.95H16.303C16.0378 29.95 15.7835 30.0554 15.5959 30.2429C15.4084 30.4304 15.303 30.6848 15.303 30.95C15.303 31.2152 15.4084 31.4696 15.5959 31.6571C15.7835 31.8446 16.0378 31.95 16.303 31.95L22.793 31.89C23.6241 31.8794 24.4171 31.5399 24.9982 30.9456C25.5792 30.3514 25.9011 29.5511 25.893 28.72C25.878 28.4687 25.7687 28.2324 25.5871 28.0582C25.4054 27.8839 25.1647 27.7846 24.913 27.78ZM14.333 15.73C14.5169 15.3089 14.7239 14.8983 14.953 14.5C15.643 13.35 19.193 9.5 20.593 9.3C21.2315 10.0471 21.8291 10.8282 22.383 11.64L22.643 12L16.443 18.2C15.333 17.23 14.333 16.25 14.333 15.73Z" fill="#7D7F82"/>
</svg>
