<svg width="32" height="32" viewBox="0 0 32 32" fill="none" xmlns="http://www.w3.org/2000/svg">
<g clip-path="url(#clip0_5534_20710)">
<path d="M2.97994 8.54C3.35 8.53907 3.7165 8.4678 4.05994 8.33C4.68942 8.06274 5.20871 7.58844 5.53174 6.98567C5.85478 6.38291 5.96218 5.68787 5.83615 5.01571C5.71012 4.34355 5.35823 3.73463 4.83877 3.28983C4.31932 2.84504 3.66349 2.59106 2.97994 2.57C2.60671 2.57159 2.23705 2.6428 1.88994 2.78C1.25984 3.0477 0.740243 3.52285 0.417432 4.12658C0.0946217 4.73031 -0.0119867 5.42628 0.115307 6.09896C0.242601 6.77163 0.59614 7.38053 1.11722 7.82456C1.63831 8.2686 2.29559 8.52105 2.97994 8.54Z" fill="#7D7F82"/>
<path d="M29.3499 2.88C27.548 1.05427 25.0951 0.0184288 22.5299 0C21.1231 0.0120628 19.7372 0.341095 18.475 0.96263C17.2129 1.58417 16.1071 2.48221 15.2399 3.59C13.2185 5.93598 11.8738 8.78791 11.3499 11.84C10.8325 14.9941 9.49434 17.9566 7.46994 20.43L7.34994 20.58L1.03994 26.89C0.481188 27.4521 0.167562 28.2124 0.167562 29.005C0.167562 29.7976 0.481188 30.5579 1.03994 31.12C1.60244 31.6818 2.36494 31.9974 3.15994 31.9974C3.95494 31.9974 4.71744 31.6818 5.27994 31.12L11.8599 24.54C13.994 22.7929 16.5135 21.5794 19.2099 21H19.3499C22.5699 20.88 25.9599 19.11 28.5999 17C29.6098 16.1437 30.4341 15.0902 31.0223 13.904C31.6104 12.7178 31.95 11.4239 32.0203 10.1018C32.0905 8.7796 31.8899 7.45704 31.4307 6.2152C30.9715 4.97335 30.2634 3.83842 29.3499 2.88ZM29.9599 9.88C29.9198 10.697 29.7545 11.5031 29.4699 12.27L25.3499 8.19L28.5399 5C29.5632 6.42078 30.0615 8.15267 29.9499 9.9L29.9599 9.88ZM22.5299 2C24.1964 2.01942 25.8112 2.58108 27.1299 3.6L23.9499 6.78L19.7599 2.59C20.6334 2.20665 21.5761 2.00588 22.5299 2ZM16.7899 4.87C17.1496 4.42527 17.5552 4.0197 17.9999 3.66L22.5399 8.19L19.3499 11.43L15.1199 7.26C15.6119 6.42005 16.1704 5.62083 16.7899 4.87ZM11.5799 22L10.1799 20.59L10.0399 20.46C10.8527 19.2971 11.5241 18.0416 12.0399 16.72C12.3982 17.4613 12.8782 18.1373 13.4599 18.72C14.0206 19.278 14.6609 19.7498 15.3599 20.12C14.0627 20.6411 12.831 21.3123 11.6899 22.12L11.5799 22ZM18.9499 19C17.7668 19.0385 16.6038 18.6871 15.6399 18L19.3499 14.26L23.0399 18C21.7592 18.6092 20.3673 18.9496 18.9499 19ZM14.2399 16.52C13.4421 15.26 13.1228 13.7555 13.3399 12.28C13.3342 12.2268 13.3342 12.1732 13.3399 12.12C13.4872 11.1177 13.7663 10.1392 14.1699 9.21L17.8599 12.91L14.2399 16.52ZM3.85994 29.71C3.77189 29.82 3.66158 29.9102 3.53623 29.9747C3.41088 30.0391 3.27334 30.0763 3.1326 30.0838C2.99187 30.0914 2.85113 30.0691 2.71962 30.0184C2.58811 29.9677 2.46879 29.8899 2.36949 29.7898C2.27019 29.6898 2.19315 29.57 2.14342 29.4381C2.0937 29.3062 2.07241 29.1653 2.08095 29.0247C2.08949 28.884 2.12767 28.7467 2.19298 28.6218C2.2583 28.4969 2.34927 28.3873 2.45994 28.3L8.75994 22L10.1699 23.4L3.85994 29.71ZM27.2899 15.36C26.5325 15.9618 25.7339 16.5098 24.8999 17L20.7099 12.82L23.9499 9.61L28.4599 14.12C28.1229 14.5802 27.7298 14.9968 27.2899 15.36Z" fill="#7D7F82"/>
</g>
<defs>
<clipPath id="clip0_5534_20710">
<rect width="32" height="32" fill="white"/>
</clipPath>
</defs>
</svg>
