<svg width="32" height="32" viewBox="0 0 32 32" fill="none" xmlns="http://www.w3.org/2000/svg">
<g clip-path="url(#clip0_5534_20699)">
<path fill-rule="evenodd" clip-rule="evenodd" d="M2.24962 11.0324C2.25561 11.0216 2.26169 11.0108 2.26786 11.0001C2.18209 10.8516 2.11447 10.6901 2.06838 10.5184C1.96469 10.1321 1.84784 9.66912 1.84784 9.14249C1.84784 8.61586 1.96469 8.15289 2.06838 7.76656C2.08518 7.70396 2.10502 7.6422 2.12782 7.58152C2.3735 6.92769 2.83452 5.98011 3.76366 5.31359C4.36366 4.78894 5.13325 4.49318 5.51121 4.35678C5.77762 4.26064 6.01894 4.18721 6.19292 4.1378C6.28088 4.11281 6.3541 4.09327 6.40768 4.07941C6.43453 4.07247 6.45661 4.06691 6.47333 4.06276L6.49437 4.05759L6.50178 4.0558L6.50592 4.0548C6.50619 4.05474 6.50703 4.05454 6.97103 5.99997C6.97103 5.99997 5.54077 6.34109 5.01451 6.88107C4.59689 7.14781 4.3168 7.56095 4.11763 7.99997C4.07488 8.09419 4.03586 8.1896 4.00001 8.28501C3.79711 9.04098 3.79711 9.244 4.00001 9.99997H11C11.1096 9.99997 11.2247 9.99692 11.3408 9.99384C11.5285 9.98887 11.7188 9.98383 11.8927 9.99147C12.0098 9.99661 12.1195 10.0075 12.216 10.028C12.7232 10.136 13.0276 10.568 13.2305 11L17 5.99997H6.97103L6.50703 4.05454C6.65903 4.01828 6.81476 3.99997 6.97103 3.99997H17C17.6722 3.99997 18.2931 4.33692 18.6612 4.88607C18.7395 4.82728 18.8169 4.77131 18.8905 4.71987C19.0671 4.59655 19.286 4.45436 19.5163 4.33415C19.6314 4.27411 19.7812 4.20273 19.9523 4.14247C20.0998 4.09054 20.3912 3.99997 20.754 3.99997H30C30.7579 3.99997 31.4507 4.42836 31.7893 5.10641C32.1279 5.78445 32.0542 6.59564 31.5989 7.20151C31.4751 7.36621 31.1192 7.88583 30.6457 8.577C30.4738 8.82805 30.2863 9.10172 30.0889 9.38924C29.4394 10.3349 28.6981 11.4055 28.1981 12.0708C28.1973 12.072 28.1966 12.0732 28.1958 12.0745C27.8276 12.6525 27.189 13.0018 26.5037 13L26.4948 13C25.7772 12.9981 25.1193 12.6124 24.7654 11.9956C24.6853 11.998 24.5946 12 24.5 12H23.5228C23.5255 12.079 23.5235 12.1585 23.5167 12.2382L23.4164 13.4131C23.3228 14.7103 23.2747 15.8627 23.2695 16.4746C23.3161 16.8704 23.3709 17.0282 23.5037 17.4104C23.5706 17.6031 23.6574 17.8528 23.7729 18.2189C24.089 19.0083 24.7992 19.4148 25.5049 19.3678C25.5491 19.3649 25.5934 19.3634 25.6377 19.3634H25.6427C26.0128 19.3634 26.4182 19.3634 27.0985 19.2729C27.186 19.2612 27.2741 19.2554 27.3623 19.2554H28.3768C29.2266 19.2554 29.9835 19.7923 30.2644 20.5943C30.5453 21.3963 30.2887 22.2882 29.6247 22.8184L29.5907 22.8455C28.8026 23.4747 27.9341 24.1682 27.0499 24.7564C26.9693 24.8101 26.8849 24.8578 26.7974 24.8992C25.785 25.3782 24.6662 25.7905 23.376 25.9371C22.392 26.0941 21.3824 25.9155 20.8245 25.8165C20.7159 25.7973 20.6091 25.769 20.5051 25.7321C20.4791 25.7229 20.4521 25.7134 20.4243 25.7036C19.8853 25.5133 19.0244 25.2094 18.256 24.5916C17.4845 24.0708 16.8349 23.4461 16.2896 22.7549C16.2204 22.9244 16.1417 23.0906 16.0536 23.2526C15.1477 25.1076 13.2541 26 11.5 26C10.941 26 10.2644 25.9921 9.48889 25.9831C9.32921 25.9813 9.16534 25.9794 8.99743 25.9775C8.00725 25.9664 6.85838 25.9553 5.55074 25.9553H2.00001C1.24029 25.9553 0.54616 25.5248 0.208459 24.8443C-0.129242 24.1637 -0.0521994 23.3506 0.407307 22.7456L4.26238 17.6698C4.42878 17.4507 4.63545 17.2721 4.86729 17.1404L2.30644 13.0638C1.91926 12.4475 1.8975 11.6695 2.24962 11.0324ZM9.00001 19.9594H8.28987C7.95703 19.9594 7.55592 19.9594 7.19854 19.8999C7.12021 19.8868 7.04398 19.8709 6.97103 19.8515C6.75722 19.8059 6.56144 19.7029 6.39128 19.5665C6.15774 19.3793 5.97246 19.1294 5.85509 18.8795L2.00001 23.9553H5.55074C7.09586 23.9553 8.41967 23.9706 9.51635 23.9833C10.2918 23.9923 10.9537 24 11.5 24C12.6404 24 13.7681 23.4153 14.2754 22.3353C14.8841 21.2554 14.7826 19.8515 13.971 18.8795C13.2476 17.8527 12.6104 16.8485 11.9666 15.8338C11.2562 14.7142 10.5376 13.5817 9.68608 12.392C9.58463 12.176 9.20291 12 9.00001 12H4.00001L9.00001 19.9594ZM12.407 12.8226C12.8108 13.4334 13.1888 14.0272 13.5552 14.6045C13.5862 14.6534 13.6172 14.7022 13.6481 14.7509C13.8031 14.9952 13.9561 15.2363 14.1087 15.4752C14.138 15.2398 14.1757 14.9984 14.2216 14.7494C14.3266 13.9975 14.5493 13.0252 14.8399 12.1876L14.8275 12.204C14.4055 12.7637 13.7212 13.0617 13.0239 12.9893C12.8075 12.9668 12.5997 12.9097 12.407 12.8226ZM17.3645 12.068C17.1616 12.176 16.9587 12.284 16.8573 12.5C16.5529 13.256 16.298 14.3123 16.1966 15.0683C15.8922 16.6882 16 17.7995 16.6087 19.3115C17.2174 20.8234 18.1304 22.1194 19.4493 22.9833C19.9565 23.4153 20.5652 23.6313 21.1739 23.8473C21.7826 23.9553 22.4928 24.0633 23.1015 23.9553C23.8825 23.8721 24.6034 23.661 25.3105 23.3711C25.4198 23.3262 25.5288 23.2795 25.6377 23.2311C25.6779 23.2132 25.7181 23.1951 25.7583 23.1767C25.8196 23.1488 25.8808 23.1203 25.942 23.0913C26.4155 22.7763 26.8889 22.4246 27.3623 22.0575C27.3946 22.0325 27.4268 22.0075 27.4591 21.9823C27.765 21.7439 28.0709 21.4996 28.3768 21.2554H27.3623C26.5507 21.3634 26.0435 21.3634 25.6377 21.3634C25.4649 21.3749 25.2932 21.3741 25.1237 21.3617C25.0671 21.3575 25.0106 21.352 24.9545 21.3453C24.9544 21.3453 24.9546 21.3453 24.9545 21.3453C23.6008 21.1821 22.4063 20.2692 21.8841 18.8795C21.8022 18.618 21.7272 18.4012 21.6594 18.205C21.475 17.6718 21.3432 17.2908 21.269 16.5802C21.269 16.0602 21.3025 15.1378 21.3682 14.068C21.3844 13.805 21.4025 13.533 21.4225 13.256L21.5239 12.068H17.3645ZM24.5 9.99997C24.5912 9.99997 24.682 9.99743 24.7711 9.99438C24.7963 9.99352 24.8214 9.99262 24.8463 9.99172C24.9609 9.9876 25.0723 9.9836 25.1783 9.98415C25.3309 9.98494 25.4723 9.99516 25.5959 10.028C25.8859 10.1052 26.2941 10.5548 26.5001 10.9814C26.5019 10.9852 26.5037 10.989 26.5055 10.9928C26.5037 10.9952 26.5018 10.9976 26.5 11L26.5089 11C26.5078 10.9976 26.5067 10.9952 26.5055 10.9928C26.5067 10.9913 26.5078 10.9898 26.509 10.9883C26.8195 10.5833 27.2731 9.94319 27.753 9.25253C28.0398 8.83994 28.3359 8.40931 28.6166 7.99997C28.7318 7.83196 28.8444 7.66755 28.9527 7.50944C29.4447 6.79099 29.8476 6.20278 30 5.99997H20.754C20.4497 5.99997 19.5964 6.66508 19.3935 6.88107C19.0232 7.19647 18.6528 7.56943 18.3614 7.99997C18.2537 8.15911 18.1568 8.32612 18.0747 8.501C18.0475 8.53952 18.0228 8.57536 18 8.60938C17.8259 8.86917 17.7635 9.02293 17.5887 9.45384C17.5297 9.59936 17.4578 9.77648 17.3645 9.99997H24.5Z" fill="#7D7F82"/>
</g>
<defs>
<clipPath id="clip0_5534_20699">
<rect width="32" height="32" fill="white"/>
</clipPath>
</defs>
</svg>
