<svg width="32" height="32" viewBox="0 0 32 32" fill="none" xmlns="http://www.w3.org/2000/svg">
<g clip-path="url(#clip0_5534_20768)">
<path d="M15.5797 0.0926154L15.5783 0.0932674L15.575 0.0948035L15.5665 0.0988111L15.542 0.110618C15.5223 0.120192 15.4961 0.133203 15.4639 0.1498C15.3994 0.182989 15.3105 0.230552 15.2007 0.293685C14.9812 0.419905 14.6777 0.608683 14.3185 0.869651C13.6002 1.39145 12.6566 2.20381 11.7176 3.38366C9.82825 5.75744 8 9.56618 8 15.359C8 19.3488 8.39822 22.2857 8.92904 24.429L9.5 25L11.0473 24.6132C10.5798 22.9748 10.1674 20.6624 10.0402 17.4544L11.2928 18.707C11.6833 19.0975 12.3165 19.0975 12.707 18.707C13.0975 18.3164 13.0975 17.6833 12.707 17.2927L10.1213 14.7071C10.0864 14.6722 10.0496 14.6404 10.0111 14.6117C10.0326 13.8968 10.0848 13.2191 10.1629 12.5771L11.31 13.7242C11.7005 14.1147 12.3337 14.1147 12.7242 13.7242C13.1147 13.3337 13.1147 12.7005 12.7242 12.31L10.7085 10.2942C10.6746 10.2603 10.6388 10.2294 10.6016 10.2013C11.2318 7.70835 12.2692 5.9022 13.2824 4.62916C13.8896 3.86625 14.4943 3.28725 15.0093 2.86324C15.0032 2.90796 15 2.95361 15 3V22C15 22.424 15.2639 22.7864 15.6364 22.9318L16.5 22.5L16.736 22.677C16.8999 22.4989 17 22.2611 17 22V3C17 2.95353 16.9968 2.90779 16.9907 2.86301C17.5057 3.28704 18.1105 3.86611 18.7178 4.62915C19.7307 5.90174 20.7677 7.70703 21.398 10.1986C21.366 10.2236 21.3352 10.2508 21.3057 10.2803L19.3032 12.2828C18.9127 12.6733 18.9127 13.3065 19.3032 13.697C19.6938 14.0875 20.3269 14.0875 20.7174 13.697L21.8373 12.5771C21.9155 13.2191 21.9676 13.8968 21.9891 14.6117C21.9507 14.6404 21.9138 14.6722 21.8789 14.7071L19.3196 17.2664C18.929 17.657 18.929 18.2901 19.3196 18.6806C19.7101 19.0712 20.3433 19.0712 20.7338 18.6806L21.96 17.4544C21.8239 20.8894 21.3606 23.2977 20.8529 24.951L21 25L23.1952 23.9024C23.6629 21.8119 24.0002 19.0315 24.0002 15.359C24.0002 9.56618 22.172 5.75743 20.2827 3.38366C19.3436 2.20381 18.4 1.39145 17.6818 0.869648C17.3225 0.60868 17.019 0.419902 16.7996 0.293682C16.6898 0.230549 16.6009 0.182986 16.5364 0.149797C16.5041 0.133201 16.4779 0.120189 16.4583 0.110615L16.4338 0.0988081L16.4252 0.0948005L16.422 0.0932644L16.4205 0.0926124L16.4193 0.0921154C16.2827 0.0290811 16.1393 -0.000626254 15.9982 -0.000240432C15.8583 -7.00387e-05 15.7162 0.0295917 15.5809 0.0920406L15.5797 0.0926154Z" fill="#7D7F82"/>
<path d="M24.2071 24.3563C25.1973 23.385 26.8027 23.385 27.7929 24.3563L30.2929 26.8084C30.6834 27.1915 31.3166 27.1915 31.7071 26.8084C32.0976 26.4254 32.0976 25.8043 31.7071 25.4213L29.2071 22.9691C27.4359 21.2318 24.5641 21.2318 22.7929 22.9691C21.8027 23.9404 20.1973 23.9404 19.2071 22.9691C17.4359 21.2318 14.5641 21.2318 12.7929 22.9691C11.8027 23.9404 10.1973 23.9404 9.20711 22.9691C7.43587 21.2318 4.56413 21.2318 2.79289 22.9691L0.292893 25.4213C-0.0976311 25.8043 -0.0976311 26.4254 0.292893 26.8084C0.683418 27.1915 1.31658 27.1915 1.70711 26.8084L4.20711 24.3563C5.19729 23.385 6.80271 23.385 7.79289 24.3563C9.56413 26.0936 12.4359 26.0936 14.2071 24.3563C15.1973 23.385 16.8027 23.385 17.7929 24.3563C19.5641 26.0936 22.4359 26.0936 24.2071 24.3563Z" fill="#7D7F82"/>
<path d="M24.2071 29.2605C25.1973 28.2893 26.8027 28.2893 27.7929 29.2605L30.2929 31.7127C30.6834 32.0957 31.3166 32.0957 31.7071 31.7127C32.0976 31.3296 32.0976 30.7086 31.7071 30.3255L29.2071 27.8734C27.4359 26.1361 24.5641 26.1361 22.7929 27.8734C21.8027 28.8446 20.1973 28.8446 19.2071 27.8734C17.4359 26.1361 14.5641 26.1361 12.7929 27.8734C11.8027 28.8446 10.1973 28.8446 9.20711 27.8734C7.43587 26.1361 4.56413 26.1361 2.79289 27.8734L0.292893 30.3255C-0.0976311 30.7086 -0.0976311 31.3296 0.292893 31.7127C0.683418 32.0957 1.31658 32.0957 1.70711 31.7127L4.20711 29.2605C5.19729 28.2893 6.80271 28.2893 7.79289 29.2605C9.56413 30.9979 12.4359 30.9979 14.2071 29.2605C15.1973 28.2893 16.8027 28.2893 17.7929 29.2605C19.5641 30.9979 22.4359 30.9979 24.2071 29.2605Z" fill="#7D7F82"/>
</g>
<defs>
<clipPath id="clip0_5534_20768">
<rect width="32" height="32" fill="white"/>
</clipPath>
</defs>
</svg>
