<svg width="32" height="32" viewBox="0 0 32 32" fill="none" xmlns="http://www.w3.org/2000/svg">
<g clip-path="url(#clip0_5534_20736)">
<path d="M22.05 6.33C21.0782 6.18674 20.0892 6.43475 19.3 7.01964C18.5108 7.60453 17.9857 8.47854 17.84 9.45C17.7664 9.93123 17.7894 10.4223 17.9079 10.8945C18.0264 11.3667 18.2379 11.8105 18.53 12.2C19.1148 12.9891 19.9887 13.5142 20.96 13.66C21.1431 13.6749 21.327 13.6749 21.51 13.66C22.3028 13.66 23.0745 13.404 23.71 12.93C24.4992 12.3452 25.0242 11.4713 25.17 10.5C25.2415 10.0188 25.2173 9.52817 25.0989 9.05629C24.9805 8.58441 24.7702 8.14051 24.48 7.75C23.888 6.97587 23.0151 6.46579 22.05 6.33ZM23.23 10.26C23.1962 10.4869 23.1171 10.7047 22.9974 10.9004C22.8777 11.0961 22.7199 11.2657 22.5333 11.3991C22.3466 11.5325 22.1351 11.627 21.9112 11.677C21.6873 11.727 21.4557 11.7314 21.23 11.69C20.7843 11.6194 20.383 11.3794 20.11 11.02C19.9771 10.8392 19.8813 10.634 19.8281 10.416C19.7749 10.198 19.7653 9.97167 19.8 9.75C19.8688 9.35009 20.0776 8.98768 20.389 8.72754C20.7005 8.46741 21.0943 8.3265 21.5 8.33H21.76C21.9836 8.35951 22.1991 8.43295 22.3941 8.54607C22.5892 8.6592 22.7599 8.80979 22.8966 8.98917C23.0332 9.16855 23.133 9.37318 23.1902 9.59128C23.2474 9.80938 23.261 10.0366 23.23 10.26Z" fill="#7D7F82"/>
<path d="M29.23 21.84C28.3711 21.0032 27.2192 20.5348 26.02 20.5348C24.8208 20.5348 23.669 21.0032 22.81 21.84C22.3304 22.3055 21.6884 22.5659 21.02 22.5659C20.3517 22.5659 19.7096 22.3055 19.23 21.84C18.3711 21.0032 17.2192 20.5348 16.02 20.5348C14.8208 20.5348 13.669 21.0032 12.81 21.84C12.3304 22.3055 11.6884 22.5659 11.02 22.5659C10.3517 22.5659 9.70961 22.3055 9.23002 21.84C8.37106 21.0032 7.21925 20.5348 6.02002 20.5348C4.8208 20.5348 3.66899 21.0032 2.81002 21.84L0.290024 24.33C0.109784 24.5165 0.0090332 24.7657 0.0090332 25.025C0.0090332 25.2843 0.109784 25.5335 0.290024 25.72C0.382987 25.8137 0.493585 25.8881 0.615444 25.9389C0.737303 25.9897 0.868011 26.0158 1.00002 26.0158C1.13203 26.0158 1.26274 25.9897 1.3846 25.9389C1.50646 25.8881 1.61706 25.8137 1.71002 25.72L4.21002 23.27C4.6896 22.8045 5.33167 22.5441 6.00002 22.5441C6.66838 22.5441 7.31044 22.8045 7.79002 23.27C8.64899 24.1068 9.8008 24.5752 11 24.5752C12.1992 24.5752 13.3511 24.1068 14.21 23.27C14.6896 22.8045 15.3317 22.5441 16 22.5441C16.6684 22.5441 17.3104 22.8045 17.79 23.27C18.649 24.1068 19.8008 24.5752 21 24.5752C22.1992 24.5752 23.3511 24.1068 24.21 23.27C24.6896 22.8045 25.3317 22.5441 26 22.5441C26.6684 22.5441 27.3104 22.8045 27.79 23.27L30.29 25.72C30.383 25.8137 30.4936 25.8881 30.6154 25.9389C30.7373 25.9897 30.868 26.0158 31 26.0158C31.132 26.0158 31.2627 25.9897 31.3846 25.9389C31.5065 25.8881 31.6171 25.8137 31.71 25.72C31.8903 25.5335 31.991 25.2843 31.991 25.025C31.991 24.7657 31.8903 24.5165 31.71 24.33L29.23 21.84Z" fill="#7D7F82"/>
<path d="M29.23 27.33C28.3711 26.4932 27.2192 26.0248 26.02 26.0248C24.8208 26.0248 23.669 26.4932 22.81 27.33C22.3304 27.7955 21.6884 28.0559 21.02 28.0559C20.3517 28.0559 19.7096 27.7955 19.23 27.33C18.3711 26.4932 17.2192 26.0248 16.02 26.0248C14.8208 26.0248 13.669 26.4932 12.81 27.33C12.3304 27.7955 11.6884 28.0559 11.02 28.0559C10.3517 28.0559 9.70961 27.7955 9.23002 27.33C8.37106 26.4932 7.21925 26.0248 6.02002 26.0248C4.8208 26.0248 3.66899 26.4932 2.81002 27.33L0.310024 29.78C0.132735 29.966 0.0338326 30.2131 0.0338326 30.47C0.0338326 30.7269 0.132735 30.974 0.310024 31.16C0.402987 31.2537 0.513585 31.3281 0.635445 31.3789C0.757304 31.4297 0.888011 31.4558 1.02002 31.4558C1.15204 31.4558 1.28274 31.4297 1.4046 31.3789C1.52646 31.3281 1.63706 31.2537 1.73002 31.16L4.23002 28.71C4.70961 28.2445 5.35167 27.9841 6.02002 27.9841C6.68838 27.9841 7.33044 28.2445 7.81002 28.71C8.66899 29.5468 9.8208 30.0152 11.02 30.0152C12.2192 30.0152 13.3711 29.5468 14.23 28.71C14.7096 28.2445 15.3517 27.9841 16.02 27.9841C16.6884 27.9841 17.3304 28.2445 17.81 28.71C18.669 29.5468 19.8208 30.0152 21.02 30.0152C22.2192 30.0152 23.3711 29.5468 24.23 28.71C24.7096 28.2445 25.3517 27.9841 26.02 27.9841C26.6884 27.9841 27.3304 28.2445 27.81 28.71L30.31 31.16C30.403 31.2537 30.5136 31.3281 30.6354 31.3789C30.7573 31.4297 30.888 31.4558 31.02 31.4558C31.152 31.4558 31.2827 31.4297 31.4046 31.3789C31.5265 31.3281 31.6371 31.2537 31.73 31.16C31.9073 30.974 32.0062 30.7269 32.0062 30.47C32.0062 30.2131 31.9073 29.966 31.73 29.78L29.23 27.33Z" fill="#7D7F82"/>
<path d="M1.71002 20.19L4.21002 17.74C4.6896 17.2745 5.33167 17.0141 6.00002 17.0141C6.66838 17.0141 7.31044 17.2745 7.79002 17.74C8.65141 18.5722 9.80231 19.0373 11 19.0373C12.1977 19.0373 13.3486 18.5722 14.21 17.74C14.6896 17.2745 15.3317 17.0141 16 17.0141C16.6684 17.0141 17.3104 17.2745 17.79 17.74C18.6514 18.5722 19.8023 19.0373 21 19.0373C22.1977 19.0373 23.3486 18.5722 24.21 17.74C24.6896 17.2745 25.3317 17.0141 26 17.0141C26.6684 17.0141 27.3104 17.2745 27.79 17.74L30.29 20.19C30.383 20.2837 30.4936 20.3581 30.6154 20.4089C30.7373 20.4597 30.868 20.4858 31 20.4858C31.132 20.4858 31.2627 20.4597 31.3846 20.4089C31.5065 20.3581 31.6171 20.2837 31.71 20.19C31.8903 20.0035 31.991 19.7543 31.991 19.495C31.991 19.2357 31.8903 18.9865 31.71 18.8L29.23 16.33C28.3686 15.4978 27.2177 15.0327 26.02 15.0327C24.8223 15.0327 23.6714 15.4978 22.81 16.33C22.3304 16.7955 21.6884 17.0559 21.02 17.0559C20.3517 17.0559 19.7096 16.7955 19.23 16.33C18.8278 15.9423 18.3563 15.6336 17.84 15.42C17.8413 15.3967 17.8413 15.3733 17.84 15.35L17.18 14.06C16.23 12.33 15.75 11.33 15.15 10.93C15.6337 9.88746 16.0415 8.81133 16.37 7.71C16.6878 6.38774 17.2362 5.13185 17.99 4C18.55 3.46 21.38 3.05 23.67 3C23.9352 3 24.1896 2.89464 24.3771 2.70711C24.5647 2.51957 24.67 2.26522 24.67 2C24.67 1.73478 24.5647 1.48043 24.3771 1.29289C24.1896 1.10536 23.9352 1 23.67 1C22.37 1 18.03 1.21 16.67 2.56C15.67 3.48 15.14 5.23 14.54 7.09C14.02 8.65 13.33 10.79 12.61 11.09C10.2708 12.0649 8.09535 13.3938 6.16002 15.03C5.53965 15.0081 4.92125 15.112 4.34209 15.3354C3.76292 15.5588 3.23497 15.8971 2.79002 16.33L0.290024 18.78C0.109784 18.9665 0.0090332 19.2157 0.0090332 19.475C0.0090332 19.7343 0.109784 19.9835 0.290024 20.17C0.38166 20.265 0.491209 20.341 0.612354 20.3935C0.733499 20.446 0.863842 20.474 0.995857 20.4758C1.12787 20.4777 1.25895 20.4534 1.38152 20.4043C1.5041 20.3553 1.61575 20.2824 1.71002 20.19ZM14.14 12.73C14.44 13.16 14.96 14.2 15.36 14.98L15.42 15.11C14.4338 15.219 13.5102 15.6474 12.79 16.33C12.3114 16.7896 11.6736 17.0462 11.01 17.0462C10.3465 17.0462 9.70865 16.7896 9.23002 16.33C8.98924 16.1019 8.72435 15.9007 8.44002 15.73C10.36 14.33 12.91 12.88 14.14 12.73Z" fill="#7D7F82"/>
</g>
<defs>
<clipPath id="clip0_5534_20736">
<rect width="32" height="32" fill="white"/>
</clipPath>
</defs>
</svg>
