<svg width="32" height="32" viewBox="0 0 32 32" fill="none" xmlns="http://www.w3.org/2000/svg">
<g clip-path="url(#clip0_5534_20722)">
<path fill-rule="evenodd" clip-rule="evenodd" d="M19.5531 26.7347C16.9597 27.1711 14.3549 26.755 11.7347 26.0163C11.7097 26.0093 11.6892 26.0107 11.677 26.0137L11.6735 26.0146L7.5551 30.1331L7.55365 30.1316L6.85738 30.8279C5.29528 32.39 2.76262 32.39 1.20053 30.8279C-0.36157 29.2658 -0.361571 26.7331 1.20053 25.171L5.96844 20.4031L5.96961 20.4002L5.97105 20.3953C5.97399 20.3834 5.9753 20.3635 5.96835 20.3392C5.21323 17.6964 4.77828 15.0706 5.20448 12.4574C5.63951 9.79004 6.93731 7.33433 9.29342 4.97822C14.8542 -0.582589 23.5902 -1.93824 28.7389 3.21045C33.8875 8.35914 32.5319 17.0951 26.9711 22.6559C24.6339 24.9931 22.198 26.2897 19.5531 26.7347ZM13.3218 24.3663C14.7784 24.7206 16.1617 24.9258 17.4976 24.9118L15.137 22.5512L13.3218 24.3663ZM13.7228 21.1369L10.3209 24.5388C10.2988 24.559 10.277 24.5798 10.2557 24.6012L5.44317 29.4137C4.66212 30.1947 3.39579 30.1947 2.61474 29.4137C1.83369 28.6326 1.83369 27.3663 2.61474 26.5853L5.52194 23.6781L5.52781 23.6839L10.8988 18.3129L13.7228 21.1369ZM9.48457 16.8987L7.61711 18.7662C7.24194 17.2586 7.02309 15.8299 7.03754 14.4517L9.48457 16.8987ZM20.0113 24.597L7.35226 11.938C7.82713 10.0498 8.87157 8.2285 10.7076 6.39243C15.7845 1.31561 23.2241 0.524158 27.3246 4.62466C31.4251 8.72517 30.6337 16.1649 25.5569 21.2417C23.7208 23.0777 21.8995 24.1222 20.0113 24.597Z" fill="#7D7F82"/>
<path d="M6 3C6 4.65685 4.65685 6 3 6C1.34315 6 0 4.65685 0 3C0 1.34315 1.34315 -4.43775e-07 3 -4.43775e-07C4.65685 -4.43775e-07 6 1.34315 6 3Z" fill="#7D7F82"/>
</g>
<defs>
<clipPath id="clip0_5534_20722">
<rect width="32" height="32" fill="white"/>
</clipPath>
</defs>
</svg>
