<svg width="32" height="32" viewBox="0 0 32 32" fill="none" xmlns="http://www.w3.org/2000/svg">
<g clip-path="url(#clip0_5534_20709)">
<path d="M3.10251 18.1712C3.23391 18.172 3.36417 18.1468 3.48582 18.0971C3.60746 18.0474 3.71811 17.9742 3.8114 17.8817L13.1768 8.50631C13.3627 8.31924 13.4671 8.06619 13.4671 7.80241C13.4671 7.53864 13.3627 7.28558 13.1768 7.09851C12.9897 6.91255 12.7366 6.80817 12.4729 6.80817C12.2091 6.80817 11.956 6.91255 11.769 7.09851L2.39362 16.4639C2.30004 16.5567 2.22576 16.6671 2.17507 16.7888C2.12438 16.9105 2.09828 17.041 2.09828 17.1728C2.09828 17.3046 2.12438 17.4351 2.17507 17.5567C2.22576 17.6784 2.30004 17.7888 2.39362 17.8817C2.48691 17.9742 2.59756 18.0474 2.71921 18.0971C2.84085 18.1468 2.97111 18.172 3.10251 18.1712Z" fill="#7D7F82"/>
<path d="M30.7493 18.3409C30.6565 18.2474 30.5461 18.1731 30.4244 18.1224C30.3027 18.0717 30.1722 18.0456 30.0404 18.0456C29.9086 18.0456 29.7781 18.0717 29.6564 18.1224C29.5348 18.1731 29.4243 18.2474 29.3315 18.3409L27.754 19.9584C27.6604 20.0512 27.5861 20.1617 27.5354 20.2833C27.4848 20.405 27.4587 20.5355 27.4587 20.6673C27.4587 20.7991 27.4848 20.9296 27.5354 21.0513C27.5861 21.173 27.6604 21.2834 27.754 21.3762C27.8473 21.4687 27.9579 21.542 28.0796 21.5916C28.2012 21.6413 28.3315 21.6665 28.4629 21.6658C28.7248 21.6646 28.9758 21.5607 29.1618 21.3762L30.7493 19.7887C30.8475 19.6954 30.9257 19.5831 30.9791 19.4587C31.0325 19.3342 31.0601 19.2002 31.0601 19.0648C31.0601 18.9294 31.0325 18.7954 30.9791 18.6709C30.9257 18.5465 30.8475 18.4342 30.7493 18.3409Z" fill="#7D7F82"/>
<path d="M26.3761 17.1828L29.3116 15.4854C29.6563 15.294 29.9515 15.0245 30.1734 14.6986C30.3953 14.3726 30.5378 13.9993 30.5896 13.6083C30.7593 12.3204 30.0005 10.8127 28.3131 9.13533L20.4155 1.23767C19.6201 0.445055 18.543 0 17.4201 0C16.2973 0 15.2202 0.445055 14.4248 1.23767C14.2684 1.3935 14.1444 1.57867 14.0597 1.78256C13.975 1.98645 13.9315 2.20505 13.9315 2.42581C13.9315 2.64658 13.975 2.86518 14.0597 3.06907C14.1444 3.27295 14.2684 3.45812 14.4248 3.61395C14.4248 3.61395 16.5626 5.19464 17.4201 6.60928C18.3703 8.17657 18.7081 11.1222 18.7081 11.1222C18.8303 11.5624 18.8337 12.0272 18.718 12.4691C18.6022 12.9111 18.3715 13.3145 18.0492 13.6383L16.5615 15.136L15.1337 13.7082C14.7889 13.3437 14.3138 13.1307 13.8123 13.1158C13.3108 13.1008 12.8238 13.2851 12.4579 13.6283L1.29534 24.8707C1.20176 24.9636 1.12747 25.074 1.07678 25.1957C1.02609 25.3173 1 25.4478 1 25.5796C1 25.7114 1.02609 25.8419 1.07678 25.9636C1.12747 26.0853 1.20176 26.1957 1.29534 26.2885C1.48241 26.4745 1.73547 26.5789 1.99924 26.5789C2.26301 26.5789 2.51606 26.4745 2.70313 26.2885L13.7858 15.2058L22.0429 23.4629L15.2036 30.3023C15.0176 30.4893 14.9133 30.7424 14.9133 31.0062C14.9133 31.2699 15.0176 31.523 15.2036 31.7101C15.2961 31.8044 15.4064 31.8795 15.528 31.9309C15.6497 31.9823 15.7804 32.009 15.9125 32.0096C16.1759 32.0058 16.4271 31.8982 16.6114 31.7101L23.6005 24.721C23.9437 24.3551 24.128 23.8681 24.113 23.3666C24.0981 22.8651 23.885 22.39 23.5206 22.0452L22.2426 20.7672L24.0498 18.96C24.7441 18.2683 25.5262 17.6708 26.3761 17.1828ZM20.9147 19.2895L18.0691 16.5238L19.4969 15.096C20.0749 14.5235 20.4898 13.8072 20.6986 13.0209C20.9075 12.2346 20.9028 11.4069 20.685 10.623C20.685 10.623 20.327 7.35833 19.2673 5.63081C18.3532 4.14081 16.1022 2.46575 16.1022 2.46575C16.5372 2.14296 17.0734 1.98664 17.6137 2.0251C18.154 2.06357 18.6627 2.29427 19.0476 2.67542L26.9453 10.5631C28.6526 12.2704 28.6825 13.1391 28.6526 13.3687C28.6429 13.4586 28.609 13.5441 28.5545 13.6162C28.5 13.6883 28.4269 13.7443 28.3431 13.7781L25.4176 15.4754C24.4219 16.0496 23.5027 16.7474 22.6819 17.5522L20.9147 19.2895Z" fill="#7D7F82"/>
</g>
<defs>
<clipPath id="clip0_5534_20709">
<rect width="32" height="32" fill="white"/>
</clipPath>
</defs>
</svg>
