<svg width="32" height="32" viewBox="0 0 32 32" fill="none" xmlns="http://www.w3.org/2000/svg">
<g clip-path="url(#clip0_5534_20775)">
<path fill-rule="evenodd" clip-rule="evenodd" d="M4.68629 27.3137C7.69916 30.3266 11.6146 31.8867 15.5623 31.994C16.2199 32.0119 16.8783 31.9895 17.5336 31.9268L17.5611 31.9241C21.1211 31.5772 24.5871 30.0404 27.3137 27.3137C30.0404 24.5871 31.5772 21.1211 31.9241 17.5611C31.9871 16.9146 32.0109 16.265 31.9954 15.6161L31.994 15.5623C31.8867 11.6146 30.3266 7.69916 27.3137 4.68629C23.792 1.16455 19.0369 -0.372253 14.4389 0.0758806C10.8789 0.422841 7.41294 1.95964 4.68629 4.68629C1.95964 7.41294 0.42284 10.8789 0.0758804 14.4389C0.0501402 14.703 0.0309485 14.9676 0.0183057 15.2325C-0.000856381 15.6339 -0.00497432 16.036 0.00595071 16.4377C0.113313 20.3854 1.67343 24.3008 4.68629 27.3137ZM6.1005 25.8995C11.5678 31.3668 20.4322 31.3668 25.8995 25.8995C28.1103 23.6887 29.4271 20.9226 29.85 18.0501C23.5879 18.599 18.5991 23.5878 18.0502 29.8499C17.3816 29.9483 16.7073 29.9983 16.0328 29.9999C16.5257 22.5124 22.5125 16.5256 30 16.0328C30.0083 12.4389 28.6415 8.84251 25.8995 6.1005C23.1575 3.35849 19.561 1.99167 15.9672 2.00004C15.4743 9.48749 9.48752 15.4743 2.00006 15.9672C2.00163 15.2927 2.05163 14.6184 2.15006 13.9498C8.41216 13.4009 13.4009 8.41213 13.9498 2.15004C11.0774 2.57293 8.31126 3.88975 6.1005 6.1005C0.633164 11.5678 0.633165 20.4322 6.1005 25.8995Z" fill="#7D7F82"/>
</g>
<defs>
<clipPath id="clip0_5534_20775">
<rect width="32" height="32" fill="white"/>
</clipPath>
</defs>
</svg>
