<svg width="32" height="32" viewBox="0 0 32 32" fill="none" xmlns="http://www.w3.org/2000/svg">
<path d="M22.9557 22.0168C22.8464 21.9333 22.7167 21.8837 22.5766 21.8507C22.4838 21.829 22.3894 21.8097 22.2829 21.8097C21.9548 21.8097 21.6999 21.8849 21.5192 22.0363C21.3376 22.1867 21.1823 22.4132 21.0524 22.7159L18.7752 28.0097L16.4969 22.7286C16.367 22.4269 16.2118 22.1974 16.0301 22.0421C15.8495 21.8869 15.5858 21.8097 15.2411 21.8097C14.9559 21.8097 14.7186 21.8761 14.5292 22.0099C14.3388 22.1437 14.2187 22.3312 14.1669 22.5734C14.1151 22.8146 14.1581 23.087 14.2958 23.3888L17.4285 30.3007C17.4887 30.4329 17.5579 30.5426 17.6307 30.6432C17.6102 30.6458 17.59 30.6497 17.5694 30.652C17.5903 30.6497 17.611 30.6473 17.6318 30.6452C17.7253 30.7741 17.8263 30.8836 17.9402 30.9608C18.1424 31.0985 18.408 31.1678 18.7361 31.1678C19.0554 31.1678 19.3162 31.0985 19.5193 30.9608C19.7214 30.8231 19.8874 30.6034 20.0173 30.3007L23.1627 23.3888C23.3004 23.087 23.3463 22.8165 23.2985 22.5792C23.2516 22.3419 23.1373 22.1544 22.9557 22.0168Z" fill="#7D7F82"/>
<path d="M31.1625 28.4628C30.8685 27.9277 30.4809 27.5957 29.9975 27.4658C30.6449 27.2851 31.1381 26.9639 31.4799 26.502C31.8207 26.0401 31.9906 25.4688 31.9906 24.7862C31.9906 23.8888 31.7084 23.1876 31.1429 22.6827C31.0741 22.6213 30.9909 22.5755 30.9151 22.5215C30.4239 22.1717 29.7875 21.9782 29.0032 21.9428C28.9145 21.9388 28.8341 21.9259 28.7417 21.9259H25.5572C25.1695 21.9259 24.8717 22.0294 24.6646 22.2365C24.4576 22.4435 24.3541 22.7413 24.3541 23.13V29.9648C24.3541 30.1087 24.3832 30.2273 24.4117 30.3464C24.46 30.5481 24.5344 30.7271 24.6646 30.8573C24.8717 31.0643 25.1646 31.1678 25.5445 31.1678C25.9331 31.1678 26.2281 31.0643 26.4312 30.8573C26.6343 30.6503 26.7359 30.3524 26.7359 29.9648V27.6474H27.4477C27.5259 27.6474 27.584 27.6783 27.6553 27.6888C27.7729 27.706 27.8979 27.7118 27.9975 27.7568C28.1567 27.831 28.2885 27.9629 28.3921 28.1523L29.5707 30.3134C29.7338 30.6161 29.9213 30.8339 30.1332 30.9677C30.3451 31.1014 30.6185 31.1678 30.9555 31.1678C31.2914 31.1678 31.5463 31.0926 31.7191 30.9413C31.8919 30.7909 31.9847 30.5985 31.9974 30.3651C32.0101 30.1327 31.9476 29.8866 31.8099 29.6278L31.1625 28.4628ZM29.6991 25C29.6624 25.3515 29.5004 25.6043 29.2162 25.7608C28.9885 25.8862 28.7015 25.9649 28.3149 25.9649H26.7359V23.7511H28.3149C29.2553 23.7511 29.726 24.1183 29.726 24.8516C29.726 24.9081 29.7046 24.9478 29.6991 25Z" fill="#7D7F82"/>
<path d="M25.1454 19.3883C26.6103 18.6293 28.1231 18.2009 29.8491 18.0496C29.8357 18.1397 29.775 18.5057 29.775 18.5715C29.775 19.1238 30.2227 19.5715 30.775 19.5715C31.2723 19.5715 31.6703 19.2485 31.7474 18.7729C31.7474 18.7729 31.9058 17.7283 31.9231 17.5606C31.9733 17.0751 32.0157 16.4159 31.9944 15.6157L31.993 15.5618C31.8857 11.6143 30.3257 7.69889 27.3129 4.68616C23.7912 1.16448 19.0363 -0.372275 14.4384 0.0758923C10.8786 0.422806 7.41272 1.95956 4.68611 4.68616C1.95957 7.4127 0.422817 10.8785 0.0758422 14.4384C0.0501472 14.7025 0.0309217 14.9671 0.0182879 15.232C-0.000876538 15.6335 -0.00496581 16.0355 0.00595916 16.4371C0.113317 20.3847 1.67339 24.3001 4.68611 27.3129C6.57339 29.2001 8.81911 30.4983 11.2014 31.2428C11.2354 31.2586 11.4438 31.3053 11.4438 31.3053C11.5029 31.3162 11.557 31.3407 11.6192 31.3407C12.1715 31.3407 12.6192 30.8929 12.6192 30.3407C12.6192 29.9061 12.3172 29.5397 11.9299 29.4018L11.7494 29.3508C9.60845 28.7065 7.79204 27.5904 6.10032 25.8987C3.35833 23.1567 1.99308 19.5603 2.0015 15.9665C2.00102 15.9666 2.00047 15.9666 1.99998 15.9667C2.00089 15.5704 2.02378 15.1745 2.0582 14.7794C2.02384 15.1744 2.00242 15.5704 2.0015 15.9665C9.48815 15.4729 15.4739 9.48668 15.9667 1.99997C19.5604 1.99161 23.1568 3.35839 25.8987 6.10031C28.6406 8.84223 30.0074 12.4386 29.9991 16.0323C27.94 16.1677 25.9339 16.6077 24.2464 17.6033C24.1286 17.6728 24.0946 17.706 24.0266 17.7749C23.8356 17.9571 23.7139 18.2107 23.7139 18.4954C23.7139 19.0477 24.1616 19.4954 24.7138 19.4954C24.8703 19.4954 25.0136 19.4524 25.1454 19.3883ZM2.16654 13.9471C2.14273 14.1082 2.11496 14.2687 2.09678 14.4304C2.11478 14.27 2.1265 14.1091 2.15 13.9493C2.15555 13.9488 2.16098 13.9476 2.16654 13.9471C2.59005 11.0763 3.89073 8.30989 6.10032 6.10031C8.311 3.88962 11.077 2.57283 13.9494 2.14999C13.401 8.40633 8.42068 13.3908 2.16654 13.9471Z" fill="#7D7F82"/>
</svg>
