<svg width="32" height="32" viewBox="0 0 32 32" fill="none" xmlns="http://www.w3.org/2000/svg">
<g clip-path="url(#clip0_5534_20697)">
<path fill-rule="evenodd" clip-rule="evenodd" d="M4 2C3.44772 2 3 2.44772 3 3V27C3 27.5523 3.44772 28 4 28H10C10.5523 28 11 28.4477 11 29C11 29.5523 10.5523 30 10 30H4C2.34315 30 1 28.6569 1 27V3C1 1.34315 2.34315 0 4 0H28C29.6569 0 31 1.34315 31 3V21C31 21.5523 30.5523 22 30 22C29.4477 22 29 21.5523 29 21V3C29 2.44772 28.5523 2 28 2H4ZM6 4C5.44772 4 5 4.44772 5 5C5 5.55228 5.44772 6 6 6H26C26.5523 6 27 5.55228 27 5C27 4.44772 26.5523 4 26 4H6ZM6 8C5.44772 8 5 8.44772 5 9V16.9993L5 17.0007V25C5 25.5178 5.3935 25.9436 5.89776 25.9948C5.93137 25.9983 5.96548 26 6 26H10C10.5523 26 11 25.5523 11 25C11 24.4477 10.5523 24 10 24H7V18H15V20.5C15 21.0523 15.4477 21.5 16 21.5C16.5523 21.5 17 21.0523 17 20.5V18L25 18V21C25 21.5523 25.4477 22 26 22C26.5523 22 27 21.5523 27 21V17V9C27 8.44772 26.5523 8 26 8H16H6ZM7 10V16H15V10H7ZM25 10V16L17 16V10H25ZM18.587 30.0016H17.737V24.8116C17.7468 24.7016 17.7321 24.5907 17.6941 24.487C17.6561 24.3833 17.5956 24.2893 17.517 24.2116C17.3419 24.063 17.1162 23.9877 16.887 24.0016C16.5316 24.0024 16.1841 24.1066 15.887 24.3016L14.417 25.2116C14.2487 25.3028 14.1151 25.4469 14.037 25.6216C13.9877 25.7812 13.9877 25.952 14.037 26.1116C14.0669 26.2675 14.1436 26.4105 14.257 26.5216C14.3676 26.6393 14.5165 26.7137 14.677 26.7316C14.8572 26.7532 15.0391 26.7069 15.187 26.6016L15.837 26.2116V29.9916H14.837C14.297 29.9916 14.027 30.2516 14.027 30.7716C14.0117 30.8811 14.0222 30.9927 14.0577 31.0974C14.0932 31.2022 14.1526 31.2972 14.2313 31.3749C14.3099 31.4526 14.4057 31.5108 14.5108 31.545C14.616 31.5791 14.7277 31.5883 14.837 31.5716H18.577C18.6863 31.5883 18.798 31.5791 18.9031 31.545C19.0083 31.5108 19.104 31.4526 19.1827 31.3749C19.2614 31.2972 19.3208 31.2022 19.3563 31.0974C19.3918 30.9927 19.4023 30.8811 19.387 30.7716C19.3937 30.2583 19.127 30.0016 18.587 30.0016ZM23.737 27.7017L24.847 26.3716C24.9833 26.2145 25.0672 26.0187 25.087 25.8116C25.0898 25.7211 25.0725 25.631 25.0361 25.5479C24.9998 25.4649 24.9454 25.391 24.877 25.3316C24.7189 25.1966 24.5145 25.1285 24.307 25.1416C24.1175 25.1336 23.9288 25.1713 23.757 25.2516C23.5919 25.3388 23.4483 25.4618 23.337 25.6116L22.677 26.4616L22.017 25.6116C21.9092 25.4622 21.7691 25.3391 21.607 25.2516C21.4323 25.1693 21.2399 25.1315 21.047 25.1416C20.8395 25.1285 20.6351 25.1966 20.477 25.3316C20.3438 25.4568 20.2649 25.6291 20.257 25.8116C20.269 26.0374 20.3571 26.2524 20.507 26.4216L21.607 27.7516L20.377 29.2516C20.2328 29.4196 20.1484 29.6306 20.137 29.8516C20.1385 29.944 20.1587 30.035 20.1966 30.1193C20.2344 30.2035 20.289 30.2792 20.357 30.3416C20.4329 30.4091 20.5216 30.4607 20.6178 30.4933C20.7139 30.526 20.8157 30.539 20.917 30.5316C21.1064 30.5382 21.2947 30.5005 21.467 30.4216C21.6278 30.3283 21.7702 30.2063 21.887 30.0616L22.667 29.0616L23.457 30.0616C23.5686 30.2113 23.712 30.3342 23.877 30.4216C24.0484 30.5031 24.2374 30.5409 24.427 30.5316C24.6342 30.5427 24.8379 30.4748 24.997 30.3416C25.0664 30.2797 25.1225 30.2043 25.162 30.1201C25.2016 30.0359 25.2237 29.9446 25.227 29.8516C25.2177 29.6283 25.129 29.4155 24.977 29.2516L23.737 27.7017ZM28.907 30.0017H31.007C31.547 30.0017 31.787 30.2683 31.727 30.8016C31.7423 30.9112 31.7318 31.0227 31.6963 31.1275C31.6608 31.2322 31.6014 31.3272 31.5227 31.4049C31.444 31.4826 31.3483 31.5408 31.2431 31.575C31.138 31.6092 31.0263 31.6183 30.917 31.6017H27.237C27.1146 31.6146 26.9908 31.6017 26.8737 31.5638C26.7565 31.5259 26.6486 31.4639 26.557 31.3817C26.4085 31.2031 26.3366 30.973 26.357 30.7416C26.3541 30.5579 26.3952 30.3762 26.477 30.2117C26.5742 30.0444 26.6918 29.8899 26.827 29.7517L28.687 27.8117C28.9129 27.5861 29.111 27.3343 29.277 27.0617C29.3845 26.8616 29.4427 26.6388 29.447 26.4117C29.447 25.8817 29.137 25.6116 28.447 25.6116C28.2647 25.6116 28.0832 25.6351 27.907 25.6817C27.6918 25.7276 27.4857 25.8086 27.297 25.9216C27.1384 26.0085 26.9543 26.0369 26.777 26.0017C26.6271 25.9663 26.4933 25.8818 26.397 25.7617C26.2983 25.6405 26.2328 25.4958 26.207 25.3417C26.1865 25.1848 26.2108 25.0253 26.277 24.8817C26.361 24.721 26.4941 24.5913 26.657 24.5117C26.9731 24.3436 27.309 24.2159 27.657 24.1317C28.0048 24.0523 28.3603 24.0121 28.717 24.0117C29.4283 23.962 30.1349 24.1598 30.717 24.5717C30.9462 24.7721 31.1266 25.0222 31.2444 25.303C31.3622 25.5837 31.4144 25.8877 31.397 26.1917C31.4001 26.6437 31.2937 27.0897 31.087 27.4916C30.8316 27.9856 30.4934 28.4321 30.087 28.8117L28.907 30.0017Z" fill="#7D7F82"/>
</g>
<defs>
<clipPath id="clip0_5534_20697">
<rect width="32" height="32" fill="white"/>
</clipPath>
</defs>
</svg>
