<svg width="32" height="32" viewBox="0 0 32 32" fill="none" xmlns="http://www.w3.org/2000/svg">
<path d="M31.8822 10.4228C30.2258 6.63095 15.3279 2.34021 12.045 2.05084C6.05794 1.52198 1.63749 5.14416 0.220545 11.7599C-0.0367583 12.6659 -0.0694578 13.6209 0.125269 14.5424C0.319995 15.4639 0.736287 16.324 1.33814 17.0485C2.34115 18.1117 3.62462 18.8693 5.04014 19.2337L10.8775 24.3427C10.7589 24.6968 10.695 25.067 10.6879 25.4403C10.7011 26.1045 10.9017 26.7513 11.2667 27.3063L9.38077 29.1523C9.19492 29.3393 9.0906 29.5922 9.0906 29.8558C9.0906 30.1194 9.19492 30.3723 9.38077 30.5593C9.47401 30.6518 9.58459 30.7249 9.70617 30.7746C9.82774 30.8243 9.95792 30.8494 10.0892 30.8487C10.2206 30.8494 10.3507 30.8243 10.4723 30.7746C10.5939 30.7249 10.7045 30.6518 10.7977 30.5593L12.7335 28.6235C13.2101 28.8509 13.7322 28.9669 14.2602 28.9627C15.1927 28.9601 16.0861 28.5878 16.7445 27.9275C17.4029 27.2672 17.7727 26.3728 17.7727 25.4403C17.7469 24.8431 17.5682 24.2624 17.2538 23.754L23.2409 16.9587C23.5725 16.9946 23.9071 16.9946 24.2387 16.9587C27.2322 16.5495 28.0704 15.9608 29.0483 15.2923C29.2579 15.1426 29.4874 14.9929 29.7568 14.8233C31.2236 13.9152 32.3811 11.5503 31.8822 10.4228ZM14.2602 26.9671C13.8553 26.9671 13.467 26.8062 13.1807 26.5199C12.8944 26.2336 12.7335 25.8453 12.7335 25.4403C12.7309 25.2382 12.7684 25.0375 12.844 24.85C12.9195 24.6624 13.0315 24.4918 13.1736 24.3479C13.3156 24.204 13.4848 24.0898 13.6713 24.0118C13.8579 23.9338 14.0581 23.8937 14.2602 23.8937C14.6625 23.8937 15.0483 24.0535 15.3327 24.3379C15.6172 24.6224 15.777 25.0082 15.777 25.4104C15.7823 25.6129 15.747 25.8145 15.6732 26.0031C15.5993 26.1918 15.4885 26.3637 15.3471 26.5088C15.2057 26.6539 15.0367 26.7692 14.85 26.8479C14.6634 26.9266 14.4628 26.9671 14.2602 26.9671ZM15.9067 22.357C15.4054 22.0676 14.839 21.9097 14.2602 21.898C13.4693 21.9019 12.7028 22.1726 12.0849 22.6663L8.75213 19.7526H9.94954C11.7856 19.6129 13.6017 18.4953 15.2082 17.5175C16.0404 16.9169 16.9682 16.4615 17.9523 16.1704C18.9615 16.179 19.9663 16.3063 20.9458 16.5495L15.9067 22.357ZM28.7589 13.087C28.4396 13.2766 28.1802 13.4562 27.9407 13.6259C27.1125 14.1946 26.5138 14.6237 23.9493 14.953C23.0376 14.9589 22.1288 14.8483 21.2452 14.6237C20.1019 14.345 18.9294 14.2043 17.7527 14.2046C16.4292 14.4785 15.1822 15.0406 14.1006 15.851C12.6836 16.7092 11.107 17.6871 9.73002 17.7869C8.73217 17.8567 4.56118 17.737 2.82492 15.7413C2.42895 15.2484 2.16076 14.6653 2.04413 14.0439C1.92751 13.4225 1.96606 12.7819 2.15637 12.179C3.86269 4.19621 9.51049 3.83698 11.8554 4.03655C18.2915 4.60532 28.9386 9.5247 29.9863 11.1512C29.8094 11.93 29.3555 12.618 28.7091 13.087H28.7589Z" fill="#7D7F82"/>
<path d="M8.0203 8.98587H11.7024C11.967 8.98587 12.2208 8.88074 12.4079 8.6936C12.5951 8.50647 12.7002 8.25267 12.7002 7.98802C12.7002 7.72338 12.5951 7.46957 12.4079 7.28244C12.2208 7.0953 11.967 6.99017 11.7024 6.99017H8.0203C7.75566 6.99017 7.50185 7.0953 7.31472 7.28244C7.12759 7.46957 7.02246 7.72338 7.02246 7.98802C7.02246 8.25267 7.12759 8.50647 7.31472 8.6936C7.50185 8.88074 7.75566 8.98587 8.0203 8.98587Z" fill="#7D7F82"/>
<path d="M17.725 9.9912H14.013C13.7483 9.9912 13.4945 10.0963 13.3074 10.2835C13.1203 10.4706 13.0151 10.7244 13.0151 10.989C13.0151 11.2537 13.1203 11.5075 13.3074 11.6946C13.4945 11.8818 13.7483 11.9869 14.013 11.9869H17.725C17.9896 11.9869 18.2434 11.8818 18.4306 11.6946C18.6177 11.5075 18.7228 11.2537 18.7228 10.989C18.7228 10.7244 18.6177 10.4706 18.4306 10.2835C18.2434 10.0963 17.9896 9.9912 17.725 9.9912Z" fill="#7D7F82"/>
<path d="M10.7026 12.9866C10.7026 12.722 10.5975 12.4682 10.4104 12.281C10.2232 12.0939 9.96943 11.9888 9.70479 11.9888H6.02274C5.75809 11.9888 5.50429 12.0939 5.31715 12.281C5.13002 12.4682 5.02489 12.722 5.02489 12.9866C5.02489 13.2513 5.13002 13.5051 5.31715 13.6922C5.50429 13.8793 5.75809 13.9845 6.02274 13.9845H9.70479C9.96943 13.9845 10.2232 13.8793 10.4104 13.6922C10.5975 13.5051 10.7026 13.2513 10.7026 12.9866Z" fill="#7D7F82"/>
</svg>
