<svg width="32" height="32" viewBox="0 0 32 32" fill="none" xmlns="http://www.w3.org/2000/svg">
<path fill-rule="evenodd" clip-rule="evenodd" d="M15.985 2C14.6593 2 13.388 2.52662 12.4506 3.464C11.5132 4.40139 10.9866 5.67277 10.9866 6.99844C10.9866 8.32411 11.5132 9.59547 12.4506 10.5329C13.1523 11.2346 14.0412 11.7062 15 11.8989V16.974L8.26821 21.6021C7.36307 20.8192 6.20318 20.3843 4.99844 20.3843C3.67277 20.3843 2.40139 20.9109 1.464 21.8483C0.526616 22.7856 0 24.057 0 25.3827C0 26.7084 0.526616 27.9797 1.464 28.9171C2.40139 29.8545 3.67277 30.3811 4.99844 30.3811C6.32411 30.3811 7.59547 29.8545 8.53286 28.9171C9.47025 27.9797 9.99688 26.7084 9.99688 25.3827C9.99688 24.6153 9.82039 23.866 9.48989 23.1892L16 18.7135L22.5101 23.1892C22.1796 23.866 22.0031 24.6153 22.0031 25.3827C22.0031 26.7084 22.5297 27.9797 23.4671 28.9171C24.4045 29.8545 25.6759 30.3811 27.0016 30.3811C28.3272 30.3811 29.5986 29.8545 30.536 28.9171C31.4734 27.9797 32 26.7084 32 25.3827C32 24.057 31.4734 22.7856 30.536 21.8483C29.5986 20.9109 28.3272 20.3843 27.0016 20.3843C25.7968 20.3843 24.6369 20.8192 23.7318 21.6021L17 16.974V11.8928C17.9473 11.6963 18.825 11.2273 19.5194 10.5329C20.4568 9.59547 20.9834 8.32411 20.9834 6.99844C20.9834 5.67277 20.4568 4.40139 19.5194 3.464C18.582 2.52662 17.3107 2 15.985 2ZM15.985 3.99938C16.7804 3.99938 17.5432 4.31534 18.1057 4.87778C18.6681 5.44021 18.9841 6.20304 18.9841 6.99844C18.9841 7.79384 18.6681 8.55666 18.1057 9.11909C17.5432 9.68152 16.7804 9.9975 15.985 9.9975C15.1896 9.9975 14.4268 9.68152 13.8643 9.11909C13.3019 8.55666 12.9859 7.79384 12.9859 6.99844C12.9859 6.20304 13.3019 5.44021 13.8643 4.87778C14.4268 4.31534 15.1896 3.99938 15.985 3.99938ZM4.99844 22.3836C5.79384 22.3836 6.55665 22.6996 7.11908 23.262C7.68152 23.8245 7.9975 24.5873 7.9975 25.3827C7.9975 26.1781 7.68152 26.9409 7.11908 27.5033C6.55665 28.0658 5.79384 28.3818 4.99844 28.3818C4.20304 28.3818 3.44021 28.0658 2.87778 27.5033C2.31534 26.9409 1.99938 26.1781 1.99938 25.3827C1.99938 24.5873 2.31534 23.8245 2.87778 23.262C3.44021 22.6996 4.20304 22.3836 4.99844 22.3836ZM29.1222 23.262C28.5598 22.6996 27.797 22.3836 27.0016 22.3836C26.2062 22.3836 25.4433 22.6996 24.8809 23.262C24.3185 23.8245 24.0025 24.5873 24.0025 25.3827C24.0025 26.1781 24.3185 26.9409 24.8809 27.5033C25.4433 28.0658 26.2062 28.3818 27.0016 28.3818C27.797 28.3818 28.5598 28.0658 29.1222 27.5033C29.6847 26.9409 30.0006 26.1781 30.0006 25.3827C30.0006 24.5873 29.6847 23.8245 29.1222 23.262Z" fill="#7D7F82"/>
</svg>
