<svg width="32" height="32" viewBox="0 0 32 32" fill="none" xmlns="http://www.w3.org/2000/svg">
<g clip-path="url(#clip0_5534_20760)">
<path d="M30.9975 26.7032H29.8045C29.981 24.5481 30.5914 22.4509 31.599 20.5378C32.0301 19.6455 32.2306 19.1142 31.7895 18.5328C31.6443 18.3743 31.4544 18.2636 31.245 18.2153C31.0356 18.167 30.8165 18.1833 30.6165 18.2621C28.3397 19.2098 26.4058 20.8289 25.0727 22.9037C25.4433 19.4232 26.4635 16.0431 28.0802 12.9388C28.7719 11.4851 29.0827 10.8836 28.5013 10.2721C28.3486 10.1087 28.1494 9.99614 27.9307 9.94953C27.712 9.90292 27.4842 9.92453 27.2782 10.0115C26.6545 10.2458 26.0482 10.5239 25.4637 10.8435C25.0556 8.65531 23.9002 6.67676 22.1948 5.24616C20.4895 3.81556 18.3402 3.02175 16.1143 3.00044C13.8885 2.97913 11.7244 3.73164 9.99194 5.12933C8.25952 6.52701 7.06639 8.48307 6.61654 10.6631C6.09032 10.3869 5.54799 10.1425 4.99248 9.93125C4.78372 9.84616 4.55404 9.82647 4.33384 9.87481C4.11364 9.92314 3.91332 10.0372 3.7594 10.2019C3.20802 10.8135 3.49875 11.415 4.19048 12.8686C5.74827 15.8404 6.76655 19.0649 7.198 22.3924C5.97064 20.1725 3.91733 18.5263 1.48371 17.811C1.28176 17.748 1.06671 17.7399 0.8606 17.7875C0.654491 17.8351 0.464734 17.9366 0.310776 18.0816C-0.140351 18.6932 0.0801998 19.2345 0.511277 20.0866C1.58763 22.1332 2.19707 24.3929 2.29574 26.7032H1.00251C0.736625 26.7032 0.481633 26.8088 0.293627 26.9968C0.10562 27.1848 0 27.4398 0 27.7057C0 27.9716 0.10562 28.2266 0.293627 28.4146C0.481633 28.6026 0.736625 28.7082 1.00251 28.7082H30.9975C31.2634 28.7082 31.5184 28.6026 31.7064 28.4146C31.8944 28.2266 32 27.9716 32 27.7057C32 27.4398 31.8944 27.1848 31.7064 26.9968C31.5184 26.8088 31.2634 26.7032 30.9975 26.7032ZM28.9925 21.4801C28.2966 23.1393 27.893 24.9064 27.7995 26.7032H25.2932C26.0729 24.6949 27.3286 22.9059 28.9524 21.4901L28.9925 21.4801ZM23.198 26.5929C23.198 26.5929 23.198 26.6631 23.198 26.7032H17.7744C17.6434 25.8437 17.4457 24.9956 17.183 24.1668C18.5163 20.3072 21.4837 15.425 25.8747 12.8485C24.5614 15.6756 22.396 20.9187 23.1579 26.6029L23.198 26.5929ZM16.0301 4.9889C17.9428 4.99319 19.7837 5.71768 21.1863 7.01811C22.5889 8.31854 23.4503 10.0995 23.599 12.0064C20.3517 14.4745 17.7851 17.7276 16.1404 21.4601C14.4889 17.625 11.8408 14.3019 8.47118 11.836C8.66199 9.96226 9.54007 8.22559 10.936 6.96114C12.3319 5.69668 14.1466 4.99408 16.0301 4.9889ZM15.7694 26.7032H9.09273C9.91479 20.9688 7.7193 15.6756 6.38596 12.8084C11.9499 16.0666 15.0977 22.9338 15.7694 26.7032ZM3.10777 21.0691C4.85865 22.5808 6.18544 24.5226 6.95739 26.7032H4.31078C4.27339 24.7655 3.86502 22.853 3.10777 21.0691Z" fill="#7D7F82"/>
<path d="M14.7068 8.87862C15.2604 8.87862 15.7093 8.42978 15.7093 7.87612C15.7093 7.32245 15.2604 6.87361 14.7068 6.87361C14.1531 6.87361 13.7043 7.32245 13.7043 7.87612C13.7043 8.42978 14.1531 8.87862 14.7068 8.87862Z" fill="#7D7F82"/>
<path d="M11.8496 11.6255C12.4033 11.6255 12.8521 11.1767 12.8521 10.623C12.8521 10.0693 12.4033 9.62048 11.8496 9.62048C11.296 9.62048 10.8471 10.0693 10.8471 10.623C10.8471 11.1767 11.296 11.6255 11.8496 11.6255Z" fill="#7D7F82"/>
<path d="M15.7393 12.7082C16.293 12.7082 16.7419 12.2594 16.7419 11.7057C16.7419 11.152 16.293 10.7032 15.7393 10.7032C15.1857 10.7032 14.7368 11.152 14.7368 11.7057C14.7368 12.2594 15.1857 12.7082 15.7393 12.7082Z" fill="#7D7F82"/>
</g>
<defs>
<clipPath id="clip0_5534_20760">
<rect width="32" height="32" fill="white"/>
</clipPath>
</defs>
</svg>
