<svg width="32" height="32" viewBox="0 0 32 32" fill="none" xmlns="http://www.w3.org/2000/svg">
<g clip-path="url(#clip0_5534_20912)">
<path d="M16.14 3.56999L14.18 3.17999C14.06 3.77999 13.9 4.36999 13.71 4.94999L15.6 5.58999C15.82 4.92999 16 4.24999 16.14 3.56999Z" fill="#7D7F82"/>
<path d="M14.8 7.51999L13.01 6.63999C12.74 7.17999 12.44 7.70999 12.09 8.21999L13.75 9.32999C14.14 8.73999 14.49 8.13999 14.8 7.51999Z" fill="#7D7F82"/>
<path d="M10.34 10.34C10.12 10.56 9.89999 10.77 9.66999 10.97L10.99 12.47C11.25 12.24 11.51 12 11.75 11.75C12 11.5 12.24 11.25 12.47 10.99L10.97 9.66999C10.77 9.89999 10.56 10.12 10.34 10.34Z" fill="#7D7F82"/>
<path d="M3.56999 16.14C4.24999 16 4.92999 15.82 5.58999 15.6L4.94999 13.71C4.36999 13.91 3.77999 14.06 3.17999 14.18L3.56999 16.14Z" fill="#7D7F82"/>
<path d="M7.51999 14.8C8.13999 14.49 8.74999 14.14 9.32999 13.75L8.21999 12.09C7.70999 12.43 7.17999 12.74 6.63999 13.01L7.51999 14.8Z" fill="#7D7F82"/>
<path d="M27.05 18.3C27.63 18.1 28.22 17.95 28.82 17.83L28.43 15.87C27.75 16.01 27.07 16.19 26.41 16.41L27.05 18.3Z" fill="#7D7F82"/>
<path d="M25.36 19L24.48 17.21C23.86 17.52 23.25 17.87 22.67 18.26L23.78 19.92C24.29 19.58 24.82 19.27 25.36 19Z" fill="#7D7F82"/>
<path d="M20.24 20.24C19.99 20.49 19.75 20.74 19.52 21L21.02 22.32C21.22 22.09 21.43 21.87 21.65 21.65C21.87 21.43 22.09 21.22 22.32 21.02L21 19.52C20.74 19.75 20.48 19.99 20.24 20.24Z" fill="#7D7F82"/>
<path d="M17.2 24.48L18.99 25.36C19.26 24.82 19.56 24.29 19.91 23.78L18.25 22.67C17.86 23.26 17.51 23.86 17.2 24.48Z" fill="#7D7F82"/>
<path d="M18.3 27.05L16.41 26.41C16.19 27.07 16.01 27.75 15.87 28.43L17.83 28.82C17.95 28.22 18.11 27.63 18.3 27.05Z" fill="#7D7F82"/>
<path d="M18.52 29.78H18.4C14.08 30.51 9.43999 29.22 6.10999 25.89C0.629987 20.43 0.629987 11.57 6.09999 6.09999C11.57 0.629986 20.43 0.629986 25.9 6.09999C29.22 9.41999 30.52 14 29.8 18.3C29.8 18.32 29.78 18.45 29.78 18.48C29.78 19.03 30.23 19.47 30.78 19.48C31.68 19.5 31.76 18.69 31.76 18.67C31.82 18.31 31.88 17.92 31.92 17.56C31.98 16.91 32.01 16.26 31.99 15.61C31.99 15.59 31.99 15.57 31.99 15.56C31.88 11.61 30.32 7.69999 27.31 4.67999C23.79 1.15999 19.04 -0.370014 14.44 0.0799858C10.88 0.429986 7.40999 1.95999 4.68999 4.68999C1.95999 7.40999 0.419987 10.88 0.0799865 14.44C0.0499865 14.7 0.0399865 14.97 0.0199865 15.23C-1.34893e-05 15.63 -1.34883e-05 16.03 0.00998651 16.44C0.119987 20.39 1.67999 24.3 4.68999 27.32C7.69999 30.33 11.62 31.89 15.57 32C16.23 32.02 16.89 32 17.54 31.93C17.54 31.93 17.56 31.93 17.57 31.93C17.94 31.89 18.31 31.84 18.67 31.78C18.76 31.77 18.83 31.74 18.89 31.71C19.26 31.56 19.52 31.21 19.52 30.79C19.52 30.24 19.07 29.79 18.52 29.79V29.78Z" fill="#7D7F82"/>
<path d="M31.64 22.85C31.53 22.77 31.4 22.72 31.26 22.68C31.17 22.66 31.07 22.64 30.97 22.64C30.64 22.64 30.39 22.72 30.21 22.87C30.03 23.02 29.87 23.25 29.74 23.55L29.1 25.05L27.47 28.85L27.34 28.56L26.23 25.99L25.19 23.57C25.06 23.27 24.9 23.04 24.72 22.88C24.54 22.72 24.28 22.65 23.93 22.65C23.64 22.65 23.41 22.72 23.22 22.85C23.03 22.98 22.91 23.17 22.86 23.41C22.81 23.65 22.86 23.92 22.99 24.23L25.14 28.97L26.12 31.14C26.18 31.27 26.25 31.38 26.32 31.48C26.41 31.61 26.51 31.72 26.63 31.8C26.83 31.94 27.1 32.01 27.43 32.01C27.76 32.01 28.01 31.94 28.21 31.8C28.41 31.66 28.58 31.44 28.71 31.14L28.79 30.96L31.85 24.23C31.99 23.93 32.03 23.66 31.99 23.42C31.94 23.18 31.83 23 31.65 22.86L31.64 22.85Z" fill="#7D7F82"/>
</g>
<defs>
<clipPath id="clip0_5534_20912">
<rect width="32" height="32" fill="white"/>
</clipPath>
</defs>
</svg>
