<svg width="32" height="32" viewBox="0 0 32 32" fill="none" xmlns="http://www.w3.org/2000/svg">
<g clip-path="url(#clip0_5534_20903)">
<path d="M31.57 12.42C31.45 11.9 31.31 11.39 31.14 10.89C30.38 8.62 29.11 6.49 27.31 4.69C26.4 3.78 25.39 3.01 24.33 2.36C23.66 1.95 22.96 1.58 22.25 1.28C20.25 0.43 18.13 0 15.99 0C15.24 0 14.49 0.07 13.74 0.18C13.08 0.27 12.42 0.4 11.77 0.58C9.17004 1.29 6.72004 2.65 4.68004 4.69C4.08004 5.29 3.56004 5.93 3.07004 6.6C2.66004 7.17 2.27004 7.75 1.94004 8.36C0.200037 11.54 -0.369963 15.19 0.230037 18.69C0.400037 19.69 0.670037 20.68 1.03004 21.65C1.81004 23.71 3.01004 25.65 4.67004 27.32C5.61004 28.26 6.64004 29.03 7.72004 29.69C8.43004 30.12 9.16004 30.51 9.92004 30.82C11.86 31.61 13.92 32.01 15.98 32.01C16.97 32.01 17.96 31.91 18.94 31.73L19.37 31.64H19.42V31.62C19.93 31.49 20.26 30.99 20.16 30.46C20.05 29.92 19.53 29.57 18.98 29.67C18.96 29.67 18.95 29.68 18.94 29.69C17.98 29.89 16.99 30.01 15.98 30.01C14.68 30.01 13.4 29.82 12.18 29.48C13.81 28.4 15.45 27.08 16.85 25.66C16.85 25.66 16.85 25.65 16.86 25.64C17.08 25.74 17.3 25.84 17.5 25.94C17.65 26.02 17.8 26.05 17.96 26.05C18.32 26.05 18.67 25.85 18.85 25.51C18.9 25.41 18.92 25.3 18.94 25.2V24.96C18.91 24.63 18.73 24.33 18.42 24.17C16.22 23.03 13.32 22.36 8.08004 21.77C5.83004 21.52 4.19004 21.08 2.65004 20.27C2.22004 18.91 1.99004 17.48 1.99004 16.01C1.99004 13.88 2.48004 11.84 3.37004 9.98C7.87004 14.92 12.6 18.8 17.46 21.5C17.61 21.59 17.78 21.63 17.94 21.63C18.29 21.63 18.63 21.44 18.82 21.12C19.09 20.64 18.91 20.03 18.43 19.76C13.6 17.08 8.89004 13.18 4.41004 8.17C4.90004 7.45 5.46004 6.76 6.10004 6.13C7.97004 4.26 10.27 3.01 12.77 2.42C13.34 3.65 13.73 5.48 14.1 7.27C15.05 11.77 16.22 17.31 21.02 18.44C21.29 18.5 21.57 18.56 21.87 18.6C22.25 18.64 22.62 18.66 22.99 18.67C23 18.67 23.02 18.67 23.04 18.67C25.83 18.67 28.3 17.45 29.97 15.38C29.97 15.6 30 15.81 30 16.03C30 17.16 29.85 18.27 29.59 19.34C29.59 19.34 29.59 19.35 29.59 19.36C29.59 19.37 29.59 19.39 29.59 19.4C29.57 19.51 29.57 19.63 29.59 19.75C29.7 20.29 30.22 20.64 30.77 20.54C31.16 20.46 31.45 20.16 31.54 19.79L31.63 19.4C32.12 17.11 32.1 14.74 31.58 12.45L31.57 12.42ZM7.86004 23.75C10.88 24.09 13.06 24.45 14.75 24.9C13.23 26.32 11.5 27.62 9.85004 28.57C8.48004 27.9 7.20004 27.01 6.09004 25.9C5.19004 25 4.44004 23.99 3.83004 22.92C5.02004 23.31 6.33004 23.58 7.87004 23.75H7.86004ZM21.53 16.48C17.92 15.64 16.97 11.17 16.05 6.83C15.68 5.05 15.33 3.4 14.8 2.06C15.19 2.03 15.59 2 15.99 2C18.27 2 20.46 2.55 22.43 3.57C22.79 8.44 22.48 12.84 21.54 16.48H21.53ZM23.56 16.62C24.41 13.21 24.72 9.28 24.51 4.91C24.99 5.28 25.46 5.67 25.89 6.11C27.63 7.85 28.84 9.97 29.48 12.29C28.4 14.8 26.2 16.43 23.56 16.63V16.62Z" fill="#7D7F82"/>
<path d="M30.42 22.85C30.31 22.77 30.18 22.72 30.04 22.68C29.95 22.66 29.85 22.64 29.75 22.64C29.42 22.64 29.17 22.72 28.99 22.87C28.81 23.02 28.65 23.25 28.52 23.55L27.88 25.05L26.25 28.85L26.12 28.56L25.01 25.99L23.97 23.57C23.84 23.27 23.68 23.04 23.5 22.88C23.32 22.72 23.06 22.65 22.71 22.65C22.42 22.65 22.19 22.72 22 22.85C21.81 22.98 21.69 23.17 21.64 23.41C21.59 23.65 21.64 23.92 21.77 24.23L23.92 28.97L24.9 31.14C24.96 31.27 25.03 31.38 25.1 31.48C25.19 31.61 25.29 31.72 25.41 31.8C25.61 31.94 25.88 32.01 26.21 32.01C26.54 32.01 26.79 31.94 26.99 31.8C27.19 31.66 27.36 31.44 27.49 31.14L27.57 30.96L30.63 24.23C30.77 23.93 30.81 23.66 30.77 23.42C30.72 23.18 30.61 23 30.43 22.86L30.42 22.85Z" fill="#7D7F82"/>
</g>
<defs>
<clipPath id="clip0_5534_20903">
<rect width="31.97" height="32" fill="white"/>
</clipPath>
</defs>
</svg>
