<svg width="32" height="32" viewBox="0 0 32 32" fill="none" xmlns="http://www.w3.org/2000/svg">
<g clip-path="url(#clip0_5534_20901)">
<path d="M31.009 9.27871C31.4795 8.66814 31.9199 7.86738 31.9199 6.83642C31.9199 5.80545 31.4795 5.01471 31.009 4.39412C30.5886 3.84361 30.0081 3.26306 29.4075 2.6625L29.2574 2.51236C28.6568 1.91179 28.0763 1.33125 27.5258 0.910855C26.9152 0.440413 26.1144 0 25.0835 0C24.0525 0 23.2618 0.440413 22.6412 0.910855C22.0907 1.33125 21.5101 1.91179 20.9096 2.51236L5.77535 17.6466C5.17479 18.2471 4.59424 18.8277 4.17385 19.3782C3.70341 19.9888 3.26299 20.7895 3.26299 21.8205C3.26299 22.6212 3.53325 23.2818 3.86356 23.8224L0.870749 26.8152C-0.30035 27.9863 -0.30035 29.888 0.870749 31.0591C2.04185 32.2302 3.94363 32.2302 5.11473 31.0591L8.10754 28.0663C8.64805 28.3966 9.29866 28.6569 10.0894 28.6569C11.1204 28.6569 11.9111 28.2165 12.5317 27.746C13.0822 27.3256 13.6628 26.7451 14.2633 26.1445L29.4075 11.0003C30.0081 10.3998 30.5886 9.81921 31.009 9.2687V9.27871ZM3.71342 29.6378C3.32305 30.0282 2.69246 30.0282 2.30209 29.6378C1.91173 29.2474 1.91173 28.6169 2.30209 28.2265L5.13475 25.3938L6.54607 26.8052L3.71342 29.6378ZM10.1094 26.645C9.27864 26.645 8.60801 25.9744 7.27676 24.6431C5.94551 23.3119 5.27488 22.6412 5.27488 21.8105C5.27488 21.34 5.49509 20.9196 5.92549 20.3891L11.5207 25.9844C11.0003 26.4248 10.5799 26.635 10.0994 26.635L10.1094 26.645ZM12.9721 24.6031L7.30679 18.9378L22.2608 4.00376C23.5921 2.67251 24.2627 2.00188 25.0935 2.00188C25.9243 2.00188 26.5949 2.67251 27.9261 4.00376C29.2574 5.33501 29.928 6.00564 29.928 6.83642C29.928 7.66719 29.2574 8.33782 27.9261 9.66907L12.9721 24.6231V24.6031Z" fill="#7D7F82"/>
<path d="M7.92737 8.97843C9.58578 8.97843 10.9302 7.63402 10.9302 5.97561C10.9302 4.3172 9.58578 2.97279 7.92737 2.97279C6.26896 2.97279 4.92455 4.3172 4.92455 5.97561C4.92455 7.63402 6.26896 8.97843 7.92737 8.97843Z" fill="#7D7F82"/>
<path d="M31.9299 23.402C31.8798 23.1617 31.7697 22.9816 31.5896 22.8414C31.4795 22.7614 31.3493 22.7113 31.2092 22.6713C31.1191 22.6513 31.019 22.6312 30.9189 22.6312C30.5886 22.6312 30.3384 22.7113 30.1582 22.8615C29.9781 23.0116 29.8179 23.2418 29.6878 23.5421L29.0472 25.0435L27.4157 28.8471L27.2855 28.5568L26.1745 25.9844L25.1335 23.5621C25.0034 23.2618 24.8432 23.0316 24.6631 22.8715C24.4829 22.7113 24.2227 22.6412 23.8723 22.6412C23.5821 22.6412 23.3518 22.7113 23.1617 22.8414C22.9715 22.9716 22.8514 23.1617 22.8013 23.402C22.7513 23.6422 22.8013 23.9124 22.9315 24.2227L25.0835 28.9672L26.0644 31.1392C26.1244 31.2693 26.1945 31.3794 26.2646 31.4795C26.3547 31.6097 26.4548 31.7198 26.5749 31.7998C26.7751 31.94 27.0453 32.01 27.3756 32.01C27.7059 32.01 27.9562 31.94 28.1564 31.7998C28.3565 31.6597 28.5267 31.4395 28.6568 31.1392L28.7369 30.9591L31.7998 24.2227C31.9399 23.9225 31.9799 23.6522 31.9399 23.412L31.9299 23.402Z" fill="#7D7F82"/>
</g>
<defs>
<clipPath id="clip0_5534_20901">
<rect width="31.92" height="31.97" fill="white" transform="scale(1.00094)"/>
</clipPath>
</defs>
</svg>
