<svg width="32" height="32" viewBox="0 0 32 32" fill="none" xmlns="http://www.w3.org/2000/svg">
<g clip-path="url(#clip0_5534_20911)">
<path d="M3.79851 7.68432C3.57716 7.68432 3.35431 7.61349 3.1672 7.46743C2.72747 7.12403 2.65401 6.49486 3.00292 6.06207C6.10885 2.20941 10.7528 0 15.7438 0C19.5922 0 23.3254 1.34821 26.2567 3.79551L26.5058 4.00898C26.9267 4.37485 26.9664 5.00743 26.5942 5.42118C26.2229 5.8359 25.5777 5.87351 25.1598 5.50764L24.9385 5.31909C22.3765 3.18002 19.1108 2.00082 15.7438 2.00082C11.3772 2.00082 7.3134 3.93424 4.59509 7.30574C4.39458 7.55438 4.09779 7.68432 3.79851 7.68432Z" fill="#7D7F82"/>
<path d="M4.32708 26.9364C4.04568 26.9364 3.76625 26.8221 3.56524 26.5984C1.89912 24.7451 0.678689 22.5088 0.0344745 20.1318C-0.109953 19.5974 0.212651 19.0494 0.754624 18.9077C1.29858 18.7621 1.85445 19.0826 1.99888 19.616C2.5617 21.695 3.63026 23.6509 5.08793 25.2736C5.45967 25.6869 5.42046 26.3189 5.00008 26.6853C4.80652 26.8533 4.56631 26.9364 4.32708 26.9364Z" fill="#7D7F82"/>
<path d="M15.7438 32C14.365 32 12.9952 31.83 11.671 31.4939C11.1281 31.3552 10.8005 30.8101 10.9405 30.2747C11.0814 29.7393 11.6363 29.4208 12.1792 29.5556C14.9685 30.263 17.9871 30.1154 20.6841 29.1316C21.2112 28.9362 21.7958 29.2029 21.9904 29.7217C22.1859 30.2395 21.9169 30.8149 21.3908 31.0074C19.5862 31.6659 17.6863 32 15.7438 32Z" fill="#7D7F82"/>
<path d="M30.6371 20.1992C30.5657 20.1992 30.4932 20.1924 30.4207 20.1768C29.8718 20.0595 29.5234 19.5261 29.6425 18.9868C29.8579 18.0108 29.9671 17.006 29.9671 16.0002C29.9671 15.161 29.8917 14.3228 29.7418 13.508C29.6425 12.9638 30.0098 12.4436 30.5617 12.3459C31.1195 12.2433 31.6427 12.6087 31.7429 13.1524C31.9136 14.0844 32 15.0423 32 16.0002C32 17.1487 31.8749 18.2961 31.6298 19.4108C31.5265 19.8798 31.1047 20.1992 30.6371 20.1992Z" fill="#7D7F82"/>
<path d="M27.8404 12.1249C27.862 12.181 27.8266 12.2583 27.7342 12.357L27.699 12.4346L27.7206 12.4906C27.7422 12.5467 27.7422 12.5467 27.7068 12.624L27.6145 12.7229C27.5575 12.7442 27.5005 12.7655 27.5005 12.7655L27.4788 12.7093L27.3865 12.8082L27.4081 12.8642C27.4297 12.9202 27.4297 12.9202 27.3943 12.9976L27.302 13.0965C27.2451 13.1178 27.188 13.1391 27.188 13.1391L27.1663 13.0829C26.8539 13.4564 26.4058 13.8166 26.0364 14.2114L26.0581 14.2677C26.0797 14.3237 26.0797 14.3237 26.0444 14.4011L25.952 14.4997C25.895 14.5211 25.8379 14.5424 25.8379 14.5424L25.7593 14.5076L25.6099 14.6276L25.6887 14.6625C25.7103 14.7186 25.7103 14.7186 25.6749 14.796L25.5825 14.8947C25.5256 14.9159 25.4685 14.9373 25.4685 14.9373L25.3899 14.9025C25.2052 15.1 24.9772 15.1853 24.6762 14.9125C24.5543 14.7654 24.4245 14.4289 24.3025 14.2819C24.2022 14.1908 24.0882 14.2335 24.0882 14.2335C21.7705 14.6506 21.2596 15.3551 19.7046 15.5511C19.2053 15.6095 18.8257 15.3019 18.3127 15.4937C17.151 15.8638 16.8306 16.0477 15.4978 16.4817C15.5058 16.6712 15.5275 16.7274 15.5275 16.7274L11.0812 18.3895L11.8951 18.4703L12.8592 20.2927C12.8592 20.2927 12.7097 20.4127 12.6528 20.4339C12.8613 20.8054 13.0561 21.3103 13.2864 21.7378C13.4379 22.1306 13.6681 22.5581 13.7763 22.8386C13.8197 22.9509 13.8846 23.1193 13.8572 23.3863C13.8652 23.5759 13.7374 23.752 13.645 23.8507C13.6098 23.9282 13.482 24.1042 13.3544 24.2804C13.1696 24.4778 12.9849 24.6753 12.8926 24.774C12.9142 24.83 12.9928 24.8648 13.0145 24.9211C10.8332 27.2127 7.62154 28.8627 7.33949 31.3435C7.31209 31.6105 6.81274 31.6687 6.70451 31.3882C6.66126 31.2761 6.59629 31.1078 6.55296 30.9955L6.49589 31.0168C6.43894 31.0381 6.4173 30.982 6.39567 30.926L6.35234 30.8137C6.33071 30.7576 6.36604 30.6803 6.36604 30.6803L6.4231 30.6589C6.37977 30.5466 6.39344 30.4132 6.3501 30.3009L6.29317 30.3222C6.2361 30.3435 6.21447 30.2875 6.24991 30.2101L6.2635 30.0765C6.24188 30.0205 6.27731 29.9431 6.3559 29.9779L6.41294 29.9565C6.4107 29.4438 6.74481 29.1262 6.74269 28.6135C6.68562 28.6348 6.66399 28.5788 6.69943 28.5014L6.59902 28.4104C6.5774 28.3544 6.61275 28.2768 6.69142 28.3117L6.74846 28.2904C6.72675 28.2341 6.76207 28.1568 6.79751 28.0794L6.74045 28.1008C6.6835 28.1221 6.66186 28.066 6.69711 27.9885L6.71092 27.855C6.74622 27.7777 6.74622 27.7777 6.80328 27.7563L6.83853 27.6788C6.96633 27.5027 7.19433 27.4175 7.40855 27.4657C7.62295 27.5141 8.43683 27.5949 8.84746 26.7996C9.5055 25.4624 10.2833 23.7592 11.1737 23.3623C10.7508 22.9424 9.86174 21.9908 9.63161 21.5633L9.3249 21.6138C9.02401 21.3409 8.01879 19.9192 7.42853 18.7277C7.42853 18.7277 6.81659 17.4799 6.75739 16.9884C6.70035 17.0097 6.57265 17.1857 6.57265 17.1857C6.25003 16.8569 5.47777 13.1653 5.60121 11.9638L6.32637 11.3074C6.21237 11.35 5.6207 11.5071 3.9812 11.9914C3.37227 13.1179 2.72793 14.3217 2.33111 14.9836C2.23872 15.0823 2.31962 15.63 2.31962 15.63C2.31962 15.63 2.17819 15.9396 1.95813 16.2143C1.7026 16.5666 1.02658 17.0119 0.747317 16.7954C0.66873 16.7606 0.647025 16.7044 0.70398 16.6831C0.774716 16.5284 1.14413 16.1335 1.20689 15.7889C1.02222 15.9865 0.802116 16.2613 0.552496 16.2905C0.438476 16.3332 0.29484 16.1298 0.444193 16.0099C0.742925 15.7699 0.927607 15.5724 1.06903 15.2627C1.13187 14.9183 1.2949 14.6647 1.63691 14.5369C1.63691 14.5369 2.38298 12.0753 2.89159 10.858C3.03301 10.5484 3.51073 10.4342 3.51073 10.4342L3.45949 10.1322C3.45949 10.1322 6.29377 8.68766 7.89209 8.60378C7.51038 7.78346 7.49801 6.56832 8.80912 6.07823C9.49315 5.82255 10.7004 6.07748 11.1312 6.68678C11.2748 6.88992 11.1688 7.12217 11.22 7.42397C11.2791 7.91541 11.6234 8.30029 11.6097 8.43394C11.596 8.56732 11.482 8.60993 11.4329 8.82091C11.3839 9.03189 11.3427 9.43235 11.3427 9.43235L11.3232 9.88905L10.3895 10.1739C10.3289 11.0311 10.2078 12.7455 10.5426 14.2894C11.3054 14.0686 14.7848 13.2816 14.7848 13.2816L14.9501 13.5407C14.9501 13.5407 16.3831 13.1977 17.718 13.2764C17.9676 13.2473 18.6085 12.8794 19.0941 12.9547L19.1647 12.7998C20.8201 12.6946 22.3773 13.0114 23.9323 12.8154C23.9323 12.8154 24.6812 12.7279 24.931 12.6989C25.4873 12.6192 25.8293 12.4914 26.1359 12.4409C26.6136 12.3267 26.8987 12.2201 27.1837 12.1136C27.333 11.9934 27.6534 11.8095 27.8404 12.1249ZM28.2961 6.88283C27.2701 7.26636 26.7751 8.35021 27.1649 9.36018C27.5545 10.3699 28.6557 10.8572 29.6817 10.4736C30.7078 10.0901 31.2028 9.00623 30.8131 7.99647C30.4234 6.9865 29.2652 6.52059 28.2961 6.88283Z" fill="#7D7F82"/>
<path d="M30.6163 22.4178C30.5052 22.3344 30.3734 22.2848 30.2309 22.2517C30.1367 22.2299 30.0407 22.2107 29.9323 22.2107C29.5988 22.2107 29.3398 22.286 29.1562 22.4374C28.9715 22.5878 28.8137 22.8145 28.6817 23.1173L26.3668 28.4135L24.0511 23.13C23.919 22.8282 23.7613 22.5986 23.5766 22.4432C23.393 22.2879 23.125 22.2107 22.7746 22.2107C22.4847 22.2107 22.2435 22.2772 22.0509 22.411C21.8574 22.5449 21.7353 22.7324 21.6826 22.9747C21.6301 23.216 21.6737 23.4886 21.8137 23.7905L24.9981 30.7054C25.0592 30.8378 25.1295 30.9474 25.2035 31.0481C25.1828 31.0507 25.1621 31.0547 25.1413 31.057C25.1625 31.0547 25.1835 31.0522 25.2047 31.0501C25.2997 31.179 25.4024 31.2887 25.5182 31.3659C25.7236 31.5037 25.9936 31.573 26.3272 31.573C26.6518 31.573 26.9167 31.5037 27.1233 31.3659C27.3287 31.2281 27.4974 31.0082 27.6295 30.7054L30.8267 23.7905C30.9667 23.4886 31.0133 23.2179 30.9648 22.9805C30.9171 22.7431 30.8009 22.5556 30.6163 22.4178Z" fill="#7D7F82"/>
</g>
<defs>
<clipPath id="clip0_5534_20911">
<rect width="32" height="32" fill="white"/>
</clipPath>
</defs>
</svg>
