<svg width="32" height="32" viewBox="0 0 32 32" fill="none" xmlns="http://www.w3.org/2000/svg">
<g clip-path="url(#clip0_5534_20909)">
<path d="M17.5376 30.0006H14.8885C15.6882 27.8613 13.9088 25.1122 13.8288 24.9922C12.8191 23.4527 11.6395 21.5433 10.5598 18.2243L10.5098 18.0844C9.40019 14.7354 9.39019 13.0659 9.58013 12.2562H22.906C23.0859 13.0659 23.0759 14.7354 21.9763 18.0844L21.8863 18.3643C21.7563 18.7542 21.7163 18.9041 21.5664 19.294C21.3664 19.8138 21.6364 20.3836 22.1462 20.5836C22.2662 20.6236 22.3861 20.6436 22.4961 20.6436C22.896 20.6436 23.2759 20.3936 23.4358 19.9938C23.5958 19.5639 23.6457 19.404 23.7857 18.9741L23.8757 18.7042C23.9256 18.5542 23.9556 18.4243 24.0056 18.2843C24.5954 17.2146 27.8044 11.2765 28.3843 7.05781C28.5942 5.56828 28.4542 4.36865 27.9344 3.26899C27.3646 2.03938 26.5048 1.14966 25.3952 0.599829C23.8757 -0.13994 21.6364 -0.359871 20.2868 0.889738C19.1471 1.94941 18.9672 3.53891 19.2871 4.55859C19.477 5.1684 19.627 5.71823 19.757 6.22807C19.2771 6.21807 18.7073 6.22807 18.0075 6.22807C17.5276 6.22807 16.9678 6.23807 16.328 6.23807C15.6082 6.23807 14.9984 6.23807 14.4686 6.22807C13.7688 6.22807 13.189 6.21807 12.6992 6.22807C12.8291 5.71823 12.9791 5.1684 13.169 4.55859C13.4789 3.52891 13.309 1.93941 12.1693 0.889738C10.8397 -0.359871 8.59044 -0.13994 7.08091 0.599829C5.97126 1.13966 5.12152 2.03938 4.54171 3.26899C4.03187 4.36865 3.88191 5.56828 4.09185 7.05781C4.69166 11.3665 8.03062 17.4946 8.51047 18.3543C8.55045 18.4742 8.58044 18.5842 8.62043 18.7042L8.66042 18.8341C9.92002 22.6929 11.3796 24.9022 12.1593 26.0819C12.6192 26.7817 13.3689 28.5211 12.9991 29.3508C12.9391 29.4708 12.7791 29.8507 11.8194 29.9806H11.1896C10.6398 29.9806 10.1899 30.4305 10.1899 30.9803C10.1899 31.5302 10.6398 31.98 11.1896 31.98H17.5276C18.0775 31.98 18.5273 31.5302 18.5273 30.9803C18.5273 30.4305 18.0775 29.9806 17.5276 29.9806L17.5376 30.0006ZM21.6564 2.35928C22.3162 1.74947 23.7357 2.00939 24.5255 2.39927C25.2152 2.73916 25.7551 3.31898 26.125 4.11873C26.3349 4.57859 26.6048 5.34835 26.4049 6.7879C26.1949 8.29742 25.5751 10.1368 24.8654 11.8763C24.7054 11.1065 24.4055 10.4967 23.9256 10.0669C23.6757 9.84694 23.4658 9.68699 23.2759 9.54703C22.936 9.28711 22.786 9.17715 22.5461 8.72729C22.5061 8.65731 22.4861 8.60733 22.4561 8.54735C22.2962 8.12748 22.1462 7.50767 21.9763 6.82788C21.7863 6.05812 21.5464 5.10842 21.2065 3.98877C21.0865 3.59889 21.1465 2.83913 21.6564 2.36928V2.35928ZM14.4586 8.23744C14.7285 8.23744 15.0384 8.23744 15.3583 8.23744C15.3683 8.23744 15.3883 8.23744 15.3983 8.23744C15.7282 8.23744 16.0381 8.23744 16.328 8.23744C16.5679 8.23744 16.8179 8.23744 17.0778 8.23744C17.4177 8.23744 17.7376 8.22744 18.0275 8.22744C19.0172 8.21745 19.8469 8.20745 20.2368 8.24744C20.2568 8.30742 20.2668 8.3674 20.2768 8.40739C20.3568 8.74728 20.4267 8.96721 20.7266 9.54703C20.8266 9.76696 20.9466 9.95691 21.0765 10.1368C21.0965 10.1768 21.1265 10.2068 21.1465 10.2368H11.3396C11.3896 10.1668 11.4395 10.0769 11.4995 9.99689C11.5595 9.90692 11.6195 9.80695 11.6795 9.70698C11.6895 9.67699 11.7095 9.667 11.7195 9.637C12.0694 8.96721 12.1393 8.75728 12.2193 8.39739C12.2293 8.34741 12.2393 8.29742 12.2593 8.23744C12.6492 8.19745 13.4789 8.20745 14.4686 8.21745L14.4586 8.23744ZM6.35114 4.11873C6.73102 3.31898 7.26086 2.73916 7.95064 2.39927C8.74039 2.00939 10.16 1.73947 10.8197 2.35928C11.3296 2.82913 11.3896 3.59889 11.2696 3.97877C10.9297 5.09842 10.6898 6.05812 10.4998 6.81789C10.3099 7.58765 10.14 8.26743 9.96001 8.6873C9.96001 8.6973 9.96001 8.7073 9.95002 8.71729C9.89003 8.82726 9.84005 8.90723 9.79007 8.98721C9.79007 8.98721 9.78007 9.0072 9.77007 9.0172C9.62012 9.23713 9.47017 9.3471 9.22024 9.53704C9.0303 9.67699 8.82037 9.83694 8.58044 10.0569C8.0906 10.4967 7.79069 11.1165 7.63074 11.9063C6.91097 10.1568 6.29116 8.30742 6.08122 6.7879C5.88129 5.35834 6.14121 4.57859 6.36114 4.11873H6.35114Z" fill="#7D7F82"/>
<path d="M28.0943 22.8529C27.9844 22.7729 27.8544 22.7229 27.7145 22.6829C27.6245 22.6629 27.5245 22.6429 27.4246 22.6429C27.0947 22.6429 26.8447 22.7229 26.6648 22.8729C26.4848 23.0228 26.3249 23.2528 26.1949 23.5527L25.5551 25.0522L23.9256 28.851L23.7957 28.5611L22.686 25.9919L21.6464 23.5727C21.5164 23.2727 21.3565 23.0428 21.1765 22.8829C20.9966 22.7229 20.7366 22.6529 20.3868 22.6529C20.0968 22.6529 19.8669 22.7229 19.677 22.8529C19.487 22.9828 19.3671 23.1728 19.3171 23.4127C19.2671 23.6526 19.3171 23.9225 19.447 24.2324L21.5964 28.971L22.5761 31.1403C22.6361 31.2702 22.706 31.3802 22.776 31.4802C22.866 31.6101 22.966 31.7201 23.0859 31.8001C23.2859 31.94 23.5558 32.01 23.8857 32.01C24.2156 32.01 24.4655 31.94 24.6654 31.8001C24.8654 31.6601 25.0353 31.4402 25.1653 31.1403L25.2452 30.9603L28.3043 24.2324C28.4442 23.9325 28.4842 23.6626 28.4442 23.4227C28.3943 23.1828 28.2843 23.0028 28.1043 22.8629L28.0943 22.8529Z" fill="#7D7F82"/>
</g>
<defs>
<clipPath id="clip0_5534_20909">
<rect width="32" height="32" fill="white"/>
</clipPath>
</defs>
</svg>
