<svg width="32" height="32" viewBox="0 0 32 32" fill="none" xmlns="http://www.w3.org/2000/svg">
<g clip-path="url(#clip0_5534_20891)">
<path d="M19.3802 28.7271C17.5709 29.5278 16.5657 29.8581 16.234 29.9081C16.2038 29.9081 16.1837 29.9282 16.1535 29.9382C14.5352 29.5879 7.78034 26.4751 7.06665 25.8445C5.22716 23.9529 3.63897 22.3214 3.257 19.9693C3.13638 19.2387 3.19669 18.8884 3.28715 18.3979C3.38767 17.7974 3.51835 17.0567 3.35752 15.6455C3.18664 14.1642 2.86498 13.3935 2.58352 12.7029C2.36238 12.1624 2.18145 11.722 2.08093 10.9413C1.78943 8.53919 2.4629 6.32723 3.99078 4.7158C5.64934 2.96424 7.54914 2.33369 8.85589 2.1235C12.0926 1.59303 14.6156 3.01429 15.3092 3.46469C15.47 3.56478 15.6409 3.60481 15.8218 3.60481C16.0932 3.69489 16.4048 3.67488 16.6561 3.50472C17.3497 3.05432 19.8828 1.63306 23.1094 2.16353C25.0092 2.47381 26.6477 3.34458 27.9745 4.75583C29.5024 6.37727 30.1759 8.58924 29.8844 10.9814C29.7939 11.682 29.5225 12.1424 29.1607 12.7129C28.7083 13.4535 28.1454 14.3744 27.9645 15.9257C27.8137 17.2169 27.8439 18.0276 27.864 18.7382V19.2187C27.8841 19.3388 27.8841 19.4088 27.874 19.579C27.8439 20.1295 28.2761 20.5999 28.8289 20.6299C28.849 20.6299 28.8591 20.6299 28.8792 20.6299C29.4119 20.6299 29.8542 20.2095 29.8844 19.6791C29.8944 19.4188 29.8844 19.3188 29.8844 19.1586V18.6782C29.8542 18.0076 29.8341 17.307 29.9648 16.1559C30.0955 15.035 30.4573 14.4444 30.8795 13.7638C31.2816 13.1032 31.744 12.3626 31.8747 11.2316C32.2365 8.23892 31.3721 5.44645 29.4321 3.39463C27.4016 1.20268 25.0494 0.442007 23.4311 0.181776C20.0135 -0.368712 17.2391 0.86238 16.0128 1.54298C14.8267 0.86238 12.0222 -0.428765 8.52417 0.141741C6.90582 0.401972 4.55369 1.17266 2.51316 3.33457C0.583203 5.3964 -0.281258 8.17887 0.0806095 11.1815C0.211284 12.2325 0.46258 12.853 0.713877 13.4535C0.965173 14.0741 1.20642 14.6546 1.34714 15.8557C1.47782 16.9767 1.38735 17.4971 1.29688 18.0376C1.19637 18.6181 1.09585 19.2187 1.26673 20.2796C1.75927 23.2422 3.62892 25.1739 5.61919 27.2258C6.53391 28.1666 14.304 31.6997 16.0128 31.9399C16.0631 31.9399 16.1133 31.95 16.1535 31.95C16.2842 31.95 16.4048 31.9199 16.5154 31.8799C16.5154 31.8799 16.5154 31.8799 16.5255 31.8799C17.1587 31.7898 18.3951 31.3394 20.1944 30.5487C20.697 30.3285 20.9282 29.738 20.707 29.2275C20.4859 28.7271 19.8928 28.4969 19.3802 28.7171V28.7271Z" fill="#7D7F82"/>
<path d="M22.2148 17.4871C22.5465 17.0968 22.9989 16.5763 23.4411 15.7156C23.9035 14.8348 24.5669 13.5336 24.4363 12.0223C25.6626 11.4217 26.4265 10.2807 26.4265 8.9996C26.4265 7.10792 24.7479 5.56655 22.6772 5.56655C21.3202 5.56655 20.0637 6.24716 19.4003 7.32812C19.3802 7.35814 19.3802 7.38817 19.3701 7.40819C18.2242 7.36815 17.1487 7.74849 16.2038 8.49916C15.1584 7.68844 13.8718 7.27807 12.5851 7.34813V7.32812C11.9217 6.23715 10.6652 5.56655 9.30822 5.56655C7.23754 5.56655 5.55888 7.10792 5.55888 8.9996C5.55888 10.3108 6.35297 11.4918 7.63961 12.0723C7.63961 12.0723 7.65971 12.0723 7.66977 12.0723C7.58935 13.5236 8.23267 14.7647 8.67495 15.6255C9.11723 16.4762 9.56957 17.0067 9.90128 17.397C10.3034 17.8675 10.434 18.0376 10.4843 18.438C10.5245 18.7683 10.4742 18.9384 10.3838 19.2287C10.2531 19.629 10.0822 20.1695 10.2531 20.9902C10.4441 21.9311 11.2482 23.6426 13.0375 24.153C13.3792 24.2531 13.7109 24.2932 14.0326 24.2932C14.8367 24.2932 15.5203 24.0329 15.9827 23.7827C16.445 24.053 17.1989 24.3832 18.1036 24.3832C18.4152 24.3832 18.7469 24.3432 19.0987 24.2431C21.3504 23.6026 21.863 21.1804 21.8831 21.0803C22.054 20.2596 21.8831 19.7091 21.7524 19.3188C21.662 19.0285 21.6016 18.8583 21.6519 18.5281C21.7022 18.1177 21.8328 17.9575 22.2349 17.4871H22.2148ZM24.4061 8.9996C24.4061 9.41997 24.1749 9.80031 23.803 10.0705C23.2803 9.16975 22.4862 8.40907 21.5212 7.94867C21.8328 7.70845 22.2349 7.56833 22.6772 7.56833C23.6321 7.56833 24.4162 8.2089 24.4162 8.9996H24.4061ZM7.5592 8.9996C7.5592 8.2089 8.34324 7.56833 9.29817 7.56833C9.7304 7.56833 10.1325 7.70845 10.4441 7.93866C9.49921 8.42909 8.72521 9.18977 8.23267 10.1106C7.82054 9.84035 7.56925 9.43999 7.56925 8.9996H7.5592ZM20.6769 16.196C20.5663 16.3361 20.4457 16.4662 20.3351 16.6164L19.1993 14.7247L20.2647 13.7738C20.6769 13.4035 20.7171 12.7729 20.3452 12.3626C19.9732 11.9522 19.34 11.9122 18.9279 12.2825L17.2391 13.7838C16.8773 14.1041 16.7969 14.6346 17.0482 15.045L19.6817 19.4289C19.7219 19.629 19.7722 19.7992 19.8225 19.9493C19.923 20.2496 19.9632 20.3897 19.9029 20.7C19.9029 20.71 19.6013 22.0412 18.5358 22.3414C17.6513 22.5917 16.8572 22.0011 16.7667 21.9311C16.6863 21.871 16.6059 21.841 16.5154 21.811C16.1636 21.5808 15.7012 21.5708 15.3393 21.841C15.2489 21.9111 14.4548 22.5016 13.5702 22.2514C12.5047 21.9511 12.2032 20.6199 12.2032 20.6099C12.1428 20.2996 12.1831 20.1595 12.2836 19.8492C12.3238 19.7191 12.364 19.579 12.4042 19.4088L15.0277 15.045C15.279 14.6346 15.1986 14.1041 14.8367 13.7838L13.148 12.2825C12.7359 11.9122 12.1026 11.9522 11.7307 12.3626C11.3588 12.7729 11.399 13.4035 11.8111 13.7738L12.8766 14.7247L11.781 16.5463C11.6604 16.3962 11.5397 16.246 11.4191 16.1059C11.1075 15.7456 10.7858 15.3652 10.4441 14.7147C9.99175 13.8539 9.48915 12.873 9.70024 11.8221C9.92138 10.7812 10.7858 9.85035 11.8513 9.51005C13.1078 9.09969 14.5251 9.51005 15.4499 10.551C15.46 10.571 15.4801 10.571 15.5002 10.591C15.5102 10.601 15.5203 10.621 15.5404 10.6411C15.5806 10.6711 15.6208 10.6811 15.661 10.7111C15.7213 10.7512 15.7716 10.7812 15.8319 10.8112C15.8922 10.8312 15.9525 10.8412 16.0128 10.8613C16.0731 10.8713 16.1334 10.8913 16.2038 10.8913C16.2641 10.8913 16.3244 10.8813 16.3948 10.8713C16.4551 10.8612 16.5154 10.8512 16.5858 10.8212C16.6461 10.8012 16.7064 10.7612 16.7566 10.7211C16.7969 10.6911 16.8371 10.6811 16.8773 10.6511C16.8974 10.6411 16.8974 10.621 16.9074 10.601C16.9275 10.591 16.9476 10.581 16.9577 10.561C17.8825 9.53007 18.9781 9.20979 20.2346 9.62015C21.3101 9.97046 22.1746 10.9013 22.3857 11.9422C22.6068 12.9931 22.0942 13.974 21.6419 14.8348C21.3001 15.4854 20.9784 15.8657 20.6668 16.226L20.6769 16.196Z" fill="#7D7F82"/>
<path d="M15.4298 18.9985C14.877 18.9985 14.4246 19.4489 14.4246 19.9994C14.4246 20.5498 14.877 21.0002 15.4298 21.0002H16.6059C17.1587 21.0002 17.6111 20.5498 17.6111 19.9994C17.6111 19.4489 17.1587 18.9985 16.6059 18.9985H15.4298Z" fill="#7D7F82"/>
<path d="M31.9752 23.3924C31.9249 23.1522 31.8143 22.972 31.6334 22.8319C31.5228 22.7518 31.3922 22.7018 31.2514 22.6617C31.161 22.6417 31.0605 22.6217 30.9599 22.6217C30.6282 22.6217 30.3769 22.7018 30.196 22.8519C30.0151 23.002 29.8542 23.2322 29.7236 23.5325L29.0802 25.0338L27.4418 28.8372L27.3111 28.5469L26.1953 25.9747L25.15 23.5525C25.0193 23.2522 24.8584 23.022 24.6775 22.8619C24.4966 22.7018 24.2352 22.6317 23.8834 22.6317C23.5919 22.6317 23.3607 22.7018 23.1697 22.8319C22.9788 22.962 22.8581 23.1522 22.8079 23.3924C22.7576 23.6326 22.8079 23.9028 22.9385 24.2131L25.0997 28.9573L26.0848 31.1292C26.1451 31.2593 26.2155 31.3694 26.2858 31.4695C26.3763 31.5996 26.4768 31.7097 26.5974 31.7898C26.7985 31.9299 27.0699 32 27.4016 32C27.7333 32 27.9846 31.9299 28.1856 31.7898C28.3867 31.6497 28.5575 31.4295 28.6882 31.1292L28.7686 30.9491L31.8445 24.2131C31.9852 23.9128 32.0254 23.6426 31.9852 23.4024L31.9752 23.3924Z" fill="#7D7F82"/>
</g>
<defs>
<clipPath id="clip0_5534_20891">
<rect width="32" height="32" fill="white"/>
</clipPath>
</defs>
</svg>
