<svg width="32" height="32" viewBox="0 0 32 32" fill="none" xmlns="http://www.w3.org/2000/svg">
<g clip-path="url(#clip0_5534_20889)">
<path d="M31.871 23.4865C31.8214 23.2484 31.7122 23.0698 31.5336 22.9308C31.4245 22.8515 31.2955 22.8019 31.1566 22.7622C31.0673 22.7423 30.9681 22.7225 30.8688 22.7225C30.5414 22.7225 30.2933 22.8018 30.1147 22.9507C29.9361 23.0995 29.7774 23.3277 29.6484 23.6254L27.396 28.8645L27.2769 28.5767L25.1436 23.6353C25.0146 23.3377 24.8657 23.1094 24.6772 22.9507C24.4986 22.8018 24.2406 22.7225 23.8933 22.7225C23.6155 22.7225 23.3774 22.7919 23.1888 22.9209C23.0003 23.0499 22.8812 23.2384 22.8316 23.4766C22.782 23.7147 22.8316 23.9826 22.9606 24.2803L26.0564 31.1268C26.116 31.2558 26.1854 31.365 26.2549 31.4642C26.3442 31.5932 26.4434 31.7023 26.5625 31.7817C26.7609 31.9206 27.0288 31.9901 27.3464 31.9901C27.6639 31.9901 27.9219 31.9206 28.1203 31.7817C28.3188 31.6428 28.4874 31.4245 28.6164 31.1268L28.6958 30.9482L31.7321 24.2803C31.871 23.9826 31.9107 23.7147 31.871 23.4766V23.4865Z" fill="#7D7F82"/>
<path d="M18.7336 20.5197C18.2971 20.4502 17.8505 20.3907 17.404 20.3212C17.3743 20.3212 17.3346 20.3212 17.3048 20.3113C17.2353 20.3113 17.2056 20.2815 17.1758 20.222C16.9873 19.8449 16.7988 19.458 16.6202 19.0809C16.6102 19.0512 16.5904 19.0313 16.5904 19.0115C16.5606 18.9519 16.5309 18.9023 16.4912 18.8428C16.1736 18.4459 15.5584 18.5054 15.3203 18.9718C15.102 19.3885 14.9036 19.8152 14.6952 20.2418C14.6753 20.2915 14.6456 20.3113 14.596 20.3113C14.1395 20.3708 13.693 20.4403 13.2366 20.5098C13.1274 20.5296 13.0084 20.5594 12.9091 20.6189C12.5321 20.867 12.4924 21.3829 12.8099 21.7005C13.0084 21.8989 13.2068 22.0974 13.4152 22.2859C13.5541 22.4149 13.693 22.5538 13.822 22.6828C13.8518 22.7125 13.8716 22.7324 13.8716 22.782C13.822 23.0797 13.7724 23.3674 13.7228 23.6552C13.7029 23.7743 13.6831 23.9032 13.6533 24.0223C13.6236 24.1811 13.5938 24.3398 13.6434 24.4986C13.7526 24.8757 14.2189 25.1535 14.6753 24.9054C15.0722 24.6871 15.4691 24.4887 15.866 24.2803C15.9454 24.2406 15.995 24.2406 16.0843 24.2803C16.4812 24.4986 16.8881 24.707 17.2949 24.9153C17.5529 25.0443 17.8009 25.0245 18.0391 24.8558C18.2673 24.6871 18.3566 24.4589 18.307 24.1811C18.2276 23.7246 18.1581 23.2583 18.0688 22.7919C18.0589 22.7324 18.0688 22.7026 18.1185 22.6629C18.4558 22.3454 18.7833 22.018 19.1107 21.6905C19.2595 21.5615 19.3389 21.3929 19.3389 21.1944C19.3389 20.857 19.1008 20.5693 18.7833 20.5098L18.7336 20.5197Z" fill="#7D7F82"/>
<path d="M22.5836 -8.72854e-05V0.0197577H17.9994V-8.72854e-05H15.7668C15.6676 -8.72854e-05 15.5684 0.0296802 15.4791 0.0594476L15.4394 -0.0100098H0L0.0793798 18.1184C0.0893023 18.3069 0.386977 22.6529 3.57209 25.1038C5.01085 26.2052 7.44186 27.3463 9.80341 28.4477C11.6291 29.301 14.3578 30.5711 14.8341 31.1763C14.9135 31.6427 15.3203 31.99 15.8065 31.99C15.8462 31.99 16.0149 31.99 16.0744 31.99C16.5606 31.99 16.9674 31.6427 17.0468 31.1763C17.414 30.7199 19.1107 29.8666 20.6983 29.1025C20.7082 29.1025 20.7181 29.1025 20.7281 29.0926C20.7578 29.0827 20.7876 29.0629 20.8174 29.0529C21.115 28.8644 21.3234 28.5568 21.3234 28.1897C21.3234 27.6439 20.8769 27.1974 20.3312 27.1974C20.1922 27.1974 20.0533 27.2272 19.9343 27.2867C19.9144 27.2867 19.8747 27.3066 19.835 27.3264C17.9795 28.2095 16.6995 28.8743 15.9454 29.5094C15.0127 28.7255 13.2862 27.892 10.6369 26.6517C8.48372 25.6495 6.03287 24.5084 4.77271 23.536C2.32186 21.6508 2.05395 18.0588 2.05395 18.0588L1.9845 1.98441H3.88961C3.80031 2.58968 3.74078 3.19495 3.74078 3.82007C3.74078 5.99309 4.31628 8.0272 5.31845 9.7934C5.86419 10.7658 6.53891 11.6588 7.32279 12.4427C8.78139 13.9013 10.6071 14.9829 12.6512 15.5484C13.7029 15.8461 14.8043 16.0148 15.9454 16.0148C15.9553 16.0148 15.9653 16.0148 15.9752 16.0148C22.6828 15.995 28.1402 10.5376 28.1402 3.82007C28.1402 3.19495 28.0905 2.58968 28.0012 1.98441H29.8964L29.8369 17.9993C29.8369 17.9993 29.7774 18.8129 29.4598 19.8548C29.4598 19.8548 29.4598 19.8647 29.4598 19.8746C29.4202 19.9739 29.3904 20.083 29.3904 20.1922C29.3904 20.7379 29.8369 21.1844 30.3826 21.1844C30.7994 21.1844 31.1467 20.9363 31.2955 20.5692C31.7619 19.1602 31.8016 18.1779 31.8115 18.0588L31.8909 -8.72854e-05H22.5836ZM15.7172 1.97449C15.7172 1.97449 15.7172 1.97449 15.7271 1.97449H15.7172L13.8617 5.18937H9.02946L7.17395 1.97449H15.7271H15.7172ZM6.50915 7.73945C6.0031 6.52891 5.72527 5.20922 5.72527 3.82999C5.72527 3.71092 5.73519 3.60177 5.74512 3.49263L7.35256 6.28084L6.50915 7.73945ZM14.8639 13.9807C11.8871 13.6632 9.29736 12.0656 7.64031 9.75371L9.11876 7.19371H13.951L16.3622 11.381L14.854 13.9906L14.8639 13.9807ZM17.1659 13.9608L18.0887 12.3732H21.5318C20.2518 13.2167 18.7634 13.7723 17.1758 13.9608H17.1659ZM23.0598 10.3888H18.2276L15.8065 6.20146L18.2276 2.01418H23.0598L25.4809 6.20146L23.0598 10.3888ZM25.342 2.00425H25.9671C26.0465 2.45077 26.116 2.9072 26.1358 3.37356L25.342 2.00425Z" fill="#7D7F82"/>
<path d="M9 19C9 19.5523 8.55229 20 8 20C7.44772 20 7 19.5523 7 19C7 18.4477 7.44772 18 8 18C8.55229 18 9 18.4477 9 19Z" fill="#7D7F82"/>
<path d="M6 15C6 15.5523 5.55228 16 5 16C4.44772 16 4 15.5523 4 15C4 14.4477 4.44772 14 5 14C5.55228 14 6 14.4477 6 15Z" fill="#7D7F82"/>
<path d="M25 19C25 19.5523 24.5523 20 24 20C23.4477 20 23 19.5523 23 19C23 18.4477 23.4477 18 24 18C24.5523 18 25 18.4477 25 19Z" fill="#7D7F82"/>
<path d="M28 15C28 15.5523 27.5523 16 27 16C26.4477 16 26 15.5523 26 15C26 14.4477 26.4477 14 27 14C27.5523 14 28 14.4477 28 15Z" fill="#7D7F82"/>
</g>
<defs>
<clipPath id="clip0_5534_20889">
<rect width="32" height="32" fill="white"/>
</clipPath>
</defs>
</svg>
