<svg width="32" height="32" viewBox="0 0 32 32" fill="none" xmlns="http://www.w3.org/2000/svg">
<path d="M18.8909 12.1362C19.4916 11.006 19.8275 9.74355 19.8275 8.39961C19.8275 3.75692 15.8365 0 10.9189 0C6.00127 0 2 3.75692 2 8.39961C2 9.81482 2.37671 11.1384 3.02832 12.3092H3.01813C5.27839 16.4734 6.42889 22.5008 6.13363 24.5065C5.57365 28.2329 2.6007 31.9592 4.48425 31.9592C15.8161 31.9796 5.69583 31.9796 17.2822 32C19.0334 32 16.2742 28.2125 15.6125 24.5981C14.8692 20.5256 17.6691 15.3229 18.9112 12.1463L18.8909 12.1362ZM10.9189 2.03627C14.7165 2.03627 17.8015 4.88705 17.8015 8.39961C17.8015 8.69487 17.7709 8.99013 17.7302 9.28539C17.0786 8.61342 16.1724 8.19598 15.1645 8.19598C14.4518 8.19598 13.7798 8.40979 13.2198 8.77632C12.8228 7.66655 12.2017 6.68915 11.3567 5.95609C10.42 5.1314 9.36111 4.71396 8.35316 4.8056C7.90518 4.81578 7.24339 5.02959 6.77505 5.59974C6.18453 6.31244 6.03181 7.36111 6.30671 8.71523C6.31689 8.77632 6.34744 8.83741 6.35762 8.8985C6.32707 9.42793 5.97073 10.1304 5.48202 10.5682C5.20712 10.8126 4.96277 10.9144 4.85078 10.894C4.75915 10.894 4.67769 10.9042 4.59624 10.9144C4.21953 10.1203 4.02609 9.27521 4.02609 8.40979C4.02609 4.89723 7.11104 2.04645 10.9087 2.04645L10.9189 2.03627ZM13.5966 24.9545C13.6067 25.0359 13.6373 25.1072 13.6475 25.1887H9.13712C12.0592 21.0958 11.9065 18.0515 11.8148 16.3105C11.6621 13.3579 10.2978 11.4438 9.31021 10.0388C8.8215 9.34648 8.40407 8.75596 8.31244 8.2978C8.10881 7.28984 8.30225 6.95386 8.34298 6.89277C8.3837 6.84187 8.42443 6.8215 8.40407 6.8215C8.44479 6.8215 8.48552 6.8215 8.51606 6.8215C8.94368 6.78078 9.50365 7.02513 10.0127 7.47311C10.9901 8.32834 11.5908 9.75373 11.6316 11.2606C11.6112 11.4235 11.5806 11.5864 11.5806 11.7595C11.5806 13.7346 13.1893 15.3331 15.1543 15.3331C15.2256 15.3331 15.2867 15.3127 15.3477 15.3127C14.1463 18.2755 13.0162 21.7881 13.5864 24.9443L13.5966 24.9545ZM15.1543 13.307C14.3092 13.307 13.6169 12.6147 13.6169 11.7696C13.6169 10.9246 14.3092 10.2323 15.1543 10.2323C15.9994 10.2323 16.6917 10.9246 16.6917 11.7696C16.6917 12.6147 15.9994 13.307 15.1543 13.307ZM5.52275 12.8285C5.98091 12.7063 6.42889 12.4518 6.84632 12.0853C7.14158 11.8205 7.38593 11.5049 7.60992 11.1791C7.6201 11.1995 7.63028 11.2097 7.64047 11.23C8.58733 12.5638 9.65637 14.0706 9.77855 16.4327C9.84982 17.8479 9.96181 20.0063 8.1699 22.9691C7.99681 20.2405 7.02959 16.1782 5.52275 12.8387V12.8285ZM10.7967 29.9535C10.4912 29.9535 10.2062 29.9535 6.45943 29.9332C6.47979 29.8823 6.51034 29.8212 6.5307 29.7703C6.8565 29.0168 7.21285 28.1514 7.51829 27.2249H14.1973C14.4925 28.0802 14.8183 28.8947 15.1136 29.6074C15.1645 29.7194 15.2052 29.8415 15.2561 29.9637C11.3668 29.9637 11.0716 29.9535 10.7865 29.9433L10.7967 29.9535Z" fill="#7D7F82"/>
<path d="M29.1222 23.2746C29.0713 23.0302 28.9593 22.847 28.776 22.7044C28.664 22.623 28.5317 22.5721 28.3891 22.5313C28.2975 22.511 28.1957 22.4906 28.0939 22.4906C27.7579 22.4906 27.5033 22.5721 27.3201 22.7248C27.1368 22.8775 26.9739 23.1117 26.8416 23.4171L24.5304 28.7929L24.4082 28.4976L22.2192 23.4273C22.0869 23.1219 21.9341 22.8877 21.7407 22.7248C21.5574 22.5721 21.2927 22.4906 20.9364 22.4906C20.6513 22.4906 20.4069 22.5619 20.2135 22.6943C20.0201 22.8266 19.8979 23.0201 19.847 23.2644C19.7961 23.5088 19.847 23.7837 19.9793 24.0891L23.1559 31.1142C23.217 31.2466 23.2883 31.3586 23.3595 31.4604C23.4512 31.5927 23.553 31.7047 23.6752 31.7862C23.8788 31.9287 24.1537 32 24.4795 32C24.8053 32 25.07 31.9287 25.2736 31.7862C25.4773 31.6437 25.6503 31.4197 25.7827 31.1142L25.8641 30.931L28.9796 24.0891C29.1222 23.7837 29.1629 23.5088 29.1222 23.2644V23.2746Z" fill="#7D7F82"/>
</svg>
