<svg width="32" height="32" viewBox="0 0 32 32" fill="none" xmlns="http://www.w3.org/2000/svg">
<g clip-path="url(#clip0_5534_20892)">
<path d="M19.2967 20.56C19.7367 20.56 20.1367 20.26 20.2567 19.82C20.6667 18.28 21.0467 16.08 20.7167 14.03V10.39C20.7167 8.52999 19.1367 7.00999 17.1967 7.00999H15.6467C15.6067 6.65999 15.5867 6.31999 15.5667 5.98999H17.0667C18.0867 5.98999 18.9467 5.24999 19.1067 4.18999L19.2967 2.38999C19.3867 1.78999 19.2167 1.16999 18.8167 0.70999C18.4267 0.24999 17.8567 -0.0100098 17.2667 -0.0100098H7.61672C7.01672 -0.0100098 6.45672 0.24999 6.06672 0.70999C5.66672 1.16999 5.49672 1.77999 5.58672 2.33999L5.78672 4.22999C5.94672 5.24999 6.79672 5.98999 7.81672 5.98999H9.32672C9.31672 6.32999 9.28672 6.68999 9.24672 7.04999H7.64672C5.70672 7.04999 4.12672 8.55999 4.12672 10.43V14.18C3.84672 15.99 4.02672 17.91 4.70672 20.16C5.34672 22.28 6.88672 24.21 8.04672 25.43L8.06672 26.06C8.08672 26.86 8.03672 27.76 7.95672 27.98C7.94672 28.02 7.79672 28.37 6.92672 29.63C6.61672 30.08 6.57672 30.66 6.82672 31.14C7.08672 31.64 7.60672 31.95 8.18672 31.96L16.6967 31.99C17.2767 31.99 17.8067 31.67 18.0667 31.16C18.3167 30.66 18.2667 30.07 17.9367 29.63C17.0567 28.43 16.8467 28.04 16.8067 27.95C16.6867 27.7 16.4867 26.7 16.3767 25.92C16.4667 25.83 16.5567 25.73 16.6567 25.62C17.0267 25.21 16.9967 24.58 16.5867 24.21C16.1767 23.84 15.5467 23.87 15.1767 24.28C14.8167 24.67 14.5867 24.9 14.4567 25.02L12.3567 25.04H12.3067L10.4567 25.02C9.67672 24.3 7.33672 22.01 6.60672 19.58C5.94672 17.39 5.81672 15.6 6.18672 13.94C6.32672 13.31 6.61672 12.15 9.51672 12.24H15.3867C18.2567 12.15 18.5367 13.31 18.6867 13.94C19.0967 15.74 18.7167 17.85 18.3267 19.3C18.1867 19.83 18.5067 20.38 19.0367 20.52C19.1267 20.54 19.2067 20.55 19.2967 20.55V20.56ZM9.09672 29.97C9.58672 29.21 9.74672 28.88 9.81672 28.69C9.96672 28.29 10.0267 27.63 10.0467 27.04H14.5367C14.6467 27.65 14.8067 28.4 14.9967 28.81C15.0467 28.92 15.1767 29.2 15.7367 30L9.08672 29.98L9.09672 29.97ZM7.75672 3.97999L7.55672 2.13999L7.61672 2.01999V1.99999L17.3167 2.01999V2.13999L17.1367 3.93999C17.1367 3.97999 17.0967 3.99999 17.0767 3.99999L7.75672 3.97999ZM6.11672 10.92V10.44C6.11672 9.67999 6.79672 9.05999 7.64672 9.05999H8.90672C8.76672 9.59999 8.58672 10.04 8.36672 10.28C8.36672 10.28 8.36672 10.28 8.36672 10.29C7.48672 10.37 6.74672 10.58 6.13672 10.92H6.11672ZM10.6067 10.25C11.1367 8.82999 11.2767 7.02999 11.3067 5.99999H13.5667C13.6067 7.07999 13.7767 8.87999 14.3167 10.25H10.6067ZM16.6067 10.29C16.6067 10.29 16.5567 10.19 16.5167 10.14C16.3067 9.91999 16.1367 9.49999 15.9967 9.00999H17.1867C18.0267 9.00999 18.7167 9.62999 18.7167 10.39V10.89C18.1367 10.57 17.4267 10.37 16.6067 10.29Z" fill="#7D7F82"/>
<path d="M27.8567 23.29C27.8067 23.05 27.6967 22.87 27.5167 22.73C27.4067 22.65 27.2767 22.6 27.1367 22.56C27.0467 22.54 26.9467 22.52 26.8467 22.52C26.5167 22.52 26.2667 22.6 26.0867 22.75C25.9067 22.9 25.7467 23.13 25.6167 23.43L23.3467 28.71L23.2267 28.42L21.0767 23.44C20.9467 23.14 20.7967 22.91 20.6067 22.75C20.4267 22.6 20.1667 22.52 19.8167 22.52C19.5367 22.52 19.2967 22.59 19.1067 22.72C18.9167 22.85 18.7967 23.04 18.7467 23.28C18.6967 23.52 18.7467 23.79 18.8767 24.09L21.9967 30.99C22.0567 31.12 22.1267 31.23 22.1967 31.33C22.2867 31.46 22.3867 31.57 22.5067 31.65C22.7067 31.79 22.9767 31.86 23.2967 31.86C23.6167 31.86 23.8767 31.79 24.0767 31.65C24.2767 31.51 24.4467 31.29 24.5767 30.99L24.6567 30.81L27.7167 24.09C27.8567 23.79 27.8967 23.52 27.8567 23.28V23.29Z" fill="#7D7F82"/>
</g>
<defs>
<clipPath id="clip0_5534_20892">
<rect width="32" height="32" fill="white"/>
</clipPath>
</defs>
</svg>
