<svg width="32" height="33" viewBox="0 0 32 33" fill="none" xmlns="http://www.w3.org/2000/svg">
<path d="M31.7197 12.997C31.1405 9.952 29.6751 7.043 27.3175 4.686C24.8408 2.21 21.7529 0.732 18.541 0.218C17.6998 0.083 16.8505 0 16.0003 0C15.9343 0 15.8673 0.00899999 15.8012 0.00999999C13.0125 0.045 10.2377 0.813 7.76898 2.297C6.95775 2.785 6.18254 3.35 5.44933 3.994C5.19126 4.221 4.92919 4.441 4.68212 4.687C0.038814 9.329 -1.14752 16.112 1.10811 21.856C1.43121 22.679 1.83632 23.476 2.30145 24.247C2.95963 25.338 3.74085 26.374 4.68212 27.315C5.73441 28.367 6.90274 29.226 8.13809 29.924C8.98832 30.404 9.87157 30.798 10.7788 31.111C12.4683 31.693 14.2308 32.002 15.9983 32.002C20.0944 32.002 24.1906 30.44 27.3155 27.316C27.8006 26.831 28.2347 26.316 28.6448 25.787C29.204 25.066 29.7031 24.313 30.1222 23.528C31.3876 21.157 32.0138 18.536 31.9998 15.916C31.9958 14.937 31.9028 13.96 31.7197 12.997ZM16.7065 2.034C20.1805 2.206 23.4254 3.624 25.9031 6.1C27.3835 7.58 28.4478 9.315 29.125 11.161C23.5704 7.736 17.7368 7.086 14.7759 7.189C14.965 5.277 15.6142 3.492 16.7065 2.034ZM7.36787 4.988C9.37644 3.408 11.7541 2.422 14.2898 2.115C12.0942 6.063 12.1552 11.381 14.812 15.972C14.791 16.004 14.7679 16.039 14.7479 16.069L14.4899 16.461C13.5136 17.983 12.2923 19.232 10.9429 20.195C7.29385 14.466 7.04078 8.583 7.36787 4.988ZM3.5458 22.389C1.0301 17.479 1.60526 11.389 5.26729 7.019C5.25028 11.021 6.09952 16.264 9.2334 21.227C7.40689 22.136 5.43933 22.543 3.5458 22.389ZM10.7638 28.986C9.03834 28.291 7.4529 27.254 6.09852 25.899C5.62838 25.429 5.21427 24.926 4.82516 24.41C9.10136 24.229 13.4576 21.777 16.1753 17.541L16.4154 17.174C16.4504 17.121 16.4864 17.066 16.5214 17.012C16.6165 17.01 16.7085 17 16.8035 17C18.8601 17 20.7966 17.445 22.4891 18.228C21.4578 20.168 17.8828 25.941 10.7638 28.986ZM25.9031 25.899C23.2583 28.543 19.7413 29.999 16.0013 29.999C15.1981 29.999 14.4078 29.918 13.6306 29.787C19.4733 26.591 22.9492 21.727 24.2256 19.213C25.833 20.3 27.1064 21.728 27.8916 23.372C27.3345 24.269 26.6803 25.122 25.9031 25.899ZM28.9829 21.245C26.5853 17.523 22.028 15 16.8035 15C16.7225 15 16.6445 15.009 16.5635 15.011C15.4741 13.143 14.877 11.142 14.7449 9.191C17.2036 9.137 23.8225 9.491 29.8482 14.066C30.1823 16.478 29.9042 18.958 28.9829 21.245Z" fill="#7D7F82"/>
</svg>
