<svg width="32" height="32" viewBox="0 0 32 32" fill="none" xmlns="http://www.w3.org/2000/svg">
<g clip-path="url(#clip0_5534_20913)">
<path d="M31.99 15.56C31.88 11.61 30.32 7.69999 27.31 4.67999C23.79 1.15999 19.04 -0.370014 14.44 0.0799858C10.88 0.429986 7.40999 1.95999 4.68999 4.68999C1.96999 7.41999 0.419987 10.88 0.0799865 14.44C0.0499865 14.7 0.0399865 14.97 0.0199865 15.23C-1.34893e-05 15.63 -1.34883e-05 16.03 0.00998651 16.44C0.119987 20.39 1.67999 24.3 4.68999 27.32C7.69999 30.34 11.62 31.93 15.57 32C16.46 32.02 17.24 31.89 17.24 31.89C17.74 31.83 18.13 31.43 18.13 30.91C18.13 30.36 17.68 29.91 17.13 29.91C17.03 29.91 16.29 30 16.04 30C12.45 30 8.84999 28.64 6.10999 25.9C3.36999 23.16 1.99999 19.56 2.00999 15.97C2.00999 15.57 2.02999 15.18 2.06999 14.78C2.03999 15.17 2.00999 15.57 2.00999 15.97C9.49999 15.48 15.48 9.48999 15.98 1.99999C19.57 1.99999 23.17 3.35999 25.91 6.09999C28.65 8.83999 30.02 12.44 30.01 16.03C27.28 16.21 24.76 17.12 22.62 18.57C22.55 18.61 22.52 18.65 22.48 18.69C22.27 18.87 22.13 19.13 22.13 19.43C22.13 19.98 22.58 20.43 23.13 20.43C23.31 20.43 23.52 20.35 23.64 20.29C25.55 19.24 27.56 18.25 29.85 18.05C29.76 18.69 29.47 19.65 29.44 20.06C29.4 20.61 29.89 21.06 30.44 21.06C30.91 21.06 31.27 20.73 31.39 20.29C31.6 19.58 31.83 18.48 31.92 17.56C31.98 16.91 32.01 16.26 31.99 15.61V15.56ZM2.16999 13.95C2.14999 14.11 2.11999 14.27 2.09999 14.43C2.11999 14.27 2.12999 14.11 2.14999 13.95C2.14999 13.95 2.15999 13.95 2.16999 13.95C2.58999 11.08 3.88999 8.30999 6.09999 6.09999C8.30999 3.88999 11.08 2.56999 13.95 2.14999C13.4 8.40999 8.41999 13.39 2.16999 13.95Z" fill="#7D7F82"/>
<path d="M28.61 22.84C28.5 22.76 28.37 22.71 28.23 22.67C28.14 22.65 28.04 22.63 27.94 22.63C27.61 22.63 27.36 22.71 27.18 22.86C27 23.01 26.84 23.24 26.71 23.54L26.07 25.04L24.44 28.84L24.31 28.55L23.2 25.98L22.16 23.56C22.03 23.26 21.87 23.03 21.69 22.87C21.51 22.71 21.25 22.64 20.9 22.64C20.61 22.64 20.38 22.71 20.19 22.84C20 22.97 19.88 23.16 19.83 23.4C19.78 23.64 19.83 23.91 19.96 24.22L22.11 28.96L23.09 31.13C23.15 31.26 23.22 31.37 23.29 31.47C23.38 31.6 23.48 31.71 23.6 31.79C23.8 31.93 24.07 32 24.4 32C24.73 32 24.98 31.93 25.18 31.79C25.38 31.65 25.55 31.43 25.68 31.13L25.76 30.95L28.82 24.22C28.96 23.92 29 23.65 28.96 23.41C28.91 23.17 28.8 22.99 28.62 22.85L28.61 22.84Z" fill="#7D7F82"/>
</g>
<defs>
<clipPath id="clip0_5534_20913">
<rect width="32" height="32" fill="white"/>
</clipPath>
</defs>
</svg>
