<svg width="32" height="32" viewBox="0 0 32 32" fill="none" xmlns="http://www.w3.org/2000/svg">
<path d="M29.2071 27.8797C27.4358 26.145 24.5641 26.145 22.7929 27.8797C21.8027 28.8495 20.1973 28.8495 19.2071 27.8797C18.9448 27.6228 18.6532 27.4161 18.3497 27.2353C16.9116 26.3784 15.1025 26.3768 13.6624 27.229C13.3545 27.4112 13.0587 27.6194 12.7929 27.8797C11.8027 28.8495 10.1973 28.8495 9.20711 27.8797C7.43587 26.145 4.56416 26.145 2.79292 27.8797L0.292923 30.3281C-0.097641 30.7106 -0.097641 31.3307 0.292923 31.7132C0.683426 32.0956 1.31654 32.0956 1.70711 31.7132L4.20711 29.2647C5.19728 28.295 6.80275 28.295 7.79292 29.2647C9.56416 30.9994 12.4358 30.9994 14.2071 29.2647C15.1973 28.295 16.8027 28.295 17.7929 29.2647C19.5641 30.9994 22.4358 30.9994 24.2071 29.2647C25.1973 28.295 26.8027 28.295 27.7929 29.2647L30.2929 31.7132C30.6834 32.0956 31.3166 32.0956 31.7071 31.7132C32.0976 31.3307 32.0976 30.7106 31.7071 30.3281L29.2071 27.8797Z" fill="#7D7F82"/>
<path d="M1.70711 26.4068L4.20711 23.9584C5.19728 22.9886 6.80275 22.9886 7.79292 23.9584C8.71577 24.8622 9.93666 25.2838 11.1456 25.2457C12.2571 25.2108 13.3587 24.7892 14.2071 23.9584C14.767 23.41 15.5226 23.1831 16.2534 23.2548C16.8151 23.3099 17.3626 23.5369 17.7929 23.9584C17.8237 23.9885 17.8605 24.0084 17.8919 24.0375C18.7441 24.8263 19.8267 25.2331 20.9202 25.2519C22.1076 25.2723 23.3011 24.8456 24.2071 23.9584C25.1973 22.9886 26.8027 22.9886 27.7929 23.9584L30.2929 26.4068C30.6834 26.7892 31.3166 26.7892 31.7071 26.4068C32.0976 26.0243 32.0976 25.4042 31.7071 25.0217L29.2071 22.5733C28.3787 21.762 27.3086 21.3458 26.224 21.2933C26.79 20.5881 27.2705 19.8381 27.6694 19.0564C28.5896 17.253 29.0631 15.283 29.0933 13.3054C29.1084 12.3237 29.0129 11.3425 28.8086 10.3781C28.3011 7.98199 27.1258 5.69897 25.2649 3.83807C23.3037 1.87689 20.8747 0.674133 18.3374 0.216126C17.5644 0.0765991 16.7821 0 15.999 0C15.858 0 15.7176 0.015625 15.5767 0.0201416C13.4507 0.0883789 11.3438 0.672302 9.44734 1.76978C8.63234 2.24139 7.85957 2.80804 7.14052 3.46979C7.00551 3.59406 6.86397 3.70715 6.73305 3.83807C2.99123 7.5799 1.998 13.0182 3.72816 17.6739C4.03493 18.4994 4.42561 19.2991 4.90443 20.0613C5.17012 20.4843 5.46199 20.8951 5.77791 21.2932C4.69264 21.3452 3.62178 21.7615 2.79292 22.5733L0.292923 25.0217C-0.097641 25.4042 -0.097641 26.0243 0.292923 26.4068C0.683426 26.7892 1.31654 26.7892 1.70711 26.4068ZM15.4755 21.3215C14.4958 21.4329 13.5444 21.8373 12.7929 22.5733C12.4296 22.9291 11.9829 23.1516 11.5147 23.2463C10.2774 22.7001 9.13234 21.9408 8.14729 20.9557C7.88063 20.689 7.63106 20.4116 7.39723 20.1255C8.06715 20.0611 8.74104 19.9543 9.41756 19.7537C12.191 18.9334 14.6334 17.0545 16.2945 14.4627L16.4952 14.158C16.5054 14.1426 16.5165 14.1256 16.5269 14.1099C16.5706 14.1094 16.613 14.1043 16.6568 14.1043C18.252 14.1043 19.7543 14.4414 21.0802 15.0283L21.0806 15.0358C20.3685 16.3614 18.529 19.054 15.4755 21.3215ZM23.8507 20.9557C22.8689 21.9375 21.7316 22.7035 20.4996 23.2505C20.0261 23.1575 19.5742 22.9328 19.2071 22.5733C18.8747 22.2478 18.4956 22.0037 18.1002 21.8004C20.494 19.7066 22.0441 17.4637 22.8004 15.9958C22.798 15.9942 22.7954 15.9929 22.7931 15.9913L22.8018 15.9877C22.8004 15.9905 22.8018 15.993 22.8004 15.9958C23.9229 16.79 24.8246 17.7991 25.4309 18.9452C24.9891 19.6587 24.4693 20.3372 23.8507 20.9557ZM15.2281 5.40118C15.4248 4.13129 15.8802 2.99188 16.5432 2.02649C19.3039 2.15942 21.8828 3.28436 23.8507 5.25226C24.8302 6.23169 25.5761 7.35431 26.1124 8.54877C21.8608 6.12952 17.5859 5.62463 15.1967 5.69769C15.2088 5.599 15.2129 5.49939 15.2281 5.40118ZM26.9682 11.4913C27.2283 13.2758 27.0547 15.1069 26.4473 16.8225C24.3807 13.9907 20.7692 12.1043 16.6568 12.1043C16.6251 12.1043 16.5946 12.1082 16.563 12.1084C15.763 10.7078 15.288 9.19513 15.1615 7.67725C17.3185 7.64191 22.3904 8.16455 26.9682 11.4913ZM9.06868 4.43353C10.5493 3.24554 12.291 2.47363 14.1533 2.16339C13.7225 3.06201 13.4143 4.04431 13.2515 5.09552C12.8369 7.77509 13.3983 10.5842 14.8142 13.0745L14.6109 13.3836C13.8731 14.5344 12.9534 15.5115 11.9137 16.2845C9.23219 11.9565 8.87642 7.39227 9.06868 4.43353ZM7.00587 6.61237C7.10188 9.72498 7.87862 13.5761 10.1982 17.3105C9.76009 17.5167 9.31215 17.6989 8.84969 17.8358C7.92964 18.1083 7.01405 18.2165 6.12709 18.1802C4.24538 14.5143 4.54378 10.0205 7.00587 6.61237Z" fill="#7D7F82"/>
</svg>
