<svg width="32" height="32" viewBox="0 0 32 32" fill="none" xmlns="http://www.w3.org/2000/svg">
<path d="M30.9232 7.08755L29.5328 5.68685C29.8813 5.24433 30.0554 4.68933 30.0222 4.12699C29.9889 3.56466 29.7506 3.03407 29.3523 2.63574C28.9541 2.23742 28.4236 1.99904 27.8614 1.96577C27.2992 1.9325 26.7443 2.10665 26.3019 2.45523L24.9114 1.06454C24.2255 0.382698 23.2977 0 22.3307 0C21.3636 0 20.4358 0.382698 19.7499 1.06454L18.5695 2.24513L18.3495 2.02501C17.7343 1.432 16.9132 1.10066 16.0588 1.10066C15.2044 1.10066 14.3833 1.432 13.7681 2.02501L13.1979 2.5953C12.8961 2.8956 12.6566 3.25261 12.4931 3.6458C12.3297 4.039 12.2456 4.46062 12.2456 4.88645C12.2456 5.31227 12.3297 5.73389 12.4931 6.12709C12.6566 6.52028 12.8961 6.87729 13.1979 7.17759L16.4289 10.4092L10.4271 16.4122L7.18615 13.1906C6.57544 12.5851 5.75035 12.2454 4.89046 12.2454C4.03057 12.2454 3.20548 12.5851 2.59478 13.1906L2.02461 13.7609C1.41925 14.3717 1.07962 15.197 1.07962 16.057C1.07962 16.9171 1.41925 17.7423 2.02461 18.3532L2.24467 18.5733L1.06432 19.7539C0.382621 20.4399 0 21.3679 0 22.3352C0 23.3024 0.382621 24.2304 1.06432 24.9165L2.50475 26.3572C2.26304 26.7955 2.16945 27.3002 2.23796 27.796C2.30646 28.2918 2.53338 28.7522 2.88486 29.1086C3.32111 29.5421 3.9104 29.7865 4.52535 29.7889C4.918 29.784 5.30317 29.6808 5.64569 29.4887L7.08612 30.8995C7.42181 31.2449 7.82287 31.5202 8.26594 31.7091C8.70901 31.898 9.18524 31.9969 9.66689 32C10.1469 31.9956 10.6212 31.8961 11.0624 31.7072C11.5037 31.5183 11.9031 31.2437 12.2377 30.8995L13.418 29.7489L13.6481 29.969C14.2558 30.5763 15.0797 30.9174 15.9388 30.9174C16.7978 30.9174 17.6217 30.5763 18.2294 29.969L18.8196 29.3987C19.1215 29.0984 19.361 28.7414 19.5244 28.3482C19.6879 27.955 19.772 27.5334 19.772 27.1076C19.772 26.6817 19.6879 26.2601 19.5244 25.8669C19.361 25.4737 19.1215 25.1167 18.8196 24.8164L15.5687 21.5848L21.5704 15.5818L24.8214 18.8034C25.1177 19.114 25.4728 19.3624 25.8661 19.5342C26.2594 19.706 26.683 19.7977 27.1121 19.8039C27.5425 19.7968 27.9674 19.7047 28.3622 19.533C28.757 19.3613 29.114 19.1134 29.4128 18.8034L29.983 18.2331C30.5907 17.6236 30.9321 16.7978 30.9321 15.937C30.9321 15.0761 30.5907 14.2504 29.983 13.6408L29.7529 13.4207L30.9332 12.2401C31.2722 11.9019 31.541 11.5 31.7241 11.0575C31.9072 10.615 32.0009 10.1406 32 9.66175C31.9991 9.18286 31.9035 8.70888 31.7187 8.26709C31.5339 7.8253 31.2635 7.42443 30.9232 7.08755ZM10.8172 29.5188C10.5078 29.8273 10.0888 30.0005 9.65189 30.0005C9.21499 30.0005 8.79592 29.8273 8.48654 29.5188L2.48475 23.5158C2.32988 23.3648 2.2068 23.1843 2.12277 22.985C2.03873 22.7856 1.99544 22.5715 1.99544 22.3552C1.99544 22.1389 2.03873 21.9247 2.12277 21.7254C2.2068 21.5261 2.32988 21.3456 2.48475 21.1946L3.64509 20.024L11.9876 28.3782L10.8172 29.5188ZM17.3792 26.2271C17.6089 26.4626 17.7375 26.7785 17.7375 27.1076C17.7375 27.4366 17.6089 27.7525 17.3792 27.988L16.819 28.5583C16.5836 28.7881 16.2677 28.9167 15.9388 28.9167C15.6098 28.9167 15.2939 28.7881 15.0585 28.5583L3.44503 16.9425C3.32889 16.8272 3.23672 16.69 3.17382 16.5389C3.11092 16.3878 3.07854 16.2257 3.07854 16.062C3.07854 15.8983 3.11092 15.7363 3.17382 15.5852C3.23672 15.4341 3.32889 15.2969 3.44503 15.1816L4.0052 14.6113C4.24033 14.3809 4.55627 14.2516 4.88546 14.2511C5.04866 14.2503 5.21043 14.2817 5.36148 14.3435C5.51253 14.4053 5.6499 14.4963 5.76572 14.6113L8.99669 17.8929L14.1582 22.9955L17.3792 26.2271ZM14.1482 20.2241L11.8175 17.8929L17.8193 11.8899L20.14 14.2211L14.1482 20.2241ZM28.5425 16.8724L27.9724 17.4427C27.7369 17.6725 27.421 17.8011 27.0921 17.8011C26.7632 17.8011 26.4473 17.6725 26.2118 17.4427L14.6084 5.76689C14.3762 5.53267 14.246 5.21623 14.246 4.88645C14.246 4.55666 14.3762 4.24022 14.6084 4.006L15.1785 3.43572C15.4131 3.20437 15.7294 3.07494 16.0588 3.07554C16.3878 3.07707 16.7033 3.20619 16.9391 3.43572L28.5525 15.0615C28.6702 15.1759 28.7637 15.3128 28.8273 15.464C28.8908 15.6153 28.9233 15.7779 28.9226 15.942C28.9227 16.106 28.89 16.2684 28.8265 16.4196C28.7629 16.5708 28.6698 16.7077 28.5525 16.8224L28.5425 16.8724ZM29.5128 10.8294L28.3525 11.99L20 3.64582L21.1703 2.47524C21.4841 2.17904 21.8992 2.01403 22.3307 2.01403C22.7621 2.01403 23.1773 2.17904 23.491 2.47524L29.4928 8.47824C29.8013 8.78769 29.9745 9.20684 29.9745 9.64383C29.9745 10.0808 29.8013 10.5 29.4928 10.8094L29.5128 10.8294Z" fill="#7D7F82"/>
</svg>
