<svg width="32" height="32" viewBox="0 0 32 32" fill="none" xmlns="http://www.w3.org/2000/svg">
<path d="M15.9825 18C17.0871 18 17.9825 17.1046 17.9825 16C17.9825 14.8954 17.0871 14 15.9825 14C14.8779 14 13.9825 14.8954 13.9825 16C13.9825 17.1046 14.8779 18 15.9825 18Z" fill="#7D7F82"/>
<path fill-rule="evenodd" clip-rule="evenodd" d="M15.9825 0C15.4302 0 14.9825 0.447715 14.9825 1V5.17157L13.1038 3.29289C12.7133 2.90237 12.0801 2.90237 11.6896 3.29289C11.2991 3.68342 11.2991 4.31658 11.6896 4.70711L14.8933 7.91082C14.9218 7.93931 14.9516 7.96573 14.9825 7.99007V10.083C13.5404 10.3249 12.2727 11.0813 11.3746 12.157L9.5698 11.115C9.56417 11.0761 9.55618 11.0371 9.54575 10.9982L8.37311 6.62181C8.23017 6.08834 7.68184 5.77176 7.14837 5.9147C6.6149 6.05764 6.29832 6.60598 6.44126 7.13945L7.12891 9.70577L3.51622 7.61999C3.03793 7.34384 2.42634 7.50772 2.15019 7.98601C1.87405 8.4643 2.03793 9.07589 2.51622 9.35204L6.15676 11.4539L3.54654 12.1533C3.01307 12.2963 2.69649 12.8446 2.83943 13.3781C2.98237 13.9115 3.53071 14.2281 4.06417 14.0852L8.44052 12.9125C8.49279 12.8985 8.54298 12.8806 8.59085 12.8592L10.3662 13.8842C10.1182 14.5422 9.9825 15.2553 9.9825 16C9.9825 16.7332 10.114 17.4357 10.3547 18.0851L8.55375 19.1249C8.51722 19.1104 8.47945 19.0978 8.44052 19.0873L4.06417 17.9147C3.5307 17.7718 2.98237 18.0883 2.83942 18.6218C2.69648 19.1553 3.01307 19.7036 3.54653 19.8466L6.11286 20.5342L2.50017 22.62C2.02187 22.8961 1.858 23.5077 2.13414 23.986C2.41028 24.4643 3.02187 24.6282 3.50017 24.352L7.14071 22.2502L6.4413 24.8604C6.29836 25.3939 6.61494 25.9422 7.14841 26.0851C7.68187 26.2281 8.23021 25.9115 8.37315 25.378L9.54579 21.0017C9.5598 20.9494 9.56939 20.897 9.5748 20.8448L11.3537 19.8178C12.2529 20.9069 13.5291 21.6732 14.9825 21.917V24.0099C14.9516 24.0343 14.9218 24.0607 14.8933 24.0892L11.6896 27.2929C11.2991 27.6834 11.2991 28.3166 11.6896 28.7071C12.0801 29.0976 12.7133 29.0976 13.1038 28.7071L14.9825 26.8284V31C14.9825 31.5523 15.4302 32 15.9825 32C16.5348 32 16.9825 31.5523 16.9825 31V26.7963L18.8933 28.7071C19.2838 29.0976 19.917 29.0976 20.3075 28.7071C20.6981 28.3166 20.6981 27.6834 20.3075 27.2929L17.1038 24.0892C17.0656 24.0509 17.025 24.0164 16.9825 23.9856V21.917C18.4415 21.6723 19.7219 20.901 20.6217 19.8052L22.4223 20.8448C22.4277 20.897 22.4373 20.9494 22.4513 21.0017L23.624 25.378C23.7669 25.9115 24.3153 26.2281 24.8487 26.0851C25.3822 25.9422 25.6988 25.3939 25.5558 24.8604L24.8564 22.2502L28.497 24.352C28.9753 24.6282 29.5869 24.4643 29.863 23.986C30.1391 23.5077 29.9753 22.8961 29.497 22.62L25.8843 20.5342L28.4506 19.8466C28.9841 19.7036 29.3007 19.1553 29.1577 18.6218C29.0148 18.0883 28.4664 17.7718 27.933 17.9147L23.5566 19.0873C23.5177 19.0978 23.4799 19.1104 23.4434 19.1249L21.6159 18.0699C21.853 17.4247 21.9825 16.7274 21.9825 16C21.9825 15.261 21.8489 14.5532 21.6045 13.8995L23.4063 12.8592C23.4542 12.8806 23.5043 12.8985 23.5566 12.9125L27.933 14.0852C28.4664 14.2281 29.0148 13.9115 29.1577 13.3781C29.3006 12.8446 28.9841 12.2963 28.4506 12.1533L25.8404 11.4539L29.4809 9.35204C29.9592 9.07589 30.1231 8.4643 29.8469 7.98601C29.5708 7.50772 28.9592 7.34384 28.4809 7.61999L24.8682 9.70577L25.5559 7.13945C25.6988 6.60598 25.3822 6.05764 24.8488 5.9147C24.3153 5.77176 23.767 6.08834 23.624 6.62181L22.4514 10.9982C22.441 11.0371 22.433 11.0761 22.4273 11.115L20.6009 12.1695C19.7022 11.0872 18.4302 10.3258 16.9825 10.083V8.01438C17.025 7.98362 17.0656 7.94911 17.1038 7.91084L20.3075 4.70713C20.6981 4.31661 20.6981 3.68344 20.3075 3.29292C19.917 2.9024 19.2838 2.9024 18.8933 3.29292L16.9825 5.20374V1C16.9825 0.447715 16.5348 0 15.9825 0ZM12.5264 17.986C12.5527 18.0314 12.5749 18.0781 12.5933 18.1255C13.301 19.2516 14.5544 20 15.9825 20C18.1916 20 19.9825 18.2091 19.9825 16C19.9825 13.7909 18.1916 12 15.9825 12C14.5633 12 13.3167 12.7391 12.6067 13.8534C12.5888 13.8985 12.5675 13.9428 12.5425 13.986C12.5156 14.0326 12.4855 14.0762 12.4527 14.1167C12.1526 14.6779 11.9825 15.3191 11.9825 16C11.9825 16.6714 12.1479 17.3041 12.4402 17.8597C12.4716 17.899 12.5005 17.9411 12.5264 17.986Z" fill="#7D7F82"/>
</svg>
