<svg width="32" height="32" viewBox="0 0 32 32" fill="none" xmlns="http://www.w3.org/2000/svg">
<g clip-path="url(#clip0_5534_20698)">
<path fill-rule="evenodd" clip-rule="evenodd" d="M6.68657 9.30563C6.97715 8.24721 7.42385 7.99994 7.66748 8C7.84653 8.00005 8.06845 8.01753 8.53203 8.71952C9.50447 10.1661 11.2081 12.5 12.7066 12.5C15.1828 12.5 15.286 13.4092 15.286 15C15.286 16.5908 14.8165 20.5 10.643 20.5C6.29786 20.5 5.99984 16.5908 6 14C6 12.6207 6.34158 10.6403 6.68657 9.30563ZM8.06356 14.0001C8.06348 15.2995 8.15702 16.5226 8.5667 17.3856C8.7507 17.7733 8.96799 18.0183 9.21769 18.1773C9.46323 18.3337 9.88558 18.5 10.643 18.5C11.3392 18.5 11.7555 18.3418 12.0168 18.1798C12.2877 18.0118 12.5148 17.7624 12.7037 17.4146C13.1123 16.6627 13.2151 15.1929 13.2151 14.5208C11.8739 14.5208 10.2983 13.8325 9.58095 13.2279C9.08526 12.8101 8.64053 12.3242 8.25388 11.8472C8.13611 12.6053 8.06356 13.3635 8.06356 14.0001Z" fill="#7D7F82"/>
<path fill-rule="evenodd" clip-rule="evenodd" d="M25.4332 9.30563C25.1426 8.24721 24.9111 7.99994 24.6675 8C24.4884 8.00005 24.0513 8.01753 23.5877 8.71952C22.6153 10.1661 20.9117 12.5 19.4131 12.5C16.9369 12.5 16.8337 13.4092 16.8337 15C16.8337 16.5908 17.3032 20.5 21.4767 20.5C25.8219 20.5 26.1199 16.5908 26.1197 14C26.1197 12.6207 25.7781 10.6403 25.4332 9.30563ZM24.0562 14.0001C24.0562 15.2995 23.9627 16.5226 23.553 17.3856C23.369 17.7733 23.1517 18.0183 22.902 18.1773C22.6565 18.3337 22.2341 18.5 21.4767 18.5C20.7805 18.5 20.3642 18.3418 20.1029 18.1798C19.832 18.0118 19.605 17.7624 19.416 17.4146C19.0074 16.6627 18.9047 15.1929 18.9047 14.5208C20.2458 14.5208 21.8215 13.8325 22.5388 13.2279C23.0345 12.8101 23.4792 12.3242 23.8658 11.8472C23.9836 12.6053 24.0562 13.3635 24.0562 14.0001Z" fill="#7D7F82"/>
<path d="M13 26C12.4477 26 12 26.4477 12 27C12 27.5523 12.4477 28 13 28H19C19.5523 28 20 27.5523 20 27C20 26.4477 19.5523 26 19 26H13Z" fill="#7D7F82"/>
<path fill-rule="evenodd" clip-rule="evenodd" d="M16 0C9.25967 0 3.61635 4.67782 2.13148 10.9628C0.867814 11.6311 0 12.9625 0 14.5V17.5C0 19.0375 0.867815 20.3689 2.13148 21.0372C3.61635 27.3222 9.25967 32 16 32C22.7403 32 28.3836 27.3222 29.8685 21.0372C31.1322 20.3689 32 19.0375 32 17.5V14.5C32 12.9625 31.1322 11.6311 29.8685 10.9628C28.3836 4.67782 22.7403 0 16 0ZM3.09336 12.7168C3.51585 12.5016 3.91725 12.1657 4.0154 11.7018C4.90928 7.47696 7.98067 4.05581 12 2.66793V7C12 7.55228 12.4477 8 13 8C13.5523 8 14 7.55228 14 7V2.16246C14.6508 2.05558 15.3189 2 16 2C16.6811 2 17.3492 2.05558 18 2.16246V7C18 7.55228 18.4477 8 19 8C19.5523 8 20 7.55228 20 7V2.66793C24.0193 4.05581 27.0907 7.47696 27.9846 11.7018C28.0827 12.1657 28.4841 12.5016 28.9066 12.7168C29.5556 13.0474 30 13.7218 30 14.5V17.5C30 18.2782 29.5556 18.9526 28.9066 19.2832C28.4841 19.4984 28.0827 19.8343 27.9846 20.2982C27.4205 22.9643 25.9893 25.3103 24 27.0273V26C24 23.7909 22.2091 22 20 22H12C9.79086 22 8 23.7909 8 26V27.0273C6.01067 25.3103 4.57947 22.9643 4.0154 20.2982C3.91725 19.8343 3.51585 19.4984 3.09336 19.2832C2.44445 18.9526 2 18.2782 2 17.5V14.5C2 13.7218 2.44445 13.0474 3.09336 12.7168ZM10.0538 28.4626C11.8146 29.4421 13.8421 30 16 30C18.1579 30 20.1854 29.4421 21.9462 28.4626C21.9814 28.3141 22 28.1592 22 28V26C22 24.8954 21.1046 24 20 24H12C10.8954 24 10 24.8954 10 26V28C10 28.1592 10.0186 28.3141 10.0538 28.4626Z" fill="#7D7F82"/>
</g>
<defs>
<clipPath id="clip0_5534_20698">
<rect width="32" height="32" fill="white"/>
</clipPath>
</defs>
</svg>
